<svg width="239" height="28" viewBox="0 0 239 28" fill="none" xmlns="http://www.w3.org/2000/svg">
<path d="M22.8005 6.57232H22.501C22.2778 5.30367 21.6787 4.22884 20.7037 3.34783C19.7405 2.46682 18.6304 1.82662 17.3735 1.42723C16.1166 1.0161 14.9419 0.810528 13.8495 0.810528C12.3576 0.810528 10.9539 1.12769 9.63823 1.76202C8.33434 2.3846 7.20665 3.27148 6.25516 4.42266C5.30367 5.5621 4.56362 6.93647 4.03502 8.54578C3.50641 10.1433 3.24211 11.8819 3.24211 13.7614C3.24211 15.5821 3.49467 17.2736 3.99978 18.836C4.51664 20.3865 5.26256 21.7374 6.23754 22.8886C7.22427 24.028 8.36371 24.8914 9.65585 25.4788C10.948 26.0661 12.3811 26.3598 13.9552 26.3598C15.2708 26.3598 16.7157 26.0955 18.2897 25.5669C19.8638 25.0265 21.2852 24.1338 22.5538 22.8886V23.893C20.9915 25.1029 19.5584 25.9898 18.2545 26.5536C16.9624 27.1174 15.3472 27.3994 13.409 27.3994C11.365 27.3994 9.49727 27.0293 7.80574 26.2893C6.12595 25.5375 4.70459 24.5273 3.54165 23.2586C2.37872 21.99 1.49771 20.5627 0.898629 18.9769C0.299543 17.3911 0 15.7583 0 14.0785C0 11.553 0.622579 9.20948 1.86774 7.04807C3.1129 4.87491 4.79856 3.15988 6.92473 1.90298C9.05089 0.634326 11.3591 0 13.8495 0C15.3883 0 17.027 0.229062 18.7655 0.687187L20.598 1.19817C20.9504 1.26865 21.2499 1.30389 21.4966 1.30389C21.9547 1.30389 22.2601 1.23929 22.4129 1.11007C22.5656 0.969109 22.683 0.722427 22.7653 0.370024H23.0472L22.8005 6.57232ZM37.1786 0.440504L44.9491 22.6772C45.3602 23.8283 45.7478 24.6624 46.112 25.1792C46.4761 25.6961 46.8227 26.025 47.1516 26.166C47.4922 26.2952 47.921 26.3833 48.4379 26.4303V26.7122H39.9625V26.4303C40.8318 26.4303 41.5014 26.348 41.9712 26.1836C42.4411 26.0191 42.6761 25.5727 42.6761 24.8444C42.6761 24.4451 42.5645 23.9106 42.3413 23.241C42.2943 23.147 42.2708 23.0766 42.2708 23.0296L39.9625 16.1401H30.9763L28.9147 22.5186C28.6328 23.3878 28.4918 24.0868 28.4918 24.6154C28.4918 25.3437 28.6739 25.8312 29.038 26.0779C29.4022 26.3128 29.9191 26.4303 30.5886 26.4303V26.7122H24.492V26.4303C25.3613 26.348 26.0544 26.0191 26.5712 25.4435C27.0998 24.8562 27.5579 23.9693 27.9456 22.7829L35.2756 0.440504H37.1786ZM31.2758 15.2062H39.5397L35.3108 2.88971H35.2403L31.2758 15.2062ZM63.5383 5.74418H63.2564C63.092 4.48727 62.5399 3.38895 61.6001 2.4492C60.6721 1.49771 59.4446 1.02197 57.9175 1.02197C56.919 1.02197 56.0321 1.25691 55.2569 1.72678C54.4816 2.19665 53.8825 2.83685 53.4596 3.64738C53.0367 4.4579 52.8253 5.3859 52.8253 6.43136C52.8253 7.24189 52.9486 7.96432 53.1953 8.59864C53.4537 9.22122 53.8296 9.77332 54.323 10.2549C54.8164 10.7366 55.3978 11.1888 56.0674 11.6117C56.737 12.0228 57.6415 12.5456 58.7809 13.1799C60.6839 14.2254 62.164 15.2708 63.2212 16.3163C64.2784 17.35 64.807 18.7714 64.807 20.5804C64.807 21.6846 64.5192 22.7535 63.9436 23.7872C63.3798 24.8092 62.5222 25.6491 61.3711 26.3069C60.2199 26.9647 58.7926 27.2936 57.0894 27.2936C56.0204 27.2936 55.0748 27.1762 54.2525 26.9412C53.4302 26.7181 52.5962 26.4009 51.7504 25.9898C51.398 25.8723 51.1572 25.8136 51.028 25.8136C50.7813 25.8136 50.6169 25.9017 50.5347 26.0779C50.4642 26.2541 50.3643 26.6358 50.2351 27.2232H49.9356V20.7213H50.2351C50.658 22.6243 51.4803 24.0633 52.7019 25.0383C53.9236 26.0132 55.4096 26.5007 57.1598 26.5007C58.4755 26.5007 59.5268 26.2541 60.3138 25.7607C61.1126 25.2673 61.6647 24.6682 61.9701 23.9634C62.2756 23.2586 62.4283 22.5538 62.4283 21.849C62.4283 20.3924 61.9819 19.206 61.0891 18.2897C60.2081 17.3617 58.8631 16.4161 57.0541 15.4529C55.809 14.7716 54.8868 14.243 54.2877 13.8671C53.6887 13.4912 53.0778 13.0037 52.4552 12.4046C51.8444 11.8055 51.3569 11.1007 50.9928 10.2902C50.6286 9.46791 50.4465 8.52816 50.4465 7.47095C50.4465 6.24929 50.7696 5.08048 51.4157 3.96454C52.0617 2.84859 52.978 1.95584 54.1644 1.28627C55.3508 0.604959 56.6958 0.264303 58.1994 0.264303C59.3389 0.264303 60.5077 0.458124 61.7058 0.845768C61.8938 0.939742 62.1463 0.98673 62.4635 0.98673C62.8512 0.98673 63.1155 0.722427 63.2564 0.193822H63.5383V5.74418ZM92.7702 26.7122H87.3256V22.4129L87.2375 22.3424C86.4857 24.0926 85.358 25.373 83.8544 26.1836C82.3626 26.9941 80.8002 27.3994 79.1674 27.3994C77.3232 27.3994 75.661 26.9589 74.1809 26.0779C72.7126 25.1968 71.6319 24.1103 70.9388 22.8181C70.4454 21.9019 70.1342 20.9504 70.0049 19.9637C69.8757 18.9652 69.8111 17.9315 69.8111 16.8625V3.94692C69.8111 3.17163 69.6525 2.51968 69.3354 1.99108C69.03 1.46247 68.2899 1.15118 67.1152 1.05721V0.757667H75.2734V1.05721C74.0752 1.19817 73.3117 1.5447 72.9827 2.0968C72.6538 2.6489 72.4894 3.26561 72.4894 3.94692V16.6511C72.4894 19.2354 72.7537 21.1442 73.2823 22.3776C73.8461 23.6933 74.6919 24.7211 75.8196 25.4611C76.9473 26.2012 78.2277 26.5712 79.6608 26.5712C80.2599 26.5712 80.9706 26.4655 81.7928 26.2541C82.6151 26.0426 83.3845 25.6902 84.1011 25.1968C86.2507 23.7285 87.3256 21.3733 87.3256 18.1312V3.94692C87.3256 3.23036 87.1611 2.59604 86.8322 2.04394C86.5033 1.49184 85.728 1.16293 84.5063 1.05721V0.757667H92.8054V1.05721C91.6073 1.11594 90.8379 1.45073 90.4972 2.06156C90.1565 2.67239 89.9862 3.2891 89.9862 3.91168V23.5758C89.9862 24.2571 90.0978 24.7975 90.321 25.1968C90.5559 25.5845 90.8731 25.8605 91.2725 26.025C91.6836 26.1894 92.1829 26.3245 92.7702 26.4303V26.7122ZM107.166 0.440504L114.936 22.6772C115.348 23.8283 115.735 24.6624 116.099 25.1792C116.463 25.6961 116.81 26.025 117.139 26.166C117.48 26.2952 117.908 26.3833 118.425 26.4303V26.7122H109.95V26.4303C110.819 26.4303 111.489 26.348 111.959 26.1836C112.428 26.0191 112.663 25.5727 112.663 24.8444C112.663 24.4451 112.552 23.9106 112.329 23.241C112.282 23.147 112.258 23.0766 112.258 23.0296L109.95 16.1401H100.964L98.902 22.5186C98.6201 23.3878 98.4791 24.0868 98.4791 24.6154C98.4791 25.3437 98.6612 25.8312 99.0254 26.0779C99.3895 26.3128 99.9064 26.4303 100.576 26.4303V26.7122H94.4794V26.4303C95.3486 26.348 96.0417 26.0191 96.5585 25.4435C97.0871 24.8562 97.5453 23.9693 97.9329 22.7829L105.263 0.440504H107.166ZM101.263 15.2062H109.527L105.298 2.88971H105.228L101.263 15.2062ZM120.222 26.4303H120.575C121.209 26.4303 121.767 26.1836 122.249 25.6902C122.742 25.1851 122.989 24.4803 122.989 23.5758V3.98216C122.989 2.90145 122.713 2.14966 122.161 1.72678C121.62 1.30389 120.974 1.0807 120.222 1.05721V0.757667H128.522V1.05721C127.793 1.0807 127.147 1.29802 126.583 1.70916C126.019 2.12029 125.738 2.87796 125.738 3.98216V22.9238C125.738 24.0515 126.019 24.8327 126.583 25.2673C127.147 25.702 128.069 25.9193 129.35 25.9193H131.587C132.562 25.9193 133.338 25.8018 133.913 25.5669C134.501 25.3319 134.965 24.9737 135.305 24.492C135.646 24.0104 135.992 23.3291 136.345 22.4481H136.644L135.658 26.7122H120.222V26.4303ZM173.7 6.57232H173.4C173.177 5.30367 172.578 4.22884 171.603 3.34783C170.64 2.46682 169.53 1.82662 168.273 1.42723C167.016 1.0161 165.841 0.810528 164.749 0.810528C163.257 0.810528 161.853 1.12769 160.537 1.76202C159.233 2.3846 158.106 3.27148 157.154 4.42266C156.203 5.5621 155.463 6.93647 154.934 8.54578C154.406 10.1433 154.141 11.8819 154.141 13.7614C154.141 15.5821 154.394 17.2736 154.899 18.836C155.416 20.3865 156.162 21.7374 157.137 22.8886C158.123 24.028 159.263 24.8914 160.555 25.4788C161.847 26.0661 163.28 26.3598 164.854 26.3598C166.17 26.3598 167.615 26.0955 169.189 25.5669C170.763 25.0265 172.184 24.1338 173.453 22.8886V23.893C171.891 25.1029 170.458 25.9898 169.154 26.5536C167.861 27.1174 166.246 27.3994 164.308 27.3994C162.264 27.3994 160.396 27.0293 158.705 26.2893C157.025 25.5375 155.604 24.5273 154.441 23.2586C153.278 21.99 152.397 20.5627 151.798 18.9769C151.199 17.3911 150.899 15.7583 150.899 14.0785C150.899 11.553 151.522 9.20948 152.767 7.04807C154.012 4.87491 155.698 3.15988 157.824 1.90298C159.95 0.634326 162.258 0 164.749 0C166.287 0 167.926 0.229062 169.665 0.687187L171.497 1.19817C171.85 1.26865 172.149 1.30389 172.396 1.30389C172.854 1.30389 173.159 1.23929 173.312 1.11007C173.465 0.969109 173.582 0.722427 173.664 0.370024H173.946L173.7 6.57232ZM196.5 12.6337V3.94692C196.5 3.10115 196.271 2.40809 195.813 1.86774C195.355 1.32739 194.644 1.05721 193.681 1.05721V0.757667H201.945V1.05721C200.982 1.05721 200.277 1.32739 199.83 1.86774C199.384 2.39634 199.161 3.0894 199.161 3.94692V23.5758C199.161 25.4788 200.089 26.4303 201.945 26.4303V26.7122H193.681V26.4303C194.562 26.4303 195.249 26.1953 195.742 25.7254C196.248 25.2438 196.5 24.539 196.5 23.611V13.4266H181.629V23.5758C181.629 24.4803 181.881 25.1851 182.386 25.6902C182.903 26.1836 183.59 26.4303 184.448 26.4303V26.7122H176.184V26.4303C177.077 26.4303 177.758 26.1836 178.228 25.6902C178.71 25.1851 178.95 24.4803 178.95 23.5758V3.94692C178.95 2.02045 178.028 1.05721 176.184 1.05721V0.757667H184.448V1.05721C183.473 1.05721 182.756 1.32739 182.298 1.86774C181.852 2.39634 181.629 3.0894 181.629 3.94692V12.6337H196.5ZM212.711 0.757667V1.05721C211.935 1.05721 211.278 1.27453 210.737 1.70916C210.197 2.14379 209.927 2.86621 209.927 3.87644V23.5758C209.927 24.5743 210.215 25.3026 210.79 25.7607C211.366 26.2071 212.006 26.4303 212.711 26.4303V26.7122H204.482V26.4303C205.234 26.4303 205.88 26.2129 206.42 25.7783C206.972 25.3319 207.248 24.5978 207.248 23.5758V3.87644C207.248 2.79573 206.972 2.05569 206.42 1.6563C205.88 1.25691 205.234 1.05721 204.482 1.05721V0.757667H212.711ZM238.753 6.57232H238.454C238.231 5.30367 237.632 4.22884 236.657 3.34783C235.693 2.46682 234.583 1.82662 233.326 1.42723C232.069 1.0161 230.895 0.810528 229.802 0.810528C228.31 0.810528 226.907 1.12769 225.591 1.76202C224.287 2.3846 223.159 3.27148 222.208 4.42266C221.256 5.5621 220.516 6.93647 219.988 8.54578C219.459 10.1433 219.195 11.8819 219.195 13.7614C219.195 15.5821 219.447 17.2736 219.953 18.836C220.469 20.3865 221.215 21.7374 222.19 22.8886C223.177 24.028 224.317 24.8914 225.609 25.4788C226.901 26.0661 228.334 26.3598 229.908 26.3598C231.224 26.3598 232.668 26.0955 234.243 25.5669C235.817 25.0265 237.238 24.1338 238.507 22.8886V23.893C236.944 25.1029 235.511 25.9898 234.207 26.5536C232.915 27.1174 231.3 27.3994 229.362 27.3994C227.318 27.3994 225.45 27.0293 223.759 26.2893C222.079 25.5375 220.657 24.5273 219.494 23.2586C218.332 21.99 217.451 20.5627 216.851 18.9769C216.252 17.3911 215.953 15.7583 215.953 14.0785C215.953 11.553 216.575 9.20948 217.821 7.04807C219.066 4.87491 220.751 3.15988 222.878 1.90298C225.004 0.634326 227.312 0 229.802 0C231.341 0 232.98 0.229062 234.718 0.687187L236.551 1.19817C236.903 1.26865 237.203 1.30389 237.449 1.30389C237.908 1.30389 238.213 1.23929 238.366 1.11007C238.518 0.969109 238.636 0.722427 238.718 0.370024H239L238.753 6.57232Z" fill="#083B50"/>
</svg>
