<svg width="4" height="4" viewBox="0 0 4 4" fill="none" xmlns="http://www.w3.org/2000/svg">
<path id="Vector" d="M0.936588 1.06389C0.936588 1.60389 0.386584 1.8739 0.526584 2.4439C1.17658 2.7739 1.76659 1.61389 1.84659 1.60389C2.13659 1.60389 2.31659 1.9039 2.46659 1.8339C2.61659 1.7639 3.07658 0.703894 3.36658 0.363894C3.51658 0.183894 3.87659 -0.236108 3.98659 0.173892C3.94306 0.643893 3.80129 1.09951 3.57045 1.51123C3.33962 1.92294 3.02486 2.28157 2.64658 2.56389C2.25658 2.68389 2.07658 2.3439 1.97658 2.3439C1.87658 2.3439 1.18659 3.2239 0.546588 3.0539C-0.763412 2.7039 0.656588 0.753891 0.936588 1.06389Z" fill="#22234B"/>
</svg>
