<svg width="51" height="48" viewBox="0 0 51 48" fill="none" xmlns="http://www.w3.org/2000/svg">
<path id="Vector" d="M35.1002 2.51909C35.1702 2.51909 35.5202 2.30909 35.7702 2.42909C36.6002 2.81909 36.3602 5.24909 36.7102 6.06909C37.6102 5.47909 38.4802 4.22909 39.4302 3.75909C44.8402 1.09909 49.0602 6.40909 50.1802 11.2191C52.0702 19.3391 48.1802 24.3891 46.4302 31.8391C45.6865 34.7516 45.297 37.7432 45.2702 40.7491C44.9102 41.1391 41.8002 40.6491 41.3202 40.2891C41.2041 40.2242 41.118 40.1165 41.0802 39.9891L40.5702 26.4491C39.4138 27.8937 38.3452 29.4064 37.3702 30.9791C35.5002 34.2791 34.1102 40.0391 31.2102 42.3891C29.5102 43.7591 22.0802 45.5991 19.5702 46.2091C16.6802 46.9091 13.6902 47.4291 10.7602 47.9491C8.48018 47.2391 12.5002 42.3791 12.1102 41.9491C9.57018 43.1391 3.34018 47.3791 0.74018 45.0091C-1.25982 43.1691 1.31018 37.8691 2.38018 35.8591C4.68018 31.5691 6.99018 30.5891 10.2402 27.5491C14.0102 24.0291 14.2402 19.0891 16.3602 14.6991C19.0202 9.2091 25.4802 2.49909 31.1502 0.209091C32.4702 -0.320909 33.2802 0.209091 34.2602 1.20909C34.5639 1.63011 34.8443 2.06743 35.1002 2.51909ZM19.1002 24.8091C18.7202 24.2591 20.9802 20.0291 21.4002 19.2691C23.6202 15.2691 27.3102 9.77909 31.1502 7.26909C32.1502 6.59909 32.2102 7.20909 33.1502 5.70909C33.7302 4.70909 34.2202 3.79909 33.7202 2.70909C32.6002 0.119091 29.1502 4.07909 28.1002 3.65909C27.7202 3.50909 27.9102 2.94909 27.4602 3.11909C27.1802 3.22909 23.7002 6.79909 23.2302 7.32909C21.6207 9.20853 20.2098 11.2494 19.0202 13.4191C16.8202 17.4891 15.6502 23.1591 12.9102 26.7591C11.5402 28.5791 9.19018 29.8791 7.66018 31.5791L8.13018 31.8091C6.95018 32.7291 6.82019 36.0691 8.70019 35.9091C10.5802 35.7491 15.8802 30.3191 17.3802 28.6491C18.3802 27.5091 19.3802 26.2091 20.3102 25.0191C20.1102 24.7291 19.3002 25.0391 19.1402 24.8091H19.1002ZM7.10018 32.0691C5.12572 34.2496 3.55158 36.7614 2.45019 39.4891C1.93019 40.6991 0.220183 43.7491 2.29018 44.0291C5.19018 44.4191 8.65018 41.6991 11.2902 40.6291C11.8802 40.3891 12.9602 40.3291 13.2902 40.0391C13.8102 39.5791 15.4202 35.7991 16.0302 34.8091C18.4202 30.9391 21.1802 29.6291 24.0302 26.6591C28.7702 21.7491 29.1402 15.4391 33.1102 9.9791C33.5202 9.4091 35.5302 7.33909 35.6002 7.07909C35.9302 5.97909 35.5102 4.17909 35.4102 3.07909L33.8202 6.74908C27.0802 15.5591 21.1202 28.9091 11.9702 35.4991C8.24018 38.2191 5.59018 36.8591 7.19018 32.0691H7.10018ZM44.3502 37.9291C44.5231 35.3031 44.9382 32.6987 45.5902 30.1491C47.4002 22.6091 51.2802 17.7991 48.2802 9.51909C47.3602 6.96909 44.7602 3.06909 41.6402 3.28909C39.7002 3.41909 36.3102 7.55908 35.1202 9.13908C30.8102 14.8591 30.0502 21.5091 25.3702 26.9791C23.9702 28.6091 22.3702 29.5791 20.9202 30.9791C19.6884 32.2602 18.5489 33.627 17.5102 35.0691C17.3202 35.9291 18.4102 37.1391 19.3902 37.1591C22.3902 37.2191 27.9102 32.0791 29.8202 29.8091C34.8902 23.8091 36.5502 13.5691 43.0602 8.60909C43.6402 8.16909 44.2402 8.65909 43.8302 7.14909C43.4202 5.63909 41.9902 6.35908 42.0102 5.91908L42.4702 5.3391C41.6102 4.8691 40.4702 5.79909 40.6002 4.39909C42.5202 3.52909 42.3402 4.99908 43.0102 5.49908C43.6802 5.99908 44.5702 5.63908 44.8002 7.10909C45.4002 10.8791 40.1402 17.6991 37.9802 20.8691C34.4502 26.0591 30.6802 31.9491 25.5802 35.6491C23.3902 37.2391 19.5802 39.5891 16.8702 37.9091C16.6002 37.7391 16.5502 37.0691 16.2402 37.3091C15.5902 38.3091 10.6702 46.3991 11.0802 46.7991C14.2402 46.1991 17.3902 45.4391 20.5002 44.6291C22.5002 44.1191 28.7902 42.6291 30.0402 41.7491C32.8402 39.7491 34.1802 33.1191 36.0402 29.9591C36.6502 28.9591 40.1702 23.8691 41.5402 24.8791C42.0102 25.2291 41.5402 29.1191 41.5402 30.0591C41.5402 31.4091 41.9302 33.1391 42.0102 34.5091C42.0902 35.8791 42.0102 37.0891 42.0102 38.3691C42.4102 38.3691 42.2102 37.8291 42.6202 37.6891C43.0302 37.5491 43.8902 37.9791 44.4402 37.9291H44.3502ZM43.8802 8.87909C43.5902 8.64909 42.9602 9.35909 43.1802 9.57909C43.6302 9.94909 44.0202 8.91909 43.9702 8.87909H43.8802ZM20.7402 24.1291C21.0248 24.0233 21.2684 23.8296 21.4356 23.5761C21.6028 23.3226 21.685 23.0224 21.6702 22.7191C21.3402 22.7691 20.5902 23.8691 20.7402 24.1291ZM44.1602 39.3591H42.9902V39.5891H44.1602V39.3591Z" fill="#22234B"/>
</svg>
