<svg width="48" height="29" viewBox="0 0 48 29" fill="none" xmlns="http://www.w3.org/2000/svg">
<path id="Vector" d="M46.8927 0.25152C42.8927 1.39152 41.4327 6.31152 39.8927 9.72152C38.9527 11.8615 37.7527 13.8815 35.5527 14.9315C33.5095 15.7328 31.3097 16.0543 29.1227 15.8715C21.7727 15.7615 12.9527 16.8115 7.19271 22.0015C7.61271 20.7815 7.67271 19.2915 6.08271 19.2415C4.98271 19.2415 4.08271 20.3915 3.41271 21.1315C2.0587 22.7193 0.989605 24.5293 0.252717 26.4815C0.241306 26.5838 0.266069 26.6867 0.322701 26.7726C0.379334 26.8585 0.464255 26.9218 0.562714 26.9515C3.06271 27.4215 5.56271 27.8715 8.08271 28.2515C9.19271 28.4215 10.6627 28.6615 11.1927 27.3615C12.2827 24.7015 8.66271 23.4815 6.76271 23.6915V23.7415C7.16271 23.8415 7.65272 23.8515 8.03272 23.9815L8.65271 24.1115L10.2527 27.6015C9.75272 28.2615 7.11271 27.6015 6.49271 27.4615C4.61271 27.1515 2.74271 26.8115 0.872712 26.4615C1.54204 24.8015 2.46651 23.2562 3.61271 21.8815C4.01271 21.4115 4.77271 20.2515 5.48271 20.0915C6.86271 20.3915 7.23271 20.9915 6.58271 21.8915C6.44087 22.1635 6.27345 22.4213 6.08271 22.6615C5.95271 22.8415 6.19271 23.2115 6.40271 23.2715C6.61271 23.3315 6.58271 23.4015 6.66271 23.3615C10.8027 20.9915 14.3427 18.5515 19.1127 17.4215C23.2127 16.4215 27.1827 16.8015 31.3427 16.6415C35.0527 16.4915 37.9427 15.1415 39.7227 11.7715C40.7227 9.83151 41.3027 7.67151 42.3027 5.77151C43.4427 3.53151 45.3027 2.22153 46.8627 0.351527C46.9427 0.281527 46.9127 0.24152 46.8927 0.25152Z" fill="#E8CC33" stroke="#E8CC33" stroke-width="0.5" stroke-miterlimit="10"/>
</svg>
