<svg width="41" height="31" viewBox="0 0 41 31" fill="none" xmlns="http://www.w3.org/2000/svg">
<path id="Vector" d="M39.3864 1.69438C39.4764 1.61438 38.8764 -0.205624 39.3864 0.304376C39.803 1.19894 40.1377 2.12941 40.3864 3.08437L39.7564 2.24438C38.5164 2.60438 37.2164 2.57438 35.9764 2.89438C33.0464 3.67438 33.1564 4.89438 33.7664 7.55438C34.1158 8.72019 34.3602 9.91497 34.4964 11.1244C34.4964 11.5144 34.0764 12.0544 34.3064 12.7044C34.4832 12.9196 34.6736 13.1234 34.8764 13.3144C35.0964 13.4344 35.5464 13.3144 35.9364 13.5744C36.9364 14.1144 36.5964 14.7544 36.8064 15.4744C37.0164 16.1944 37.7364 15.9944 37.4464 17.4144C37.2064 18.5844 36.6064 18.4944 35.8164 18.8444C35.4464 19.0044 35.2064 19.5744 34.5564 19.2544C34.3564 19.1544 34.2564 18.5244 34.0064 18.7644C33.7564 19.0044 33.8664 20.3844 33.3964 20.7644C32.9264 21.1444 32.8264 20.7644 32.6064 20.8344C32.3864 20.9044 32.0364 21.9244 31.3664 21.1044C30.9664 20.6244 31.1564 19.5644 31.0964 19.5044C31.0364 19.4444 30.0964 19.7444 29.8964 18.9544C29.86 18.475 29.9642 17.9954 30.1964 17.5744C30.3164 17.3644 30.6264 16.9944 30.8164 17.3544C30.5464 17.6644 30.0664 18.9244 30.7464 18.9544C30.9264 18.9544 31.1764 18.8044 31.2864 18.8244C31.6064 18.9044 31.5964 20.5244 31.7864 20.8944C32.1764 20.9844 32.1864 20.4144 32.4264 20.3544C32.6664 20.2944 32.9664 20.6344 33.2464 20.3544C33.7664 19.8044 33.2464 19.3544 33.2464 19.1644C33.4525 18.9447 33.6063 18.6813 33.6963 18.3939C33.7864 18.1064 33.8103 17.8024 33.7664 17.5044C33.5964 16.5744 33.0564 17.5544 32.9964 17.5644C31.9964 17.8944 33.2164 16.1744 32.5864 16.0444C31.9564 15.9144 31.2464 17.7244 30.9964 17.4344C30.7164 16.4344 32.3164 14.8044 33.1464 15.7744C33.3064 15.9644 33.2964 16.2644 33.4364 16.4544C33.5764 16.6444 33.9264 16.7244 34.1064 17.0244C34.2864 17.3244 34.3764 19.0944 34.9464 19.0244C35.5164 18.9544 35.6664 18.3944 35.7164 18.0244C36.6564 18.7144 37.1664 17.2144 36.9364 16.4444C36.8264 16.0744 36.3764 16.4444 36.1264 16.3544C35.8764 16.2644 36.6464 14.8644 35.9264 14.2644C35.2064 13.6644 34.5264 14.6144 34.3264 14.4144C34.8164 12.6144 33.4764 13.4144 33.3264 14.5544C32.9864 14.8644 30.4764 11.9544 30.3264 11.5544L28.3264 8.31438L27.2164 22.0544L26.9364 21.8444L26.6664 19.1444C26.6664 22.2844 26.6664 25.4344 26.3764 28.5644C25.9464 28.5644 25.4964 28.5644 25.0764 28.5644C24.8764 28.5644 24.7364 28.3344 24.6264 28.3144C24.5164 28.2944 24.2864 28.5444 24.0864 28.5744C23.4164 28.6644 23.4864 28.2344 22.5164 28.7944C21.7982 29.2772 20.9934 29.6168 20.1464 29.7944C18.7964 30.0944 14.3064 30.9144 13.1464 30.6544C11.6264 30.3244 12.8264 27.5044 12.3564 27.1444C11.6764 26.6344 9.04641 26.8644 8.11641 26.8044C6.34641 26.6744 1.8064 25.8044 0.486401 24.7144C0.00640109 24.3044 -0.0336001 24.2144 0.0163999 23.5644C0.2364 20.7244 2.0164 15.7644 3.0164 12.9544C3.8766 10.1945 4.93606 7.50078 6.18641 4.89438C6.73641 3.89438 6.93641 4.03438 7.66641 3.49438C8.53797 2.79115 9.48755 2.19053 10.4964 1.70438C10.9464 1.49438 13.4964 0.364377 13.7364 0.704377C13.9764 1.04438 11.8864 1.70438 12.0764 1.95438C12.3596 2.0197 12.6067 2.1916 12.7664 2.43437C15.0764 5.21437 16.0264 8.79438 17.4664 12.0244C17.5464 12.1944 17.4064 12.2744 17.7564 12.2244C18.3207 8.34023 19.1968 4.50784 20.3764 0.764375C20.3764 0.504375 19.4764 0.694379 19.9764 0.214379C21.8064 0.214379 23.6364 -0.0656252 25.4564 0.0143748C25.9964 0.0143748 26.8764 0.0943763 27.3864 0.164376C28.2216 0.272628 29.0408 0.480787 29.8264 0.784379C30.6564 1.26438 31.6964 4.58438 32.4064 5.42438C32.4319 4.73458 32.6778 4.07109 33.1079 3.53121C33.538 2.99132 34.1297 2.60342 34.7964 2.42438C35.5437 2.1368 36.3225 1.93875 37.1164 1.83437L39.3864 1.69438ZM29.3864 0.694375L26.7564 0.554376L28.0964 0.944375C28.2864 1.12438 28.5864 1.16438 28.7864 1.30438C28.9864 1.44438 28.7864 1.51438 28.7864 1.52438C28.7864 1.53438 29.5864 0.914374 29.3964 0.724374L29.3864 0.694375ZM24.8064 1.11437H23.8064V1.24438H24.8064V1.11437ZM23.4164 2.49438H23.1164V2.91438C23.163 2.91078 23.2084 2.89761 23.2497 2.87568C23.291 2.85375 23.3273 2.82355 23.3564 2.78695C23.3855 2.75035 23.4067 2.70814 23.4188 2.66296C23.4308 2.61778 23.4334 2.5706 23.4264 2.52438L23.4164 2.49438ZM30.3564 4.30438C30.4364 4.22438 30.1564 3.57438 30.0864 3.74438V4.30438H30.3564ZM29.6664 8.46438L28.9764 4.30438C28.7145 5.03798 28.5399 5.79991 28.4564 6.57438C28.7583 7.27522 29.1702 7.92338 29.6764 8.49438L29.6664 8.46438ZM27.4464 9.46438L27.7164 6.82438C27.2564 7.17438 27.2664 7.96438 27.0564 8.46438L27.4464 9.46438ZM25.6364 7.93437H25.2264L24.2264 16.1244C24.4964 16.1244 24.4564 15.8444 24.4964 15.6444C25.0164 13.0944 25.3064 10.5044 25.6464 7.93437H25.6364ZM8.0164 10.7144C7.92314 10.7092 7.82966 10.7092 7.7364 10.7144V11.4044C8.0164 11.4044 8.11641 10.8444 8.02641 10.7144H8.0164ZM32.7164 12.3744C32.5664 12.3744 32.1664 12.4444 32.1664 12.5844C32.1664 12.7244 33.3064 14.5844 33.1664 13.2844C33.1164 13.2344 32.5064 12.9044 32.7264 12.3744H32.7164ZM8.9864 13.6244C8.6264 13.6244 8.7664 13.6244 8.7064 13.8344C8.13428 16.0156 7.71658 18.2344 7.4564 20.4744L11.9064 22.6444L8.9864 13.6244ZM4.5464 17.9344C3.7664 17.7744 3.79641 18.4544 3.71641 19.0444C4.36128 19.0194 4.99564 19.2132 5.5164 19.5944L5.6564 19.1844C4.8064 19.2944 4.43641 18.7544 4.55641 17.9344H4.5464ZM3.2964 21.5344C3.27311 21.5209 3.24724 21.5125 3.22047 21.5098C3.1937 21.5071 3.16667 21.51 3.14114 21.5186C3.11562 21.5271 3.09218 21.5409 3.0724 21.5591C3.05262 21.5774 3.03695 21.5996 3.02641 21.6244C2.84389 22.1796 2.74942 22.7599 2.74641 23.3444L5.24641 23.4844L3.5664 22.0244C3.4064 21.9644 3.33641 21.5644 3.30641 21.5344H3.2964ZM19.9464 26.3944L20.0864 24.1744C19.8564 24.1744 19.8264 24.6344 19.8164 24.7944C19.7914 25.1673 19.7914 25.5415 19.8164 25.9144C19.8264 26.0844 19.7164 26.4244 19.9564 26.3944H19.9464ZM18.8364 26.3944L18.9764 25.1444C18.6864 25.2344 18.5564 26.2544 18.8464 26.3944H18.8364Z" fill="#22234B"/>
</svg>
