<svg width="14" height="10" viewBox="0 0 14 10" fill="none" xmlns="http://www.w3.org/2000/svg">
<path id="Vector" d="M0.45434 8.71405C0.45434 8.80405 0.714328 9.63404 0.254328 8.91404C0.0145397 7.80099 -0.0562457 6.65818 0.0443368 5.52404C0.0891178 4.64362 0.383778 3.79418 0.893824 3.07516C1.40387 2.35614 2.1082 1.79729 2.92434 1.46405C3.65434 1.19405 4.41433 1.23405 5.10433 1.00405C5.79433 0.774046 6.36433 0.194046 7.10433 0.0740459C7.87269 -0.0498125 8.65811 -0.0180338 9.41395 0.167491C10.1698 0.353015 10.8806 0.688506 11.5043 1.15405C12.5543 2.15405 13.2043 5.00404 12.9643 6.42404C12.7643 6.64404 12.1443 4.14404 12.0643 3.92404C11.7706 2.8807 11.0894 1.98901 10.16 1.43135C9.23052 0.873695 8.12315 0.692217 7.06434 0.924044C6.27434 1.01404 5.92433 1.51405 5.27433 1.76405C4.14433 2.19405 3.22433 2.02405 2.11433 2.86405C1.13493 3.79079 0.548 5.0577 0.474329 6.40405C0.429341 7.17324 0.422677 7.94419 0.45434 8.71405Z" fill="#22234B"/>
</svg>
