<svg width="5" height="7" viewBox="0 0 5 7" fill="none" xmlns="http://www.w3.org/2000/svg">
<path id="Vector" d="M4.50999 1.53013C4.78011 1.95007 4.89861 2.4497 4.84587 2.94622C4.79313 3.44273 4.57231 3.90632 4.22 4.26014C4.07 4.38014 3.78999 4.38014 3.65999 4.54014C3.29999 4.97014 3.47999 6.03013 2.39999 6.07013C1.15999 6.07013 1.72 4.26013 2.06 4.67013C2.06 6.08013 2.7 5.57014 3.06 4.61014C3.16 4.34014 3.15999 3.84014 3.25999 3.69014C3.35999 3.54014 3.73 3.69013 3.89 3.63013C4.35 3.44013 4.33999 2.45013 4.29999 2.03013C3.99999 1.97013 3.76999 2.55013 3.53999 2.18013C3.30999 1.81013 4 0.780133 3.09 0.530133C1.96 0.220133 2.27999 1.53013 1.73999 1.53013C1.19999 1.53013 1.45 0.760132 1.39 0.700132C1.33 0.640132 0.26 0.900131 0 0.770131C0.157691 0.530448 0.373148 0.334295 0.626541 0.199735C0.879934 0.0651744 1.16311 -0.00346444 1.45 0.00013458C1.66 0.00013458 1.84999 0.220138 2.00999 0.230138C2.16999 0.240138 2.51 -0.0298666 2.95 0.0301334C3.84 0.140133 3.9 0.830132 4.25 1.38013C4.29 1.43013 4.47999 1.47013 4.50999 1.53013Z" fill="#22234B"/>
</svg>
