<svg width="11" height="4" viewBox="0 0 11 4" fill="none" xmlns="http://www.w3.org/2000/svg">
<path id="Vector" d="M5.73 0.112567C5.94 0.332567 6.2 1.01257 6.52 1.33257C6.77963 1.60734 7.1051 1.81126 7.46561 1.92501C7.82611 2.03877 8.2097 2.05857 8.58 1.98256C9.23 1.88256 9.7 1.38257 10.34 1.32257C10.03 2.58257 7.86 3.04257 6.84 2.54257C6.30379 2.12539 5.8408 1.62183 5.47 1.05256C4.66 2.12256 3.47 3.38257 2 3.28257C1.57508 3.19958 1.17445 3.02154 0.828094 2.76178C0.48174 2.50201 0.19864 2.16725 0 1.78257C0 1.59257 7.92742e-06 1.18256 0.180008 1.19256C0.360008 1.20256 0.440006 1.71256 0.600006 1.88256C1.70001 3.10256 3.11 2.45257 4.14 1.53257C4.48 1.23257 5.28 0.0525668 5.38 0.00256682C5.44277 -0.00409073 5.50622 0.00223556 5.56644 0.0211597C5.62665 0.0400838 5.68232 0.0712013 5.73 0.112567Z" fill="#22234B"/>
</svg>
