<svg width="7" height="7" viewBox="0 0 7 7" fill="none" xmlns="http://www.w3.org/2000/svg">
<path id="Vector" d="M4.08 0.0125048C4.38 -0.0574952 4.39 0.182497 4.53 0.332497C5.35 1.2325 7.03999 3.3325 5.81999 4.3325C4.60678 5.10819 3.32868 5.77736 2 6.3325C1.23 6.5525 1.17 5.6725 1 5.01251C0.521507 3.59632 0.186492 2.13566 0 0.652504C0 0.572504 0.179989 0.362501 0.269989 0.492501C0.569989 0.632501 1.33 3.49251 1.45 4.03251C1.52 4.32251 1.62 5.68251 1.86 5.70251C2.25 5.05251 5.73 3.7625 5.8 3.5225C5.87 3.2825 5.38 2.60251 5.19 2.23251C4.77929 1.51357 4.40873 0.772434 4.08 0.0125048Z" fill="#22234B"/>
</svg>
