<svg width="144" height="232" viewBox="0 0 144 232" fill="none" xmlns="http://www.w3.org/2000/svg">
<path id="Vector 2" d="M110.02 16.1699C110.394 16.1166 110.227 16.2307 109.953 16.377C109.488 16.628 108.726 16.9697 110.08 16.6809C110.085 16.6797 110.09 16.6785 110.096 16.6773C110.091 16.6796 110.086 16.682 110.081 16.6843C109.678 16.8816 109.282 17.079 108.887 17.2766C108.723 17.1837 108.558 17.092 108.395 16.9988C108.893 16.7409 109.386 16.4886 109.893 16.2327C109.935 16.2116 109.977 16.1904 110.019 16.1692C110.02 16.1695 110.02 16.1697 110.02 16.1699ZM110.067 14.1107C109.926 14.3647 109.567 14.6521 109.325 14.8729C109.06 15.1197 108.952 15.2845 109.476 15.2334C109.62 15.2181 109.807 15.1875 110.049 15.1368C110.137 14.9399 110.224 14.7423 110.307 14.5462C110.975 14.378 111.645 14.1955 112.309 14.0036C112.505 13.848 112.703 13.6901 112.895 13.534C113.288 13.6245 113.678 13.7151 114.072 13.8016C113.808 13.8936 113.539 13.986 113.272 14.0758C112.376 14.7457 111.503 15.2227 110.13 15.8501C110.275 15.8544 110.422 15.8562 110.568 15.8587C110.318 15.9299 110.074 15.9963 109.822 16.0643C109.342 16.1907 108.872 16.3144 108.397 16.4429C108.803 16.1876 109.24 15.9149 109.654 15.6604C109.8 15.5719 109.94 15.486 110.07 15.4044C109.914 15.4063 109.747 15.4272 109.572 15.463C108.612 15.6502 107.482 16.3205 106.842 16.6813C105.821 17.2593 105.985 16.9788 105.234 17.4111C105.114 17.4803 105.165 17.6204 104.919 17.7387C103.678 18.3138 101.336 19.4838 102.53 18.4567C104.532 17.4677 106.197 16.4252 108.3 15.6371C107.744 15.5314 108.265 15.1408 109.211 14.5976C109.473 14.4477 109.763 14.2852 110.067 14.1107ZM77.4925 39.8285C77.8244 39.1897 78.8546 38.2215 79.6179 37.6274C79.6186 37.6266 79.6194 37.6258 79.6202 37.6251C79.7878 37.4944 80.3047 37.3328 79.8203 37.8184C79.0299 38.6114 78.363 38.7215 78.1589 39.3388C77.9408 39.4939 77.7182 39.6628 77.4925 39.8285ZM75.8588 41.624C75.3255 42.0606 75.3039 41.6254 75.9468 41.0487C75.9467 41.0485 75.9465 41.0484 75.9463 41.0482C76.2149 40.8089 75.9152 41.4887 76.6085 40.3787C76.9262 40.3189 77.2326 40.2466 77.5437 40.1863C77.3325 40.4159 77.139 40.6305 76.9169 40.873C76.8371 40.496 76.3928 41.1866 75.8588 41.624ZM101.617 19.1457C101.665 19.4449 102.041 19.227 102.792 19.0555C102.165 19.3734 101.554 19.7003 100.96 20.0441C101.173 19.7418 101.389 19.4451 101.617 19.1457ZM117.126 11.787C117.127 11.7865 117.128 11.786 117.129 11.7855C117.319 11.6352 117.507 11.4859 117.692 11.3411C117.864 11.3663 118.031 11.3944 118.201 11.4219C118.881 10.9721 119.556 10.5483 120.231 10.1922C120.236 10.1896 120.241 10.1871 120.246 10.1846C120.246 10.1965 120.245 10.2087 120.242 10.2211C120.175 10.5246 118.959 11.0059 118.358 11.5543C117.249 12.0134 116.628 12.1501 116.435 11.9538C116.666 11.8972 116.895 11.8425 117.126 11.787ZM43.4527 183.95C43.5767 184.219 43.7008 184.483 43.8264 184.749C43.8108 184.373 43.7884 184 43.7816 183.619C43.2776 182.687 43.5943 182.551 43.3952 181.26C42.8766 178.006 42.4809 178.2 42.4662 176.32C42.4616 175.921 42.4817 175.421 42.5389 174.77C42.6355 175.489 42.738 175.945 42.8354 176.248C43.126 177.188 43.3527 176.854 43.7996 178.122C43.6309 178.52 42.818 176.883 42.9094 178.069C43.4925 180.037 43.9569 181.961 44.4236 184.136C44.4544 184.066 44.4855 183.996 44.5165 183.927C44.4423 183.582 44.3695 183.238 44.2968 182.891C44.4551 183.255 44.6117 183.609 44.7737 183.975C44.4625 183.527 44.7727 184.737 44.471 184.612C44.336 184.558 44.0856 184.038 43.9224 183.731C43.9731 184.572 44.0385 185.431 44.114 186.276C43.9441 185.86 43.7774 185.44 43.6143 185.023C43.5582 184.667 43.5055 184.314 43.4525 183.957C43.4525 183.955 43.4526 183.953 43.4527 183.95ZM20.8133 173.478C21.889 173.194 23.8387 173.16 24.8619 173.492C23.5122 173.487 22.1642 173.483 20.8133 173.478ZM116.262 11.8008C116.391 11.7884 116.519 11.776 116.649 11.7636C116.221 12.0941 115.786 12.4292 115.349 12.7628C115.189 12.6852 115.031 12.6062 114.869 12.5297C115.336 12.2878 115.802 12.0427 116.262 11.8008ZM87.3525 29.2988C87.6271 29.0396 87.6548 29.0201 88.0223 28.729C88.0218 28.7293 88.0213 28.7295 88.0208 28.7298C88.1608 28.6072 89.4255 27.689 89.3604 27.8883C88.7543 28.3682 88.1251 28.8934 87.5426 29.4206C87.4761 29.3827 87.4239 29.3328 87.3525 29.2988ZM94.8355 23.7808C94.8366 23.7803 94.8376 23.7798 94.8387 23.7794C95.0913 23.6197 95.3412 23.4814 95.5942 23.3037C94.7959 24.0998 94.4694 23.9442 93.7032 24.5867C92.9362 25.2276 92.5352 25.7102 91.6125 25.8367C91.8276 25.6072 92.0485 25.3418 92.2689 25.0983C93.5156 24.442 93.7434 24.0941 94.5714 23.298C94.6596 23.4593 94.7476 23.6193 94.8355 23.7808ZM42.0607 166.284C41.8301 166.033 42.0146 165.72 42.0149 165.689C42.0151 165.689 42.0154 165.69 42.0157 165.69C41.6469 163.338 42.1546 165.991 42.0238 163.753C42.1008 164.082 42.1803 164.405 42.2576 164.731C42.1934 165.247 42.1169 165.781 42.0607 166.284ZM49.6133 90.7247C49.6785 90.723 49.7451 90.7172 49.8103 90.7153C49.3878 91.9867 49.5163 92.3798 48.9883 93.3682C49.1827 92.4913 49.3952 91.6102 49.6126 90.7245C49.6129 90.7246 49.6131 90.7247 49.6133 90.7247ZM82.2248 33.6739C83.1936 32.5382 83.9431 31.725 85.0955 30.8612C85.0964 30.8606 85.0974 30.86 85.0984 30.8594C85.165 30.8104 84.9705 31.1797 85.0699 31.1281C85.2665 30.9093 85.465 30.675 85.6626 30.4514C85.7634 30.4972 85.8627 30.5443 85.9629 30.5898C85.341 31.1515 84.7212 31.7168 84.1018 32.2867C84.2327 32.2422 84.3651 32.1956 84.4956 32.1517C84.0085 32.6744 83.5259 33.1963 83.0429 33.7222C83.0993 33.4274 83.1555 33.1331 83.2103 32.8398C82.8808 33.1172 82.553 33.396 82.2248 33.6739ZM43.2336 112.145C43.3555 111.932 43.3596 112.382 43.5037 112.042C43.6467 111.701 43.6932 111.018 43.8374 111.218C43.7395 111.7 43.6423 112.208 43.5503 112.7C44.2597 111.219 44.3856 109.595 44.7989 109.68C44.2891 111.14 44.0255 112.382 43.8022 113.856C43.4875 113.721 43.5553 112.198 43.0298 113.042C43.096 112.746 43.1652 112.434 43.2335 112.148C43.2336 112.147 43.2336 112.146 43.2336 112.145ZM135.552 0.751862C136.272 0.58961 137.712 0.177936 138.993 0.0411134L139.067 0.0310001C139.29 0.0193748 139.482 0.00761366 139.716 -5.00679e-06C139.923 0.00519705 140.964 0.356053 140.988 0.432967C141.038 0.707314 139.973 1.04962 141.178 0.892075C140.786 1.00855 140.41 1.12589 140.052 1.21899C140.16 1.38355 140.271 1.54647 140.384 1.70853C140.841 1.56079 141.313 1.39238 141.787 1.22086C141.828 1.27269 141.869 1.32483 141.91 1.3766C140.184 1.88487 141.27 1.81842 140.433 2.27339C141.283 2.17048 142.161 2.01457 143.024 1.86781C142.539 2.00266 141.972 2.16403 141.543 2.27239C141.573 2.59313 142.568 2.21762 142.756 2.22004C143.517 2.2087 141.159 3.04297 139.486 3.4312L139.497 3.4297C138.923 3.5705 138.487 3.73693 138.4 3.8803C138.776 3.83142 139.16 3.78814 139.545 3.75457L139.526 3.75718C140.029 3.7244 140.527 3.6344 140.985 3.54063C140.755 3.66008 140.515 3.77819 140.262 3.88844C140.029 3.90207 139.783 3.91102 139.545 3.91004L139.568 3.9069C137.856 3.91141 135.966 4.28593 134.003 4.66355C133.812 4.73132 133.621 4.79996 133.433 4.86691C133.529 4.98718 133.622 5.10784 133.718 5.22819C133.43 5.32821 133.138 5.43 132.849 5.53092C133.584 4.82956 132.39 5.18912 130.859 5.32084C131.587 4.9482 132.563 4.76776 132.413 4.49253C131.799 4.72796 131.152 4.9393 130.486 5.12908C128.38 5.85234 126.082 6.39668 124.202 7.21255C123.59 7.47941 123.712 7.84883 122.224 8.30669C122.261 8.24864 122.244 8.17137 122.259 8.1063C121.347 8.48533 120.574 8.82071 119.834 9.13987C118.574 9.69064 117.43 10.2989 115.799 11.0238C116.007 11.074 116.217 11.1244 116.425 11.1753C116.917 10.8349 117.406 10.4977 117.899 10.1736C118.359 10.2175 117.879 10.5271 119.436 9.8304C119.709 9.71448 119.889 9.64046 120.003 9.58813C120.445 9.38981 119.986 9.48041 120.255 9.32184C120.719 9.04919 121.221 9.06928 121.727 8.78277C122.12 8.56312 121.602 8.53127 122.716 8.21034C122.353 8.59516 121.987 8.99227 121.633 9.38453C121.35 9.42321 121.071 9.46097 120.788 9.50254C121.032 9.34314 121.27 9.18851 121.517 9.03167C121.021 9.27427 120.544 9.51369 120.069 9.76223C119.698 9.95943 119.327 10.1769 118.943 10.4168C119.087 9.94932 118.202 10.5099 117.709 10.8154C116.942 11.2855 117.512 10.7105 117.006 11.0203C116.5 11.3326 116.065 11.8831 115.073 12.3382C115.515 11.9227 114.743 12.1657 114.811 11.9617C114.879 11.7579 115.875 11.1936 114.826 11.564C113.001 12.6558 115.312 12.0941 114.073 12.8385C112.571 13.728 111.789 13.0584 112.168 12.6585C112.463 12.345 113.712 11.7488 113.997 11.4212C111.672 12.3022 111.887 12.7803 111.55 13.0678C110.309 14.077 110.823 12.6925 109.308 13.7692C109.262 13.5742 109.218 13.4002 109.174 13.2129C109.015 13.3041 108.889 13.385 108.741 13.4718C108.637 13.5323 108.525 13.5954 108.387 13.6661C108.581 13.6531 108.722 13.651 108.819 13.6578C109.05 13.675 109.022 13.7435 108.889 13.8274C108.741 13.9201 108.473 14.0294 108.284 14.1093C107.597 14.4007 108.73 14.126 108.566 14.2479C108.127 14.5722 107.335 14.8475 107.875 14.8011C107.629 14.8201 107.375 14.8431 107.122 14.8668C106.362 15.2984 104.853 16.8803 106.544 15.9434C106.501 16.2971 105.877 16.4125 105.416 16.5723C104.958 16.7305 105.046 16.9046 104.647 17.0517C103.066 17.6448 103.908 16.8734 104.045 16.5183C102.109 17.6697 104.1 16.7706 101.322 18.376C101.158 18.7083 102.548 18.2071 101.542 18.8983C101.172 18.689 100.233 18.8659 98.7025 19.7516C98.6104 19.9178 98.5195 20.086 98.4317 20.2533C97.6125 20.4938 97.601 20.121 96.9311 20.8757C96.8056 21.0183 96.6608 21.1954 96.4777 21.4231C96.7573 20.1951 96.5526 21.0317 95.0593 21.7576C94.7572 21.9033 95.2699 21.3185 94.8529 21.5279C94.6657 21.6216 94.3301 22.0209 93.8617 22.2398C93.6333 22.3482 92.5134 22.7678 91.9297 23.3431C92.6315 23.3166 91.5528 24.4538 92.8126 23.9616C90.7662 25.2778 89.4961 26.4152 91.4209 24.4264C90.8491 24.6851 90.278 24.9479 89.7092 25.2208C89.4127 25.5476 89.1153 25.8798 88.8258 26.2142C88.5885 26.0129 88.5711 25.8804 87.2805 27.0095C87.8045 26.4767 88.3413 25.9608 88.896 25.4532C88.8787 25.3879 88.9232 25.2734 88.8668 25.2396C88.1882 25.865 86.2243 27.5636 85.837 28.0666C85.4323 28.5531 86.337 27.75 86.259 27.9326C86.0181 28.4716 85.8461 28.7593 85.6794 28.9488C85.3903 29.2799 85.1273 29.2932 84.6902 29.8183C84.2898 30.3005 85.4089 29.3162 85.1893 29.5691C84.3744 30.5043 83.7188 30.6556 82.9345 31.4229C83.3522 31.2905 83.7692 31.164 84.1813 31.0419C83.3532 31.8381 82.443 32.7392 81.7346 33.541C81.4567 33.8555 81.7851 33.7357 81.7439 33.7912C81.5398 34.0671 80.627 35.1058 80.5256 35.211C79.7562 35.9971 79.5874 35.8762 78.835 36.6364C79.1142 36.3227 79.3782 36.0286 79.6531 35.7229C79.5451 35.3571 79.4409 34.9877 79.3338 34.6206C78.5802 35.3551 77.8298 36.0953 77.083 36.8408C77.6966 36.3602 78.3137 35.8806 78.9309 35.4061C78.2832 36.4564 77.6436 37.5105 77.0149 38.5673C76.4666 38.9066 75.9183 39.2499 75.3716 39.5962C74.2499 40.8745 74.9801 41.076 74.0037 41.2779C73.7065 41.6815 73.4086 42.0902 73.1162 42.4976C73.1003 42.3887 73.0852 42.2787 73.0693 42.17C72.9665 42.3086 72.8639 42.4478 72.7644 42.584C72.5076 42.9344 72.2506 43.2853 71.9943 43.6373C72.4354 43.4409 72.8781 43.255 73.3165 43.0657C73.5119 42.9838 73.7122 42.8955 73.9069 42.811C73.7605 42.9964 73.6332 43.1419 73.5277 43.2499C73.0967 43.6923 72.9404 43.6122 72.8092 43.6864C72.3745 43.9316 71.9341 44.7822 71.5747 44.9644C71.4521 45.0249 72.0872 44.0366 71.6805 44.2148C71.6014 44.2488 70.0476 44.9722 69.5303 45.8437C69.6399 45.9112 69.8089 45.9527 69.9408 46.0109C69.1413 47.0825 68.2002 47.1968 68.1667 46.9409C67.8137 47.5783 67.1745 48.4089 67.2461 48.6505C67.0256 48.942 66.8086 49.2327 66.5925 49.5275C66.4258 48.921 65.5787 50.2071 65.8702 50.5398C66.2471 50.0376 66.6325 49.5412 67.0231 49.0502C67.1607 49.7524 68.5199 48.4001 65.8057 51.2935C65.1455 51.7512 66.6176 50.2246 66.0939 50.6056C65.3681 51.4038 64.8816 52.288 64.173 53.0455C63.5573 53.711 63.686 53.2012 63.3688 53.7613C63.2354 54.0009 63.0214 54.4351 62.6551 55.2487C63.0751 54.6828 63.4114 54.256 63.67 53.9434C64.6247 52.8127 64.5036 53.1737 63.9749 54.1277C63.2903 55.3623 62.0054 57.6537 61.4179 59.0732C60.4196 59.4546 59.1105 61.4942 57.8966 64.5837C57.837 64.7345 57.7778 64.8866 57.719 65.0398C57.8192 64.9669 57.9216 64.8241 58.0254 64.6423C58.2741 64.207 58.5282 63.5608 58.7651 63.1668C59.1004 62.6101 58.9154 63.2951 59.3446 62.6089C59.7722 61.922 60.6341 60.4467 61.1326 59.7921C60.9174 60.4528 59.7078 63.6234 60.3758 61.4622C59.5686 62.7171 59.0677 63.3513 58.3388 64.7851C58.2438 64.9729 58.1463 65.1701 58.0429 65.3851C58.076 66.0872 58.2799 66.1322 57.4326 67.9774C57.5319 66.6977 56.2751 68.6592 56.0685 68.0022C56.7731 66.7438 56.8435 67.663 57.3903 66.9987C57.4457 66.9316 57.9062 65.6659 58.0429 65.3851C57.1089 66.4472 56.7747 66.8047 56.6862 65.848C56.3244 66.7313 56.0168 67.2473 56.1894 67.4228C56.0155 67.5596 55.8389 67.7021 55.666 67.8368C55.5366 68.1207 55.4273 68.3777 55.2859 68.6781C55.793 68.4112 55.2266 69.1217 55.107 69.7582C54.9893 70.3939 55.5857 69.7429 54.8765 71.3127C55.1869 70.823 55.4694 70.3739 55.7713 69.9031C55.3877 70.9481 55.0094 71.9981 54.6494 73.0488C55.1519 72.4188 56.1341 71.0191 56.3703 71.1771C56.0598 71.5958 55.5223 73.2578 55.4572 73.4346C55.192 74.1189 55.1892 73.6826 55.163 73.7317C54.6273 74.758 54.3306 75.6596 53.9218 75.969C53.7165 76.8198 53.4218 77.4064 53.1196 78.2739C52.9549 78.7506 53.1726 78.7248 53.0413 78.99C52.3791 80.3566 52.4306 79.5854 52.172 80.8514C52.092 81.2478 51.989 81.8201 51.8266 82.708C52.0984 82.3007 52.3696 81.9038 52.6384 81.5066C52.5603 81.9283 52.4782 82.3627 52.3965 82.7929C52.2847 83.0648 52.1758 83.3264 52.0631 83.5997C51.7827 83.5043 51.502 83.4075 51.2216 83.312C51.1114 83.6064 50.9974 83.9134 50.887 84.2067C51.0237 83.6815 51.164 83.1425 51.2984 82.6198C51.2637 82.5566 51.228 82.4964 51.1934 82.4328C50.8732 83.1797 50.5513 83.9243 50.2266 84.6729C50.3201 84.7189 50.4143 84.7649 50.5078 84.8108C49.8124 86.5109 49.716 86.5225 49.4505 88.2625C49.0347 89.5333 49.1085 90.7025 49.0501 91.4875C48.9109 91.7355 48.7732 91.9786 48.6352 92.2284C48.6649 92.4216 48.6936 92.6183 48.7249 92.8098C48.5091 93.1089 48.2942 93.4125 48.0834 93.7142C48.2916 93.9763 48.3359 94.0934 48.8181 92.8229C48.9436 93.1927 48.6042 94.3359 48.2912 95.3208C48.1404 95.7925 47.9883 96.2281 47.876 96.5242C47.6111 97.2246 47.5406 96.355 47.4848 96.4372C47.2952 96.7097 47.0967 97.9264 47.0172 98.1726C46.6796 99.2144 46.514 99.963 46.2212 100.909C46.1639 101.093 45.8643 101.574 45.848 101.618C45.7348 101.956 45.4425 102.788 45.4159 102.885C44.0223 107.853 46.1592 102.696 44.8365 107.338C44.9742 107.225 45.1068 107.125 45.2433 107.013C45.1848 107.24 45.1249 107.468 45.0644 107.693C45.0306 107.819 44.9959 107.948 44.9627 108.074C44.7568 108.489 44.757 107.915 44.6331 108.821C44.5281 108.73 44.4232 108.639 44.3197 108.546C44.2787 108.944 44.2426 109.327 44.2027 109.734C43.6113 110.227 42.947 112.446 42.4941 112.167C42.3358 112.071 42.5697 110.425 42.1745 111.227C41.9653 111.907 42.2841 111.491 42.2245 111.774C41.8012 113.823 41.5578 113.643 41.4449 114.496C41.5379 114.654 41.6319 114.82 41.7263 114.981C41.6228 115.288 41.5207 115.596 41.4198 115.908C41.4869 115.998 41.5537 116.091 41.6211 116.181C41.6862 115.886 41.761 115.553 41.824 115.283C42.0423 115.728 41.5439 119.233 41.5154 117.856C41.5013 117.293 41.7431 116.309 41.2444 116.864C41.1832 117.324 41.1205 117.815 41.0615 118.312C40.9999 118.833 40.9253 119.363 40.849 119.872C40.7618 119.885 40.6749 119.897 40.5878 119.91C40.362 121.236 40.9386 120.109 41.1111 120.147C41.0526 120.45 40.9914 120.756 40.931 121.059C40.8252 121.169 40.7169 121.274 40.6122 121.391C40.7344 121.43 40.9853 121.661 40.6868 122.536C40.4962 123.099 40.3702 122.121 40.1862 123.236C40.3995 123.191 40.7102 122.846 40.5343 124.081C40.3072 124.165 40.0891 124.298 39.8573 124.355C39.7806 125.93 39.35 126.592 39.399 128.45C39.4312 129.632 39.8864 131.22 39.0775 131.957C39.0457 132.816 39.2506 132.539 39.2941 132.793C39.3091 132.876 39.3212 132.959 39.331 133.041C39.4605 134.134 39.1357 134.867 39.1165 135.095C38.9834 136.513 39.1211 137.151 38.954 138.29C39.1017 138.225 39.2418 138.188 39.3859 138.136C39.1527 137.106 39.1576 136.559 39.1947 135.077C39.228 135.582 39.2624 136.074 39.2964 136.559C39.4161 136.476 39.5359 136.399 39.6551 136.321C39.1495 131.767 39.9039 132.825 40.0969 136.642C39.8771 136.982 39.6581 137.328 39.4379 137.654C39.7999 139.863 39.5195 140.909 39.498 143.41C39.4954 143.692 39.6479 144.789 39.6661 145.251C39.6667 145.243 39.6674 145.235 39.668 145.228C39.8857 145.516 39.9727 145.116 40.1596 145.063C40.1895 145.321 40.2194 145.574 40.2495 145.822C40.1208 146.369 39.9975 146.209 40.0641 147.295C40.2022 147.14 40.3408 146.996 40.4792 146.843C40.5202 148.059 40.3917 148.84 40.5042 149.973C40.4427 149.79 40.3812 149.605 40.3198 149.414C40.283 151.881 39.3597 149.95 39.863 151.792C39.7958 151.915 39.7279 152.038 39.6608 152.16C39.6035 151.393 39.5519 150.628 39.5034 149.866C39.3992 149.855 39.2954 149.842 39.1913 149.834C39.255 150.653 39.3237 151.472 39.3975 152.295C39.2964 151.688 39.1991 151.096 39.1042 150.504C39.0951 151.456 39.092 152.408 39.0981 153.365C39.4216 152.343 39.5419 153.636 39.9052 153.373C39.6917 155.063 39.3722 156.434 39.8854 159.008C39.9762 159.47 40.1848 159.263 40.0741 160.346C40.063 160.451 40.0488 160.568 40.0311 160.7C40.4216 160.312 40.7635 162.131 41.1422 161.865C41.0837 161.354 41.0298 160.827 40.9649 160.333C40.8787 160.876 40.543 161.015 40.3514 160.323C40.3397 160.281 40.3286 160.236 40.318 160.188C40.0795 159.111 40.189 157.503 39.776 157.602C39.7567 157.166 39.7334 156.759 39.716 156.335C39.835 156.506 39.9534 156.656 40.0729 156.825C39.8078 155.639 39.8105 154.874 40.0365 154.281C40.1892 155.709 40.3687 157.126 40.5649 158.549C40.5627 158.334 40.5611 158.122 40.559 157.91C40.9278 158.965 41.0809 157.82 41.3247 159.845C41.2006 159.844 41.0765 159.845 40.9518 159.843C41.0134 159.954 41.0696 160.098 41.1213 160.258C41.401 161.121 41.5514 162.475 41.8299 161.905C41.7601 162.526 41.6955 162.657 41.9254 162.986C41.7561 164.618 41.4669 165.675 40.9904 165.135C41.1041 165.727 41.2184 166.318 41.3336 166.906C41.4261 166.552 41.5186 166.199 41.6119 165.845C41.6814 166.883 41.7538 167.926 41.8334 168.958C41.4883 169.087 41.5665 166.974 41.3003 167.603C41.2465 167.729 41.426 168.276 41.4025 168.425C41.1453 170.002 41.224 167.553 40.9672 168.032C41.0693 170.345 40.4046 168.545 41.1214 171.684C41.0286 171.778 40.9346 171.878 40.842 171.966C40.9545 173.074 41.173 172.958 41.3341 173.897C41.4365 174.483 41.1442 175.293 41.5298 175.903C41.5919 175.992 41.8177 175.131 42.1329 176.384C42.184 176.58 42.2355 176.817 42.2886 177.124C42.5859 178.908 42.11 178.226 42.143 179.205C42.1751 180.181 42.9503 182.326 42.4947 183.052C42.4981 182.536 42.451 181.886 42.4328 181.317C42.2956 181.103 42.1601 180.896 42.0232 180.686C42.3403 181.945 42.3514 183.299 42.7262 184.131C42.5728 185.906 43.2789 187.776 43.6189 187.175C43.4584 186.625 43.3741 187.269 43.3622 186.467C43.45 186.37 43.5367 186.27 43.6249 186.174C43.8285 187.502 44.0207 188.415 43.5958 187.87C43.6275 188.078 43.6595 188.282 43.6934 188.489C43.9224 188.481 44.1513 188.469 44.3803 188.461C44.4538 188.697 44.5299 188.937 44.6062 189.171C44.6155 189.449 44.6261 189.728 44.64 190.011C44.2127 189.726 44.0378 189.101 44.3448 191.216C44.4662 191.192 44.5878 191.171 44.7092 191.147C44.8024 191.73 44.8405 192.131 44.8703 192.492C44.9288 193.211 44.9372 193.744 45.3353 195.182C44.4728 193.639 44.9586 192.535 44.1301 192.769C44.1268 192.746 44.1236 192.722 44.1203 192.699C44.0615 192.284 44.008 191.871 43.9596 191.463C43.8222 191.429 43.6848 191.395 43.5483 191.364C43.666 191.784 43.8248 192.242 44.0115 192.729C44.8153 194.822 45.9827 197.388 45.9226 198.724C46.0397 198.886 46.1486 199.05 46.2724 199.212C46.4067 200.77 47.3045 201.162 47.4457 202.754C47.472 202.919 46.6553 202.854 47.4981 204.754C47.5593 204.671 47.687 204.585 47.7741 204.501C47.8297 204.686 47.8873 204.872 47.9461 205.056C48.0197 205.29 48.0941 205.527 48.1676 205.761C48.2759 205.796 48.3858 205.835 48.4947 205.871C48.3707 205.571 48.247 205.271 48.1238 204.973C47.9612 204.581 47.8085 204.187 47.6635 203.79C47.8425 204.171 48.0297 204.551 48.2257 204.926C48.3186 205.103 48.4121 205.282 48.505 205.459C48.439 205.218 48.3788 205.021 48.3393 204.873C48.2483 204.534 48.263 204.45 48.5401 204.693C48.5515 204.717 48.5629 204.74 48.5743 204.763C48.8685 205.364 49.1631 205.966 49.4578 206.568C49.5388 206.609 49.62 206.649 49.7009 206.691C49.7089 206.315 49.7128 205.938 49.7236 205.562C50.3649 207.261 51.027 208.683 51.3455 210.073C51.4015 210.309 50.8328 209.656 51.7272 211.014C51.6358 211.088 51.5721 211.169 51.4899 211.242C52.6782 212.862 52.8796 213.473 53.7343 215.379C53.2382 214.114 53.7227 215.219 54.0001 215.447C54.1884 215.605 53.7096 214.832 53.836 214.878C53.9596 214.929 54.8524 215.751 54.3704 214.877C52.5361 213.097 52.9474 212.1 51.2554 209.41C51.5486 209.811 51.8451 210.212 52.1422 210.608C52.0938 210.377 52.0511 210.168 51.9992 209.918C52.6628 211.555 52.3604 210.749 52.7817 211.346C53.2041 211.942 53.8962 213.053 54.3554 213.793C54.4999 214.026 54.2192 213.852 54.5194 214.396C54.7226 214.77 55.5182 215.614 55.442 215.979C55.3997 216.227 53.9452 214.928 55.3961 217.08C55.5358 217.578 54.8659 216.529 54.8375 216.512C54.5349 216.435 55.3165 217.873 55.9256 218.348C55.9732 218.386 55.7318 217.832 56.1794 218.286C56.248 218.354 56.3137 218.42 56.377 218.483C57.3254 219.433 57.7564 220.143 58.2377 220.964C58.524 220.837 59.6421 221.496 60.7613 222.589C60.8761 222.577 60.9884 222.562 61.1032 222.549C60.8899 222.428 60.6782 222.304 60.4671 222.177C60.3029 221.963 60.1208 221.748 59.9733 221.528C61.1812 222.528 61.6198 222.339 62.2802 222.679C64.5667 223.747 62.7553 223.729 62.2614 223.596C62.0381 223.337 61.8349 223.075 61.6274 222.809C61.5925 222.911 61.5578 223.014 61.5208 223.114C64.6218 225.406 61.5777 224.02 63.1251 225.308C63.5378 225.228 64.1285 225.441 64.8632 225.824C65.3904 226.098 66.0029 226.457 66.6797 226.875C66.8768 226.952 67.0646 227.025 67.2617 227.097C67.3201 227.042 67.3591 226.938 67.4291 226.913C69.5458 227.598 69.7414 228.385 69.9285 228.527C70.7747 229.099 71.6213 228.827 71.8935 228.882C73.0624 229.107 73.3755 229.361 74.5218 229.421C75.7537 229.461 74.9326 229.221 75.3146 229.122C75.6186 229.045 76.5716 229.081 76.9649 228.969C76.8081 229.059 76.6318 229.144 76.4713 229.229C77.7253 229.394 78.7827 229.49 80.2387 229.287C81.7091 228.378 83.3393 228.88 82.506 228.228C81.2086 228.62 80.4343 228.627 79.7068 228.502C80.5567 228.353 81.3915 228.132 82.1862 227.823C82.454 227.835 82.6563 227.864 82.9737 227.842C83.2191 227.63 83.6515 227.393 84.0752 227.13C84.5575 226.835 85.0504 226.552 85.2958 226.357C87.0916 224.831 86.6016 224.786 87.5499 223.935C87.7209 223.73 87.9393 223.492 88.2222 223.207C88.0295 223.547 87.8949 223.827 87.7946 224.069C87.4084 224.896 87.3067 225.298 86.1264 226.13C86.5767 226.09 87.2891 225.42 86.9715 226.021C88.3191 224.701 87.667 224.909 87.9025 224.25C87.911 224.216 87.9204 224.18 87.9304 224.143C88.0942 223.526 88.6503 222.618 88.4349 222.559C88.6055 222.522 88.7575 222.507 88.9274 222.471C89.5403 221.51 90.1547 220.547 90.6455 219.521C90.5524 220.014 90.4326 220.508 90.2954 220.999C90.5255 220.702 90.7502 220.397 90.9656 220.082C91.6278 218.384 92.4135 215.814 92.2978 214.281C92.2662 213.414 92.1337 212.932 91.7565 213.214C91.7339 211.864 91.8592 211.695 92.0496 210.958C91.9723 210.878 91.9079 210.8 91.8218 210.718C91.8973 209.843 91.5984 209.183 91.652 208.413C91.7035 207.645 91.9644 207.44 91.5018 207.35C91.6109 206.849 91.6914 206.35 91.7756 205.847C91.6488 205.556 91.5203 205.27 91.3878 204.988C91.396 204.522 91.3942 204.054 91.3819 203.586C91.1915 203.42 91.034 202.317 90.7999 201.473C90.7307 201.217 90.6567 200.988 90.5806 200.815C90.623 200.029 91.3832 199.839 90.6899 198.125C90.5303 198.228 90.3706 198.331 90.2102 198.433C90.1171 198.029 90.0145 197.626 89.9029 197.222C89.9504 197.177 89.999 197.136 90.0463 197.091C90.1046 197.296 90.16 197.5 90.2135 197.706C90.2472 197.498 90.2796 197.293 90.3103 197.086C89.9427 196.539 89.5603 196.008 89.1665 195.488C89.4069 196.318 89.6194 197.152 89.7928 197.987C89.3106 197.036 89.1515 196.302 88.6393 195.518C88.541 194.68 88.794 194.886 89.1832 195.075C89.0374 194.808 88.8874 194.539 88.7369 194.276C89.068 194.342 89.0161 193.793 89.7242 195.435C89.7476 195.292 89.7653 195.145 89.7913 195.003C89.6598 194.739 89.6411 194.537 89.4774 194.257C89.0293 193.494 88.293 193.114 88.1684 193.244C88.1037 193.311 88.6319 194.004 88.5026 194.029C88.1862 194.084 87.4717 192.273 88.4024 194.936C87.8322 194.178 87.875 193.931 87.4637 192.985C87.4089 193.104 87.3532 193.219 87.2962 193.334C87.1855 193.046 87.0741 192.76 86.9597 192.472C86.8971 192.314 86.8339 192.155 86.7705 191.997C87.5512 192.347 86.0676 189.116 87.9655 191.731C87.5518 190.879 87.1272 190.034 86.6771 189.198C86.8211 189.34 86.964 189.485 87.1064 189.63C87.2907 190.019 87.4691 190.407 87.6451 190.798C87.4961 190.307 87.3407 189.816 87.1775 189.325C86.4791 188.34 86.0654 188.039 85.5804 187.7C86.1638 188.967 86.1239 188.46 86.7054 189.373C86.5589 189.413 86.4658 189.523 86.2852 189.518C86.2844 188.88 85.143 187.446 84.8905 187.113C84.1369 186.082 84.9502 186.74 84.4624 186.032C83.9669 185.322 83.2033 184.639 82.9706 183.911C82.8521 184.028 82.7574 184.183 82.6737 184.318C81.7679 183.349 82.075 183.427 82.004 183.304C81.9925 183.286 81.981 183.268 81.9695 183.249C80.8016 181.414 79.7859 180.694 77.8482 179.107C78.0644 179.351 78.2787 179.598 78.4853 179.85C76.8164 178.891 77.8979 179.598 78.9795 180.813C77.9086 179.724 77.0339 179.411 76.132 178.898C75.6986 178.654 75.1439 178.301 74.5983 177.988C73.9831 177.632 73.4036 177.293 73.1062 177.096C73.651 177.255 74.1905 177.475 74.726 177.732C75.6393 178.17 76.4987 178.778 77.3547 179.425C77.3106 179.172 77.2492 178.943 77.1972 178.671C76.1403 178.327 75.75 177.842 75.4641 177.625C75.2502 177.465 75.0791 177.371 74.9391 177.306C74.5397 177.124 74.4073 177.176 74.0944 176.762C74.0698 176.875 74.0466 176.969 74.0247 177.075C72.156 176.139 70.0321 175.244 68.6075 175.304C68.5575 175.01 68.5327 174.733 68.4609 174.429C67.539 174.403 66.8365 174.035 66.0838 173.932C65.336 173.835 65.5758 174.102 64.6956 174.029C64.5335 174.016 64.2223 173.823 63.8103 173.859C63.5889 173.877 63.0342 174.033 62.5554 174.076C62.1369 174.113 61.7728 174.059 61.7355 173.742C60.9928 173.627 60.2945 173.499 59.5674 173.384C60.2826 173.448 60.9974 173.518 61.7079 173.587C61.1272 173.338 60.5501 173.09 59.967 172.844C59.8677 172.974 59.7713 173.107 59.6773 173.236C58.0231 173.176 56.8678 172.789 55.2057 172.659C54.9295 172.639 55.5485 172.988 54.3328 172.787C53.1124 172.591 52.2507 171.974 50.1353 172.022C50.0265 172.025 49.3806 172.382 48.6474 172.057C48.482 171.983 49.2009 171.934 48.8174 171.827C48.4322 171.716 46.6793 171.55 46.5505 171.347C46.5659 171.418 46.6726 171.497 46.722 171.571C46.418 171.589 46.1151 171.608 45.8116 171.626C45.7892 171.502 45.7645 171.377 45.7418 171.253C43.9977 171.464 43.0954 171.896 40.5497 171.682C41.2619 171.877 41.9741 172.076 42.6833 172.277C42.8844 172.157 43.0843 172.037 43.2794 171.917C44.4552 172.007 45.631 172.106 46.8019 172.217C47.0022 172.084 47.1948 171.951 47.4003 171.819C47.7159 171.855 48.0123 171.89 48.3302 171.928C48.2455 172.027 48.1599 172.125 48.0716 172.224C48.6958 172.235 49.3096 172.249 49.9251 172.267C48.6319 172.784 46.4448 172.004 46.5766 172.525C46.2997 172.431 46.0318 172.338 45.7581 172.246C45.623 172.488 45.0674 172.39 44.075 172.313C44.2938 172.444 44.5432 172.574 44.747 172.706C43.7911 172.493 42.0815 172.455 41.0815 172.367C40.6465 172.327 41.0861 172.157 40.9569 172.133C40.7495 172.094 40.4794 172.095 40.1951 172.114C39.5909 172.157 38.92 172.289 38.7357 172.269C37.1292 172.095 36.1017 171.487 34.3482 171.86C36.1542 171.977 35.1686 171.925 35.8087 172.151C36.016 172.222 38.3332 172.394 35.4214 172.294C35.0795 172.279 29.7848 171.819 31.5275 171.52C30.6726 171.613 29.9984 171.723 29.2109 171.824C27.2956 170.978 27.9551 171.764 28.5104 172.198C28.1931 172.197 27.8969 172.199 27.5718 172.197C28.264 171.751 24.7532 171.697 23.5606 171.916C23.1607 171.989 24.2763 172.142 23.3524 172.203C22.9131 172.168 22.4149 172.124 21.9506 172.085C22.6214 172.376 21.3009 172.476 21.3161 172.767C20.4721 172.501 19.8303 171.948 20.2978 171.654C19.5969 171.769 18.8931 171.884 18.1966 171.999C18.5184 172.071 18.8464 172.142 19.1719 172.213C16.8886 172.013 13.9501 172.399 13.4784 171.783C13.1751 171.784 12.875 171.784 12.5678 171.785C12.4726 171.887 12.3809 171.989 12.2865 172.091C10.9166 171.984 9.56261 171.875 8.18644 171.758C9.4043 171.718 9.70352 171.575 10.9781 171.713C10.4792 171.588 9.98614 171.461 9.50399 171.334C8.70352 171.453 8.18077 171.557 7.6572 171.626C6.89604 171.722 6.10785 171.757 4.41817 171.638C4.28061 171.635 2.11144 171.257 2.04216 171.216C1.71315 171.073 2.23865 170.937 2.09195 170.866C1.8974 170.767 1.15349 170.569 0.546173 170.342C0.259739 170.236 -0.0403729 170.086 0.00447541 170.04C0.0201589 170.009 0.216923 170.124 0.288485 170.218C0.358827 170.3 0.331877 170.228 0.346085 170.236C0.39052 170.25 0.421754 170.211 0.359601 170.075C0.298527 169.941 0.176374 169.82 0.145706 169.774C0.0762063 169.68 0.231192 169.687 0.443901 169.673C0.879148 169.655 1.5852 169.648 2.38242 169.64C3.98129 169.625 5.99367 169.626 7.70086 169.633C8.99202 169.638 10.1321 169.646 10.7691 169.644C20.6412 169.61 30.4337 169.586 40.2414 169.803C47.7937 169.967 55.4638 170.61 62.8825 171.87C67.1806 172.513 71.6921 173.571 75.7669 175.651C78.346 176.928 80.3732 178.913 82.0987 180.765C82.2723 180.95 82.2819 180.79 82.3589 180.865C82.7993 181.302 83.0873 181.843 83.2527 182.064C83.2675 182.083 83.2813 182.101 83.2942 182.116C83.6574 182.537 83.5761 182.199 83.8472 182.504C86.2356 185.218 87.8903 188.217 89.4198 191.205C89.6824 191.716 89.9454 192.234 90.2078 192.761C90.3253 192.999 90.0876 192.813 90.3103 193.221C90.4257 193.43 90.9328 194.026 91.1575 194.53C91.9399 196.285 92.4585 197.87 92.969 199.878C93.0498 200.2 93.135 200.57 93.2162 200.964C93.4111 201.897 93.5889 202.993 93.6991 203.875C93.7695 204.424 93.92 204.987 93.9663 205.529C94.0291 206.296 93.8244 206.148 93.8213 206.267C93.8013 206.782 94.0127 206.842 94.0299 207.327C94.0558 208.228 93.9192 208.279 93.9527 209.407C93.9779 210.213 94.091 212.038 94.1136 213.046C94.0829 213.445 94.0577 213.865 94.0369 214.302C93.9877 216.69 93.1804 219.426 92.2305 221.189C91.5684 222.452 91.3217 222.423 91.0372 222.889C90.4919 223.755 90.0977 224.488 89.8033 225.169C89.3002 226.204 88.5698 226.977 87.7972 227.577C86.8808 228.279 86.034 228.726 85.2471 229.151C83.8739 229.892 82.4392 230.322 80.9586 230.61C80.5522 230.686 80.6779 230.845 80.2757 230.914C78.7879 231.174 76.9055 231.224 75.6296 231.099C74.2056 230.958 73.7309 230.627 72.3797 230.439C71.9846 230.378 71.8232 230.581 71.1602 230.463C70.0998 230.272 69.0224 229.754 68.3248 229.505C67.371 229.157 68.1298 229.667 66.8381 229.173C66.7865 229.152 66.6484 228.925 66.369 228.825C65.5512 228.519 65.5933 228.696 64.4049 228.129C64.3656 228.109 64.1185 227.966 63.8358 227.786C63.358 227.487 62.7753 227.067 62.6851 227.01C61.8067 226.498 60.2365 225.267 59.7756 224.917C58.1131 223.675 59.1734 224.918 58.2323 223.35C57.5799 222.926 56.9427 222.487 56.2862 221.988C56.7407 222.3 55.3678 220.582 55.2706 220.468C54.9407 220.144 54.7789 220.028 54.6539 219.954C54.43 219.811 54.2965 219.804 53.6619 218.922C55.3919 220.421 52.41 217.136 52.0002 216.31C49.8023 212.698 48.3792 209.254 46.6959 205.639C46.5659 205.358 46.4394 205.074 46.3168 204.789C45.695 203.362 44.9384 201.467 44.4853 199.956C44.3788 199.604 44.5691 199.836 44.4785 199.526C44.3883 199.217 44.3663 199.596 44.2684 199.242C43.6685 197.04 43.4651 195.28 42.6338 193.405C42.6501 193.298 42.6845 193.292 42.6878 193.122C42.6839 193.114 42.6801 193.105 42.6763 193.097C41.9325 191.489 41.5989 188.151 41.4665 186.929C41.229 184.997 40.9932 184.539 40.8413 183.163C40.6568 181.343 40.6137 178.663 40.2038 179.928C40.0305 178.886 39.8568 177.892 39.6917 176.858C39.6637 176.685 39.6361 176.501 39.6129 176.327C39.5934 176.179 39.7599 176.255 39.7527 176.195C39.7097 175.816 39.5587 175.723 39.5134 175.472C39.3956 174.801 39.7191 175.876 39.5331 174.923C39.4396 174.421 39.2759 174.148 39.1172 172.762C38.6713 168.737 38.4523 164.601 38.1238 160.51C37.6911 156.151 37.4322 151.51 37.325 147.167C37.3094 146.593 37.1743 146.983 37.163 146.241C37.1217 143.716 37.3001 139.206 37.2495 137.03C37.1972 134.869 36.9883 135.329 36.8904 133.993C36.8715 133.73 36.9944 133.945 36.995 133.707C36.9954 133.495 36.9988 133.276 37.0047 133.051C37.0395 131.545 37.2582 129.897 37.3821 128.733C37.4783 127.843 37.2838 127.898 37.3381 127.274C37.4218 126.35 37.7579 125.431 37.8446 124.951C38.2508 122.684 38.4826 121.125 38.9599 119.181C38.903 119.25 38.8545 119.292 38.8005 119.349C38.898 118.882 38.989 118.421 39.0697 117.965C39.4197 115.986 39.8408 114.03 40.3142 112.091C40.2491 112.197 40.1848 112.298 40.1195 112.404C40.8348 109.558 41.1801 109.996 40.2564 110.022C40.2803 109.807 40.3031 109.579 40.3277 109.375C40.6806 109.539 41.2818 108.407 41.9057 106.787C42.0173 106.501 42.1281 106.191 42.2344 105.869C42.2857 105.72 42.1294 104.576 42.6055 104.819C42.5517 104.517 42.508 104.333 42.4576 104.076C42.7248 103.669 42.9906 103.252 43.2552 102.839C43.2926 102.589 43.3312 102.337 43.3682 102.087C43.2775 102.027 43.1674 102.029 43.0888 101.927C43.351 100.793 44.0359 98.4833 44.2464 97.5743C44.487 96.5275 44.6842 95.456 44.9116 94.4358C45.1802 93.233 45.5091 92.1232 45.9523 91.2407C46.1879 90.389 45.7321 91.1607 46.1535 89.9219C46.2963 89.8101 46.4306 89.7111 46.5779 89.5959C46.4713 88.4444 46.8054 88.3143 47.342 86.9674C47.7066 86.0513 47.7964 85.4113 48.1018 84.5303C48.1789 84.3079 48.296 84.38 48.3418 84.2227C48.493 83.7067 48.7872 82.1727 48.8951 81.8126C49.0822 81.1897 49.2608 80.5985 49.4433 79.9991C50.2536 77.3391 51.1823 74.944 52.308 72.4361C52.4566 72.105 52.1487 72.4846 52.3033 72.1419C52.5528 71.5916 52.5962 71.9984 52.7455 71.6829C53.1636 70.8056 52.9715 70.7093 53.5217 69.4781C54.3451 67.6438 55.2723 65.7399 56.1881 63.8056C57.3123 61.4304 58.5164 59.0214 59.7349 56.7563C59.804 56.6269 59.6897 56.5753 59.7643 56.4338C60.2529 55.5115 60.9194 54.6735 61.3965 53.8572C61.592 53.5226 61.7686 53.2048 61.9364 52.8953C62.463 51.93 62.9164 51.0556 63.5957 50.0836C65.3654 47.5677 67.1565 45.5329 69.1601 43.2023C69.8009 42.4587 70.4104 41.7574 71.0163 41.0592C71.9836 39.9457 72.9703 38.8522 74.1179 37.6232C77.3771 34.1431 80.6987 30.7083 84.1199 27.3267C87.6317 23.8003 91.8677 21.4509 95.169 18.7164C97.4462 16.8469 99.9879 15.4682 102.477 14.3182C102.762 14.1874 102.695 14.3423 102.779 14.2965C103.583 13.862 103.596 13.6959 104.019 13.8445C105.041 13.3123 105.284 12.948 106.56 12.4174C107.246 12.1348 106.876 12.685 107.95 12.0301C108.007 11.9957 108.056 11.9643 108.1 11.9353C108.755 11.4714 107.901 11.711 110.689 10.6282C110.768 10.5965 111.236 10.6199 111.808 10.2702C112.38 9.91658 111.617 10.1329 113.032 9.34854C114.647 8.46869 116.442 7.38813 118.831 6.48101C121.159 5.63583 123.541 4.93732 125.776 4.2018C126.05 4.11294 128.605 3.1849 129.083 2.96646C129.355 2.84554 129.526 2.75154 129.66 2.66882L129.802 2.62602C130.144 2.43968 130.271 2.31108 131.177 2.02151C132.166 1.70569 133.053 1.63648 134.27 1.26458C134.414 1.22219 134.598 0.967054 135.552 0.751862ZM44.5509 188.314C44.7888 188.527 45.5414 188.828 45.6836 190.337C45.6982 190.483 45.0519 189.836 45.176 190.672C44.9313 189.885 44.7412 189.105 44.5502 188.314C44.5504 188.314 44.5507 188.314 44.5509 188.314ZM143.215 3.50574C142.077 3.79977 141.002 4.16109 139.598 4.32018C140.548 4.11597 141.313 3.78271 142.065 3.48019C142.45 3.49016 142.832 3.49875 143.215 3.50574ZM47.5162 97.569C47.5165 97.568 47.5168 97.5669 47.517 97.5658C47.3129 98.7626 47.1159 99.9643 46.9166 101.168C46.8827 101.028 46.8486 100.888 46.8147 100.748C46.9395 99.7907 47.064 98.8339 47.1914 97.8827C47.2997 97.7778 47.408 97.6731 47.5162 97.569ZM49.5357 88.2181C49.8492 87.5049 49.9166 87.7248 50.1704 87.3583C50.1701 87.3582 50.1699 87.3581 50.1697 87.358C50.2378 87.2564 50.4261 86.7689 50.4928 86.5782C50.3915 86.6233 50.2847 86.6887 50.1811 86.7428C50.5473 84.9601 52.3009 81.795 51.1754 86.2555C51.0968 86.1591 51.018 86.0653 50.9397 85.9681C50.268 88.1511 49.2676 90.4907 49.5357 88.2181ZM50.1921 205.481C51.3254 207.096 51.6441 207.629 52.4622 209.831C52.2293 209.578 51.9972 209.323 51.7656 209.067C51.6857 208.676 51.6078 208.287 51.5304 207.894C51.5299 207.893 51.5295 207.892 51.529 207.891C51.4021 207.866 51.2749 207.84 51.1493 207.818C50.828 207.042 50.5092 206.261 50.1921 205.481ZM89.063 26.9355C89.9049 27.1547 89.5217 26.9206 88.4477 27.9884C88.0819 28.3606 88.5476 28.1292 88.3123 28.3511C87.0653 29.5565 86.6757 29.344 86.7978 28.8976C87.5241 28.2108 88.2898 27.5531 89.0605 26.9375C89.0613 26.9369 89.0622 26.9362 89.063 26.9355ZM130.213 5.89495C130.214 5.89461 130.215 5.89426 130.216 5.89392C130.313 6.03735 129.632 6.30727 130.464 6.20061C129.869 6.39587 129.27 6.5862 128.672 6.77522C128.842 6.70502 129.018 6.63356 129.189 6.56277C129.017 6.55787 128.843 6.55226 128.671 6.54691C128.518 6.79613 128.287 6.75295 127.643 6.88832C127.877 7.02892 128.11 7.16992 128.345 7.31005C127.599 7.4816 126.852 7.65093 126.109 7.82062C126.085 7.77431 126.06 7.72797 126.036 7.68166C125.783 7.83028 125.533 7.97884 125.28 8.12782C125.187 8.09267 125.098 8.05722 125.005 8.02212C124.69 8.17088 124.376 8.32008 124.063 8.47061C123.918 8.36156 124.619 8.06549 123.353 8.51707C123.697 8.24369 124.042 7.9722 124.393 7.69983C126.326 7.09459 128.272 6.51643 130.213 5.89495ZM79.1124 36.7552C80.645 35.1368 80.286 35.6649 80.1671 36.2684C79.816 36.4292 79.4632 36.5927 79.1124 36.7552ZM39.9829 141.685C40.224 142.321 40.4644 142.983 40.7002 143.627C40.856 144.949 40.4721 146.276 40.2819 145.285C40.0551 144.107 40.2504 142.826 39.9829 141.685ZM41.9502 171.657C41.8983 170.046 42.3176 171.527 42.5149 171.867C42.3068 172.333 42.3927 172.945 42.4912 173.929C42.3521 173.013 41.9589 171.925 41.9495 171.657C41.9497 171.657 41.95 171.657 41.9502 171.657ZM42.5967 116.042C42.7188 115.412 42.7918 114.773 42.9949 114.229C43.17 114.447 42.7299 115.523 43.224 114.793C43.1413 115.194 43.0609 115.595 42.9848 115.994C42.9047 115.714 42.7352 116.034 42.5977 116.04C42.5974 116.041 42.597 116.041 42.5967 116.042ZM65.4812 53.2962C64.9789 53.7989 64.7538 54.1095 64.566 54.4851C64.4167 54.7845 64.2892 55.1251 64.0779 55.6445C63.8942 55.6763 64.037 55.0144 64.2896 54.318C64.4099 53.9832 64.5587 53.6407 64.7036 53.3666C64.9624 53.342 65.2216 53.3188 65.4812 53.2962ZM37.7829 172.971C38.0011 172.787 39.1306 172.729 40.1824 172.749C40.6633 172.757 41.1053 172.781 41.4548 172.815C41.3186 172.852 41.1855 172.889 41.0534 172.927C40.7658 172.929 40.4741 172.932 40.1786 172.936C39.3895 172.945 38.5773 172.957 37.7829 172.971ZM42.5363 174.396C42.521 174.23 42.5061 174.076 42.4912 173.929C42.5156 174.091 42.5323 174.248 42.5363 174.396ZM73.8382 228.878C73.2663 229.047 74.8438 229.387 72.9276 228.974C72.9276 228.974 72.9275 228.974 72.9275 228.974C71.6705 228.671 71.3966 228.585 70.2499 228.263C70.7554 228.061 73.0805 228.535 69.923 227.639C69.8807 227.626 69.9135 227.842 69.4119 227.663C69.2594 227.607 68.8098 227.306 68.0841 227C67.845 226.899 66.0745 226.198 68.5198 227.079C68.5198 226.838 68.7266 226.664 68.7913 226.452C69.7494 226.704 70.3595 227.349 71.3994 227.591C72.9481 227.941 73.8005 227.587 74.0124 228.222C72.6724 228.202 70.4229 227.639 70.2435 227.203C69.0184 226.843 68.5722 226.99 69.5269 227.444C73.9052 228.391 70.5992 228.301 74.5363 228.722C74.5928 228.645 74.7634 228.576 74.7476 228.496C75.911 228.911 74.0453 228.831 73.8382 228.878ZM65.0832 225.496C65.832 225.687 66.6077 225.834 67.3663 225.946C67.2678 226.207 66.7698 226.312 65.6003 225.946C65.4246 225.798 65.246 225.645 65.0832 225.496ZM83.7184 186.498C83.5283 186.497 83.2417 186.343 82.997 186.262C82.9858 186.111 81.9664 184.681 81.2943 183.873C80.7583 183.209 80.5328 182.881 81.4177 183.759C81.4216 183.763 81.4254 183.767 81.4294 183.771C81.7452 184.044 83.098 186.12 83.7184 186.498ZM70.5656 46.2321C70.0627 46.6671 69.5646 47.1035 69.0709 47.5448C69.6564 46.7228 70.2542 45.907 70.8605 45.0954C70.7598 45.4752 70.6623 45.8532 70.5656 46.2321ZM40.049 152.426C40.0405 152.151 40.3004 153.056 40.2106 151.967C40.3871 152.769 40.546 153.536 40.7256 154.32C40.6401 154.553 40.5578 154.819 40.4737 155.055C40.5514 155.237 40.6296 155.426 40.7076 155.601C40.5533 155.503 40.4032 155.416 40.2459 155.308C40.4641 153.941 40.0914 153.656 40.049 152.426ZM42.2504 112.538C42.6154 112.378 42.3472 114.318 42.8432 112.465C42.9611 112.868 42.9281 113.459 42.7029 114.554C42.5858 114.713 42.4701 114.87 42.3537 115.03C42.5581 115.099 42.5735 115.397 42.5967 116.042C42.5963 116.042 42.596 116.043 42.5956 116.043C42.2763 117.708 42.2374 117.596 41.8151 117.935C42.3384 116.201 42.0419 116.09 42.1113 114.843C42.1613 113.987 42.4739 112.922 42.2504 112.538ZM86.7786 191.555C85.9385 190.562 86.279 191.674 85.4255 189.584C85.557 189.674 85.6881 189.767 85.8192 189.859C86.1486 190.417 86.4672 190.984 86.7786 191.555ZM44.9396 106.713C44.6472 106.72 44.2981 107.067 44.1789 107.439C44.0891 107.719 44.1344 108.019 44.4437 108.198C44.5812 107.885 44.6302 107.698 44.6441 107.572C44.6793 107.256 44.5068 107.306 44.9396 106.713ZM41.1274 171.187C40.9394 168.931 41.5394 169.313 41.8968 170.208C41.8088 170.358 41.7211 170.512 41.634 170.66C41.7165 171.048 41.801 171.437 41.8866 171.823C41.6334 171.614 41.3796 171.399 41.1274 171.187ZM56.6104 68.7638C56.202 70.478 57.5745 67.1551 57.2646 68.3427C57.0172 69.2896 56.1638 70.2902 56.1631 69.7622C56.2974 69.4569 56.4498 69.1181 56.609 68.7668C56.6095 68.7658 56.61 68.7648 56.6104 68.7638ZM52.8097 77.9689C53.2612 77.8306 53.0113 78.175 53.4218 76.8824C53.5255 76.5085 54.8224 73.7176 54.0439 74.793C53.6242 75.8116 53.1989 76.8931 52.8097 77.9689ZM46.3951 196.709C46.2405 196.775 45.2652 194.57 45.273 194.25C45.2727 194.251 45.2725 194.251 45.2723 194.251C45.2926 193.389 45.9849 195.807 46.024 194.666C46.37 197.076 47.2653 197.566 46.3101 197.665C45.8829 196.307 46.2548 196.903 46.3951 196.709ZM8.20199 171.905C8.20087 171.905 8.19975 171.905 8.19862 171.905C8.365 171.916 9.67612 172.18 9.51315 172.26C8.37284 172.189 8.19216 172.089 7.6463 172.123C7.4177 172.137 7.15068 172.171 6.72685 172.233C6.6466 172.147 6.57883 172.064 6.49429 171.978C6.93097 171.953 7.20507 171.896 7.65143 171.889C7.80742 171.886 7.98512 171.89 8.20199 171.905ZM80.0565 181.715C80.4896 182.106 81.0761 183.01 81.5348 183.492C79.6153 182.381 78.3242 180.179 80.0565 181.715ZM110.071 14.1081C110.07 14.109 110.069 14.1098 110.067 14.1107C110.067 14.1102 110.068 14.1096 110.068 14.1091C110.069 14.1087 110.07 14.1084 110.071 14.1081ZM88.2564 222.604C88.3342 222.564 88.3895 222.548 88.4262 222.553C88.4289 222.555 88.4316 222.557 88.4343 222.559C88.3774 222.571 88.3187 222.585 88.2564 222.604ZM47.8871 201.401C47.9903 202.416 46.5801 199.406 46.3865 198.341C46.5076 198.384 46.6016 198.369 46.7655 198.501C46.742 199.411 47.8624 201.243 47.8871 201.401ZM40.1038 126.949C39.7959 129.533 39.2877 126.046 40.0445 126.01C40.0557 126.016 40.1091 126.882 40.1038 126.949ZM43.1444 181.46C42.7817 180.837 42.8987 182.174 42.644 180.046C42.6958 179.911 42.7479 179.779 42.7993 179.644C42.9187 180.249 43.033 180.855 43.1444 181.46ZM38.69 144.036C38.9099 147.329 39.3073 150.476 39.9806 148.296C39.9481 148.053 39.9166 147.806 39.8846 147.555C39.5162 147.525 39.6864 146.591 39.6655 145.258C39.5143 145.054 39.464 144.336 39.3369 144.189C39.0913 143.921 38.942 144.792 38.69 144.036ZM94.5848 21.9745C94.5792 22.0564 94.575 22.1375 94.5686 22.219C94.1894 22.5829 93.8034 22.9432 93.4167 23.3003C93.4166 23.1535 93.4166 23.0065 93.4162 22.8596C93.8082 22.5679 94.1959 22.275 94.5819 21.9762C94.5828 21.9757 94.5838 21.9751 94.5848 21.9745ZM61.9608 224.454C62.6114 224.058 61.6738 223.617 59.8491 222.465C60.5166 223.158 61.2201 223.826 61.9608 224.454ZM47.3906 91.9555C47.5982 91.948 47.805 91.9413 48.0137 91.9306C48.1547 90.7985 47.8806 90.9259 47.4697 91.3641C47.4418 91.5644 47.417 91.7567 47.3906 91.9555ZM52.3465 76.4845C52.142 76.9116 52.3753 76.7418 52.3549 76.7869C51.8663 77.8722 51.7368 78.0078 51.387 79.4315C51.371 79.6132 51.3582 79.7941 51.344 79.9785C51.9434 79.4641 51.8756 78.93 52.5827 77.6739C52.363 77.8669 52.1451 78.0585 51.9264 78.2554C52.2159 77.5168 52.5164 76.7867 52.8299 76.0595C52.8233 75.9562 52.817 75.8538 52.811 75.7499C52.6565 75.9912 52.4926 76.2421 52.3465 76.4845ZM99.5399 18.559C100.201 18.1705 100.878 17.8059 101.563 17.4591C101.539 17.3567 101.515 17.2542 101.493 17.1516C100.827 17.6011 100.171 18.0698 99.5399 18.559ZM76.9649 228.969C77.0264 228.935 77.0863 228.899 77.1392 228.863C77.1338 228.907 77.0669 228.942 76.9649 228.969ZM6.19564 171.302C5.32394 171.207 4.08345 171.211 3.12816 171.146C3.18526 171.41 5.62298 171.437 6.45797 171.607C6.59498 171.565 6.55716 171.342 6.19564 171.302ZM40.8771 168.068C40.7335 167.86 40.5907 167.652 40.4478 167.448C40.4206 166.92 40.3954 166.392 40.3698 165.862C40.2652 165.854 40.1598 165.847 40.0552 165.839C40.3643 168.16 40.027 167.645 39.8261 168.826C40.1757 168.572 40.526 168.32 40.8771 168.068ZM121.357 7.51132C119.772 8.13362 119.26 8.48316 120.263 8.44059C120.798 8.16985 121.343 7.9047 121.886 7.64597C121.709 7.60091 121.531 7.5564 121.357 7.51132ZM92.1579 206.809C91.9531 205.401 92.3708 205.338 91.9744 203.976C91.9938 204.727 91.985 205.474 91.9577 206.216C92.0255 206.411 92.0925 206.611 92.1579 206.809ZM47.8751 206.434C47.9966 207.037 49.0879 207.754 49.3553 209.494C49.6664 209.791 49.9068 209.954 50.1921 210.199C50.1343 210.451 50.0878 210.729 50.0287 210.973C50.0292 210.974 50.0297 210.975 50.0302 210.976C50.7638 212.328 50.5013 211.344 50.6706 211.299C50.74 211.282 51.1489 212.352 51.1261 211.964C51.0783 211.298 49.9416 209.314 50.2348 209.166C50.4828 209.935 51.2593 211.299 51.2475 210.787C51.2338 210.23 50.2321 209.081 50.0107 208.148C50.1171 209.585 49.0739 207.007 49.305 206.553C48.3415 205.209 48.8553 206.616 49.5804 208.12C48.8694 207.329 49.6581 208.615 49.5366 208.947C48.9399 208.061 47.5389 204.742 47.8751 206.434ZM38.4961 130.259C38.4672 131.059 38.3599 132.179 38.4047 133.045C38.423 133.417 38.4632 133.736 38.5414 133.965C38.694 134.416 38.8009 132.643 39.0433 133.864C39.0339 133.509 39.0179 133.238 38.9935 133.042C38.943 132.637 38.8571 132.565 38.7167 132.692C38.6924 132.442 38.6705 132.183 38.6505 131.931C38.6927 131.817 38.7349 131.697 38.778 131.581C38.6961 131.445 38.6155 131.31 38.5345 131.179C38.5599 130.907 38.5872 130.642 38.6178 130.37C38.5766 130.336 38.5421 130.28 38.4961 130.259ZM69.9735 175.167C70.2749 175.256 70.572 175.349 70.8713 175.446C70.8545 175.387 70.8318 175.325 70.8102 175.263C70.796 175.215 70.7816 175.167 70.7671 175.119C70.9021 175.31 72.2283 176.038 72.8659 176.142C73.1899 176.195 72.626 175.645 73.8967 176.143C72.9873 175.754 72.1195 175.455 71.2068 175.166C71.3149 175.116 71.4208 175.064 71.5297 175.015C71.5292 175.015 71.5287 175.015 71.5282 175.014C71.232 174.89 70.9307 174.768 70.631 174.653C70.4082 174.822 70.1909 174.994 69.9735 175.167ZM46.7517 92.7234C46.6015 93.8009 46.5938 94.169 46.9812 93.7534C46.9816 93.7524 46.9821 93.7513 46.9825 93.7503C46.9794 93.3357 46.9807 92.9201 46.9849 92.5044C46.9075 92.5759 46.83 92.6477 46.7517 92.7234ZM86.118 227.189C87.1795 225.562 85.1198 227.171 84.4734 227.817C84.2562 228.042 84.1849 228.188 84.4477 228.138C84.4568 228.136 84.5162 228.103 84.6074 228.048C84.9725 227.831 85.917 227.221 86.118 227.189ZM40.8639 171.631C40.7933 171.012 40.7283 170.392 40.6658 169.77C40.5563 169.922 40.4481 170.082 40.3392 170.236C40.5115 170.702 40.6866 171.168 40.8639 171.631ZM114.377 10.1765C113.674 10.2419 112.166 10.9099 111.574 11.5224C111.967 11.37 112.365 11.211 112.758 11.0503C112.057 11.4444 111.362 11.8259 110.645 12.1938C110.763 12.5569 111.522 11.9716 112.823 11.4307C113.024 11.3511 114.487 11.1249 114.75 10.5802C114.8 10.4721 113.461 11.1197 114.277 10.4503C113.869 10.6462 113.524 10.8305 113.142 11.0158C113.073 10.9493 113.005 10.8826 112.933 10.8174C113.415 10.6078 113.894 10.3948 114.377 10.1765ZM38.4894 136.855C38.483 138.4 38.6386 138.589 38.911 138.909C38.8717 138.176 38.8346 137.486 38.7975 136.752C38.695 136.788 38.5925 136.819 38.4894 136.855ZM101.859 15.9008C101.07 16.256 101.501 16.2816 101.212 16.4796C100.131 17.2337 99.2739 17.5463 98.2307 18.3492C98.2795 18.2662 98.3258 18.1885 98.373 18.1089C98.372 18.1095 98.3711 18.1101 98.3701 18.1107C97.1748 18.8416 96.4444 19.4198 96.0305 19.772C95.3696 20.3335 95.5413 20.2991 96.1384 19.9043C96.7798 19.4661 97.9211 18.6785 99.1395 17.8969C99.2552 17.9211 99.3681 17.9476 99.4835 17.9721C100.808 17.0023 102.101 16.2159 101.859 15.9008ZM65.9858 227.417C66.0318 227.49 65.3432 227.559 66.4593 227.854C67.4642 227.742 66.0135 227.426 65.7517 227.102C66.0447 227.181 66.3508 227.262 66.6475 227.332C65.0271 226.519 64.748 226.448 65.2093 227.064C65.2374 227.106 65.9391 227.345 65.9858 227.417ZM77.7048 230.1C77.9389 229.424 75.6377 229.686 75.6986 229.88C76.0202 229.911 76.2758 229.806 76.6156 229.869C76.9592 229.93 77.0462 230.1 77.7048 230.1ZM41.7748 182.084C41.7805 182.149 41.5782 182.839 41.7965 182.744C42.227 181.863 41.6555 180.296 41.5076 180.606C41.5928 181.138 41.7221 181.482 41.774 182.084C41.7743 182.084 41.7745 182.084 41.7748 182.084ZM123.868 6.03503C123.833 6.02406 122.222 6.42249 122.053 6.59659C121.925 6.7689 121.883 6.92175 121.799 7.08451C122.626 6.67818 124.406 6.20534 123.865 6.03605C123.866 6.03571 123.867 6.03537 123.868 6.03503Z" fill="#E8CC33"/>
</svg>
