<svg width="22" height="40" viewBox="0 0 22 40" fill="none" xmlns="http://www.w3.org/2000/svg">
<path id="Vector" d="M0.821525 0.0976438C0.931525 0.167644 1.36152 1.21764 1.77152 1.29764C2.18152 1.37764 2.69152 0.367643 3.25152 0.377643C3.81152 0.387643 3.49152 1.37765 4.17152 1.53765C5.49152 1.95765 6.70153 0.0176468 6.40153 3.39765C8.57153 3.46765 9.78152 4.75764 10.5615 6.65764C11.6915 9.38764 12.3115 12.6076 13.3015 15.4376C15.4515 21.6376 18.7415 27.4376 21.6315 33.3376C21.7115 33.7176 21.7415 34.0576 21.3515 34.2376C20.9615 34.4176 19.4115 34.3676 18.5715 34.6476C16.7615 35.2676 15.5715 37.8476 13.3415 37.5376L13.8915 39.1977C12.1815 37.0476 10.8915 34.4376 8.89152 32.4676C8.12152 31.6876 8.06152 31.6776 7.36152 32.5376C8.60152 28.8576 11.4215 24.3776 11.1115 20.3976C10.8915 17.5576 9.41153 17.1376 6.87153 17.2676C6.16525 17.4206 5.44413 17.4944 4.72152 17.4876C4.56152 17.3976 4.56152 17.2976 4.72152 17.2076C5.9944 16.8297 7.31377 16.6311 8.64152 16.6176C13.2115 17.0576 11.5015 23.3976 10.5115 26.1876C9.86005 28.0533 9.0365 29.8544 8.05152 31.5676C9.00152 31.6876 9.94152 32.7376 10.5515 33.4376C11.0115 33.9676 12.1015 35.7876 12.4215 36.0276C12.8805 36.0718 13.3426 36.0718 13.8015 36.0276C15.3215 35.7476 16.3515 34.2876 17.9015 33.8876C19.0037 33.7195 20.1232 33.696 21.2315 33.8176C21.2614 33.6691 21.2614 33.5162 21.2315 33.3676C21.0215 32.3676 19.0115 29.3676 18.4215 28.2676C14.8815 21.4976 12.6415 14.9276 9.71152 7.97764C8.98152 6.23764 8.45152 4.97765 6.56151 4.25765C6.18151 5.76765 6.97152 7.03764 6.82152 8.61764C6.82152 8.91764 6.55151 9.23765 6.56151 9.46765C6.56151 9.89765 7.32152 9.90765 7.08152 10.9676C6.82377 11.4652 6.45375 11.8959 6.00074 12.2256C5.54773 12.5554 5.02417 12.7752 4.47152 12.8676C4.71152 12.4176 6.73152 10.8676 6.47152 10.3676C6.21152 9.86764 4.91152 10.8876 4.80152 10.7876C4.74152 10.2976 5.56152 10.0376 5.71152 9.78765C5.72329 9.05556 5.52926 8.33487 5.15153 7.70764C4.97153 8.36764 4.90152 9.30765 4.39152 9.78765C4.30152 8.68765 4.88152 7.29765 4.81151 6.25765C4.63577 5.38831 4.29642 4.56028 3.81152 3.81765C3.70152 3.72765 1.39153 3.33765 1.01153 3.28765C0.67846 3.2688 0.344594 3.2688 0.0115272 3.28765C-0.0342563 2.21716 0.0564626 1.1452 0.281516 0.0976438C0.371516 -0.0423562 0.691525 -0.0223562 0.821525 0.0976438ZM3.20153 1.31765C2.14153 2.31765 1.47152 2.39765 0.571525 1.17765L0.291526 2.84764C0.907181 2.8118 1.52466 2.87253 2.12153 3.02764C2.69153 3.14764 3.90152 3.70765 4.24152 3.75765C4.58152 3.80765 5.16153 3.52764 5.70153 4.09764L5.84153 1.86764C4.88153 1.87764 3.64153 2.60764 3.20153 1.26764V1.31765ZM6.26153 9.64765C6.48153 9.42765 5.84152 3.97764 4.46152 3.95764C5.08152 5.79764 5.98153 7.63765 5.84153 9.64765H6.26153Z" fill="#22234B"/>
</svg>
