<svg width="147" height="94" viewBox="0 0 147 94" fill="none" xmlns="http://www.w3.org/2000/svg">
<path id="Vector 3" d="M130.665 91.5584C131.009 91.925 129.683 91.405 130.493 92.0276C130.296 92.0058 130.099 91.9848 129.904 91.9637C129.893 91.8066 129.88 91.6495 129.869 91.4923C130.133 91.5132 130.398 91.5351 130.666 91.5577C130.666 91.5579 130.665 91.5582 130.665 91.5584ZM131.478 89.8316C131.137 90.1849 130.365 90.1058 131.072 90.6924C131.172 90.5668 131.274 90.4416 131.375 90.3161C131.627 90.4977 131.881 90.6799 132.135 90.861C132.249 90.8326 132.364 90.8041 132.479 90.7763C132.546 91.0557 132.612 91.3356 132.679 91.6157C132.573 91.5506 132.466 91.4844 132.36 91.4192C131.855 91.5046 131.437 91.456 130.819 91.3378C130.857 91.4099 130.896 91.4814 130.935 91.5534C130.65 91.3751 130.368 91.1972 130.087 91.0207C130.377 90.9901 130.703 90.9576 130.974 90.9301C130.676 90.4418 129.923 90.4805 129.542 90.4726C129.024 90.4622 129.18 90.3051 128.798 90.2951C128.737 90.2933 128.695 90.4364 128.581 90.4119C128.563 90.408 128.544 90.4039 128.525 90.3996C127.951 90.2687 126.92 89.9671 127.633 89.7747C127.976 89.865 128.307 89.9118 128.63 89.9518C129.211 90.0247 129.785 90.0737 130.372 90.289C130.22 89.8369 130.751 89.8294 131.478 89.8316ZM113.459 84.2261C113.842 84.3074 114.315 84.7949 114.608 85.1767C114.608 85.1771 114.608 85.1774 114.609 85.1777C114.672 85.2615 114.708 85.6089 114.443 85.4013C114.011 85.0564 114.065 84.5714 113.667 84.6002C113.6 84.4773 113.527 84.3537 113.459 84.2261ZM112.567 83.4105C112.401 83.0917 112.731 82.9991 112.966 83.3539C112.966 83.3538 112.966 83.3536 112.966 83.3534C113.067 83.4999 112.649 83.4374 113.275 83.6949C113.237 83.9225 113.214 84.1377 113.187 84.3629C113.068 84.2599 112.957 84.1658 112.834 84.0527C113.132 83.9001 112.736 83.7292 112.567 83.4105ZM127.108 89.8406C127.003 90.1086 127.197 90.1469 127.477 90.4082C127.176 90.334 126.871 90.2602 126.564 90.1868C126.746 90.0714 126.926 89.956 127.108 89.8406ZM134.311 91.6367C134.312 91.6368 134.312 91.6369 134.313 91.637C134.426 91.618 134.54 91.5986 134.652 91.5794C134.691 91.6924 134.729 91.8048 134.769 91.9177C135.157 91.9096 135.549 91.8992 135.938 91.8838C135.829 92.1775 135.175 91.9846 134.763 92.1106C134.242 91.8952 134.028 91.6575 134.054 91.3946C134.139 91.4751 134.224 91.5561 134.311 91.6367ZM63.6729 48.7353C63.5464 48.8164 63.4214 48.8975 63.2949 48.9784C63.4572 49.0237 63.6189 49.0596 63.7829 49.1109C64.2284 48.7542 64.2566 49.0851 64.8242 49.0809C66.5626 49.0643 66.1156 48.472 67.6616 49.3596C66.4025 49.2874 66.8781 49.6978 66.1085 49.9833C65.9579 49.7455 66.7253 49.2403 66.2185 49.1168C65.3338 49.3388 64.4813 49.5421 63.4985 49.6651C63.5255 49.7065 63.5524 49.748 63.5795 49.7894C63.7357 49.7697 63.8904 49.7497 64.0458 49.7297C63.8753 49.8318 63.7077 49.9329 63.5333 50.0358C63.7575 49.7988 63.2043 49.9151 63.2885 49.6363C63.3259 49.5122 63.5742 49.3475 63.7212 49.2329C63.355 49.1542 62.9825 49.0801 62.6129 49.0014C62.8108 48.9096 63.0051 48.8172 63.1999 48.7248C63.3568 48.7277 63.5127 48.7314 63.67 48.7341C63.671 48.7345 63.6719 48.7349 63.6729 48.7353ZM8.47269 5.12212C8.97483 4.93889 9.78414 5.09899 10.1037 5.52954C9.56408 5.38153 9.02157 5.24688 8.47269 5.12212ZM134.07 91.1762C134.11 91.2369 134.149 91.2967 134.189 91.3574C133.938 91.3919 133.686 91.4245 133.435 91.4574C133.426 91.3073 133.415 91.1571 133.404 91.0073C133.625 91.0639 133.848 91.1209 134.07 91.1762ZM119.418 87.4423C119.589 87.5108 119.601 87.5217 119.802 87.6319C119.802 87.6317 119.802 87.6315 119.802 87.6313C119.88 87.6777 120.55 88.0384 120.433 88.1085C120.08 87.9735 119.707 87.8147 119.354 87.6524C119.373 87.5815 119.401 87.5149 119.418 87.4423ZM123.517 88.9191C123.517 88.9194 123.518 88.9198 123.518 88.9201C123.642 88.969 123.755 89.0324 123.886 89.0707C123.367 89.1215 123.369 88.7998 122.914 88.7678C122.458 88.7341 122.133 88.8164 121.895 88.2932C122.05 88.2756 122.223 88.2331 122.383 88.2033C122.942 88.5465 123.154 88.4347 123.68 88.3967C123.626 88.5713 123.572 88.7446 123.517 88.9191ZM71.3752 49.7971C71.4962 49.5881 71.6228 49.7975 71.6363 49.8002C71.636 49.8004 71.6358 49.8007 71.6355 49.8009C72.6687 49.623 71.4984 49.9156 72.4716 49.9649C72.3243 50.0152 72.1812 50.0685 72.038 50.1195C71.819 50.014 71.5917 49.8947 71.3752 49.7971ZM99.2489 62.3788C99.2069 62.4245 99.1658 62.4717 99.1237 62.5174C98.7768 62.0669 98.4999 62.1139 98.3637 61.6109C98.6627 61.8636 98.957 62.118 99.2495 62.3783C99.2493 62.3785 99.2491 62.3786 99.2489 62.3788ZM116.914 85.6152C117.553 85.8584 118.004 86.0462 118.487 86.5059C118.488 86.5064 118.488 86.5068 118.488 86.5072C118.516 86.5345 118.298 86.5665 118.326 86.6174C118.453 86.6615 118.588 86.6975 118.718 86.7371C118.687 86.8372 118.657 86.937 118.627 87.0367C118.301 86.8405 117.977 86.6385 117.655 86.4294C117.676 86.5093 117.698 86.5895 117.72 86.6694C117.418 86.5419 117.117 86.4092 116.817 86.2694C117.001 86.1815 117.184 86.0917 117.364 85.9991C117.213 85.8727 117.062 85.7456 116.914 85.6152ZM93.1231 55.0064C93.1544 55.1238 92.9395 55.0835 93.0187 55.231C93.0991 55.3784 93.3963 55.478 93.2194 55.5735C93.0469 55.452 92.8604 55.3249 92.6833 55.2049C92.9737 55.9134 93.6833 56.1525 93.4052 56.4695C92.9971 55.9421 92.5581 55.6165 92.0038 55.2929C92.2394 55.0528 92.9157 55.2593 92.8161 54.7552C92.9181 54.8382 93.0251 54.9239 93.1215 55.006C93.122 55.0061 93.1225 55.0062 93.1231 55.0064ZM144.155 89.1725C144.267 89.2027 144.427 89.2252 144.602 89.247L144.416 89.2202C144.712 89.2363 145.151 89.2356 145.456 89.3744C145.56 89.4256 145.942 90.0519 145.942 90.1336C145.929 90.4101 145.443 90.443 145.962 90.6277C145.785 90.6285 145.616 90.6369 145.446 90.6382C145.473 90.8245 145.5 91.0102 145.526 91.1958C145.739 91.1717 145.954 91.1451 146.171 91.1172C146.182 91.1787 146.192 91.2403 146.203 91.3018C145.424 91.2987 145.883 91.5392 145.475 91.7545C145.844 91.8735 146.225 91.9846 146.602 92.0964C146.384 92.0828 146.128 92.0725 145.937 92.055C145.909 92.37 146.368 92.2965 146.446 92.3545C146.889 92.6886 144.641 92.5104 144.4 92.921C144.775 93.0014 145.167 93.0646 145.544 93.1211C145.434 93.1758 145.323 93.2299 145.211 93.2832C144.829 93.132 144.423 93.0118 144.003 92.879L143.96 92.8728C143.464 92.6762 142.956 92.4846 142.447 92.259C142.359 92.2527 142.268 92.246 142.181 92.2391C142.175 92.3834 142.168 92.5269 142.161 92.6712C142.028 92.6582 141.891 92.6441 141.757 92.6302C142.247 92.2623 141.711 92.1476 141.142 91.7175C141.518 91.6386 141.913 91.8329 141.954 91.5275C140.738 91.4876 139.465 90.8251 138.274 90.8024C138.067 90.7984 137.959 90.9866 137.687 91.0295L137.709 91.0343C137.596 91.0606 137.45 91.0625 137.252 91.0145C137.283 90.9761 137.301 90.8997 137.326 90.8462C136.135 90.8136 135.405 90.7647 134.262 90.2933C134.297 90.448 134.332 90.603 134.368 90.7577C134.637 90.7493 134.908 90.7387 135.176 90.7273C135.297 90.9949 135.017 91.0405 135.781 91.206C136.408 91.3383 136.056 91.1569 136.241 91.1249C136.491 91.0799 136.657 91.304 136.927 91.2483C137.135 91.205 136.963 90.9768 137.455 91.1175C137.209 91.3277 136.953 91.543 136.698 91.7518C136.585 91.672 136.474 91.5911 136.362 91.51C136.5 91.4697 136.636 91.4294 136.773 91.388C136.312 91.4201 135.875 91.4442 135.397 91.4659C135.622 91.1444 135.129 91.1742 134.868 91.1574C134.462 91.1317 134.853 90.9667 134.588 90.9473C134.323 90.9283 133.982 91.1337 133.536 90.9625C133.821 90.8663 133.521 90.6434 133.621 90.5146C133.722 90.3861 134.213 90.4723 133.787 90.2006C132.865 90.0995 133.697 90.8908 133.071 90.8296C132.317 90.7545 132.375 89.8136 132.638 89.6757C132.846 89.5671 133.42 89.7441 133.628 89.6348C132.655 89.102 132.511 89.6357 132.305 89.696C131.56 89.9141 132.256 89.0021 131.395 89.1765C131.458 88.9889 131.514 88.8198 131.575 88.64C131.434 88.6412 131.334 88.6651 131.167 88.6521C131.544 89.1449 131.162 89.0307 130.963 88.981C130.651 88.9032 131.087 89.2071 130.992 89.2331C130.738 89.3021 130.4 89.1565 130.575 89.3752C130.497 89.2743 130.411 89.1711 130.331 89.0703C129.941 89.0733 128.893 89.666 129.743 89.703C129.594 89.9815 129.368 89.7743 129.175 89.6799C128.982 89.5855 128.94 89.7761 128.769 89.6986C128.744 89.687 128.72 89.6755 128.698 89.6642C128.135 89.3781 128.637 89.167 128.805 88.9479C127.816 88.9087 128.722 89.2286 127.326 89.0524C127.15 89.2329 127.735 89.5888 127.183 89.598C127.163 89.2152 126.827 88.8745 126.086 88.5939C125.994 88.6615 125.902 88.7299 125.81 88.7973C125.461 88.373 125.753 88.0755 124.886 88.3161C125.473 87.6479 125.074 88.0745 124.46 87.6033C124.336 87.5079 124.694 87.4271 124.519 87.3013C124.441 87.2445 124.199 87.3117 124.009 87.1664C123.915 87.095 123.513 86.68 123.146 86.7221C123.289 87.1556 122.557 87.2804 123.026 87.7389C122.016 87.3712 121.262 87.2967 122.55 87.1719C122.327 86.9843 122.108 86.7941 121.896 86.6009C121.693 86.6264 121.487 86.6476 121.28 86.6658C121.363 86.363 121.417 86.3018 120.731 86.0801C121.047 86.1328 121.362 86.1753 121.68 86.2114C121.711 86.1561 121.773 86.1094 121.784 86.0487C121.386 86.0413 120.382 85.6789 120.115 85.6358C119.845 85.6 120.29 85.8335 120.189 85.8743C119.958 85.9668 119.806 85.999 119.7 85.9973C119.416 85.992 119.462 85.7532 119.127 85.6762C118.856 85.6138 119.399 85.9702 119.257 85.9304C118.728 85.7818 118.67 85.354 118.258 85.1238C118.309 85.3794 118.362 85.6376 118.416 85.8935C117.973 85.648 117.482 85.3696 117.044 85.1792C116.872 85.1041 116.916 85.3036 116.884 85.2964C116.728 85.2636 116.16 84.9973 116.105 84.9593C115.69 84.6834 115.795 84.5065 115.414 84.2162C115.576 84.3138 115.729 84.4036 115.89 84.494C116.148 84.2677 116.404 84.0394 116.655 83.807C116.3 83.5384 115.954 83.2591 115.622 82.9661C115.807 83.2535 116.005 83.5381 116.212 83.8187C115.635 83.7426 115.051 83.6372 114.463 83.4909C114.354 83.1819 114.258 82.8732 114.173 82.5645C113.615 82.0794 113.23 82.6303 113.418 81.9704C113.232 81.8389 113.049 81.7011 112.87 81.5563C112.955 81.5288 113.04 81.5004 113.125 81.4717C112.917 81.2987 112.714 81.1169 112.516 80.9261C112.436 81.3287 112.364 81.7491 112.333 82.1657C111.922 81.7599 112.125 81.5921 112.124 81.4894C112.127 81.2158 111.695 80.9757 111.733 80.7407C111.745 80.6661 112.179 81.0285 112.237 80.7671C112.242 80.745 112.281 80.5438 112.304 80.3063C112.335 80.0071 112.319 79.6388 112.114 79.482C112.01 79.5565 111.896 79.6677 111.787 79.7561C111.415 79.3073 111.814 78.7008 112.013 78.6654C111.736 78.473 111.481 78.0983 111.275 78.1554C111.185 78.0252 111.095 77.8957 111.005 77.7659C111.511 77.6339 111.073 77.1288 110.693 77.3265C110.833 77.5599 110.972 77.7938 111.111 78.0278C110.56 78.1404 110.748 79.0031 110.215 77.302C110.262 76.8784 110.504 77.8104 110.527 77.4751C110.372 77.0212 110.049 76.7109 109.964 76.2376C109.858 75.648 110.421 76.0878 109.464 75.1836C110.391 77.9581 108.822 75.1444 107.901 74.1549C108.26 73.5538 108.023 72.706 107.348 71.7427C107.221 71.561 107.078 71.3753 106.92 71.1864C106.85 71.3735 107.034 71.6255 107.166 71.8557C107.207 71.9272 107.243 71.9968 107.265 72.0617C107.355 72.335 107.09 72.1438 107.194 72.4909C107.298 72.8383 107.587 73.5349 107.657 73.9118C107.395 73.7256 106.363 72.6206 107.171 73.27C107.027 72.7948 106.976 72.4579 106.835 72.0618C106.76 71.8511 106.659 71.6241 106.506 71.3501C106.089 71.289 105.927 71.4117 105.459 70.6638C106.114 70.8745 105.86 69.8573 106.371 69.8037C106.603 70.3924 106.037 70.3301 106.041 70.7508C106.041 70.794 106.442 71.2307 106.506 71.3501C106.544 70.6373 106.568 70.3868 107.167 70.4414C106.915 70.1108 106.833 69.859 106.616 69.9468C106.656 69.8209 106.697 69.6949 106.738 69.5701C106.665 69.4561 106.594 69.3574 106.521 69.234C106.327 69.5832 106.311 69.1456 106.035 68.9952C105.759 68.8453 105.715 69.2992 105.322 68.6638C105.383 68.9187 105.442 69.1494 105.501 69.3948C105.174 69.0303 104.846 68.665 104.518 68.3024C104.514 68.7011 104.626 69.4896 104.377 69.6179C104.352 69.3737 103.799 68.8253 103.749 68.7594C103.557 68.502 103.798 68.558 103.789 68.5351C103.598 68.0619 103.329 67.7436 103.454 67.4402C103.151 67.1846 103.057 66.908 102.836 66.5756C102.714 66.3928 102.572 66.5353 102.534 66.4074C102.275 65.5607 102.937 66.0877 101.618 64.9971C101.618 65.2378 101.612 65.4777 101.607 65.7182C101.462 65.5941 101.316 65.4719 101.17 65.3499C101.122 65.2348 101.073 65.1205 101.024 65.0057C101.269 64.8391 101.515 64.6725 101.759 64.506C101.695 64.3844 101.629 64.2631 101.564 64.1421C101.722 64.3169 101.881 64.4935 102.038 64.6708C102.093 64.6591 102.147 64.6462 102.202 64.6345C102.071 64.2999 101.938 63.9666 101.8 63.6331C101.712 63.6874 101.624 63.7423 101.536 63.7967C101.264 63.2208 101.241 63.0608 100.904 62.8027C100.818 62.738 100.71 62.6667 100.571 62.5799C100.221 62.1207 99.5918 62.0289 99.2429 61.8896C99.2131 61.7624 99.1827 61.6339 99.1497 61.5043C99.035 61.5005 98.9212 61.4976 98.807 61.4949C98.8018 61.3036 98.7934 61.1095 98.7859 60.9184C98.5253 61.0311 98.4351 61.0519 98.7399 61.5596C98.3546 61.6209 97.8019 60.7523 97.6036 60.3646C97.456 60.0712 97.9 60.1461 97.8991 60.094C97.8977 59.9174 97.4683 59.5923 97.4075 59.4983C97.1493 59.0984 96.9142 58.8679 96.6667 58.5174C96.619 58.4492 96.5874 58.159 96.5776 58.1409C96.4936 58.0093 96.2918 57.6779 96.2631 57.6455C94.7903 55.9804 95.9246 58.1918 94.5184 56.7013C94.4919 56.817 94.4622 56.9287 94.4343 57.0434C94.3196 56.9412 94.2033 56.8378 94.0878 56.7363C94.0051 56.5407 94.2831 56.5904 93.9154 56.415C94.0197 56.3409 94.1243 56.267 94.2294 56.1946C94.0589 56.127 93.8947 56.0654 93.7216 55.9974C93.8209 55.4922 93.1411 54.7507 93.5308 54.4157C93.6639 54.2997 94.3197 54.6481 94.1606 54.2559C93.9526 54.0211 93.9717 54.3165 93.8698 54.2404C93.1361 53.6948 93.3609 53.5117 93.026 53.3289C92.9002 53.3862 92.771 53.4439 92.6444 53.5024C92.5605 53.3849 92.4754 53.2674 92.3879 53.149C92.3095 53.1933 92.2303 53.237 92.1524 53.2818C92.2502 53.3681 92.3639 53.4686 92.4515 53.5484C92.1173 53.6818 90.8271 52.8603 91.4556 52.9987C91.7148 53.0562 92.0275 53.3678 92.0485 52.8939C91.6885 52.6785 91.2791 52.4368 90.891 52.2259C90.9282 52.151 90.9662 52.0764 91.0033 52.0013C90.9754 51.9849 90.9499 51.9713 90.9265 51.9602C90.5839 51.7974 90.6797 52.1383 90.6613 52.333C90.6575 52.3711 90.6495 52.4038 90.6334 52.4261C90.6247 52.4203 90.616 52.4146 90.6073 52.4089C90.5045 52.3413 90.401 52.2733 90.2977 52.2069C90.2971 52.109 90.3006 52.0095 90.2956 51.9118C90.2183 52.0138 89.9907 52.2138 89.724 51.9026C89.5509 51.702 90.0658 51.6566 89.6312 51.4242C89.5539 51.6118 89.5673 51.9059 89.081 51.6704C89.1471 51.4668 89.1851 51.2663 89.2646 51.0591C88.5818 50.8722 88.4726 50.4333 87.6515 50.2658C87.1248 50.157 86.3135 50.365 86.3096 49.5028C85.968 49.3451 86.0073 49.5766 85.8891 49.5794C85.3374 49.5998 85.0886 49.1324 84.9976 49.082C84.4349 48.7721 84.1306 48.8406 83.66 48.5707C83.6614 48.7217 83.651 48.8626 83.6462 49.0088C84.1358 48.8766 84.3739 48.9353 84.9825 49.1592C84.7655 49.1265 84.5485 49.1001 84.3317 49.0786C84.3379 49.2039 84.3427 49.3291 84.3457 49.4533C86.362 49.556 85.6544 50.0989 84.1097 49.8478C84.0303 49.5998 83.9371 49.3517 83.8433 49.1049C83.2905 49.1858 82.9355 49.1338 82.5348 49.0408C82.233 48.9688 81.8468 48.8686 81.3831 48.8159C81.2408 48.8008 80.788 48.9112 80.5728 48.9106C80.576 48.9115 80.5792 48.9125 80.5824 48.9135C80.4551 49.1197 80.6128 49.222 80.6312 49.4109C80.5179 49.4305 80.4177 49.4507 80.3073 49.4708C80.0727 49.3201 80.1427 49.204 79.6771 49.2254C79.7375 49.3698 79.7962 49.5143 79.8549 49.6588C79.3353 49.6495 78.9988 49.4866 78.4983 49.543C78.581 49.4907 78.6676 49.4384 78.7516 49.3862C77.6876 49.2261 78.5597 48.4041 77.7347 48.8061C77.686 48.7319 77.6383 48.6571 77.589 48.5829C77.9161 48.5709 78.2614 48.5601 78.5844 48.549C78.5935 48.4455 78.6032 48.3424 78.611 48.2389C78.2627 48.2626 77.8892 48.2874 77.5419 48.3121C77.7931 48.2471 78.0717 48.1828 78.3276 48.1184C77.9149 48.0604 77.5066 48.0032 77.0898 47.9463C77.5264 48.3351 76.9511 48.3717 77.0525 48.751C76.3338 48.4244 75.7583 48.0011 74.6258 48.2488C74.4021 48.2981 74.5099 48.5636 73.8863 48.2329C74.0348 48.655 73.2311 48.8393 73.3268 49.24C73.5515 49.2243 73.7822 49.2159 73.9959 49.1956C73.7545 49.0533 73.7207 48.6719 74.0915 48.5646C74.572 48.428 75.2531 48.7026 75.2339 48.2795C75.4258 48.3023 75.6025 48.3168 75.7849 48.3365C75.7081 48.4401 75.6324 48.5445 75.5562 48.6482C76.077 48.4919 76.4125 48.5509 76.6566 48.8194C76.0298 48.8698 75.405 48.9203 74.7855 48.9709C74.8767 48.9903 74.9688 49.0099 75.0591 49.0286C74.5858 49.2914 75.0713 49.5548 74.1837 49.5988C74.1909 49.4754 74.1971 49.3518 74.2044 49.2278C73.8866 49.5533 72.9978 49.5374 73.275 49.9219C73.0135 49.8009 72.9613 49.7262 72.808 49.9286C72.1073 49.6285 71.6713 49.2556 71.9257 48.824C71.6664 48.8897 71.4007 48.9554 71.1429 49.0209C71.2884 49.1427 71.4404 49.2641 71.5885 49.3859C71.1306 49.3704 70.6847 49.355 70.2285 49.3393C70.193 48.986 71.1031 49.2488 70.845 48.9286C70.7937 48.8644 70.5477 48.9954 70.4841 48.9585C69.814 48.5601 70.8718 48.8589 70.6774 48.5596C69.671 48.4489 70.491 47.9705 69.0974 48.3577C69.0632 48.2552 69.0264 48.1505 68.9949 48.0486C68.5168 48.032 68.5501 48.2628 68.1357 48.2966C67.8778 48.3176 67.5643 47.906 67.2718 48.1736C67.2199 48.2229 67.6866 48.7291 66.679 48.6808C65.8967 48.6423 66.2317 48.3026 65.813 48.1668C65.3947 48.0312 64.4103 48.483 64.1449 47.9246C64.3633 48.005 64.644 48.0537 64.888 48.1212C64.9916 48.0178 65.0921 47.9153 65.1939 47.8123C64.6276 47.9324 64.0543 47.7498 63.6665 47.9901C62.9326 47.5737 62.0812 47.8982 62.2887 48.3472C62.5385 48.2943 62.2776 48.0915 62.6159 48.2279C62.6469 48.3317 62.6799 48.4351 62.711 48.5389C62.125 48.5025 61.7221 48.4867 62.0011 48.1866C61.9111 48.1751 61.8225 48.1637 61.7323 48.1522C61.7058 48.3772 61.681 48.6032 61.6544 48.8283C61.5443 48.8487 61.4339 48.8689 61.3241 48.8892C61.2057 48.8339 61.0874 48.7779 60.9684 48.7217C61.1494 48.3722 61.4279 48.3751 60.5175 48.1287C60.5084 48.252 60.498 48.3747 60.4889 48.498C59.7242 48.2999 59.7193 48.0009 58.7554 47.9526C59.5177 47.5707 59.8855 48.3514 59.9287 47.4921C60.1103 47.5587 60.2944 47.626 60.478 47.6922C60.5129 47.569 60.5475 47.4456 60.5809 47.3224C59.5878 47.3394 57.8729 48.0521 57.244 47.4561C57.1584 47.5162 57.0734 47.5676 56.9864 47.6324C56.3598 47.2534 56.0227 47.965 55.3911 47.4791C55.3265 47.4273 55.5368 46.7551 54.6817 46.6915C54.6935 46.7833 54.6886 46.9352 54.6942 47.05C54.5134 46.9754 54.337 46.8979 54.164 46.8213C54.1373 46.8715 54.11 46.9216 54.0828 46.9719C54.0666 47.0006 54.0505 47.0294 54.0347 47.0582C54.0471 47.0609 54.0595 47.0636 54.0719 47.0663C54.3641 47.1312 54.6667 47.1955 54.9706 47.2575C54.7028 47.2591 54.4314 47.2588 54.1701 47.258C54.4932 47.4311 54.6524 47.4488 54.4203 47.6431C54.2818 47.6341 54.1445 47.625 54.0087 47.6156C53.8457 47.6041 53.6834 47.5936 53.5206 47.5835C53.4838 47.6357 53.4473 47.6886 53.4107 47.7409C53.5385 47.9215 53.6668 48.099 53.7914 48.283C53.0345 48.0615 52.3568 47.9944 51.785 47.6159C51.6874 47.552 52.0681 47.3672 51.3537 47.5018C51.3527 47.3865 51.342 47.292 51.339 47.1852C50.4584 47.4315 50.1823 47.3139 49.3202 46.9929C49.8719 47.2667 49.3746 47.0752 49.216 47.1749C49.107 47.2441 49.5006 47.273 49.4477 47.3517C49.3957 47.4304 48.8469 47.7104 49.282 47.7967C50.4231 47.2194 50.6392 48.0582 52.0412 47.849C51.8225 47.9188 51.602 47.9891 51.3831 48.0593C51.4777 48.1279 51.5617 48.19 51.6637 48.263C50.9098 48.0626 51.2749 48.1821 50.9503 48.2606C50.6257 48.3392 50.0409 48.3784 49.6487 48.3695C49.525 48.3666 49.6692 48.2258 49.3943 48.184C49.2079 48.1559 48.6648 48.327 48.5761 48.0441C48.5218 47.8602 49.3933 47.4774 48.2631 47.3426C48.0728 47.1449 48.606 47.266 48.6202 47.2458C48.7406 47.0544 48.0742 46.8189 47.7365 46.9256C47.7086 46.9352 47.9375 47.1297 47.6545 47.1519C46.9807 47.2026 46.6302 46.9489 46.2714 46.6202C46.1712 46.8948 45.5398 47.1223 44.89 46.8175C44.8319 46.887 44.7746 46.9574 44.7152 47.0269C44.8342 47.0171 44.9526 47.0065 45.0703 46.9939C45.1712 47.0764 45.2849 47.1462 45.3835 47.235C44.6742 47.1213 44.4563 47.4626 44.0652 47.488C42.7107 47.5246 43.8172 46.8045 44.0676 46.7035C44.1861 46.8251 44.3009 46.9517 44.4229 47.073C44.4379 46.9715 44.4534 46.8692 44.4707 46.7677C42.8288 46.171 44.4392 46.0715 43.7257 45.5819C43.6352 45.6673 43.5335 45.7216 43.4232 45.7458C43.0518 45.8261 42.5868 45.5776 42.1515 45.0774C42.0717 45.0388 41.9926 44.998 41.9129 44.9592C41.8659 45.0164 41.814 45.1146 41.77 45.1454C40.869 44.7553 41.116 43.9944 41.076 43.8897C40.9012 43.4118 40.4093 43.6276 40.3058 43.5663C39.8796 43.3111 39.8716 43.0672 39.4384 42.8697C38.973 42.6525 39.1665 42.9759 38.9612 42.9963C38.7958 43.0113 38.4581 42.7854 38.2566 42.771C38.3655 42.7391 38.4788 42.7123 38.5867 42.6785C38.2382 42.2591 37.9788 41.8975 37.5463 41.4875C36.5887 41.5485 36.9359 40.3129 36.4814 41.145C36.8592 41.5833 37.0342 41.8704 37.1215 42.2513C36.8094 42.0262 36.5024 41.7924 36.2004 41.5521C36.1866 41.4017 36.1963 41.2763 36.1721 41.1115C35.8168 41.0706 35.4127 40.5339 35.1903 40.3868C34.9105 40.2048 34.7065 40.1026 34.5495 40.0302C34.1222 39.8344 34.0515 39.8736 33.8547 38.9653C34.3318 39.4361 34.5652 39.372 34.9186 39.6997C34.9879 39.7637 35.062 39.8422 35.1442 39.9414C35.166 39.7999 35.0936 39.6596 35.0736 39.5609C35.0561 39.477 35.0761 39.424 35.2224 39.4276C35.2311 39.4277 35.2402 39.4281 35.2498 39.4286C35.2451 39.4242 35.2405 39.4198 35.2358 39.4155C34.6971 38.9093 34.6875 39.2357 34.3429 39.1479C34.0421 39.0701 33.6957 38.6853 33.5439 38.855C33.6033 38.7336 33.6679 38.6243 33.7276 38.5034C33.4037 38.129 33.0839 37.7505 32.7674 37.3697C33.002 37.4497 33.2363 37.5276 33.4707 37.6055C33.4054 37.4519 33.3422 37.3002 33.278 37.1462C32.1814 36.4751 31.5067 34.3613 30.9008 35.2359C30.5223 34.7836 30.5818 34.6462 30.5509 34.2765C30.4681 34.2932 30.396 34.3027 30.3058 34.3238C30.1513 33.9696 29.7465 33.8946 29.6191 33.5746C29.491 33.2536 29.6742 33.0342 29.2644 33.247C29.2536 32.9929 29.227 32.7519 29.214 32.5043C29.0564 32.4512 28.8998 32.3959 28.7432 32.3405C28.6817 32.1382 28.6217 31.9351 28.5639 31.7312C28.3181 31.7511 27.9966 31.0048 27.7025 30.7571C27.707 30.7199 27.7167 30.6833 27.7301 30.6471C27.866 30.2862 28.372 29.9559 27.938 29.3813C27.7834 29.4838 27.6292 29.5859 27.4748 29.6886C27.4262 29.5109 27.378 29.3329 27.3303 29.1539C27.379 29.1171 27.4285 29.0815 27.4773 29.0446C27.5021 29.1348 27.5267 29.2239 27.5515 29.3144C27.6058 29.197 27.6607 29.0816 27.7162 28.966C27.4581 28.7911 27.2007 28.6139 26.9438 28.4322C27.0048 28.8166 27.0709 29.2017 27.1399 29.5863C26.8052 29.2302 26.7793 28.8772 26.464 28.5754C26.5372 28.1431 26.7278 28.1997 27.0384 28.2076C26.96 28.1001 26.8824 27.9909 26.8049 27.8826C27.0924 27.8415 27.1427 27.5741 27.4547 28.2655C27.5024 28.1839 27.5465 28.1032 27.598 28.0219C27.5327 27.9161 27.5577 27.8148 27.4719 27.7059C27.2382 27.41 26.6796 27.3528 26.535 27.4461C26.4594 27.4961 26.7701 27.7607 26.65 27.8004C26.3574 27.899 26.1156 27.0601 26.3648 28.3139C26.0108 28.0259 26.1038 27.878 25.9678 27.4399C25.889 27.5144 25.8106 27.5879 25.7316 27.6616C25.6867 27.448 25.6435 27.2338 25.603 27.0193C26.1959 27.0744 25.7897 25.5972 26.7439 26.6762C26.6058 26.2987 26.4767 25.9209 26.3593 25.5412C26.4387 25.5983 26.5179 25.6551 26.5978 25.7112C26.6362 25.8875 26.6768 26.0629 26.72 26.2392C26.73 26.0065 26.7427 25.7752 26.7599 25.5459C26.47 25.1321 26.2317 25.0123 25.9376 24.8698C25.9683 25.4771 26.1243 25.2212 26.3259 25.6284C26.1828 25.6661 26.064 25.7342 25.9053 25.7517C26.1018 25.4227 25.641 24.7722 25.5755 24.6012C25.3714 24.0918 25.7821 24.4144 25.6861 24.0663C25.5926 23.721 25.3162 23.3439 25.5458 22.9949C25.3842 23.0348 25.2209 23.094 25.0775 23.1473C24.9064 22.5965 25.1281 22.6716 25.1409 22.6097C25.2695 22.0935 25.2348 21.7394 25.1533 21.3561C25.0782 20.9928 24.9554 20.6128 24.8945 20.0948C24.8539 20.2369 24.8183 20.3784 24.781 20.5213C24.3652 19.7325 24.5147 20.273 24.4558 20.9931C24.4371 20.3244 24.109 19.9667 23.9828 19.506C23.8577 19.0447 23.9429 18.2366 24.0323 17.9338C24.2916 18.5814 24.2208 19.3172 24.332 20.059C24.4944 19.9611 24.631 19.8678 24.8098 19.7653C24.4198 19.3391 24.6354 19.057 24.6699 18.9033C24.7708 18.4512 24.4675 18.4931 24.7702 18.1967C24.6587 18.218 24.5648 18.2346 24.4608 18.2551C24.4277 17.3498 24.4974 16.3327 23.9794 15.826C24.2372 15.726 24.4869 15.638 24.7473 15.5239C24.4735 15.1729 24.6039 14.7984 24.4721 14.4797C24.3385 14.1669 24.1629 14.347 23.9701 14.0011C23.9342 13.9384 24.0189 13.7516 23.8642 13.6176C23.7084 13.465 22.7752 13.1913 23.3397 12.8513C23.2044 12.5541 23.079 12.2697 22.9188 11.9901C23.1159 12.2369 23.2976 12.4981 23.4655 12.7683C23.4956 12.4555 23.5082 12.1359 23.4987 11.8069C23.3572 11.8485 23.2142 11.8931 23.0766 11.9384C22.8138 11.6752 22.6458 11.4195 22.4713 11.1574C22.2955 10.8937 22.1295 10.6215 21.8678 10.3614C21.781 10.2764 21.7555 10.6741 21.4573 10.2263C21.1566 9.78437 21.2701 9.11687 20.4565 8.61264C20.4135 8.58626 19.9438 8.69451 19.8861 8.2682C19.8719 8.17006 20.172 8.31441 20.0981 8.13569C20.028 7.95406 19.4706 7.394 19.5418 7.20256C19.5046 7.26259 19.4975 7.35027 19.471 7.42073C19.3456 7.36209 19.2179 7.30373 19.0909 7.24714C19.1565 7.14173 19.2212 7.03534 19.286 6.93006C18.4775 6.68281 17.9107 6.84271 17.0201 6.1457C17.2071 6.45824 17.3804 6.77427 17.5392 7.09072C17.6781 7.03051 17.819 6.97135 17.9595 6.91374C18.359 7.24186 18.7418 7.58865 19.1049 7.94989C19.2607 7.89192 19.416 7.83482 19.5741 7.78033C19.6685 7.88406 19.7598 7.98652 19.8516 8.0921C19.757 8.14703 19.6631 8.20185 19.5683 8.25687C19.7877 8.41407 20.0045 8.57645 20.2165 8.74259C19.4137 8.81294 19.1089 7.70031 18.834 8.14086C18.7924 8.0052 18.7481 7.86822 18.7025 7.73195C18.5085 7.89658 18.3653 7.69185 18.0397 7.41459C18.0491 7.57065 18.0652 7.7307 18.0627 7.88196C17.8399 7.50066 17.2228 7.11444 16.8897 6.84633C16.7431 6.72701 16.995 6.66554 16.9576 6.6192C16.7622 6.37446 16.1269 6.39288 16.0376 6.32186C15.7041 6.05067 15.51 5.67255 15.202 5.43555C15.0115 5.28922 14.7819 5.19791 14.4557 5.22653C15.1423 5.61645 14.7643 5.41566 14.9345 5.7242C14.9447 5.74296 14.9855 5.77784 15.0364 5.81815C15.2225 5.96628 15.5364 6.18551 14.9911 5.92299C14.9177 5.88846 14.8292 5.84593 14.7237 5.79476C14.6039 5.71634 12.6106 4.51529 13.4239 4.4875C13.037 4.4513 12.7221 4.46312 12.3647 4.45404C11.8322 3.4 11.8643 4.23537 11.9583 4.71778C11.8299 4.67724 11.7053 4.64133 11.5731 4.59919C11.9982 4.25678 10.5435 3.77587 9.98405 3.87194C9.79819 3.90062 10.2252 4.16457 9.82392 4.1279C9.64998 4.04896 9.45231 3.95577 9.26686 3.87318C9.47768 4.22011 8.90168 4.19016 8.84206 4.47552C8.55624 4.14001 8.40401 3.54355 8.66722 3.29855C8.34412 3.34751 8.02151 3.39967 7.70141 3.45594C7.8241 3.55223 7.94811 3.64879 8.06941 3.74603C7.52009 3.51298 6.8237 3.48144 6.33528 3.36195C6.0018 3.28029 5.76428 3.15257 5.7299 2.89545C5.60045 2.87447 5.46928 2.85219 5.33993 2.83053C5.27967 2.92354 5.22061 3.01695 5.16014 3.10984C4.59364 2.90344 4.03205 2.69075 3.47174 2.47319C4.00261 2.52624 4.15582 2.40967 4.67294 2.64106C4.48829 2.48104 4.30091 2.31892 4.12241 2.15862C3.24212 2.29051 3.08091 2.47289 1.87962 2.08629C1.82427 2.06968 0.969391 1.58015 0.945205 1.54559C0.833177 1.3937 1.09143 1.28126 1.04323 1.20668C0.905224 0.999803 -0.0459326 0.303816 0.00172904 0.247258C0.443082 -0.41778 4.01675 0.45315 5.00087 0.599059C5.60117 0.700886 6.20007 0.799214 6.79557 0.891638C9.91305 1.36457 13.095 2.24173 16.0203 3.54462C19.2257 4.88416 21.9785 7.39338 23.9453 9.96216C26.7868 13.7807 26.3313 17.8581 26.7556 21.219C26.7686 21.357 26.7844 21.4947 26.8029 21.6329C26.8158 21.7236 26.9258 21.6692 26.9357 21.7069C26.9952 21.9398 26.8578 22.2045 26.8671 22.2964C26.8875 22.4907 27.0316 22.3543 27.0588 22.4926C27.3439 23.9189 27.7703 25.3211 28.4717 26.7683C28.5176 26.8625 28.3512 26.8218 28.4509 26.9791C28.5032 27.0603 28.8165 27.2419 28.9144 27.4346C29.2566 28.1093 29.4958 28.7134 29.883 29.4424C29.8924 29.4601 29.902 29.4782 29.9118 29.4968C30.103 29.8617 30.3854 30.3904 30.6244 30.7765C30.7346 30.9557 30.9304 31.0931 31.0445 31.2666C31.208 31.5144 31.0161 31.5657 31.031 31.6108C31.0979 31.8082 31.2876 31.7172 31.3891 31.879C31.5789 32.1802 31.4739 32.2746 31.7437 32.6426C31.9362 32.9061 32.4629 33.4482 32.7376 33.7588C33.1864 34.6311 34.0069 35.5555 34.6341 36.2213C35.0052 36.6156 34.89 36.7789 35.0341 36.9474C35.512 37.5013 36.051 37.7832 36.5245 38.2615C36.5543 38.2913 36.5837 38.3219 36.6129 38.3533C37.2293 39.0163 37.6899 39.6975 38.3494 40.2904C38.4564 40.3858 38.5483 40.2292 38.6573 40.3165C39.0606 40.6404 39.5998 41.0223 39.9571 41.3137C40.3551 41.6373 40.3665 41.9601 40.8215 42.1973C40.9555 42.2658 41.1148 42.099 41.3397 42.2063C41.6976 42.3776 41.9707 42.7705 42.2041 42.9278C42.5238 43.1407 42.3449 42.7785 42.7811 43.0512C42.799 43.0623 42.789 43.2448 42.8912 43.2897C43.1891 43.4198 43.2187 43.2905 43.6366 43.5115C43.6747 43.5341 44.1766 43.9471 44.2352 43.9726C44.2355 43.9727 44.2358 43.9729 44.236 43.973C44.5206 44.1135 45.1259 44.3949 45.3297 44.4201C46.0519 44.5142 45.5642 44.114 46.025 44.7985C46.3272 44.7392 46.6246 44.6688 46.9401 44.6007C46.7183 44.681 47.4876 45.0028 47.5517 44.9978C48.045 44.9845 47.788 44.7349 48.3946 44.8545C47.5142 45.2253 49.1831 45.0244 49.5614 45.0413C51.1104 45.1482 52.6043 45.3255 54.2481 45.536C54.4821 45.5664 54.7239 45.5947 54.9742 45.6201C55.5768 45.6819 56.4059 45.6531 57.0565 45.7062C57.2066 45.7181 57.0841 45.8238 57.2165 45.8366C57.3491 45.8485 57.2116 45.7086 57.3627 45.7269C58.3064 45.8427 59.0325 46.1323 59.9257 45.8781C59.9654 45.9244 59.9621 45.9591 60.0294 46.0112C60.7581 45.78 62.1172 46.2102 62.6362 46.2811C63.446 46.3925 63.6617 46.2157 64.2509 46.2739C65.0308 46.3515 66.1966 46.7456 65.6892 46.1361C66.2262 46.1336 66.744 46.1428 67.2853 46.212C67.3457 46.2198 67.3001 46.3697 67.3243 46.3734C67.4773 46.399 67.5306 46.2651 67.6344 46.2615C67.9154 46.2517 67.4535 46.4023 67.8547 46.3669C68.066 46.3477 68.1888 46.2329 68.7761 46.2435C72.3165 46.3126 76.15 46.383 79.8425 46.4948C80.092 46.5031 79.9259 46.3521 80.2533 46.3711C80.8882 46.4109 81.8204 46.5249 82.751 46.6721C83.4753 46.786 84.1366 46.9448 84.593 47.0336C85.6638 47.2592 85.4802 47.0021 86.1691 47.1237C86.3014 47.1498 86.159 47.2301 86.272 47.2706C87.0374 47.5408 87.8236 48.0962 88.3658 48.4027C88.7256 48.6062 88.7839 48.4225 89.044 48.546C89.4312 48.7323 89.7079 49.1195 89.8942 49.2394C90.6871 49.7486 91.3062 50.02 91.9519 50.5183C92.0234 50.5736 92.0956 50.6323 92.1686 50.6951C92.1624 50.6385 92.1647 50.592 92.1627 50.5393C93.1007 51.2267 93.9623 51.9457 94.7957 52.6835C94.7813 52.6198 94.7685 52.557 94.7544 52.4929C95.7242 53.3742 95.3213 53.5883 95.8309 52.8572C95.9228 52.8986 96.022 52.9404 96.1082 52.9806C95.775 53.2916 96.1331 54.0647 96.7614 54.8366C96.8076 54.8929 97.466 54.919 97.061 55.2543C97.2413 55.2525 97.357 55.2432 97.5127 55.2396C97.5497 55.4999 97.5884 55.7605 97.6222 56.0196C97.718 56.0832 97.8142 56.1488 97.9097 56.2129C97.9947 56.1533 98.0619 56.0699 98.1593 56.0257C98.5389 56.3899 99.1852 57.2604 99.4732 57.5584C100.192 58.2928 101.096 58.9106 101.384 59.726C101.66 60.0112 101.565 59.5777 101.919 60.0514C101.882 60.1674 101.845 60.2772 101.807 60.3964C102.463 60.4889 102.312 60.7401 102.639 61.3261C102.663 61.3679 102.686 61.407 102.71 61.444C102.911 61.7583 103.143 61.9264 103.348 62.2448C103.406 62.3349 103.289 62.4006 103.335 62.4574C103.489 62.6472 104.039 63.1142 104.14 63.2545C105.062 64.5167 105.752 65.6523 106.472 66.913C106.549 67.0484 106.556 66.8072 106.635 66.9475C106.764 67.1732 106.511 67.1491 106.581 67.2822C106.777 67.6525 106.961 67.5442 107.273 68.0343C107.819 68.8924 108.351 69.84 108.89 70.7825C109.36 71.6043 109.849 72.4329 110.348 73.2096C110.382 73.2612 110.485 73.1897 110.522 73.245C110.767 73.6071 110.869 74.0707 111.091 74.4031C111.457 74.955 111.88 75.2751 112.242 75.8274C112.949 76.9076 113.509 77.9317 114.215 79.0891C114.222 79.1 114.228 79.1109 114.235 79.1218C114.671 79.831 115.168 80.403 115.891 81.0742C117.186 82.2648 118.873 83.1949 120.67 83.9964C123.15 85.1148 126.041 85.4787 129.206 86.3089C129.341 86.3455 129.26 86.4406 129.303 86.4455C129.359 86.4516 129.408 86.4544 129.452 86.4555C129.72 86.4611 129.78 86.3999 129.834 86.6897C130.335 86.7474 130.544 86.5575 131.122 86.7197C131.429 86.8061 131.11 87.1004 131.676 87.0507C132.185 87.0054 131.724 86.6823 133.055 87.2319C133.09 87.2465 133.215 87.5072 133.514 87.5233C133.814 87.5397 133.523 87.3037 134.221 87.4284C135.431 87.643 136.816 88.0558 138.185 88.3207L138.355 88.3568C138.861 88.4926 139.367 88.6206 139.863 88.7281C139.984 88.7547 141.153 88.9212 141.388 88.921C141.845 88.9219 141.795 88.7411 142.361 88.8331C142.796 88.9028 143.108 89.1661 143.607 89.2345C143.665 89.242 143.801 89.0763 144.155 89.1725ZM61.6941 49.0265C61.5744 49.2094 61.3377 49.8933 60.676 49.649C60.6134 49.626 60.9807 49.1672 60.6137 49.0728C60.9787 49.041 61.3324 49.0417 61.6941 49.0258C61.6941 49.0261 61.6941 49.0263 61.6941 49.0265ZM146.473 93.7183C145.969 93.6832 145.448 93.6481 144.91 93.5906C145.286 93.5226 145.647 93.4438 145.999 93.3613C146.158 93.4807 146.316 93.5996 146.473 93.7183ZM97.3596 59.9507C97.3599 59.9511 97.3602 59.9514 97.3606 59.9518C96.9466 59.6286 96.5283 59.3105 96.1073 58.9984C96.1924 58.9923 96.2777 58.9861 96.3631 58.9804C96.7199 59.206 97.0743 59.435 97.4273 59.6681C97.4049 59.7625 97.3824 59.8567 97.3596 59.9507ZM100.535 62.6443C100.647 62.8929 100.571 62.9523 100.539 63.077C100.531 63.1099 100.525 63.1471 100.526 63.1933C100.527 63.1932 100.527 63.1931 100.527 63.1929C100.529 63.2515 100.639 63.4481 100.686 63.5209C100.734 63.4463 100.775 63.3646 100.82 63.2879C101.449 63.7996 101.73 65.4344 100.371 64.0225C100.472 63.9843 100.573 63.9457 100.674 63.9079C100.519 63.707 100.371 63.4914 100.254 63.291C99.9286 62.7348 99.8393 62.2864 100.535 62.6443ZM53.6876 48.7331C52.8282 48.9836 52.5638 49.0325 51.5693 48.7102C51.7213 48.6262 51.8729 48.5423 52.0247 48.4586C52.1835 48.5718 52.34 48.6844 52.4971 48.7982C52.4976 48.7982 52.4981 48.7982 52.4985 48.7983C52.5413 48.6981 52.5844 48.5978 52.626 48.4976C52.9819 48.5735 53.3369 48.6516 53.6876 48.7331ZM120.923 87.2965C120.912 88.0189 120.986 87.6336 120.271 87.5115C120.022 87.4664 120.199 87.6691 120.049 87.6279C119.232 87.3961 119.375 86.9413 119.639 86.8061C120.063 86.9855 120.497 87.1506 120.921 87.296C120.922 87.2962 120.922 87.2963 120.923 87.2965ZM140.72 91.9843C140.72 91.9844 140.721 91.9845 140.721 91.9846C140.701 92.151 140.384 92.1202 140.694 92.3574C140.43 92.293 140.166 92.2274 139.902 92.1617C139.982 92.1655 140.067 92.171 140.147 92.1748C140.093 92.1026 140.037 92.0294 139.982 91.9571C139.844 92.12 139.783 91.9907 139.522 91.8603C139.549 92.0774 139.577 92.2948 139.604 92.5119C139.297 92.3735 138.989 92.2343 138.684 92.0954C138.692 92.0444 138.701 91.9934 138.709 91.9425C138.572 91.9762 138.437 92.011 138.3 92.0446C138.282 91.9767 138.265 91.9097 138.247 91.8419C138.09 91.8508 137.933 91.8596 137.776 91.8688C137.768 91.7143 138.099 91.7308 137.537 91.6276L137.603 91.6415C137.599 91.6411 137.595 91.6407 137.591 91.6402C137.596 91.6377 137.6 91.6352 137.605 91.6326L137.539 91.6188C137.747 91.5167 137.954 91.4147 138.161 91.3125C139.014 91.5382 139.864 91.7639 140.72 91.9843ZM115.287 84.4725C116.129 85.037 115.843 84.9568 115.452 85.1018C115.394 84.8923 115.337 84.6817 115.287 84.4725ZM82.0868 49.3722C81.8077 49.5844 81.5168 49.7978 81.2212 50.0072C80.6622 50.1113 80.1056 49.6754 80.5318 49.5244C81.0676 49.3453 81.5746 49.5871 82.0868 49.3722ZM69.0545 49.1842C69.7556 49.3059 69.0867 49.5657 68.9263 49.7217C68.7381 49.4611 68.4659 49.4778 68.0305 49.4377C68.4407 49.4308 68.9397 49.1637 69.0545 49.1835C69.0545 49.1838 69.0545 49.184 69.0545 49.1842ZM91.6776 54.0922C91.8952 54.2608 92.1478 54.3882 92.2837 54.6065C92.0854 54.7262 91.8379 54.2572 91.8975 54.7335C91.7586 54.6238 91.6233 54.5185 91.4845 54.413C91.6559 54.3785 91.6048 54.2058 91.6777 54.0932C91.6777 54.0928 91.6776 54.0925 91.6776 54.0922ZM109.053 77.0999C108.968 76.4962 108.817 76.4705 108.36 76.1054C108.494 75.9232 109.156 76.281 109.45 76.5842C109.317 76.7556 109.185 76.9274 109.053 77.0999ZM15.368 6.79052C15.5979 6.59461 16.4539 6.99262 16.8039 7.30609C16.736 7.31213 16.6681 7.31911 16.6005 7.32667C16.1979 7.13074 15.7855 6.95205 15.368 6.79052ZM67.8241 49.4145C67.8967 49.4241 67.9655 49.4317 68.0305 49.4377C67.9581 49.4389 67.8883 49.4327 67.8241 49.4145ZM39.4411 43.4165C39.7731 43.3329 39.262 42.8854 39.885 43.4244C39.8852 43.4242 39.8853 43.424 39.8854 43.4238C40.3024 43.7753 40.3959 43.8538 40.8168 44.1309C40.4956 44.3211 39.5398 43.8767 40.734 44.6776C40.7502 44.6873 40.8162 44.5007 41.0001 44.638C41.0568 44.68 41.1726 44.9322 41.4539 45.1388C41.5441 45.2051 42.2613 45.6479 41.2521 45.1047C41.1713 45.3212 41.0049 45.4934 40.8995 45.6884C40.4657 45.5202 40.3881 44.9568 39.977 44.7162C39.3671 44.3579 38.8112 44.5204 39.0327 43.954C39.6037 44.175 40.4662 44.6985 40.4041 45.0724C40.9041 45.3702 41.1894 45.1912 40.8613 44.8382C39.0765 43.9727 40.6147 44.213 39.0628 43.4569C38.9989 43.5131 38.8898 43.5449 38.8539 43.6146C38.5937 43.0738 39.3222 43.4494 39.4411 43.4165ZM42.6802 46.0034C42.2961 46.0122 41.9093 46.0149 41.5201 46.0085C41.6527 45.7561 41.9388 45.6225 42.4902 45.717C42.5524 45.8127 42.6163 45.9086 42.6802 46.0034ZM24.8373 24.2851C24.6748 24.2796 24.502 24.188 24.3341 24.1295C24.386 23.9956 24.0619 21.4684 24.4103 22.7207C24.4499 22.8975 24.4401 24.0806 24.8373 24.2851ZM111.315 80.1706C111.253 79.875 111.189 79.5802 111.124 79.2849C111.414 79.618 111.704 79.9521 111.991 80.2888C111.765 80.2476 111.54 80.2096 111.315 80.1706ZM77.4582 48.9545C77.5778 48.9625 77.1766 49.1678 77.6481 49.1429C77.2995 49.2725 76.9482 49.3815 76.6087 49.5038C76.507 49.4015 76.4033 49.2996 76.2999 49.1973C76.2171 49.2606 76.1316 49.3234 76.0484 49.3866C76.0998 49.2409 76.1467 49.0985 76.2011 48.9503C76.7866 49.2742 76.9196 48.9201 77.4582 48.9545ZM93.4931 54.184C93.3614 54.4913 92.601 54.0801 93.1933 54.6644C92.9363 54.7174 92.6765 54.634 92.2977 54.338C92.2911 54.2278 92.2816 54.1161 92.2734 54.005C92.1274 54.1623 91.9836 54.145 91.6776 54.0922C91.6776 54.0918 91.6775 54.0915 91.6775 54.0911C91.104 53.647 91.1819 53.6247 91.258 53.2367C91.745 53.8692 91.9615 53.6365 92.4942 53.8292C92.8609 53.9637 93.184 54.3228 93.4931 54.184ZM25.7309 26.7774C25.2682 26.3572 25.2178 26.9237 25.1192 25.8724C25.2061 25.9099 25.2926 25.9473 25.3796 25.9834C25.493 26.2505 25.6102 26.5148 25.7309 26.7774ZM94.757 56.8374C95.0568 56.4407 94.9432 55.7997 94.3272 56.3218C94.5785 56.7868 94.7161 56.2897 94.757 56.8374ZM69.3102 48.4176C70.2919 48.4608 70.0938 49.013 69.6858 49.2831C69.6255 49.1807 69.5653 49.078 69.5063 48.9762C69.3331 49.0186 69.1589 49.0609 68.9872 49.1026C69.0949 48.8745 69.2016 48.6457 69.3102 48.4176ZM105.573 70.0556C104.882 69.5988 105.827 70.8483 105.367 70.5158C104.999 70.2499 105.016 69.5953 105.314 69.6575C105.394 69.7778 105.482 69.9131 105.572 70.0544C105.572 70.0548 105.573 70.0552 105.573 70.0556ZM103.21 66.4294C102.96 66.7357 102.958 66.5269 103.33 66.9873C103.438 67.1178 104.024 68.3278 103.992 67.6865C103.74 67.28 103.475 66.8495 103.21 66.4294ZM57.9529 48.5184C57.9545 48.3552 59.0139 48.0639 59.1385 48.1605C59.1385 48.1602 59.1385 48.16 59.1385 48.1597C59.4811 48.4265 58.3918 48.3943 58.842 48.7594C57.8082 48.3975 57.45 49.0861 57.5887 48.1506C58.2056 48.1529 57.9013 48.3261 57.9529 48.5184ZM3.44737 2.61785C3.4469 2.61774 3.44643 2.61763 3.44596 2.61753C3.51258 2.6409 4.02089 2.99908 3.9357 3.06539C3.27426 2.84661 3.4306 2.71929 2.7446 2.82852C2.72884 2.73888 2.71765 2.65288 2.69983 2.56209C2.96021 2.5716 3.11965 2.5052 3.44737 2.61785ZM24.6458 21.592C24.712 21.8401 24.599 22.327 24.6621 22.6158C24.2601 22.2299 24.177 21.7198 24.2374 21.4345C24.2928 21.1765 24.4552 21.0957 24.5838 21.4048C24.6051 21.4564 24.6259 21.5185 24.6458 21.592ZM131.481 89.8314C131.48 89.8315 131.479 89.8315 131.478 89.8316C131.479 89.8313 131.479 89.831 131.479 89.8307C131.48 89.8309 131.48 89.8312 131.481 89.8314ZM33.486 38.9817C33.498 38.9279 33.515 38.8888 33.5362 38.8617C33.5386 38.8596 33.541 38.8576 33.5434 38.8555C33.5236 38.896 33.5042 38.9376 33.486 38.9817ZM55.7979 48.3985C55.3892 48.1334 56.8526 47.8976 57.3045 48.0152C57.2643 48.1167 57.2521 48.2106 57.1674 48.3243C56.8196 48.0285 55.8621 48.4439 55.7979 48.3985ZM87.9956 51.0583C87.0151 50.5174 88.7408 50.4266 88.4335 51.0914C88.4242 51.1013 88.021 51.0701 87.9956 51.0583ZM64.7618 48.803C65.06 48.5393 64.4815 48.4485 65.4087 48.525C65.4605 48.5974 65.5124 48.6699 65.5644 48.7422C65.297 48.7627 65.0296 48.7832 64.7618 48.803ZM81.1484 47.9838C79.6991 48.0786 78.3427 48.3266 79.2423 49.0986C79.3507 49.077 79.466 49.0565 79.5743 49.0351C79.5987 48.6684 79.9982 48.8784 80.5701 48.9097C80.6592 48.7666 80.9916 48.7453 81.0527 48.6239C81.1777 48.3891 80.8185 48.206 81.1484 47.9838ZM124.27 87.4467C124.233 87.5022 124.196 87.5581 124.159 87.6128C123.922 87.6275 123.685 87.6396 123.447 87.6492C123.513 87.5424 123.58 87.4355 123.645 87.3284C123.853 87.3696 124.06 87.4084 124.269 87.446C124.269 87.4462 124.269 87.4464 124.27 87.4467ZM44.2587 45.8475C43.8904 46.4416 44.3797 46.5164 45.352 46.4225C44.9761 46.2461 44.609 46.0546 44.2587 45.8475ZM100.094 60.6547C99.963 60.8034 99.832 60.9515 99.7012 61.1009C100.17 61.346 100.286 61.1356 100.336 60.7882C100.256 60.7432 100.175 60.6994 100.094 60.6547ZM104.297 66.3709C104.222 66.177 104.144 66.3496 104.136 66.3299C103.929 65.8511 103.951 65.7493 103.505 65.2844C103.428 65.2423 103.349 65.2027 103.271 65.1617C103.088 65.6314 103.392 65.685 103.521 66.3336C103.58 66.1643 103.639 65.9949 103.698 65.8246C103.859 66.1294 104.018 66.4334 104.175 66.7394C104.234 66.7507 104.292 66.7623 104.35 66.7736C104.333 66.6405 104.319 66.5003 104.297 66.3709ZM126.778 88.1821C127.1 88.2656 127.424 88.3499 127.746 88.435C127.779 88.3385 127.811 88.2413 127.844 88.1449C127.489 88.1559 127.133 88.169 126.778 88.1821ZM38.2566 42.771C38.2139 42.7836 38.1715 42.7966 38.1309 42.8117C38.16 42.7776 38.2042 42.7675 38.2566 42.771ZM2.71663 1.88044C2.36615 1.72577 1.82939 1.64394 1.43323 1.52915C1.40224 1.7845 2.43938 1.96614 2.76398 2.19802C2.83209 2.16709 2.86419 1.9456 2.71663 1.88044ZM70.6669 48.4668C70.764 48.3419 70.8608 48.2176 70.956 48.0927C71.1826 48.1105 71.4119 48.129 71.6426 48.1467C71.6512 48.0431 71.6597 47.9387 71.6683 47.8351C70.6512 47.9519 70.8945 47.6569 70.3966 47.3526C70.4873 47.7238 70.5763 48.095 70.6669 48.4668ZM137.205 89.9548C136.484 89.8856 136.203 89.9557 136.542 90.345C136.808 90.327 137.076 90.307 137.341 90.2841C137.294 90.1743 137.249 90.0644 137.205 89.9548ZM29.7124 32.6873C29.2832 32.2398 29.6316 32.01 29.1257 31.6291C29.2236 31.9399 29.3258 32.2499 29.4338 32.5593C29.5259 32.6015 29.6198 32.6453 29.7124 32.6873ZM54.0149 46.2511C53.7647 46.0769 53.2051 46.7109 52.5216 46.1373C52.3336 46.2729 52.2117 46.408 52.0498 46.5433C51.9775 46.3743 51.8931 46.2021 51.8245 46.0348C51.824 46.0347 51.8235 46.0347 51.823 46.0346C51.1605 46.0322 51.5696 46.2716 51.5399 46.4417C51.5264 46.5121 51.0504 46.3514 51.189 46.5191C51.4274 46.8067 52.4268 46.7402 52.4002 47.0646C52.0632 46.9272 51.3814 46.9578 51.5622 47.1908C51.7595 47.4465 52.4304 47.1047 52.8177 47.3402C52.2839 46.7682 53.4749 47.0422 53.5684 47.4556C54.3061 47.2293 53.6716 47.029 52.9445 46.9738C53.4169 46.7127 52.7489 46.8135 52.6652 46.5513C53.0033 46.4703 53.9083 46.5985 54.1368 46.5026C54.1931 46.4764 54.2052 46.4341 54.1523 46.3678C54.1243 46.3351 54.0794 46.2964 54.0149 46.2511ZM87.2456 49.2108C86.7767 49.0127 86.0762 48.5565 85.6558 48.6931C85.4186 48.7705 86.1264 49.1364 85.538 49.1835C86.0027 49.3183 86.1383 49.2788 86.1333 49.0542C86.2475 49.0707 86.3626 49.0896 86.4766 49.1093C86.51 49.1663 86.5444 49.2233 86.5769 49.2804C86.6638 49.2243 86.7515 49.1697 86.8385 49.1143C86.9431 49.1772 87.048 49.2416 87.1503 49.3071C87.1808 49.2739 87.2182 49.25 87.2456 49.2108ZM24.5702 16.2897C24.5932 16.4253 24.6145 16.5579 24.6359 16.6939C24.6838 16.6722 24.7333 16.6473 24.7822 16.623C24.8211 16.6051 24.8599 16.5872 24.8987 16.5692C24.7669 16.6705 24.6062 17.3441 24.7879 17.5981C24.8797 17.7272 25.1253 17.3856 25.2315 17.9647C25.1765 17.5431 25.0959 17.153 25.0187 16.7428C25.1055 16.7691 25.1928 16.7942 25.2795 16.8213C25.2796 16.821 25.2797 16.8207 25.2798 16.8205C25.2807 16.6798 25.2813 16.5369 25.28 16.395C25.0432 16.3577 24.8071 16.3238 24.5702 16.2897ZM100.133 60.098C99.7064 59.8472 99.539 59.7848 99.485 60.1227C99.4852 60.1232 99.4854 60.1236 99.4857 60.1241C99.687 60.1799 99.8864 60.235 100.088 60.2941C100.104 60.2293 100.119 60.1642 100.133 60.098ZM35.952 39.527C34.5655 39.5079 36.5074 40.6628 36.4598 40.1163C36.4571 40.0948 35.9304 39.6684 35.952 39.527ZM69.1364 48.1077C69.4055 48.1054 69.6771 48.1036 69.9464 48.1009C69.8869 47.9774 69.8258 47.8542 69.7662 47.7307C69.5574 47.8563 69.3455 47.9823 69.1364 48.1077ZM134.235 88.8309C134.027 88.4994 133.354 88.2288 132.937 88.4293C133.109 88.5087 133.281 88.588 133.452 88.6668C133.104 88.6146 132.757 88.5654 132.406 88.5089C132.293 88.8729 132.744 88.7608 133.314 89.0124C133.402 89.0522 133.879 89.658 134.168 89.3615C134.226 89.3006 133.611 89.098 134.097 88.9985C133.911 88.9355 133.746 88.8984 133.568 88.8444C133.577 88.7532 133.587 88.6619 133.594 88.5704C133.808 88.6578 134.021 88.7447 134.235 88.8309ZM84.3938 48.2614C83.6997 48.0862 83.5806 48.236 83.3975 48.476C83.7211 48.4957 84.0447 48.5283 84.3675 48.5726C84.3759 48.469 84.386 48.3657 84.3938 48.2614ZM128.424 87.3067C128.069 87.1847 128.179 87.4326 128.024 87.4418C127.442 87.4776 127.101 87.2485 126.544 87.2323C126.588 87.1984 126.629 87.1666 126.672 87.1336C126.672 87.1335 126.671 87.1334 126.671 87.1333C124.191 86.4118 125.397 87.1872 126.938 87.4251C126.957 87.5122 126.975 87.599 126.994 87.6855C127.706 87.6873 128.371 87.6913 128.424 87.3067ZM42.6628 44.4773C42.6609 44.4188 43.0229 44.242 42.5501 44.1682C42.01 44.4183 42.6449 44.4872 42.6978 44.7156C42.5657 44.6997 42.4317 44.6806 42.3005 44.6633C42.9084 45.1269 43.06 45.0671 42.9676 44.6388C42.9604 44.6098 42.6653 44.5361 42.6628 44.4773ZM38.7114 41.6915C38.198 42.1781 39.1414 42.5027 39.2407 42.3024C39.1429 42.22 38.9917 42.2545 38.9144 42.1308C38.8364 42.006 38.9067 41.8561 38.7114 41.6915ZM64.6218 47.3566C64.5935 47.3525 64.3195 47.0504 64.3399 47.2803C64.6727 47.8345 65.3942 47.5082 65.2757 47.3155C65.0412 47.3175 64.8822 47.3937 64.6218 47.3558C64.6218 47.3561 64.6218 47.3563 64.6218 47.3566ZM138.587 89.6196C138.582 89.6057 138.315 89.4855 138.089 89.4203L137.996 89.4005C137.868 89.3733 137.756 89.3625 137.716 89.3959C137.622 89.5037 137.562 89.6265 137.484 89.7414C137.612 89.7268 137.776 89.74 137.934 89.7518L138.002 89.7663C138.344 89.8176 138.664 89.8671 138.586 89.6193C138.586 89.6194 138.587 89.6195 138.587 89.6196Z" fill="#130554"/>
</svg>
