<svg width="40" height="58" viewBox="0 0 40 58" fill="none" xmlns="http://www.w3.org/2000/svg">
<path id="Vector" d="M21.9721 6.51376L26.3321 7.28376C29.1095 7.50383 31.8712 7.8912 34.6021 8.44376C35.0669 8.54044 35.5022 8.74608 35.872 9.04376C36.2393 9.60014 36.5732 10.1778 36.872 10.7738C37.482 12.2338 36.7321 15.0238 36.4721 16.5138C36.1996 17.6144 36.0123 18.7344 35.912 19.8638C35.912 20.1238 36.912 20.4838 37.192 20.5838C38.062 20.8438 39.732 20.6838 39.312 21.7138C38.0522 21.7551 36.8067 21.436 35.7221 20.7938C35.3121 22.4338 34.9521 24.0638 34.7221 25.7438C34.1721 29.0438 33.812 32.2638 32.9921 35.5338C32.8521 36.1038 32.8421 37.3938 32.4321 37.7438C29.2287 38.1515 25.9927 38.2386 22.772 38.0038C23.562 43.1338 22.7721 48.2638 23.0421 53.3938C23.0421 53.8538 23.242 56.6738 23.482 56.7738C24.092 57.0138 24.382 56.8338 24.482 56.2938C24.812 53.8238 24.1121 49.5038 24.0821 46.7838C23.9312 44.2543 23.9713 41.7171 24.202 39.1938C24.2007 39.0943 24.2323 38.9971 24.292 38.9175C24.3517 38.8379 24.4361 38.7803 24.5321 38.7538C24.6393 38.7508 24.7454 38.7772 24.8388 38.8301C24.9321 38.8829 25.0093 38.9603 25.062 39.0538C25.292 39.4438 24.9221 42.0538 24.9021 42.7738C24.8121 47.1738 25.4421 51.8638 25.2821 56.1638C25.2875 56.5075 25.2193 56.8485 25.0821 57.1638C24.7319 57.3629 24.3384 57.4734 23.9357 57.4856C23.5331 57.4978 23.1336 57.4113 22.772 57.2338C22.272 56.8438 21.9221 53.8738 22.062 53.2338C21.732 53.3238 21.6821 53.7338 21.312 53.9038C21.1639 53.9674 21.0045 54.0008 20.8433 54.0019C20.682 54.0031 20.5222 53.972 20.3731 53.9105C20.2241 53.8491 20.0888 53.7584 19.9753 53.6439C19.8618 53.5294 19.7723 53.3933 19.7121 53.2438C19.7121 52.6638 19.0421 49.0238 19.2521 48.8438C20.4621 49.1738 20.1321 53.1838 20.8321 53.3038C21.2521 53.0038 21.3621 52.7438 21.9721 52.8538C21.6421 52.0638 22.2121 47.2638 21.9721 47.0338C21.5214 46.9029 21.0641 46.796 20.6021 46.7138C20.1921 47.9738 20.782 47.3538 21.312 47.8438C22.032 48.5038 20.5121 48.3738 20.0721 48.3238C18.3919 48.0912 16.6982 47.971 15.0021 47.9638C14.1621 47.9638 13.002 48.1738 12.272 48.1338C12.022 48.1338 12.0021 48.1338 12.0821 47.8838C12.3821 47.5338 18.7221 47.2438 19.6421 47.5538L19.7921 46.7138L12.522 46.3038C12.152 46.5738 10.6821 52.1138 10.3321 53.0438C9.73205 54.6138 9.23205 56.0438 6.94205 55.2838C6.35205 55.0838 6.70205 54.2138 6.80205 53.7438C7.62205 50.0738 8.98205 46.5138 10.022 42.9038C10.552 41.0438 10.872 39.1338 11.492 37.3138C11.102 37.2538 10.702 37.1438 10.312 37.1038C9.06205 36.9638 4.55205 36.9838 3.82205 36.4538C3.09205 35.9238 3.27205 34.7238 3.28205 34.0338C3.28205 32.0338 3.73205 29.9538 3.69205 27.9138L5.86205 14.6438C4.33205 15.0038 1.70205 16.1438 1.15205 17.5338C0.962053 17.8138 0.792053 19.7638 0.472053 19.7638C-0.357947 19.7638 0.122047 17.1238 0.302047 16.6438C1.20205 14.3538 3.48205 13.3438 6.09205 13.2338C6.57205 11.6738 6.73205 10.0238 7.09205 8.44376C7.21731 7.73826 7.46794 7.06089 7.83205 6.44376C10.1565 6.19232 12.4945 6.08878 14.8321 6.13376C16.0274 6.14546 17.2205 6.24237 18.4021 6.42376L15.4021 5.42376C14.4021 4.94376 12.2421 2.85376 12.5321 1.86376C12.9177 1.30925 13.4193 0.845205 14.0021 0.503761C16.9521 -1.14624 19.4021 2.50376 20.2621 4.62376C20.8621 4.38376 20.882 3.75376 21.202 3.40376C21.522 3.05376 22.0121 3.08376 22.2821 2.88376C23.2821 2.15376 25.2221 -0.316239 26.7621 0.0337609C27.6021 0.193761 28.9421 1.46376 28.9221 2.31376C28.8621 5.19376 24.4821 6.04376 21.9721 6.51376ZM21.9721 5.64376C23.4189 5.46409 24.8329 5.08028 26.1721 4.50376C29.792 2.70376 26.8021 -0.596239 24.1721 2.14376C24.6021 2.03376 26.5721 2.14376 26.312 2.85376C25.8862 3.31096 25.4173 3.72619 24.912 4.09376C24.092 4.67376 22.8121 5.02376 21.9621 5.64376H21.9721ZM19.732 5.39376C19.332 3.50376 16.962 -0.0462395 14.422 1.39376C13.252 2.03376 13.9621 3.06376 14.7221 3.81376C15.6674 4.65726 16.8599 5.17286 18.122 5.28376C17.5832 4.42295 16.8142 3.73014 15.9021 3.28376C15.5021 3.17376 14.802 3.37376 14.562 2.73376C14.192 1.79376 16.842 2.23376 17.202 2.98376L19.732 5.39376ZM24.342 3.31376C22.8812 3.45309 21.5087 4.076 20.442 5.08376L22.982 4.08376L24.342 3.31376ZM35.122 9.69376L33.802 9.32376L27.312 8.61376C28.2942 9.67976 29.184 10.8272 29.9721 12.0438C30.8021 13.3938 31.2821 14.9338 32.1021 16.2338C32.2621 16.4838 33.572 18.4338 33.592 17.4438L35.122 9.69376ZM33.122 18.9138C29.922 16.6338 29.382 12.9138 27.232 9.96376C26.232 8.60376 26.022 8.46376 24.232 8.19376C23.522 8.09376 22.5621 8.00376 21.8321 7.93376C20.2121 7.77376 18.5521 7.80376 16.9321 7.66376C15.6021 10.0138 13.4921 13.1938 10.5021 13.9038C9.85205 14.0638 6.71205 14.2938 6.50205 14.5738C6.17866 15.8081 5.94802 17.065 5.81205 18.3338C5.31205 21.6238 4.73205 25.1738 4.34205 28.4838C4.06205 30.8938 4.18205 33.4038 4.07205 35.8338C4.18205 36.0438 4.99205 36.0938 5.26205 36.1138C9.26205 36.4438 13.2621 36.3638 17.2621 36.8738C18.7821 36.6138 29.3821 37.4138 29.8621 37.0638C30.0591 36.7616 30.1887 36.4205 30.2421 36.0638C31.1821 32.3338 31.342 28.4338 31.912 24.6538C32.272 22.7338 32.8521 20.8538 33.132 18.9138H33.122ZM35.062 19.2238C35.322 17.2238 36.062 15.3038 36.272 13.2938C36.3462 12.6898 36.3863 12.0822 36.3921 11.4738C36.3921 11.3438 36.2721 10.7738 36.0721 10.7338L34.4621 18.8738L35.062 19.2238ZM7.93205 7.50376L6.93205 13.1038C11.2221 13.2638 13.9321 10.6538 16.0421 7.71376L7.93205 7.50376ZM34.872 20.1938C34.872 20.1238 34.282 19.8938 34.162 19.7538L31.2521 37.1938C31.8521 37.1938 31.9721 36.7138 32.0821 36.2538C33.0821 32.1438 33.352 27.3338 34.232 23.0538C34.332 22.5038 35.052 20.6138 34.872 20.1938ZM22.1421 46.1938L22.232 38.1938C22.092 37.7238 21.1621 38.0938 20.6821 37.9638L20.7521 45.8238L22.1421 46.1938ZM19.8621 37.8538L15.692 37.5638L12.602 46.0238C14.9395 45.7219 17.3013 45.6549 19.6521 45.8238L19.8621 37.8538ZM14.702 37.5138L11.982 37.1838L10.702 43.5938L7.42205 54.7938C8.42205 55.0338 8.61205 54.8538 8.99205 54.1138C10.122 51.9538 10.692 48.8838 11.522 46.5138C12.222 44.5138 13.1821 42.5138 13.8321 40.5138C14.0542 39.5182 14.3449 38.5392 14.702 37.5838V37.5138Z" fill="#22234B"/>
</svg>
