<svg width="44" height="28" viewBox="0 0 44 28" fill="none" xmlns="http://www.w3.org/2000/svg">
<path id="Vector" d="M43.5143 0.535309C39.4343 -1.11469 37.6943 4.82531 36.1543 7.25531C34.6143 9.68531 32.0143 11.6953 28.9943 11.3553C26.9873 11.0311 24.9413 11.0311 22.9343 11.3553C19.1063 12.1299 15.6866 14.2605 13.3043 17.3553C12.5187 18.5309 11.5918 19.6056 10.5443 20.5553C9.99668 21.0198 9.35547 21.3608 8.66427 21.5553C8.05311 21.5792 7.44101 21.5525 6.83427 21.4753C7.54427 20.5353 7.83427 19.1653 6.50427 18.6253C3.86427 17.5153 2.40427 21.4253 0.414273 22.1353C0.374045 22.1596 0.339284 22.192 0.312192 22.2304C0.2851 22.2688 0.26626 22.3124 0.256864 22.3584C0.247467 22.4044 0.247723 22.4519 0.257604 22.4979C0.267484 22.5438 0.28678 22.5872 0.314275 22.6253C1.84427 23.7953 3.31428 25.0953 4.92428 26.1753C5.83428 26.7853 6.87427 27.1753 7.75427 26.2653C8.87427 25.1653 8.13427 22.9253 6.43427 23.2653C6.43427 23.2653 6.43427 23.3353 6.43427 23.3453C6.96689 23.5073 7.44897 23.8035 7.83427 24.2053C8.0876 25.7586 7.54761 26.4486 6.21428 26.2753C5.49195 26.0144 4.83387 25.6018 4.28428 25.0653L0.874272 22.3953C1.84095 21.7686 2.69889 20.9883 3.41427 20.0853C3.71556 19.7483 4.08583 19.4802 4.49994 19.299C4.91406 19.1178 5.36232 19.0279 5.81427 19.0353C6.70427 19.1053 7.38427 19.6153 6.81427 20.8953C6.66677 21.1723 6.47794 21.4252 6.25427 21.6453C5.89427 21.8153 5.74428 22.0953 5.92428 22.6453C5.93046 22.6678 5.94181 22.6886 5.95743 22.706C5.97306 22.7233 5.99252 22.7368 6.01427 22.7453H6.24428C6.41428 22.7453 6.51427 22.3953 6.37427 22.3153C7.11777 22.4468 7.88044 22.423 8.61427 22.2453C9.34061 22.0478 10.0204 21.7079 10.6143 21.2453C12.1043 20.0753 13.0043 18.3553 14.2443 16.9553C17.031 13.8583 20.9338 11.995 25.0943 11.7753C27.0943 11.6653 29.0943 12.4353 30.9943 11.9753C32.4151 11.5443 33.6979 10.7477 34.7143 9.66531C37.7143 6.75531 38.2243 0.315314 43.4443 0.665314C43.5443 0.665314 43.5643 0.555309 43.5143 0.535309Z" fill="#E8CC33" stroke="#E8CC33" stroke-width="0.5" stroke-miterlimit="10"/>
</svg>
