<svg width="150" height="141" viewBox="0 0 150 141" fill="none" xmlns="http://www.w3.org/2000/svg">
<path id="Vector 1" d="M120.87 70.8932C121.645 71.1702 119.047 70.9715 120.771 71.3897C120.53 71.406 120.287 71.4228 120.042 71.4395L119.776 71.4254C119.656 71.4228 119.538 71.4204 119.421 71.4181C119.345 71.2604 119.27 71.1032 119.192 70.9453C119.402 70.9462 119.609 70.947 119.822 70.9487L120.046 70.9605C120.322 70.9378 120.596 70.9151 120.87 70.8925C120.87 70.8927 120.87 70.893 120.87 70.8932ZM121.547 69.0248C121.093 69.4476 119.694 69.5498 121.207 69.9564C121.33 69.811 121.456 69.6656 121.578 69.5202C122.101 69.6384 122.638 69.757 123.16 69.8752C123.352 69.8212 123.543 69.7672 123.733 69.714C123.971 69.971 124.208 70.2287 124.448 70.4865C124.233 70.4469 124.014 70.4067 123.802 70.3673C122.948 70.5652 122.199 70.6145 121.043 70.6431C121.143 70.7042 121.246 70.7648 121.346 70.8259C120.91 70.7462 120.485 70.6666 120.049 70.5872L119.859 70.5772C119.709 70.5358 119.562 70.4948 119.416 70.4541C119.564 70.4389 119.718 70.4235 119.875 70.4083L120.05 70.4175C120.428 70.3463 120.807 70.2739 121.139 70.2103C120.844 70.0496 120.459 69.9858 120.053 69.9722L119.919 69.9651C119.311 69.8898 118.657 69.9293 118.243 69.9409C117.299 69.9667 117.53 69.7978 116.826 69.8118C116.715 69.814 116.687 69.9608 116.467 69.9426C115.361 69.856 113.185 69.5407 114.498 69.3327C116.333 69.568 117.904 69.4208 119.669 69.6957C119.444 69.4616 119.595 69.3375 119.987 69.2661L120.059 69.2699C120.407 69.1744 120.93 69.1036 121.547 69.0248ZM88.9819 59.9768C89.5799 60.1645 90.5338 60.8675 91.1555 61.384C91.1563 61.3845 91.1571 61.3849 91.1579 61.3854C91.292 61.4987 91.5069 61.9231 91.017 61.6254C90.2126 61.1301 90.0469 60.5367 89.4765 60.4929C89.3175 60.3259 89.1458 60.1538 88.9819 59.9768ZM87.2853 58.693C86.8948 58.2133 87.3021 58.1793 87.8193 58.7195C87.8195 58.7193 87.8196 58.7191 87.8198 58.7189C88.0403 58.9396 87.4073 58.7571 88.439 59.2479C88.503 59.5372 88.5824 59.8118 88.6585 60.094C88.4335 59.9373 88.2266 59.7912 87.9922 59.6145C88.3398 59.4828 87.6827 59.1707 87.2853 58.693ZM113.539 69.401C113.418 69.6719 113.789 69.7156 114.392 69.9773C113.804 69.9056 113.209 69.8279 112.611 69.7382C112.928 69.6292 113.233 69.5162 113.539 69.401ZM127.308 70.1532C127.309 70.1532 127.31 70.1532 127.311 70.1532C127.502 70.111 127.689 70.0687 127.879 70.0272C127.992 70.13 128.103 70.2324 128.215 70.3352C128.882 70.2496 129.565 70.165 130.234 70.0804C130.151 70.3881 128.943 70.3185 128.28 70.5254C127.294 70.4183 126.818 70.2331 126.76 69.9702C126.938 70.0309 127.125 70.0924 127.308 70.1532ZM113.355 38.6509C113.369 38.8888 113.38 39.1379 113.394 39.372C113.522 39.1034 113.644 38.8184 113.776 38.5493C113.659 37.6788 113.996 37.7083 114.274 36.7095C114.334 36.4958 114.383 36.3045 114.424 36.1314C115 33.7187 114.427 34.1373 115.888 31.7566C115.248 33.9786 115.861 33.2265 115.776 34.6535C115.473 34.8652 115.345 33.396 114.984 34.2636C114.9 34.9191 114.813 35.5671 114.716 36.2174C114.574 37.1723 114.4 38.1394 114.169 39.1781C114.223 39.1402 114.278 39.1026 114.332 39.065C114.393 38.7875 114.453 38.5129 114.514 38.2312C114.525 38.5598 114.538 38.874 114.548 39.2048C114.434 38.7529 114.257 39.7586 114.031 39.5407C113.928 39.4508 113.901 38.9657 113.863 38.6852C113.598 39.3076 113.328 39.9519 113.058 40.5697C113.073 40.2058 113.086 39.8396 113.098 39.4765C113.182 39.2064 113.268 38.9295 113.352 38.6556C113.353 38.654 113.354 38.6525 113.355 38.6509ZM17.3651 138.538C17.7723 138.212 18.4249 137.885 19.0709 137.679C19.5444 137.528 20.0097 137.438 20.3791 137.451C19.9677 137.6 19.559 137.747 19.1465 137.894C18.554 138.106 17.9615 138.321 17.3651 138.538ZM126.699 69.7534C126.794 69.8042 126.884 69.8545 126.981 69.9053C126.56 69.9918 126.125 70.0776 125.704 70.1646C125.625 70.0202 125.543 69.8759 125.461 69.7321C125.871 69.7388 126.289 69.7463 126.699 69.7534ZM99.6977 65.1998C100.009 65.3041 100.035 65.3188 100.412 65.4689C100.412 65.4687 100.412 65.4684 100.411 65.4681C100.562 65.5338 101.805 66.0066 101.632 66.0664C101.003 65.8799 100.325 65.6615 99.6712 65.4222C99.6764 65.3468 99.6969 65.2776 99.6977 65.1998ZM106.77 67.5163C106.771 67.5169 106.772 67.5174 106.772 67.5179C106.961 67.6139 107.129 67.7242 107.319 67.8196C106.551 67.6633 106.547 67.3341 105.825 67.1692C105.098 67.0132 104.607 67.0477 104.1 66.4543C104.352 66.4608 104.627 66.4467 104.886 66.4482C105.867 66.933 106.174 66.8698 107.023 67.0295C106.938 67.1918 106.854 67.3535 106.77 67.5163ZM117.704 25.1036C117.53 24.8563 117.772 24.6492 117.778 24.6246C117.778 24.6251 117.778 24.6255 117.779 24.626C117.857 22.7873 117.865 24.6874 118.106 23.3294C118.118 23.2575 118.13 23.177 118.143 23.0871C118.149 23.1701 118.154 23.2531 118.16 23.3363C118.173 23.5297 118.187 23.7211 118.198 23.9143C118.04 24.3134 117.861 24.7203 117.704 25.1036ZM79.5816 15.0113C79.5182 15.0025 79.4533 14.997 79.3898 14.9884C79.8513 13.993 79.7576 13.6319 80.3641 12.9077C80.0849 13.6055 79.8251 14.3073 79.5823 15.0116C79.582 15.0115 79.5818 15.0114 79.5816 15.0113ZM94.9016 62.397C95.9861 62.8337 96.7763 63.1798 97.6777 63.8405C97.6981 63.8552 97.7186 63.8699 97.7392 63.8848C97.7399 63.8854 97.7406 63.8861 97.7414 63.8867C97.7671 63.9056 97.7079 63.9083 97.6412 63.9113C97.5637 63.9167 97.4762 63.9241 97.5099 63.9615C97.5386 63.9734 97.5676 63.9854 97.5967 63.9972C97.8016 64.082 98.0138 64.1583 98.2205 64.2329C98.2078 64.3406 98.1942 64.4479 98.183 64.5554C97.9533 64.4381 97.7251 64.3155 97.4987 64.1868C97.1242 63.972 96.7545 63.7603 96.3797 63.5458C96.4402 63.6448 96.504 63.7449 96.563 63.8431C96.0431 63.6098 95.5254 63.3775 95.0049 63.1418C95.2573 63.0828 95.5123 63.0248 95.7638 62.9641C95.4756 62.7751 95.1872 62.5869 94.9016 62.397ZM91.6894 1.8126C91.4917 1.82499 91.7631 1.58528 91.4758 1.64634C91.1904 1.70903 90.7617 2.01595 90.8034 1.79487C91.1391 1.63399 91.4956 1.44713 91.8496 1.26299C91.3065 1.34689 90.825 1.52085 90.443 1.646C89.758 1.87937 89.3175 2.13673 89.1867 1.92373C89.5928 1.74473 89.9834 1.58946 90.3698 1.45091C91.0398 1.21342 91.6863 0.858364 92.4397 0.447355C92.5171 0.7764 91.5358 1.52239 92.3534 1.50734C92.133 1.60839 91.9022 1.71697 91.6916 1.81089C91.6909 1.81146 91.6902 1.81203 91.6894 1.8126ZM144.034 66.072C144.746 66.1105 146.403 65.9838 147.323 66.1796C147.548 66.2282 148.303 66.8512 148.299 66.9332C148.277 67.2096 147.354 67.2464 148.342 67.4273C148.009 67.4289 147.687 67.439 147.357 67.4434C147.416 67.6292 147.474 67.8144 147.531 67.9995C147.933 67.9722 148.335 67.9444 148.738 67.9159C148.757 67.9774 148.777 68.039 148.797 68.1005C147.351 68.101 148.204 68.3388 147.453 68.559C148.144 68.6719 148.841 68.783 149.53 68.8948C149.132 68.8811 148.663 68.871 148.312 68.8547C148.266 69.1695 149.102 69.0947 149.246 69.153C150.053 69.4834 145.942 69.315 145.6 69.7662C146.258 69.8215 146.949 69.8732 147.621 69.9244C147.428 69.9806 147.232 70.0368 147.04 70.0928C145.512 69.7707 143.801 69.6592 142.017 69.3918C141.942 69.3948 141.862 69.3974 141.787 69.4L141.764 69.3982C141.687 69.3972 141.605 69.3961 141.518 69.3949C141.554 69.5408 141.585 69.6859 141.616 69.8316C141.379 69.8257 141.151 69.8247 140.905 69.8244C141.64 69.4106 140.676 69.3352 139.498 68.9966C140.14 68.8606 140.916 69.0102 140.881 68.7015C138.69 68.7984 136.15 68.4038 134.024 68.6193C133.497 68.6735 133.49 69.0679 132.255 69.007C132.298 68.9643 132.307 68.886 132.335 68.8294C130.193 68.9778 128.896 69.0716 126.675 68.8496C126.801 68.9934 126.923 69.1377 127.052 69.2815C127.527 69.2169 127.998 69.1514 128.468 69.0874C128.782 69.3268 128.312 69.4228 129.716 69.4421C130.867 69.4589 130.181 69.3442 130.498 69.2798C130.927 69.1921 131.294 69.3854 131.752 69.2878C132.102 69.2131 131.731 69.012 132.647 69.0792C132.276 69.3226 131.888 69.5743 131.514 69.8214C131.29 69.7608 131.067 69.6995 130.846 69.6385C131.072 69.5753 131.297 69.5131 131.526 69.4503C130.724 69.5561 129.967 69.6571 129.14 69.7694C129.415 69.4109 128.556 69.5338 128.093 69.5702C127.366 69.6271 127.99 69.3862 127.518 69.4213C127.043 69.4572 126.529 69.7293 125.674 69.6595C126.132 69.5035 125.513 69.3514 125.634 69.2039C125.755 69.0562 126.663 69.0342 125.794 68.8612C124.116 68.9653 125.929 69.5536 124.798 69.6327C123.437 69.7283 123.125 68.8008 123.533 68.6059C123.852 68.4526 124.947 68.4958 125.271 68.3438C123.307 68.0406 123.286 68.5968 122.95 68.702C121.727 69.0859 122.558 68.0378 121.106 68.4068C121.135 68.2097 121.159 68.0323 121.188 67.8432C120.938 67.8771 120.775 67.9236 120.472 67.9496C121.356 68.3416 120.632 68.3191 120.257 68.3167C120.148 68.316 120.089 68.3221 120.066 68.3328L120.078 68.3335C120.061 68.3398 120.062 68.3502 120.075 68.3634C120.14 68.4228 120.526 68.5232 120.42 68.5553C120.31 68.588 120.184 68.608 120.064 68.6226L120.05 68.6218C119.703 68.6324 119.424 68.6059 119.71 68.7596C119.538 68.6637 119.346 68.5658 119.167 68.4701C118.474 68.5025 116.792 69.1737 118.337 69.1508C118.164 69.442 117.683 69.2493 117.303 69.1672C116.917 69.0844 116.914 69.28 116.573 69.2118C115.234 68.9401 116.148 68.692 116.39 68.4523C114.583 68.4558 116.331 68.7607 113.731 68.6015C113.454 68.7846 114.632 69.1469 113.615 69.155C113.471 68.7605 112.767 68.4352 111.353 68.0631C111.201 68.122 111.041 68.1789 110.886 68.2344C110.16 67.7211 110.663 67.5165 109.117 67.4974C110.115 66.9757 109.404 67.3483 108.327 66.562C108.116 66.4015 108.723 66.4861 108.429 66.2709C108.372 66.2289 108.264 66.1965 108.135 66.1504C107.956 66.085 107.736 66.0047 107.539 65.8648C107.376 65.7407 106.587 65.117 105.918 65.0573C106.249 65.5617 104.999 65.4935 105.885 66.1105C104.1 65.4546 102.732 65.284 104.951 65.3857C104.516 65.1359 104.074 64.8921 103.635 64.649C103.283 64.6423 102.928 64.6343 102.574 64.6241C102.612 64.3088 102.68 64.253 101.396 63.9068C101.967 64.0137 102.538 64.1045 103.119 64.1943C103.155 64.1395 103.251 64.0992 103.249 64.0354C102.524 63.9632 100.621 63.4176 100.155 63.3081C99.6786 63.2151 100.534 63.5637 100.379 63.5892C99.0583 63.7961 99.3155 63.3661 98.5163 63.1207C98.0416 62.9677 99.0766 63.5393 98.8267 63.4516C98.5138 63.3483 98.2775 63.2148 98.0762 63.0698C97.6709 62.7779 97.3962 62.4593 96.8798 62.1893C97.0636 62.5085 97.2404 62.8273 97.4185 63.1456C96.6109 62.7169 95.7123 62.2523 94.9277 61.9129C94.6204 61.7798 94.7748 62.0283 94.7219 62.0117C94.459 61.9328 93.4469 61.4837 93.3431 61.4261C92.5683 61.0033 92.644 60.8119 91.906 60.373C92.2074 60.5285 92.4912 60.6717 92.785 60.8165C93.0787 60.5993 93.3709 60.3806 93.6605 60.1592C92.9483 59.7405 92.2431 59.3103 91.5587 58.8564C92.01 59.2678 92.4795 59.6703 92.9542 60.065C91.9928 59.832 91.0366 59.5772 90.0748 59.2558C89.745 58.8352 89.4315 58.4076 89.1382 57.971C88.0593 57.1617 87.8207 57.8072 87.7398 56.938C87.4135 56.6952 87.0948 56.4377 86.7868 56.1652C86.8883 56.1531 86.989 56.1395 87.0895 56.1254C86.9325 55.986 86.7786 55.8433 86.627 55.6962C86.4306 55.5065 86.2328 55.3182 86.0338 55.1308C86.0885 55.4441 86.136 55.7577 86.1807 56.0683C86.2286 56.3401 86.2853 56.6116 86.3551 56.8813C86.1059 56.6417 85.9673 56.4552 85.8881 56.3124C85.7525 56.0556 85.8219 55.9455 85.7945 55.8485C85.6844 55.4595 85.0329 55.0465 84.9558 54.7208C84.931 54.6108 85.6581 55.2023 85.5959 54.8367C85.5847 54.765 85.3062 53.3717 84.6805 52.8724C84.5921 52.9652 84.5113 53.112 84.4258 53.2256C83.6786 52.4519 83.8773 51.6075 84.1099 51.6064C83.6617 51.2487 83.179 50.5912 82.9479 50.6109C82.78 50.3773 82.6186 50.1434 82.4599 49.9033C83.0313 49.8852 82.3412 48.9432 81.9373 49.0776C82.1723 49.5119 82.4245 49.9381 82.691 50.3549C82.0718 50.3173 82.544 51.8191 81.349 48.8105C81.2989 48.1499 81.8388 49.7726 81.7773 49.2405C81.4576 48.4445 81.0169 47.7628 80.8891 46.9447C80.8789 46.8779 80.8725 46.82 80.869 46.7694C80.8081 46.0513 81.3399 46.8224 80.2092 44.9398C80.498 46.0059 80.6388 46.6097 80.6418 46.859C80.6492 47.0434 80.6013 47.0442 80.5117 46.9103C80.1776 46.3986 78.9476 43.7165 78.4917 42.1981C79.0405 41.3396 78.847 39.3795 78.5197 36.5924C78.3225 36.8901 78.479 37.7667 78.4588 38.2818C78.4376 38.7912 78.2614 38.2564 78.2298 38.9031C78.1937 39.5518 78.2696 40.9197 78.2781 41.6016C78.0074 41.0812 77.3697 38.3754 77.9488 40.1413C77.9611 38.7564 78.1128 38.1261 78.0759 36.4667C77.739 35.9816 77.5196 36.0208 77.5084 34.3937C77.9546 35.3418 78.2759 33.5225 78.7388 33.9293C78.6219 35.0569 78.1744 34.4221 77.9605 35.0884C77.9368 35.1539 78.0708 36.2184 78.0759 36.4667C78.4441 35.3823 78.6002 35.0163 79.0914 35.6598C79.0343 34.9209 79.1002 34.4465 78.8696 34.3831C78.9702 34.2293 79.0717 34.0732 79.1737 33.9191C79.1746 33.6656 79.1692 33.4639 79.1775 33.2024C78.8216 33.554 79.0509 32.8526 78.9125 32.3697C78.7759 31.8747 78.4685 32.5094 78.5318 31.1646C78.4264 31.6102 78.3377 32.0242 78.2449 32.4597C78.1879 31.5639 78.1459 30.6949 78.1187 29.803C77.86 30.4076 77.4752 31.7392 77.2001 31.6847C77.3203 31.2902 77.2218 29.8743 77.2281 29.7148C77.2425 29.1161 77.3948 29.4562 77.4024 29.4102C77.4642 29.0432 77.5032 28.6923 77.5479 28.3803C77.6123 27.9374 77.683 27.591 77.8578 27.3962C77.792 26.6969 77.8989 26.1816 77.9466 25.447C77.9728 25.0442 77.7716 25.1052 77.8263 24.8731C78.2025 23.3093 78.3039 24.8536 78.1185 21.741C77.9421 22.0985 77.7671 22.4547 77.5963 22.8153C77.5763 22.4623 77.5583 22.1094 77.5449 21.7525C77.5951 21.5182 77.6469 21.2869 77.701 21.054C77.9943 21.0958 78.288 21.1385 78.5813 21.18C78.6291 20.9274 78.6791 20.6751 78.733 20.4243C78.6966 20.8637 78.6711 21.3025 78.6522 21.7389C78.6996 21.7844 78.7473 21.8273 78.7949 21.8725C78.9447 21.2381 79.1072 20.6116 79.2958 19.9926C79.1964 19.9631 79.0962 19.9334 78.9968 19.9036C79.4204 18.4834 79.4864 18.4975 79.7019 17.0695C79.7095 17.0505 79.717 17.0315 79.7244 17.0126C80.102 16.0471 80.0642 15.103 80.1612 14.4695C80.3079 14.29 80.4564 14.1121 80.6064 13.9331C80.5912 13.7669 80.5781 13.5989 80.565 13.4317C80.7983 13.2279 81.0349 13.0239 81.2708 12.8265C81.1056 12.5628 81.0604 12.4429 80.4762 13.4015C80.3331 12.9053 81.3938 11.2117 81.9123 10.5857C82.2983 10.1057 82.1927 10.8304 82.2619 10.7816C82.487 10.6222 82.9247 9.72451 83.0572 9.56023C83.2265 9.34283 83.3759 9.1447 83.5173 8.95476C83.8274 8.53944 84.0912 8.16031 84.4408 7.73594C84.5393 7.61589 84.9359 7.36776 84.9622 7.34206C85.1525 7.12721 85.6481 6.61889 85.7011 6.55896C88.551 3.52306 84.8502 6.25354 87.8291 3.54204C87.6695 3.5399 87.5175 3.53481 87.3582 3.537C87.5939 3.32733 87.8423 3.12271 88.0981 2.92947C88.481 2.76548 88.1571 3.1645 88.7601 2.62017C88.7825 2.75429 88.8065 2.88787 88.8299 3.02149C89.0762 2.78087 89.3278 2.55598 89.6142 2.33381C89.8659 2.38184 90.2655 2.31633 90.679 2.27435C91.3386 2.22372 92.0646 2.06914 92.1172 2.40369C92.1536 2.58319 90.9944 3.25811 91.716 3.16041C92.258 2.97143 91.8192 2.93133 92.0282 2.83024C93.5175 2.097 93.5314 2.40918 94.1151 2.08977C94.1666 1.93526 94.2211 1.77768 94.2773 1.62162C94.5261 1.56638 94.7741 1.51618 95.0249 1.47068C95.0541 1.37247 95.085 1.2739 95.115 1.17606C94.887 1.24388 94.6312 1.32715 94.4239 1.3976C94.57 0.931968 97.3265 0.0837153 96.3287 0.61726C95.9244 0.822781 95.1504 1.00769 95.7389 1.23415C96.4312 0.976965 97.2439 0.749465 98.0172 0.60262C98.0515 0.681672 98.0838 0.761172 98.1175 0.840423C99.1487 0.684948 98.1743 0.445778 98.1513 0.272482C98.3955 0.24089 98.6429 0.215642 98.8907 0.195709C99.0023 0.269165 99.1012 0.348021 99.213 0.421054C99.2164 0.296326 99.346 -0.0189766 100.088 0.0958482C100.558 0.178329 99.8152 0.475487 100.702 0.463414C100.648 0.265521 100.326 -0.00743008 101.344 0.00016436C101.429 0.215145 101.548 0.416901 101.601 0.641186C102.228 0.603973 102.663 0.701723 103.134 0.810092C103.597 0.918225 104.087 1.0213 104.815 1.03823C105.734 1.05116 107.129 0.840333 107.47 1.78943C108.096 2.00599 107.957 1.758 108.161 1.77835C109.132 1.8907 109.597 2.5755 109.727 2.67231C110.596 3.33076 111.055 3.54481 111.545 4.28754C111.62 4.15086 111.702 4.03361 111.777 3.9037C111.022 3.48487 110.733 3.21178 109.753 2.59734C110.107 2.75627 110.453 2.93786 110.784 3.14501C110.804 3.01009 110.822 2.87451 110.838 2.73968C109.151 1.90685 108.483 1.74798 108.674 1.62713C108.847 1.55364 109.921 1.62727 111.319 2.54604C111.414 2.89536 111.493 3.25033 111.535 3.59154C112.051 3.91127 112.413 4.27031 112.697 4.64642C113.235 5.36596 113.643 6.07912 114.339 7.20267C114.465 7.39905 115.028 8.06788 115.208 8.39917C115.205 8.39336 115.203 8.38755 115.201 8.38174C115.496 8.48488 115.433 8.16445 115.577 8.03647C115.698 8.20665 115.817 8.38183 115.933 8.55829C116.008 9.04231 115.845 8.93662 116.232 9.75936C116.317 9.59062 116.403 9.42738 116.482 9.25108C116.893 10.1941 116.955 10.8742 117.263 11.7628C117.171 11.6254 117.077 11.4893 116.981 11.3521C117.356 13.3535 116.16 11.9714 116.873 13.3457C116.818 13.4517 116.762 13.5586 116.705 13.6614C116.586 13.0606 116.444 12.4819 116.27 11.9027C116.167 11.918 116.064 11.9326 115.961 11.9506C116.158 12.5558 116.32 13.1682 116.454 13.7976C116.31 13.3479 116.15 12.9004 115.977 12.4757C116.098 13.1962 116.174 13.9219 116.214 14.6529C116.493 13.8392 116.668 14.8269 117.018 14.5964C116.856 15.9751 116.513 16.9847 116.719 19.0411C116.754 19.4434 117.038 19.2412 116.645 20.3729C117.088 20.1172 117.168 21.5952 117.578 21.4429C117.595 21.0453 117.618 20.5985 117.619 20.2103C117.45 20.6497 117.068 20.6894 116.997 20.0143C116.912 19.1362 117.187 17.8906 116.761 17.9336C116.782 17.5889 116.79 17.2775 116.796 16.9397C116.905 17.0734 117.014 17.2074 117.121 17.3446C116.939 16.3829 116.947 15.8076 117.169 15.3126C117.333 16.4491 117.418 17.5969 117.448 18.7472C117.471 18.5775 117.492 18.4074 117.511 18.2416C117.761 19.1086 118.055 18.226 118.04 19.8678C117.917 19.8508 117.794 19.836 117.671 19.8192C117.978 20.4309 117.825 22.066 118.251 21.5804C118.087 22.0635 118.001 22.1656 118.175 22.4595C118.069 22.7672 117.959 23.0512 117.847 23.2962C117.503 24.034 117.157 24.3692 116.882 23.981C116.884 24.4628 116.878 24.9456 116.867 25.426C117.031 25.1741 117.193 24.919 117.354 24.6622C117.218 25.4891 117.062 26.3173 116.892 27.1327C116.535 27.143 117.085 25.535 116.686 25.9557C116.607 26.0397 116.658 26.5038 116.601 26.6124C115.985 27.7516 116.629 25.901 116.268 26.2038C115.824 27.986 115.648 26.4483 115.509 28.995C115.394 29.0368 115.277 29.0824 115.165 29.1193C114.957 29.9655 115.197 29.9509 115.055 30.6905C114.965 31.1547 114.425 31.6209 114.554 32.1934C114.577 32.2971 115.29 31.5793 114.776 33.3526C114.369 34.7256 114.196 34.0555 113.863 34.7629C113.739 35.0255 113.657 35.4408 113.567 35.8788C113.418 36.6113 113.231 37.4321 112.808 37.6318C112.995 37.2753 113.185 36.7886 113.371 36.3755C113.322 36.1695 113.271 35.9722 113.219 35.7764C113.219 35.775 113.218 35.7737 113.218 35.7723C113.218 35.7735 113.218 35.7747 113.217 35.7759C113.061 36.7942 112.592 37.7531 112.626 38.4848C111.843 39.6701 111.701 41.2337 112.249 40.979C112.33 40.5338 111.994 40.9399 112.307 40.379C112.425 40.3497 112.543 40.3171 112.66 40.288C112.315 41.3011 112.079 42.0074 111.939 41.4435C111.879 41.6009 111.821 41.7509 111.761 41.9049C111.966 42.0049 112.172 42.102 112.377 42.2022C112.338 42.3975 112.298 42.5957 112.258 42.7928C112.141 42.9833 112.023 43.1754 111.903 43.3706C111.661 42.9702 111.816 42.4878 111.079 44.015C111.194 44.06 111.308 44.1071 111.423 44.1522C110.811 45.4348 110.518 45.3706 109.933 47.0413C109.987 45.6202 110.947 45.1715 110.134 44.8906C110.301 44.5869 110.466 44.2865 110.632 43.9802C110.531 43.8903 110.429 43.8009 110.328 43.7136C109.798 45.4615 109.541 48.5952 108.602 49.5555C108.613 49.7171 108.615 49.8765 108.63 50.0424C107.904 51.0506 108.411 51.7957 107.579 52.7812C107.492 52.8823 106.943 52.3894 106.393 53.87C106.491 53.8662 106.64 53.9023 106.757 53.9138C106.582 54.2103 106.403 54.5097 106.226 54.8032C106.281 54.8908 106.334 54.9812 106.39 55.0691C106.634 54.5401 106.878 54.0083 107.119 53.4754C106.97 53.9389 106.819 54.4036 106.667 54.8661C107.026 54.3266 107.131 54.0587 107.195 54.495C107.005 55.0141 106.815 55.5305 106.623 56.0469C106.653 56.1202 106.685 56.1933 106.716 56.2666C106.969 56.0821 107.22 55.8916 107.477 55.7041C106.819 56.9911 106.338 58.145 105.607 59.0372C105.483 59.1897 105.545 58.489 105.223 59.7479C105.11 59.721 105.01 59.7158 104.904 59.6944C104.582 61.2553 104.284 61.6993 103.39 63.0746C104.031 62.2096 103.506 63.0088 103.499 63.2942C103.494 63.4935 103.785 62.844 103.827 62.9508C103.869 63.06 103.776 64.0479 104.152 63.3416C104.35 61.2675 105.32 61.1106 105.996 58.653C105.927 59.0475 105.859 59.4391 105.787 59.8351C105.914 59.6904 106.03 59.557 106.165 59.4001C105.487 60.6533 105.841 60.0437 105.706 60.6263C105.574 61.2014 105.229 62.208 104.959 62.8673C104.875 63.0729 104.834 62.7933 104.607 63.2507C104.456 63.5564 104.257 64.5082 103.916 64.5873C103.702 64.629 103.913 63.1263 103.05 64.8561C103.036 64.8827 103.022 64.91 103.008 64.938C102.863 65.0587 102.878 64.9562 102.94 64.8014C103.015 64.6133 103.164 64.3356 103.159 64.3193C103.108 64.1941 102.912 64.3969 102.715 64.6887C102.506 65.002 102.292 65.4263 102.23 65.7282C102.221 65.7762 102.571 65.4341 102.401 65.9132C101.996 67.0512 101.519 67.5855 100.946 68.1639C101.167 68.3705 101.019 69.4275 100.344 70.4936C100.389 70.5888 100.435 70.682 100.48 70.7777C100.531 70.5839 100.582 70.3914 100.632 70.1975C100.776 70.0328 100.914 69.8494 101.063 69.693C100.547 70.8493 100.819 71.192 100.667 71.7987C100.143 73.8734 99.7933 72.2628 99.8054 71.8477C99.9962 71.6433 100.19 71.4506 100.383 71.2492C100.279 71.2288 100.175 71.2083 100.072 71.1853C98.6315 73.9342 99.2723 71.2993 98.3714 72.6012C98.6216 73.1914 98.1201 74.237 97.1379 75.3769C97.0621 75.521 96.984 75.6652 96.9087 75.8091C96.9593 75.8678 97.0568 75.9207 97.0775 75.9826C96.2968 77.5786 95.4696 77.4782 95.325 77.5899C94.6814 78.0819 94.7851 78.8051 94.6807 78.9978C94.6442 79.0652 94.6085 79.1281 94.5735 79.1872C94.1881 79.8365 93.9046 80.0092 93.5661 80.7411C93.1662 81.5981 93.6243 81.1217 93.5947 81.4382C93.5699 81.6921 93.2004 82.3402 93.1326 82.6617C93.119 82.5093 93.1139 82.346 93.0989 82.1941C92.4815 82.9643 91.9542 83.5736 91.3183 84.4791C91.1815 85.8983 89.6298 86.1179 90.6304 86.2929C91.2883 85.4665 91.7001 85.0326 92.2077 84.6874C91.8502 85.2855 91.4827 85.8789 91.1063 86.4667C90.9071 86.5752 90.7437 86.6366 90.5211 86.7716C90.3949 87.3201 89.6008 88.2342 89.3595 88.6451C88.2213 90.5679 88.9221 90.2792 87.1445 91.4286C88.0477 90.2802 87.8162 90.0935 88.7463 88.9926C88.3872 89.1071 87.9651 89.7 88.0622 89.1736C87.2385 90.2888 87.6936 90.0831 87.5008 90.6306C87.3341 91.1018 86.718 91.8223 86.9226 91.9303C86.7653 91.921 86.6255 91.8976 86.4686 91.8875C85.869 92.5657 85.2557 93.2295 84.6306 93.883C84.8039 93.5149 84.9726 93.1468 85.1395 92.7773C84.906 92.9567 84.6727 93.1336 84.4372 93.3099C84.3049 93.5114 84.1524 93.7136 83.9806 93.9199C82.5443 95.6434 80.1127 97.459 81.1425 97.695C80.4221 98.4894 80.2383 98.4972 79.6956 98.7842C79.7063 98.884 79.7091 98.9734 79.7264 99.079C79.1879 99.5221 79.0311 100.101 78.551 100.49C78.0725 100.878 77.7727 100.795 78.0395 101.179C77.6702 101.371 77.3189 101.576 76.9559 101.773C76.8663 102.015 76.7728 102.258 76.6837 102.497C76.3847 102.724 76.0853 102.951 75.7864 103.176C75.8033 103.472 74.7073 104.439 74.3505 104.994C73.7478 105.254 73.2449 104.713 72.3065 105.798C72.4606 105.906 72.614 106.013 72.7683 106.121C72.5041 106.32 72.2388 106.519 71.9717 106.718C71.9161 106.688 71.8623 106.656 71.8067 106.626C71.9421 106.524 72.0739 106.425 72.2095 106.323C72.0331 106.35 71.8611 106.373 71.687 106.397C71.5677 106.603 71.4507 106.807 71.3295 107.014C71.1847 107.261 71.041 107.509 70.8972 107.757C71.1287 107.603 71.3602 107.449 71.5924 107.296C71.9365 107.068 72.2773 106.841 72.6189 106.61C72.3352 106.98 72.0518 107.239 71.7796 107.496C71.5485 107.715 71.3285 107.934 71.1277 108.219C70.485 108.475 70.5568 108.206 70.5577 107.825C70.3997 108.006 70.2393 108.189 70.0814 108.371C70.0068 108.062 69.5972 108.221 70.6335 107.275C70.5091 107.283 70.3859 107.296 70.2614 107.301C70.1022 107.468 69.948 107.522 69.7857 107.717C69.3435 108.25 69.2952 108.964 69.4458 109.055C69.5256 109.103 69.9003 108.514 69.9671 108.624C70.1298 108.893 68.9063 109.86 70.7458 108.545C70.3404 109.198 70.1189 109.205 69.4821 109.728C69.599 109.758 69.7143 109.789 69.8296 109.821C69.5198 110.049 69.2086 110.276 68.8963 110.502C68.9254 109.76 66.7365 111.511 68.272 109.466C67.7126 109.956 67.1525 110.438 66.5844 110.906C66.6622 110.765 66.7399 110.625 66.8165 110.483C67.0829 110.283 67.3466 110.081 67.6109 109.876C67.2554 110.069 66.8995 110.259 66.5434 110.445C65.9377 111.146 65.7838 111.519 65.6078 111.969C66.5409 111.404 66.1228 111.454 66.7223 110.867C66.7979 110.997 66.9168 111.072 66.964 111.237C66.4393 111.302 65.5023 112.385 65.2485 112.599C64.4898 113.256 64.923 112.536 64.3919 112.937C64.1176 113.142 63.8432 113.4 63.554 113.608C63.278 113.807 62.9936 113.966 62.6923 113.999C62.795 114.13 62.929 114.247 63.0478 114.349C62.2149 114.99 62.2752 114.707 62.1716 114.748C60.5058 115.374 59.9216 116.183 58.2776 117.292C58.5171 117.2 58.756 117.101 58.996 117.004C57.9292 118.11 58.7196 117.478 59.8733 116.865C58.833 117.501 58.4064 118.13 57.7267 118.667C57.0472 119.205 55.7128 119.857 55.1913 120.039C56.1362 119.223 57.3317 118.624 58.4568 117.84C58.2346 117.781 58.0293 117.742 57.7943 117.671C57.2838 118.419 56.7473 118.475 56.4907 118.581C55.7361 118.891 55.9183 119.137 55.3326 119.116C55.4091 119.201 55.4717 119.274 55.5443 119.353C54.9075 119.726 54.2342 120.083 53.618 120.448C52.8472 120.904 52.1479 121.332 51.7213 121.82C51.5075 121.626 51.3174 121.43 51.092 121.235C50.5682 121.737 49.9363 121.816 49.4268 122.116C48.9203 122.413 49.2185 122.514 48.626 122.889C48.5207 122.956 48.2135 122.949 47.9754 123.173C47.7247 123.404 46.986 124.581 46.5727 124.043C46.0387 124.287 45.505 124.507 44.979 124.738C45.4713 124.469 45.9831 124.193 46.4749 123.925C45.9727 123.981 45.4666 124.038 44.9598 124.096C44.9642 124.251 44.9693 124.409 44.9747 124.562C43.863 125.267 42.904 125.453 41.733 126.06C41.5389 126.161 42.1305 126.196 41.2152 126.544C40.3055 126.891 39.4191 126.725 38.0067 127.622C37.9396 127.666 37.6554 128.248 37.0078 128.249C36.859 128.25 37.3296 127.921 37.0151 127.979C36.6963 128.039 35.4195 128.578 35.2277 128.452C35.2719 128.508 35.3831 128.535 35.4525 128.581C35.2467 128.718 35.0565 128.847 34.8535 128.982C34.7795 128.881 34.7039 128.78 34.6301 128.679C34.0845 129.099 33.7295 129.474 33.2579 129.853C32.7719 130.248 32.1859 130.628 31.2088 130.992C31.7983 130.917 32.3887 130.838 32.9771 130.753C33.0634 130.572 33.1474 130.39 33.2298 130.209C33.2857 130.186 33.3416 130.162 33.3976 130.138C34.2113 129.792 35.0095 129.455 35.8134 129.119C35.8903 128.923 35.964 128.728 36.0391 128.533C36.2678 128.443 36.4939 128.354 36.7286 128.262C36.7173 128.383 36.7053 128.503 36.6915 128.625C37.1284 128.387 37.5477 128.157 37.9823 127.922C37.3495 128.9 35.4685 129.071 35.8009 129.479C35.5667 129.505 35.3405 129.525 35.1069 129.55C35.1297 129.815 34.6909 129.948 33.9711 130.256C34.1875 130.286 34.4184 130.308 34.6191 130.348C34.3478 130.411 34.0155 130.531 33.6611 130.676C33.0393 130.93 32.3657 131.241 31.8859 131.418C31.5567 131.539 31.7972 131.229 31.6941 131.253C31.167 131.379 30.3703 132.083 30.1643 132.146C28.9378 132.528 27.9523 132.301 26.8208 133.188C28.1808 132.734 27.4445 132.992 27.9993 132.997C28.1725 132.999 29.9362 132.408 27.7724 133.252C27.5207 133.367 23.4587 134.517 24.6315 133.72C24.0359 134.058 23.5806 134.355 23.035 134.673C21.3219 134.424 22.0836 134.972 22.6489 135.222C22.4153 135.31 22.1938 135.397 21.9521 135.485C22.3083 134.876 19.6884 135.799 18.873 136.323C18.5997 136.5 19.4824 136.342 18.8145 136.65C18.7825 136.658 18.75 136.666 18.7171 136.674C18.4029 136.753 18.0561 136.837 17.7319 136.919C18.3296 137.009 17.3819 137.464 17.4939 137.733C16.7769 137.715 16.1098 137.371 16.3554 136.967C15.8758 137.267 15.3923 137.567 14.9096 137.865C15.1749 137.845 15.4441 137.822 15.7093 137.801C13.9529 138.247 11.8312 139.347 11.2937 138.85C11.0641 138.919 10.8309 138.987 10.5998 139.051C10.5539 139.17 10.5098 139.288 10.4625 139.406C10.2854 139.436 10.1083 139.464 9.93108 139.491C9.017 139.627 8.1056 139.701 7.19448 139.754C8.14411 139.551 8.34339 139.375 9.35901 139.293C8.95269 139.257 8.54301 139.21 8.14955 139.155C6.70616 139.701 6.51296 139.95 4.21693 140.073C4.11186 140.084 2.36427 139.944 2.30505 139.916C2.02691 139.813 2.42714 139.616 2.30335 139.563C1.95306 139.426 -0.0602293 139.068 0.00138563 138.989C0.417932 138.294 7.14607 137.782 8.7703 137.305C8.97794 137.258 9.18571 137.209 9.38262 137.158C12.1493 136.44 14.9493 135.293 17.8642 134.251C22.8982 132.445 27.8003 130.598 32.5062 128.319C39.1793 124.998 46.4574 122.214 52.5868 118.78C55.0946 117.242 57.579 115.688 60.0004 114.052C60.161 113.943 60.0261 113.894 60.0921 113.844C60.5025 113.534 61.0207 113.4 61.1819 113.299C61.5256 113.083 61.2471 113.071 61.4911 112.904C61.8466 112.66 62.1991 112.418 62.5491 112.176C64.5462 110.798 66.3913 109.165 68.3083 107.32C68.454 107.18 68.3955 107.419 68.6375 107.157C68.7617 107.022 69.0393 106.477 69.342 106.188C69.5623 105.977 69.7783 105.777 69.9935 105.58C70.7845 104.859 71.5318 104.201 72.3802 103.366C72.9665 102.79 73.8524 101.928 74.499 101.266C74.7841 100.974 75.0156 100.604 75.2956 100.312C75.6937 99.8974 75.7474 100.114 75.8175 100.059C76.1254 99.8161 76.0122 99.6334 76.2731 99.3711C76.7566 98.8858 76.8836 98.9547 77.4802 98.3192C77.9066 97.8646 78.8197 96.7573 79.343 96.1675C80.4742 95.1809 81.7076 93.8796 82.7633 92.737C83.007 92.4727 83.2348 92.2192 83.4479 91.9784C84.1002 91.2378 84.3018 91.2988 84.5725 91.0005C85.5201 89.9421 86.0241 88.9615 86.8431 87.924C87.9275 86.5433 88.9766 85.3793 89.9426 83.9631C90.0987 83.7332 89.9148 83.6873 90.061 83.4581C90.6034 82.6098 91.2598 81.4979 91.746 80.7361C92.2866 79.8878 92.6985 79.6948 93.1453 78.8072C93.2128 78.6722 93.2035 78.5568 93.2089 78.4158C93.2147 78.2832 93.2332 78.1284 93.337 77.9157C93.6832 77.2081 94.2789 76.5513 94.5644 76.0819C94.9554 75.4365 94.4363 75.8988 94.9527 75.0249C94.974 74.989 95.1924 74.935 95.2898 74.7407C95.5747 74.1722 95.4304 74.1661 95.8831 73.3557C95.9276 73.2783 96.6485 72.2685 96.7062 72.1602C97.0481 71.5264 97.7721 70.2674 97.939 69.8728C98.5363 68.4643 97.7626 69.4166 98.8381 68.5109C98.9824 67.9415 99.1212 67.3757 99.2815 66.7771C99.2051 67.1925 100.103 65.8055 100.145 65.6963C100.495 64.8016 100.051 65.2156 100.626 64.1481C100.471 65.0442 100.708 64.5629 101.005 63.8338C101.241 63.2501 101.514 62.4612 101.639 62.178C102.986 59.1327 104.258 56.3311 105.492 53.1653C105.904 52.1038 106.351 50.6403 106.773 49.5114C106.871 49.248 106.905 49.4871 106.993 49.256C107.08 49.0251 106.864 49.237 106.968 48.9753C107.617 47.3477 108.311 46.137 108.557 44.5199C108.624 44.4604 108.656 44.4742 108.745 44.3678C108.925 43.0385 110.082 40.7657 110.424 39.8767C110.961 38.4883 110.898 38.0745 111.255 37.0577C111.44 36.5286 111.706 35.8901 111.894 35.3862C112.188 34.5949 112.329 34.065 111.824 34.519C112.081 33.5732 112.334 32.6718 112.644 31.7427C112.679 31.6396 112.805 31.7514 112.819 31.7102C112.912 31.4496 112.805 31.3273 112.847 31.1462C112.96 30.6536 112.906 31.4916 113.045 30.7844C113.117 30.4113 113.061 30.1733 113.306 29.156C113.795 27.1088 114.216 25.0014 114.494 22.8673C115.045 18.6008 115.124 14.157 113.648 10.666C113.493 10.3079 113.466 10.5992 113.269 10.1582C112.813 9.08915 111.878 7.58335 110.787 6.0606C110.461 5.56966 110.092 5.19563 109.776 4.95628C108.719 4.23014 108.828 4.6041 108.057 4.32308C107.901 4.27477 108.072 4.21534 107.935 4.15584C107.024 3.7546 105.744 3.26152 104.786 3.05246C104.154 2.91336 104.168 3.11281 103.714 3.04596C103.395 2.9994 103.073 2.90589 102.782 2.81085C102.484 2.7088 102.236 2.61567 102.056 2.58792C100.494 2.36165 99.4452 2.50748 98.0513 2.60369C98.111 2.63808 98.1517 2.67213 98.2027 2.70755C96.5597 2.90015 95.0505 3.4397 93.2919 4.22129C93.3916 4.21963 93.4867 4.22036 93.5843 4.22043C92.3638 4.7485 91.7537 4.81709 91.6698 4.91332C91.65 4.94615 91.6771 4.9952 91.7355 5.08817C91.7922 5.1569 91.8747 5.24994 91.971 5.38219C91.9372 5.40167 91.9028 5.42143 91.8681 5.44129C91.7954 5.49647 91.7242 5.55533 91.6583 5.60895C91.5406 5.1758 90.4723 5.19809 89.2856 6.1075C89.192 6.17056 88.9867 6.99052 88.6715 6.57098C88.6264 6.80004 88.6114 6.94502 88.5833 7.14194C88.2505 7.2712 87.9129 7.42496 87.5762 7.5898C87.4789 7.74726 87.3808 7.90841 87.2863 8.06994C87.3508 8.15416 87.4479 8.20236 87.4919 8.31036C87.1033 8.82888 86.3503 9.78656 85.8364 10.5085C85.6846 10.7194 85.5584 10.9044 85.4723 11.0435C84.557 12.5161 83.9802 14.1806 83.1327 15.2684C82.8801 15.8771 83.3356 15.3688 82.9064 16.2469C82.7682 16.3059 82.6367 16.3614 82.4937 16.4253C82.5708 17.1857 82.3699 17.3442 82.0103 17.9394C81.9456 18.0387 81.8766 18.157 81.8078 18.3048C81.5426 18.8859 81.5464 19.3437 81.3983 19.9836C81.3616 20.1469 81.2349 20.0995 81.2185 20.2155C81.1571 20.5981 81.19 21.7612 81.1677 22.0526C80.9715 24.3089 80.8544 26.4148 80.6264 28.6407C80.591 28.9937 80.5572 29.3417 80.5251 29.6862C80.5005 29.9576 80.6577 29.6097 80.6314 29.8978C80.5904 30.3598 80.4073 30.0742 80.3795 30.3393C80.3077 31.0619 80.5164 31.0996 80.4814 32.1161C80.3795 35.4667 80.2774 39.3585 81.2183 42.4275C81.2472 42.5206 81.3658 42.4811 81.4 42.5837C81.6188 43.2485 81.7341 43.9789 82.0216 44.6261C82.2338 45.1073 82.4749 45.5513 82.711 46.0433C82.9467 46.5074 83.2013 46.9441 83.4681 47.4611C84.4152 49.2861 85.5396 50.8257 87.0932 52.6362C87.5416 53.1606 87.9835 53.6695 88.4254 54.1963C89.0894 54.9843 89.8481 55.6878 90.855 56.4338C93.2158 58.1617 96.1969 59.5345 99.1395 61.0129C101.805 62.3752 105.237 62.6588 108.998 64.3146C110.893 65.2029 113.581 65.4341 116.281 65.7684C116.518 65.7967 116.411 65.8975 116.485 65.8997C117.183 65.9178 117.259 65.7747 117.479 66.109C118.377 66.131 118.677 65.9224 119.758 66.0429C120.147 66.0864 120.057 66.2493 120.276 66.3198L120.082 66.3096C120.186 66.3333 120.356 66.3309 120.667 66.2737C121.543 66.1118 120.582 65.903 123.192 66.1313C123.262 66.1376 123.604 66.3626 124.144 66.3106C124.695 66.2595 124.063 66.0936 125.38 66.0606C128.467 65.9849 132.384 66.2308 135.994 66.2709C136.219 66.2714 138.409 66.2226 138.848 66.1892C139.699 66.1198 139.514 65.9428 140.641 65.9647C141.135 65.9769 141.577 66.0576 142.102 66.153L141.946 66.1411C142.264 66.1888 142.615 66.2275 143.024 66.2222C143.133 66.2201 143.32 66.0347 144.034 66.072ZM112.591 42.1812C112.705 42.4327 113.246 43.0038 112.646 44.103C112.59 44.2058 112.342 43.4602 112.051 44.0733C112.22 43.4296 112.412 42.8129 112.591 42.181C112.591 42.1811 112.591 42.1812 112.591 42.1812ZM149.296 70.5167C148.379 70.4818 147.458 70.4473 146.538 70.4092C147.173 70.3277 147.807 70.2447 148.438 70.1606C148.725 70.2793 149.009 70.3981 149.296 70.5167ZM82.4626 9.86357C82.4621 9.86433 82.4616 9.8651 82.4612 9.86586C82.6638 9.46392 82.8736 9.06471 83.0903 8.66862C83.3449 8.20058 83.6058 7.72714 83.8789 7.25401C83.8727 7.37721 83.867 7.50088 83.862 7.62348C83.6609 8.01512 83.4673 8.40586 83.2772 8.79386C83.1243 9.10389 82.9758 9.41516 82.8319 9.72734C82.7089 9.77178 82.5856 9.81754 82.4626 9.86357ZM79.6186 17.0968C79.32 17.669 79.254 17.4814 79.0206 17.7842C79.0209 17.7843 79.0211 17.7843 79.0213 17.7844C78.9596 17.8648 78.8102 18.283 78.7658 18.4462C78.8613 18.4055 78.9604 18.3485 79.0568 18.3054C78.8698 19.7621 77.7533 22.5868 78.1285 18.7441C78.2175 18.8241 78.3069 18.9006 78.3967 18.979C78.5552 18.1575 78.8614 17.2965 79.1626 16.7849C79.5117 16.1991 79.7501 16.0722 79.6349 16.9763C79.6298 17.0146 79.6244 17.0548 79.6186 17.0968ZM107.866 55.9661C107.608 57.53 107.488 58.0256 106.544 59.6699C106.558 59.3889 106.571 59.1074 106.584 58.8234C106.796 58.5703 107.002 58.3298 107.212 58.0773C107.213 58.0765 107.213 58.0757 107.213 58.0749C107.141 57.9778 107.069 57.8804 106.996 57.7856C107.288 57.1833 107.579 56.5738 107.866 55.9661ZM102.178 65.2546C102.402 66.0282 102.399 65.6263 101.152 65.4019C100.719 65.3199 101.09 65.5637 100.823 65.4989C99.3713 65.1316 99.4261 64.6281 99.8186 64.5299C100.604 64.8065 101.403 65.0418 102.176 65.2538C102.176 65.2541 102.177 65.2543 102.178 65.2546ZM138.848 69.3265C138.849 69.3265 138.85 69.3265 138.851 69.3266C138.882 69.4943 138.312 69.5157 138.946 69.6996C138.462 69.6784 137.96 69.6586 137.472 69.6415C137.62 69.631 137.765 69.6212 137.91 69.6109C137.784 69.5492 137.661 69.4871 137.534 69.4256C137.347 69.6107 137.198 69.4942 136.678 69.4142C136.811 69.6227 136.953 69.8316 137.087 70.0403C136.487 69.9602 135.891 69.8822 135.291 69.8058C135.285 69.7541 135.278 69.7024 135.272 69.6507C135.046 69.7107 134.814 69.7714 134.59 69.8318C134.531 69.7689 134.473 69.7066 134.412 69.6437C134.132 69.6836 133.866 69.7241 133.588 69.7652C133.509 69.6146 134.11 69.563 133.043 69.5781C133.372 69.4322 133.707 69.2872 134.038 69.142C135.645 69.1915 137.252 69.2477 138.848 69.3265ZM91.8393 60.6604C93.4173 61.5263 92.9298 61.3635 92.3978 61.458C92.2116 61.1947 92.0231 60.9279 91.8393 60.6604ZM113.967 5.77989C114.462 6.06081 114.959 6.36409 115.451 6.71547C116.181 7.59773 116.296 8.80987 115.767 8.14068C115.125 7.36258 114.73 6.38769 113.967 5.77989ZM116.304 29.227C116.696 27.9896 116.694 29.2368 116.781 29.5603C116.449 29.8512 116.355 30.3427 116.127 31.1132C116.3 30.3783 116.239 29.431 116.303 29.2269C116.304 29.2269 116.304 29.227 116.304 29.227ZM94.5672 0.379922C94.0604 0.55958 93.5923 0.811989 93.1279 0.920294C93.1722 0.659485 94.1399 0.495757 93.3808 0.443225C93.6988 0.310387 94.0209 0.183292 94.3472 0.0636768C94.1857 0.263334 94.4958 0.262036 94.5657 0.379673C94.5662 0.379756 94.5667 0.379839 94.5672 0.379922ZM79.9092 47.8014C79.8673 47.5574 79.8315 47.364 79.7909 47.1944C79.6748 46.6729 79.4648 46.4575 79.0153 45.7805C79.138 45.5831 79.8601 46.3939 80.2278 47.0222C80.2603 47.0797 80.2909 47.1354 80.3192 47.1889C80.179 47.3883 80.042 47.592 79.9092 47.8014ZM29.7659 133.105C29.8836 132.762 31.5096 131.998 32.3502 131.685C32.2709 131.767 32.1915 131.849 32.1123 131.931C31.3364 132.332 30.5523 132.724 29.7659 133.105ZM116.014 31.478C116.056 31.3496 116.093 31.2289 116.127 31.1132C116.097 31.2438 116.06 31.3663 116.014 31.478ZM94.2458 80.466C94.2357 79.9734 93.5367 81.0137 94.381 79.7486C94.3807 79.7485 94.3805 79.7484 94.3803 79.7483C94.5069 79.5572 94.6109 79.3993 94.702 79.2598C95.0097 78.7877 95.1659 78.5391 95.5313 77.9175C95.6533 78.3711 94.8295 80.0801 96.1645 77.8351C96.1815 77.805 95.9776 77.7707 96.2038 77.4188C96.2738 77.31 96.6139 77.028 96.9573 76.501C97.0676 76.3317 97.8451 75.0191 96.847 76.8405C97.0768 76.897 97.2255 77.1062 97.4219 77.2091C97.0852 77.9515 96.3905 78.2788 95.9801 79.0318C95.8299 79.3077 95.7233 79.5584 95.634 79.7867C95.3608 80.4869 95.2788 80.9221 94.7977 80.8581C94.9464 80.4982 95.1573 80.0625 95.386 79.6465C95.7932 78.9061 96.2587 78.2382 96.5338 78.2148C97.0429 77.3102 96.9289 76.9103 96.3981 77.5691C95.4932 79.4077 95.3399 79.3494 95.1289 79.5012C94.9692 79.6133 94.7838 79.8403 94.1939 81.0475C94.2463 81.1213 94.2574 81.2776 94.3342 81.3C93.5978 81.9745 94.2518 80.6424 94.2458 80.466ZM98.4281 74.2387C98.2889 74.8658 98.149 75.4926 98.0068 76.1176C97.7572 75.9808 97.6977 75.5605 98.0202 74.6279C98.1558 74.4998 98.2932 74.3678 98.4281 74.2387ZM64.8878 113.661C64.9096 113.839 64.8007 114.098 64.7433 114.322C64.6961 114.323 64.5044 114.432 64.24 114.586C63.2226 115.181 61.1145 116.479 62.5573 115.379C62.7221 115.253 63.5005 114.845 64.118 114.412C64.4894 114.152 64.7969 113.877 64.8878 113.661ZM84.0708 53.7677C83.8084 53.2946 83.552 52.8184 83.3068 52.3367C83.8616 52.9393 84.4351 53.5148 85.0092 54.082C84.6964 53.9789 84.3846 53.876 84.0708 53.7677ZM117.11 13.8264C117.08 13.6037 117.41 14.3086 117.234 13.4383C117.48 14.0641 117.674 14.6855 117.858 15.3203C117.775 15.5255 117.69 15.735 117.602 15.9306C117.676 16.076 117.749 16.2275 117.821 16.379C117.67 16.2934 117.523 16.2195 117.369 16.1331C117.61 15.029 117.228 14.8067 117.11 13.8264ZM92.48 2.40772C92.1762 2.19259 93.5208 1.39872 92.1033 1.96263C92.2845 1.65715 92.6589 1.36212 93.4975 1.00011C93.6621 1.02002 93.829 1.03967 93.9923 1.06287C93.9352 0.856532 94.122 0.694205 94.5672 0.379922C94.5677 0.380005 94.5683 0.380088 94.5688 0.380171C95.9154 -0.0728808 95.872 0.0567711 96.2777 0.311759C94.7934 0.48438 94.845 0.84211 93.994 1.35848C93.412 1.72336 92.5898 2.02336 92.48 2.40772ZM68.5239 110.558C67.9524 111.444 68.8063 111.02 67.2547 112.018C67.2982 111.889 67.3418 111.76 67.384 111.631C67.7682 111.276 68.1477 110.918 68.5239 110.558ZM87.4673 3.93528C87.8922 4.20536 88.8597 3.92627 88.5537 3.17674C87.6454 3.63939 88.3207 3.69625 87.4673 3.93528ZM115.65 28.6269C116.056 26.8882 116.523 27.3206 116.642 28.1093C116.519 28.2005 116.396 28.2908 116.273 28.3781C116.25 28.6966 116.225 29.015 116.197 29.3328C116.016 29.0964 115.833 28.8602 115.65 28.6269ZM77.9322 33.5509C77.6066 32.1703 77.7142 35.0388 77.5089 34.0724C77.3391 33.2937 77.7317 32.2882 77.9406 32.678C77.9381 32.9417 77.9342 33.2474 77.9322 33.5483C77.9322 33.5492 77.9322 33.5501 77.9322 33.5509ZM78.3291 25.6221C77.937 25.8204 78.0712 25.5023 78.0577 26.5864C78.0556 26.795 77.9012 27.9869 77.9219 28.412C77.9306 28.5937 77.9711 28.64 78.0677 28.4243C78.0808 28.3955 78.095 28.3621 78.1102 28.3236C78.1835 27.4516 78.2581 26.5302 78.3291 25.6221ZM110.041 48.56C109.883 48.5184 110.187 46.6174 110.35 46.4213C110.35 46.4212 110.35 46.4211 110.349 46.421C110.801 45.8856 110.163 47.7755 110.771 47.0739C109.845 48.779 110.315 49.5618 109.476 49.1119C109.825 48.0387 109.824 48.6068 110.041 48.56ZM7.22917 139.897C7.2283 139.897 7.22742 139.897 7.22655 139.897C7.35223 139.891 8.4329 139.965 8.32084 140.065C7.04781 140.194 7.25601 140.001 6.1138 140.404C6.03955 140.329 5.97523 140.254 5.89658 140.179C6.35551 140.075 6.5992 139.945 7.22917 139.897ZM60.729 116.137C61.0906 115.847 61.8904 115.524 62.3201 115.218C61.3131 116.73 59.2775 117.295 60.729 116.137ZM121.551 69.0241C121.549 69.0243 121.548 69.0246 121.547 69.0248C121.547 69.0244 121.548 69.0241 121.548 69.0237C121.549 69.0238 121.55 69.024 121.551 69.0241ZM87.0877 91.9344C87.0149 91.9502 86.9637 91.9503 86.9303 91.9371C86.928 91.935 86.9256 91.9329 86.9232 91.9308C86.9757 91.9339 87.0299 91.9356 87.0877 91.9344ZM108.717 52.264C108.224 52.919 108.814 50.3377 109.185 49.5719C109.262 49.6636 109.348 49.705 109.412 49.8762C108.923 50.425 108.8 52.1547 108.717 52.264ZM103.68 0.292556C105.341 0.588687 103.791 0.922122 103.162 0.647788C103.014 0.583741 102.917 0.489118 102.917 0.352515C102.92 0.346778 103.058 0.331399 103.22 0.319595C103.418 0.303322 103.65 0.288099 103.68 0.292556ZM113.972 36.758C113.875 36.2272 113.565 36.9754 113.884 35.9721C113.919 35.8587 113.964 35.7202 114.017 35.5564C114.113 35.482 114.208 35.4067 114.304 35.3315C114.249 35.5709 114.194 35.8098 114.139 36.0473C114.086 36.2782 114.03 36.5152 113.972 36.758ZM113.905 8.04643C115.374 10.0449 116.193 12.445 116.415 10.5655C116.324 10.3788 116.231 10.1974 116.135 10.0191C115.777 10.1242 115.715 9.36335 115.21 8.40416C115.01 8.3367 114.684 7.84184 114.518 7.81492C114.206 7.7639 114.403 8.40816 113.905 8.04643ZM108.005 66.2981C107.94 66.337 107.876 66.3771 107.812 66.4163C107.408 66.3105 107.001 66.2231 106.593 66.1489C106.697 66.0587 106.801 65.9691 106.906 65.8803C107.276 66.0063 107.641 66.1431 108.002 66.2966C108.003 66.2971 108.004 66.2976 108.005 66.2981ZM98.9373 71.6309C99.437 72.1621 99.7148 71.3698 100.175 69.7185C99.7654 70.3568 99.3519 70.9961 98.9373 71.6309ZM81.7874 14.4069C81.5875 14.3699 81.3882 14.3332 81.1867 14.2999C80.9894 15.1955 81.2691 15.135 81.6814 14.8634C81.7164 14.7102 81.7507 14.5599 81.7874 14.4069ZM79.2014 26.6664C79.2703 26.298 79.098 26.476 79.1041 26.4373C79.2572 25.51 79.3373 25.3839 79.3065 24.2316C79.2758 24.0898 79.2434 23.9461 79.2119 23.8043C78.7597 24.3003 78.9538 24.7005 78.6299 25.8044C78.7855 25.6119 78.941 25.4234 79.0974 25.2303C79.0213 25.8511 78.9464 26.4704 78.8685 27.0917C78.9062 27.1683 78.9434 27.2454 78.981 27.3228C79.0539 27.1072 79.1343 26.8794 79.2014 26.6664ZM112.518 67.6997C113.118 67.8021 113.723 67.8911 114.325 67.9729C114.358 67.8746 114.39 67.7756 114.423 67.6774C113.79 67.6944 113.154 67.7051 112.518 67.6997ZM93.1326 82.6617C93.138 82.7215 93.144 82.7804 93.1533 82.8352C93.1174 82.8082 93.1153 82.7451 93.1326 82.6617ZM5.56977 139.543C4.88102 139.549 3.90116 139.685 3.14981 139.724C3.22762 139.978 5.1318 139.747 5.81818 139.816C5.92076 139.758 5.86095 139.541 5.56977 139.543ZM116.173 26.2088C116.08 26.0162 115.987 25.824 115.892 25.6355C115.978 25.23 116.061 24.8233 116.138 24.4133C116.037 24.3853 115.936 24.3575 115.835 24.3297C115.676 26.1544 115.44 25.6891 114.985 26.5162C115.382 26.4156 115.777 26.3159 116.173 26.2088ZM131.826 67.9663C130.49 68.0118 130.007 68.1359 130.761 68.4595C131.229 68.3962 131.709 68.3334 132.182 68.2712C132.062 68.1695 131.941 68.0678 131.826 67.9663ZM77.2699 100.993C76.5729 101.877 76.264 101.596 75.6646 102.539C76.1292 102.177 76.5935 101.813 77.0555 101.449C77.1254 101.299 77.1985 101.145 77.2699 100.993ZM105.574 54.9567C105.265 55.3397 105.582 56.4116 104.608 57.4374C104.63 57.7824 104.687 58.0235 104.72 58.3299C104.51 58.4125 104.29 58.5123 104.084 58.5858C104.084 58.5866 104.084 58.5874 104.083 58.5882C103.666 59.7114 104.156 59.0769 104.304 59.1695C104.365 59.2101 103.907 59.975 104.158 59.7822C104.593 59.4544 105.148 57.733 105.446 57.8558C105.108 58.3994 104.709 59.5658 105.051 59.3155C105.428 59.0373 105.506 57.8176 105.969 57.203C105.087 57.9901 106.064 56.0226 106.523 55.9405C106.714 54.6314 106.165 55.6849 105.683 56.9084C105.701 56.0526 105.411 57.2037 105.1 57.2899C105.277 56.4706 106.44 53.8822 105.574 54.9567ZM106.074 2.08284C106.929 2.24512 108.101 2.80382 108.707 2.80533C109.082 2.79791 107.892 2.1802 108.839 2.31485C108.048 2.0117 107.828 2.06227 107.899 2.29876C107.712 2.2609 107.522 2.22572 107.334 2.19476C107.262 2.13103 107.186 2.06759 107.112 2.00485C106.992 2.05955 106.873 2.11457 106.758 2.17218C106.568 2.10478 106.373 2.03962 106.179 1.97672C106.146 2.01297 106.098 2.04014 106.074 2.08284ZM52.3643 120.893C52.5771 120.77 52.7849 120.648 52.9946 120.521C52.9459 120.491 52.8917 120.462 52.8389 120.433C52.7992 120.409 52.7595 120.385 52.7198 120.361C52.8139 120.387 53.1227 120.314 53.4527 120.181C53.8143 120.033 54.2012 119.824 54.3775 119.62C54.5474 119.422 53.9202 119.485 54.7902 118.887C54.2643 119.228 53.7778 119.562 53.2778 119.898C53.1717 119.969 53.0639 120.04 52.9535 120.111C52.9673 120.007 52.9776 119.903 52.9898 119.799C52.9894 119.799 52.989 119.799 52.9886 119.799C52.7739 119.908 52.5562 120.014 52.3398 120.117C52.351 120.374 52.3576 120.634 52.3643 120.893ZM82.4504 13.9397C82.6789 13.1315 82.7439 12.8462 82.3264 13.0708C82.3259 13.0715 82.3254 13.0722 82.3249 13.073C82.2828 13.4021 82.245 13.7306 82.2116 14.0584C82.2907 14.0191 82.37 13.9805 82.4504 13.9397ZM88.3383 88.0957C88.0379 90.1121 89.9949 86.561 89.2512 86.9654C89.2215 86.9846 88.5291 88.0347 88.3383 88.0957ZM115.278 28.8785C115.38 28.4003 115.479 27.9202 115.571 27.4382C115.428 27.5239 115.285 27.6115 115.142 27.6954C115.191 28.0883 115.236 28.4825 115.278 28.8785ZM126.009 67.4267C125.502 67.1471 124.161 67.0332 123.515 67.324C123.857 67.3623 124.195 67.4006 124.538 67.4391C123.889 67.4662 123.251 67.4973 122.604 67.5235C122.566 67.9038 123.317 67.6898 124.443 67.8069C124.617 67.8256 125.728 68.3106 126.115 67.9594C126.19 67.887 125.012 67.8233 125.835 67.6202C125.479 67.5992 125.158 67.5992 124.823 67.5862C124.799 67.4953 124.776 67.4042 124.75 67.3133C125.165 67.3507 125.594 67.3888 126.009 67.4267ZM110.464 3.91798C111.292 4.62255 111.445 4.66376 111.815 4.66042C111.445 4.27231 111.036 3.92678 110.597 3.62991C110.555 3.72695 110.509 3.82148 110.464 3.91798ZM115.217 66.8138C114.561 66.7023 114.824 66.9489 114.552 66.9621C113.536 67.0082 112.876 66.7728 111.902 66.711C111.972 66.68 112.037 66.6508 112.105 66.6203C112.105 66.6202 112.104 66.62 112.103 66.6199C107.773 65.448 109.853 66.5809 112.633 66.9345C112.686 67.0243 112.738 67.1139 112.793 67.2029C114.056 67.2325 115.234 67.2028 115.217 66.8138ZM96.6241 74.7157C96.5536 74.7386 96.4893 74.1808 96.2094 75.0106C96.2956 75.8376 96.6281 74.7411 96.9216 74.5801C96.8499 74.8073 96.7741 75.0387 96.7029 75.2637C97.4898 74.0989 97.4854 73.8643 96.9402 74.1485C96.9025 74.1697 96.695 74.692 96.6241 74.7157ZM91.8749 82.5412C92.3664 83.075 93.0205 81.4131 92.7982 81.3555C92.6662 81.5581 92.6696 81.7798 92.4914 81.9713C92.3113 82.1649 92.1393 82.1356 91.8749 82.5412ZM112.495 36.6639C112.478 36.7095 112.043 37.1283 112.278 37.1421C112.787 36.8134 112.951 36.0293 112.906 35.6843C112.89 35.5439 112.843 35.4693 112.773 35.5158C112.762 35.5571 112.752 35.5971 112.743 35.6361C112.664 35.9742 112.64 36.274 112.494 36.6637C112.494 36.6638 112.494 36.6639 112.495 36.6639ZM134.083 67.3969C134.062 67.3766 132.756 67.2309 132.588 67.3371C132.448 67.4573 132.376 67.5876 132.27 67.7129C132.987 67.6082 134.44 67.731 134.08 67.3968C134.081 67.3969 134.082 67.3969 134.083 67.3969Z" fill="#E8CC33"/>
</svg>
