<svg width="55" height="32" viewBox="0 0 55 32" fill="none" xmlns="http://www.w3.org/2000/svg">
<path id="Vector" d="M24.257 26.6858C20.747 29.7958 14.737 27.3058 11.017 25.5158C6.237 23.2058 -1.09301 16.8458 0.136994 10.9258C0.656994 8.45581 5.04699 1.9258 7.39699 0.745802C13.647 -2.3142 23.967 4.74581 28.347 9.18581C33.347 5.70581 40.837 6.3258 46.407 7.9158C50.407 9.0658 54.697 10.8258 54.167 15.8358C53.967 17.7458 53.957 18.9458 53.817 20.8358C53.657 22.9958 53.597 24.6158 52.037 26.1658C49.637 28.5458 40.697 31.0758 37.267 31.3358C32.997 31.6458 25.837 31.4958 24.257 26.6858ZM20.707 21.3358C24.547 21.8758 28.867 20.8858 29.527 16.4458C30.147 12.2258 22.877 6.4458 19.527 4.5558C16.827 3.0058 9.64699 -0.694195 7.89699 3.1858C12.557 1.8858 17.577 4.44581 21.397 6.95581C25.217 9.46581 32.787 17.7358 25.397 20.5358L20.707 21.3358ZM6.81699 8.17581C14.817 7.17581 20.817 13.1758 25.507 18.8458C26.0613 18.4605 26.4695 17.8994 26.6654 17.2534C26.8614 16.6074 26.8338 15.9142 26.587 15.2858C25.287 10.5158 14.767 4.5558 10.017 5.1158C8.94621 5.37971 7.89393 5.71376 6.86699 6.1158C6.64699 6.3358 6.91699 7.67581 6.81699 8.17581ZM24.257 23.8358C15.057 24.8358 4.70699 17.6658 3.61699 8.17581C-1.68301 14.9358 7.76699 21.4658 13.487 23.7558C15.117 24.3958 21.157 26.4158 22.487 25.7558L24.257 23.8358ZM23.547 19.2058C19.5014 14.05 13.6517 10.6195 7.17699 9.6058C8.17699 12.2758 10.717 13.8658 13.047 15.2958C16.197 17.2358 19.777 19.1758 23.547 19.2058ZM50.137 14.3258C49.137 13.0758 45.857 11.5258 44.267 11.1258C42.107 10.5758 30.357 8.79581 29.267 10.3158C30.127 11.8958 31.327 13.3958 31.397 15.3158C35.8899 14.5981 40.4723 14.6522 44.947 15.4758C45.947 15.6758 49.787 17.2958 50.277 16.9358C50.5358 16.543 50.6618 16.0775 50.6366 15.6078C50.6114 15.138 50.4363 14.6887 50.137 14.3258ZM19.277 20.3258C15.2099 19.0183 11.4883 16.814 8.38699 13.8758L6.08699 10.6658C6.08699 12.8058 8.42699 15.2258 10.027 16.5058C12.4572 18.3151 15.1849 19.6857 18.087 20.5558C18.467 20.6258 19.387 20.9358 19.277 20.2758V20.3258ZM30.667 20.3258H41.167L47.747 18.8958L47.407 18.3658L31.957 16.7458L30.667 20.3258ZM52.017 19.9358C49.0147 21.7654 45.6691 22.96 42.187 23.4458C39.7296 23.8907 37.243 24.1547 34.747 24.2358C33.117 24.2358 28.227 22.9958 27.357 23.2358C25.817 23.5958 24.427 26.1258 26.657 27.3758C31.117 29.8758 41.937 28.2158 46.757 26.6458C50.627 25.3158 52.497 24.6158 52.017 19.9358ZM39.017 22.4358C36.017 22.6058 32.777 22.4358 29.757 22.4358C29.437 22.4358 28.587 21.4958 28.157 22.7858C32.4177 23.3717 36.7459 23.25 40.967 22.4258C40.827 21.4258 39.317 22.3958 39.037 22.4158L39.017 22.4358Z" fill="#22234B"/>
</svg>
