<svg width="16" height="4" viewBox="0 0 16 4" fill="none" xmlns="http://www.w3.org/2000/svg">
<path id="Vector" d="M7.34372 0.493619C7.54372 1.09362 7.21372 1.49362 7.08372 2.03362C8.08372 2.20362 8.41372 1.03362 9.46372 1.44362C8.99372 3.05362 10.5337 1.44362 11.1837 1.44362C11.8337 1.44362 11.3837 1.99362 11.5637 2.52362C11.7037 2.65362 13.1937 1.26362 13.6437 1.75362C13.6437 1.75362 13.5437 2.21362 13.8137 2.33362C14.0837 2.45362 14.8137 2.13362 15.2637 2.33362C15.8437 2.49362 14.3437 3.43362 13.2637 2.78362C13.1237 2.69362 12.9937 2.37362 12.9237 2.36362C12.8537 2.35362 10.9237 4.36362 10.9237 2.15362C10.0737 2.55362 9.01372 3.53362 8.74372 2.05362C8.19372 2.30362 7.66372 2.98362 6.99372 2.76362C6.76372 2.68362 6.61372 2.40362 6.42372 2.39362C6.23372 2.38362 5.68372 2.75362 5.42372 2.79362C4.28372 2.97362 3.76372 2.28362 3.92372 1.34362C3.29372 1.47362 2.92372 2.75362 2.29372 2.28362C1.66372 1.81362 2.34372 1.11362 2.18372 0.60362C1.69372 0.80362 0.733717 2.76362 0.183717 2.60362C-0.366283 2.44362 0.443718 0.263619 0.973718 0.00361914L0.573724 1.80362L2.02372 0.133618C3.25372 -0.496382 2.57372 1.27362 2.52372 1.86362C5.28372 -0.68638 4.04372 1.76362 4.60372 2.21362C4.87372 2.42362 5.91372 2.03362 6.12372 1.86362C6.59372 1.44362 6.37372 0.203619 7.34372 0.493619Z" fill="#22234B"/>
</svg>
