<svg width="14" height="11" viewBox="0 0 14 11" fill="none" xmlns="http://www.w3.org/2000/svg">
<path id="Vector" d="M13.2236 6.65473C13.5436 6.96473 11.1436 8.92472 10.7736 9.00472L8.37364 9.14472C8.24364 9.62472 8.56363 9.85472 8.64363 10.2547C8.48363 10.2547 8.01364 10.4547 7.95364 10.3947C7.89364 10.3347 7.72363 9.06473 7.66363 9.01473C7.60363 8.96473 7.26364 9.01473 7.09364 9.01473C6.12049 8.70505 5.26548 8.10481 4.64363 7.29472C4.42363 7.00472 3.84363 5.78473 3.77363 5.73473C3.70363 5.68473 2.57364 5.87473 2.21364 5.84473C1.88107 5.86108 1.54935 5.79849 1.2456 5.66209C0.941858 5.52568 0.674719 5.31932 0.466002 5.05989C0.257285 4.80046 0.112915 4.49532 0.0447221 4.1694C-0.023471 3.84349 -0.013557 3.50607 0.0736375 3.18472C0.493638 1.18472 3.00364 3.03472 2.68364 3.36472C2.53364 3.50472 1.80364 2.83472 1.54364 2.75472C0.773639 2.53472 0.673641 3.23473 0.733641 3.84473C0.863641 5.23473 2.39364 5.41473 3.51364 5.30473C3.03619 3.70157 2.75744 2.04584 2.68364 0.374727C2.68364 -0.375273 3.07364 0.164724 3.17364 0.574724C3.88364 3.33472 3.78363 6.22473 6.52363 8.05473C7.2972 8.43796 8.14436 8.64975 9.00726 8.67564C9.87016 8.70153 10.7285 8.5409 11.5236 8.20472C11.7536 8.01472 13.0236 6.45473 13.2236 6.65473Z" fill="#22234B"/>
</svg>
