<svg width="10" height="12" viewBox="0 0 10 12" fill="none" xmlns="http://www.w3.org/2000/svg">
<path id="Vector" d="M3.23569 6.41863C3.34569 6.41863 3.63568 6.63863 3.42568 6.71863C2.98743 6.85398 2.55963 7.02109 2.14568 7.21863C1.00568 7.90863 1.06568 8.13863 1.88568 9.21863C2.70568 10.2986 2.66568 10.3986 3.77568 10.1186C4.23189 9.98892 4.66415 9.78632 5.05569 9.51864C5.80285 8.9728 6.49602 8.35664 7.12568 7.67862C7.73568 7.10862 8.80569 6.58863 8.41569 5.80863C8.02569 5.02863 7.09568 4.50863 6.58568 3.99863C5.93843 3.29254 5.25059 2.62474 4.52568 1.99863C3.52568 1.25863 1.52569 0.628628 1.34569 2.33863C1.15569 3.81863 2.55568 4.75863 3.44568 5.66863C1.92568 4.84863 -0.864315 1.66862 1.87568 0.398625C2.87568 -0.071375 3.74568 0.668634 4.43568 1.29863C6.18568 2.86863 7.80568 4.61863 9.43568 6.29863C9.51568 6.37863 9.63568 6.54863 9.50568 6.63863C7.14568 8.14863 4.70568 12.2086 1.37568 10.4286C-1.10432 9.05862 0.965685 6.18863 3.23569 6.41863Z" fill="#E8CC33" stroke="#E8CC33" stroke-width="0.5" stroke-miterlimit="10"/>
</svg>
