<svg width="14" height="21" viewBox="0 0 14 21" fill="none" xmlns="http://www.w3.org/2000/svg">
<path id="Vector" d="M13.5769 0.00325716C13.2784 3.71825 12.3343 7.3527 10.7869 10.7433C9.51127 13.1855 7.7762 15.3586 5.67691 17.1433C6.30691 17.6433 6.11691 16.7833 6.67691 16.7933C6.51465 17.6393 6.23177 18.4576 5.83692 19.2233L7.08692 18.3233L6.74691 19.8433C7.42691 19.4433 7.46692 18.6833 7.80692 18.1333C8.14692 17.5833 10.8069 14.2433 11.2569 14.7133C10.933 16.0746 10.2085 17.3077 9.17691 18.2533C8.81691 18.6233 8.38691 18.7933 8.10691 19.0633C7.82691 19.3333 6.29691 21.8333 6.10691 19.9833C4.04691 21.1033 5.36691 18.2333 5.96691 17.4933C4.31691 17.8833 5.04691 16.8333 5.84691 16.1833C6.21691 15.8733 6.84691 15.6133 7.17691 15.3633C7.50691 15.1133 9.79691 11.9733 9.88691 11.7633L12.7069 1.93326C12.4869 1.88326 12.3869 1.93326 12.2169 2.07326C10.9249 2.82746 9.69743 3.68705 8.54691 4.64326C8.17691 4.95326 7.14691 6.21325 6.81691 6.24326C6.48691 6.27326 6.73691 6.00325 6.51691 5.81325C4.51691 4.97325 2.70691 3.48326 0.516911 3.18326C0.909397 4.47959 1.09831 5.82898 1.07691 7.18326C0.866908 7.18326 0.806918 6.92326 0.726918 6.76326C0.406918 6.11326 -0.473092 2.76326 0.326908 2.48326C1.94691 1.93326 5.61691 4.48326 6.82691 5.48326C7.98646 3.94183 9.48064 2.68358 11.1969 1.80326C11.5369 1.62326 12.7669 1.20326 12.8369 1.15326C13.1069 1.01326 12.9969 -0.0667428 13.5769 0.00325716Z" fill="#22234B"/>
</svg>
