<svg width="81" height="49" viewBox="0 0 81 49" fill="none" xmlns="http://www.w3.org/2000/svg">
<path id="Vector" d="M56.1588 16.2521C56.2733 14.9701 56.4737 13.6972 56.7588 12.4421C57.8988 8.27208 64.3288 9.02205 67.7588 8.51205C72.2188 7.83205 74.8688 6.03207 77.0088 2.09207C77.1988 1.74207 77.6288 0.292067 77.7088 0.212067C78.5188 -0.557933 77.9488 1.01208 77.9488 1.07208V7.68207C77.6224 9.13205 77.1431 10.5433 76.5188 11.8921C76.2788 12.3621 74.7588 14.3821 74.7688 14.5421C74.7688 15.2121 78.2388 15.1821 78.7688 15.1421C79.2988 15.1021 79.6888 14.5221 80.3688 14.9121C79.2388 17.3321 79.3688 20.1121 78.3688 22.5621C77.7713 24.3153 76.6661 25.8514 75.1935 26.9749C73.721 28.0985 71.9476 28.7589 70.0988 28.8721C70.6688 31.0021 70.8188 39.5221 69.4288 40.8721C67.6588 41.6121 66.0088 43.1121 64.2288 43.6821C58.4188 45.5321 51.0088 46.5521 45.1288 44.6821C42.2388 43.7521 39.5188 41.7821 36.4888 40.8321C33.368 39.9902 30.1942 39.3588 26.9888 38.9421C26.6888 39.2021 28.6188 45.5821 28.0988 46.7721C27.2388 48.7721 20.3988 47.3621 18.5388 47.2721C14.3013 47.0993 10.0665 47.6748 6.02877 48.9721C5.75877 49.1021 5.20877 48.8021 5.19877 48.6221C5.18877 48.4421 6.60877 45.1921 6.79877 44.3421C7.41877 41.4721 7.24877 38.2421 8.27877 35.3421C8.21877 34.8521 3.61877 31.5121 2.85877 30.8221C2.39877 30.4121 -0.401226 27.8221 0.0487742 27.3921H10.3588C10.4288 27.9821 10.3588 28.2621 9.73877 28.3921C7.0151 28.7171 4.26244 28.7171 1.53877 28.3921C2.36877 30.1921 8.68877 33.8421 9.07877 35.1721C9.46877 36.5021 8.07877 43.1721 7.52877 44.7921C7.16877 45.8921 6.52877 46.8721 6.19877 47.9821C9.83232 46.6096 13.6956 45.9477 17.5788 46.0321C19.7688 46.1721 22.2088 46.9121 24.4288 47.0321C29.7388 47.2621 27.2988 44.6021 24.0788 43.7121C20.6088 42.7121 18.2288 43.9621 15.3988 43.5721C14.2188 43.4121 12.6788 42.6621 12.3988 41.4521C11.5353 37.8342 10.9403 34.1576 10.6188 30.4521C10.5288 28.4521 12.0288 23.1621 10.3988 21.6721C9.96877 21.2821 9.08877 21.8721 9.39877 20.9121C9.47877 20.6721 11.6588 20.3621 12.2688 20.0921C12.5288 19.9821 14.4488 18.5121 14.0588 19.4321C13.6688 20.3521 11.2588 20.9221 11.1388 21.4321C12.1626 23.554 12.578 25.9182 12.3388 28.2621C12.0302 30.8634 11.9532 33.4871 12.1088 36.1021C12.2788 37.8921 12.9188 39.8221 12.8888 41.6921C13.8888 43.4921 14.9588 40.8621 15.7688 40.0121C20.6388 34.9121 27.8388 37.5121 33.7688 39.1821C42.6588 41.6921 46.6488 45.8621 56.7688 44.5221C60.8688 43.9821 65.4588 42.8321 68.7688 40.3921C68.9188 37.8621 68.9788 35.2221 68.8988 32.6621C68.7688 28.8021 68.3788 26.7221 68.8988 22.6621C69.0188 21.7421 69.5588 20.4321 69.5888 19.6621C69.6688 17.0921 64.9988 18.0921 63.5888 18.0921C62.1788 18.0921 59.5888 17.5421 58.4988 16.5921C58.1334 16.1386 57.7993 15.6609 57.4988 15.1621C56.8988 14.9821 57.0788 16.5221 57.1288 16.7021C57.2888 17.2821 61.5688 19.7021 57.1288 18.5921V22.2621C59.6538 22.4075 62.177 21.9481 64.4888 20.9221C65.4888 20.4521 66.1888 19.7221 67.1688 19.3321C65.5975 21.0108 63.5484 22.1663 61.2988 22.6421C45.0688 26.4521 34.9488 7.30208 17.6788 16.5021L14.5088 18.5921C16.2954 16.7855 18.4755 15.4165 20.8788 14.5921C33.1288 9.94207 40.3988 17.6521 51.1888 21.2621C52.818 21.761 54.493 22.0959 56.1888 22.2621C56.2588 20.2921 56.0188 18.2021 56.1588 16.2521ZM79.1588 15.8921C78.3288 16.5021 74.1588 15.4421 74.0388 14.7621C76.4348 11.1947 77.6294 6.95561 77.4488 2.66208C76.7688 3.17208 76.5288 4.07206 75.9688 4.73206C74.1859 6.85601 71.7038 8.27433 68.9688 8.73206C66.3388 9.25206 56.8488 8.98207 57.9688 13.4621C59.2988 18.6521 67.8988 15.5521 69.8588 18.4621C70.6688 19.6821 70.0888 20.0521 70.0888 21.1521C70.0888 23.4821 70.0888 25.8121 70.0888 28.1521C76.9688 27.8621 78.0288 21.2921 79.1788 15.8921H79.1588ZM22.0988 38.4221C21.8592 38.4021 21.6184 38.4021 21.3788 38.4221C21.1788 38.5921 22.5388 40.9021 21.7488 40.8621C20.7488 40.3521 21.1788 38.4221 19.9088 38.6721C20.3272 39.4479 20.6624 40.2657 20.9088 41.1121C20.1088 41.8521 19.5388 38.9421 19.0688 38.9121C18.0688 38.8521 19.7088 41.3121 19.4388 41.6021C18.2688 41.6021 18.5088 40.0921 17.7288 39.6021C17.5488 40.1321 18.7288 41.8121 18.4588 42.0521C17.8388 42.7221 17.4588 40.1021 17.1088 40.1021C17.1088 40.1021 16.3888 40.3221 16.5188 40.6821C16.6488 41.0421 17.7388 42.0721 17.5188 42.3021C16.3488 42.5421 16.2488 41.9821 15.5188 41.3021L14.7888 42.5221C17.8688 42.6521 21.1088 41.6521 24.0888 42.7721C23.5888 41.5621 22.8788 40.4421 22.3288 39.2621C22.2383 38.986 22.1615 38.7057 22.0988 38.4221ZM26.4888 38.7021C25.4142 38.4538 24.3099 38.3595 23.2088 38.4221C22.8788 38.4221 22.7688 38.2921 22.8788 38.7621C23.1688 40.0721 24.3888 41.3421 24.6988 42.3421C24.7988 42.6521 24.5488 43.0321 24.5688 43.0621C24.5888 43.0921 27.1488 43.8821 27.4988 44.5421C27.0488 43.7321 26.7188 38.9321 26.4888 38.7021Z" fill="#22234B"/>
</svg>
