<svg width="152" height="123" viewBox="0 0 152 123" fill="none" xmlns="http://www.w3.org/2000/svg">
<path id="Vector 4" d="M22.093 18.7321C21.5843 18.357 23.4195 18.8947 22.2583 18.2578C22.5233 18.2824 22.7851 18.3038 23.0405 18.3221C23.0773 18.4808 23.1163 18.6394 23.1545 18.7979C22.8094 18.7825 22.4553 18.7598 22.0929 18.7328C22.0929 18.7325 22.093 18.7323 22.093 18.7321ZM21.2345 20.4709C21.6538 20.1218 22.7119 20.2135 21.6661 19.6049C21.5474 19.7304 21.4261 19.8552 21.3069 19.9804C20.9356 19.7887 20.5599 19.5947 20.1824 19.4025C20.0263 19.4278 19.8731 19.4538 19.7166 19.4789C19.5837 19.1927 19.4486 18.9059 19.3105 18.6193C19.4692 18.6879 19.6299 18.7582 19.7863 18.8273C20.4767 18.7539 21.0638 18.8209 21.9177 18.9536C21.8557 18.8798 21.793 18.8062 21.73 18.732C22.1408 18.9198 22.5438 19.1038 22.9405 19.2785C22.5628 19.3135 22.1295 19.343 21.7649 19.3652C22.2157 19.8426 23.1429 19.8351 23.6567 19.8163C23.6863 19.8155 23.7147 19.8147 23.7419 19.8141C24.4269 19.7944 24.2521 19.9609 24.7663 19.9402C24.8483 19.9366 24.8748 19.79 25.0335 19.8039C25.8351 19.8796 27.4484 20.0636 26.4789 20.3444C25.4511 20.2349 24.5357 20.2989 23.6007 20.1935C23.2977 20.1592 22.9891 20.1052 22.6724 20.0221C22.9483 20.4787 22.2336 20.4949 21.2345 20.4709ZM46.7718 21.692C46.3565 21.8649 45.5266 21.725 44.9815 21.5341C44.9809 21.534 44.9802 21.5339 44.9796 21.5339C44.8573 21.492 44.606 21.2063 45.0066 21.2569C45.6538 21.3373 45.9408 21.766 46.304 21.514C46.4588 21.5762 46.6106 21.6317 46.7718 21.692ZM48.2055 21.7293C48.6095 21.8397 48.4155 22.1439 47.9095 22.0443C47.9095 22.0445 47.9095 22.0448 47.9095 22.045C47.6967 22.0021 48.1218 21.7771 47.3526 21.9918C47.2033 21.7931 47.0622 21.6113 46.9216 21.4177C47.1042 21.4246 47.2705 21.4278 47.4683 21.4339C47.3249 21.7431 47.8041 21.6192 48.2055 21.7293ZM27.1868 20.2191C27.2705 19.9401 26.9968 19.9253 26.5538 19.6959C26.9841 19.7365 27.4192 19.7743 27.8555 19.8097C27.6299 19.9467 27.4112 20.0831 27.1868 20.2191ZM17.0181 18.5935C17.0174 18.5934 17.0167 18.5933 17.016 18.5932C16.8618 18.615 16.7024 18.637 16.5511 18.6601C16.4765 18.5473 16.4015 18.4352 16.3245 18.3226C15.7807 18.3448 15.235 18.3767 14.6946 18.4201C14.7913 18.1169 15.7421 18.2681 16.297 18.1279C17.0695 18.3267 17.4132 18.5687 17.4209 18.8344C17.2886 18.754 17.1547 18.6732 17.0181 18.5935ZM80.4533 31.8856C80.567 32.04 80.6807 32.1921 80.7949 32.3458C80.7937 32.1148 80.7842 31.8871 80.7899 31.6531C80.3214 31.1236 80.6363 31.0126 80.4863 30.2393C80.2524 29.0236 80.0207 28.618 79.9138 28.205C79.8147 27.8152 79.8254 27.4125 80.1047 26.3164C80.2669 27.8627 80.5385 27.447 80.9166 28.0517C80.9606 28.122 81.0065 28.206 81.0542 28.3087C80.9478 28.4444 80.7014 28.2297 80.497 28.1158C80.3583 28.0397 80.2386 28.008 80.1946 28.1621C80.1832 28.2024 80.177 28.2553 80.177 28.3236C80.6069 29.4945 81.0193 30.6157 81.4082 31.9156C81.4412 31.8699 81.4743 31.8243 81.5074 31.7787C81.4457 31.5729 81.3846 31.3685 81.3237 31.1616C81.4689 31.3713 81.6125 31.575 81.7603 31.7862C81.4678 31.5372 81.7327 32.2557 81.438 32.2055C81.3066 32.1832 81.0773 31.8842 80.9257 31.7101C80.9483 32.2234 80.9811 32.7483 81.0125 33.2667C80.8658 33.0224 80.7196 32.777 80.5746 32.533C80.5331 32.3181 80.4933 32.1047 80.4529 31.8897C80.453 31.8884 80.4531 31.887 80.4533 31.8856ZM142.842 117.484C142.415 117.543 141.81 117.404 141.438 117.14C141.2 116.981 140.995 116.794 140.869 116.599C141.092 116.719 141.316 116.839 141.537 116.953C141.908 117.144 142.367 117.324 142.842 117.484ZM17.4369 19.0558C17.3693 18.9946 17.3058 18.9347 17.2385 18.8739C17.5834 18.8352 17.9313 18.8012 18.2774 18.7693C18.3158 18.9217 18.3547 19.0744 18.3934 19.2264C18.0776 19.1674 17.7556 19.1093 17.4369 19.0558ZM38.0296 21.1369C37.7913 21.1235 37.7707 21.1168 37.4732 21.0694C37.4735 21.0695 37.4738 21.0697 37.4742 21.0698C37.3586 21.0509 36.3759 20.8824 36.4973 20.7824C36.9841 20.8213 37.5122 20.8698 38.0125 20.9165C38.0209 20.9902 38.0175 21.0622 38.0296 21.1369ZM32.2605 20.6326C32.2599 20.6323 32.2592 20.632 32.2585 20.6317C32.0799 20.6041 31.9167 20.5602 31.7304 20.543C32.4036 20.4088 32.489 20.7263 33.0979 20.6769C33.7099 20.6276 34.0901 20.4815 34.5736 20.9446C34.3762 20.9944 34.1687 21.0714 33.9671 21.1321C33.1254 20.9034 32.8813 21.0495 32.1879 21.1755C32.2122 20.9941 32.2361 20.8139 32.2605 20.6326ZM80.0123 21.1748C79.7921 21.0277 79.9887 20.8333 79.9902 20.8159C79.9905 20.8162 79.9907 20.8165 79.991 20.8168C79.7208 19.4047 80.1147 20.9966 80.0816 19.6518C80.1435 19.8482 80.2088 20.0437 80.2721 20.2378C80.186 20.5485 80.0882 20.8703 80.0123 21.1748ZM81.7342 18.1559C81.6976 18.1048 81.6584 18.0546 81.6216 18.0035C82.3902 17.6883 82.4862 17.3885 83.187 17.3264C82.7135 17.6013 82.2265 17.8747 81.7345 18.1566C81.7344 18.1564 81.7343 18.1562 81.7342 18.1559ZM42.1204 22.0995C41.2102 22.0894 40.5386 22.0409 39.684 21.7462C39.6833 21.7458 39.6827 21.7455 39.682 21.7452C39.6326 21.7274 39.8945 21.6307 39.8323 21.5902C39.6468 21.5861 39.458 21.5929 39.2693 21.5941C39.256 21.4889 39.2444 21.3839 39.231 21.2793C39.7502 21.368 40.2641 21.4652 40.7732 21.5655C40.7058 21.4953 40.6361 21.4254 40.568 21.3553C41.0102 21.3845 41.4465 21.4161 41.8797 21.4465C41.7071 21.5924 41.5332 21.7382 41.3613 21.8848C41.6153 21.9568 41.8686 22.0275 42.1204 22.0995ZM90.0947 10.0012C90.0165 10.1341 89.9256 9.86958 89.8502 10.0783C89.7763 10.2858 89.8565 10.692 89.6785 10.5788C89.6855 10.2907 89.6836 9.98885 89.6761 9.6983C89.2779 10.5963 89.4301 11.5512 89.0117 11.5007C89.2585 10.6429 89.2833 9.90298 89.1938 9.06592C89.5322 9.10187 89.7724 9.99119 90.1168 9.45766C90.112 9.63666 90.1058 9.8253 90.0942 9.99921C90.0943 9.99988 90.0945 10.0006 90.0947 10.0012ZM3.80587 21.1717C3.18994 21.0843 2.06726 20.9167 1.40992 20.6738C1.25187 20.6172 1.10742 20.5553 0.98601 20.4868C0.828773 20.3979 0.417088 19.6534 0.439836 19.5745C0.523382 19.3106 1.21963 19.4459 0.527372 19.0872C0.775391 19.1473 1.01817 19.1973 1.26512 19.2539C1.26611 19.0628 1.26718 18.8722 1.26985 18.6821C0.963896 18.6344 0.657553 18.5868 0.351433 18.5397C0.351663 18.4764 0.351967 18.413 0.352186 18.3497C1.42808 18.6173 0.850682 18.2284 1.46229 18.1535C0.975568 17.9166 0.484913 17.6793 5.20423e-06 17.4429C0.292188 17.53 0.638378 17.627 0.895083 17.7078C1.00631 17.4111 0.366311 17.3285 0.273899 17.2453C-0.0875098 16.9188 1.25744 17.2657 2.23338 17.3799C2.66248 17.431 3.01307 17.4301 3.11822 17.3103C2.86081 17.2222 2.59387 17.1268 2.3209 17.0298C2.10258 16.9523 1.8836 16.8746 1.66721 16.7975C1.82407 16.7785 1.98282 16.7599 2.13968 16.7409C2.2132 16.7819 2.28763 16.8222 2.36292 16.8618C2.97289 17.1817 3.60832 17.4521 4.27983 17.634L4.26321 17.6322C4.75536 17.7424 5.24651 17.8767 5.73155 18.0388C5.85711 18.0485 5.98222 18.0589 6.10548 18.0707C6.09729 17.9241 6.09039 17.7785 6.08104 17.6319C6.27251 17.652 6.46517 17.6747 6.65462 17.6981C6.01025 18.0422 6.77469 18.1884 7.59783 18.678C7.08683 18.7256 6.52216 18.4996 6.49804 18.8087C8.16866 18.932 10.0065 19.7767 11.6713 19.708C12.0575 19.6899 12.1153 19.3506 12.8894 19.392C12.9382 19.3941 12.9896 19.3978 13.0438 19.4031C13.0087 19.4445 12.9985 19.5226 12.9741 19.5784C14.6271 19.4933 15.655 19.4932 17.3195 19.952C17.2435 19.7956 17.1709 19.6395 17.0939 19.4836C16.7201 19.4968 16.3458 19.5156 15.9764 19.5385C15.7578 19.2757 16.1417 19.2112 15.0452 19.0892C14.1475 18.9991 14.6726 19.1574 14.4225 19.2027C14.0831 19.2667 13.8106 19.057 13.4474 19.1381C13.1878 19.1961 13.4119 19.3795 12.8925 19.3371C12.8494 19.3336 12.8011 19.3284 12.7469 19.3209C12.7982 19.2801 12.8494 19.2387 12.9004 19.197C13.1529 19.002 13.4067 18.8052 13.6649 18.6143C13.8352 18.6835 14.0095 18.7549 14.1785 18.8268C13.9969 18.8785 13.8133 18.9303 13.6336 18.9843C14.2665 18.9102 14.8669 18.8531 15.5301 18.8057C15.2775 19.1409 15.9601 19.0842 16.3261 19.093C16.8961 19.1058 16.38 19.2843 16.7539 19.2967C17.1251 19.3094 17.5664 19.0952 18.2177 19.2712C17.8352 19.3675 18.2916 19.5952 18.172 19.7254C18.0521 19.8546 17.3588 19.7686 17.9924 20.0435C19.2855 20.1531 18.0065 19.3413 18.8873 19.4115C19.9489 19.5028 20.0009 20.4628 19.6595 20.5954C19.3894 20.6995 18.5709 20.5081 18.3015 20.6186C19.7197 21.1721 19.8418 20.6416 20.1154 20.5841C21.1124 20.3846 20.2825 21.2937 21.445 21.1401C21.3858 21.3295 21.3343 21.5003 21.2764 21.6818C21.4714 21.6842 21.6059 21.6623 21.8405 21.6787C21.2426 21.1692 21.7892 21.2946 22.0701 21.3473C22.5143 21.4299 21.864 21.116 21.9911 21.0905C22.331 21.0249 22.8168 21.1706 22.5423 20.9493C22.6643 21.0516 22.7999 21.1557 22.9279 21.2565C23.07 21.2539 23.2693 21.2077 23.4603 21.1386C23.9917 20.9463 24.4575 20.5914 23.6132 20.5991C23.7617 20.3118 24.1035 20.5076 24.3847 20.5873C24.6673 20.6672 24.6821 20.4724 24.931 20.5348C25.9246 20.7761 25.2377 21.045 25.0469 21.2892C26.4184 21.2302 25.0997 21.0082 27.0625 21.0289C27.2652 20.8291 26.379 20.542 27.1368 20.4694C27.2498 20.8475 27.7898 21.1494 28.8699 21.3317C28.9809 21.2526 29.0914 21.1727 29.2007 21.0935C29.7789 21.4671 29.4544 21.8046 30.5783 21.4422C29.9455 22.1881 30.3774 21.7114 31.3476 22.0845C31.5429 22.1598 31.0722 22.2947 31.3468 22.3926C31.4684 22.4366 31.7875 22.3328 32.0878 22.4454C32.2401 22.5011 32.9191 22.844 33.4192 22.7348C33.0866 22.3342 34.0356 22.0756 33.2587 21.7108C34.7294 21.8858 35.7715 21.7861 34.0853 22.1785C34.4505 22.3187 34.8148 22.4595 35.1807 22.6016C35.4439 22.5315 35.7193 22.4637 35.9848 22.3957C35.9986 22.7087 35.9536 22.7898 36.9809 22.8241C36.5276 22.8577 36.0806 22.895 35.632 22.9334C35.6118 22.9946 35.5442 23.0546 35.5544 23.1164C36.1062 23.0385 37.6502 23.1227 38.0251 23.077C38.4065 23.0302 37.6879 22.9396 37.8034 22.8701C38.0157 22.7414 38.1774 22.6661 38.3062 22.6257C38.7503 22.4867 38.7888 22.7659 39.2945 22.7364C39.6781 22.7143 38.7894 22.5366 38.9935 22.532C39.7533 22.5136 40.0537 22.9098 40.7102 23.0054C40.5042 22.7753 40.2994 22.5429 40.0955 22.313C40.7906 22.4155 41.5608 22.531 42.2099 22.5573C42.4656 22.5678 42.2955 22.3944 42.338 22.3903C42.5478 22.3693 43.3838 22.3987 43.4696 22.4076C44.1238 22.4863 44.1211 22.6928 44.758 22.7697C44.5062 22.7621 44.266 22.752 44.0216 22.7408C43.8712 23.0586 43.7165 23.3754 43.5637 23.6928C44.1981 23.794 44.8366 23.8838 45.4788 23.9608C45.0174 23.8114 44.559 23.6556 44.1041 23.4931C44.8619 23.3071 45.6117 23.1032 46.3493 22.8812C46.7084 23.0701 47.0764 23.2552 47.4508 23.4362C48.4832 23.4314 48.2915 22.7501 48.7625 23.3484C49.0678 23.3041 49.3679 23.2575 49.6732 23.2093C49.6292 23.293 49.5857 23.3768 49.5418 23.4604C49.9167 23.4106 50.2728 23.3579 50.6395 23.3014C50.25 23.0092 49.8823 22.6982 49.5022 22.4081C50.215 22.346 50.2238 22.5945 50.3334 22.6573C50.6164 22.8222 51.1806 22.5886 51.4004 22.7371C51.4798 22.7889 50.7791 22.9678 51.0253 23.1544C51.0785 23.1915 52.0311 23.8743 52.6386 23.6878C52.6222 23.561 52.5691 23.4068 52.5393 23.2693C53.3403 23.1624 53.7936 23.8025 53.6929 23.9945C54.1164 23.844 54.7548 23.7964 54.8292 23.5877C54.9797 23.5754 55.1311 23.5628 55.2846 23.5497C55.3541 23.5438 55.4239 23.5378 55.494 23.5318C55.295 24.0412 56.2107 23.893 56.2443 23.4637C55.9247 23.4745 55.6 23.4855 55.2812 23.4966C55.2208 23.4988 55.1607 23.5009 55.1008 23.503C55.2791 23.1306 54.7694 22.8998 55.2434 22.9013C55.4525 22.902 55.8608 22.9495 56.6156 23.0538C57.091 23.2971 55.7968 23.0671 56.1834 23.2473C56.8414 23.3254 57.444 23.1896 58.0735 23.3415C58.8562 23.5316 57.9241 23.8153 59.6968 23.4076C55.7016 22.8903 60.2088 22.8681 62.0482 22.5202C62.6022 23.2317 64.1889 23.3747 66.329 22.9979C66.0917 22.8075 65.4199 22.9622 65.0232 22.9205C64.6288 22.8788 65.0432 22.7275 64.5492 22.6636C64.057 22.5997 63.0142 22.5346 62.5119 22.4189C62.9224 22.2767 64.9629 21.8657 63.6232 22.2868C64.652 22.4258 65.1443 22.6057 66.4063 22.5527C66.7607 22.2015 66.7184 22.0059 67.9385 21.8982C67.2526 22.4054 68.6698 22.6022 68.4031 23.09C67.5192 23.055 67.973 22.5645 67.4501 22.3897C67.3991 22.3725 66.5968 22.5473 66.4063 22.5527C67.2514 22.8969 67.5552 23.0233 67.0831 23.5439C67.6615 23.4574 68.0306 23.4874 68.063 23.2536C68.19 23.3435 68.3246 23.4326 68.4519 23.5221C68.6404 23.5036 68.8108 23.4795 69.013 23.4633C68.7057 23.1417 69.2592 23.308 69.6273 23.1142C69.9888 22.9198 69.4589 22.6998 70.4991 22.5879C70.1391 22.5447 69.8157 22.5068 69.4762 22.4616C70.1383 22.309 70.8011 22.1492 71.4527 21.9767C70.9598 21.8277 69.9134 21.6196 69.9178 21.3374C70.2348 21.4139 71.2519 21.1109 71.3584 21.0869C71.7909 21.0019 71.5763 21.2072 71.6099 21.2074C72.3079 21.2017 72.8316 21.0462 73.1339 21.2543C73.1546 21.2443 73.1749 21.2348 73.1946 21.2256C73.6573 21.0242 74.0491 21.0022 74.5685 20.8781C74.868 20.8062 74.7655 20.6283 74.9491 20.6242C76.1633 20.588 75.1367 21.1184 77.234 20.0746C76.9314 20.0153 76.6327 19.9492 76.332 19.8835C76.5681 19.7702 76.8013 19.6556 77.0338 19.5393C77.2049 19.5187 77.3744 19.4979 77.545 19.4754C77.6221 19.7614 77.6985 20.0482 77.7755 20.3342C77.9634 20.2979 78.1516 20.2597 78.339 20.2208C78.0337 20.3421 77.7256 20.4599 77.4165 20.5745C77.4012 20.6327 77.3878 20.6903 77.3724 20.7485C77.8661 20.6985 78.3583 20.6418 78.8525 20.5745C78.8312 20.4733 78.8094 20.3714 78.788 20.2702C79.8779 20.0746 79.9421 20.1446 80.8202 19.5151C81.2873 19.3389 81.6332 19.0165 81.9046 18.7147C82.0762 18.5281 82.226 18.3507 82.3634 18.2176C82.5412 18.2046 82.7202 18.1922 82.8982 18.1791C82.9633 18.0582 83.0303 17.9369 83.0944 17.8163C83.3361 17.8424 83.5797 17.8672 83.8209 17.8909C83.8188 17.5954 83.8437 17.4963 83.0495 17.7343C83.1835 17.3143 84.5447 16.8791 85.0939 16.72C85.5164 16.602 85.2174 17.0686 85.2796 17.0751C85.4982 17.0992 86.0849 16.6711 86.2195 16.6107C86.806 16.3617 87.1636 16.1079 87.6403 15.8129C87.7327 15.7578 88.0806 15.6949 88.1038 15.68C88.2797 15.5721 88.6929 15.2725 88.7311 15.227C89.7234 14.1172 89.4175 14.0022 89.2675 14.0107C89.059 13.9875 88.9945 14.0274 89.3482 12.9142C89.349 12.9111 89.3498 12.9081 89.3505 12.905C89.3461 12.9072 89.3416 12.9095 89.3372 12.9117C89.2268 12.9576 89.1178 12.9931 89.0071 13.0265C89.0208 12.9677 89.0333 12.908 89.0444 12.8473C89.069 12.7174 89.0931 12.5852 89.1154 12.4556C89.25 12.2124 89.3424 12.5569 89.3173 12.0146C89.4345 12.0709 89.5516 12.1279 89.6676 12.187C89.6438 11.9451 89.6155 11.7135 89.585 11.4695C90.0851 11.1746 90.3211 9.80586 90.8145 9.93733C90.9912 9.98115 91.0656 11.0167 91.3053 10.4974C91.3837 10.0597 91.1487 10.3393 91.1538 10.1595C91.1705 8.86596 91.4312 8.94337 91.3574 8.40578C91.2315 8.32267 91.1025 8.23803 90.974 8.15689C91.0047 7.95786 91.0314 7.75672 91.0535 7.553C90.9665 7.51241 90.8791 7.47083 90.7918 7.43219C90.8017 7.61724 90.8083 7.82501 90.8096 7.99441C90.5216 7.75383 90.0604 5.71313 90.4581 6.45736C90.6286 6.76394 90.6446 7.38769 90.9824 6.95327C90.8583 6.37015 90.6741 5.71939 90.4317 5.14493C90.5046 5.10148 90.5777 5.05875 90.6501 5.01427C90.3131 4.22167 90.2682 5.07232 90.0938 5.1178C90.0303 4.94472 89.9608 4.77297 89.8848 4.60685C89.9281 4.50396 89.9742 4.40139 90.009 4.29259C89.8974 4.33575 89.6382 4.36166 89.4683 3.97306C89.4528 3.93846 89.4375 3.90055 89.4223 3.8589C89.2876 3.53496 89.8916 3.8107 89.4265 3.27465C89.3089 3.46115 89.2756 3.72229 88.76 3.32152C88.8443 3.12114 88.8777 2.90784 88.949 2.69249C88.5649 2.52596 88.2823 2.41304 87.9939 2.30694C87.5743 2.15988 87.1419 2.00467 86.4524 2.10609C85.9542 2.18015 85.4071 2.49061 84.9708 2.55091C84.74 2.58332 84.5116 2.53278 84.2821 2.33554C83.7803 2.49287 84.0083 2.62586 83.8811 2.72169C83.2952 3.17481 82.6656 3.10268 82.5258 3.1613C81.6889 3.52273 81.4605 3.90558 80.8941 4.45905C81.0435 4.49847 81.1744 4.55412 81.3127 4.60626C81.4889 3.95685 81.7778 3.66463 82.575 3.22317C82.326 3.40682 82.0917 3.60944 81.8834 3.83377C82.0007 3.89077 82.1145 3.95207 82.2246 4.01651C83.133 3.03316 83.7692 2.97849 83.7037 3.13865C83.6813 3.32337 83.0405 3.77413 82.3815 4.46136C82.1116 4.40559 81.8233 4.3845 81.5279 4.40034C81.4331 4.61946 81.3636 4.81374 81.3044 4.99373C81.0032 5.89294 80.522 6.37755 79.9752 7.50296C79.8953 7.66577 79.7689 8.32112 79.6808 8.58607C79.6832 8.58201 79.6857 8.57791 79.6881 8.57383C79.8257 8.80923 79.9976 8.62232 80.1834 8.66332C80.1534 8.8106 80.1252 8.95744 80.0991 9.10414C79.8585 9.36872 79.7753 9.22188 79.6192 9.85627C79.7809 9.81228 79.9425 9.77116 80.1042 9.73166C79.9064 10.3965 79.6475 10.8041 79.5968 11.4531C79.5627 11.3366 79.5294 11.2216 79.4984 11.1027C79.1191 12.4805 78.4622 11.2374 78.7391 12.3946C78.6593 12.458 78.5794 12.5211 78.5004 12.5875C78.5207 12.1195 78.5657 11.6517 78.6328 11.1887C78.5326 11.1605 78.433 11.1314 78.3326 11.1048C78.2691 11.6143 78.2334 12.1303 78.2255 12.6404C78.1846 12.2636 78.1591 11.8805 78.149 11.4968C78.0068 12.0819 77.9009 12.6793 77.833 13.2837C78.2385 12.6612 78.253 13.4857 78.637 13.3398C78.5699 13.5369 78.5033 13.727 78.4426 13.9213C78.1937 14.7079 77.9794 15.4859 78.2262 16.7552C78.2879 17.0671 78.5452 16.8895 78.2527 17.7917C78.6645 17.5629 78.9003 18.6687 79.2945 18.5112C79.2637 18.205 79.2405 17.8831 79.2074 17.5855C79.0801 17.9301 78.7011 18.0022 78.5715 17.484C78.4061 16.8238 78.6479 15.8506 78.2263 15.8988C78.2401 15.63 78.2469 15.3887 78.2587 15.1273C78.3656 15.2319 78.4732 15.3347 78.5801 15.4364C78.4058 14.7262 78.4458 14.2732 78.6873 13.918C78.6939 13.9084 78.7007 13.8989 78.7076 13.8896C78.7084 13.8989 78.7091 13.9083 78.7099 13.9177C78.7819 14.7791 78.8576 15.6384 78.9392 16.4979C78.9539 16.3685 78.9688 16.2377 78.9832 16.1103C79.2698 16.7608 79.5064 16.0782 79.599 17.2997C79.4753 17.296 79.3515 17.2937 79.2272 17.29C79.5695 17.7281 79.6136 18.9448 79.9788 18.5418C79.8763 18.914 79.8059 18.9913 80.0193 19.1912C79.7722 20.1685 79.4446 20.8159 78.9901 20.4911C79.0793 20.851 79.17 21.2057 79.2625 21.5622C79.3683 21.3442 79.4746 21.132 79.5817 20.915C79.6097 21.5418 79.6434 22.1727 79.6836 22.796C79.3344 22.8803 79.4922 21.5998 79.2028 21.9855C79.1444 22.063 79.3029 22.3915 79.2739 22.4828C78.9579 23.4474 79.1285 21.956 78.8542 22.2521C78.8678 23.6605 78.279 22.5783 78.8644 24.4752C78.7679 24.5359 78.6697 24.6006 78.5736 24.6575C78.6342 25.3306 78.8575 25.2508 78.9647 25.8216C79.0322 26.178 78.6866 26.6809 79.0121 27.0435C79.0731 27.1056 79.468 26.381 79.641 27.775C79.6671 27.9762 79.6752 28.1282 79.6696 28.2423C79.6466 28.7436 79.3679 28.5728 79.3426 29.0643C79.3109 29.671 80.006 30.93 79.5334 31.4149C79.553 31.096 79.5268 30.6995 79.5303 30.3492C79.4024 30.2285 79.2762 30.1096 79.1495 29.9902C79.4103 30.747 79.3858 31.5799 79.7279 32.0596C79.5234 33.1654 80.1007 34.2607 80.473 33.8645C80.3469 33.5365 80.2275 33.9417 80.2597 33.4468C80.3515 33.3798 80.4423 33.3104 80.5342 33.2436C80.6696 34.0481 80.7829 34.6038 80.405 34.2975C80.4217 34.4233 80.4384 34.5482 80.4555 34.6742C80.6816 34.653 80.9081 34.629 81.1343 34.6075C81.1883 34.7503 81.2426 34.8937 81.2972 35.0361C81.2816 35.21 81.2658 35.3842 81.2508 35.5603C80.8557 35.4095 80.761 35.0285 80.8313 36.3332C80.953 36.3111 81.0745 36.2907 81.1961 36.2686C81.2718 37.3537 80.9824 37.4501 81.3121 38.7693C80.6467 37.854 81.2681 37.1251 80.4284 37.3181C80.4259 37.0489 80.4251 36.7777 80.4253 36.5092C80.2948 36.4963 80.1643 36.4837 80.0343 36.4723C80.2392 37.256 80.7624 38.2794 81.1327 39.1955C81.405 39.8672 81.5537 40.5096 81.4105 40.9513C81.4989 41.047 81.58 41.15 81.6738 41.2463C81.5501 42.2221 82.3548 42.4422 82.1793 43.4537C82.165 43.5613 81.4259 43.5346 81.798 44.7359C81.8753 44.6799 82.0161 44.6213 82.1179 44.5649C82.1393 44.8345 82.1643 45.1149 82.1883 45.3796C82.282 45.4003 82.3765 45.4232 82.471 45.4437C82.3663 45.0087 82.263 44.5513 82.173 44.1125C82.3013 44.4627 82.4378 44.8215 82.5778 45.1738C82.5605 44.6601 82.5041 44.4562 82.7952 44.6714C82.9319 45.0798 83.072 45.4732 83.2179 45.8685C83.2848 45.8924 83.3522 45.916 83.4193 45.9401C83.5098 45.688 83.6028 45.4505 83.7008 45.2041C83.9048 46.2787 84.2239 47.1661 84.2225 48.0694C84.2239 48.2233 83.8336 47.8271 84.3765 48.6703C84.2754 48.7266 84.1985 48.7853 84.1062 48.8404C84.8551 49.8354 84.919 50.2305 85.2111 51.4706C85.0827 50.6423 85.243 51.357 85.4355 51.503C85.5663 51.6007 85.33 51.097 85.4327 51.1215C85.5328 51.1434 86.1342 51.6683 85.9201 51.0875C84.6903 49.9914 85.2775 49.2951 84.2813 47.6367C84.4702 47.884 84.6579 48.121 84.8514 48.3681C84.8564 48.2174 84.86 48.0775 84.8657 47.9159C85.1317 48.9587 85.0214 48.4384 85.2846 48.8084C85.547 49.1736 85.9346 49.8633 86.1786 50.3488C86.2541 50.4991 86.041 50.3978 86.1786 50.7473C86.2734 50.9893 86.7706 51.5378 86.593 51.7978C86.4785 51.9695 85.5615 51.1257 86.2218 52.5685C86.189 52.909 85.9218 52.2009 85.8952 52.1909C85.6526 52.154 85.9137 53.095 86.2543 53.4482C86.282 53.4755 86.2731 53.0811 86.4964 53.4089C87.0187 54.165 87.0849 54.7185 87.1282 55.3699C87.4182 55.3009 88.0688 55.8401 88.4024 56.7366C88.4987 56.7427 88.5946 56.7464 88.6915 56.7523C88.5849 56.6393 88.4795 56.5271 88.3743 56.4161C88.35 56.2519 88.3057 56.0791 88.2887 55.9074C88.7837 56.7358 89.2032 56.673 89.5456 57.0217C90.7057 58.1815 89.3313 57.8256 89.038 57.6551C89.0101 57.4393 88.9971 57.233 88.9703 57.0096C88.8906 57.0761 88.8103 57.1433 88.7293 57.2084C89.7691 59.2231 88.4238 57.9388 88.6598 58.8631C88.6698 58.902 88.6827 58.9449 88.6985 58.9919C89.2847 59.0404 89.7327 59.8031 89.9422 60.9561C89.9986 61.0663 90.0549 61.1811 90.1118 61.2919C90.1862 61.279 90.286 61.2306 90.3439 61.2404C91.0079 62.43 90.4101 62.9762 90.3993 63.1218C90.3476 63.7733 90.9371 63.9874 91.0118 64.14C91.3225 64.7761 91.229 65.0474 91.5906 65.6256C91.9808 66.2475 91.9087 65.7318 92.1253 65.875C92.2977 65.9899 92.5591 66.502 92.7617 66.6672C92.6387 66.6214 92.5129 66.5653 92.3898 66.5197C92.5992 67.2553 92.7563 67.8646 93.1151 68.6512C94.1452 69.2149 93.5337 70.465 94.1875 69.7424C93.8647 68.9925 93.757 68.5417 93.7729 68.0501C94.0353 68.5116 94.301 68.9696 94.5734 69.425C94.5572 69.6105 94.5205 69.7511 94.5159 69.9605C94.8895 70.2112 95.2539 71.0635 95.4847 71.3402C96.5821 72.6569 96.6242 72.0094 96.9053 73.6419C96.274 72.7304 96.0169 72.8801 95.4984 71.9087C95.4313 72.2186 95.756 72.6836 95.3513 72.4973C95.9566 73.3988 95.9703 72.9713 96.3599 73.227C96.6984 73.4506 97.082 74.045 97.2546 73.8939C97.1889 74.0229 97.1183 74.1365 97.0532 74.2658C97.4195 74.842 97.7974 75.4209 98.1889 76.0024C97.9147 75.8266 97.6411 75.6491 97.3732 75.4759C97.4533 75.6875 97.5364 75.9017 97.6219 76.1183C98.8942 77.3213 100.028 80.1276 100.571 79.1475C101.085 79.7947 101.042 79.9468 101.154 80.4185C101.246 80.4117 101.326 80.4116 101.424 80.3997C101.684 80.8809 102.151 81.0164 102.377 81.4351C102.605 81.8539 102.463 82.1159 102.865 81.8859C102.942 82.2004 103.04 82.5035 103.131 82.8181C103.325 82.8966 103.525 82.9845 103.713 83.0555C103.842 83.3071 103.975 83.5618 104.11 83.819C104.219 83.8119 104.389 83.9656 104.585 84.173C104.863 84.4672 105.178 84.8588 105.427 85.0333C105.531 85.5448 104.942 85.9952 105.723 86.7758C105.851 86.6401 105.979 86.5049 106.106 86.369C106.229 86.5885 106.358 86.8152 106.481 87.0364C106.443 87.0852 106.403 87.1324 106.365 87.1812C106.302 87.0693 106.239 86.9582 106.174 86.8448C106.163 86.9957 106.15 87.1439 106.136 87.2922C106.492 87.5035 106.846 87.7128 107.202 87.9268C106.972 87.4436 106.744 86.9636 106.514 86.4832C107.021 86.9129 107.196 87.3581 107.662 87.7145C107.763 88.2616 107.535 88.2072 107.193 88.2159C107.325 88.3479 107.456 88.4811 107.586 88.6109C107.293 88.6841 107.353 89.03 106.716 88.1688C106.699 88.2752 106.685 88.3804 106.664 88.4868C106.78 88.6166 106.799 88.7502 106.94 88.8835C107.326 89.248 107.956 89.2715 108.069 89.1396C108.128 89.0699 107.678 88.7639 107.79 88.7029C108.065 88.5571 108.681 89.5833 107.879 88.0353C108.38 88.3654 108.341 88.5572 108.68 89.0911C108.731 88.9898 108.783 88.89 108.835 88.79C108.975 89.0495 109.116 89.3105 109.255 89.5694C108.591 89.5676 109.742 91.392 108.201 90.1391C108.529 90.6058 108.857 91.0729 109.186 91.5396C109.071 91.4796 108.956 91.4178 108.842 91.3586C108.709 91.1379 108.574 90.9163 108.44 90.6961C108.545 90.995 108.654 91.2976 108.759 91.5965C109.294 92.0906 109.614 92.1965 109.999 92.3143C109.623 91.552 109.606 91.908 109.174 91.4223C109.304 91.3506 109.393 91.2443 109.55 91.195C109.512 91.6454 110.358 92.3771 110.526 92.5669C111.037 93.1466 110.428 92.8547 110.743 93.2657C111.058 93.677 111.577 94.043 111.612 94.5589C111.737 94.4486 111.849 94.3142 111.948 94.1956C112.496 94.7865 112.244 94.7853 112.277 94.8662C112.8 96.1614 113.539 96.4941 114.585 97.5999C114.495 97.4221 114.398 97.2443 114.306 97.0665C115.334 97.6862 114.732 97.1854 114.17 96.3617C114.753 97.0862 115.335 97.2793 115.842 97.6964C116.091 97.9003 116.374 98.2229 116.626 98.5434C116.889 98.8775 117.115 99.2118 117.218 99.4053C116.935 99.2133 116.674 98.984 116.423 98.7386C115.969 98.2931 115.549 97.7836 115.074 97.3084C115.028 97.5099 115 97.6925 114.945 97.9088C115.638 98.1393 115.717 98.5678 115.828 98.7529C115.922 98.9103 116.007 99.0033 116.081 99.068C116.259 99.2243 116.368 99.2124 116.385 99.5656C116.456 99.4761 116.516 99.402 116.581 99.3177C117.431 100.265 118.259 101.383 119.14 101.672C119.002 101.918 118.858 102.143 118.725 102.401C119.252 102.638 119.434 103.111 119.793 103.396C120.15 103.679 120.18 103.402 120.62 103.713C120.702 103.77 120.753 104.012 120.998 104.108C121.244 104.206 122.418 104.284 122.04 104.835C122.367 105.152 122.665 105.467 122.982 105.78C122.64 105.51 122.298 105.236 121.959 104.964C122.117 105.336 122.274 105.705 122.437 106.078C122.569 106.007 122.704 105.933 122.833 105.862C123.68 106.418 124.056 107.083 124.844 107.72C124.976 107.826 124.867 107.349 125.377 107.903C125.887 108.452 125.953 109.22 127.072 109.89C127.129 109.923 127.677 109.855 127.857 110.356C127.899 110.47 127.5 110.271 127.634 110.485C127.74 110.654 128.251 111.125 128.464 111.42C128.523 111.504 128.555 111.575 128.544 111.621C128.576 111.558 128.565 111.46 128.581 111.383C128.748 111.464 128.918 111.546 129.086 111.627C129.027 111.737 128.97 111.848 128.912 111.958C129.936 112.34 130.643 112.271 131.832 113.277C131.573 112.883 131.318 112.487 131.067 112.091C130.897 112.127 130.726 112.162 130.558 112.197C130.003 111.745 129.45 111.287 128.905 110.825C128.903 110.826 128.901 110.826 128.899 110.827C128.725 110.875 128.548 110.919 128.365 110.959C128.228 110.832 128.082 110.696 127.947 110.566C128.049 110.514 128.15 110.462 128.252 110.41C127.94 110.2 127.632 109.984 127.327 109.765C128.083 109.778 128.639 110.584 128.975 110.722C129.071 110.763 129.145 110.748 129.195 110.642C129.284 110.805 129.374 110.969 129.462 111.132C129.668 110.974 129.902 111.233 130.37 111.614C130.328 111.434 130.275 111.248 130.244 111.074C130.618 111.555 131.477 112.138 131.938 112.535C132.141 112.71 131.82 112.708 131.873 112.77C132.145 113.092 132.965 113.268 133.085 113.379C133.807 114.041 134.011 114.89 135.117 115.136C134.249 114.46 134.728 114.818 134.52 114.423C134.455 114.299 133.354 113.406 134.797 114.427C134.957 114.554 137.462 116.609 136.4 116.316C136.897 116.506 137.307 116.62 137.77 116.774C138.35 118.087 138.399 117.206 138.327 116.665C138.493 116.761 138.65 116.848 138.819 116.947C138.23 117.126 140.044 118.212 140.802 118.346C140.806 118.346 140.81 118.347 140.814 118.348C140.91 118.364 140.886 118.305 140.857 118.242C140.818 118.161 140.767 118.07 140.927 118.108C140.959 118.115 140.999 118.127 141.051 118.145C141.268 118.29 141.514 118.443 141.758 118.577C141.498 118.166 142.255 118.348 142.343 118.065C142.702 118.472 142.919 119.109 142.559 119.308C143.003 119.325 143.442 119.327 143.882 119.318C143.707 119.201 143.542 119.084 143.371 118.963C144.639 119.528 146.458 119.457 146.626 120.108C146.808 120.138 146.99 120.168 147.171 120.196C147.245 120.104 147.317 120.012 147.391 119.921C148.188 120.151 148.991 120.365 149.801 120.563C149.061 120.527 148.864 120.647 148.116 120.408C148.392 120.572 148.676 120.736 148.95 120.896C150.16 120.742 150.333 120.565 152.07 120.835C152.149 120.852 153.45 121.224 153.498 121.249C153.701 121.381 153.37 121.534 153.46 121.6C153.698 121.795 155.307 122.272 155.283 122.324C154.824 123.2 149.378 122.725 147.934 122.471C145.235 122.07 142.685 121.752 139.735 120.369C135.38 118.064 131.478 115.403 127.633 112.555C122.8 108.715 118.87 104.582 114.745 100.353C113.659 99.2207 112.611 98.0488 111.6 96.8579C111.5 96.7404 111.454 96.8664 111.408 96.819C111.123 96.5233 111.008 96.0983 110.919 95.9773C110.728 95.7183 110.71 95.9609 110.562 95.7783C109.033 93.8881 107.751 92.0272 106.28 90.1634C106.184 90.042 106.386 90.0861 106.201 89.8844C106.105 89.7809 105.676 89.5585 105.481 89.3116C104.799 88.4471 104.282 87.6772 103.56 86.7704C103.321 86.4705 103.013 86.0735 102.705 85.6822C102.499 85.4217 102.299 85.1681 102.123 84.9486C101.924 84.6994 101.651 84.5059 101.447 84.2507C101.164 83.8965 101.372 83.8535 101.338 83.7915C101.194 83.5219 101.004 83.6172 100.835 83.3909C100.513 82.958 100.601 82.8444 100.185 82.3178C99.8818 81.9353 99.1342 81.1205 98.7374 80.6315C98.0172 79.3793 96.9237 77.9308 96.1348 76.8328C95.6703 76.1872 95.7925 76.0125 95.6153 75.7392C94.9933 74.7747 94.3271 74.1631 93.7691 73.2233C93.0364 71.9846 92.57 70.7728 91.9553 69.5297C91.8558 69.3279 91.7204 69.4561 91.6168 69.259C91.2358 68.5343 90.7572 67.6065 90.4765 66.9452C90.1631 66.208 90.2764 65.8334 89.9038 65.1519C89.7949 64.9532 89.561 64.9884 89.3753 64.656C89.0814 64.1289 88.9845 63.447 88.8266 63.0605C88.6096 62.533 88.6122 63.0763 88.3101 62.3725C88.2977 62.3436 88.3974 62.1687 88.318 62.0228C88.0868 61.5983 87.994 61.7024 87.693 61.0679C87.6671 61.0094 87.3877 60.1076 87.3458 60.0278C87.2919 59.9217 87.2274 59.7902 87.1569 59.6456C86.8907 59.1034 86.5898 58.4552 86.4406 58.2194C85.7929 57.2053 85.9986 58.165 86.0234 57.0105C85.7023 56.6633 85.3938 56.3416 85.0646 55.9599C85.309 56.1895 84.9088 54.9683 84.8576 54.8832C84.4547 54.2446 84.4595 54.7499 84.0833 53.8625C85.0553 54.7993 83.6216 52.7256 83.3908 52.2157C82.2546 49.7839 81.4521 47.4609 80.6708 44.7857C80.4112 43.904 80.011 42.6966 79.8159 41.7662C79.7693 41.5502 79.9171 41.6904 79.8786 41.4992C79.8397 41.3096 79.7582 41.5455 79.7192 41.3301C79.6035 40.6842 79.5536 40.1245 79.4569 39.616C79.3354 38.9985 79.1842 38.4097 78.8858 37.8027C78.9151 37.7326 78.9495 37.7269 78.9742 37.6163C78.4751 36.6585 78.4443 34.6261 78.3619 33.8857C78.2276 32.7244 77.9972 32.4634 77.8918 31.6234C77.7527 30.5117 77.8531 28.8059 77.3813 29.6356C77.3187 29.2928 77.2608 28.9558 77.2108 28.6181C77.1491 28.2025 77.1016 27.7844 77.0747 27.3533C77.0693 27.265 77.227 27.3055 77.2254 27.2701C77.2178 27.0461 77.0749 26.9927 77.0498 26.8428C76.9832 26.4411 77.225 27.0807 77.1095 26.5095C77.05 26.2096 76.9089 26.0472 76.8191 25.2032C76.4389 21.548 76.3326 17.7168 76.2979 13.9506C76.2769 12.2379 76.5547 10.5131 77.0368 8.94859C77.1546 8.57097 76.9355 8.77447 77.0994 8.30596C77.5389 7.02132 78.5573 5.21357 79.2147 3.98624C79.5234 3.37767 79.9089 2.91412 80.221 2.5858C81.6927 1.25001 81.2682 1.44465 82.1908 0.827876C82.3687 0.725218 82.2688 0.905773 82.4347 0.831935C83.0312 0.568839 83.6747 0.404147 84.2512 0.280612C85.0485 0.0853264 85.6781 0.105787 86.1769 0.114969C86.8769 0.148023 86.8291 -0.0347791 87.313 0.00596619C87.7625 0.0529039 88.1987 0.220257 88.5584 0.385484C88.8049 0.492674 89.0161 0.604586 89.1802 0.679013C90.2779 1.15927 91.0989 2.01433 91.5522 2.7708C91.9331 3.38544 92.2172 4.02693 92.3951 4.76344C92.4182 4.69272 92.4434 4.64135 92.4673 4.57833C93.0144 6.4017 93.0649 8.14079 92.9646 9.80042C93.0078 9.72433 93.0507 9.65038 93.0937 9.57329C92.9386 11.5302 92.4917 11.2353 93.4005 11.1776C93.4143 11.3235 93.4304 11.479 93.44 11.6183C93.044 11.5174 92.6283 12.3911 92.225 13.5473C92.1643 13.7397 92.0983 13.9296 92.0225 14.1276C91.9948 14.2498 92.0218 15.3167 91.5844 14.9924C91.595 15.2635 91.6021 15.4345 91.594 15.6715C91.251 15.9425 90.8945 16.1727 90.5402 16.3564C90.4324 16.5253 90.3176 16.6893 90.2002 16.8475C90.2545 16.939 90.3475 16.9959 90.3754 17.1121C89.7407 17.845 88.2219 18.7348 87.6827 19.0378C86.3325 19.858 85.0544 20.686 83.9357 20.8406C83.4609 21.0759 84.0178 21.0567 83.2953 21.3376C83.1852 21.2833 83.081 21.2304 82.9693 21.1751C82.9584 21.1704 82.9474 21.1657 82.9364 21.1609C82.4824 21.8478 82.2361 21.6543 81.3262 21.8941C80.7092 22.0517 80.3536 22.2896 79.7747 22.4519C79.6281 22.4924 79.6087 22.3585 79.5112 22.3935C79.1857 22.5126 78.2891 22.9616 78.055 23.0277C76.5395 23.4745 75.18 23.7749 73.8061 24.0516C73.1712 24.1787 72.5836 24.2535 71.9859 24.3196C71.7562 24.3446 72.0701 24.4366 71.8327 24.4617C71.4616 24.4997 71.655 24.2714 71.4364 24.2881C70.8384 24.3312 70.8524 24.5457 70.0266 24.6401C67.311 24.9418 64.2291 24.9718 61.4412 25.1285C61.3541 25.1338 61.3666 25.2583 61.2723 25.2653C60.6561 25.3088 60.022 25.1773 59.4632 25.2125C58.5359 25.2705 57.8498 25.4874 56.936 25.5425C56.417 25.574 55.9113 25.5976 55.4158 25.618C54.1747 25.6694 52.9577 25.6831 51.6144 25.7127C50.0727 25.7432 48.7051 25.7614 46.9835 25.6792C43.932 25.5644 40.8325 25.0198 38.0965 24.8118C33.7969 24.4657 29.5801 24.4494 25.0773 23.9657C24.8843 23.9421 24.9736 23.8393 24.9144 23.8385C24.3473 23.831 24.2764 23.9705 24.111 23.6376C23.6816 23.6238 23.41 23.6844 23.079 23.7061C22.8477 23.7204 22.5864 23.7149 22.2318 23.6455C21.7734 23.5535 22.1777 23.2606 21.381 23.2983C20.6763 23.3306 21.3494 23.6718 19.4394 23.072C19.3895 23.0563 19.1802 22.7869 18.7714 22.7652C18.3631 22.7445 18.789 22.9849 17.8296 22.8544C16.2953 22.6489 14.5416 22.342 12.7311 22.2133C11.7037 22.1422 10.7063 21.9895 9.77617 21.8288C9.57927 21.8053 7.84675 21.5392 7.52906 21.5146C6.89016 21.4732 6.9727 21.6589 6.20219 21.525C5.61631 21.4269 5.19081 21.1465 4.56266 21.0904C4.49194 21.0859 4.344 21.2461 3.92708 21.1866L3.84349 21.1775C3.83108 21.1756 3.81854 21.1737 3.80587 21.1717ZM81.3139 34.5038C81.5292 34.6192 82.2591 34.7556 82.2412 35.7018C82.2399 35.7922 81.6757 35.4247 81.7071 35.9426C81.5539 35.4614 81.4404 34.9844 81.3132 34.5039C81.3134 34.5039 81.3137 34.5038 81.3139 34.5038ZM0.567475 15.913C1.19649 16.1038 1.82765 16.2948 2.45696 16.4856C2.50049 16.4988 2.54379 16.5119 2.58686 16.525C2.54134 16.5217 2.49558 16.5184 2.44961 16.515C2.00526 16.4822 1.56062 16.4493 1.11789 16.4175C0.933773 16.2492 0.751574 16.0812 0.567475 15.913ZM85.6994 16.5121C85.6989 16.5124 85.6983 16.5127 85.6978 16.513C86.2636 16.1038 86.7858 15.6691 87.2178 15.2075C87.208 15.2998 87.1953 15.3937 87.1814 15.487C86.8382 15.8793 86.4365 16.2569 86.0079 16.6161C85.9047 16.5822 85.8017 16.5476 85.6994 16.5121ZM80.7581 19.4666C80.2956 19.5571 80.3563 19.3925 80.0745 19.3579C80.0746 19.3582 80.0747 19.3584 80.0748 19.3586C80.0006 19.3501 79.6977 19.4254 79.5823 19.459C79.6509 19.5229 79.7317 19.5814 79.8042 19.643C78.8323 20.1934 76.6359 20.0996 79.1201 19.0333C79.115 19.1448 79.1109 19.2554 79.1049 19.3671C80.3656 18.9303 81.8382 18.5564 80.7581 19.4666ZM84.1607 45.135C84.8453 46.1171 85.0311 46.4311 85.3162 47.8223C85.1529 47.6703 84.9956 47.5311 84.8316 47.3717C84.8397 47.114 84.8565 46.878 84.8671 46.6185C84.8669 46.6179 84.8667 46.6173 84.8664 46.6166C84.753 46.6082 84.6395 46.5998 84.5268 46.5931C84.3989 46.1144 84.2714 45.6137 84.1607 45.135ZM36.1976 21.6945C35.9225 20.988 35.989 21.3891 36.9421 21.3165C37.2761 21.2921 36.9672 21.1452 37.171 21.1432C38.2799 21.1333 38.3211 21.5993 38.0549 21.8124C37.4373 21.7705 36.8074 21.7298 36.1996 21.6946C36.199 21.6946 36.1983 21.6945 36.1976 21.6945ZM8.15347 18.4412C8.15281 18.4411 8.15216 18.4409 8.1515 18.4408C8.16238 18.2724 8.60097 18.3302 8.15403 18.0624C8.52205 18.1502 8.88673 18.238 9.2514 18.3211C9.14113 18.3121 9.02812 18.3013 8.91727 18.2915C8.99908 18.3691 9.08153 18.4474 9.16348 18.5246C9.33521 18.3672 9.43013 18.5038 9.79836 18.6478C9.73524 18.4256 9.6747 18.2033 9.61438 17.9808C10.0392 18.1368 10.4627 18.2855 10.886 18.421C10.8825 18.4726 10.8791 18.5244 10.8757 18.5761C11.0519 18.5399 11.2244 18.5005 11.3965 18.4598C11.4316 18.5272 11.4655 18.5937 11.5015 18.6609C11.7058 18.6431 11.9086 18.6219 12.1098 18.5965C12.1539 18.7494 11.7115 18.7728 12.4872 18.8093C12.238 18.9415 11.9814 19.0672 11.7173 19.1875C10.5271 19.024 9.34811 18.7383 8.15347 18.4412ZM44.7217 22.4827C43.3962 22.3692 43.7791 22.2968 44.1252 21.9989C44.3192 22.1611 44.5235 22.3229 44.7217 22.4827ZM80.8665 6.76751C80.9133 7.21675 80.9653 7.66155 81.0225 8.10158C80.8468 8.84854 80.211 9.42174 80.248 8.82523C80.3047 8.09705 80.801 7.50278 80.8665 6.76751ZM79.6912 24.4319C79.7083 23.4537 80.0638 24.3405 80.2443 24.5402C80.0154 24.8324 80.0742 25.2006 80.113 25.8005C80.0313 25.2434 79.688 24.593 79.6905 24.432C79.6907 24.432 79.691 24.432 79.6912 24.4319ZM89.8808 7.69721C89.9125 8.06391 89.9847 8.43534 89.9032 8.76886C89.6871 8.66536 89.8759 8.00985 89.5568 8.48183C89.549 8.24941 89.5357 8.01879 89.5155 7.79157C89.6592 7.92867 89.7487 7.72732 89.8801 7.6982C89.8804 7.69787 89.8806 7.69754 89.8808 7.69721ZM57.6934 22.1273C58.4798 22.3413 58.6194 22.2213 59.385 21.9945C59.5069 22.1999 58.6032 22.6102 58.0273 22.7232C57.9169 22.5246 57.8062 22.3258 57.6934 22.1273ZM133.957 113.1C133.653 113.225 132.505 112.493 131.996 112.042C132.085 112.054 132.174 112.067 132.264 112.079C132.825 112.423 133.391 112.765 133.957 113.1ZM80.128 26.0856C80.124 25.9857 80.1189 25.8906 80.113 25.8005C80.1274 25.8998 80.134 25.9958 80.128 26.0856ZM91.8095 65.0316C91.4423 64.845 91.7675 65.754 91.3689 64.6518C91.3687 64.6519 91.3685 64.652 91.3682 64.6521C91.105 63.9243 91.0506 63.7632 90.7668 63.106C91.1731 63.2019 91.8898 64.4675 91.1088 62.6264C91.0978 62.6022 90.9438 62.733 90.8317 62.4312C90.7959 62.3355 90.8102 61.9885 90.6428 61.5299C90.5911 61.3869 90.1294 60.3105 90.8199 61.745C91.0058 61.6039 91.2516 61.5823 91.4503 61.4838C91.7752 62.0185 91.5728 62.6431 91.8592 63.2354C92.2845 64.1137 92.9017 64.3733 92.4414 64.7917C91.9661 64.1095 91.3727 62.8331 91.6177 62.5166C91.2831 61.791 90.9224 61.7149 91.0636 62.3538C92.3861 64.7596 90.9869 63.2177 92.2051 65.2952C92.2919 65.2862 92.414 65.3382 92.478 65.2919C92.5227 66.0775 91.9404 65.0983 91.8095 65.0316ZM89.925 59.5859C90.2925 59.9283 90.6624 60.2808 91.026 60.6295C90.7685 60.7513 90.43 60.6327 89.9522 60.0301C89.9445 59.8835 89.935 59.7342 89.925 59.5859ZM111.451 92.7494C111.615 92.7072 111.838 92.761 112.035 92.7733C112.012 92.9738 114.056 95.6701 112.866 94.4206C112.691 94.2395 111.951 92.8795 111.451 92.7494ZM52.3751 22.6544C52.7862 22.7439 53.1705 22.8319 53.5797 22.9162C52.9661 23.0113 52.3619 23.1019 51.753 23.1853C51.9702 23.0089 52.1653 22.8322 52.3751 22.6544ZM78.8602 12.7887C78.8782 12.6256 79.049 13.1823 79.0655 12.5379C79.1571 13.0201 79.2556 13.4607 79.387 13.9084C79.3891 13.9161 79.3912 13.9239 79.3934 13.9316C79.2948 14.0798 79.1968 14.2283 79.0984 14.3744C79.1647 14.4853 79.2308 14.6004 79.2973 14.7132C79.1497 14.6476 79.0055 14.5886 78.8553 14.5189C78.9466 14.2723 78.9775 14.0811 78.9766 13.914C78.9766 13.546 78.8099 13.2991 78.8602 12.7887ZM90.9805 9.69233C90.6565 9.81472 90.5275 8.63785 90.4146 9.78398C90.2191 9.55204 90.1371 9.2025 90.1176 8.54719C90.1971 8.4414 90.2749 8.33427 90.3521 8.2257C90.137 8.21673 90.0564 8.04719 89.8808 7.69721C89.881 7.69688 89.8812 7.69655 89.8815 7.69622C89.7861 6.72942 89.8362 6.78995 90.1509 6.49498C90.1108 7.56362 90.4088 7.55741 90.6304 8.29732C90.7758 8.80759 90.6865 9.47723 90.9805 9.69233ZM109.231 89.8866C109.917 90.3387 109.692 89.6349 110.305 90.8997C110.197 90.8713 110.089 90.8419 109.98 90.813C109.73 90.505 109.48 90.1963 109.231 89.8866ZM89.3376 13.225C89.548 13.256 89.7707 13.1777 89.8912 13.0337C90.0552 12.8327 90.0397 12.5524 89.6018 12.3963C89.4184 12.7971 89.5426 12.8566 89.5521 12.9591C89.5585 13.0142 89.5224 13.089 89.3376 13.225ZM78.8917 24.1715C78.7953 22.7995 79.3766 23.0201 79.6984 23.5523C79.6048 23.6472 79.5111 23.7417 79.4182 23.8342C79.4849 24.0692 79.5525 24.3016 79.6206 24.535C79.3776 24.4158 79.134 24.2928 78.8917 24.1715ZM68.6111 22.2566C69.6263 21.8147 67.4694 22.1577 68.181 21.8762C68.7425 21.6535 69.5407 21.9345 69.2715 22.1829C69.0674 22.2081 68.8509 22.232 68.6131 22.2564C68.6124 22.2565 68.6118 22.2565 68.6111 22.2566ZM74.5469 21.2873C74.2964 20.9577 74.5632 21.0119 73.7721 21.2558C73.7027 21.2771 73.4786 21.3167 73.2248 21.3648C72.6935 21.4654 71.9651 21.5666 72.535 21.6969C72.7748 21.6575 73.0305 21.6119 73.2674 21.5618C73.691 21.4721 74.1217 21.3808 74.5469 21.2873ZM82.1631 39.6651C82.0872 39.6886 81.8926 39.3866 81.7076 39.0513C81.5099 38.6951 81.337 38.2899 81.3602 38.1857C81.36 38.1857 81.3598 38.1858 81.3595 38.1858C81.4815 37.6435 81.8716 39.113 82.0435 38.3932C82.0513 38.6027 82.0749 38.7879 82.1066 38.9511C82.2999 39.9732 82.7553 40.1879 81.9477 40.2735C81.7224 39.4377 81.9988 39.7954 82.1631 39.6651ZM149.809 120.416C149.81 120.416 149.811 120.416 149.811 120.416C149.715 120.397 148.961 120.047 149.069 119.978C150.003 120.183 149.818 120.317 150.731 120.167C150.77 120.256 150.802 120.342 150.844 120.432C150.486 120.44 150.279 120.516 149.809 120.416ZM113.511 95.8057C113.25 95.5641 112.973 94.9555 112.711 94.6513C114.043 95.2053 114.556 96.762 113.511 95.8057ZM21.2314 20.471C21.2325 20.471 21.2335 20.471 21.2345 20.4709C21.2341 20.4712 21.2337 20.4715 21.2333 20.4718C21.2327 20.4716 21.232 20.4713 21.2314 20.471ZM97.3188 73.7579C97.3056 73.8201 97.2868 73.8625 97.2632 73.8884C97.2606 73.8901 97.2579 73.8918 97.2552 73.8935C97.2771 73.8504 97.2985 73.8058 97.3188 73.7579ZM82.8628 42.5795C82.7799 43.2191 81.9622 41.3539 81.9214 40.696C82.033 40.719 82.1269 40.7064 82.266 40.7839C82.108 41.3559 82.8726 42.4767 82.8628 42.5795ZM87.3157 2.74763C86.5875 2.62349 86.7028 2.43064 87.0473 2.33144C87.3886 2.23436 87.9469 2.32959 87.8782 2.68943C87.8695 2.6961 87.3518 2.74801 87.3157 2.74763ZM80.2302 30.382C79.8961 30.0273 79.9531 30.8409 79.794 29.551C79.852 29.4651 79.9102 29.3793 79.9683 29.2938C80.0545 29.6569 80.142 30.0199 80.2302 30.382ZM79.0728 7.53494C78.4024 9.51748 78.3457 11.4947 79.3529 10.3942C79.3652 10.2462 79.3814 10.0948 79.3983 9.94603C79.0518 9.82563 79.388 9.3421 79.6788 8.58956C79.5805 8.43039 79.7128 7.99612 79.6309 7.87072C79.4714 7.6253 79.1159 8.0575 79.0728 7.53494ZM31.65 22.2099C31.6859 22.1492 31.7212 22.0881 31.7573 22.028C32.0753 21.9759 32.3978 21.9249 32.717 21.8741C32.6582 21.991 32.5995 22.1079 32.5413 22.2249C32.2474 22.2196 31.95 22.2148 31.652 22.2104C31.6514 22.2102 31.6507 22.2101 31.65 22.2099ZM88.339 58.1965C89.0365 58.041 88.6288 57.5377 87.7424 56.5526C87.9312 57.0876 88.1433 57.6613 88.339 58.1965ZM83.456 19.3215C83.3407 19.1574 83.2265 18.9936 83.1098 18.8301C82.5613 19.2854 82.7665 19.4422 83.1684 19.5533C83.265 19.4758 83.3594 19.3991 83.456 19.3215ZM74.0228 22.3746C74.3095 22.3535 74.1336 22.23 74.1633 22.2267C74.8831 22.1518 75.0003 22.2017 75.8343 21.8822C75.9305 21.8164 76.0233 21.7491 76.1189 21.6818C75.6255 21.3782 75.3903 21.6661 74.4967 21.6199C74.6793 21.7234 74.8606 21.827 75.0444 21.9302C74.5696 22.0083 74.0965 22.0829 73.6223 22.1555C73.5761 22.21 73.5295 22.2642 73.483 22.3188C73.6617 22.3372 73.8471 22.3611 74.0228 22.3746ZM28.0127 21.8288C27.5494 21.7857 27.085 21.7403 26.6213 21.6917C26.5974 21.7914 26.5741 21.8919 26.5501 21.9917C27.0384 21.9409 27.5266 21.8857 28.0127 21.8288ZM92.7617 66.6672C92.81 66.6851 92.858 66.7021 92.905 66.7152C92.8632 66.7316 92.8143 66.7102 92.7617 66.6672ZM150.96 121.117C151.481 121.248 152.247 121.277 152.827 121.337C152.801 121.084 151.325 121.02 150.829 120.802C150.742 120.837 150.742 121.062 150.96 121.117ZM78.763 22.2757C78.6275 22.1532 78.4929 22.0298 78.3579 21.9061C78.3507 21.5857 78.3458 21.2646 78.3412 20.9391C78.2371 20.9356 78.1321 20.9322 78.0281 20.9285C78.2464 22.346 77.9309 22.033 77.6861 22.7625C78.0444 22.5992 78.4033 22.4385 78.763 22.2757ZM13.3184 20.4551C14.3276 20.457 14.7019 20.3716 14.1574 20.0068C13.7946 20.0464 13.4259 20.0906 13.0659 20.14C13.1519 20.2448 13.2345 20.3498 13.3184 20.4551ZM102.512 82.5442C103.128 83.1447 102.82 83.4279 103.516 83.9303C103.299 83.5342 103.083 83.1342 102.865 82.7308C102.748 82.6689 102.629 82.6053 102.512 82.5442ZM81.7572 45.837C81.7338 46.2362 82.6036 46.6775 82.484 47.8221C82.7114 47.9978 82.9033 48.0945 83.1192 48.2418C83.0107 48.4118 82.9076 48.6004 82.8008 48.7693C82.8011 48.7699 82.8013 48.7705 82.8016 48.7712C83.2001 49.6333 83.163 48.9846 83.3321 48.9455C83.3997 48.9248 83.5485 49.6129 83.6112 49.3535C83.7172 48.9179 83.0697 47.6582 83.378 47.5452C83.4476 48.0436 83.8805 48.8983 83.9787 48.5561C84.0835 48.1769 83.3964 47.4985 83.3871 46.8823C83.1759 47.83 82.7535 46.1774 83.0773 45.8649C82.4812 45.0195 82.6337 45.9312 82.9898 46.8901C82.4931 46.4007 82.9534 47.211 82.7701 47.4438C82.39 46.8935 81.8261 44.7128 81.7572 45.837ZM85.1693 1.41356C85.0134 1.44589 84.8376 1.48265 84.6491 1.5361C84.0115 1.70581 83.1972 1.93984 82.9109 2.31383C82.7152 2.56683 83.7859 2.21193 83.1818 2.74166C83.7948 2.43966 83.9157 2.31563 83.73 2.1609C83.8691 2.08069 84.0112 2.00312 84.1519 1.92836C84.234 1.94241 84.3171 1.95606 84.3983 1.97137C84.4489 1.86468 84.501 1.75873 84.5513 1.65309C84.5934 1.64405 84.6355 1.6351 84.6777 1.62626C84.8271 1.59201 84.9746 1.56827 85.1184 1.55267C85.1324 1.50621 85.1638 1.46238 85.1693 1.41356ZM118.234 101.484C118.099 101.352 117.965 101.22 117.829 101.087C117.808 101.138 117.789 101.192 117.769 101.246C117.752 101.287 117.735 101.328 117.718 101.369C117.744 101.188 117.284 100.375 116.906 100.212C116.717 100.129 116.823 100.637 116.221 100.087C116.642 100.501 117.049 100.862 117.468 101.253C117.374 101.274 117.28 101.298 117.185 101.319C117.185 101.32 117.185 101.32 117.185 101.32C117.305 101.469 117.426 101.619 117.547 101.767C117.777 101.674 118.005 101.578 118.234 101.484ZM84.1219 19.458C84.6571 19.0496 84.8209 18.8806 84.4334 18.7671C84.4327 18.7672 84.4321 18.7674 84.4314 18.7676C84.2571 18.9718 84.0808 19.1749 83.9041 19.3772C83.976 19.4044 84.0482 19.4316 84.1219 19.458ZM94.5625 72.0329C96.1128 72.747 94.0493 70.3346 94.0455 71.0118C94.0422 71.0417 94.5926 71.8679 94.5625 72.0329ZM78.6102 24.4513C78.5667 24.0764 78.5264 23.6967 78.488 23.32C78.3731 23.4173 78.2589 23.5155 78.1443 23.6133C78.298 23.8952 78.4537 24.1738 78.6102 24.4513ZM17.5959 21.4329C17.9311 21.766 18.8863 22.0482 19.4288 21.8563C19.181 21.7709 18.9364 21.6868 18.6898 21.6039C19.1742 21.6625 19.6557 21.7221 20.1478 21.7903C20.2511 21.4236 19.6452 21.5211 18.8275 21.2549C18.7025 21.2122 17.9532 20.5918 17.6035 20.895C17.5334 20.956 18.407 21.162 17.7572 21.2625C18.0221 21.3262 18.252 21.3647 18.5043 21.4219C18.5058 21.5145 18.5069 21.6071 18.51 21.7C18.2034 21.6082 17.9025 21.5194 17.5959 21.4329ZM81.193 3.36987C80.5104 4.03822 80.5113 4.40966 80.5839 4.64638C80.6053 4.69596 80.6315 4.74491 80.6601 4.79789C80.6729 4.76578 80.6857 4.73368 80.6985 4.7016C80.8738 4.27123 81.1422 3.87767 81.4572 3.54497C81.3695 3.48628 81.2832 3.42651 81.193 3.36987ZM25.9359 22.8901C26.4533 22.9738 26.2453 22.7382 26.4579 22.7121C27.254 22.6111 27.7776 22.7976 28.5553 22.7431C28.5025 22.7825 28.452 22.8192 28.4003 22.8573C28.401 22.8574 28.4017 22.8574 28.4024 22.8575C32.0333 23.2404 30.1534 22.6428 27.9638 22.601C27.9172 22.5168 27.8728 22.4326 27.8267 22.349C26.8408 22.4349 25.9251 22.5011 25.9359 22.8901ZM89.1412 61.0651C89.1132 61.1241 88.6706 60.9543 89.0925 61.4739C89.7459 61.7388 89.1621 61.0711 89.23 60.7999C89.3499 60.9407 89.4686 61.0831 89.5863 61.2217C89.2389 60.2053 89.065 60.1192 88.9281 60.6165C88.9204 60.6525 89.1692 61.0064 89.1412 61.0651ZM91.9278 67.5483C92.6179 67.3813 91.7522 66.2843 91.5785 66.4194C91.6504 66.5935 91.8199 66.6771 91.8577 66.8792C91.8969 67.0838 91.7717 67.2002 91.9278 67.5483ZM78.8511 30.8759C78.8544 30.9158 78.6319 31.3603 78.8513 31.2832C79.3029 30.7039 78.8006 29.7757 78.6419 29.977C78.7035 30.3022 78.8191 30.5072 78.8503 30.876C78.8506 30.876 78.8508 30.8759 78.8511 30.8759ZM11.492 20.9186C11.5049 20.9467 12.5633 21.1716 12.7114 21.0626C12.7452 21.0305 12.7746 20.9973 12.8012 20.9636C12.8647 20.8754 12.9127 20.7838 12.9744 20.6954C12.9254 20.7031 12.872 20.7089 12.8153 20.7134C12.1973 20.7635 11.2651 20.5902 11.4942 20.9188C11.4935 20.9187 11.4928 20.9186 11.492 20.9186Z" fill="#130554"/>
</svg>
