<svg width="28" height="32" viewBox="0 0 28 32" fill="none" xmlns="http://www.w3.org/2000/svg">
<path id="Vector" d="M27.3124 25.338C27.189 25.1971 27.0383 25.0829 26.8693 25.0022C26.7003 24.9214 26.5167 24.876 26.3296 24.8685C26.1425 24.861 25.9558 24.8917 25.781 24.9586C25.6061 25.0256 25.4467 25.1274 25.3124 25.258C25.5324 24.8621 25.5932 24.3972 25.4824 23.958C25.3864 23.2644 25.184 22.5898 24.8824 21.958C24.2395 20.7597 23.3209 19.7315 22.2024 18.958C21.3836 18.3526 20.6957 17.5878 20.1802 16.7096C19.6646 15.8314 19.332 14.858 19.2024 13.848C19.0418 12.3837 18.6748 10.9495 18.1124 9.58798C16.8424 7.02798 14.1124 5.58798 11.4824 4.84798C9.64704 4.42366 7.7814 4.14281 5.90243 4.00798C3.66243 3.77798 0.412427 3.32798 0.392427 0.33798C0.392427 0.18798 0.252427 0.25798 0.252427 0.33798C0.152427 3.26798 3.17243 4.06798 5.53243 4.33798C9.17243 4.79798 13.1724 5.11798 16.0424 7.69798C17.5475 9.14002 18.4754 11.0811 18.6524 13.158C18.7877 14.5009 19.1249 15.8157 19.6524 17.058C20.3804 18.2574 21.3637 19.2817 22.5324 20.058C23.3358 20.7194 23.9836 21.5498 24.4295 22.4901C24.8754 23.4303 25.1086 24.4573 25.1124 25.498C24.9572 25.688 24.8505 25.9129 24.8017 26.1533C24.7529 26.3938 24.7635 26.6425 24.8324 26.878C24.8824 27.048 25.0224 26.878 25.0224 26.748C25.4624 26.288 25.8924 25.818 26.3324 25.348L26.8924 25.578L27.3124 27.018L27.0224 27.588C26.7424 28.128 26.4324 28.658 26.1324 29.188C25.8324 29.718 25.6524 30.498 25.1324 30.388C24.7924 30.318 23.9724 28.988 23.7624 28.738L22.5424 27.268C22.3924 27.088 22.0724 26.828 21.9924 26.598C21.8424 26.198 21.9924 25.538 22.4024 25.448C23.3424 25.218 24.0624 27.008 24.6324 27.548C24.7324 27.638 24.8424 27.348 24.7724 27.268C24.2524 26.708 22.5624 23.658 21.4924 25.458C21.1424 26.038 21.4924 26.618 21.8724 27.078C22.8724 28.468 24.1124 29.778 25.2224 31.078C25.2824 31.158 25.3824 31.078 25.4224 31.078C26.2368 29.8448 26.9492 28.5471 27.5524 27.198C27.6967 26.898 27.7508 26.5625 27.7082 26.2324C27.6656 25.9022 27.5281 25.5915 27.3124 25.338Z" fill="#E8CC33" stroke="#E8CC33" stroke-width="0.5" stroke-miterlimit="10"/>
</svg>
