<svg width="38" height="38" viewBox="0 0 38 38" fill="none" xmlns="http://www.w3.org/2000/svg">
<g clip-path="url(#clip0_1245_387)">
<path d="M18.9979 38.0214C16.8068 38.0214 14.7268 37.073 12.9756 35.283C11.2167 33.3999 9.99543 31.0792 9.43914 28.563C6.93111 28.003 4.61869 26.7817 2.74205 25.0257C0.952456 23.2785 0 21.1937 0 18.9979C0 16.802 0.948185 14.7258 2.73778 12.9743C4.61562 11.2177 6.92959 9.99626 9.43914 9.43699C9.99801 6.92803 11.2192 4.61485 12.9756 2.73839C14.7225 0.948398 16.8068 0 18.9979 0C21.1889 0 23.269 0.948398 25.0244 2.73839C26.7808 4.61485 28.002 6.92803 28.5609 9.43699C31.0689 9.99697 33.3813 11.2183 35.258 12.9743C37.0475 14.7215 37.9957 16.8191 37.9957 18.9979C37.9957 21.1766 37.0475 23.2699 35.258 25.0257C33.3813 26.7817 31.0689 28.003 28.5609 28.563C28.001 31.0716 26.7799 33.3845 25.0244 35.2616C23.2775 37.0516 21.1932 38.0214 18.9979 38.0214ZM18.9979 0.602361C16.9648 0.602361 15.0257 1.48668 13.3899 3.1656C11.6808 5.01846 10.5007 7.29654 9.97302 9.76166L9.93458 9.93682L9.7552 9.97954C7.29062 10.5074 5.01306 11.6877 3.16062 13.3972C1.48207 15.0334 0.597954 16.9729 0.597954 19.0064C0.597954 21.0399 1.48207 22.9837 3.16062 24.6199C5.01306 26.3294 7.29062 27.5097 9.7552 28.0375L9.93458 28.076L9.97302 28.2512C10.5012 30.7174 11.6812 32.9967 13.3899 34.8515C15.0257 36.5261 16.9648 37.4147 18.9979 37.4147C21.0309 37.4147 22.9743 36.5261 24.6101 34.8515C26.3188 32.9967 27.4988 30.7174 28.027 28.2512L28.0654 28.076L28.2448 28.0375C30.7094 27.5097 32.9869 26.3294 34.8394 24.6199C36.5179 22.9837 37.402 21.0399 37.402 19.0064C37.402 16.9729 36.5179 15.0334 34.8394 13.3972C32.9869 11.6877 30.7094 10.5074 28.2448 9.97954L28.0654 9.93682L28.027 9.76166C27.4993 7.29654 26.3192 5.01846 24.6101 3.1656C22.9743 1.46532 21.0352 0.581001 18.9979 0.581001V0.602361Z" fill="white"/>
<path d="M19.0748 18.9808H18.9722C18.9648 18.9817 18.9577 18.9846 18.9517 18.9891C18.9457 18.9936 18.941 18.9996 18.9381 19.0065H19.0363C19.0445 19.0063 19.0525 19.0038 19.0593 18.9993C19.0661 18.9948 19.0715 18.9883 19.0748 18.9808Z" fill="white"/>
<path d="M22.5343 32.6941C22.09 32.7091 21.6471 32.6356 21.2314 32.4779C20.8156 32.3202 20.4354 32.0815 20.1126 31.7757L18.9979 30.6606L17.8447 31.8184L17.7251 31.9252C16.4437 33.0188 14.2655 32.9248 12.2837 31.6945L12.0573 31.5535L11.8309 31.6945C9.73384 32.9761 7.48297 33.0316 6.22726 31.7757C4.97156 30.5197 5.00573 28.2683 6.30841 26.1707L6.44936 25.9443L6.30841 25.7179C5.02708 23.6203 4.97156 21.3689 6.22726 20.1129L7.34202 18.9979L6.18455 17.8402C4.97583 16.5799 5.02708 14.3456 6.30841 12.2865L6.44936 12.0601L6.30841 11.8337C5.02708 9.73608 4.97156 7.48471 6.22726 6.22872C7.48297 4.97273 9.73384 5.00691 11.8309 6.30989L12.0573 6.45087L12.2837 6.30989C14.3466 5.02827 16.5761 4.977 17.8361 6.18173L18.9936 7.34373L20.1511 6.186C21.4324 4.977 23.6491 5.024 25.7035 6.30989L25.9299 6.45087L26.1562 6.30989C28.2533 5.02827 30.5042 4.97273 31.7599 6.22872C33.0156 7.48471 32.9814 9.73608 31.6788 11.8337L31.5378 12.0601L31.6788 12.2865C32.9601 14.3456 33.0113 16.5586 31.8069 17.8402L30.6452 18.9979L31.7984 20.1556L31.9094 20.2753C33.0028 21.5569 32.9088 23.7356 31.6788 25.7179L31.5378 25.9443L31.6788 26.1707C32.9601 28.2683 33.0156 30.5197 31.7599 31.7757C30.5042 33.0316 28.2533 32.9975 26.1562 31.6945L25.9299 31.5535L25.7035 31.6945C24.7592 32.3131 23.6626 32.659 22.5343 32.6941ZM18.9979 30.4342L20.2279 31.6646C21.4281 32.865 23.6021 32.8223 25.6352 31.5578L25.9427 31.3655L26.2545 31.5578C28.2875 32.8394 30.4572 32.865 31.6617 31.6646C32.8661 30.4641 32.8191 28.2897 31.5549 26.2562L31.3627 25.9443L31.5549 25.6324C32.7508 23.71 32.8362 21.5996 31.8026 20.3778L31.7001 20.2667L30.4188 18.9851L31.7001 17.7035C32.8533 16.4945 32.7935 14.3371 31.5506 12.3378L31.3584 12.0302L31.5506 11.7183C32.832 9.68482 32.8576 7.51034 31.6574 6.30989C30.4572 5.10944 28.2832 5.15216 26.2502 6.41242L25.9384 6.60893L25.6266 6.43805C23.6235 5.19488 21.4666 5.15643 20.2578 6.29707L20.2279 6.32698L18.9893 7.5616L17.708 6.27998C16.4993 5.12653 14.3466 5.18634 12.3435 6.42523L12.036 6.62175L11.7242 6.42523C9.69113 5.14361 7.5214 5.12225 6.31695 6.3227C5.1125 7.52315 5.15949 9.69763 6.42373 11.7311L6.61593 12.043L6.42373 12.3506C5.17657 14.3542 5.12105 16.5116 6.27851 17.7206L6.30841 17.7505L7.54276 18.9851L6.31695 20.2112C5.11677 21.4159 5.15949 23.5861 6.42373 25.6196L6.61593 25.9315L6.42373 26.2433C5.1424 28.2768 5.11677 30.447 6.31695 31.6518C7.51713 32.8565 9.69113 32.8095 11.7242 31.545L12.036 31.3527L12.3435 31.545C14.2655 32.7411 16.3797 32.8266 17.5969 31.7927L17.7123 31.6902L18.9979 30.4342Z" fill="white"/>
<path d="M27.335 20.3394C28.0991 20.1961 28.7944 19.804 29.3126 19.2243C29.3937 19.1474 29.4621 19.0706 29.5176 19.0065C29.4635 18.9438 29.3951 18.8712 29.3126 18.7886C28.7957 18.2041 28.1007 17.8062 27.335 17.6565C27.335 17.6565 27.2923 15.8921 26.8866 15.0933C26.8866 15.0933 26.1605 17.3404 21.4537 18.7929C21.2103 18.8698 20.954 18.9424 20.6892 19.0107L21.4537 19.2286C26.1519 20.6811 26.8866 22.9282 26.8866 22.9282C27.3051 22.108 27.335 20.3394 27.335 20.3394Z" fill="white"/>
<path d="M10.6521 20.3392C9.89265 20.1933 9.20226 19.8015 8.68743 19.2242C8.60628 19.1473 8.53795 19.0704 8.48242 19.0064C8.53937 18.9437 8.60771 18.8711 8.68743 18.7885C9.20222 18.2096 9.89221 17.815 10.6521 17.6649C10.6521 17.6649 10.6949 15.9006 11.0793 15.1017C11.0793 15.1017 11.8053 17.3488 16.5121 18.8013C16.7555 18.8782 17.0118 18.9508 17.2766 19.0192L16.5334 19.2242C11.8267 20.6682 11.1049 22.9153 11.1049 22.9153C10.6778 22.1079 10.6521 20.3392 10.6521 20.3392Z" fill="white"/>
<path d="M17.6567 27.3412C17.8103 28.1053 18.2092 28.7984 18.7929 29.3149C18.874 29.396 18.9509 29.4644 19.015 29.5199C19.0747 29.4644 19.1516 29.396 19.2328 29.3149C19.807 28.7947 20.1967 28.102 20.3433 27.3412C20.3433 27.3412 22.1072 27.2985 22.9059 26.914C22.9059 26.914 20.6551 26.1877 19.2072 21.4799C19.1303 21.2364 19.0577 20.9801 18.9893 20.7152C18.9167 20.9801 18.8441 21.2364 18.7672 21.4799C17.3321 26.1749 15.0813 26.914 15.0813 26.914C15.8928 27.307 17.6567 27.3412 17.6567 27.3412Z" fill="white"/>
<path d="M17.6567 10.6503C17.812 9.88802 18.2107 9.19683 18.7929 8.68089L19.015 8.4801L19.2328 8.68089C19.8102 9.19868 20.2043 9.88966 20.3561 10.6503C20.3561 10.6503 22.12 10.693 22.9187 11.0989C22.9187 11.0989 20.6679 11.8251 19.22 16.5329C19.1431 16.7765 19.0705 17.0328 19.0021 17.2976C18.9295 17.0328 18.8569 16.7765 18.78 16.5329C17.3321 11.8251 15.0813 11.1074 15.0813 11.1074C15.8928 10.6802 17.6567 10.6503 17.6567 10.6503Z" fill="white"/>
<path d="M21.2829 16.9259L21.2231 16.849C21.1991 16.8271 21.1734 16.8071 21.1462 16.7892C20.9626 16.6568 20.6764 16.5799 20.3603 16.9515C20.0223 17.4629 19.7362 18.0067 19.5061 18.5749L19.442 18.7202L19.5873 18.6561C20.1553 18.426 20.699 18.1398 21.2103 17.8017C21.4922 17.4001 21.4153 17.1139 21.2829 16.9259Z" fill="white"/>
<path d="M16.9307 21.2834C16.9035 21.2655 16.8778 21.2455 16.8538 21.2236H16.8281C16.8062 21.1996 16.7862 21.1739 16.7684 21.1467C16.6359 20.963 16.5591 20.6768 16.9307 20.3606C17.4419 20.0225 17.9856 19.7363 18.5537 19.5062L18.6989 19.4379C18.6989 19.4806 18.6605 19.5319 18.6348 19.5874C18.4039 20.1552 18.1178 20.6989 17.7806 21.2108C17.4005 21.4927 17.1143 21.4116 16.9307 21.2834Z" fill="white"/>
<path d="M21.0694 21.2834C21.0965 21.2655 21.1222 21.2455 21.1462 21.2236H21.1719C21.1938 21.1996 21.2138 21.1739 21.2317 21.1467C21.3641 20.963 21.4409 20.6768 21.0694 20.3606C20.5581 20.0225 20.0144 19.7363 19.4463 19.5062L19.3011 19.4379C19.3011 19.4806 19.3396 19.5319 19.3652 19.5874C19.5961 20.1552 19.8823 20.6989 20.2194 21.2108C20.5995 21.4927 20.8857 21.4116 21.0694 21.2834Z" fill="white"/>
<path d="M16.7171 16.9259L16.7769 16.849C16.8009 16.8271 16.8266 16.8071 16.8538 16.7892C17.0374 16.6568 17.3236 16.5799 17.6396 16.9515C17.9777 17.4629 18.2638 18.0067 18.4939 18.5749L18.5579 18.7202L18.4127 18.6561C17.8446 18.426 17.3009 18.1398 16.7897 17.8017C16.5078 17.4001 16.5847 17.1139 16.7171 16.9259Z" fill="white"/>
<path d="M25.9 12.5984C25.9384 12.4745 25.9726 12.3634 25.9939 12.278L25.6736 12.3719C24.6036 12.6739 23.6173 13.2176 22.7906 13.9611C22.3064 14.5152 21.9493 15.1684 21.7442 15.875C21.6458 16.1709 21.5631 16.4718 21.4965 16.7764C21.801 16.7098 22.1018 16.6271 22.3977 16.5287C23.1051 16.3237 23.7585 15.9648 24.3111 15.4777C25.0517 14.6505 25.5949 13.666 25.9 12.5984Z" fill="white"/>
<path d="M12.1 12.5984C12.0616 12.4745 12.0274 12.3634 12.0061 12.278L12.3264 12.3719C13.3964 12.6739 14.3827 13.2176 15.2094 13.9611C15.6936 14.5152 16.0507 15.1684 16.2558 15.875C16.3542 16.1709 16.4369 16.4718 16.5035 16.7764C16.199 16.7098 15.8982 16.6271 15.6023 16.5287C14.8949 16.3237 14.2415 15.9648 13.6889 15.4777C12.9483 14.6505 12.4051 13.666 12.1 12.5984Z" fill="white"/>
<path d="M25.9 25.4017C25.9384 25.5256 25.9726 25.6324 25.9939 25.7221L25.6736 25.6324C24.6052 25.3265 23.6197 24.7833 22.7906 24.0432C22.3064 23.4892 21.9493 22.836 21.7442 22.1293C21.6463 21.8333 21.5637 21.5324 21.4965 21.2279C21.801 21.2946 22.1018 21.3773 22.3977 21.4757C23.1042 21.6808 23.7572 22.0381 24.3111 22.5223C25.0505 23.3504 25.5936 24.3346 25.9 25.4017Z" fill="white"/>
<path d="M12.1 25.4017C12.0616 25.5256 12.0274 25.6324 12.0061 25.7221L12.3264 25.6281C13.3948 25.3222 14.3803 24.779 15.2094 24.0389C15.6936 23.4849 16.0507 22.8317 16.2558 22.125C16.3537 21.829 16.4363 21.5281 16.5035 21.2236C16.199 21.2903 15.8982 21.373 15.6023 21.4714C14.8958 21.6766 14.2428 22.0338 13.6889 22.5181C12.949 23.3474 12.4059 24.3331 12.1 25.4017Z" fill="white"/>
<path d="M30.8075 18.9979C30.8083 19.0996 30.7789 19.1993 30.7229 19.2843C30.6669 19.3693 30.5869 19.4356 30.493 19.475C30.3992 19.5143 30.2958 19.5248 30.196 19.5052C30.0962 19.4855 30.0045 19.4366 29.9325 19.3646C29.8606 19.2927 29.8117 19.201 29.7921 19.1011C29.7724 19.0013 29.7829 18.8979 29.8222 18.804C29.8616 18.7102 29.9279 18.6301 30.0129 18.5741C30.0978 18.5181 30.1975 18.4887 30.2992 18.4895C30.434 18.4895 30.5633 18.5431 30.6586 18.6384C30.7539 18.7338 30.8075 18.8631 30.8075 18.9979Z" fill="white"/>
<path d="M8.21333 18.9979C8.21983 19.0688 8.21146 19.1404 8.18876 19.2079C8.16607 19.2755 8.12954 19.3376 8.08151 19.3902C8.03348 19.4428 7.97501 19.4849 7.90983 19.5137C7.84464 19.5424 7.77418 19.5573 7.70293 19.5573C7.63168 19.5573 7.56122 19.5424 7.49604 19.5137C7.43085 19.4849 7.37238 19.4428 7.32435 19.3902C7.27632 19.3376 7.2398 19.2755 7.2171 19.2079C7.1944 19.1404 7.18604 19.0688 7.19253 18.9979C7.20419 18.8705 7.26301 18.7522 7.35744 18.666C7.45186 18.5798 7.57509 18.532 7.70293 18.532C7.83077 18.532 7.954 18.5798 8.04843 18.666C8.14286 18.7522 8.20167 18.8705 8.21333 18.9979Z" fill="white"/>
<path d="M19.0021 30.8101C18.9004 30.8109 18.8007 30.7815 18.7158 30.7255C18.6309 30.6694 18.5645 30.5894 18.5252 30.4956C18.4859 30.4017 18.4754 30.2983 18.495 30.1985C18.5146 30.0986 18.5635 30.0069 18.6355 29.9349C18.7074 29.863 18.7991 29.8141 18.8989 29.7944C18.9988 29.7748 19.1022 29.7853 19.196 29.8246C19.2898 29.864 19.3698 29.9303 19.4258 30.0153C19.4818 30.1002 19.5112 30.1999 19.5104 30.3017C19.5104 30.4365 19.4568 30.5658 19.3615 30.6612C19.2662 30.7565 19.1369 30.8101 19.0021 30.8101Z" fill="white"/>
<path d="M19.0021 8.21095C18.901 8.21178 18.8018 8.18263 18.7172 8.12719C18.6325 8.07174 18.5662 7.99247 18.5265 7.89938C18.4868 7.80628 18.4755 7.70351 18.4942 7.60403C18.5128 7.50455 18.5604 7.41281 18.631 7.34036C18.7017 7.26791 18.7922 7.218 18.8912 7.19692C18.9901 7.17583 19.0931 7.18452 19.1872 7.22188C19.2812 7.25925 19.3621 7.32361 19.4196 7.40687C19.4771 7.49013 19.5087 7.58856 19.5104 7.68976C19.5115 7.75743 19.4993 7.82467 19.4743 7.88758C19.4493 7.95048 19.4121 8.00782 19.3648 8.05627C19.3176 8.10473 19.2612 8.14334 19.199 8.16989C19.1367 8.19644 19.0698 8.21039 19.0021 8.21095Z" fill="white"/>
<path d="M11.6559 11.5986C12.9799 12.0258 14.5175 11.5046 15.3973 9.54802C15.4142 9.46994 15.4355 9.39291 15.4614 9.31733C15.4956 9.22762 15.534 9.14645 15.5725 9.06101C15.6841 8.66313 15.7002 8.24448 15.6194 7.8392C15.6194 7.75803 15.581 7.68113 15.5554 7.59996L15.5084 7.4718C15.4021 7.18947 15.2326 6.93521 15.0129 6.72846C14.958 6.6769 14.8978 6.63109 14.8336 6.59176L14.7738 6.54476C14.6928 6.49373 14.6087 6.44806 14.5218 6.40806C14.4399 6.36449 14.3541 6.32873 14.2655 6.30126C14.0816 6.25145 13.8888 6.24415 13.7017 6.2799C13.5149 6.29715 13.3355 6.36185 13.1806 6.46787C13.0237 6.5821 12.8804 6.71398 12.7535 6.8609C12.6895 6.94207 12.6382 7.02751 12.5827 7.11295C12.5333 7.18745 12.4904 7.26606 12.4545 7.34791C12.3839 7.51033 12.342 7.68379 12.3307 7.86056C12.3105 8.24775 12.4153 8.63118 12.6297 8.95421C12.7401 9.10734 12.8869 9.23065 13.0568 9.31306C13.2025 9.38417 13.3655 9.41232 13.5266 9.39423C13.6076 9.3842 13.6867 9.36262 13.7615 9.33015C13.8412 9.28535 13.9169 9.2339 13.9879 9.17635C14.0753 9.11923 14.1532 9.04857 14.2185 8.96702C14.2765 8.89197 14.3253 8.81021 14.3637 8.72352C14.4458 8.55367 14.4884 8.36747 14.4884 8.17883C14.4884 7.99019 14.4458 7.80398 14.3637 7.63414C14.3193 7.55195 14.2527 7.48387 14.1715 7.43762C14.0913 7.3875 14.0052 7.34733 13.9153 7.31801H13.8256C13.8429 7.29832 13.8614 7.27977 13.8811 7.26247C14.163 7.14285 14.4107 7.41626 14.5517 7.6256C14.7193 7.86533 14.8196 8.14562 14.8421 8.43729C14.8436 8.78744 14.7647 9.13327 14.6114 9.44807C14.4581 9.76288 14.2345 10.0382 13.958 10.2529C13.696 10.488 13.3847 10.6615 13.0469 10.7605C12.7092 10.8596 12.3535 10.8817 12.0061 10.8254C11.5473 10.7091 11.1356 10.454 10.8273 10.0948C10.4691 9.67567 10.2145 9.17811 10.0841 8.64235C9.94622 8.11659 9.92291 7.56733 10.0157 7.03178C10.1084 6.64154 10.252 6.26521 10.4429 5.9125C10.4449 5.88263 10.4449 5.85265 10.4429 5.82279C10.4429 5.73734 10.3873 5.60918 10.2848 5.64336C10.2027 5.67164 10.1239 5.70889 10.0499 5.75443C9.96877 5.8057 9.87907 5.84842 9.80219 5.90823C9.67412 6.03437 9.56481 6.17824 9.47759 6.33543C9.37524 6.49259 9.30015 6.66591 9.25549 6.84808C9.22338 7.01457 9.20198 7.18295 9.19143 7.35218C9.03497 8.23708 9.19656 9.1488 9.6476 9.92598C10.0986 10.7032 10.81 11.2957 11.6559 11.5986Z" fill="white"/>
<path d="M10.6222 9.72326C11.3056 9.93687 12.0958 9.67627 12.5485 8.66806C12.5485 8.62962 12.5485 8.58689 12.5827 8.54845C12.6168 8.51 12.6211 8.45873 12.6382 8.41601C12.6987 8.21205 12.7075 7.99623 12.6638 7.78802C12.6638 7.74957 12.6638 7.70685 12.6296 7.66413L12.6083 7.60005C12.5546 7.45439 12.4684 7.3229 12.3563 7.21556L12.2666 7.14294H12.2324C12.1891 7.11593 12.1433 7.09304 12.0958 7.07458C12.0547 7.0525 12.0118 7.03392 11.9676 7.01905C11.8706 6.99761 11.77 6.99761 11.6729 7.01905C11.5779 7.02968 11.487 7.06342 11.4081 7.1173C11.3247 7.17639 11.2487 7.24523 11.1817 7.32236C11.1518 7.36081 11.1262 7.40353 11.0963 7.45053C11.071 7.48891 11.0482 7.52886 11.028 7.57014C10.9906 7.65358 10.9703 7.74362 10.9682 7.83501C10.9605 8.02121 11.008 8.20553 11.1049 8.36475C11.1614 8.44117 11.2344 8.50394 11.3184 8.54845C11.394 8.58491 11.4787 8.59829 11.5619 8.58689C11.602 8.58207 11.6409 8.57052 11.6772 8.55272C11.7204 8.53272 11.7606 8.50684 11.7968 8.47582C11.8424 8.4472 11.8828 8.4111 11.9164 8.36902C11.9455 8.32932 11.9699 8.2863 11.989 8.24086C12.0312 8.15439 12.0532 8.05942 12.0532 7.96317C12.0532 7.86693 12.0312 7.77195 11.989 7.68549C11.9667 7.6426 11.9326 7.60701 11.8907 7.58296C11.8502 7.55484 11.8055 7.53322 11.7583 7.51888H11.7156L11.7583 7.49325C11.9036 7.43344 12.0317 7.57442 12.1043 7.68122C12.1936 7.80656 12.2455 7.95472 12.2538 8.10842C12.2546 8.28901 12.2138 8.46736 12.1346 8.62962C12.0553 8.79188 11.9397 8.93368 11.7968 9.044C11.6619 9.16467 11.5018 9.25374 11.3282 9.30473C11.1546 9.35572 10.9718 9.36736 10.7931 9.33878C10.5585 9.27833 10.3482 9.14707 10.1908 8.96284C10.0042 8.74835 9.87232 8.49183 9.80644 8.21522C9.7353 7.94468 9.72364 7.66193 9.77227 7.38644C9.81835 7.18592 9.89316 6.99311 9.99437 6.81399C9.99437 6.81399 9.99437 6.77981 9.99437 6.767C9.99437 6.75418 9.96874 6.65592 9.91322 6.67301C9.87046 6.68654 9.83011 6.70673 9.79363 6.73282C9.74946 6.75594 9.70667 6.78161 9.66549 6.80972C9.59943 6.87364 9.54328 6.94707 9.49892 7.02759C9.45384 7.10068 9.41933 7.17979 9.39642 7.26255C9.37506 7.348 9.37506 7.43771 9.36225 7.52315C9.27696 7.97979 9.35689 8.45187 9.58774 8.85496C9.81858 9.25805 10.1853 9.56584 10.6222 9.72326Z" fill="white"/>
<path d="M7.29076 9.25331C7.12419 9.27894 6.94907 9.27894 6.7825 9.32166C6.60051 9.36461 6.42718 9.43829 6.26997 9.53954C6.1125 9.62804 5.96864 9.73883 5.84286 9.86848C5.78515 9.94689 5.73374 10.0297 5.6891 10.1163C5.64109 10.1874 5.60368 10.2651 5.57805 10.347C5.54388 10.4538 5.67201 10.5093 5.75744 10.505H5.84713C6.19981 10.3142 6.57604 10.1705 6.96616 10.0778C7.50047 9.98644 8.0482 10.0112 8.57209 10.1504C9.10841 10.2791 9.60628 10.5339 10.0243 10.8938C10.385 11.1997 10.6417 11.6103 10.7589 12.0686C10.8147 12.4164 10.7919 12.7724 10.6921 13.1102C10.5923 13.4481 10.4181 13.7592 10.1823 14.0209C9.96924 14.2993 9.69426 14.5241 9.37916 14.6776C9.06407 14.8311 8.71754 14.9091 8.36708 14.9052C8.07732 14.8834 7.79864 14.7846 7.55984 14.619C7.35056 14.4738 7.07721 14.226 7.1968 13.944C7.20972 13.9133 7.22698 13.8845 7.24805 13.8586C7.24357 13.8869 7.24357 13.9157 7.24805 13.944C7.27649 14.0357 7.31669 14.1233 7.36764 14.2046C7.41673 14.2851 7.48591 14.3513 7.56838 14.3969C7.78317 14.4909 8.01884 14.527 8.25191 14.5015C8.48498 14.476 8.7073 14.3899 8.8967 14.2516C8.97965 14.1865 9.05173 14.1087 9.11025 14.0209C9.16551 13.9477 9.21547 13.8706 9.25974 13.7902C9.29342 13.7173 9.31505 13.6394 9.32381 13.5595C9.34555 13.3974 9.3188 13.2324 9.24693 13.0853C9.16309 12.9164 9.04008 12.7699 8.88815 12.6581C8.56481 12.4449 8.18142 12.3416 7.79475 12.3634C7.61652 12.3706 7.44122 12.4111 7.27795 12.483C7.1965 12.5213 7.11798 12.5656 7.04304 12.6154C6.95622 12.666 6.8734 12.7231 6.79531 12.7863C6.64831 12.9229 6.51786 13.0763 6.40664 13.2434C6.30354 13.3982 6.2391 13.5755 6.21871 13.7603C6.18516 13.9491 6.19244 14.1428 6.24007 14.3285C6.27125 14.4143 6.30689 14.4985 6.34685 14.5806C6.38584 14.6713 6.43005 14.7598 6.47925 14.8454L6.52623 14.9095C6.56806 14.9707 6.61371 15.0292 6.66291 15.0847C6.87198 15.3036 7.12737 15.4729 7.41035 15.5802L7.53849 15.6272C7.61694 15.6531 7.69679 15.6745 7.77767 15.6913C8.1813 15.7737 8.59885 15.7576 8.99493 15.6443L9.25547 15.5332C9.32975 15.5079 9.40531 15.4865 9.48184 15.4692C11.4594 14.5678 11.9591 13.0298 11.532 11.7012C11.2261 10.8592 10.633 10.1521 9.85726 9.70435C9.08148 9.2566 8.17267 9.09688 7.29076 9.25331Z" fill="white"/>
<path d="M7.48724 9.39859C7.39987 9.40552 7.31291 9.41693 7.2267 9.43277C7.13253 9.45375 7.04286 9.49137 6.96189 9.54384C6.88125 9.58973 6.80784 9.64732 6.74407 9.71472C6.71451 9.7558 6.68741 9.7986 6.66292 9.84288C6.64015 9.87914 6.62153 9.91783 6.60739 9.95823C6.60739 10.0138 6.65437 10.0437 6.69708 10.0394H6.74407C6.927 9.94531 7.12059 9.87359 7.32067 9.8258C7.59623 9.77938 7.87845 9.79102 8.14926 9.85997C8.42439 9.92963 8.68002 10.0611 8.8967 10.2445C9.08099 10.4035 9.21216 10.6152 9.27256 10.8511C9.29969 11.0305 9.28656 11.2136 9.2341 11.3873C9.18165 11.5609 9.0912 11.7207 8.96931 11.855C8.8588 11.9975 8.71688 12.1124 8.55463 12.191C8.39238 12.2695 8.21419 12.3095 8.03394 12.3079C7.88028 12.2995 7.73215 12.2477 7.60683 12.1583C7.49578 12.0857 7.35483 11.9576 7.4189 11.8123C7.42585 11.7972 7.43444 11.7828 7.44453 11.7696C7.44214 11.7837 7.44214 11.7982 7.44453 11.8123C7.46006 11.8597 7.48008 11.9055 7.50432 11.949C7.52955 11.99 7.56484 12.0238 7.60683 12.0473C7.6941 12.0893 7.78972 12.1111 7.88659 12.1111C7.98345 12.1111 8.07907 12.0893 8.16634 12.0473C8.21078 12.0289 8.25247 12.0045 8.29021 11.9746C8.33248 11.9416 8.36987 11.9028 8.40125 11.8593C8.42933 11.8211 8.45501 11.7811 8.47813 11.7397C8.494 11.7012 8.50546 11.6611 8.5123 11.6201C8.52237 11.5365 8.50751 11.4517 8.46959 11.3766C8.42639 11.2928 8.36333 11.2209 8.28593 11.1672C8.12003 11.0553 7.92187 11.0013 7.72215 11.0134C7.63064 11.018 7.54081 11.0397 7.45734 11.0775C7.41615 11.0963 7.37621 11.1177 7.33775 11.1416C7.29337 11.169 7.25059 11.199 7.20962 11.2313C7.13374 11.298 7.06503 11.3725 7.0046 11.4535C6.95265 11.5346 6.92046 11.6268 6.91064 11.7226C6.88928 11.8182 6.88928 11.9174 6.91064 12.0131C6.92655 12.0583 6.94509 12.1025 6.96616 12.1455L7.0345 12.2822L7.06013 12.3121C7.08049 12.3438 7.10334 12.3738 7.12847 12.4019C7.2344 12.5166 7.36618 12.6045 7.51287 12.6582L7.57693 12.6838L7.70079 12.7137C7.90861 12.7588 8.12438 12.7515 8.32865 12.6924L8.46105 12.6325L8.57637 12.6026C9.58435 12.1498 9.8577 11.3595 9.63133 10.6802C9.47867 10.2506 9.18108 9.88756 8.78976 9.65365C8.39844 9.41974 7.93786 9.32955 7.48724 9.39859Z" fill="white"/>
<path d="M28.7744 7.33509C28.7637 7.16729 28.7423 7.00035 28.7103 6.83526C28.6675 6.65249 28.5923 6.47886 28.4882 6.32262C28.401 6.16542 28.2917 6.02155 28.1636 5.89541C28.0868 5.8356 27.9971 5.79288 27.9159 5.74161C27.8419 5.69608 27.7632 5.65883 27.681 5.63054C27.5785 5.59636 27.523 5.72453 27.523 5.80997V5.89968C27.7139 6.2524 27.8575 6.62873 27.9501 7.01896C28.045 7.55438 28.0216 8.10408 27.8818 8.62953C27.7513 9.16529 27.4968 9.66285 27.1386 10.082C26.8302 10.4412 26.4185 10.6963 25.9598 10.8126C25.6166 10.8682 25.2654 10.8469 24.9315 10.7501C24.5976 10.6533 24.2894 10.4835 24.0292 10.2529C23.7514 10.0391 23.5266 9.76404 23.3726 9.44911C23.2185 9.13418 23.1392 8.78791 23.1408 8.43729C23.1634 8.14562 23.2636 7.86532 23.4313 7.62559C23.5722 7.41626 23.8199 7.14285 24.1061 7.26247C24.1355 7.27798 24.164 7.29509 24.1915 7.31373H24.1061C24.0145 7.34218 23.9269 7.38239 23.8456 7.43335C23.7644 7.4796 23.6978 7.54768 23.6534 7.62987C23.5734 7.8003 23.5319 7.98627 23.5319 8.17455C23.5319 8.36284 23.5734 8.54881 23.6534 8.71924C23.6918 8.80594 23.7406 8.8877 23.7986 8.96275C23.8639 9.0443 23.9417 9.11496 24.0292 9.17208C24.101 9.23063 24.1782 9.28213 24.2599 9.32588C24.3694 9.37761 24.489 9.40444 24.6101 9.40444C24.7312 9.40444 24.8508 9.37761 24.9603 9.32588C25.131 9.24471 25.278 9.12117 25.3874 8.96702C25.6018 8.64399 25.7066 8.26056 25.6864 7.87337C25.6745 7.69714 25.6342 7.52401 25.5668 7.36073C25.5278 7.27963 25.4836 7.20114 25.4344 7.12576C25.3789 7.04032 25.3276 6.95488 25.2636 6.87371C25.1367 6.72679 24.9934 6.59492 24.8365 6.48068C24.682 6.37398 24.5024 6.30921 24.3154 6.29271C24.1283 6.25696 23.9355 6.26427 23.7516 6.31407C23.662 6.33717 23.5748 6.36864 23.4911 6.40806C23.3999 6.44617 23.3114 6.49041 23.2263 6.54049L23.1665 6.58748C23.1022 6.62682 23.0421 6.67263 22.9871 6.72419C22.7673 6.92997 22.599 7.18462 22.4959 7.46753L22.4489 7.59569C22.4233 7.67686 22.4019 7.75376 22.3848 7.83493C22.3041 8.24021 22.3202 8.65885 22.4318 9.05674C22.4703 9.14218 22.5087 9.22335 22.5429 9.31306C22.5687 9.38863 22.5901 9.46566 22.6069 9.54375C23.4868 11.5004 25.0244 12.013 26.3484 11.5943C27.1896 11.284 27.8943 10.6865 28.3381 9.90732C28.782 9.12809 28.9365 8.21714 28.7744 7.33509Z" fill="white"/>
<path d="M28.6164 7.53166C28.6164 7.44621 28.6164 7.3565 28.5822 7.27106C28.5581 7.17719 28.5192 7.08778 28.4669 7.00619C28.4225 6.92567 28.3664 6.85224 28.3003 6.78832C28.2591 6.76021 28.2164 6.73454 28.1722 6.71142C28.1357 6.68533 28.0953 6.66514 28.0526 6.65161C27.9971 6.65161 27.9714 6.70288 27.9714 6.7456C27.9714 6.78832 27.9714 6.7755 27.9714 6.79259C28.0712 6.97195 28.1445 7.16475 28.1893 7.36505C28.2491 7.63806 28.2491 7.92081 28.1893 8.19383C28.1234 8.47043 27.9915 8.72695 27.8049 8.94144C27.6483 9.12653 27.4377 9.25798 27.2026 9.31738C27.024 9.34596 26.8411 9.33433 26.6675 9.28333C26.4939 9.23234 26.3338 9.14327 26.1989 9.02261C26.056 8.91228 25.9404 8.77048 25.8611 8.60822C25.7819 8.44597 25.7411 8.26761 25.7419 8.08702C25.7502 7.93333 25.8021 7.78516 25.8914 7.65982C25.964 7.55302 26.0922 7.41204 26.2374 7.47185L26.2801 7.49748H26.2374C26.1905 7.51273 26.146 7.53429 26.105 7.56156C26.0631 7.58561 26.029 7.6212 26.0067 7.66409C25.9645 7.75056 25.9425 7.84553 25.9425 7.94177C25.9425 8.03802 25.9645 8.13299 26.0067 8.21946C26.0258 8.2649 26.0502 8.30792 26.0793 8.34762C26.1129 8.3897 26.1533 8.4258 26.1989 8.45442C26.2351 8.48544 26.2753 8.51132 26.3185 8.53132C26.3548 8.54912 26.3938 8.56067 26.4338 8.5655C26.517 8.57689 26.6017 8.56351 26.6773 8.52705C26.7613 8.48254 26.8343 8.41977 26.8909 8.34335C26.9984 8.17544 27.052 7.97869 27.0446 7.77944C27.039 7.68806 27.0173 7.5984 26.9805 7.51457C26.962 7.47244 26.9391 7.43235 26.9122 7.39495C26.8887 7.34909 26.8601 7.30609 26.8268 7.26679C26.7598 7.18965 26.6838 7.12081 26.6004 7.06173C26.5215 7.00784 26.4306 6.9741 26.3356 6.96347C26.2385 6.94203 26.138 6.94203 26.0409 6.96347C25.9967 6.97834 25.9538 6.99692 25.9128 7.01901C25.8652 7.03747 25.8194 7.06035 25.7761 7.08736C25.7662 7.0854 25.7561 7.0854 25.7462 7.08736C25.7131 7.10917 25.6817 7.13344 25.6522 7.15999C25.5401 7.26732 25.4539 7.39882 25.4002 7.54447C25.4002 7.56583 25.4002 7.58719 25.4002 7.60855C25.4002 7.62991 25.3746 7.69399 25.3661 7.73244C25.3254 7.9409 25.3342 8.15599 25.3917 8.36044C25.3917 8.40316 25.4301 8.44588 25.4472 8.49287C25.4643 8.53986 25.4686 8.57404 25.4814 8.61249C25.9341 9.62069 26.7243 9.89411 27.4077 9.66769C27.8225 9.50301 28.1686 9.20136 28.3885 8.81282C28.6084 8.42427 28.6888 7.97221 28.6164 7.53166Z" fill="white"/>
<path d="M26.4338 11.7012C26.0067 13.0298 26.5235 14.5677 28.484 15.4478C28.5606 15.4646 28.6362 15.486 28.7103 15.5119L28.9709 15.6229C29.3683 15.7369 29.7874 15.7531 30.1924 15.6699C30.2718 15.6526 30.3502 15.6312 30.4273 15.6059L30.5555 15.5589C30.8384 15.4515 31.0938 15.2822 31.3029 15.0633C31.3521 15.0079 31.3978 14.9494 31.4396 14.8882L31.4866 14.8241C31.5358 14.7384 31.58 14.65 31.619 14.5592C31.6589 14.4771 31.6946 14.393 31.7257 14.3072C31.7663 14.1199 31.7663 13.9262 31.7257 13.739C31.7112 13.564 31.6572 13.3945 31.5677 13.2434C31.452 13.0863 31.3187 12.943 31.1705 12.8162C31.0924 12.753 31.0096 12.6959 30.9228 12.6453C30.8478 12.5955 30.7693 12.5512 30.6879 12.5129C30.5246 12.441 30.3493 12.4005 30.1711 12.3933C29.7844 12.3715 29.401 12.4748 29.0777 12.688C28.9257 12.7987 28.8039 12.9455 28.7232 13.1152C28.648 13.2612 28.6197 13.4268 28.642 13.5894C28.6508 13.6693 28.6724 13.7472 28.7061 13.8201C28.7503 13.9005 28.8003 13.9776 28.8556 14.0508C28.9141 14.1386 28.9862 14.2164 29.0691 14.2815C29.1453 14.3366 29.2269 14.3839 29.3126 14.4225C29.4815 14.5048 29.667 14.5476 29.855 14.5476C30.043 14.5476 30.2285 14.5048 30.3974 14.4225C30.4799 14.3769 30.5491 14.3107 30.5982 14.2303C30.6491 14.1489 30.6893 14.0613 30.7178 13.9697C30.7222 13.9414 30.7222 13.9125 30.7178 13.8842C30.7388 13.9101 30.7561 13.9389 30.769 13.9697C30.8886 14.2516 30.6195 14.4994 30.406 14.6446C30.1672 14.8103 29.8885 14.9091 29.5987 14.9309C29.2483 14.9347 28.9017 14.8568 28.5867 14.7033C28.2716 14.5498 27.9966 14.3249 27.7835 14.0466C27.5477 13.7849 27.3735 13.4737 27.2737 13.1358C27.174 12.798 27.1511 12.4421 27.2069 12.0942C27.3241 11.6359 27.5808 11.2254 27.9415 10.9194C28.3595 10.5595 28.8574 10.3047 29.3937 10.1761C29.9176 10.0368 30.4653 10.0121 30.9997 10.1034C31.3898 10.1962 31.766 10.3398 32.1187 10.5306H32.2126C32.2938 10.5306 32.4219 10.4794 32.3878 10.3726C32.3621 10.2907 32.3247 10.213 32.2767 10.1419C32.2321 10.0554 32.1807 9.97252 32.123 9.89411C31.9972 9.76446 31.8533 9.65366 31.6958 9.56516C31.5386 9.46392 31.3653 9.39024 31.1833 9.34729C31.0152 9.31584 30.8455 9.29303 30.675 9.27893C29.7963 9.12093 28.89 9.27698 28.1147 9.71979C27.3394 10.1626 26.7444 10.864 26.4338 11.7012Z" fill="white"/>
<path d="M28.3046 10.6802C28.091 11.3595 28.3516 12.1498 29.3595 12.6026L29.4749 12.6325L29.6115 12.6924C29.8145 12.7508 30.0287 12.7581 30.2351 12.7137L30.359 12.6838L30.4231 12.6582C30.5697 12.6045 30.7015 12.5166 30.8075 12.4019C30.8326 12.3738 30.8554 12.3438 30.8758 12.3121L30.9014 12.2822C30.927 12.2352 30.9484 12.1882 30.9698 12.1455C30.9908 12.1025 31.0094 12.0583 31.0253 12.0131C31.0466 11.9174 31.0466 11.8182 31.0253 11.7226C31.0155 11.6268 30.9833 11.5346 30.9313 11.4535C30.8709 11.3725 30.8022 11.298 30.7263 11.2313C30.6853 11.199 30.6426 11.169 30.5982 11.1416C30.5597 11.1177 30.5198 11.0963 30.4786 11.0775C30.3951 11.0397 30.3053 11.018 30.2138 11.0134C30.014 11.0013 29.8159 11.0553 29.65 11.1672C29.5737 11.2222 29.5109 11.2937 29.4663 11.3766C29.4284 11.4517 29.4135 11.5365 29.4236 11.6201C29.4305 11.6611 29.4419 11.7012 29.4578 11.7397C29.4809 11.7811 29.5066 11.8211 29.5347 11.8593C29.5661 11.9028 29.6034 11.9416 29.6457 11.9746C29.6835 12.0045 29.7251 12.0289 29.7696 12.0473C29.8568 12.0893 29.9525 12.1111 30.0493 12.1111C30.1462 12.1111 30.2418 12.0893 30.3291 12.0473C30.3711 12.0238 30.4064 11.99 30.4316 11.949C30.4576 11.9063 30.4777 11.8604 30.4914 11.8123C30.4938 11.7982 30.4938 11.7837 30.4914 11.7696C30.5029 11.7818 30.5117 11.7964 30.517 11.8123C30.5811 11.9576 30.4401 12.0857 30.3291 12.1583C30.2038 12.2477 30.0556 12.2995 29.902 12.3079C29.7223 12.3095 29.5448 12.2695 29.3832 12.1909C29.2216 12.1124 29.0805 11.9974 28.9709 11.855C28.849 11.7208 28.7588 11.5609 28.707 11.3871C28.6553 11.2133 28.6433 11.0301 28.6719 10.8511C28.7441 10.6122 28.8908 10.4026 29.0905 10.253C29.305 10.0688 29.5594 9.93719 29.8336 9.86852C30.1038 9.79672 30.3861 9.78217 30.6622 9.8258C30.8627 9.87631 31.0563 9.95091 31.2388 10.0479H31.2858C31.3285 10.0479 31.3926 10.0223 31.3755 9.96678C31.3614 9.92637 31.3427 9.88768 31.32 9.85143C31.297 9.80626 31.2698 9.76335 31.2388 9.72327C31.1751 9.65586 31.1017 9.59828 31.021 9.55239C30.94 9.49991 30.8504 9.4623 30.7562 9.44131C30.6702 9.42231 30.5832 9.40805 30.4957 9.39859C30.0378 9.31764 29.5661 9.40209 29.1648 9.63685C28.7634 9.87161 28.4585 10.2414 28.3046 10.6802Z" fill="white"/>
<path d="M9.2085 30.6563C9.21814 30.8341 9.23955 31.0111 9.27257 31.1861C9.31723 31.3682 9.39231 31.5416 9.49467 31.6987C9.58164 31.8561 9.69098 32 9.81927 32.1259C9.89828 32.1827 9.98105 32.2341 10.067 32.2797C10.1399 32.3283 10.2189 32.3671 10.3019 32.3951C10.4044 32.425 10.4599 32.3011 10.4599 32.2156C10.4617 32.1843 10.4617 32.153 10.4599 32.1217C10.2684 31.7708 10.1247 31.3957 10.0328 31.0066C9.93999 30.4711 9.96329 29.9218 10.1012 29.3961C10.2316 28.8603 10.4862 28.3628 10.8443 27.9436C11.1525 27.5833 11.5641 27.3267 12.0232 27.2088C12.367 27.1533 12.7188 27.1748 13.0533 27.2716C13.3879 27.3683 13.6968 27.538 13.958 27.7684C14.2345 27.9831 14.4581 28.2585 14.6114 28.5733C14.7647 28.8881 14.8436 29.2339 14.8421 29.5841C14.8194 29.8744 14.7191 30.1533 14.5517 30.3915C14.4107 30.6051 14.163 30.8742 13.8811 30.7546C13.8499 30.7415 13.8199 30.7258 13.7914 30.7076H13.8811C13.971 30.6783 14.0571 30.6381 14.1374 30.588C14.2197 30.5414 14.2866 30.4715 14.3296 30.3872C14.4119 30.2182 14.4546 30.0326 14.4546 29.8446C14.4546 29.6566 14.4119 29.4711 14.3296 29.3021C14.2911 29.2154 14.2423 29.1336 14.1843 29.0586C14.1202 28.9759 14.0421 28.9051 13.9537 28.8493C13.8838 28.7903 13.8079 28.7388 13.7273 28.6955C13.6531 28.6613 13.5737 28.6396 13.4924 28.6314C13.3312 28.6108 13.1675 28.6391 13.0226 28.7125C12.8539 28.7948 12.7074 28.9164 12.5955 29.0671C12.3805 29.3915 12.2757 29.7765 12.2965 30.1651C12.3078 30.3418 12.3497 30.5153 12.4204 30.6777C12.4572 30.7591 12.5 30.8376 12.5485 30.9127C12.6989 31.1711 12.9063 31.3918 13.155 31.5577C13.3117 31.6602 13.4901 31.7246 13.6761 31.7457C13.8616 31.7885 14.0544 31.7885 14.2399 31.7457C14.3382 31.7116 14.4327 31.6672 14.5218 31.6133C14.6114 31.5706 14.7011 31.5321 14.7866 31.4808L14.8464 31.4339C14.9107 31.3945 14.9708 31.3487 15.0257 31.2971C15.2455 31.0888 15.4149 30.8331 15.5212 30.5495C15.5212 30.5111 15.5511 30.4684 15.5682 30.4256C15.5853 30.3829 15.6152 30.2633 15.6322 30.1864C15.713 29.7811 15.6969 29.3625 15.5853 28.9646C15.5468 28.8792 15.5084 28.7937 15.4742 28.7083C15.4489 28.6325 15.4275 28.5555 15.4101 28.4776C14.5218 26.4868 12.9799 25.9784 11.6558 26.3971C10.8102 26.7028 10.1002 27.2985 9.65212 28.0783C9.20404 28.8581 9.04686 29.7716 9.2085 30.6563Z" fill="white"/>
<path d="M9.36225 30.4641C9.36225 30.5495 9.36225 30.6392 9.39642 30.7247C9.42 30.8174 9.45898 30.9055 9.51174 30.9853C9.55601 31.0671 9.61214 31.142 9.67831 31.2074C9.71949 31.2355 9.76227 31.2612 9.80644 31.2843C9.84407 31.3085 9.88416 31.3285 9.92604 31.3441C9.98156 31.3441 10.0072 31.2929 10.0072 31.2501C10.0072 31.2074 10.0072 31.2202 10.0072 31.2032C9.90559 31.0227 9.83078 30.8284 9.78509 30.6264C9.73793 30.3521 9.75105 30.0707 9.82353 29.8019C9.88941 29.5253 10.0213 29.2688 10.2079 29.0543C10.363 28.8674 10.5742 28.7356 10.8102 28.6784C10.9888 28.6489 11.1719 28.66 11.3457 28.7111C11.5195 28.7621 11.6795 28.8517 11.8139 28.9731C11.9551 29.0834 12.0691 29.2249 12.1469 29.3864C12.2247 29.5479 12.2642 29.7252 12.2623 29.9044C12.2531 30.058 12.2013 30.2059 12.1128 30.3317C12.0402 30.4385 11.9121 30.5794 11.7669 30.5153C11.7505 30.511 11.7357 30.5021 11.7242 30.4897H11.7669C11.8134 30.4736 11.8578 30.4521 11.8993 30.4256C11.9412 30.4016 11.9753 30.366 11.9975 30.3231C12.0395 30.2358 12.0614 30.1402 12.0614 30.0433C12.0614 29.9464 12.0395 29.8508 11.9975 29.7635C11.9775 29.7199 11.9532 29.6784 11.9249 29.6396C11.8913 29.5975 11.8509 29.5614 11.8053 29.5328C11.7682 29.5019 11.7281 29.4747 11.6857 29.4516C11.6493 29.4352 11.6103 29.4251 11.5704 29.4217C11.4872 29.4081 11.4019 29.4215 11.327 29.4601C11.2429 29.5047 11.17 29.5674 11.1134 29.6438C11.0048 29.8111 10.9524 30.0087 10.9639 30.2078C10.9669 30.299 10.9872 30.3889 11.0237 30.4726C11.0439 30.5139 11.0668 30.5539 11.092 30.5922C11.1219 30.635 11.1476 30.682 11.1775 30.7204C11.2456 30.7965 11.3214 30.8652 11.4038 30.9255C11.4831 30.978 11.574 31.0103 11.6686 31.0195C11.7655 31.043 11.8665 31.043 11.9634 31.0195C12.0075 31.0046 12.0504 30.986 12.0915 30.9639C12.1383 30.9437 12.1839 30.9209 12.2282 30.8956H12.2623L12.352 30.8229C12.4642 30.7156 12.5503 30.5841 12.604 30.4385C12.604 30.4171 12.604 30.3957 12.6254 30.3701C12.6467 30.3445 12.651 30.2889 12.6595 30.2505C12.7032 30.0423 12.6944 29.8264 12.6339 29.6225L12.5784 29.4901C12.5784 29.4516 12.557 29.4089 12.5442 29.3704C12.0915 28.3622 11.3013 28.0888 10.618 28.3152C10.1919 28.472 9.83356 28.7722 9.60446 29.1642C9.37535 29.5563 9.28973 30.0158 9.36225 30.4641Z" fill="white"/>
<path d="M11.532 26.2946C11.9591 24.966 11.4423 23.428 9.48185 22.548C9.40924 22.5223 9.32809 22.5095 9.25548 22.4839C9.18287 22.4583 9.08037 22.407 8.99494 22.3685C8.59852 22.2567 8.18097 22.242 7.77768 22.3258C7.69681 22.3426 7.61695 22.364 7.5385 22.3899L7.41036 22.4326C7.12758 22.5383 6.87215 22.7062 6.66292 22.9239C6.61367 22.9808 6.56802 23.0407 6.52625 23.1033C6.50956 23.1224 6.49388 23.1424 6.47926 23.1631C6.42801 23.2486 6.38957 23.3426 6.34686 23.4323C6.30614 23.514 6.27048 23.5982 6.24008 23.6843C6.19245 23.87 6.18517 24.0638 6.21873 24.2525C6.23776 24.4403 6.30227 24.6207 6.40666 24.778C6.53291 24.9356 6.67615 25.0789 6.83377 25.2052C6.91185 25.2684 6.99467 25.3255 7.08149 25.3761C7.15742 25.4243 7.23583 25.4685 7.3164 25.5085C7.47968 25.5803 7.65497 25.6209 7.8332 25.6281C8.22054 25.6505 8.60456 25.5455 8.92661 25.3291C9.07727 25.2248 9.20039 25.0856 9.28538 24.9232C9.35725 24.7762 9.384 24.6112 9.36226 24.449C9.35405 24.3691 9.33239 24.2911 9.29819 24.2183C9.25593 24.1368 9.20586 24.0595 9.1487 23.9877C9.09019 23.8999 9.0181 23.8221 8.93515 23.757C8.8606 23.6994 8.77873 23.652 8.6917 23.616C8.52272 23.5337 8.33722 23.4909 8.14927 23.4909C7.96131 23.4909 7.77581 23.5337 7.60684 23.616C7.52437 23.6615 7.45518 23.7278 7.40609 23.8082C7.35514 23.8896 7.31494 23.9772 7.2865 24.0688C7.28203 24.0971 7.28203 24.126 7.2865 24.1543C7.26544 24.1284 7.24818 24.0996 7.23525 24.0688C7.11566 23.7869 7.38901 23.5348 7.59829 23.3938C7.83767 23.2287 8.11584 23.1286 8.40553 23.1033C8.75613 23.1013 9.10243 23.1805 9.41735 23.3347C9.73226 23.4888 10.0072 23.7138 10.2208 23.9919C10.4565 24.2528 10.6306 24.5632 10.7304 24.9004C10.8302 25.2376 10.8531 25.5928 10.7973 25.94C10.6813 26.4 10.4244 26.8122 10.0627 27.1191C9.64473 27.479 9.14686 27.7338 8.61054 27.8624C8.08665 28.0017 7.53893 28.0264 7.00461 27.935C6.61449 27.8423 6.23826 27.6987 5.88558 27.5078H5.79589C5.71047 27.5078 5.58233 27.5591 5.6165 27.6659C5.64386 27.7471 5.68116 27.8246 5.72755 27.8966C5.77316 27.9826 5.82453 28.0653 5.88131 28.1444C6.0071 28.274 6.15095 28.3848 6.30842 28.4733C6.46655 28.5728 6.63958 28.6464 6.82095 28.6912C6.98753 28.7339 7.16264 28.7339 7.32921 28.7595C8.20737 28.9052 9.10879 28.7383 9.87666 28.2879C10.6445 27.8376 11.2303 27.1322 11.532 26.2946Z" fill="white"/>
<path d="M9.67831 27.3412C9.89186 26.6577 9.63132 25.8674 8.62334 25.4145L8.50802 25.3846L8.37562 25.3248C8.17122 25.2673 7.95618 25.2585 7.74777 25.2992L7.62391 25.3334L7.55984 25.359C7.41422 25.4127 7.28275 25.4989 7.17544 25.611C7.15028 25.6406 7.12744 25.672 7.1071 25.705L7.08148 25.7349C7.05615 25.7792 7.03334 25.8248 7.01314 25.8716C6.99207 25.9147 6.97353 25.9589 6.95761 26.0041C6.93626 26.0997 6.93626 26.1989 6.95761 26.2946C6.96679 26.3892 6.99906 26.4802 7.05158 26.5594C7.11196 26.6418 7.18066 26.7176 7.25659 26.7859C7.29664 26.8181 7.33953 26.8467 7.38473 26.8713C7.42212 26.8982 7.4622 26.9211 7.50432 26.9397C7.58845 26.9755 7.67792 26.9971 7.76912 27.0037C7.96885 27.0159 8.167 26.9618 8.33291 26.8499C8.40932 26.7951 8.47215 26.7235 8.51657 26.6406C8.55449 26.5654 8.56935 26.4807 8.55928 26.3971C8.55244 26.3561 8.54098 26.3159 8.52511 26.2775C8.50198 26.2361 8.47631 26.1961 8.44823 26.1579C8.41698 26.113 8.3796 26.0727 8.33718 26.0382L8.21332 25.9656C8.12604 25.9236 8.03042 25.9018 7.93356 25.9018C7.8367 25.9018 7.74108 25.9236 7.6538 25.9656C7.61181 25.9891 7.57653 26.0229 7.5513 26.0639C7.52785 26.1063 7.50786 26.1506 7.4915 26.1963C7.48949 26.2119 7.48949 26.2277 7.4915 26.2433C7.48048 26.2291 7.47183 26.2133 7.46588 26.1963C7.40181 26.0511 7.54276 25.9229 7.6538 25.8503C7.78114 25.7649 7.92815 25.7134 8.08091 25.7008C8.25195 25.7057 8.41988 25.7476 8.57322 25.8236C8.72655 25.8995 8.86167 26.0077 8.9693 26.1408C9.08994 26.2757 9.17899 26.4358 9.22997 26.6095C9.28095 26.7831 9.29258 26.966 9.26401 27.1447C9.20918 27.3857 9.08082 27.6036 8.89669 27.7684C8.6809 27.9522 8.42482 28.0824 8.14925 28.1486C7.87906 28.2211 7.5964 28.2342 7.32066 28.1871C7.11941 28.1371 6.92557 28.061 6.74406 27.9607H6.69708C6.65437 27.9607 6.5903 27.9906 6.60738 28.0418C6.62152 28.0836 6.64014 28.1237 6.66291 28.1615C6.68741 28.2057 6.7145 28.2485 6.74406 28.2896C6.80796 28.3557 6.88138 28.4119 6.96189 28.4562C7.04264 28.51 7.1323 28.5491 7.22669 28.5716C7.3129 28.5874 7.39986 28.5988 7.48723 28.6058C7.94293 28.6877 8.41292 28.6057 8.81396 28.3743C9.215 28.1428 9.52119 27.7769 9.67831 27.3412Z" fill="white"/>
<path d="M26.3271 26.3971C25.003 25.9699 23.4654 26.4868 22.5856 28.4477C22.5682 28.5256 22.5468 28.6026 22.5215 28.6784C22.4873 28.7638 22.4489 28.8493 22.4105 28.9347C22.2988 29.3326 22.2827 29.7512 22.3635 30.1565C22.3635 30.2334 22.4019 30.3146 22.4275 30.3958C22.4532 30.4769 22.4574 30.4812 22.4745 30.5196C22.5776 30.8038 22.7459 31.0598 22.9657 31.2673C23.0207 31.3188 23.0808 31.3646 23.1451 31.404L23.2049 31.451C23.2903 31.5022 23.38 31.5407 23.4697 31.5834C23.5516 31.627 23.6374 31.6627 23.726 31.6902C23.9115 31.7329 24.1043 31.7329 24.2897 31.6902C24.4759 31.6698 24.6545 31.6054 24.8108 31.5022C25.1246 31.2729 25.3781 30.9709 25.5497 30.6222C25.6171 30.4589 25.6575 30.2858 25.6693 30.1095C25.682 29.7339 25.5775 29.3636 25.3703 29.0501C25.2595 28.8984 25.1127 28.7765 24.9432 28.6955C24.7983 28.622 24.6346 28.5937 24.4734 28.6143C24.3935 28.6225 24.3155 28.6442 24.2428 28.6784C24.1602 28.7206 24.0828 28.7722 24.0121 28.8322C23.9237 28.888 23.8456 28.9589 23.7815 29.0415C23.7235 29.1166 23.6747 29.1983 23.6363 29.285C23.5552 29.4544 23.5131 29.6398 23.5131 29.8276C23.5131 30.0154 23.5552 30.2008 23.6363 30.3701C23.6793 30.4545 23.7461 30.5243 23.8285 30.5709C23.9098 30.6219 23.9974 30.6621 24.089 30.6905H24.1744L24.089 30.7375C23.8028 30.8571 23.5551 30.588 23.4142 30.3744C23.2467 30.1362 23.1464 29.8573 23.1237 29.567C23.1267 29.2178 23.2099 28.874 23.3669 28.5621C23.5239 28.2503 23.7505 27.9787 24.0292 27.7684C24.2899 27.5324 24.6002 27.358 24.9374 27.2582C25.2745 27.1584 25.6297 27.1356 25.9768 27.1917C26.4359 27.3097 26.8475 27.5662 27.1557 27.9265C27.5138 28.3457 27.7684 28.8432 27.8988 29.379C28.0389 29.9044 28.0622 30.4542 27.9672 30.9896C27.8753 31.3787 27.7316 31.7537 27.5401 32.1046V32.1986C27.5401 32.284 27.5956 32.4079 27.6981 32.378C27.7811 32.35 27.8601 32.3112 27.933 32.2626C28.0189 32.217 28.1017 32.1656 28.1807 32.1089C28.309 31.9829 28.4184 31.839 28.5053 31.6816C28.6094 31.5254 28.6846 31.3518 28.7274 31.169C28.7595 31.0011 28.7809 30.8313 28.7915 30.6606C28.9532 29.7731 28.7941 28.8569 28.3427 28.0758C27.8912 27.2948 27.1768 26.6998 26.3271 26.3971Z" fill="white"/>
<path d="M27.3607 28.2725C26.6773 28.0547 25.8872 28.3195 25.4344 29.3277C25.4344 29.3662 25.4344 29.4089 25.4003 29.4474L25.3447 29.5798C25.2872 29.7842 25.2784 29.9993 25.3191 30.2078C25.3191 30.2462 25.3191 30.289 25.3533 30.3274C25.3874 30.3658 25.3533 30.3744 25.3533 30.3958C25.407 30.5414 25.4931 30.6729 25.6053 30.7802C25.6347 30.8068 25.6661 30.8311 25.6992 30.8529H25.7291C25.7734 30.8782 25.819 30.901 25.8658 30.9212C25.9069 30.9433 25.9497 30.9619 25.9939 30.9768C26.0908 31.0003 26.1918 31.0003 26.2886 30.9768C26.3833 30.9676 26.4742 30.9353 26.5534 30.8828C26.6358 30.8225 26.7117 30.7538 26.7798 30.6777C26.8121 30.6376 26.8407 30.5948 26.8652 30.5495C26.8921 30.5121 26.915 30.4721 26.9336 30.4299C26.9694 30.3458 26.991 30.2563 26.9976 30.1651C27.0056 29.9657 26.9519 29.7688 26.8439 29.6011C26.7873 29.5247 26.7143 29.462 26.6303 29.4175C26.5554 29.3789 26.47 29.3654 26.3869 29.379C26.347 29.3824 26.308 29.3925 26.2716 29.4089C26.2291 29.432 26.1891 29.4592 26.152 29.4901C26.1064 29.5187 26.0659 29.5548 26.0324 29.5969C26.0041 29.6357 25.9798 29.6772 25.9598 29.7208C25.9177 29.8081 25.8959 29.9037 25.8959 30.0006C25.8959 30.0975 25.9177 30.1931 25.9598 30.2804C25.982 30.3233 26.0161 30.3589 26.058 30.3829C26.0999 30.4086 26.1443 30.43 26.1904 30.447H26.2331C26.2216 30.4594 26.2068 30.4683 26.1904 30.4727C26.0452 30.5367 25.9171 30.3958 25.8444 30.289C25.756 30.1632 25.7042 30.0153 25.695 29.8617C25.6941 29.6818 25.7349 29.504 25.8142 29.3425C25.8935 29.1809 26.0091 29.0399 26.152 28.9304C26.2863 28.809 26.4464 28.7194 26.6202 28.6684C26.7939 28.6173 26.977 28.6062 27.1557 28.6357C27.3921 28.6917 27.6037 28.8238 27.7579 29.0116C27.9445 29.2261 28.0764 29.4826 28.1423 29.7592C28.224 30.0409 28.2401 30.3376 28.1893 30.6264C28.1461 30.8219 28.0756 31.0103 27.98 31.1861C27.98 31.1861 27.98 31.216 27.98 31.2331C27.98 31.2502 28.0056 31.3399 28.0611 31.3271C28.103 31.3114 28.1431 31.2914 28.1807 31.2673C28.2249 31.2441 28.2677 31.2185 28.3089 31.1904C28.375 31.1249 28.4312 31.0501 28.4754 30.9682C28.5282 30.8884 28.5672 30.8003 28.5908 30.7076C28.5908 30.6222 28.5908 30.5325 28.6249 30.447C28.7034 29.9937 28.6197 29.5273 28.3885 29.1296C28.1573 28.732 27.7934 28.4285 27.3607 28.2725Z" fill="white"/>
<path d="M30.6922 28.7425C30.8626 28.7284 31.0323 28.7056 31.2004 28.6741C31.3818 28.6293 31.5548 28.5558 31.7129 28.4563C31.8704 28.3678 32.0143 28.257 32.1401 28.1273C32.1968 28.0483 32.2482 27.9655 32.2938 27.8795C32.3402 27.8075 32.3775 27.73 32.4049 27.6488C32.439 27.542 32.3109 27.4865 32.2297 27.4908H32.1358C31.7831 27.6816 31.4069 27.8252 31.0168 27.918C30.4824 28.0094 29.9347 27.9846 29.4108 27.8454C28.8745 27.7167 28.3766 27.4619 27.9586 27.102C27.5969 26.7951 27.3401 26.3829 27.224 25.9229C27.1683 25.5758 27.1911 25.2205 27.2909 24.8833C27.3907 24.5462 27.5649 24.2357 27.8006 23.9749C28.0141 23.6967 28.2891 23.4718 28.604 23.3176C28.9189 23.1634 29.2652 23.0843 29.6158 23.0863C29.9055 23.1115 30.1837 23.2116 30.4231 23.3768C30.6366 23.5178 30.9057 23.7698 30.7861 24.0518C30.7732 24.0825 30.7559 24.1113 30.7349 24.1372C30.7393 24.1089 30.7393 24.0801 30.7349 24.0518C30.7064 23.9601 30.6662 23.8725 30.6153 23.7912C30.5662 23.7107 30.497 23.6445 30.4145 23.5989C30.2456 23.5166 30.0601 23.4738 29.8721 23.4738C29.6841 23.4738 29.4986 23.5166 29.3297 23.5989C29.2431 23.6359 29.1614 23.6832 29.0862 23.7399C29.0033 23.805 28.9312 23.8829 28.8727 23.9706C28.8155 24.0425 28.7654 24.1197 28.7232 24.2013C28.689 24.274 28.6673 24.352 28.6591 24.432C28.6368 24.5946 28.6651 24.7602 28.7403 24.9062C28.8223 25.0692 28.9442 25.2088 29.0948 25.312C29.4168 25.5284 29.8008 25.6335 30.1882 25.6111C30.3664 25.6039 30.5417 25.5633 30.705 25.4914C30.7855 25.4515 30.8639 25.4072 30.9399 25.359C31.0232 25.3136 31.1031 25.2622 31.1791 25.2052C31.3262 25.0773 31.4594 24.9341 31.5763 24.778C31.6794 24.6232 31.7438 24.446 31.7642 24.2611C31.8048 24.0739 31.8048 23.8801 31.7642 23.6929C31.7338 23.6068 31.6981 23.5226 31.6574 23.4409C31.6147 23.3511 31.5763 23.2572 31.525 23.1717C31.5104 23.151 31.4947 23.131 31.478 23.1119C31.4363 23.0493 31.3906 22.9894 31.3414 22.9325C31.1321 22.7148 30.8767 22.5469 30.5939 22.4412L30.4658 22.3985C30.3886 22.3731 30.3102 22.3518 30.2309 22.3344C29.8262 22.2499 29.4071 22.2645 29.0093 22.3771C28.9239 22.4156 28.8385 22.4583 28.7488 22.4925C28.6591 22.5266 28.5993 22.5309 28.5224 22.5565C26.562 23.4366 26.0537 24.9745 26.4723 26.3031C26.7792 27.1394 27.3695 27.8414 28.1406 28.2872C28.9116 28.7329 29.8146 28.894 30.6922 28.7425Z" fill="white"/>
<path d="M30.4957 28.5844C30.5831 28.5777 30.6701 28.5663 30.7562 28.5502C30.8506 28.5277 30.9403 28.4887 31.021 28.4348C31.1015 28.3905 31.1749 28.3343 31.2389 28.2682C31.2699 28.2281 31.297 28.1852 31.32 28.1401C31.3428 28.1023 31.3614 28.0622 31.3755 28.0204C31.3755 27.9692 31.3285 27.9393 31.2858 27.9393H31.2389C31.0573 28.0396 30.8635 28.1157 30.6623 28.1657C30.3865 28.2128 30.1039 28.1997 29.8337 28.1272C29.5611 28.0681 29.3064 27.9451 29.0905 27.7684C28.9035 27.6109 28.7706 27.3987 28.7104 27.1618C28.6814 26.9827 28.6933 26.7994 28.745 26.6256C28.7968 26.4518 28.8872 26.2919 29.0093 26.1578C29.1194 26.0157 29.2605 25.9006 29.4219 25.8213C29.5833 25.7421 29.7607 25.7009 29.9404 25.7007C30.0932 25.7134 30.2402 25.7649 30.3675 25.8502C30.4786 25.9229 30.6195 26.051 30.5555 26.1963C30.5512 26.2139 30.5424 26.2302 30.5299 26.2433C30.5319 26.2277 30.5319 26.2119 30.5299 26.1963C30.5153 26.1499 30.4953 26.1054 30.4701 26.0638C30.4448 26.0229 30.4095 25.9891 30.3675 25.9656C30.2803 25.9236 30.1847 25.9017 30.0878 25.9017C29.9909 25.9017 29.8953 25.9236 29.808 25.9656L29.6842 26.0382C29.6418 26.0727 29.6044 26.113 29.5731 26.1578C29.545 26.1961 29.5194 26.236 29.4962 26.2774C29.4804 26.3159 29.4689 26.356 29.4621 26.3971C29.452 26.4807 29.4669 26.5654 29.5048 26.6406C29.5505 26.7226 29.6131 26.7939 29.6884 26.8499C29.8543 26.9618 30.0525 27.0158 30.2522 27.0037C30.3376 26.9868 30.4197 26.9565 30.4957 26.914C30.5378 26.8954 30.5779 26.8725 30.6153 26.8456C30.6605 26.8211 30.7034 26.7925 30.7434 26.7602C30.8193 26.692 30.888 26.6161 30.9484 26.5338C31.0009 26.4545 31.0332 26.3636 31.0424 26.2689C31.0637 26.1732 31.0637 26.0741 31.0424 25.9784C31.0265 25.9332 31.0079 25.889 30.9869 25.846C30.9667 25.7992 30.9438 25.7535 30.9185 25.7093L30.8929 25.6794C30.8726 25.6463 30.8497 25.6149 30.8246 25.5854C30.7172 25.4732 30.5858 25.387 30.4402 25.3333L30.3761 25.3077L30.2522 25.2735C30.0453 25.2327 29.8316 25.2415 29.6286 25.2991L29.492 25.359L29.3767 25.3889C28.3687 25.8417 28.0953 26.632 28.3217 27.3156C28.4776 27.7486 28.7808 28.113 29.1782 28.345C29.5757 28.577 30.0421 28.6617 30.4957 28.5844Z" fill="white"/>
<path d="M35.4502 1.13637C35.9356 0.818684 36.5116 0.668643 37.0903 0.709162H37.3124C37.3124 0.773243 37.3124 0.845868 37.3124 0.93131C37.3459 1.50916 37.19 2.08217 36.8682 2.56324C37.333 3.03255 37.7194 3.57343 38.0128 4.16526C38.0128 4.16526 36.4325 3.35784 33.1608 5.08803L32.6398 5.37853C32.7465 5.1991 32.8405 5.02395 32.9302 4.85734C34.6472 1.58494 33.84 0 33.84 0C34.4331 0.29165 34.9766 0.675163 35.4502 1.13637Z" fill="white"/>
<path d="M33.2078 2.80681C33.2078 2.97579 33.1577 3.14098 33.0639 3.28149C32.97 3.422 32.8366 3.53151 32.6805 3.59618C32.5244 3.66085 32.3527 3.67777 32.187 3.6448C32.0213 3.61183 31.869 3.53046 31.7496 3.41097C31.6301 3.29147 31.5488 3.13923 31.5158 2.97349C31.4828 2.80775 31.4998 2.63596 31.5644 2.47984C31.6291 2.32371 31.7386 2.19027 31.879 2.09639C32.0195 2.0025 32.1847 1.95239 32.3536 1.95239C32.5802 1.95239 32.7974 2.04241 32.9576 2.20264C33.1178 2.36288 33.2078 2.5802 33.2078 2.80681Z" fill="white"/>
<path d="M35.3135 6.9122C35.7758 6.9122 36.1506 6.53731 36.1506 6.07487C36.1506 5.61243 35.7758 5.23755 35.3135 5.23755C34.8511 5.23755 34.4763 5.61243 34.4763 6.07487C34.4763 6.53731 34.8511 6.9122 35.3135 6.9122Z" fill="white"/>
<path d="M2.56266 1.13637C2.07725 0.818684 1.50123 0.668643 0.922558 0.709162H0.700461C0.700461 0.773243 0.700461 0.845868 0.700461 0.93131C0.663099 1.50772 0.814537 2.08062 1.13184 2.56324C0.671603 3.03349 0.289499 3.57433 0 4.16526C0 4.16526 1.58031 3.35784 4.85197 5.08803L5.37305 5.37853C5.26627 5.1991 5.17231 5.02395 5.08261 4.85734C3.35282 1.58494 4.16005 0 4.16005 0C3.57139 0.292802 3.03236 0.676264 2.56266 1.13637Z" fill="white"/>
<path d="M4.79218 2.80681C4.79218 2.97579 4.84227 3.14098 4.93614 3.28149C5.03 3.422 5.16341 3.53151 5.3195 3.59618C5.47559 3.66085 5.64734 3.67777 5.81305 3.6448C5.97875 3.61183 6.13096 3.53046 6.25042 3.41097C6.36989 3.29147 6.45124 3.13923 6.4842 2.97349C6.51716 2.80775 6.50025 2.63596 6.43559 2.47984C6.37094 2.32371 6.26145 2.19027 6.12098 2.09639C5.9805 2.0025 5.81534 1.95239 5.6464 1.95239C5.41984 1.95239 5.20257 2.04241 5.04237 2.20264C4.88217 2.36288 4.79218 2.5802 4.79218 2.80681Z" fill="white"/>
<path d="M2.68653 6.9122C3.14887 6.9122 3.52367 6.53731 3.52367 6.07487C3.52367 5.61243 3.14887 5.23755 2.68653 5.23755C2.22419 5.23755 1.8494 5.61243 1.8494 6.07487C1.8494 6.53731 2.22419 6.9122 2.68653 6.9122Z" fill="white"/>
<path d="M35.4502 36.8636C35.9356 37.1813 36.5116 37.3313 37.0903 37.2908H37.3124C37.3124 37.2267 37.3124 37.1498 37.3124 37.0687C37.3397 36.4982 37.1841 35.9339 36.8682 35.4581C37.3355 34.9829 37.7221 34.4345 38.0128 33.8347C38.0128 33.8347 36.4197 34.6421 33.148 32.8949L32.627 32.6044C32.7337 32.7838 32.8277 32.9547 32.9174 33.1256C34.6472 36.398 33.8399 37.9786 33.8399 37.9786C34.4317 37.6935 34.975 37.3172 35.4502 36.8636Z" fill="white"/>
<path d="M32.3707 36.0306C32.833 36.0306 33.2078 35.6557 33.2078 35.1933C33.2078 34.7308 32.833 34.356 32.3707 34.356C31.9083 34.356 31.5335 34.7308 31.5335 35.1933C31.5335 35.6557 31.9083 36.0306 32.3707 36.0306Z" fill="white"/>
<path d="M35.3135 32.7624C35.7758 32.7624 36.1506 32.3875 36.1506 31.9251C36.1506 31.4627 35.7758 31.0878 35.3135 31.0878C34.8511 31.0878 34.4763 31.4627 34.4763 31.9251C34.4763 32.3875 34.8511 32.7624 35.3135 32.7624Z" fill="white"/>
<path d="M2.56266 36.8636C2.07725 37.1813 1.50123 37.3313 0.922558 37.2908H0.700461C0.700461 37.2267 0.700461 37.1498 0.700461 37.0687C0.660581 36.4886 0.810498 35.9113 1.12757 35.4239C0.669346 34.9578 0.288674 34.4212 0 33.8347C0 33.8347 1.58031 34.6421 4.85197 32.8949L5.37305 32.6044C5.26627 32.7838 5.17231 32.9547 5.08261 33.1256C3.35282 36.4151 4.16005 37.9957 4.16005 37.9957C3.57168 37.7042 3.03267 37.3222 2.56266 36.8636Z" fill="white"/>
<path d="M5.62931 36.0306C6.09165 36.0306 6.46645 35.6557 6.46645 35.1933C6.46645 34.7308 6.09165 34.356 5.62931 34.356C5.16697 34.356 4.79218 34.7308 4.79218 35.1933C4.79218 35.6557 5.16697 36.0306 5.62931 36.0306Z" fill="white"/>
<path d="M2.68653 32.7624C3.14887 32.7624 3.52367 32.3875 3.52367 31.9251C3.52367 31.4627 3.14887 31.0878 2.68653 31.0878C2.22419 31.0878 1.8494 31.4627 1.8494 31.9251C1.8494 32.3875 2.22419 32.7624 2.68653 32.7624Z" fill="white"/>
</g>
<defs>
<clipPath id="clip0_1245_387">
<rect width="38" height="38" fill="white"/>
</clipPath>
</defs>
</svg>
