<svg width="64" height="214" viewBox="0 0 64 214" fill="none" xmlns="http://www.w3.org/2000/svg">
<path id="Vector 6" d="M3.61897 4.8271C4.30083 8.79836 4.51395 11.6839 5.49177 14.9596C5.62441 15.3807 5.76216 15.8108 5.90717 16.2523C6.98797 19.5437 8.20608 23.2144 9.41726 27.0191C10.6417 30.7831 11.7256 34.9093 12.0794 38.9514C12.3392 41.6286 13.2693 44.3238 14.0063 46.9413C14.3469 48.1388 14.6744 49.3714 14.928 50.6492C15.7485 54.9178 16.8444 59.0496 18.3071 63.1087C18.9022 64.7801 19.4738 66.448 20.037 68.1033C20.158 68.4589 20.1941 68.6827 20.2488 68.8437C20.7631 70.3594 21.6622 72.8798 22.1885 74.3568C22.3357 74.7721 22.4995 75.2276 22.6766 75.7086C23.9314 79.1336 24.8014 83.6627 25.7292 86.0127C25.878 86.434 26.0373 86.8555 26.1888 87.246C26.4772 87.987 26.6964 88.6268 26.7585 88.9553C26.9258 89.4102 27.0929 89.6276 27.1411 89.7455C27.1415 89.7469 27.1419 89.7483 27.1424 89.7496C27.297 90.1257 27.5848 91.1108 27.6611 91.3233C27.6724 91.3549 27.6616 91.1392 27.8228 91.6625C27.8369 91.709 27.7849 91.6802 27.9322 92.1161C27.973 92.2296 28.5151 93.6713 28.6496 94.0897C29.116 95.4777 30.0552 98.8321 30.5108 100.509C30.582 100.767 30.6449 100.906 30.7196 101.178C30.7582 101.319 30.79 101.534 30.8019 101.577C30.8547 101.767 31.1888 102.561 30.8863 102.325C31.1304 103.182 31.1359 102.908 31.1893 102.915C31.3257 103.414 31.3923 103.785 31.451 104.051C31.5017 104.281 31.5474 104.433 31.629 104.531C32.6407 108.434 33.979 112.279 35.0486 116.337C35.2066 116.942 35.3698 117.547 35.5365 118.152C35.555 118.149 35.5735 118.145 35.592 118.141C35.892 119.493 36.1486 119.916 36.2633 120.708C36.4223 121.171 36.5821 121.635 36.7421 122.1C37.4799 124.695 38.2309 127.311 38.8812 129.973C39.9691 134.416 41.0063 138.815 42.3462 143.086C43.8883 148.074 45.985 152.8 48.4728 157.409C48.7174 157.869 48.7445 158.003 49.1545 158.771C49.6058 159.63 50.3017 160.787 50.8516 162.097C50.882 162.17 50.9124 162.246 50.9425 162.323C51.3673 163.401 51.8279 164.914 52.1358 166.076C52.2115 166.356 52.2884 166.552 52.2967 166.584C52.344 166.77 52.3075 166.789 52.352 166.969C52.4051 167.185 52.4977 167.438 52.5546 167.688C52.7694 168.621 52.9793 169.634 53.0014 169.752C53.1084 170.32 53.091 170.452 53.0997 170.499C53.2104 171.13 53.2014 170.888 53.2277 171.045C53.3611 171.861 53.3689 172.449 53.6277 173.538C53.5905 173.513 53.5534 173.488 53.5162 173.464C53.5269 173.542 53.5365 173.608 53.5453 173.663C53.6313 174.212 53.6333 173.755 53.6721 173.91C53.6906 173.983 53.9572 175.792 53.978 175.926C54.0482 176.406 54.0079 176.425 54.0138 176.467C54.0277 176.57 54.2745 177.757 54.3548 178.366C54.4485 179.089 54.1988 178.264 54.2168 178.445C54.2186 178.476 54.3763 179.222 54.3718 179.327C54.3651 179.443 54.2329 178.798 54.2235 178.81C54.2135 178.82 54.3798 179.902 54.2966 179.706C54.214 179.552 53.9757 178.08 53.9064 177.769C53.894 177.718 53.8609 177.824 53.8509 177.778C53.7973 177.608 53.2598 174.15 53.2421 173.979C53.2937 174.157 53.345 174.336 53.3962 174.514C53.3612 174.272 53.3259 174.029 53.29 173.786C53.3629 174.129 53.4345 174.47 53.5057 174.81C53.557 174.563 53.4943 174.11 53.3989 173.686C53.2874 173.191 53.1317 172.736 53.0748 172.71C53.0269 172.69 53.0658 173.65 52.8588 172.784C52.8693 172.919 52.8794 173.054 52.8895 173.189C52.9324 173.375 52.975 173.562 53.0172 173.747C53.0367 173.832 53.0561 173.918 53.0754 174.003C53.0674 173.916 53.0593 173.829 53.0511 173.741C53.0421 173.645 53.033 173.547 53.0238 173.449C53.0477 173.515 53.0715 173.58 53.0953 173.645C53.1012 173.674 53.107 173.703 53.1128 173.732C53.2095 174.214 53.3034 174.694 53.3975 175.172C53.4281 175.436 53.3808 175.387 53.4011 175.568C53.6612 177.817 53.5454 176.344 53.7758 177.797C53.7917 178.007 53.8086 178.216 53.8267 178.426C53.8996 178.336 53.9618 178.985 54.1659 179.738C54.1183 179.653 54.0709 179.568 54.0238 179.483C54.252 180.591 54.748 182.823 54.73 182.187C54.7891 182.437 54.8513 182.687 54.9164 182.937C55.0064 183.136 55.0981 183.335 55.1922 183.533C55.2306 183.65 55.2697 183.767 55.3099 183.886C55.3691 184.059 55.4277 184.233 55.486 184.407C55.4734 184.413 55.4608 184.419 55.4481 184.425C55.3878 184.25 55.327 184.076 55.2657 183.901C55.245 183.842 55.2246 183.784 55.2044 183.725C55.2109 183.788 55.2176 183.852 55.2245 183.915C55.2391 184.04 55.2534 184.165 55.2674 184.29C55.3343 184.461 55.4007 184.633 55.4667 184.804C55.2542 184.062 55.6463 185.002 55.7768 185.218C56.0039 185.828 56.064 186.245 56.1286 186.452C56.1599 186.55 56.6505 187.656 56.3725 187.25C56.5782 187.834 56.7809 188.419 56.9818 189.003C57.0437 189.237 57.1053 189.47 57.1667 189.704C56.949 189.223 57.3242 190.696 56.9667 189.636C56.699 188.845 56.6948 188.631 56.5749 188.253C56.4666 187.912 56.3702 187.744 56.2494 187.374C55.8517 186.154 55.4813 185.047 55.1022 183.958C54.72 182.86 54.4032 181.761 54.1232 180.558C54.0149 180.092 53.9026 179.67 53.8395 179.354C53.769 178.996 53.9109 179.433 53.8063 178.981C53.6983 178.506 53.6391 178.409 53.6142 178.282C53.599 178.203 53.5901 177.946 53.5495 177.715C53.3805 176.766 53.13 175.361 53.1086 175.223C53.0969 175.148 53.0018 174.467 52.9001 173.765C52.7929 173.022 52.6772 172.257 52.6686 172.188C52.6599 172.117 52.8233 172.24 52.5727 171.658C52.5373 171.469 52.5015 171.281 52.4649 171.092C52.4978 171.118 52.5308 171.143 52.5637 171.169C52.2551 170.067 52.3874 170.442 52.1629 169.362C51.7624 167.457 51.1159 164.88 50.2148 162.61C49.8821 161.77 49.5036 161.03 49.154 160.355C48.8554 159.785 48.7124 159.589 48.3553 158.924C48.0224 158.31 47.2594 156.656 47.3236 157.072C46.7144 155.651 46.4243 155.523 46.1931 154.774C46.1353 154.7 46.0774 154.625 46.0193 154.55C45.723 153.763 45.5479 153.563 45.1535 152.74C44.9857 152.385 45.2497 152.759 44.8357 152.078C44.78 151.938 44.7242 151.796 44.6683 151.653C44.7017 151.677 44.7351 151.702 44.7684 151.726C44.3971 150.931 44.386 150.867 44.3549 150.993C44.2002 150.6 44.0445 150.196 43.8974 149.803C43.8538 149.764 43.8102 149.725 43.7665 149.686C43.665 149.956 47.9842 158.591 48.7414 159.767C49.0806 160.48 49.6521 161.524 50.1109 162.65C50.5635 163.771 50.9318 164.885 51.1132 165.526C51.2555 166.033 51.2655 166.271 51.4502 167.011C51.6349 167.751 51.8937 168.674 51.978 169.07C52.1969 169.979 52.7439 173.252 52.7921 173.782C52.8022 173.876 52.7984 173.886 52.7762 173.785C52.7416 173.629 52.6643 173.203 52.5191 172.405C52.5116 172.531 52.5042 172.659 52.4964 172.785C52.6078 173.29 52.6696 173.589 52.7088 173.796C52.7991 174.276 52.7686 174.28 52.9117 175.255C52.996 175.844 53.282 177.221 53.1457 177.164C52.9409 176.086 52.8102 174.921 52.6583 173.969C52.6554 173.95 52.6441 173.893 52.6273 173.808C52.558 173.46 52.3918 172.644 52.3254 172.175C52.25 171.65 52.4357 171.989 52.0975 170.874C52.0734 170.004 51.8526 169.537 51.7944 169.319C51.6921 168.938 51.7473 168.883 51.6694 168.496C51.5841 168.076 51.4721 167.798 51.4583 167.741C51.3509 167.162 50.4733 164.215 50.4229 164.081C50.4741 164.194 50.525 164.308 50.575 164.422C50.3368 163.657 50.3232 163.839 50.2463 163.643C50.1935 163.495 50.1398 163.348 50.0849 163.201C50.1198 163.255 50.1545 163.308 50.1891 163.362C49.9958 162.848 49.9816 162.867 49.9131 162.728C49.8622 162.629 49.7823 162.436 49.5459 161.918C49.1856 161.134 48.824 160.342 48.7846 160.272C48.7724 160.251 48.8639 160.504 48.6999 160.2C48.4288 159.698 47.9696 158.84 47.9591 158.717C47.8244 158.479 47.7926 158.521 47.7745 158.489C47.691 158.351 46.3899 155.919 46.1747 155.479C45.552 154.265 44.9053 152.89 44.3036 151.544C44.242 151.406 44.3088 151.482 44.2469 151.343C44.143 151.116 43.6119 149.986 43.5399 149.812C43.3503 149.381 42.9209 148.234 42.84 148.055C42.8282 148.03 42.9352 148.425 42.753 147.984C42.5544 147.499 42.7065 147.744 42.6967 147.717C42.3376 146.704 42.0823 146.088 41.8383 145.394C41.7595 145.169 41.6629 144.747 41.547 144.428C41.5337 144.392 41.5206 144.477 41.5071 144.441C41.3658 144.059 41.2918 143.675 41.2363 143.428C41.2236 143.372 41.2118 143.323 41.2006 143.283C41.0549 142.769 41.0894 143.062 41.0809 143.036C40.9749 142.694 40.855 142.229 40.7004 141.709C40.0133 139.39 39.5156 137.477 38.8964 134.975C38.8186 134.66 38.7627 134.277 38.7511 134.23C38.7143 134.082 38.6815 134.133 38.5771 133.704C38.3561 132.796 38.1486 131.955 37.9296 131.057C37.8857 130.877 37.9056 130.787 37.873 130.65C37.8503 130.556 37.8114 130.414 37.7646 130.247C37.5861 129.606 37.2817 128.619 37.3776 128.572C37.0226 127.684 36.9532 127.051 36.7473 126.316C36.2613 124.574 35.4391 121.872 34.96 120.144C34.8591 119.779 34.8434 119.6 34.7878 119.397C34.6848 119.035 34.0954 116.966 34.0755 116.856C34.053 116.752 34.0825 116.719 34.0732 116.594C34.0624 116.458 34.0068 116.213 33.7822 115.657C33.5923 115.012 33.6714 115.072 33.6368 114.937C33.3621 113.888 32.9233 112.924 33.1009 113.075C32.7036 111.882 32.3961 111.127 32.3587 110.604C32.306 110.627 32.0994 110.074 31.9143 109.389C32.218 110.056 32.2494 109.95 32.7503 111.638C32.7581 111.665 32.703 111.626 32.7109 111.653C32.782 111.894 32.9561 112.39 33.0787 112.801C33.2011 113.213 33.1048 112.993 33.1551 113.158C33.201 113.308 33.2376 113.292 33.3036 113.51C33.5174 114.218 33.7102 114.846 33.8255 115.253C33.8983 115.509 33.9443 115.805 33.9986 116.004C34.0417 116.162 34.0951 116.356 34.1545 116.573C34.3806 117.405 34.7231 118.577 34.9391 119.347C34.9955 119.549 34.9335 119.475 35.0564 119.917C35.0708 119.969 35.1636 120.145 35.2829 120.529C35.4023 120.913 35.4696 121.218 35.5456 121.465C35.6092 121.671 35.6187 121.574 35.7444 121.999C35.8514 122.35 36.9868 126.385 37.034 126.611C37.1135 126.929 37.1056 127.093 37.1643 127.285C37.1748 127.319 37.2379 127.363 37.2733 127.48C37.4764 128.152 37.7382 129.117 37.9994 130.19C38.485 132.185 39.0251 134.525 39.3905 135.97C40.0328 138.524 40.6959 140.946 41.454 143.361C42.0712 145.33 42.7627 147.267 43.5725 149.262C43.6121 149.337 43.6514 149.411 43.6921 149.489C43.5114 149.044 43.3317 148.589 43.1596 148.141C43.1801 148.13 43.2006 148.119 43.221 148.108C42.9889 147.49 42.9729 147.597 42.9473 147.624C42.8759 147.395 42.8045 147.161 42.7341 146.928C42.5858 146.767 42.0952 145.219 41.8438 144.429C41.7255 144.066 41.5825 143.664 41.4782 143.354C41.4345 143.224 41.3983 143.113 41.3742 143.032C41.2024 142.452 41.2559 142.453 41.2427 142.407C41.2202 142.33 40.9374 141.533 40.7723 140.946C40.5289 140.078 40.5748 139.965 40.191 138.79C39.8197 137.253 39.3731 135.554 38.9578 133.894C39.1038 134.193 38.6734 132.721 38.5098 132.046C38.3629 131.441 38.2114 130.816 38.0563 130.176C37.1546 126.438 35.9003 122.298 34.9415 118.792C34.7966 118.263 34.727 117.854 34.6453 117.56C34.6012 117.401 34.5349 117.344 34.4814 117.121C34.4722 117.082 34.5086 117.043 34.4056 116.629C34.3965 116.593 34.3869 116.554 34.3767 116.514C34.1011 115.394 33.3158 113 33.2037 112.354C32.3583 109.634 31.5055 106.948 30.7874 104.224C30.578 103.434 30.365 102.643 30.1479 101.853C30.1417 101.758 30.1357 101.665 30.1296 101.571C29.8579 100.922 29.1692 98.2525 28.774 96.964C28.0939 94.6944 27.1256 91.8235 26.3936 89.869C26.2361 89.4445 26.1301 89.0873 25.9742 88.6857C25.9076 88.5144 25.7902 88.3112 25.7192 88.1331C25.6426 87.9409 25.5616 87.7392 25.479 87.536C24.7089 85.6827 24.0258 83.2878 23.5405 81.4111C23.0604 79.5942 22.5998 77.7661 21.9372 75.9825C20.9355 73.2655 20.0178 70.5115 19.0263 67.6392C18.5373 66.2202 18.0427 64.8014 17.5332 63.3868C16.0378 59.2851 14.9125 55.1055 14.0749 50.8198C13.2489 46.6992 11.5779 42.9068 11.2053 39.0312C10.8534 34.9986 9.82203 31.0532 8.59906 27.2795C7.78883 24.7336 6.95418 22.1981 6.10435 19.67C6.03379 19.4601 6.07538 19.4569 6.02061 19.2941C5.71247 18.3747 4.99968 16.3843 4.6103 15.2645C4.59291 15.2143 4.57633 15.1658 4.56061 15.1192C4.2703 14.2859 3.97031 12.9063 3.84179 12.6218C4.03143 13.5107 4.26613 14.406 4.55517 15.2835C5.29922 17.5376 6.08147 19.8419 6.82279 22.1333C6.89681 22.3621 6.86956 22.4022 6.87824 22.4306C7.03751 22.9543 6.97956 22.6095 7.23026 23.3623C7.31566 23.6134 7.95656 25.9807 7.98201 25.6662C8.03081 25.8753 8.2278 26.5327 8.46768 27.3213C8.89153 28.694 9.41089 30.4896 9.55058 30.9828C9.61963 31.2173 9.60906 31.0408 9.62358 31.0872C9.68649 31.2888 9.66283 31.394 9.70957 31.5767C9.83873 32.0629 10.1747 33.2997 10.2232 33.5395C10.3513 34.0856 10.6286 35.7475 10.7405 36.4798C10.8485 37.1505 10.8819 37.018 10.962 37.6007C11.0205 38.0618 10.9233 37.5635 11.0209 38.5944C11.0302 38.6985 11.046 38.8548 11.0645 39.044C11.1233 39.7349 11.3407 40.8643 11.4116 41.1889C11.494 41.5972 11.5647 42.0584 11.7079 42.6212C11.9064 43.4315 12.4361 45.1913 12.6922 46.0222C12.7073 46.0717 12.7818 46.1816 12.8168 46.3044C12.8894 46.5589 12.819 46.4968 12.87 46.6903C12.9347 46.8721 13.8466 50.2157 13.9307 50.8486C13.9313 50.8517 13.9319 50.8547 13.9325 50.8576C14.0113 51.2529 14.0961 51.5188 14.1406 51.7367C14.1755 51.9076 14.1384 51.9343 14.1743 52.1086C14.1855 52.1626 14.3166 52.6138 14.4154 53.0708C14.5042 53.5037 14.8502 55.1431 14.9002 55.3304C14.9302 55.4529 14.9255 55.312 15.0149 55.674C15.0969 56.0044 15.1155 56.2301 15.1638 56.4177C15.276 56.8537 15.439 57.3308 15.5683 57.7895C15.9445 59.1076 15.8885 59.0529 15.9084 59.1317C15.9699 59.3506 16.0392 59.4272 16.0618 59.4979C16.1571 59.7994 16.3987 60.5356 16.4888 60.804C16.5998 61.1373 16.6068 61.2908 16.7262 61.6466C16.8146 61.9093 17.0344 62.43 17.2489 63.0285C17.2963 63.1611 17.3454 63.2971 17.3959 63.4362C17.857 64.7046 18.3645 66.142 18.7803 67.3524C18.9178 67.7525 18.9032 67.8269 18.9443 67.9493C19.1604 68.594 19.3237 68.9403 19.3861 69.124C19.8309 70.4349 20.5668 72.788 20.9898 73.9949C21.091 74.2848 21.4078 75.1503 21.7498 76.0519C21.9954 76.6982 22.2186 77.3727 22.373 77.8883C22.4161 78.0322 22.347 77.9063 22.3996 78.0648C22.5244 78.4442 22.571 78.3917 22.6256 78.5868C22.6516 78.6809 22.6799 78.9041 22.752 79.1778C23.1222 80.5982 23.3897 81.5547 23.5621 82.1904C24.0511 84.033 24.6136 85.8447 25.3282 87.5977C27.0118 91.7775 28.2912 96.0337 29.4171 100.045C29.596 100.686 29.8497 101.47 30.0764 102.45C30.0663 102.485 30.0561 102.519 30.046 102.554C30.0729 102.583 30.0998 102.612 30.1267 102.641C30.3218 103.347 30.4451 103.768 30.58 104.278C30.6547 104.561 30.7334 104.868 30.8328 105.266C30.8568 105.362 30.8537 105.676 31.0067 105.829C31.2395 106.947 31.1451 106.324 31.3852 107.136C31.6273 107.947 31.841 108.744 32.0755 109.533C32.1696 109.976 31.5369 108.189 31.5043 108.07C31.4486 107.88 31.4408 107.666 31.3903 107.483C31.2397 106.937 31.05 106.42 31.0616 106.287C30.8159 105.595 31.0859 106.467 31.0179 106.39C30.903 105.914 30.7917 105.44 30.6834 104.964C30.6225 104.906 30.5381 104.649 30.4484 104.313C30.2255 103.472 29.9515 102.15 29.9057 102.302C29.8725 102.089 29.8379 101.871 29.8041 101.658C29.4134 100.783 29.3653 100.217 29.0604 98.9889C29.0676 99.0819 29.0744 99.1741 29.0815 99.2674C29.0677 99.2446 28.7301 98.1802 28.9171 98.5415C28.4971 97.472 28.6778 97.4683 28.2616 96.5214C28.0686 95.9429 28.2478 96.2716 27.9231 95.2286C27.7297 94.6108 27.4485 93.8568 27.2184 93.1707C27.1655 93.0124 27.1829 92.9303 27.136 92.7897C27.0889 92.649 27.0262 92.5933 26.9677 92.4235C26.8468 92.0727 26.717 91.608 26.6373 91.3896C26.5663 91.1945 26.4333 90.9257 26.257 90.4558C25.6337 88.8186 25.8598 89.2991 25.7799 89.0324C25.6903 88.7472 25.5499 88.5722 25.3368 88.0182C25.3153 87.9625 25.413 88.0897 25.3389 87.9103C25.3043 87.8265 25.2653 87.7727 25.1991 87.6504C25.1514 87.5625 25.0897 87.4387 25.0089 87.244C24.9017 87.0674 23.8748 84.1114 23.7676 83.6407C23.5554 82.9394 23.1737 81.3433 22.9792 80.5994C22.9038 80.313 22.7866 80.017 22.7047 79.7121C22.4556 78.7783 22.0425 77.3181 21.5918 76.1105C21.5571 76.0165 21.5229 75.9232 21.4892 75.8311C21.0806 74.7224 20.4737 72.7301 20.1916 72.1403C19.6393 70.5696 19.5698 70.164 19.5296 70.0453C19.4218 69.7232 19.3307 69.588 19.1899 69.1832C18.5809 67.4321 17.9124 65.4916 17.1997 63.5066C15.7659 59.5815 14.651 55.3492 13.9652 51.9305C13.8929 51.5823 13.822 51.2339 13.7519 50.8844C12.943 46.8163 11.2665 43.0209 10.882 39.0607C10.5335 35.0638 9.51253 31.1508 8.28889 27.3782C7.12359 23.7203 5.90658 20.0795 4.6645 16.4517C4.63611 16.4269 4.60764 16.4019 4.57915 16.3769C5.03885 17.7491 5.55592 19.37 6.00308 20.7267C6.60237 22.5372 7.55824 25.2028 7.86153 26.5754C7.67774 26.0383 7.4394 25.1437 7.38156 25.1799C7.62207 25.9324 7.86048 26.6854 8.09657 27.4394C8.16364 27.6536 8.23044 27.8681 8.29681 28.083C8.31684 28.0449 8.33685 28.0068 8.35686 27.9687C8.68403 28.9785 8.99257 30.0213 9.2789 31.0518C9.32844 31.2307 9.32065 31.0964 9.36307 31.2525C9.41025 31.4275 9.3511 31.3162 9.3597 31.349C9.47748 31.7909 9.53813 31.9182 9.55186 31.9723C9.58603 32.1117 9.53324 32.0101 9.62568 32.4129C9.79568 33.16 9.98057 33.6824 9.82497 33.5322C9.87872 33.7733 9.93069 34.0152 9.98075 34.2578C10.0258 34.3144 10.0706 34.37 10.1154 34.4265C10.2821 35.9462 10.604 36.6069 10.5345 37.4683C10.5979 37.7396 10.6587 38.0121 10.717 38.2859C10.7015 38.4442 10.6854 38.6055 10.6681 38.7631C10.699 38.7906 10.7299 38.8181 10.7608 38.8458C10.7669 38.9201 10.773 38.9949 10.7791 39.0701C10.8882 40.4497 11.2345 41.8843 11.5713 43.1752C11.8213 44.1226 11.8787 44.3511 12.1232 45.189C12.6741 47.0545 12.0782 45.2147 12.4744 46.7857C12.484 46.6952 12.4934 46.6044 12.5028 46.5138C12.5901 46.768 12.677 47.0225 12.7631 47.2777C12.7876 47.4656 12.8115 47.6534 12.8348 47.8416C13.1988 48.6041 13.2158 49.1614 13.2434 49.2709C13.2636 49.3602 13.4361 49.6437 13.5712 50.6302C13.588 50.403 13.6328 50.6265 13.6697 50.9008C13.7013 51.1384 13.7301 51.4129 13.7385 51.4553C13.7546 51.5414 14.0071 52.6317 14.1037 53.0747C14.178 53.4237 14.3185 54.1719 14.4422 54.6882C14.5515 55.1446 14.5807 55.0879 14.589 55.1212C14.7287 55.6806 14.6121 55.3374 14.7109 55.7423C14.8106 56.1478 14.926 56.4515 14.9456 56.5389C14.9555 56.5831 14.8804 56.4463 14.9295 56.6477C15.0602 57.1898 15.361 58.1495 15.5417 58.7609C15.6048 58.9767 15.6558 59.2587 15.7286 59.5004C15.8398 59.8687 15.9351 60.0288 16.0012 60.2425C16.0248 60.3187 16.1109 60.8108 16.3159 61.3959C16.3551 61.5071 16.596 61.7897 16.5584 62.289C16.5962 62.3133 16.634 62.3377 16.6719 62.3621C16.8493 62.826 16.9849 63.2091 17.0972 63.5435C17.4545 64.6093 17.5318 65.1175 17.9097 65.7343C18.3874 67.1731 17.9711 66.2161 18.0146 66.3772C18.0428 66.481 18.2249 66.9408 18.2415 66.9926C18.2707 67.0843 18.2416 67.0769 18.2761 67.1764C18.9097 69.0004 18.6747 68.1744 18.902 68.7432C19.4409 70.0952 19.6585 71.2196 18.8839 68.8122C18.8706 68.8167 18.8574 68.8213 18.8441 68.8258C19.0586 69.4099 19.5649 70.9075 19.3267 70.4312C19.1398 70.0563 17.9563 66.4979 18.5721 68.5318C18.7119 68.9938 18.8424 69.2126 19.0199 70.0346C19.1937 70.5583 19.3402 70.5926 19.5346 71.316C19.5368 71.1856 19.5386 71.0538 19.5411 70.9238C19.9266 71.8691 20.264 73.0822 20.5476 73.8113C20.643 74.0589 21.1644 74.8892 20.8896 74.7502C20.9725 74.962 21.1869 75.5799 21.4033 76.1803C21.6174 76.772 21.8015 77.3574 21.8692 77.5396C21.8988 77.6292 22.0611 77.7111 22.3982 79.0429C22.4102 79.1384 22.4221 79.234 22.4337 79.3294C22.0592 78.134 22.6076 80.2755 22.3445 79.7249C22.3398 79.5157 22.0999 78.5527 22.0754 78.3928C22.0371 78.1189 22.3233 78.8845 22.0095 77.8936C21.6493 77.3211 22.2652 79.0857 22.0171 78.8596C22.4598 80.143 22.412 80.2962 22.4891 80.5924C22.8106 81.8621 23.0318 82.6542 23.3597 83.8443C23.4707 84.1239 22.9156 81.962 22.8374 81.6962C23.2181 82.648 22.7753 80.9537 22.5152 80.2548C22.5354 80.185 22.5556 80.1152 22.5757 80.0454C22.805 80.9841 23.0274 81.8967 23.3112 82.8051C23.3142 82.8683 23.3173 82.9317 23.3205 82.9952C23.2428 82.7957 23.1657 82.5946 23.0896 82.3946C23.2666 83.1678 23.241 82.6814 23.4405 83.7207C23.4901 83.7402 23.5398 83.7597 23.5895 83.7792C23.8609 84.7507 24.1608 85.712 24.4999 86.6611C24.6139 86.8628 24.803 87.3167 24.9734 87.7426C25.1967 88.302 25.3568 88.8191 25.2254 88.6522C25.5046 89.3912 25.2062 88.4604 25.4981 89.1423C25.6249 89.4388 25.848 90.0283 25.8738 90.1853C25.7535 90.1568 25.4124 89.281 25.2411 89.0405C25.3083 89.2009 26.8329 93.3017 26.5764 92.9768C26.6726 93.3122 26.6826 93.1404 26.8941 93.7336C27.4907 95.3969 28.1537 98.0509 28.6882 99.3758C28.3123 97.7471 28.0819 97.2995 27.706 96.0768C27.4907 95.2879 25.8842 90.5707 26.3401 91.59C26.2665 91.4215 26.1926 91.2538 26.1178 91.0855C26.0867 90.9 26.0551 90.7149 26.0226 90.529C26.2052 91.0188 26.3833 91.5099 26.5577 92.0022C26.5673 92.1306 26.5768 92.2596 26.5859 92.388C26.6265 92.4348 26.6671 92.4816 26.7076 92.5286C26.7825 92.7354 26.8567 92.9424 26.9303 93.1495C26.8842 93.0997 26.8381 93.05 26.792 93.0004C26.8945 93.3231 26.9956 93.6461 27.0955 93.9698C27.1031 93.8716 27.1105 93.7731 27.1179 93.6748C27.6176 95.1902 27.4279 94.6836 27.6257 95.5482C27.8134 96.1813 27.5554 95.0935 27.9816 96.4242C28.4683 97.9741 28.0591 96.9845 28.6681 98.997C28.6944 99.0209 28.7208 99.0449 28.7471 99.0688C28.8562 99.5183 28.9639 99.9691 29.0698 100.419C29.0757 100.353 29.0818 100.288 29.0878 100.223C29.337 101.145 29.7224 102.402 29.7156 102.732C29.5075 101.787 29.3543 101.837 29.3924 102.088C29.4181 102.26 29.666 103.202 29.9867 104.433C30.6136 106.887 31.7407 110.433 32.0339 111.377C32.5967 113.191 32.9693 114.577 33.5017 116.232C33.2741 115.071 32.0061 111.133 31.8181 110.374C31.7997 110.299 31.9453 110.276 31.6427 109.848C31.2008 108.304 30.6092 106.479 30.1055 104.539C30.1618 104.588 30.2181 104.636 30.2743 104.684C30.5018 105.898 31.0081 106.939 30.8062 106.83C30.8734 107.065 30.9411 107.3 31.01 107.536C31.037 107.528 31.064 107.52 31.0911 107.513C31.1941 107.866 31.2992 108.222 31.4048 108.575C31.3778 108.583 31.3508 108.591 31.3238 108.599C31.4117 108.893 31.4999 109.186 31.589 109.479C31.6251 109.502 31.6613 109.524 31.6974 109.546C31.9077 110.439 32.9781 113.387 32.4136 112.12C32.54 112.533 32.6659 112.945 32.7905 113.359C32.8098 113.352 32.8291 113.344 32.8484 113.337C32.9046 113.514 32.9605 113.691 33.0161 113.868C32.9808 113.815 32.9455 113.762 32.9101 113.708C33.1862 114.514 33.3143 115.317 33.5251 115.839C33.4403 115.48 33.3531 115.121 33.2641 114.763C33.4077 115.334 33.7074 116.29 33.8171 116.662C33.8394 116.737 33.8545 116.788 33.8596 116.806C33.9508 117.148 33.9591 117.339 34.0579 117.709C34.1476 118.044 34.166 117.989 34.182 118.052C34.6512 119.859 34.2953 119.221 34.7304 120.004C34.729 120.101 34.7277 120.198 34.7264 120.295C34.783 120.408 34.8396 120.52 34.8963 120.632C35.047 121.163 35.1988 121.694 35.3508 122.225C35.333 122.039 35.3152 121.852 35.2975 121.665C35.5433 122.456 35.5839 122.846 35.6047 122.924C35.6641 123.143 35.7353 123.231 35.7549 123.298C36.6866 126.544 36.0829 124.584 36.3837 126.252C36.608 126.815 36.5071 126.211 36.5475 126.11C36.7332 126.89 36.8177 127.126 37.0342 127.944C37.0903 128.157 37.1165 128.395 37.1513 128.529C37.1816 128.646 37.3135 129 37.3852 129.28C37.4584 129.565 37.5369 129.911 37.6216 130.282C37.6761 130.521 37.7322 130.764 37.7938 131.014C37.9245 131.545 38.3472 133.165 38.6268 134.296C38.7463 134.78 38.6878 134.675 38.7186 134.799C38.7316 134.852 38.8616 135.219 38.9392 135.529C39.5698 138.054 40.2277 140.634 40.9941 143.131C41.0286 143.244 41.0636 143.357 41.0991 143.471C41.613 145.122 42.2055 146.752 42.8248 148.364C42.9651 148.728 42.8645 148.546 42.9252 148.704C42.9458 148.756 43.0174 148.811 43.2236 149.377C43.2982 149.581 43.1734 149.363 43.2516 149.56C43.2907 149.658 43.3471 149.689 43.5893 150.245C44.0359 151.266 44.23 151.828 44.2723 151.921C44.3522 152.092 44.3619 152.028 44.4648 152.253C44.9702 153.354 45.414 154.262 45.902 155.231C46.1177 155.691 47.7506 158.769 47.8438 158.945C48.0352 159.333 47.7795 159.011 48.043 159.499C48.1331 159.629 48.2191 159.751 48.3102 159.883C48.2061 159.656 48.1045 159.435 48.0008 159.211C48.299 159.819 48.6871 160.482 48.9148 160.935C48.9589 161.02 49.3128 161.802 49.4937 162.209C49.4034 162.04 49.3129 161.878 49.2196 161.714C49.2364 161.777 49.2553 161.845 49.2727 161.91C49.4141 162.197 49.5566 162.509 49.6813 162.819C49.8938 163.348 50.0899 163.892 50.2681 164.43C50.3692 164.738 50.3082 164.643 50.4072 164.955C50.9537 166.781 50.9381 166.294 51.158 168.124C51.0536 167.514 50.4246 165.349 50.3168 165.038C50.2564 164.819 50.1498 163.917 50.0708 164.288C49.5247 162.747 49.9778 163.751 49.6329 162.838C49.592 162.734 49.5342 162.595 49.4609 162.431C49.4527 162.472 49.4437 162.511 49.4357 162.553C49.1863 162.006 48.9795 161.618 48.8568 161.277C48.7074 161.214 47.8289 159.4 47.2974 158.43C46.5363 157.031 45.6813 155.444 44.9962 154.022C44.7615 153.536 44.6694 153.23 44.6421 153.172C44.6002 153.083 44.447 152.846 44.363 152.663C44.0434 151.989 43.2199 149.89 42.9162 149.404C44.5385 153.525 46.6735 157.407 48.7296 161.335C48.6253 161.081 49.0885 161.904 49.4927 162.894C49.9065 163.911 50.2733 165.075 50.3053 165.186C50.3656 165.388 50.2769 165.23 50.2933 165.29C50.4158 165.741 50.5765 166.108 50.6167 166.251C50.6471 166.36 50.6844 166.587 50.7867 166.975C50.8054 167.046 50.8369 167.059 50.8567 167.136C50.9872 167.644 51.1067 168.147 51.2209 168.661C51.2277 168.692 51.2176 168.83 51.2455 168.96C51.2737 169.09 51.3396 169.21 51.3466 169.243C51.4339 169.654 51.5473 170.366 51.619 170.759C51.6442 170.895 51.6555 170.796 51.6831 170.948C51.7674 171.418 51.6842 171.273 51.7995 171.852C51.8375 172.045 51.8788 172.026 51.9355 172.4C51.9753 172.665 51.8939 172.649 51.898 172.692C51.9043 172.747 52.0857 173.536 52.1067 173.891C52.1082 173.916 52.109 173.939 52.1087 173.96C52.0996 173.935 52.0912 173.913 52.0837 173.894C52.0199 173.734 52.0163 173.778 52.0406 173.901C52.0867 174.134 52.2302 174.647 52.2589 174.6C52.3007 174.965 52.342 175.329 52.384 175.693C52.4173 175.814 52.4506 175.935 52.4841 176.056C52.6514 177.524 52.8367 178.407 53.1193 179.83C53.1286 179.899 53.3763 181.098 53.3469 181.046C53.1362 180.344 52.9819 179.627 52.953 179.155C52.6852 178.421 52.7738 178.39 52.5492 177.164C52.4756 176.753 52.4389 176.729 52.4307 176.682C52.295 175.895 52.1349 174.873 51.9886 173.909C51.8381 172.913 51.703 171.978 51.6539 171.422C51.5754 171.124 51.7543 172.212 51.662 171.793C51.6712 171.552 50.4209 166.073 50.9226 167.799C50.8757 167.618 50.8278 167.438 50.7787 167.258C50.6334 167.102 50.4132 166.203 50.5408 166.276C50.4963 166.197 50.4516 166.118 50.4067 166.04C50.3411 165.878 50.2744 165.684 50.1845 165.411C50.066 165.051 49.7609 164.072 49.3244 162.96C48.4586 160.861 46.9909 158.338 46.899 158.13C46.8733 158.134 46.8475 158.139 46.8217 158.144C47.6468 159.758 48.5669 161.291 49.2587 162.986C49.663 164.017 50.0155 165.096 50.3118 166.241C50.3093 166.147 50.3066 166.053 50.3034 165.958C50.6234 167.176 50.8834 168.408 51.103 169.647C50.8036 168.348 50.2598 166.307 49.8546 164.974C49.7841 164.737 49.8711 164.899 49.8572 164.844C49.8201 164.7 49.7192 164.565 49.5371 164.063C49.4494 163.822 49.3044 163.403 49.1639 163.023C49.0154 162.619 48.8581 162.26 48.8321 162.204C48.7309 161.986 48.3938 161.443 48.2093 161.085C47.9655 160.609 48.1652 160.909 48.1169 160.814C47.9171 160.42 47.7122 160.077 47.5535 159.773C47.3153 159.316 46.8724 158.34 46.6117 158.068C46.7807 158.396 46.9499 158.723 47.1192 159.05C46.1447 157.306 45.5323 155.858 44.5879 154.124C44.2802 153.772 45.0049 155.242 44.3582 154.018C44.465 154.238 44.5795 154.472 44.6892 154.693C44.7383 154.734 44.7869 154.774 44.8365 154.816C45.0111 155.216 45.1866 155.61 45.3634 156C45.3293 155.881 45.295 155.762 45.2605 155.641C45.9598 156.997 46.7116 158.347 46.8507 158.875C46.8924 158.889 46.934 158.903 46.9756 158.916C47.62 160.178 48.6919 162 48.357 161.721C48.3937 161.776 48.4321 161.834 48.4689 161.889C48.799 162.665 48.7044 162.307 48.8432 162.594C48.8564 162.623 48.9495 162.844 49.0312 163.075C49.1816 163.495 49.3258 163.971 49.1355 163.548C49.645 165.064 49.6159 164.554 49.7656 164.97C50.0188 165.968 50.5896 167.732 50.2742 167.01C50.3088 167.16 50.3424 167.308 50.3755 167.458C50.593 167.923 50.6 168.433 50.6804 168.974C50.7177 169.155 50.754 169.336 50.7895 169.518C50.8468 169.632 50.9035 169.747 50.9602 169.863C51.1401 171.603 51.4492 170.987 51.2378 171.834C51.1954 171.715 51.1531 171.597 51.1103 171.478C51.049 171.191 50.986 170.903 50.9214 170.616C51.124 171.734 51.2987 172.861 51.4682 173.992C51.4754 174.04 51.4826 174.088 51.4897 174.136C51.6259 175.645 51.8488 176.485 52.0659 178.172C52.1034 178.327 52.1414 178.482 52.1802 178.637C52.0714 178.492 51.9673 177.881 52.1464 179.022C52.1081 179.13 51.954 178.364 51.9374 178.007C51.933 177.921 52.1029 178.629 51.9624 177.824C51.8712 177.277 51.9657 178.281 51.7227 176.639C51.7185 176.702 51.7145 176.765 51.7104 176.828C51.6821 176.65 51.6544 176.473 51.6269 176.296C51.6341 176.133 51.6415 175.97 51.6492 175.808C51.5402 175.412 51.4415 175.193 51.3123 174.273C51.3575 174.462 51.3751 174.301 51.3476 174.011C51.3393 173.923 51.3269 173.823 51.3097 173.717C51.2865 173.72 51.2634 173.724 51.2402 173.728C51.0489 172.631 51.179 172.999 50.9729 172.098C50.9758 172.004 50.9785 171.91 50.9811 171.815C50.8262 171.331 50.4222 169.536 50.5978 169.843C50.3885 169.358 50.2025 168.295 50.1912 167.884C50.1613 167.859 50.1313 167.835 50.1014 167.81C50.0458 167.604 49.9887 167.398 49.9302 167.193C49.9136 167.074 49.8967 166.956 49.8792 166.837C49.8259 166.694 49.7722 166.553 49.7175 166.411C49.7151 166.317 49.7125 166.223 49.7094 166.129C49.6146 165.903 49.5178 165.679 49.4189 165.456C49.3924 165.309 49.3653 165.163 49.3369 165.016C49.292 165.013 48.802 163.633 48.6732 163.244C48.669 163.236 48.6648 163.229 48.6606 163.221C48.6099 163.128 48.5565 163.032 48.5004 162.934C48.4997 162.873 48.4984 162.811 48.4962 162.748C48.4438 162.675 48.3886 162.597 48.3359 162.527C48.2675 162.332 48.1955 162.138 48.1193 161.94C47.6379 161.224 47.7059 161.154 47.6174 160.981C47.4487 160.656 46.7972 159.587 46.6982 159.394C46.6038 159.21 46.5917 159.101 46.514 158.947C45.2563 156.44 45.7022 157.505 45.4246 157.014C45.2733 156.742 45.2131 156.541 45.0849 156.298C44.8623 155.894 43.8002 153.821 43.7521 153.688C43.6768 153.51 44.032 153.848 43.7243 153.295C43.6248 153.316 43.1553 152.039 43.2937 152.673C43.0723 152.153 42.8592 151.636 42.6526 151.119C42.572 151.222 42.3686 150.559 42.0809 149.861C41.6631 148.881 40.7736 146.649 40.9179 146.687C40.8077 146.455 40.6996 146.225 40.591 145.99C40.3616 145.268 40.1332 144.559 39.9074 143.839C39.6145 142.906 39.3264 141.975 39.0592 141.032C38.1025 137.66 37.2649 134.072 36.4196 130.578C36.0314 128.968 35.6052 127.381 35.1753 125.837C35.1101 125.604 35.1565 125.627 35.1094 125.458C34.8635 124.574 34.1664 122.284 33.816 121.038C33.7039 120.639 33.6843 120.435 33.6498 120.308C33.533 119.877 33.5147 119.992 33.4598 119.793C33.3718 119.481 32.9546 117.814 32.8089 117.239C32.7851 117.147 32.7558 117.051 32.7245 116.951C32.66 116.746 32.5856 116.528 32.5331 116.306C32.5263 116.278 32.5794 116.319 32.5736 116.295C32.4143 115.699 32.4793 116.066 32.4252 115.865C32.0374 114.428 31.5678 112.901 31.0964 111.341C30.9794 110.954 30.8247 110.353 30.7258 110.019C30.688 109.891 30.7281 110.129 30.5971 109.689C30.5522 109.537 30.5749 109.475 30.526 109.304C30.3159 108.567 30.1208 108.358 30.035 107.697C29.7968 106.895 29.4447 105.699 29.1609 104.649C29.0147 104.11 28.879 103.613 28.7772 103.232C28.7071 102.97 28.6953 102.835 28.6275 102.585C28.5795 102.408 28.4596 102.104 28.3836 101.827C28.3074 101.55 28.2214 101.105 28.0714 100.572C27.9142 100.013 27.6961 99.3241 27.6598 99.1981C27.6161 99.0457 27.6378 98.9631 27.5934 98.8113C27.4601 98.3517 27.056 97.1366 26.8708 96.5498C26.673 95.9187 26.5741 95.5339 26.506 95.3186C26.4427 95.1191 26.3335 94.8979 26.3042 94.8071C26.2584 94.6657 26.2888 94.6191 26.2306 94.4396C26.1352 94.1465 26.0113 93.8529 25.8648 93.4144C25.2694 91.6353 24.6369 89.8774 23.9385 88.1654C22.3074 84.321 21.6918 80.2155 20.3659 76.5645C19.559 74.3606 18.8182 72.153 18.0739 69.9564C17.7824 69.0954 17.5884 68.6198 17.1647 67.3517C16.9928 66.838 17.1095 67.0386 16.9632 66.6433C16.8978 66.467 16.8803 66.5232 16.8005 66.2995C16.4973 65.4488 16.1746 64.4702 15.9907 63.9411C15.9601 63.8529 15.9336 63.7772 15.9119 63.7165C15.851 63.5459 15.7427 63.3605 15.6199 63.0099C14.6914 60.3803 13.7672 57.1985 13.1064 54.2702C12.9061 53.401 12.6609 52.2797 12.4288 51.149C12.2529 50.2935 12.0336 49.4348 11.8285 48.68C11.0228 45.671 9.84764 42.4979 9.53726 39.1834C9.37535 37.3926 9.09776 35.6683 8.74804 34.064C8.29041 31.9502 7.66766 29.8713 6.99838 27.7889C5.71411 23.7837 4.3679 19.8018 3.01186 15.8173C2.86192 15.377 2.72326 14.9298 2.59628 14.4845C2.70791 14.9133 2.83808 15.3651 2.98736 15.8257C3.91624 18.6943 5.1019 22.1843 6.04876 25.1228C6.3368 26.0152 6.6243 26.9134 6.91037 27.8169C8.09927 31.5093 9.09361 35.2841 9.43899 39.1924C9.87298 43.4827 11.5831 47.2946 12.3411 51.1666C12.6695 52.8007 13.021 54.4339 13.424 56.0463C14.0229 58.4699 14.878 61.277 15.8519 63.991C16.3232 65.3115 16.7774 66.6291 17.2038 67.8881C17.2624 68.061 17.4145 68.4086 17.5398 68.7834C17.5662 68.8624 17.8511 69.8652 17.9641 70.1971C17.9501 69.8502 18.312 71.1796 18.4527 71.5811C18.6302 72.0873 19.0398 73.1292 19.4318 74.3259C19.7889 75.4111 19.6492 75.1271 19.6677 75.1873C19.7898 75.5742 19.8958 75.6862 20.0075 75.9753C20.0632 76.1194 20.1448 76.3368 20.2469 76.6086C21.0159 78.4565 22.1465 83.5379 22.6955 85.0895C22.8403 85.5456 22.8086 85.568 22.8422 85.6714C22.9314 85.9415 23.099 86.3146 23.2544 86.7437C23.4335 87.2399 23.6285 87.7851 23.7962 88.2236C23.8855 88.4583 23.9635 88.6662 24.021 88.8111C24.4113 89.7806 25.1364 91.6327 25.5708 92.9292C25.6939 93.2933 25.6474 93.2841 25.7026 93.4489C25.9488 94.1734 26.5982 96.0627 26.8706 96.9762C27.3189 98.4577 27.732 99.9977 28.1622 101.514C28.1711 101.615 28.1798 101.715 28.1888 101.817C28.2489 101.965 28.3084 102.111 28.368 102.258C28.582 103.065 28.7983 103.876 29.0134 104.687C29.4918 106.494 30.0357 108.288 30.5687 110.042C30.6575 110.337 31.0713 111.8 31.1452 112.041C31.207 112.242 31.3108 112.427 31.3955 112.726C31.5139 113.146 31.3129 112.778 31.5429 113.452C31.6046 113.633 31.5863 113.445 31.7078 113.809C31.754 113.929 32.4504 116.281 32.4742 116.409C32.5278 116.622 32.5022 116.83 32.5151 116.885C32.5255 116.93 32.5357 116.967 32.5456 116.998C32.5998 117.171 32.6465 117.177 32.6947 117.339C32.8633 117.908 33.0306 118.664 33.0574 118.756C33.3775 119.874 34.0273 121.942 34.3387 123.113C34.3817 123.276 34.333 123.269 34.3398 123.297C34.3839 123.482 34.4659 123.582 34.5173 123.755C34.7941 124.687 35.18 126.157 35.4301 127.097C35.4591 127.206 35.5457 127.427 35.5961 127.621C35.8788 128.715 35.7433 128.372 35.7589 128.434C35.7941 128.582 35.9051 128.829 36.0095 129.22C36.1068 129.584 36.2317 130.069 36.3599 130.592C36.5894 131.528 36.8425 132.578 37.0118 133.278C37.2101 134.099 37.1593 134.099 37.1714 134.153C37.1976 134.267 37.3152 134.579 37.4532 135.117C37.7205 136.156 37.6536 136.047 37.7627 136.474C37.7719 136.51 37.7928 136.438 37.917 136.912C38.1542 137.826 38.6605 139.894 38.9412 140.871C39.0479 141.247 39.1085 141.326 39.2196 141.709C39.3942 142.32 39.7709 143.702 39.8061 143.81C39.8096 143.821 39.8209 143.837 39.8365 143.861C39.8619 143.901 39.8986 143.965 39.9332 144.076C39.9949 144.274 40.0351 144.473 40.0817 144.618C40.3452 145.453 40.9101 146.846 40.63 146.501C40.7556 146.748 40.8875 147.008 41.0167 147.256C41.6292 148.976 42.3087 150.625 43.0478 152.274C43.2168 152.65 43.3266 152.962 43.4743 153.28C43.614 153.59 44.3119 154.943 44.426 155.165C44.6182 155.574 45.7948 157.851 45.9449 158.128C46.2271 158.676 46.4584 159.24 46.5849 159.451C46.6889 159.625 46.6331 159.446 46.8223 159.779C47.1519 160.355 47.6305 161.367 47.7174 161.543C47.7532 161.616 47.716 161.467 48.063 162.173C48.247 162.554 48.3082 162.771 48.3672 162.907C48.3801 162.939 48.4019 162.897 48.5578 163.261C48.5976 163.356 48.6458 163.478 48.7033 163.634C48.904 164.18 48.9462 164.429 48.9668 164.486C48.9964 164.573 49.1077 164.769 49.2204 165.121C49.4909 165.94 49.8626 167.479 50.0415 168.284C50.0766 168.439 50.1148 168.374 50.2487 168.997C50.3425 169.443 50.2867 169.374 50.3205 169.541C50.3735 169.806 50.5016 170.192 50.6109 170.782C50.6791 171.136 50.9233 172.58 51.1375 174.044C51.3702 175.641 51.6073 177.269 51.6306 177.423C51.6551 177.621 51.6941 177.85 51.6904 177.952C51.6558 177.871 51.6214 177.791 51.587 177.71C51.5107 176.83 51.4905 177.194 51.4472 176.965C51.3841 176.632 51.201 175.38 51.1374 175.083C51.1145 174.977 51.1096 175.228 50.9988 174.657C50.9529 174.421 50.9295 174.234 50.9098 174.08C50.8783 173.834 50.8566 173.672 50.7686 173.531C50.7444 172.64 50.4803 171.83 50.6155 172.839C50.6347 172.985 50.7052 173.455 50.7998 174.098C51.0562 175.941 51.5797 179.306 51.7934 180.168C51.9839 181.109 52.4691 182.854 52.8426 183.984C52.8993 184.161 52.9803 184.407 53.0707 184.671C53.3069 185.361 53.5705 186.191 53.5153 186.156C53.6965 186.72 53.5505 186.108 53.5973 186.223C53.698 186.463 54.2352 188.237 54.341 188.572C54.8741 190.221 55.5745 192.304 56.0129 193.947C55.975 193.876 55.9372 193.805 55.8995 193.734C55.7592 193.377 55.2756 191.677 55.1482 191.509C55.4665 192.539 55.7844 193.572 56.1089 194.607C56.5655 196.062 57.055 197.5 57.5538 198.926C57.5935 198.864 58.6651 201.888 58.6904 202.039C58.6438 201.996 58.5968 201.952 58.5501 201.909C58.0494 200.166 57.9629 200.368 57.6323 199.191C57.469 198.721 57.4725 198.879 57.3829 198.65C56.4982 196.369 57.4615 198.583 56.8164 196.824C56.9293 197.382 56.4133 195.934 56.1956 195.276C56.1788 195.226 56.0981 194.97 55.9977 194.641C55.8012 194 55.5263 193.086 55.4781 192.932C55.0697 191.632 54.3477 189.421 53.9736 188.136C53.6547 187.13 53.4253 186.596 53.1077 185.697C52.865 185.016 52.9653 185.201 52.8541 184.879C52.8399 184.838 52.8259 184.799 52.8121 184.762C52.587 184.146 52.4294 183.935 52.4291 183.458C52.2599 182.974 52.101 182.487 51.9521 181.997C51.9748 181.991 51.9974 181.985 52.0201 181.979C51.9381 181.669 51.8602 181.358 51.7859 181.047C51.7413 180.96 51.6973 180.875 51.6532 180.788C51.4609 179.79 51.6117 180.192 51.6355 179.993C51.5947 179.78 51.5553 179.565 51.5174 179.351C51.4347 179.196 51.3526 179.04 51.2714 178.885C51.0952 177.93 50.9459 176.98 50.8043 176.041C50.818 175.977 50.8316 175.912 50.8453 175.848C50.8219 175.85 50.7986 175.852 50.7752 175.853C50.6846 175.279 50.5962 174.709 50.5051 174.144C50.3436 173.142 50.1791 172.149 49.9955 171.168C49.8893 170.762 50.2926 173.244 50.3146 173.441C50.343 173.631 50.382 173.879 50.4259 174.157C50.621 175.41 50.9337 177.34 50.8717 177.355C51.035 178.017 51.4071 180.063 51.4932 180.719C51.276 179.75 51.0951 178.78 50.9351 177.819C50.9129 177.854 50.8907 177.89 50.8686 177.926C50.7767 176.711 50.7476 176.538 50.4552 175.345C50.492 175.338 50.5289 175.331 50.5657 175.324C50.4639 175 50.401 174.57 50.3506 174.169C50.2727 173.548 50.2251 172.993 50.1247 172.983C50.0651 172.539 50.0035 172.098 49.9387 171.658C49.7341 170.727 49.9454 172.175 49.2098 168.546C49.1546 168.297 49.2076 168.34 49.1136 167.969C49.0841 167.864 48.8861 167.262 48.551 166.116C48.498 165.937 48.528 165.914 48.4747 165.728C48.3546 165.296 47.9972 164.484 48.2367 164.826C47.8316 163.602 47.7874 163.668 47.7193 163.591C47.6941 163.567 47.6646 163.53 47.6035 163.409C47.4501 163.111 47.536 163.14 47.3988 162.876C47.2109 162.531 47.3075 162.839 46.6051 161.407C46.692 161.563 46.7792 161.722 46.8638 161.877C46.84 161.79 46.8152 161.701 46.7895 161.611C46.3278 160.82 46.42 160.862 46.1241 160.526C45.8462 159.906 45.5682 159.383 45.1192 158.552C44.252 156.929 44.5805 157.824 43.7673 155.869C43.5964 155.572 43.427 155.274 43.2588 154.974C43.054 154.442 43.303 154.838 42.9521 154.066C43.131 154.712 42.4182 153.085 42.2098 152.847C42.2183 152.808 42.2267 152.769 42.2351 152.731C42.1588 152.559 42.0839 152.389 42.0082 152.215C41.9907 152.222 41.9732 152.229 41.9558 152.236C41.867 151.997 41.7823 151.765 41.697 151.528C41.6061 151.362 41.514 151.191 41.4256 151.027C41.344 150.728 41.2595 150.418 41.1825 150.121C41.1127 149.94 41.0431 149.757 40.9735 149.573C40.9703 149.641 40.967 149.709 40.9639 149.777C40.8785 149.536 40.799 149.306 40.7172 149.068C40.7803 149.357 40.6595 149.203 40.3868 148.474C40.1656 147.872 40.4981 148.513 39.9938 147.23C39.9599 147.138 39.8311 147.006 39.4042 145.767C38.9026 144.276 39.1904 144.989 39.1052 144.722C39.0935 144.685 38.9991 144.446 38.8959 144.152C38.8556 144.037 38.8142 143.915 38.7761 143.795C38.6994 143.554 38.6563 143.314 38.6464 143.282C38.6003 143.132 38.5497 143.101 38.4868 142.894C38.3271 142.37 38.1417 141.657 37.9952 141.141C37.9285 140.907 37.8448 140.692 37.8157 140.588C37.7705 140.425 37.7483 140.209 37.7035 140.045C37.5371 139.439 37.1808 138.547 37.2667 138.224C36.9684 137.678 36.8369 136.412 36.7618 136.526C36.4039 134.957 35.2799 130.86 35.4728 130.941C35.4552 130.899 35.4387 130.86 35.4233 130.822C35.1303 130.118 35.2339 130.148 35.1448 129.806C35.0388 129.404 35.0654 129.619 34.9833 129.299C34.7908 128.552 34.6084 127.834 34.4016 127.09C34.4566 127.2 34.5114 127.311 34.5662 127.422C34.3563 126.638 34.3794 126.922 34.144 126.126C33.707 124.663 33.9241 125.269 33.9209 125.036C33.8821 125.111 33.3879 123.371 33.3431 123.191C33.3169 123.084 33.5245 123.527 33.1909 122.466C33.1854 122.531 33.18 122.596 33.1745 122.661C33.0636 122.166 32.6416 120.851 32.5851 120.622C32.5588 120.517 32.5817 119.912 32.2953 119.442C32.3005 119.375 32.3058 119.307 32.3111 119.239C32.1258 118.68 31.9426 118.119 31.7629 117.556C31.7792 117.454 31.7956 117.352 31.8121 117.25C31.8074 117.232 31.8026 117.214 31.7979 117.196C31.7563 117.039 31.7143 116.882 31.6716 116.725C31.667 116.851 31.662 116.976 31.6567 117.101C31.389 116.022 30.9422 114.723 30.9962 114.464C30.905 114.239 30.8131 114.014 30.7207 113.789C30.7151 113.626 30.7096 113.463 30.7035 113.3C30.3648 112.227 30.331 112.216 30.0609 111.489C30.1011 111.509 30.1413 111.528 30.1814 111.547C29.9695 111.015 29.6214 110.027 29.3777 109.231C29.2616 108.854 29.1129 108.187 29.0833 108.099C29.0517 108.009 28.625 107.164 28.7457 107.024C28.3952 105.98 28.2735 105.383 28.1645 104.909C28.1385 104.795 28.1131 104.688 28.0852 104.583C27.9941 104.241 27.9171 104.093 27.8112 103.709C27.659 103.157 27.526 102.597 27.437 102.279C27.3859 102.098 27.3419 102.073 27.3064 101.947C27.1387 101.357 27.2693 101.693 27.0942 101.07C27.0776 101.012 26.9086 100.567 26.7685 100.053C26.6905 99.7649 26.5244 99.0107 26.5049 98.9454C26.4192 98.6555 26.3944 98.9147 26.2111 97.8943C26.2017 97.9283 26.1923 97.9623 26.1828 97.9963C25.7733 96.7884 25.7905 96.5741 25.7209 96.3262C25.7117 96.2947 25.5891 96.0082 25.5379 95.8302C25.4516 95.5293 25.4553 95.3957 25.4363 95.329C25.3694 95.0942 25.0994 94.3177 24.9704 93.7954C24.8892 93.9402 24.2455 92.179 24.2361 91.7432C24.0988 91.4409 23.9596 91.1389 23.8189 90.8385C23.7891 90.6898 23.7594 90.5427 23.7287 90.3941C23.6748 90.3169 23.6209 90.2402 23.5669 90.1638C23.4446 89.6961 23.3182 89.2308 23.1864 88.7666C23.1272 88.7576 23.0681 88.7487 23.0089 88.7398C22.9888 88.6831 22.9686 88.6265 22.9484 88.57C22.921 88.4945 22.894 88.4193 22.8673 88.3443C22.8631 88.224 22.8605 88.1063 22.8569 87.985C22.7834 87.8188 22.7125 87.6561 22.6411 87.4884C22.5976 87.457 22.5542 87.4256 22.5109 87.3942C22.1505 86.4927 22.5631 86.8745 21.7628 85.2042C21.6995 84.9235 21.6395 84.6447 21.5818 84.3663C21.3816 84.091 21.2836 83.495 21.1462 83.0371C21.0492 82.7142 21.0102 82.7436 20.8918 82.3028C20.7742 81.8626 20.8209 81.869 20.812 81.8344C20.7206 81.4769 20.6139 81.22 20.5529 80.9596C20.5437 80.9207 20.5676 80.8092 20.4835 80.482C20.3989 80.1551 20.294 79.9733 20.1696 79.4941C20.1054 79.2492 20.1265 79.1672 20.0671 78.9519C19.8668 78.2259 19.5349 77.5559 19.3387 76.945C19.2497 76.6705 19.1889 76.4023 19.1762 76.1445C19.0788 75.9769 18.5085 74.7232 18.3226 74.1679C18.0321 73.3041 18.1966 73.6202 18.0863 73.2745C18.0709 73.2255 17.9634 72.9693 17.7185 72.2486C17.6746 72.1194 17.6577 72.1586 17.651 72.1402C17.3626 71.301 16.8286 69.6683 16.5172 68.7508C16.4894 68.6689 16.2664 68.2658 16.1173 67.5059C15.7951 66.7508 15.4231 65.4633 15.0035 64.2958C14.8357 63.8284 14.6677 63.382 14.4961 62.9856C14.4249 62.7863 14.3685 62.5301 14.3381 62.4426C14.0751 61.6741 14.0727 61.9861 13.6477 60.1934C13.6494 60.3488 13.4827 59.949 13.3142 59.3639C13.0637 58.4832 13.3228 59.0844 13.1159 58.3789C13.0934 58.3852 13.0709 58.3915 13.0485 58.3978C12.6608 56.75 12.482 56.4467 12.0932 54.796C11.9552 54.2024 11.8162 53.3144 11.7868 53.1735C11.7745 53.1188 11.5834 52.4824 11.5706 52.4207C11.497 52.0728 11.4826 51.871 11.4223 51.5711C11.4083 51.5012 11.3937 51.4303 11.3789 51.359C11.1993 50.4905 10.8985 49.5583 11.0667 49.7144C10.9749 49.4653 10.8805 49.216 10.784 48.9661C10.6575 47.9564 10.2477 47.2688 10.3205 47.0226C10.2413 46.8532 10.1618 46.6836 10.0821 46.513C9.43346 44.2549 8.71898 41.885 8.48193 39.2798C8.30639 37.27 7.97717 35.2829 7.51015 33.3075C7.43624 33.1511 6.97364 31.3301 6.94628 31.2346C6.85438 30.7981 7.07944 31.2239 6.80272 30.3545C6.73341 30.2694 6.66394 30.1845 6.59438 30.0999C6.24803 29.0028 6.44795 29.5199 6.3415 29.0761C6.27971 28.8954 6.26679 28.9641 6.18712 28.7181C6.12895 28.5388 6.06257 28.3339 5.98981 28.1099C5.51997 26.6579 4.7877 24.4185 4.36198 23.1465C4.26306 22.8502 4.307 22.8851 4.2765 22.7931C4.19205 22.54 3.98894 22.0532 3.8186 21.5455C3.29099 19.9715 2.64942 18.0697 2.00125 16.1668C1.3068 14.1259 0.876124 12.0689 0.593051 10.3614C0.554846 10.1287 0.586452 10.0942 0.562 9.93713C0.527594 9.71939 0.42189 9.23904 0.391545 9.01016C0.362577 8.79552 0.370062 8.65191 0.341462 8.42211C0.208563 7.36652 0.00741482 5.95462 0.00014782 4.81764C-0.00307417 4.72486 0.060859 3.52934 0.0714352 3.50314C0.121107 3.3451 0.26773 4.38293 0.257314 2.66112C0.4197 4.191 0.501055 3.70226 0.484801 1.70974C0.534941 2.70746 0.609149 3.70495 0.704641 4.69695C0.720086 4.69715 0.735531 4.69735 0.750977 4.69755C0.756636 3.78963 0.719627 2.88785 0.682355 1.51017C0.697885 1.55229 0.71347 1.5947 0.729111 1.63737C0.837569 2.85382 0.949186 4.31434 1.12924 5.22479C1.08197 3.86787 1.07464 2.51859 1.11262 1.16146C1.12549 1.22831 1.1385 1.296 1.15167 1.3645C1.19467 2.00815 1.28471 3.41985 1.35277 3.95355C1.60217 5.98802 1.31099 2.16077 1.42316 2.78501C1.5337 4.94291 1.74291 7.09319 2.0758 9.22873C2.00231 9.30649 1.40233 1.0289 1.66868 1.11092C1.69416 1.78402 1.73217 2.46308 1.78005 3.13395C1.79847 2.83101 1.819 2.52794 1.84184 2.22821C1.85666 2.30925 1.87167 2.39115 1.88689 2.47387C1.96817 3.6073 2.07915 4.73943 2.21947 5.86633C1.86468 2.43302 1.90995 0.811353 2.18111 0C2.18827 0.0894068 2.19575 0.181717 2.20355 0.276803C2.00922 1.01561 2.22323 4.54032 2.48661 6.39199C2.49094 6.0091 2.30492 4.37321 2.31657 4.02351C2.3184 3.92521 2.37868 4.26333 2.38059 4.03563C2.37045 3.43635 2.33265 0.902515 2.40974 1.26967C2.42205 1.50577 2.72483 5.56751 2.84241 6.3533C2.70891 4.49695 2.60217 2.58108 2.65146 0.722407C2.79094 1.88884 2.958 2.92099 3.14467 5.04843C3.23356 5.69292 3.02305 1.17922 3.09429 1.07865C3.14804 1.85642 3.21807 2.62976 3.30217 3.40864C3.2514 2.75116 3.21052 2.09081 3.18117 1.43576C3.19283 1.4335 3.20448 1.43124 3.21614 1.42899C3.32589 3.12738 3.52996 4.68438 3.74112 6.6159C3.79348 6.5471 3.66327 5.39082 3.61897 4.8271ZM54.082 188.943C54.0452 188.997 53.8327 188.3 53.7074 187.91C53.7175 187.971 53.7274 188.033 53.7374 188.094C53.4813 187.257 52.9834 185.714 52.8679 185.691C52.655 185.108 52.8258 185.339 52.7698 185.147C52.7616 185.119 52.7125 184.996 52.6455 184.82C52.5262 184.507 52.3625 184.035 52.2712 183.612C52.222 183.456 52.1742 183.299 52.1271 183.142C52.0867 183.121 52.0464 183.1 52.006 183.079C51.9793 182.847 51.9551 182.617 51.9329 182.386C52.159 183.2 52.4122 184.005 52.6949 184.803C53.1786 186.168 53.6354 187.549 54.081 188.94C54.0813 188.941 54.0817 188.942 54.082 188.943ZM48.8601 166.841C48.671 166.069 48.3179 164.912 48.3088 165.172C48.47 165.643 48.621 166.119 48.763 166.599C48.7955 166.679 48.828 166.76 48.8601 166.841ZM23.2993 88.8228C23.2682 88.7021 23.2325 88.5856 23.1926 88.4702C22.9993 87.9157 22.7302 87.3639 22.4412 86.4992C22.4241 86.5067 22.4069 86.5142 22.3898 86.5218C22.5525 86.8769 22.8563 87.7572 23.1585 88.4842C23.2069 88.6016 23.2542 88.7156 23.2993 88.8228ZM60.8133 208.341C60.8472 208.488 60.8808 208.635 60.914 208.783C60.6542 208.219 60.6932 208.094 60.4923 207.433C60.4801 207.393 60.4621 207.413 60.4579 207.399C60.4092 207.238 60.3917 207.08 60.3478 206.935C60.263 206.654 60.168 206.432 60.0138 205.94C59.8938 205.56 59.9336 205.544 59.8891 205.412C59.8824 205.392 59.8616 205.341 59.8309 205.269L59.8371 205.287C59.6856 204.938 59.3051 204.08 59.1311 203.461C58.9261 202.734 59.3731 203.895 59.8729 205.274L59.8669 205.257C60.3211 206.561 60.7581 208.129 60.8133 208.341ZM62.1137 212.698C62.0593 212.559 62.0035 212.415 61.9496 212.274C62.1761 212.675 61.8328 211.825 61.6105 211.171C61.6732 211.176 62.1396 212.54 62.3974 213.115C62.3017 212.975 62.2082 212.838 62.1137 212.698ZM56.3513 194.909C56.5349 195.463 56.4291 195.395 56.3984 195.379C56.3414 195.203 56.2848 195.026 56.2286 194.848C56.2695 194.869 56.3104 194.889 56.3513 194.909ZM57.7722 199.042C57.6604 198.89 57.2242 197.711 57.0287 197.145C57.0204 197.12 57.1015 197.266 56.9634 196.866C56.9207 196.747 56.4238 195.592 56.6287 195.815C56.9982 196.898 57.3825 197.972 57.7717 199.04C57.7719 199.04 57.7721 199.041 57.7722 199.042ZM58.163 200.248C58.0678 200.03 57.9728 199.813 57.878 199.596C57.8615 199.472 57.8456 199.349 57.8292 199.225C57.9245 199.476 58.0201 199.728 58.116 199.979C58.1316 200.069 58.1473 200.158 58.163 200.248ZM7.49937 30.7435C7.4877 30.8029 7.476 30.8624 7.4641 30.9215C7.50706 31.126 7.88683 32.0702 7.82571 31.7553C7.72012 31.418 7.611 31.0801 7.49937 30.7435ZM6.27597 26.5985C6.22357 26.3904 6.17097 26.1822 6.11826 25.9743C5.99784 25.7543 5.8773 25.5346 5.75651 25.3149C6.0582 26.3417 6.37001 27.4364 6.44547 27.2196C6.51768 27.445 6.58967 27.6705 6.66147 27.8961C6.66391 27.9038 6.66635 27.9114 6.66879 27.9191C6.66399 27.9118 6.65938 27.9048 6.65495 27.8982C6.59258 27.8051 6.56691 27.7877 6.58986 27.9189C6.60485 28.0051 6.64114 28.1562 6.70101 28.3919C6.81857 28.5013 6.97889 29.1413 7.211 29.8545C7.05874 29.3306 6.90097 28.8067 6.73997 28.2817C6.75332 28.2775 6.76666 28.2733 6.78001 28.2691C7.048 29.1352 6.9153 28.5479 6.70591 27.882C6.63265 27.6491 6.55035 27.407 6.47347 27.2142C6.47197 27.1484 6.47047 27.0826 6.46892 27.0168C6.40465 26.8772 6.34041 26.738 6.27597 26.5985ZM30.9093 112.1C30.8778 111.95 30.8466 111.8 30.8149 111.649C30.4652 111.137 30.9876 112.24 31.098 113.099C31.1216 112.797 31.4954 114.045 31.5225 114.113C31.5153 113.96 31.5077 113.805 31.5 113.652C31.3051 113.135 31.1076 112.618 30.9093 112.1ZM29.771 107.901C29.8301 108.44 29.0969 105.918 28.8989 105.056C28.8781 104.969 28.8575 104.852 28.8373 104.733C28.8101 104.572 28.7831 104.407 28.7568 104.321C28.715 104.235 28.6739 104.152 28.6323 104.067C28.6671 103.943 28.1603 102.321 27.9487 101.686C27.9546 101.619 27.9605 101.553 27.9663 101.486C27.8925 101.252 27.8189 101.021 27.7443 100.788C27.775 100.811 27.8057 100.835 27.8363 100.858C27.7596 100.687 27.6834 100.518 27.6065 100.348C27.3801 99.6602 27.6236 100.055 27.4367 99.5426C27.2285 98.9743 27.4278 99.9461 27.375 99.9423C27.5216 100.41 27.8475 101.477 27.9792 101.957C28.0547 102.233 27.8865 101.942 28.3042 103.106C28.3508 103.372 28.3979 103.641 28.4441 103.908C28.5426 104.192 28.6409 104.477 28.738 104.759C28.8034 104.951 28.868 105.137 28.9344 105.328C28.9272 105.428 28.92 105.527 28.9129 105.626C28.921 105.681 29.3023 106.783 29.3104 106.716C29.3774 107.187 29.6334 108.122 29.9223 109.096C29.9674 109.185 30.0125 109.273 30.0575 109.361C29.7388 108.431 29.9858 109.057 29.9346 108.766C29.9048 108.598 29.7953 108.091 29.771 107.901ZM8.98346 37.211C8.66354 35.6458 8.8953 36.61 8.58011 34.9128C8.56223 35.0396 8.54353 35.1649 8.52453 35.2913C8.76453 36.1078 8.90927 37.4955 8.98369 37.2127C8.98361 37.2121 8.98354 37.2116 8.98346 37.211ZM4.2252 20.7828C4.54743 21.6617 4.46082 21.1959 4.85631 22.3142C4.85648 22.3147 4.85666 22.3152 4.85684 22.3158C4.66741 21.7322 4.47691 21.1491 4.28549 20.5663C4.26538 20.6384 4.24529 20.7106 4.2252 20.7828ZM18.814 73.5438C19.0949 74.4033 19.0663 74.2231 19.2792 75.0198C19.7668 76.1468 19.4059 75.1724 19.4746 75.1498C19.3605 74.8931 19.247 74.6363 19.1346 74.381C18.9738 73.7201 19.2185 74.3139 19.2248 74.3122C19.2246 74.3116 19.2244 74.3111 19.2242 74.3106C19.2448 74.3036 19.256 74.3221 19.1825 74.0733C19.0595 73.8971 18.9367 73.7206 18.814 73.5438ZM20.1961 77.1406C20.0507 76.8773 19.9536 76.7719 20.1772 77.5165C20.1774 77.517 20.1776 77.5175 20.1778 77.518C20.3008 77.5419 20.4505 78.2816 20.5541 78.6097C20.5911 78.6925 20.6281 78.776 20.6647 78.8595C20.5211 78.2789 20.3672 77.7061 20.1961 77.1406ZM24.419 90.0374C24.3092 90.0819 24.0631 89.4593 24.2927 90.3802C24.3583 90.5502 24.4242 90.7229 24.4886 90.8933C24.5542 90.9972 24.6196 91.1016 24.685 91.2064C25.2508 93.4748 25.845 94.003 24.3849 90.3458C24.3846 90.3453 24.3843 90.3448 24.3841 90.3444C24.3961 90.2426 24.4076 90.1399 24.419 90.0374ZM22.9137 86.1342C22.8449 86.1251 22.7761 86.116 22.7074 86.1067C22.6768 85.5517 22.3243 84.9386 22.1353 83.9067C22.0912 83.822 22.0468 83.7356 22.003 83.6506C21.9199 83.2544 20.9837 79.6258 21.097 80.4383C21.1473 80.7872 21.3977 81.5193 21.4137 81.5844C21.4667 81.8044 21.4899 82.1025 21.5925 82.4736C21.6517 82.6872 21.8345 83.124 21.9588 83.5637C22.2282 84.5424 22.6359 86.4033 23.2848 87.6142C23.3025 87.7121 23.3209 87.8106 23.3398 87.9094C23.415 88.0936 23.4746 88.2296 23.5228 88.3353C23.7049 88.7346 23.7083 88.666 23.917 89.3541C24.1308 89.556 23.9209 88.9634 23.6393 88.2877C23.2435 87.3475 22.8101 86.2231 23.1122 86.6688C23.112 86.6683 23.1118 86.6677 23.1116 86.6672C23.0447 86.4909 22.978 86.3112 22.9137 86.1342ZM14.432 60.5424C14.4627 60.4705 14.049 59.393 14.2496 59.6153C14.0988 59.2674 13.9512 58.9209 13.8052 58.5703C13.7947 58.5763 13.7841 58.5823 13.7736 58.5883C13.8854 58.9463 13.999 59.301 14.1159 59.6573C14.0984 59.664 14.0809 59.6708 14.0634 59.6776C14.2798 60.1946 14.972 62.4096 14.8925 62.3623C14.9585 62.4703 15.0253 62.5796 15.092 62.6881C15.2251 63.1857 15.3827 63.6387 15.5495 64.0996C15.7383 64.6212 15.932 65.1521 16.1057 65.7665C16.1581 65.8456 16.2105 65.9248 16.2629 66.004C16.265 66.0668 16.2672 66.1295 16.2693 66.1923C16.4101 66.6018 16.5502 67.0118 16.6897 67.422C17.2228 68.7327 16.4177 66.1064 16.295 65.7976C16.2788 65.7564 16.2355 65.7789 16.1366 65.5212C16.0617 65.3256 15.8607 64.7391 15.627 64.0718C15.3059 63.1596 14.9533 62.0923 14.7824 61.6274C14.8106 61.6103 14.8388 61.5932 14.867 61.576C14.7202 61.2337 14.5749 60.8887 14.432 60.5424ZM25.9961 94.9998C25.9836 95.0684 25.9711 95.137 25.9585 95.2056C26.3105 96.209 26.4753 96.86 26.4998 96.567C26.4996 96.5665 26.4995 96.566 26.4993 96.5654C26.3345 96.0423 26.1669 95.5203 25.9961 94.9998ZM50.2534 170.564C50.312 170.526 50.2422 170.024 50.0616 169.399C50.0497 169.434 50.0377 169.468 50.0256 169.503C50.1486 169.823 50.1433 170.253 50.3443 171.282C50.3765 171.276 50.4087 171.27 50.4409 171.264C50.3795 171.03 50.3172 170.797 50.2534 170.564ZM25.728 94.1225C25.665 93.8022 25.2658 92.9781 25.4494 93.5463C25.5896 93.9815 25.762 94.294 25.728 94.1225ZM3.09913 17.2765C3.1712 17.5073 3.24327 17.7385 3.31519 17.9697C3.3825 18.0805 3.44933 18.1899 3.51656 18.3006C3.51637 18.3 3.51619 18.2995 3.51601 18.299C3.37749 17.9584 3.23822 17.6167 3.09913 17.2765ZM17.8047 70.6328C18.0753 71.4098 18.3463 72.1872 18.6202 72.9655C18.6401 72.9673 18.6599 72.9691 18.6797 72.9709C18.347 72.2123 18.3068 71.8742 18.2485 71.6917C18.2488 71.6925 18.2491 71.6933 18.2494 71.6941C18.0622 71.1053 17.8818 70.5456 17.7132 69.9867C17.7437 70.202 17.7743 70.4176 17.8047 70.6328ZM16.9987 67.9319C16.9225 68.1047 16.9676 68.2792 17.4623 69.4437C17.4611 69.3914 17.4598 69.3391 17.4586 69.2867C17.2374 68.6711 17.0853 68.3205 17.1859 68.4072C17.1235 68.2485 17.0612 68.0904 16.9987 67.9319ZM21.0617 80.0642C21.0643 79.9065 20.7039 78.7832 20.6999 78.8527C20.7033 78.8752 21.0625 80.3641 21.0617 80.0642ZM51.8064 179.578C51.7587 179.298 51.7134 179.017 51.6705 178.738C51.7536 179.105 51.8404 179.472 51.9319 179.839C51.8899 179.752 51.8479 179.665 51.8064 179.578ZM52.7214 182.571C52.764 182.77 52.4609 182.168 52.7831 183.344C52.5185 182.496 52.2864 181.64 52.083 180.779C52.1954 181.179 52.3139 181.577 52.4391 181.973C52.4524 181.894 52.466 181.816 52.4798 181.738C52.5569 182.016 52.6377 182.295 52.7214 182.571ZM52.9139 183.506C52.8806 183.227 53.1131 183.91 53.3559 184.571C53.5259 185.036 53.6811 185.496 53.7074 185.588C53.7213 185.636 53.7348 185.883 53.7493 185.971C53.6327 185.625 53.5147 185.28 53.3951 184.935C53.4154 185.058 53.4354 185.18 53.4552 185.302C53.3732 185.075 53.2905 184.849 53.207 184.623C53.1393 184.44 53.0743 184.259 53.0098 184.076C53.0902 184.25 53.1709 184.422 53.2541 184.596C53.1346 184.233 53.0212 183.87 52.9139 183.506ZM50.9138 173.78C50.9287 173.878 50.9434 173.975 50.9581 174.073C50.9891 174.278 51.0197 174.484 51.0501 174.69C51.073 174.624 51.0959 174.559 51.1188 174.493C51.0962 174.348 51.0735 174.203 51.0506 174.058C51.0449 174.022 51.0392 173.986 51.0334 173.949C50.9936 173.893 50.9537 173.836 50.9138 173.78ZM52.0206 180.02C51.7677 179.601 51.8641 178.31 52.0272 179.765C52.0445 179.911 52.0447 180.059 52.0206 180.02ZM53.9784 186.453C54.3858 187.321 54.0785 187.196 53.8663 186.32C53.8557 186.276 53.9479 186.388 53.9784 186.453ZM56.1364 193.287C56.1587 193.361 56.12 193.516 56.4161 194.202C56.4382 194.298 56.4604 194.394 56.4826 194.489C56.4882 194.514 56.4939 194.538 56.4995 194.562C56.4922 194.546 56.4825 194.523 56.4709 194.493C56.288 194.028 55.6389 191.98 55.8062 192.262C55.9181 192.62 56.0237 192.915 56.1364 193.287ZM55.7257 190.931C55.6149 190.58 55.5039 190.23 55.3925 189.881C55.404 190.004 55.4154 190.127 55.4268 190.25C55.3665 190.08 55.3061 189.91 55.2456 189.74C55.196 189.432 55.1459 189.125 55.0953 188.817C55.3422 189.575 55.5857 190.335 55.8284 191.096C55.7942 191.041 55.7599 190.986 55.7257 190.931ZM52.8131 181.572C52.963 182.276 53.2327 183.119 53.6059 184.227C53.606 184.227 53.6061 184.228 53.6062 184.228C53.6208 184.272 53.6241 184.348 53.6547 184.466C53.6628 184.498 53.6728 184.532 53.6855 184.569C53.745 184.712 54.7572 187.63 54.6201 187.422C54.1998 186.302 54.132 185.854 53.9145 185.626C53.9224 185.562 53.9303 185.498 53.9381 185.433C53.8163 185.019 53.7104 184.722 53.6131 184.481C53.4481 184.069 53.3142 183.811 53.1684 183.424C53.1894 183.42 53.2103 183.416 53.2313 183.412C53.1004 182.989 52.9775 182.565 52.8625 182.138C52.8656 182.202 52.8689 182.266 52.8724 182.33C52.8299 182.178 52.789 182.029 52.7485 181.877C52.7108 181.493 52.6091 181.024 52.8131 181.572ZM56.1846 192.534C56.304 192.664 56.5592 193.439 56.8511 194.374C57.181 195.433 57.5779 196.687 57.8564 197.442C57.5056 196.72 57.1767 195.524 56.9151 194.693C56.8782 194.576 56.8458 194.474 56.8173 194.384C56.4548 193.245 56.6965 194.195 56.5948 193.95C56.5403 193.82 56.3565 192.881 56.1846 192.534ZM52.2102 179.019C52.3609 179.852 52.4989 180.307 52.6135 181.035C52.5877 180.978 52.5617 180.92 52.5361 180.863C52.4752 180.617 52.0976 178.605 52.2102 179.019ZM58.5484 199.554C58.067 198.012 58.1938 198.811 58.0203 197.981C58.2079 198.502 58.3976 199.022 58.588 199.54C58.5748 199.545 58.5616 199.55 58.5484 199.554ZM25.7177 92.1941C25.5013 91.554 25.2733 90.8334 25.0771 90.4762C25.2262 90.9092 25.3724 91.345 25.5151 91.7808C25.5829 91.9181 25.6507 92.0567 25.7177 92.1941ZM31.7259 110.593C31.6942 110.441 31.4739 109.867 31.455 109.805C31.4201 109.69 31.4498 109.715 31.4546 109.712C31.2225 108.96 31.3704 109.674 31.1884 109.121C31.1566 109.027 30.7969 107.708 30.6424 107.174C30.4011 106.353 30.1807 105.529 30.0967 105.22C30.0424 105.021 29.9648 104.76 29.8774 104.462C29.7372 103.984 29.5677 103.417 29.4247 102.888C29.3293 102.535 29.3343 102.402 29.2372 102.047C28.6271 99.769 27.2648 95.3311 26.6138 93.3438C26.4576 92.8517 26.3474 92.3684 26.2543 92.1111C26.1666 91.9138 26.0778 91.7156 25.9888 91.519C25.9276 90.8372 25.7112 90.679 25.4486 90.0146C25.2811 89.593 25.2516 89.3774 25.2299 89.3206C25.084 88.9425 24.9892 88.7661 24.8687 88.4727C24.7949 88.2932 24.7091 88.0646 24.6387 87.8794C24.5794 87.7234 24.5325 87.596 24.5096 87.5434C24.482 87.4704 24.4956 87.7345 24.0152 86.4326C23.5354 85.1046 23.1428 83.7627 22.7728 82.3774C22.7038 82.8921 22.9462 83.2545 23.1176 83.8152C23.1639 83.9659 23.1052 83.8795 23.1453 84.0104C23.2579 84.3814 23.5101 85.0801 23.6046 85.3853C23.7065 85.7163 23.5979 85.6285 23.7672 86.0349C23.7759 86.0554 23.7816 85.979 23.8205 86.0748C24.1323 86.836 24.2455 87.2024 24.5244 87.9261C24.5975 88.1141 24.6826 88.3318 24.7822 88.5842C25.1407 89.3722 26.8793 94.33 26.8894 94.5171C27.0926 95.4381 25.3404 90.1918 25.0791 89.6003C25.0017 89.3883 25.1174 89.5974 25.0502 89.403C25.022 89.322 24.7052 88.6594 24.4137 87.9713C24.4027 87.9453 24.3918 87.9193 24.3811 87.8933C24.0065 87.0203 23.4213 85.2043 23.1682 84.3387C22.3455 81.6671 21.813 78.9478 20.8619 76.3808C19.3312 72.1949 17.9874 67.9657 16.4775 63.7661C16.3213 63.3305 16.1701 62.8999 16.0198 62.4623C15.9668 62.3073 15.8593 62.1151 15.6892 61.604C14.5437 58.1898 13.6614 54.6354 12.9612 51.0425C12.1893 47.0824 10.5054 43.2696 10.1005 39.132C9.88068 36.6945 9.43539 34.2898 8.81674 31.9404C8.43592 30.4858 7.98148 29.0595 7.52189 27.6223C7.30977 26.9585 7.09845 26.2923 6.89043 25.621C6.77848 25.3668 6.6663 25.1129 6.55394 24.8592C6.79483 25.5235 7.13089 26.775 7.1656 26.8876C7.17824 26.928 7.29035 27.1733 7.41974 27.5851C7.42652 27.6067 7.43311 27.6278 7.43954 27.6485C7.60549 28.1831 7.65454 28.4275 7.66892 28.4731C7.71474 28.6202 7.71268 28.5152 7.75626 28.6558C8.07995 29.704 8.32802 30.5145 8.59049 31.4837C8.88353 32.5797 8.96114 33.1513 9.19663 33.9428C9.19364 34.0391 9.19034 34.1354 9.18664 34.2311C9.39452 34.7226 9.88852 37.4228 10.0156 39.1397C10.0428 39.4449 10.075 39.7177 10.1044 39.9411C10.1695 40.4173 10.1196 40.3394 10.1443 40.4992C10.1661 40.5999 10.1887 40.5572 10.4329 41.7844C10.5625 42.4002 10.5668 42.5683 10.6433 42.8744C10.6858 43.04 10.7163 43.0037 10.7777 43.2415C11.1362 44.6146 11.4634 45.7207 11.8394 47.0449C11.9451 47.4172 11.9146 47.4301 11.9389 47.5131C12.0271 47.8189 12.2336 48.3361 12.4358 49.1172C12.5659 49.6213 12.7377 50.3232 12.8827 51.0583C13.1096 52.213 13.3654 53.4356 13.4981 54.0897C13.5298 54.2477 13.5218 54.387 13.5491 54.5023C13.5905 54.6772 13.6463 54.7371 13.6536 54.7675C13.7926 55.3524 13.6723 55.0088 13.7754 55.3985C13.8316 55.6082 13.9295 55.8169 14.059 56.3045C14.2316 56.9475 14.1471 56.8351 14.2232 57.1021C14.2317 57.1303 14.2704 57.1288 14.3431 57.393C14.616 58.3935 15.0533 59.8321 15.355 60.7655C15.4413 61.0343 15.4811 61.2409 15.6044 61.6143C15.7073 61.9268 16.0125 62.8278 16.367 63.8059C16.868 65.1892 17.4055 66.7352 17.468 66.9421C17.4792 66.9792 17.2957 66.6214 17.505 67.2205C17.5876 67.3873 17.6697 67.5534 17.7521 67.7205C17.8171 68.0241 17.8819 68.3277 17.9467 68.632C18.0659 68.5791 18.6731 70.2892 18.542 70.3157C18.6011 70.5046 18.6608 70.6955 18.72 70.8846C18.9411 71.2465 18.9982 71.5181 19.31 72.2569C19.324 72.3835 19.3384 72.5111 19.3527 72.6381C19.3807 72.6616 19.4086 72.6851 19.4366 72.7086C19.4804 73.1455 19.808 73.7738 19.8368 73.8535C19.9474 74.1618 20.0051 74.402 20.0573 74.5466C20.2103 74.9726 20.5258 75.7854 20.762 76.4178C20.8242 76.5847 20.8777 76.7377 20.9207 76.8705C20.9301 76.9001 20.8796 76.8858 20.9357 77.0645C21.0357 77.388 21.1074 77.3996 21.1738 77.8528C21.2192 77.9343 21.2643 78.0159 21.3091 78.0977C21.3284 78.1934 21.3474 78.2892 21.366 78.3849C21.5355 78.9322 21.6941 79.4847 21.8484 80.0401C21.6408 79.5537 21.7595 80.1449 21.9607 80.6828C22.0291 80.8649 22.0285 80.6875 22.0515 80.7482C22.0804 80.8298 22.7265 83.3522 22.7564 83.526C22.8042 83.6417 22.8518 83.7559 22.9001 83.8708C22.8907 83.9388 22.8815 84.0075 22.8723 84.0754C22.9011 84.1378 22.93 84.2004 22.9592 84.2631C23.098 84.9342 23.7795 86.5769 23.8917 86.8761C23.9484 87.0375 23.7762 86.9381 24.0888 87.7015C24.1299 87.7158 24.1711 87.73 24.2123 87.7442C24.2497 87.8314 24.2877 87.919 24.3262 88.007C24.3629 88.0906 24.3995 88.1746 24.436 88.2589C24.5644 88.5834 24.6953 89.0761 24.6643 89.1047C24.7253 89.1971 24.7863 89.2901 24.8473 89.3836C24.8838 89.6817 25.4487 91.1329 25.698 91.7105C25.7368 91.8912 25.7754 92.0725 25.8132 92.253C25.9199 92.477 26.0257 92.7012 26.1309 92.9262C26.3205 93.4654 26.0847 92.9079 26.1196 93.0245C26.1957 93.27 26.6776 94.4947 26.5565 94.4427C26.6112 94.6133 26.6654 94.7839 26.7193 94.9547C26.7738 95.034 26.8282 95.1134 26.8826 95.1929C26.8825 95.5154 27.0759 96.0122 27.3569 97.0678C27.4045 97.1491 27.452 97.2304 27.4995 97.3117C27.5659 97.6446 27.6312 97.9772 27.6955 98.31C27.7502 98.3662 27.8049 98.4222 27.8596 98.4788C27.9058 98.6186 27.9517 98.7582 27.9974 98.8976C28.0011 99.2075 28.2336 99.6987 28.2747 99.97C28.3347 100.367 28.1956 100.086 27.9821 99.379C27.9422 99.448 28.5618 101.559 28.6959 102.049C28.6984 102.013 28.701 101.978 28.7035 101.942C28.558 101.443 28.4116 100.947 28.2628 100.449C28.2912 99.9893 28.6317 101.358 28.8188 101.978C28.8358 102.034 28.9795 102.342 29.143 102.975C29.207 103.22 29.3773 104.192 29.4204 104.377C29.4369 104.447 29.4521 104.511 29.4662 104.569C29.7589 105.763 29.6102 104.816 29.8904 106.216C29.8847 105.894 30.0478 106.74 30.3121 107.593C30.3558 107.739 30.7838 108.956 30.8115 109.038C30.978 109.554 30.7393 109.01 30.9844 109.755C31.0296 109.84 31.0748 109.924 31.1202 110.009C31.1734 110.184 31.2268 110.358 31.2802 110.532C31.4463 111.639 31.6392 111.848 31.7693 112.219C31.8219 112.369 31.7208 112.187 31.8499 112.577C31.8984 112.725 31.9833 112.878 32.1064 113.276C32.4898 114.522 32.4667 114.987 32.9413 116.094C32.9675 116.277 32.9932 116.46 33.018 116.643C33.0534 116.71 33.0886 116.778 33.1238 116.845C33.1474 116.891 33.1709 116.936 33.1945 116.981C33.3627 117.924 33.3545 117.569 33.4436 117.902C33.6785 118.78 34.1743 120.571 34.1559 120.746C34.52 121.456 34.6155 122.404 34.7073 122.698C34.7763 122.869 34.8454 123.04 34.9144 123.211C34.9565 123.423 34.9986 123.635 35.0405 123.847C35.1563 123.705 35.3235 124.818 35.3504 124.921C35.3833 125.041 35.8948 126.677 36.0607 127.293C36.2298 127.907 36.4733 128.99 36.4968 129.084C36.5185 129.168 36.7084 129.801 36.8822 130.464C36.9351 130.666 36.986 130.865 37.0329 131.056C37.2081 131.778 38.2029 136.071 38.205 135.784C38.1533 135.501 38.0694 135.097 37.993 134.752C37.8719 134.21 37.4347 132.356 36.9787 130.44C36.5293 128.549 35.9951 126.611 35.777 125.82C34.963 122.867 34.0307 119.815 33.2482 116.813C33.1861 116.574 33.1231 116.337 33.0592 116.1C33.0082 115.912 33.0378 115.873 32.9937 115.712C32.9268 115.466 32.7114 114.857 32.6413 114.616C32.3824 113.716 32.0546 112.625 31.9081 112.144C31.5804 111.07 31.3754 110.328 31.1324 109.513C31.0558 109.258 30.6213 107.984 30.3878 107.089C30.3525 106.926 30.317 106.761 30.2823 106.598C30.4222 107.052 30.8027 108.239 30.9737 108.793C31.2262 109.616 31.3282 110.054 31.4216 110.358C31.4995 110.612 31.9344 111.9 32.1159 112.491C32.1724 112.675 32.1446 112.724 32.1927 112.882C32.4539 113.734 32.7884 114.858 33.0349 115.591C32.9677 115.385 33.187 116.215 33.3295 116.791C33.3956 117.056 33.4498 117.267 33.4582 117.298C33.5043 117.469 33.5914 117.645 33.6872 117.994C33.8723 118.666 33.7711 118.603 34.0844 119.419C34.1206 119.632 34.157 119.846 34.1938 120.06C34.2979 120.044 34.9157 122.698 35.2566 123.405C35.2764 123.42 34.3299 120.013 34.2556 119.731C34.0194 118.877 33.7194 117.818 33.4379 116.762C33.1634 115.733 32.8672 114.719 32.6364 113.912C32.4977 113.421 32.0888 111.864 32.0516 111.749C31.9922 111.562 32.0088 111.742 31.9826 111.662C31.4478 110.017 31.7729 110.819 31.7259 110.593ZM53.3959 183.352C53.2397 182.841 53.0952 182.327 52.9621 181.81C52.9947 181.841 53.0274 181.873 53.0602 181.904C53.1148 182.142 53.1719 182.379 53.2317 182.617C53.2974 182.792 53.3652 182.969 53.4336 183.143C53.4208 183.213 53.4082 183.282 53.3959 183.352ZM53.9055 184.564C54.0659 184.989 54.0257 185.026 54.0576 185.126C54.152 185.424 54.2577 185.674 54.3535 185.962C54.1316 185.667 53.9426 184.947 53.9055 184.564ZM51.8285 175.315C51.8389 175.417 51.8167 176.116 52.0582 176.871C52.1153 177.456 52.1776 178.041 52.2497 178.628C52.1186 177.633 51.8472 176.281 51.7754 175.8C51.7479 175.617 51.7809 175.577 51.7591 175.43C51.6738 174.863 51.5493 174.314 51.5111 173.985C51.4928 173.828 51.4948 173.719 51.5316 173.685C51.5427 173.784 51.5553 173.881 51.569 173.976C51.666 174.646 51.8167 175.201 51.8285 175.315ZM52.6981 180.399C52.7025 180.539 52.7075 180.679 52.7133 180.819C52.5979 180.335 52.4917 179.849 52.3931 179.362C52.4463 179.488 52.5003 179.615 52.5546 179.74C52.6008 179.96 52.6486 180.18 52.6981 180.399ZM40.7808 144.882C40.8761 145.175 40.9695 145.456 41.0686 145.749C41.0812 145.725 40.9699 145.396 40.9426 145.272C40.9427 145.272 40.9429 145.273 40.9431 145.273C40.9124 145.133 40.9554 145.184 40.8847 144.933C40.8501 144.916 40.8154 144.899 40.7808 144.882ZM6.51988 24.4845C6.36918 23.9998 4.88392 19.5549 4.94039 19.9576C4.9716 20.1596 5.51124 21.6682 5.65941 22.1172C5.86084 22.7214 6.32536 24.3792 6.51988 24.4845ZM3.88814 16.613C3.79603 16.5594 4.73254 19.3333 4.83447 19.6016C4.82467 19.5411 4.81582 19.4446 4.79469 19.3663C4.69195 18.9845 4.07587 17.2157 3.88814 16.613ZM36.6074 128.419C36.6332 128.657 36.6582 128.894 36.6825 129.131C36.7122 129.059 36.7419 128.987 36.7715 128.916C36.7172 128.75 36.6625 128.585 36.6074 128.419ZM30.2099 106.421C30.0322 105.785 29.8597 105.149 29.6933 104.51C28.868 101.342 27.9934 98.1856 27.0116 95.0645C27.1341 95.3882 27.2554 95.7125 27.3756 96.0373C28.2174 98.7929 29.0135 101.733 29.7486 104.495C29.8784 104.983 30.011 105.463 30.1456 105.933C30.1668 106.096 30.1879 106.257 30.2099 106.421ZM51.8674 174.188C51.854 174.102 51.8406 174.018 51.827 173.935C51.6824 173.049 51.534 172.275 51.4075 171.281C51.6419 172.299 51.6424 172.823 51.8792 173.814C51.8793 173.814 51.8794 173.815 51.8795 173.815C51.8783 173.853 51.8771 173.89 51.8759 173.927C51.8731 174.014 51.8703 174.101 51.8674 174.188ZM44.2745 153.246C44.4317 153.507 44.5961 153.779 44.7554 154.036C44.5988 153.709 44.4382 153.367 44.2853 153.036C44.2817 153.106 44.2781 153.177 44.2745 153.246ZM20.1057 73.6496C19.6868 72.6773 18.9354 70.0835 18.5763 69.3003C18.553 69.2498 18.684 69.7435 18.3505 68.9871C18.5659 69.5711 18.7219 69.9815 18.7893 70.0077C18.8316 70.189 18.8736 70.3691 18.9159 70.5505C19.0285 70.8353 19.1416 71.1212 19.2547 71.4068C19.192 71.3934 19.2023 71.4148 19.3915 71.8483C19.4483 72.0559 19.505 72.263 19.5623 72.4712C19.6142 72.5498 19.6659 72.628 19.7176 72.706C19.7482 72.8935 19.7779 73.078 19.8088 73.2656C20.0812 73.9383 19.9952 73.5008 20.1057 73.6496ZM21.3363 77.1289C21.3248 77.086 21.2123 76.7487 21.0464 76.3125C20.5644 75.0518 19.7761 72.9192 20.2477 74.5042C20.4443 75.0476 20.6433 75.5905 20.8465 76.1326C20.8483 75.9125 20.9216 76.07 21.0073 76.3269C21.1241 76.6722 21.2481 77.2057 21.2685 77.2763C21.4474 77.8644 21.712 78.605 21.8309 79.0367C21.9336 79.4077 21.9621 79.6373 22.0335 79.8984C22.2756 80.7884 22.6453 82.2034 22.7728 82.3774C22.5866 81.6827 22.4049 80.9754 22.2111 80.254C22.0025 79.4936 21.9042 78.7961 21.3578 77.4165C21.253 77.0662 21.3472 77.1719 21.3363 77.1289ZM45.153 154.873C45.0647 154.874 45.9234 156.539 45.9571 156.53C45.9734 156.525 45.698 155.988 45.6631 155.903C45.6628 155.903 45.6626 155.902 45.6623 155.902C45.6488 155.869 45.7564 156.017 45.6361 155.762C45.4743 155.468 45.3124 155.17 45.153 154.873ZM8.83373 31.3928C8.82516 31.2392 8.25138 29.1934 7.71672 27.5603C7.36467 26.464 7.05843 25.5454 7.02976 25.4831C7.01018 25.441 7.01235 25.5079 6.99655 25.4939C7.22226 26.0971 7.45792 26.8333 7.6826 27.5711C7.92761 28.3745 8.1556 29.1799 8.34148 29.8175C8.44073 30.1583 8.43925 30.0482 8.44554 30.0673C8.44578 30.0681 8.44602 30.0689 8.44626 30.0697C8.50445 30.2631 8.68139 31.1574 8.83373 31.3928ZM17.944 67.5664C18.0128 67.8018 18.0814 68.0374 18.1498 68.2726C18.192 68.3236 18.2344 68.3751 18.2767 68.4263C18.2765 68.4257 18.2763 68.4252 18.2762 68.4247C18.1656 68.1384 18.055 67.8524 17.944 67.5664ZM15.274 59.5075C15.2756 59.5695 15.2773 59.6316 15.2792 59.6939C15.4578 60.2848 15.6432 60.8735 15.835 61.4605C15.807 61.4053 15.7782 61.3476 15.75 61.2914C16.0198 62.1883 16.2022 62.5321 16.3581 63.0042C16.3579 63.0037 16.3577 63.0032 16.3575 63.0027C16.3743 63.0532 16.3637 63.127 16.429 63.3147C16.4642 63.416 16.5151 63.5628 16.5746 63.7313C16.7645 64.2683 17.0266 65.0132 17.0914 65.1182C17.1988 65.2915 16.9209 64.4844 16.6394 63.708C16.4477 63.1796 16.2641 62.6651 16.2007 62.4762C16.1308 62.2686 16.0721 62.0024 16.0305 61.8764C15.9837 61.7352 15.8817 61.5592 15.7702 61.215C15.7368 61.1174 15.4246 59.9882 15.274 59.5075ZM12.6596 48.9432C12.672 49.1362 12.8033 49.5115 12.8313 49.6546C12.8381 49.6887 12.7442 49.4335 12.8124 49.754C12.8547 49.8392 12.8966 49.9245 12.9383 50.0101C12.8503 49.6532 12.7569 49.2977 12.6596 48.9432ZM46.6128 157.65C46.5935 157.599 46.1275 156.714 46.1016 156.673C45.7644 156.172 46.7288 158.005 46.6128 157.65ZM53.5252 181.765C53.5146 181.518 53.8539 182.86 54.3263 184.231C54.7529 185.479 55.1576 186.79 55.2379 187.029C55.1721 187.023 54.8236 185.768 54.9567 186.441C54.8402 185.976 54.4848 184.933 54.2474 184.258C54.1623 184.015 54.0979 183.82 54.066 183.713C53.9933 183.467 54.0245 183.387 54.0143 183.351C53.9673 183.207 53.5277 181.932 53.5252 181.765ZM56.5544 191.351C56.4122 190.851 56.2698 190.351 56.1265 189.852C56.3155 190.435 56.5032 191.019 56.6908 191.603C56.6453 191.519 56.5998 191.435 56.5544 191.351ZM56.7741 191.967C56.8262 191.934 57.3037 193.632 57.4564 194.07C57.2028 193.602 57.0361 192.741 56.7741 191.967ZM49.6877 163.543C49.5955 163.25 49.4926 163.032 49.4249 162.92C49.3576 162.811 49.3261 162.808 49.371 162.941C49.4009 163.031 49.4634 163.18 49.5675 163.402C49.5807 163.429 49.6975 163.576 49.6877 163.543ZM20.2651 73.3277C20.2194 73.1967 19.7123 71.5503 19.6527 71.4651C19.4617 71.1974 19.865 72.2541 19.9561 72.6233C20.1032 73.2201 19.7617 72.3867 20.2869 73.7831C20.2491 73.732 20.2113 73.6808 20.1734 73.6295C20.4571 74.4553 20.485 74.1422 20.5529 74.2846C20.5734 74.328 20.746 74.8451 20.7874 74.9354C21.3 76.0563 20.3028 73.4515 20.2651 73.3277ZM41.4033 145.248C41.0454 144.028 41.0621 144.194 40.8423 143.55C40.7827 143.373 40.7068 143.137 40.6042 142.793C40.5826 142.777 40.6799 143.121 40.816 143.558C41.0275 144.243 41.3415 145.135 41.4033 145.248ZM25.0224 88.3279C24.9501 88.1514 24.8791 87.978 24.8099 87.8094C24.2694 86.4888 23.9037 85.3136 23.4463 84.009C23.3746 84.1087 24.2522 86.7089 24.7809 87.8213C24.9544 88.21 25.0568 88.4351 25.0224 88.3279ZM3.28568 12.9449C3.46905 13.787 3.6911 14.6393 3.96542 15.4875C5.21122 19.3348 6.59158 23.4358 7.89436 27.5037C8.47768 29.3211 9.02937 31.141 9.45791 32.9515C9.63084 33.6886 9.5991 33.7698 9.66202 34.0366C9.70204 34.211 9.73071 34.1734 9.77885 34.4071C10.0985 35.9673 10.3321 37.533 10.4777 39.0976C10.891 43.2026 12.5822 46.9785 13.3693 50.9609C13.9002 53.6163 14.5024 56.2418 15.2603 58.8263C15.3944 59.3252 16.0885 61.7503 16.382 62.2216C16.5939 62.5785 15.951 60.8861 15.8648 60.5969C15.7969 60.3826 15.8325 60.3588 15.7873 60.2152C15.7395 60.0627 15.7522 60.1969 15.6966 60.0205C15.4589 59.2671 15.227 58.4407 15.0337 57.7543C14.3941 55.4972 13.8838 53.2253 13.4283 50.9491C12.628 46.9163 10.9582 43.1405 10.5657 39.0895C10.5189 38.5727 10.4626 38.0562 10.3968 37.5401C10.2859 36.6998 10.3374 36.8675 10.3328 36.8253C10.3326 36.8247 10.3325 36.8242 10.3323 36.8236C9.9112 33.8128 9.00858 30.6013 7.98506 27.4749C7.481 25.9128 6.97241 24.3566 6.48004 22.8388C5.68279 20.3743 4.86581 17.9159 4.0359 15.4631C3.78688 14.7267 3.57146 13.9774 3.38116 13.2213C3.349 13.1295 3.31717 13.0374 3.28568 12.9449ZM21.3619 76.7291C21.3517 76.5398 21.3182 76.4247 21.2444 76.2391C21.1476 75.9958 20.9812 75.6298 20.7174 74.8073C20.6564 74.6995 20.595 74.5901 20.5339 74.4815C20.7489 75.0755 20.9672 75.6697 21.1895 76.2594C21.249 76.4172 21.3061 76.5729 21.3628 76.7315C21.3625 76.7307 21.3622 76.7299 21.3619 76.7291ZM18.1134 67.2954C18.1712 67.0674 17.4638 65.1418 16.9018 63.6137C16.7341 63.1564 16.5877 62.74 16.4801 62.405C16.3781 62.2632 16.6072 62.9538 16.8523 63.6315C17.0163 64.0859 17.1807 64.5376 17.2471 64.7359C17.3306 64.983 17.7113 66.3277 18.102 67.3145C18.1058 67.3082 18.1096 67.3018 18.1134 67.2954ZM52.6363 176.122C52.5934 175.881 52.5509 175.638 52.5087 175.396C52.584 176.007 52.6604 176.616 52.7436 177.225C52.5935 176.257 52.4607 175.286 52.3216 174.313C52.384 174.489 52.4463 174.664 52.5085 174.84C52.5508 175.268 52.5928 175.695 52.6363 176.122ZM52.1264 172.979C52.4109 174.676 52.0374 172.916 52.0067 172.487C51.9892 172.229 52.0973 172.806 52.1264 172.979ZM51.3586 168.559C51.6003 169.332 51.9055 170.933 51.6777 170.386C51.568 169.522 51.4151 168.98 51.1548 167.745C51.2207 167.918 51.2858 168.093 51.3499 168.267C51.3501 168.268 51.3503 168.269 51.3505 168.27C51.3535 168.367 51.3562 168.463 51.3586 168.559ZM52.3234 173.743C52.3276 173.787 52.3308 173.824 52.3332 173.855C52.348 174.044 52.3324 174.007 52.3034 173.86C52.2167 173.409 51.9934 171.919 52.1469 172.647C52.1577 172.694 52.3195 173.698 52.3234 173.743ZM5.61855 19.7285C5.53739 19.6124 5.81518 20.4333 5.90405 20.7071C6.29078 21.8953 6.81129 23.4101 7.20874 24.6474C7.19083 24.5503 7.1729 24.4532 7.15497 24.3562C6.65059 22.8109 6.13783 21.2684 5.61855 19.7285ZM8.44824 28.5199C8.71317 29.3743 8.9685 30.2333 9.20489 31.0986C9.22705 31.1786 9.3619 31.5491 9.2941 31.265C9.0305 30.3427 8.74482 29.4286 8.44824 28.5199ZM23.1452 82.0852C22.9889 81.4225 23.6124 83.2841 23.4753 83.2302C23.3622 82.8496 23.253 82.4689 23.1452 82.0852ZM25.1814 88.064C25.1313 87.9485 25.081 87.8335 25.0307 87.7192C24.9084 87.4417 24.7903 87.1649 24.6758 86.8877C24.6888 86.8821 24.7017 86.8766 24.7147 86.871C24.8199 87.1521 24.9288 87.4328 25.0421 87.7145C25.0886 87.8304 25.1351 87.947 25.1814 88.064ZM4.51235 16.3981C4.61503 16.8439 4.97346 17.8669 5.19022 18.5077C5.07953 18.0532 4.70096 17.009 4.51235 16.3981ZM20.0854 72.2866C20.0713 72.3506 19.1956 69.7751 19.5561 70.6472C19.732 71.194 19.9082 71.7406 20.0854 72.2866ZM18.3352 67.0446C18.5328 67.5943 18.669 68.0257 18.5812 67.9289C18.4825 67.6352 18.3837 67.3419 18.2846 67.0487C18.3015 67.0473 18.3183 67.046 18.3352 67.0446ZM50.6833 165.559C50.401 164.629 50.0827 163.708 49.722 162.803C49.7142 162.784 49.7062 162.764 49.6981 162.744C49.7137 162.761 49.7292 162.778 49.7446 162.794C49.7558 162.807 49.7669 162.819 49.778 162.831C50.1325 163.724 50.446 164.632 50.7245 165.55C50.7108 165.553 50.6971 165.556 50.6833 165.559ZM4.45055 15.8307C4.39627 15.6801 4.34103 15.5269 4.28665 15.3764C4.11587 14.904 3.95825 14.4225 3.81272 13.938C3.94461 14.4264 4.08877 14.9125 4.24643 15.3903C4.29679 15.5428 4.34799 15.6979 4.39826 15.8505C4.41595 15.8444 4.43364 15.8383 4.45134 15.8322C4.45108 15.8317 4.45082 15.8312 4.45055 15.8307ZM53.4221 178.777C52.9536 175.84 53.6814 179.563 53.7927 180.334C53.793 180.335 53.7932 180.336 53.7935 180.337C53.8007 180.405 53.7277 180.273 53.7374 180.388C53.6868 180.09 53.6401 179.792 53.5959 179.493C53.5165 179.228 53.4394 178.962 53.3643 178.696C53.356 178.605 53.3481 178.514 53.3403 178.423C53.3671 178.541 53.3944 178.659 53.4221 178.777ZM56.904 190.314C57.701 192.92 56.7826 190.287 56.4555 188.974C56.4769 188.977 56.8308 190.074 56.904 190.314ZM54.6622 183.524C54.5202 183.127 54.3857 182.727 54.2584 182.324C54.2546 182.269 54.2509 182.214 54.2474 182.159C54.3481 182.467 54.4526 182.773 54.5619 183.078C54.5941 183.227 54.6279 183.376 54.6622 183.524ZM52.0942 169.734C51.965 169.046 51.6677 168.199 52.1366 170.391C52.1502 170.388 52.1639 170.384 52.1775 170.38C52.1588 170.293 52.0961 170.038 52.0943 170.024C52.0898 169.983 52.1456 170.021 52.0942 169.734ZM58.7578 195.005C58.7873 195.076 58.9391 195.07 59.0466 195.877C59.1324 196.104 59.2188 196.33 59.3057 196.557C59.2949 196.626 59.2842 196.696 59.2735 196.766C58.9948 195.87 58.9032 195.796 58.8799 195.732C58.7756 195.439 58.8806 195.647 58.8179 195.456C58.6541 194.963 58.2762 193.849 58.5307 194.328C58.6219 194.5 58.7286 194.933 58.7578 195.005ZM58.2841 193.233C58.3062 193.346 58.1554 193.008 58.1693 193.094C58.1775 193.144 58.3131 193.655 58.3532 193.903C58.3726 194.023 58.3691 194.082 58.3159 193.993C58.3087 193.969 58.3016 193.945 58.2944 193.921C58.2489 193.767 58.2034 193.612 58.158 193.458C58.1584 193.392 58.1587 193.325 58.1592 193.259C58.0878 193.092 58.0165 192.926 57.9453 192.759C57.9025 192.453 57.7725 191.816 58.0385 192.538C57.9508 192.269 57.8633 192.001 57.7757 191.731C57.7097 191.598 57.6437 191.465 57.5777 191.332C57.635 191.395 57.6923 191.458 57.7496 191.52C57.9275 192.092 58.1053 192.664 58.2841 193.233ZM61.0893 201.504C61.0601 201.478 61.0309 201.452 61.0017 201.426C61.3838 202.394 61.9361 203.92 61.5186 203.09C61.0392 201.763 60.5549 200.44 60.0774 199.118C60.0595 199.025 60.042 198.933 60.0241 198.84C60.322 199.846 60.432 199.464 60.675 200.346C60.7159 200.495 60.4904 200.102 60.8634 200.996C60.8695 200.957 60.8757 200.919 60.8819 200.88C60.9509 201.088 61.02 201.296 61.0893 201.504ZM63.7586 210.063C63.2878 208.427 63.888 210.201 63.9506 210.514C63.9504 210.513 63.9502 210.513 63.95 210.512C64.0874 211.383 63.5503 209.595 63.535 209.484C63.4938 209.349 63.3187 209.084 63.2381 208.354C63.2313 208.293 63.2248 208.228 63.2193 208.161C63.236 208.222 63.2528 208.285 63.2693 208.346C63.4297 208.944 63.5792 209.507 63.7586 210.063ZM62.1323 204.458C62.1356 204.466 62.1385 204.474 62.141 204.481L62.1457 204.495C62.1829 204.607 62.1369 204.547 62.1569 204.606C62.1571 204.607 62.1572 204.607 62.1574 204.608C62.4813 205.533 63.134 207.729 63.1076 207.993C62.9572 207.455 62.3662 205.455 62.0706 204.52L62.0663 204.507C61.9858 204.257 61.9365 204.088 61.9351 204.044C62.0011 204.182 62.0663 204.319 62.1323 204.458ZM59.8316 198.158C59.6948 197.588 60.1355 198.824 60.2255 199.158C60.2415 199.221 59.9735 198.748 59.8316 198.158ZM46.7558 155.299C46.1533 154.181 46.8718 155.688 46.5627 155.197C46.6742 155.408 46.7924 155.63 46.9062 155.841C46.8566 155.663 46.8054 155.48 46.7558 155.299ZM29.8423 99.4281C29.7665 99.136 29.7728 99.2827 29.7652 99.2577C29.7119 99.0662 29.6872 98.8791 29.6634 98.8067C29.2203 97.4692 29.4521 98.3771 29.4498 98.3922C29.4258 98.43 29.2858 98.086 29.3908 98.5884C29.4882 98.8843 29.5848 99.1797 29.6807 99.4755C29.7045 99.6282 29.7286 99.783 29.7522 99.9361C29.9565 100.519 29.7503 99.7397 29.776 99.6362C29.7865 99.5967 29.9681 100.15 29.8423 99.4281ZM45.8549 153.208C45.7141 153.05 45.43 152.618 45.5891 153.096C45.5893 153.097 45.5896 153.097 45.5898 153.098C45.6198 153.187 45.7722 153.522 45.8095 153.634C46.2377 154.339 46.1703 154.021 45.8549 153.208ZM31.3951 104.77C31.5093 105.249 31.6266 105.726 31.7475 106.205C31.7112 106.206 31.675 106.208 31.6387 106.21C31.5763 105.953 31.5148 105.697 31.4538 105.439C31.4138 105.354 31.374 105.27 31.3341 105.184C31.381 105.51 31.4297 105.837 31.48 106.165C31.6006 106.541 31.7231 106.918 31.8474 107.294C31.8142 107.113 31.782 106.935 31.7495 106.754C32.0378 107.678 31.8968 107.499 32.0934 108.277C32.2034 108.531 32.3139 108.785 32.4247 109.038C32.5088 109.429 32.5937 109.82 32.6794 110.211C32.891 110.848 32.9326 110.898 32.8356 110.455C32.9746 110.761 33.0179 111.13 33.153 111.511C33.1641 111.542 33.1843 111.47 33.1934 111.498C33.8312 113.486 33.6929 113.416 33.7851 113.737C33.8503 113.963 34.1825 114.852 34.2093 114.861C34.2437 114.871 33.8342 112.931 34.6743 115.911C34.3404 114.337 33.7224 112.637 33.9329 113.794C33.8052 113.304 33.1267 111.202 33.0889 111.068C33.0343 110.87 33.1032 110.925 33.0291 110.679C32.9856 110.534 32.7568 110.184 32.5056 109.014C32.4437 108.874 32.3815 108.733 32.3199 108.593C32.2938 108.452 32.2671 108.31 32.2415 108.17C32.3778 108.435 32.515 108.701 32.6525 108.966C32.2578 107.869 32.0971 106.916 31.8143 106.263C31.6592 105.673 31.5925 105.385 31.7084 105.625C31.6595 105.448 31.6113 105.272 31.5633 105.096C31.5069 104.987 31.451 104.879 31.3951 104.77ZM44.2634 149.841C44.0835 149.264 43.8939 149.104 43.9226 149.195C44.0884 149.703 44.3572 150.139 44.2634 149.841ZM30.0831 100.522C30.2351 101.185 30.3839 101.849 30.5299 102.513C30.566 102.503 30.6021 102.493 30.6382 102.484C30.456 101.829 30.2711 101.175 30.0831 100.522ZM46.9154 155.428C46.9185 155.496 46.9216 155.564 46.9247 155.631C47.349 156.237 47.5559 156.945 47.7551 157.256C47.7978 157.323 47.7672 157.16 47.7055 157.02C47.6669 156.937 46.9796 155.54 46.9154 155.428ZM55.7874 184.894C55.68 184.636 55.5716 184.379 55.4622 184.122C55.4971 184.126 55.5319 184.13 55.5667 184.134C55.6175 184.263 55.6679 184.391 55.7182 184.519C55.7415 184.644 55.7645 184.769 55.7874 184.894ZM54.7804 181.982C54.6519 181.524 54.533 181.062 54.4226 180.598C54.902 182.351 54.5382 180.907 54.8684 181.957C54.8391 181.965 54.8097 181.974 54.7804 181.982ZM53.7994 177.236C53.8279 177.291 53.8565 177.347 53.8851 177.402C53.9672 177.878 54.0538 178.352 54.1472 178.822C54.1522 178.512 54.16 178.202 54.1703 177.891C54.1391 177.718 54.1086 177.544 54.0788 177.371C53.9856 177.326 53.8925 177.281 53.7994 177.236ZM25.7079 86.6763C25.6021 86.4104 25.2108 85.4904 25.2072 85.5361C25.3201 85.9382 25.4386 86.3358 25.5646 86.7334C25.6002 86.7217 25.6358 86.71 25.6714 86.6983C25.6751 86.7596 25.679 86.8211 25.6832 86.8828C25.7575 87.0437 25.8312 87.2 25.9081 87.3607C25.9355 87.4183 25.9629 87.476 25.9902 87.5339C26.007 87.6624 26.0238 87.792 26.0398 87.9206C26.121 88.0234 26.202 88.1268 26.283 88.231C26.1313 87.7719 26.0284 87.5061 25.9575 87.3405C25.856 87.1041 25.8191 87.0738 25.7676 86.9427C25.7234 86.8297 25.7176 86.7505 25.7131 86.7067C25.7113 86.6965 25.7096 86.6864 25.7079 86.6763ZM30.4377 100.912C30.0702 99.5414 29.7526 98.7891 29.5445 97.7797C29.5718 98.459 30.8831 102.504 31.1092 103.99C31.13 104.035 31.1508 104.079 31.1715 104.124C31.2169 104.221 31.2622 104.318 31.3076 104.414C31.2764 104.309 31.248 104.208 31.2219 104.111C31.0549 103.488 30.9778 103.025 30.8963 102.691C30.8214 102.385 30.8013 102.424 30.7955 102.401C30.7952 102.4 30.7949 102.399 30.7946 102.398C30.6148 101.681 30.582 101.453 30.4377 100.912ZM47.5112 156.285C47.3781 155.934 47.0765 155.354 47.0151 155.375C47.1636 155.709 47.3151 156.044 47.4651 156.372C47.4457 156.299 47.5336 156.344 47.5112 156.285ZM53.8858 176.65C53.8593 176.36 53.7338 175.679 53.7247 175.983C53.7229 176.038 53.8707 176.71 53.7069 176.328C53.8151 176.989 53.9008 176.816 53.8858 176.65ZM36.9205 124.082C36.9913 124.321 37.0619 124.56 37.1323 124.8C37.1735 124.849 37.2146 124.898 37.2558 124.946C37.1444 124.658 37.0326 124.37 36.9205 124.082ZM49.0435 159.077C49.0847 159.428 49.4652 159.876 49.6605 160.491C49.7663 160.701 49.8704 160.911 49.9758 161.13C49.9761 161.13 49.9763 161.131 49.9766 161.131C50.0109 161.122 50.0453 161.112 50.0796 161.103C49.7403 160.4 49.3923 159.738 49.0435 159.077ZM32.6589 109.156C32.6876 109.307 32.7164 109.457 32.7454 109.608C32.8427 109.861 32.9406 110.116 33.0387 110.371C33.0085 110.226 32.9783 110.081 32.9482 109.937C32.8512 109.676 32.7548 109.416 32.6589 109.156ZM50.8572 162.869C50.7941 162.691 50.7329 162.541 50.6806 162.426C50.5267 162.093 50.456 162.044 50.6034 162.457C50.6366 162.553 50.6815 162.675 50.7389 162.827C50.8975 163.247 51.1445 163.697 50.8572 162.869ZM21.0568 72.1506C21.1374 72.4124 21.2183 72.6741 21.2994 72.935C21.352 73.0144 21.4053 73.0957 21.4581 73.1755C21.3236 72.8339 21.1902 72.4932 21.0568 72.1506ZM54.5793 180.287C54.5494 180.262 54.5195 180.238 54.4896 180.213C54.4402 179.98 54.393 179.748 54.3477 179.515C54.3831 179.569 54.4184 179.622 54.4539 179.675C54.4943 179.88 54.536 180.084 54.5793 180.287ZM21.6507 73.8911C21.7191 74.0974 21.7883 74.3053 21.8574 74.5113C21.9179 74.6462 21.9774 74.7778 22.0382 74.9127C21.9794 74.7168 21.9213 74.5215 21.8635 74.3262C21.7925 74.1816 21.7214 74.036 21.6507 73.8911ZM52.8745 170.44C52.8467 170.125 52.5148 168.908 52.7121 170.024C52.833 170.734 52.8786 170.487 52.8745 170.44ZM53.1951 172.098C53.047 170.915 52.9366 171.844 53.3335 173.209C53.083 171.808 53.2023 172.167 53.1951 172.098ZM55.2269 182.032C55.2349 182.06 55.203 182.092 55.2664 182.309C55.3964 182.754 55.5591 183.276 55.7176 183.742C55.8445 184.116 55.9587 184.459 56.043 184.71C56.5318 186.112 57.9376 190.386 57.979 190.916C57.9884 191.027 57.8463 190.809 57.8559 190.852C57.8846 190.98 58.1384 191.684 58.0475 191.568C57.8313 190.866 57.6149 190.163 57.3962 189.46C57.4853 189.622 57.5742 189.783 57.663 189.945C57.0989 188.198 57.2803 188.777 57.0454 188.297C56.9814 187.991 56.9168 187.684 56.8513 187.378C56.6144 186.74 56.3739 186.103 56.1283 185.467C56.1994 185.606 56.2703 185.746 56.3409 185.885C56.0582 184.897 56.1206 185.177 55.8864 184.663C55.9081 184.654 55.9298 184.646 55.9516 184.637C55.7853 184.229 55.6915 183.961 55.6332 183.772C55.564 183.546 55.5514 183.439 55.5151 183.33C55.3891 182.932 54.932 182.501 54.7932 180.868C54.5003 180.24 54.7686 180.191 54.5462 179.832C54.4463 178.672 54.8481 180.83 55.1412 181.816C55.1413 181.817 55.1415 181.817 55.1416 181.818C55.1626 181.893 55.1522 181.767 55.2269 182.032ZM53.853 176.24C54.0836 176.932 53.6574 174.121 53.6288 175.078C53.6446 175.218 53.6603 175.358 53.6762 175.498C53.7349 175.746 53.7938 175.995 53.8533 176.242C53.8532 176.241 53.8531 176.241 53.853 176.24ZM45.0108 150.703C43.9557 148.334 44.4591 149.715 44.8683 150.503C44.9489 150.656 45.0056 150.74 45.0108 150.703ZM29.9816 98.934C29.9569 98.9005 29.9322 98.8671 29.9075 98.8336C30.1688 99.6912 30.5719 101.373 30.6599 101.325C30.4384 100.528 30.2126 99.7302 29.9816 98.934ZM31.8881 105.711C31.8428 105.529 31.6541 104.782 31.6434 104.882C31.7052 105.211 31.7684 105.539 31.8331 105.867C31.8909 106.013 31.9481 106.156 32.0065 106.302C31.9524 106.092 31.9001 105.76 31.8881 105.711Z" fill="#49606B"/>
</svg>
