<svg width="290" height="12" viewBox="0 0 290 12" fill="none" xmlns="http://www.w3.org/2000/svg">
<path id="Vector 7" d="M6.46476 7.73048C12.4972 7.23379 16.6402 7.45503 22.2543 7.29058C23.0493 7.26654 23.858 7.24003 24.6808 7.21077C32.3 6.85862 41.374 6.11197 49.9755 5.89856C54.704 5.74849 59.3034 5.4635 63.5088 5.16627C68.1036 4.85084 72.7148 4.42358 77.4197 4.15908C82.4935 3.91349 87.5042 3.96218 92.4457 3.99817C92.9344 4.00251 93.2304 4.04314 93.4489 4.04532C95.5389 4.06544 99.0385 4.06762 101.105 4.09466C104.251 4.13587 109.084 4.18484 113.021 4.22231C114.479 4.23769 115.803 4.17781 116.859 4.09801C118.484 3.98089 120.147 3.72374 120.803 3.70823C121.403 3.61441 121.719 3.47466 121.875 3.44317C121.877 3.44294 121.879 3.4427 121.881 3.44247C122.383 3.34123 123.69 3.16662 123.98 3.11376C124.023 3.10593 123.746 3.09223 124.452 2.99001C124.515 2.98119 124.462 3.02976 125.058 2.93257C125.208 2.90134 127.213 2.54133 127.801 2.48312C127.998 2.45968 128.216 2.4358 128.463 2.41147C130.6 2.1935 134.462 1.95449 136.492 1.83376C136.839 1.81243 137.033 1.77687 137.399 1.75473C137.587 1.74336 137.871 1.75262 137.929 1.74913C138.182 1.73316 139.285 1.5543 138.9 1.8072C140.057 1.72871 139.712 1.67173 139.735 1.62059C140.992 1.54589 141.602 1.62511 141.925 1.49334C144.295 1.38049 146.664 1.28141 149.032 1.18963C152.747 1.03684 156.57 0.661704 160.389 0.471104C160.39 0.452231 160.391 0.433358 160.391 0.414485C162.223 0.388521 162.843 0.235904 163.891 0.298979C164.538 0.247357 165.171 0.198503 165.821 0.151046C166.112 0.14187 166.405 0.132988 166.705 0.124226C176.816 -0.10442 186.841 0.0351534 196.829 0.126303C202.225 0.15337 207.592 0.443837 212.89 0.512095C213.611 0.523182 214.309 0.533772 215.027 0.544588C215.718 0.554923 215.875 0.597347 217.016 0.614114C218.257 0.632294 220.026 0.610191 221.669 0.632171C223.112 0.651537 225.237 0.715946 226.852 0.741461C227.214 0.747136 227.483 0.725057 227.523 0.725682C227.764 0.729592 227.776 0.769842 228.008 0.773785C228.282 0.778364 228.626 0.752801 228.949 0.758528C230.148 0.779574 231.469 0.78536 231.623 0.787954C232.351 0.800666 232.52 0.842017 232.58 0.843188C233.4 0.858176 233.091 0.81894 233.293 0.823527C234.36 0.8479 235.093 0.945454 236.549 0.881025C236.51 0.913266 236.47 0.945508 236.431 0.977749C237.536 1.01195 236.808 0.914426 237.034 0.90189C237.126 0.896681 239.524 0.945039 239.696 0.950659C240.352 0.968066 240.356 1.01208 240.413 1.01368C240.552 1.01733 242.165 1.0002 243 1.06283C243.982 1.13657 242.825 1.19139 243.068 1.21517C243.112 1.21848 244.133 1.24162 244.281 1.27617C244.428 1.31097 243.543 1.27932 243.547 1.29275C243.57 1.29969 245.035 1.41747 244.759 1.44899C244.526 1.47545 242.52 1.36028 242.09 1.37243C242.022 1.37404 242.148 1.42836 242.088 1.42881C241.844 1.4236 237.232 1.34574 237.03 1.33741C237.273 1.31757 237.511 1.29775 237.746 1.27795C237.435 1.27087 237.116 1.26382 236.791 1.2568C237.259 1.24479 237.686 1.23241 238.155 1.221C237.488 1.01775 235.444 1.18438 235.371 1.27964C235.331 1.32344 236.568 1.45448 235.417 1.50537C235.59 1.51908 235.763 1.53282 235.942 1.54668C236.311 1.53303 236.652 1.51911 237.026 1.50581C236.778 1.49042 236.547 1.47533 236.306 1.46017C236.395 1.44806 236.483 1.43595 236.57 1.42384C237.248 1.41203 237.924 1.40069 238.596 1.39013C238.936 1.40551 238.873 1.4439 239.111 1.45551C242.072 1.60538 240.151 1.44617 242.093 1.50609C242.38 1.53413 242.651 1.56221 242.931 1.59111C242.842 1.50199 243.693 1.57583 244.757 1.58359C244.618 1.60583 244.507 1.62965 244.377 1.65293C244.968 1.67407 245.719 1.70823 246.546 1.82271L246.441 1.81395C247.632 1.87415 248.623 1.93729 248.112 1.81845C248.459 1.84576 248.805 1.87395 249.152 1.90286C249.447 1.89054 249.739 1.87854 250.034 1.86705C250.439 1.88926 250.842 1.91201 251.245 1.93505C251.246 1.94896 251.248 1.96287 251.249 1.97677C250.928 1.96089 250.604 1.94499 250.283 1.92956C250.522 1.98333 250.762 2.03728 251.002 2.09138C251.239 2.09613 251.478 2.10103 251.715 2.10596C250.721 2.0163 252.037 2.01691 252.358 1.97745C253.199 1.99929 253.731 2.0982 254.012 2.11543C254.147 2.124 255.708 2.07281 255.089 2.18279C255.893 2.20502 256.695 2.22621 257.496 2.24629C257.807 2.27146 258.12 2.29654 258.434 2.32153C257.749 2.35587 259.717 2.52348 258.264 2.4849C257.179 2.45564 256.918 2.38195 256.401 2.35796C255.937 2.33617 255.689 2.36537 255.186 2.34273C252.024 2.20244 249.409 2.03883 246.437 1.93168L246.53 1.93941C246.293 1.90626 246.049 1.88538 245.826 1.86796C245.168 1.81858 244.583 1.81755 244.146 1.79812C243.663 1.77787 244.274 1.74723 243.653 1.73894C243.008 1.73184 242.847 1.77057 242.687 1.76695C242.588 1.76476 242.232 1.71778 241.932 1.71083C240.656 1.68031 238.783 1.68648 238.599 1.68342C238.389 1.67808 234.795 1.59323 234.61 1.58552C234.517 1.58094 234.714 1.44372 233.919 1.58246C233.671 1.58206 233.414 1.58158 233.172 1.58132C233.213 1.55391 233.253 1.5265 233.293 1.49909C231.823 1.58658 232.336 1.53375 230.91 1.52468C227.522 1.5038 222.522 1.42052 218.813 1.37851C217.982 1.36924 217.671 1.3983 216.689 1.38655C215.779 1.37579 213.405 1.23972 213.92 1.38571C213.512 1.35522 213.17 1.339 212.877 1.33137C211.729 1.30083 211.364 1.4034 210.558 1.28264C210.433 1.29848 210.31 1.31428 210.189 1.33004C209.092 1.22201 208.756 1.28289 207.556 1.25355C207.04 1.24039 207.638 1.17552 206.592 1.23455C206.393 1.2205 206.194 1.20642 205.994 1.19231C206.042 1.17328 206.089 1.15426 206.136 1.13524C204.975 1.1112 204.899 1.09818 205.03 1.18002C204.47 1.14656 203.909 1.11384 203.348 1.08264C203.277 1.10585 203.207 1.12913 203.137 1.15245C203.311 1.17331 208.637 1.38745 212.876 1.41991C215.227 1.44393 217.265 1.45812 217.886 1.45859C219.97 1.54606 224.135 1.52768 225.82 1.56164C226.498 1.57546 226.782 1.63635 227.767 1.65519C228.739 1.67384 229.975 1.63654 230.496 1.641C232.234 1.65269 240.436 1.77671 234.857 1.77187C235.019 1.802 235.18 1.83213 235.339 1.86225C237.56 1.79733 236.754 1.8444 238.598 1.88288C239.378 1.89873 241.225 1.87195 241.118 1.99764C239.68 1.99133 238.139 1.92682 236.89 1.91061C236.764 1.90884 235.291 1.9464 234.517 1.92075C233.839 1.89764 234.301 1.78215 232.809 1.89955C231.692 1.75272 231.047 1.8656 230.757 1.87488C230.253 1.891 230.197 1.82472 229.683 1.81088C229.138 1.79587 228.753 1.83479 228.677 1.83415C227.922 1.82623 223.97 1.78368 223.788 1.75463C223.946 1.74499 224.101 1.7353 224.264 1.7257C223.241 1.69412 223.455 1.76386 223.185 1.76847C222.983 1.76567 222.78 1.76282 222.578 1.75998C222.658 1.74709 222.739 1.73421 222.819 1.72132C221.609 1.70866 222.539 1.76921 220.815 1.74525C219.726 1.72998 218.599 1.66119 218.492 1.66363C218.461 1.66431 218.805 1.70493 218.358 1.70351C217.616 1.70112 216.349 1.68188 216.203 1.63096C215.845 1.63262 215.875 1.68072 215.827 1.6811C215.692 1.68216 214.137 1.66695 212.872 1.65278C212.183 1.64519 211.594 1.63623 211.363 1.63249C209.579 1.60548 207.593 1.53153 205.656 1.46963C205.457 1.46343 205.585 1.43732 205.385 1.43128C205.064 1.42095 203.417 1.41438 203.17 1.41135C202.557 1.39998 200.942 1.34058 200.683 1.34974C200.646 1.35088 201.18 1.40414 200.558 1.40316C199.865 1.40261 200.238 1.35496 200.201 1.35358C198.802 1.30605 197.907 1.33209 196.95 1.3269C196.909 1.32669 196.864 1.32567 196.814 1.32409C196.501 1.31368 196.004 1.27712 195.629 1.28329C195.579 1.28407 195.678 1.32398 195.629 1.32528C194.962 1.33736 194.342 1.25823 194.06 1.25028C193.357 1.23073 193.738 1.28817 193.702 1.28812C193.235 1.28442 192.607 1.25818 191.895 1.25309C188.727 1.23096 186.142 1.21141 182.772 1.19217C182.349 1.18983 181.847 1.15064 181.782 1.15038C181.582 1.15 181.639 1.19399 181.061 1.19132C179.841 1.1857 178.71 1.18674 177.504 1.18759C177.259 1.18777 177.156 1.14729 176.97 1.14681C176.347 1.14457 174.233 1.26193 174.192 1.13051C172.958 1.25657 172.141 1.16408 171.144 1.17889C169.917 1.19747 168.313 1.23317 166.744 1.28958C165.299 1.34133 163.877 1.4014 162.759 1.44703C162.258 1.46749 162.034 1.44484 161.755 1.4572C161.26 1.47457 158.452 1.65959 158.303 1.66768C158.011 1.677 158.174 1.51356 156.699 1.74686C155.83 1.81796 155.926 1.75012 155.747 1.75968C154.344 1.83824 152.994 2.07655 153.239 1.93219C151.614 2.08625 150.567 2.21686 149.898 2.13274C149.906 2.17034 149.572 2.21614 149.076 2.2446C148.824 2.25896 148.532 2.27001 148.221 2.27568C148.602 2.22103 148.809 2.17935 149.072 2.14397C149.458 2.09041 149.961 2.0554 151.322 1.9805C151.358 1.9785 151.292 2.0242 151.328 2.0222C151.654 2.00456 152.331 1.93765 152.887 1.8995C153.442 1.8615 153.137 1.91198 153.359 1.89523C153.562 1.87977 153.554 1.8406 153.848 1.81822C154.805 1.74533 155.653 1.67124 156.2 1.63141C156.543 1.60628 156.93 1.61402 157.2 1.59547C158.23 1.52199 160.424 1.35938 161.738 1.29868C162.013 1.28569 161.902 1.33 162.499 1.30421C162.571 1.30119 162.822 1.24804 163.349 1.21586C163.872 1.18399 164.287 1.18704 164.619 1.16944C164.899 1.15481 164.79 1.12254 165.361 1.09854C165.498 1.09288 166.026 1.07459 166.736 1.05385C168.525 0.997846 171.399 0.973182 171.613 0.975601C172.041 0.978555 172.241 1.02728 172.504 1.01829C172.549 1.01649 172.63 0.96653 172.786 0.961481C175.404 0.871385 181.202 0.940668 184.193 0.961342C188.522 0.985737 192.619 1.01644 196.818 1.05714C198.687 1.07532 200.583 1.10384 202.524 1.15472C202.638 1.14936 202.745 1.14387 202.861 1.1387C202.223 1.11982 201.585 1.10298 200.948 1.08805C200.944 1.06485 200.94 1.04165 200.937 1.01846C200.076 0.995562 200.183 1.05326 200.209 1.08661C199.895 1.06611 199.566 1.04575 199.254 1.02611C199.045 1.08067 197.874 1.0482 196.818 1.0242C196.435 1.01521 196.044 1.00636 195.753 1.00282C195.033 0.993905 194.192 1.01466 193.815 1.00792C193.018 0.9938 193.043 0.944488 192.979 0.942958C192.869 0.940556 191.763 0.972109 190.963 0.962317C189.782 0.948088 189.651 0.870182 188.033 0.920901C185.959 0.863653 183.658 0.86845 181.421 0.867934C181.847 0.798578 179.843 0.859326 178.938 0.858512C175.198 0.855112 170.881 0.85001 166.733 0.963408C164.759 1.02026 162.834 1.09396 161.03 1.18228C160.313 1.21738 159.763 1.20831 159.367 1.23369C159.147 1.24779 159.058 1.30229 158.756 1.31477C158.702 1.31701 158.662 1.27318 158.101 1.30285C156.702 1.37236 153.239 1.71554 152.364 1.68639C151.26 1.76713 150.16 1.83835 149.061 1.88638C145.406 2.04698 141.749 2.22355 138.093 2.4442C137.972 2.4324 137.85 2.42073 137.729 2.40905C136.829 2.55389 133.244 2.72637 131.494 2.87717C130.568 2.95366 129.558 3.04495 128.536 3.14984C126.12 3.39105 123.662 3.88973 121.824 4.20723C121.252 4.30681 120.779 4.3579 120.239 4.44186C120.008 4.47781 119.723 4.55552 119.482 4.58957C117.587 4.86654 115.219 5.0362 113.016 5.00269C112.041 4.99187 111.111 4.98182 110.267 4.97531C103.901 4.92808 97.9004 4.83612 91.4397 4.79675C86.7906 4.77783 82.1297 4.76208 77.4646 5.0034C68.2386 5.61518 59.1415 6.52267 50.0012 6.77214C42.1698 6.97609 34.3211 7.5071 26.5649 8.0118C26.2777 8.02732 26.2904 7.98606 26.0678 7.99755C25.7144 8.01555 25.2469 8.04089 24.718 8.06702C23.2823 8.13832 21.4096 8.23154 20.3177 8.27244C19.1314 8.31763 17.2427 8.32494 16.8356 8.40153C19.3996 8.36692 22.056 8.28334 24.7229 8.18057C26.4431 8.11465 28.169 8.01097 29.8924 7.90385C30.204 7.88449 30.2447 7.92018 30.2833 7.91825C30.9961 7.88261 30.5423 7.86083 31.5721 7.78719C31.9147 7.76109 35.1135 7.66932 34.7222 7.57414C35.4937 7.56326 40.868 7.28503 41.9152 7.23105C42.2318 7.21153 42.006 7.18568 42.0685 7.18097C42.336 7.16073 42.4609 7.20508 42.7057 7.1955C43.3538 7.16897 45.0002 7.06174 45.3165 7.05059C46.0376 7.02214 48.1962 6.98761 49.1492 6.94978C49.6498 6.92932 49.8129 6.90513 50.0045 6.88295C50.1426 6.86673 50.2971 6.85168 50.615 6.83955C51.2063 6.81626 50.5627 6.88322 51.8857 6.84936C52.5418 6.83436 54.833 6.70287 55.3886 6.67306C55.9463 6.64553 56.5681 6.64475 57.3338 6.5999C58.4397 6.53727 60.8464 6.36993 61.9699 6.28175C62.0366 6.27666 62.1968 6.2251 62.3637 6.21446C62.7076 6.19244 62.6078 6.24954 62.8664 6.23661C63.1255 6.2282 67.6149 5.8873 68.3735 5.82507C68.9044 5.78386 69.2579 5.7261 69.5522 5.70321C69.7803 5.68553 69.807 5.72529 70.0383 5.70753C70.114 5.70159 70.7189 5.61749 71.3348 5.57005C71.914 5.52456 74.1162 5.39085 74.3702 5.37424C74.535 5.36246 74.354 5.34558 74.8454 5.31115C75.291 5.28023 75.5885 5.29871 75.8458 5.28221C76.3558 5.24949 76.9264 5.18969 77.4726 5.15391C77.5583 5.14828 77.6441 5.1432 77.7298 5.13884C79.5478 5.05246 79.4531 5.11463 79.5636 5.10987C79.8706 5.1035 79.983 5.05642 80.0833 5.05232C80.5063 5.0345 81.5273 5.00074 81.8988 4.99211C82.3707 4.98047 82.555 5.0187 83.0552 5.01104C83.4186 5.0054 84.1596 4.95493 85.0004 4.9465C86.8855 4.9265 89.1283 4.922 90.9833 4.93343C91.5308 4.93673 91.6179 4.97528 91.7872 4.97727C92.6704 4.98796 93.1755 4.94967 93.4232 4.9521C95.2276 4.96928 98.4445 5.06883 100.12 5.09233C100.799 5.1017 103.786 5.10292 105.469 5.12486C105.663 5.12735 105.481 5.15527 105.697 5.15275C106.206 5.14658 106.16 5.0856 106.42 5.08993C106.545 5.0922 106.833 5.12907 107.199 5.13588C109.097 5.17116 110.391 5.15481 111.26 5.1632C111.846 5.16884 112.423 5.17416 113.015 5.17927C118.24 5.34455 123.335 3.89686 128.557 3.36672C130.946 3.13776 133.299 2.96835 135.588 2.82188C136.453 2.76682 137.523 2.6652 138.831 2.62702C138.872 2.64354 138.913 2.66007 138.954 2.67661C138.999 2.65562 139.043 2.63464 139.088 2.61366C140.567 2.52251 141.123 2.47015 142.635 2.41916C142.766 2.41472 143.165 2.4813 143.407 2.36312C144.906 2.36987 144.081 2.33048 145.191 2.27255C146.301 2.21524 147.381 2.19256 148.457 2.15319C149.049 2.16643 146.577 2.35863 146.416 2.36624C146.157 2.37723 145.883 2.33626 145.633 2.34459C144.891 2.36922 144.177 2.44457 144.008 2.40514C143.052 2.50017 144.244 2.41907 144.126 2.46976C143.485 2.48098 142.846 2.49298 142.205 2.50606C141.887 2.67215 138.342 2.66169 138.594 2.76695C138.311 2.75957 138.03 2.75231 137.747 2.7455C136.524 2.96457 135.792 2.90504 134.145 2.9739C134.266 2.98429 134.385 2.99496 134.505 3.00557C134.474 3.01461 133.022 3.1472 133.536 3.03085C132.056 3.24398 132.104 3.06518 130.783 3.3001C129.991 3.38436 130.461 3.26669 129.044 3.39819C128.889 3.41293 128.728 3.42969 128.565 3.44788C127.819 3.52988 126.981 3.66091 126.216 3.77634C126 3.80873 125.899 3.78121 125.708 3.81082C125.516 3.84084 125.428 3.8968 125.197 3.9354C124.719 4.01525 124.096 4.09369 123.799 4.1487C123.533 4.19771 123.159 4.30163 122.521 4.42028C120.295 4.82779 120.96 4.6518 120.606 4.69398C120.225 4.7345 119.966 4.84733 119.211 4.94225C119.135 4.95151 119.325 4.88277 119.08 4.91714C118.881 4.94389 118.788 5.00646 118.132 5.08997C117.875 5.17019 113.794 5.42414 113.17 5.37044C113.121 5.37034 113.069 5.37005 113.014 5.36955C111.979 5.36045 110.008 5.30956 109.052 5.3014C108.67 5.29814 108.255 5.33208 107.846 5.32811C106.491 5.31513 104.32 5.29032 102.601 5.27036C101.053 5.25241 98.3334 5.14051 97.486 5.20712C95.3105 5.19508 94.7824 5.12726 94.6194 5.12481C94.1821 5.11865 93.9671 5.15922 93.4117 5.15684C88.6334 5.1449 82.8478 5.07805 77.4828 5.34502C74.7279 5.49481 72.0864 5.71727 69.7701 5.89763C63.1945 6.42465 56.6139 6.89972 50.0107 7.09651C41.5666 7.29708 33.1219 7.96834 24.7337 8.43C23.8297 8.46847 22.9269 8.50532 22.0236 8.54092C21.9813 8.56145 21.939 8.58197 21.8966 8.6025C22.7932 8.57209 23.7662 8.54207 24.7372 8.51011C25.8067 8.47507 26.8738 8.42664 27.8461 8.37037C30.3226 8.2262 33.9935 7.87811 35.8259 7.89802C35.0932 7.95449 33.878 7.98558 33.9086 8.04993C35.224 7.96697 36.5514 7.88864 37.8678 7.81847C37.8268 7.79024 37.786 7.76201 37.7452 7.73378C39.121 7.64601 40.5357 7.57973 41.9214 7.51132C42.165 7.49937 41.991 7.47964 42.1985 7.47001C42.4304 7.45937 42.2745 7.49468 42.3179 7.49293C42.9074 7.46662 43.0944 7.43029 43.162 7.42771C43.346 7.42096 43.2009 7.45415 43.7373 7.43914C44.7274 7.4119 45.4431 7.31309 45.2129 7.44206C45.5271 7.42992 45.8467 7.4179 46.1719 7.40599C46.2552 7.3702 46.3379 7.33446 46.4175 7.29885C48.1684 7.35306 49.055 7.15928 50.0143 7.21715C50.1382 7.22487 50.2627 7.23687 50.3896 7.25429C50.7475 7.21513 51.1028 7.17528 51.4613 7.13458C51.6645 7.16017 51.8673 7.18553 52.0698 7.21068C52.108 7.18115 52.1461 7.15162 52.1846 7.12207C54.1167 7.06992 56.1676 6.93514 58.0121 6.83204C59.2978 6.75948 59.6044 6.75115 60.7431 6.67593C63.2734 6.50286 60.7627 6.72783 62.8706 6.64379C62.7591 6.61707 62.6474 6.59033 62.5354 6.56357C62.8829 6.5269 63.2287 6.48996 63.5773 6.45245C63.8219 6.46316 64.0635 6.47391 64.3103 6.48411C65.3729 6.26075 66.0794 6.32458 66.2268 6.31351C66.3449 6.30418 66.7444 6.18658 68.0228 6.16169C67.4853 6.08336 68.9948 6.08517 69.1125 6.07646C69.2283 6.06795 70.6819 5.92646 71.2774 5.8809C71.7412 5.84532 72.7392 5.7933 73.4345 5.73968C74.0414 5.6929 73.9844 5.65669 74.0273 5.65301C74.7773 5.59462 74.3118 5.66024 74.8576 5.62258C75.4036 5.58524 75.8226 5.52281 75.9444 5.51792C76.004 5.51567 75.8076 5.56649 76.0801 5.55236C76.4404 5.53396 76.9671 5.49525 77.4889 5.46057C78.0086 5.42591 78.5459 5.39405 78.9678 5.37788C79.2585 5.36657 79.6435 5.38487 79.9687 5.37545C80.4749 5.36073 80.7117 5.3119 81.0051 5.30552C81.1091 5.30342 81.7638 5.35252 82.5748 5.32845C82.7291 5.32375 83.1814 5.17634 83.7875 5.36678C83.834 5.33838 83.8806 5.30999 83.9273 5.28161C86.6462 5.18521 87.4106 5.41862 88.6165 5.21745C90.5911 5.24421 89.2351 5.31938 89.4515 5.33176C89.5936 5.33964 90.2361 5.3205 90.3065 5.3221C90.4316 5.32502 90.41 5.35001 90.5477 5.35049C93.069 5.35929 91.9465 5.30647 92.7456 5.28151C94.6436 5.22445 96.1217 5.39565 92.8231 5.32162C92.823 5.33561 92.8229 5.34961 92.8228 5.36361C93.6333 5.35562 95.6965 5.38052 95.0067 5.44536C94.466 5.494 89.5734 5.42588 92.3438 5.52212C92.9733 5.54424 93.2956 5.49389 94.3878 5.60158C95.1022 5.61311 95.2155 5.48646 96.1854 5.54687C96.025 5.50082 95.8654 5.45479 95.7064 5.40879C97.039 5.36315 98.6767 5.45804 99.6964 5.44383C100.047 5.43901 101.295 5.23998 101.002 5.44907C101.59 5.44215 104.334 5.50994 104.843 5.49583C104.964 5.49236 105.131 5.38146 106.905 5.43781C107.029 5.45314 107.153 5.46846 107.275 5.48376C105.648 5.50968 108.516 5.57824 107.736 5.67819C107.476 5.62772 106.181 5.58608 105.978 5.55979C105.625 5.51462 106.68 5.47122 105.335 5.47266C104.485 5.64347 106.908 5.58479 106.536 5.75121C108.3 5.68847 108.483 5.76541 108.877 5.77207C110.498 5.79808 111.532 5.79055 113.011 5.81543C113.098 5.81687 113.185 5.81819 113.274 5.81937C113.376 5.81021 113.256 5.80066 113.011 5.7894C112.315 5.75727 110.652 5.72006 110.385 5.72894C111.715 5.61549 109.424 5.59214 108.463 5.65688C108.382 5.61873 108.3 5.58057 108.219 5.54241C109.474 5.5739 110.702 5.59433 111.947 5.57254C112.027 5.58711 112.108 5.60168 112.189 5.61625C111.909 5.63536 111.635 5.65445 111.353 5.67342C112.351 5.71401 111.803 5.60968 113.011 5.69683C113.055 5.69996 113.101 5.70328 113.149 5.70678C113.192 5.66478 113.235 5.62273 113.278 5.58061C114.588 5.59612 115.907 5.55406 117.216 5.44998C117.89 5.32481 120.4 5.00924 119.957 5.17771C120.97 5.03187 119.712 5.1659 120.656 4.99237C121.067 4.91649 121.871 4.77598 122.075 4.76985C122.007 4.88865 120.803 5.10611 120.448 5.23095C120.676 5.24114 126.276 4.16671 125.798 4.39388C126.25 4.34018 126.033 4.30585 126.845 4.17571C127.376 4.09246 127.979 4.01754 128.614 3.95787C130.698 3.76035 133.118 3.62742 134.528 3.41288C132.352 3.47671 131.715 3.61976 130.054 3.76619C129.807 3.78846 129.27 3.83725 128.609 3.90194C126.406 4.09535 122.894 4.75483 123.976 4.46973C123.743 4.52464 123.511 4.57992 123.278 4.63531C123.035 4.64508 122.792 4.65488 122.549 4.6644C123.217 4.54197 123.885 4.41704 124.555 4.29801C124.721 4.30294 124.887 4.3082 125.052 4.314C125.122 4.27873 125.193 4.24352 125.263 4.20838C125.545 4.15787 125.828 4.10872 126.112 4.06154C126.036 4.1013 125.96 4.14116 125.885 4.18113C126.324 4.11851 126.76 4.061 127.201 4.00893C127.079 3.98687 126.954 3.9656 126.831 3.94449C128.118 3.76803 128.335 3.76676 128.595 3.76113C128.749 3.76018 128.925 3.76287 129.36 3.74929C130.221 3.67895 128.763 3.73506 130.576 3.55813C132.684 3.36537 131.309 3.58388 134.041 3.36143C134.079 3.34002 134.117 3.31861 134.155 3.2972C134.756 3.2744 135.362 3.25318 135.963 3.23391C135.882 3.21573 135.801 3.19757 135.72 3.17942C136.963 3.10793 138.67 2.96618 139.087 3.03501C137.826 3.06159 137.848 3.22134 138.177 3.23142C138.735 3.23858 145.61 2.86038 149.095 2.71392C149.837 2.68041 150.424 2.64454 150.763 2.62402C153.231 2.46925 155.101 2.35599 157.35 2.12543C155.817 2.16178 150.448 2.63269 149.429 2.60488C149.354 2.60493 149.347 2.52475 149.089 2.56006C148.997 2.57247 148.875 2.59927 148.707 2.64912C146.612 2.70788 144.112 2.86367 141.496 2.99161C141.574 2.94554 141.651 2.89949 141.729 2.85345C143.342 2.86168 144.82 2.59836 144.618 2.77106C144.939 2.75631 145.258 2.74188 145.579 2.72753C145.577 2.6994 145.576 2.67128 145.575 2.64315C146.057 2.6216 146.539 2.60045 147.022 2.57968C147.023 2.60781 147.024 2.63594 147.026 2.66407C147.425 2.64689 147.825 2.62994 148.224 2.61324C148.265 2.58345 148.305 2.55366 148.346 2.52387C148.533 2.52519 148.791 2.51838 149.086 2.50697C150.67 2.45198 153.319 2.16501 151.821 2.41221C152.381 2.37473 152.942 2.33433 153.502 2.29304C153.499 2.27264 153.495 2.25224 153.492 2.23184C153.734 2.21125 153.972 2.19076 154.215 2.16987C154.136 2.19442 154.058 2.21894 153.98 2.24342C155.082 2.12762 156.138 2.14786 156.858 2.03304C156.378 2.05255 155.899 2.07315 155.419 2.09441C156.34 2.05196 158.028 1.8811 158.18 1.87214C158.64 1.84185 158.886 1.86793 159.389 1.8394C159.839 1.81406 159.775 1.78608 159.86 1.78217C162.299 1.67723 161.382 1.90388 162.508 1.64158C162.63 1.66374 162.758 1.68566 162.877 1.70816C163.035 1.6774 163.195 1.64669 163.357 1.61604C164.073 1.58609 164.803 1.55851 165.518 1.53412C165.275 1.50812 165.039 1.48218 164.793 1.45692C165.872 1.39882 166.378 1.45311 166.484 1.45084C166.591 1.44867 166.678 1.44104 166.749 1.432C166.871 1.41601 166.947 1.39547 167.005 1.39357C171.419 1.28396 168.74 1.39045 170.943 1.51504C171.723 1.43915 170.932 1.38505 170.821 1.32079C171.859 1.33688 172.193 1.31481 173.29 1.3084C173.579 1.30687 173.885 1.34019 174.065 1.3394C174.222 1.33867 174.713 1.29758 175.088 1.29554C175.718 1.29193 176.548 1.31144 177.407 1.30956C178.119 1.30723 180.305 1.28116 181.827 1.28701C182.477 1.28941 182.326 1.3206 182.494 1.32133C182.564 1.32161 183.071 1.28586 183.487 1.28786C186.887 1.30429 190.373 1.36105 193.788 1.39995C194.791 1.4114 195.8 1.41833 196.813 1.42511C198.238 1.43473 199.645 1.4486 201.054 1.48317C201.562 1.4959 201.295 1.51745 201.519 1.52387C201.595 1.5262 201.69 1.47909 202.482 1.5204C202.768 1.53548 202.439 1.56019 202.719 1.56981C202.856 1.57474 202.914 1.53301 203.718 1.54844C205.177 1.57767 205.956 1.66407 206.086 1.66652C206.331 1.67187 206.26 1.63413 206.585 1.64423C208.172 1.69381 209.495 1.72737 210.911 1.75528C211.163 1.76032 211.955 1.7758 212.87 1.78898C214.399 1.8114 216.234 1.837 216.391 1.84319C216.955 1.86547 216.43 1.93152 217.151 1.93938C217.352 1.92363 217.553 1.90785 217.753 1.89205C217.436 1.8734 217.117 1.85468 216.796 1.83588C217.674 1.87226 218.681 1.85281 219.327 1.8629C219.443 1.86482 220.564 1.91337 221.122 1.91704C220.881 1.9277 220.644 1.93838 220.403 1.949C220.488 1.96193 220.572 1.97486 220.657 1.98779C221.788 1.98497 222.992 2.00093 224.144 2.01791C224.567 2.02407 224.424 2.05096 224.848 2.05723C227.316 2.09373 226.694 1.9668 229.066 2.21923C228.261 2.18932 225.332 2.18215 224.914 2.16938C224.618 2.16052 223.47 1.957 223.888 2.15631C221.519 2.1253 223.578 2.04474 221.365 2.0394C221.41 2.06366 221.454 2.08793 221.498 2.11219C220.717 2.11688 220.16 2.12135 219.684 2.0731C219.527 2.18602 216.901 2.08253 215.463 2.06856C214.623 2.06047 213.759 2.05439 212.866 2.04756C211.536 2.03762 210.201 2.01972 208.966 1.98691C208.256 1.96805 207.857 1.9095 207.768 1.90684C207.637 1.90293 207.27 1.9302 207.012 1.92157C206.042 1.88857 203.091 1.71902 202.355 1.81214C205.86 1.91096 209.355 2.06854 212.865 2.11345C215.134 2.14931 217.405 2.1823 219.676 2.21314C218.959 2.1504 224.785 2.22115 225.091 2.22675C225.363 2.23253 225.134 2.26747 225.215 2.27076C225.815 2.29439 226.345 2.24609 226.533 2.24839C226.68 2.25018 226.972 2.27945 227.5 2.28528C227.596 2.28636 227.623 2.25951 227.726 2.26067C228.397 2.26879 229.086 2.27747 229.761 2.28546C229.803 2.28624 229.977 2.32805 230.151 2.33021C230.324 2.33231 230.495 2.29471 230.539 2.29511C231.077 2.3019 232.019 2.33918 232.542 2.34597C232.724 2.34821 232.599 2.31757 232.801 2.32037C233.421 2.32883 233.21 2.38306 233.986 2.37828C234.244 2.37667 234.223 2.33283 234.717 2.34502C235.071 2.35375 235.031 2.43081 235.086 2.43436C235.159 2.43865 236.375 2.39387 236.757 2.45024C235.899 2.57202 237.707 2.47093 237.616 2.41329C238.098 2.4348 238.562 2.45634 239.05 2.47877C239.215 2.46721 239.377 2.45566 239.537 2.44414C241.469 2.54483 242.645 2.52507 244.534 2.61723C244.635 2.6158 246.223 2.74098 246.143 2.76717C245.191 2.71759 244.233 2.69549 243.628 2.60942C242.62 2.70113 242.6 2.60194 240.979 2.58324C240.428 2.57758 240.392 2.61033 240.331 2.60951C238.212 2.58475 234.826 2.5552 233.395 2.44036C232.992 2.46146 234.44 2.49025 233.878 2.5024C233.575 2.50813 226.229 2.45068 228.581 2.36743C228.332 2.36752 228.095 2.36777 227.852 2.36792C227.61 2.4704 226.396 2.43154 226.537 2.32826C226.423 2.34836 226.308 2.36844 226.193 2.38852C225.968 2.40394 225.69 2.41027 225.32 2.41148C223.887 2.41808 215.321 2.26491 214.868 2.27036C214.857 2.2951 214.846 2.31984 214.835 2.34458C218.614 2.42978 222.289 2.41609 226.41 2.53766C226.291 2.51285 226.171 2.48803 226.051 2.4632C227.695 2.51608 229.338 2.56838 230.982 2.62105C229.242 2.6422 226.475 2.64466 224.646 2.58696C224.32 2.57668 224.559 2.5471 224.484 2.54222C224.287 2.5295 224.076 2.58341 223.379 2.58007C222.671 2.57668 220.913 2.51361 220.754 2.51255C220.45 2.51085 219.594 2.56401 219.074 2.55601C218.38 2.54531 218.845 2.51171 218.706 2.50894C218.127 2.49698 217.607 2.50947 217.157 2.50006C216.48 2.48605 215.094 2.39516 214.615 2.49116C215.099 2.50323 215.58 2.51512 216.056 2.52683C214.916 2.52636 213.884 2.49424 212.859 2.46322C211.553 2.42352 210.287 2.38074 208.846 2.39595C208.26 2.50433 210.379 2.54804 208.586 2.54995C208.911 2.55792 209.235 2.56532 209.564 2.57227C209.642 2.54814 209.716 2.52386 209.793 2.49964C210.354 2.5328 210.918 2.56431 211.475 2.59413C211.312 2.56753 211.162 2.54106 210.997 2.51414C211.628 2.52214 212.259 2.52741 212.858 2.53498C214.139 2.55119 215.217 2.58333 215.69 2.67598C215.731 2.64624 215.772 2.61649 215.814 2.58674C217.661 2.65122 220.426 2.5598 219.91 2.72171C219.998 2.71394 220.085 2.70617 220.173 2.6984C221.286 2.74781 220.805 2.67151 221.229 2.66923C221.355 2.66879 223.516 2.73269 222.553 2.77045C224.675 2.83586 224.016 2.66945 224.604 2.66993C225.951 2.76502 228.396 2.67719 227.367 2.78833C227.57 2.79543 227.771 2.8025 227.971 2.80956C228.631 2.7203 229.284 2.83817 230.004 2.88364C230.249 2.88879 230.492 2.89393 230.732 2.89904C230.892 2.86826 231.057 2.83755 231.222 2.80684C233.51 2.99058 232.783 2.55588 233.831 2.92688C233.668 2.9462 233.499 2.96546 233.338 2.98484C232.958 2.99023 232.57 2.99558 232.179 3.00093C233.738 3.02961 235.289 3.05869 236.851 3.09056C238.834 3.22054 239.954 3.127 242.141 3.25697C242.353 3.25259 242.558 3.24831 242.756 3.24413C242.555 3.32014 241.755 3.28583 243.234 3.36319C243.361 3.42382 242.361 3.40289 241.904 3.34899C241.793 3.33565 242.722 3.31369 241.681 3.2877C240.958 3.27128 242.26 3.3658 240.12 3.29803C240.199 3.3135 240.277 3.32897 240.355 3.34446C240.127 3.33969 239.893 3.33499 239.654 3.33034C239.452 3.29436 239.249 3.25847 239.04 3.22258C238.501 3.26047 238.199 3.32078 236.992 3.28915C237.328 3.27378 236.865 3.20184 236.275 3.19472C236.275 3.21815 236.275 3.24159 236.274 3.26502C234.813 3.26004 235.317 3.19816 234.109 3.23611C233.989 3.21593 233.868 3.19574 233.746 3.17556C233.086 3.24378 230.655 3.26637 231.097 3.15666C230.419 3.26028 228.99 3.1926 228.452 3.09663C228.41 3.1194 228.369 3.14217 228.327 3.16494C228.048 3.16629 227.766 3.16761 227.481 3.16888C227.323 3.15288 227.164 3.13687 227.004 3.12085C226.802 3.13248 226.605 3.14416 226.405 3.15579C226.284 3.13096 226.163 3.10612 226.042 3.08127C225.716 3.10528 225.392 3.12928 225.072 3.15331C224.875 3.13224 224.678 3.11115 224.48 3.09004C224.454 3.13851 222.493 3.12458 221.956 3.0855C221.793 3.09755 221.63 3.10958 221.466 3.12159C221.386 3.09735 221.306 3.0731 221.226 3.04885C221.103 3.06579 220.982 3.08274 220.862 3.0997C220.585 3.07748 220.307 3.0552 220.027 3.03287C218.878 3.13104 218.853 3.03079 218.591 3.02788C218.101 3.0225 216.468 3.07036 216.186 3.06247C215.915 3.0548 215.783 3.01205 215.563 3.00493C212.329 2.89934 213.135 2.99042 212.85 3.01709C212.813 3.02044 212.757 3.02271 212.673 3.02331C212.279 3.02629 211.994 2.98309 211.65 2.98069C211.046 2.9806 208.028 2.94925 207.855 2.93508C207.604 2.91975 208.203 2.75987 207.381 2.77904C207.348 2.87495 205.599 2.71637 206.414 2.87942C205.692 2.84232 204.971 2.80465 204.251 2.76899C204.329 2.88603 203.44 2.78211 202.477 2.76165C201.099 2.72773 198.022 2.74976 198.13 2.6359C197.807 2.65786 197.469 2.67995 197.145 2.70258C197.03 2.69918 196.914 2.69599 196.797 2.693C194.662 2.63799 192.568 2.6483 190.443 2.6285C183.807 2.56991 176.599 2.49486 170.013 2.58063C169.693 2.58521 169.738 2.54614 169.51 2.54966C168.929 2.55893 167.888 2.5862 166.789 2.62784C165.625 2.67151 164.386 2.72584 163.528 2.75991C162.984 2.78148 162.729 2.75653 162.555 2.76313C161.979 2.78506 162.117 2.82781 161.85 2.83986C161.431 2.85639 159.207 2.93651 158.445 2.98395C158.065 3.00614 157.62 3.07511 157.178 3.09368C157.139 3.09537 157.207 3.05023 157.175 3.05179C156.367 3.10332 156.856 3.10409 156.581 3.12165C154.632 3.24506 152.547 3.4206 150.408 3.53111C150.047 3.5497 149.553 3.56042 149.13 3.56818C148.934 3.5718 148.755 3.57577 148.611 3.58088C148.438 3.58711 148.749 3.60472 148.153 3.6271C147.948 3.6348 147.877 3.59799 147.647 3.60519C146.654 3.63664 146.326 3.77893 145.469 3.71436C143.822 3.79369 140.959 3.96705 139.459 4.05169C139.102 4.07139 138.931 4.05743 138.591 4.07707C138.351 4.09092 137.93 4.15156 137.557 4.17413C137.182 4.19678 136.59 4.19755 135.87 4.24475C135.112 4.294 134.174 4.37913 134.002 4.39126C133.796 4.40566 133.697 4.3688 133.491 4.38418C132.868 4.42897 131.204 4.60052 130.406 4.67604C129.548 4.75529 129.027 4.78445 128.737 4.81301C128.724 4.81428 128.711 4.81564 128.698 4.81708C128.437 4.84609 128.155 4.91077 128.037 4.92459C127.846 4.94699 127.799 4.90896 127.555 4.93928C127.162 4.98902 126.757 5.07043 126.166 5.16046C121.887 5.86797 117.446 6.79029 113.005 6.6882C106.577 6.64049 100.214 6.53982 93.8828 6.46699C92.7051 6.45424 92.0267 6.47869 90.2852 6.45699C89.5835 6.44863 89.8763 6.40516 89.3257 6.41196C89.0809 6.41515 89.1422 6.45029 88.8351 6.4514C87.4635 6.45558 85.8702 6.4293 85.2717 6.43471C85.039 6.43656 84.767 6.47826 84.2856 6.48376C82.19 6.50882 79.8699 6.55049 77.5534 6.67154C75.8983 6.75973 74.2128 6.88754 72.6067 7.01369C70.5564 7.17563 67.4623 7.44551 65.1045 7.62141C60.1534 7.99582 54.9087 8.30423 50.0504 8.44398C48.5272 8.48865 47.0479 8.53835 45.6305 8.59293C38.6651 8.81976 31.7886 9.44589 24.7928 9.79239C22.8064 9.87548 20.813 9.94954 18.8226 10.0146C20.6059 9.98862 22.6661 9.92925 24.7953 9.84963C27.6952 9.74277 30.7182 9.51013 33.3843 9.33765C38.8277 8.97366 44.3948 8.71706 50.0534 8.54618C58.3689 8.30451 66.7671 7.56022 74.9295 6.94303C75.7734 6.8832 76.6566 6.82393 77.5589 6.77583C81.7759 6.55486 86.6422 6.56098 90.9649 6.59834C91.1987 6.60051 91.6972 6.57266 92.2104 6.57932C92.318 6.58058 93.6727 6.6463 94.1337 6.65095C93.7009 6.54801 95.4955 6.65179 96.0431 6.6549C96.7472 6.6584 98.1969 6.62334 99.8329 6.66869C101.318 6.70973 100.906 6.74355 100.988 6.74681C101.514 6.76784 101.7 6.7083 102.099 6.70629C103.478 6.70059 109.66 6.78545 113.004 6.81407C113.659 6.82008 114.198 6.81145 114.588 6.8011C115.208 6.78309 115.23 6.81794 115.368 6.81267C115.743 6.79614 116.265 6.72888 116.86 6.68186C117.929 6.60086 119.159 6.48344 119.741 6.39969C121.139 6.21647 123.729 5.6801 125.476 5.39489C125.968 5.31546 125.945 5.36134 126.167 5.32698C126.705 5.24423 127.709 5.08669 128.714 4.9768C129.551 4.8841 130.387 4.80141 130.947 4.75454C132.96 4.58593 135.041 4.47039 137.094 4.33289C137.225 4.34314 137.357 4.35344 137.489 4.36379C137.692 4.33262 137.897 4.30158 138.102 4.27063C141.579 4.08425 145.121 3.88032 148.586 3.739C148.687 3.73491 148.887 3.72886 149.136 3.72199C149.886 3.70313 151.065 3.65333 151.314 3.63686C151.589 3.61949 151.858 3.55695 152.266 3.53547C152.839 3.50452 152.307 3.62852 153.237 3.53688C153.488 3.5119 153.242 3.49327 153.744 3.44484C153.912 3.42808 157.121 3.17581 157.294 3.16981C157.577 3.15457 157.846 3.21522 157.916 3.21222C158.299 3.19566 158.286 3.13626 158.54 3.11434C159.3 3.04837 160.306 3.0307 160.425 3.02338C161.922 2.92357 164.729 2.74928 166.304 2.7263C166.522 2.72272 166.498 2.76849 166.537 2.76862C166.632 2.76894 166.714 2.76085 166.793 2.75025C166.913 2.73344 167.024 2.71019 167.168 2.70501C168.436 2.6586 170.41 2.65651 171.688 2.65028C171.836 2.64935 172.14 2.62114 172.404 2.62071C173.884 2.61979 173.407 2.66469 173.49 2.66535C173.693 2.66787 174.036 2.62158 174.572 2.61558C175.938 2.59873 178.565 2.60079 180.032 2.60766C181.132 2.61245 181.115 2.66272 181.187 2.66381C181.341 2.66607 181.77 2.62748 182.494 2.62599C183.888 2.62334 183.728 2.66217 184.301 2.6636C184.349 2.66391 184.266 2.62501 184.901 2.62497C186.13 2.62438 188.885 2.68462 190.202 2.69618C190.707 2.70047 190.825 2.66474 191.344 2.66942C192.165 2.67648 194.016 2.73758 194.162 2.73933C194.204 2.73983 194.29 2.69834 194.536 2.70127C194.804 2.70447 195.061 2.72943 195.257 2.73168C195.715 2.73702 196.303 2.73213 196.796 2.73384C197.547 2.7366 198.102 2.75546 197.78 2.84111C198.137 2.8089 198.505 2.77728 198.857 2.74589C201.21 2.79248 203.482 2.84285 205.815 2.91992C206.339 2.93672 206.777 2.98087 207.22 2.99445C207.666 3.0097 209.622 3.02047 209.951 3.02602C210.314 3.03478 211.721 3.06452 212.849 3.08069C213.542 3.09115 214.114 3.09997 214.27 3.10364C215.074 3.12242 215.858 3.19664 216.18 3.1891C216.443 3.18307 216.201 3.14425 216.705 3.14155C217.571 3.13686 219.049 3.20272 219.309 3.20551C219.421 3.20673 219.209 3.17642 220.273 3.18878C220.843 3.19529 221.144 3.22957 221.355 3.2322C221.418 3.23285 221.33 3.18263 222.452 3.20375C223.237 3.21849 223.568 3.26057 223.649 3.26174C223.772 3.26355 224.064 3.22676 224.563 3.2344C225.708 3.25228 227.828 3.32439 228.922 3.34108C229.136 3.34435 229.059 3.29452 229.906 3.30923C230.515 3.31982 230.406 3.35742 230.631 3.3617C230.979 3.36831 231.533 3.32738 232.315 3.33856C233.324 3.34958 240.703 3.50385 241.093 3.5345C241.337 3.54817 241.653 3.55575 241.775 3.57972C241.666 3.59749 241.556 3.61528 241.444 3.63309C240.323 3.53826 240.767 3.62925 240.467 3.62839C240.043 3.627 238.393 3.58871 237.998 3.60111C237.858 3.6055 238.171 3.65341 237.42 3.66437C236.598 3.67598 236.248 3.59428 235.915 3.69489C234.766 3.56232 233.639 3.67201 234.987 3.72267C235.725 3.74825 243.09 3.89527 244.537 3.98592C245.005 4.00946 245.682 4.03092 246.235 4.09397L246.372 4.10537C247.432 4.12969 248.613 4.16985 249.514 4.21692C250.387 4.26146 252.548 4.37681 252.455 4.42797C253.232 4.47418 252.411 4.37706 252.575 4.37757C252.915 4.37891 255.355 4.5387 255.811 4.55832C257.016 4.61234 258.37 4.65559 259.724 4.70793L259.758 4.70898C260.961 4.72294 262.168 4.73994 263.209 4.78311C263.107 4.79713 263.004 4.81113 262.899 4.82507C262.402 4.84905 260.098 4.78028 259.831 4.84594C263.216 4.89972 266.577 4.91527 269.95 4.92861C269.892 4.86813 274.068 4.88034 274.265 4.90758C274.191 4.93706 274.118 4.96653 274.044 4.99601C271.684 4.87846 271.894 5.02729 270.309 4.94331C269.662 4.93991 269.861 4.98954 269.541 4.99763C266.37 5.07639 269.49 4.89778 267.066 4.92966C267.794 5.00457 265.807 5.02004 264.917 5.02209C264.715 5.02363 262.058 4.98174 261.737 4.9776C261.171 4.97291 260.489 4.96925 259.754 4.9619L259.713 4.96064C258.121 4.90205 256.313 4.82719 255.109 4.74162C253.723 4.66929 252.953 4.68056 251.698 4.62918C250.742 4.59018 251.018 4.56845 250.571 4.54594C249.629 4.499 249.317 4.59308 248.723 4.41585C248.088 4.40695 247.453 4.40078 246.819 4.39862C246.82 4.3752 246.821 4.35177 246.822 4.32835C246.669 4.3233 246.518 4.31852 246.365 4.3139L246.207 4.30066C246.05 4.2789 245.788 4.2574 245.574 4.24311C245.458 4.25862 245.345 4.27522 245.234 4.29237C243.991 4.19877 244.516 4.17078 244.286 4.09352C244.003 4.07799 243.751 4.06479 243.465 4.05121C243.254 4.09554 243.049 4.1405 242.827 4.18536C241.61 4.14796 240.385 4.12039 239.156 4.09524C239.077 4.07054 238.998 4.04584 238.917 4.02115C238.914 4.04446 238.911 4.06777 238.908 4.09107C236.833 4.0616 234.745 4.03962 232.664 4.01845C232.108 4.04877 235.453 4.11957 235.694 4.12573C237.111 4.15507 240.829 4.18063 240.834 4.26687C241.705 4.21972 244.328 4.30231 245.1 4.4257C243.904 4.36029 242.665 4.32627 241.425 4.29371C241.465 4.32251 241.505 4.35131 241.545 4.38012C239.999 4.2346 239.783 4.23782 238.191 4.31828C238.19 4.28083 238.189 4.24338 238.188 4.20593C237.08 4.31832 235.116 4.07116 235.063 4.23127C234.46 4.21025 233.887 4.18989 233.287 4.16931C232.019 4.17327 233.994 4.32052 228.999 4.21167C228.655 4.20414 228.724 4.16404 228.206 4.16059C228.061 4.15967 227.204 4.209 225.564 4.18264C225.31 4.17851 225.293 4.14278 225.029 4.135C224.416 4.11674 223.198 4.17158 223.751 4.0641C221.321 3.99978 222.336 4.10655 221.58 4.13413C221.078 4.15232 221.174 4.08585 220.745 4.09553C220.214 4.10739 220.596 4.18124 218.455 4.1203C218.696 4.11902 218.937 4.11771 219.177 4.11635C219.056 4.09615 218.936 4.07594 218.815 4.05571C217.584 4.08314 217.704 4.01964 217.125 4.11569C216.229 4.05631 215.465 4.04147 214.242 4.03126C213.501 4.02511 213.106 4.03351 212.834 4.04219C212.235 4.05987 212.229 4.08417 210.367 3.93874C209.932 3.94973 209.482 3.95932 209.046 3.96821C208.323 3.90241 208.908 3.86458 207.831 3.8195C208.67 3.95735 206.398 3.84239 206.013 3.92602C205.974 3.90118 205.934 3.87635 205.895 3.85151C205.655 3.84305 205.416 3.83461 205.177 3.82628C205.176 3.84505 205.174 3.86381 205.173 3.88257C204.855 3.85738 204.536 3.83235 204.22 3.8078C203.978 3.81841 203.741 3.8294 203.502 3.84056C203.109 3.78895 202.719 3.73813 202.328 3.68803C202.082 3.67856 201.833 3.66932 201.589 3.66051C201.666 3.69044 201.741 3.72037 201.821 3.75042C201.506 3.73291 201.186 3.71577 200.872 3.69924C201.241 3.75399 201.003 3.80106 200.019 3.77925C199.207 3.76258 200.127 3.68237 198.373 3.69231C198.257 3.69335 198.072 3.74592 196.784 3.74729C196.66 3.74751 196.525 3.74721 196.376 3.74629C194.378 3.7342 195.348 3.69677 194.994 3.69069C194.927 3.68959 194.314 3.71661 193.744 3.71496C193.413 3.71394 193.112 3.68275 193.067 3.68232C192.868 3.68134 192.805 3.71994 192.53 3.71832C191.832 3.71396 190.88 3.68474 190.198 3.68005C189.883 3.6778 189.59 3.69831 189.451 3.69729C189.236 3.69553 188.958 3.65742 188.74 3.65561C187.934 3.649 186.703 3.75729 186.331 3.59076C185.552 3.73544 183.927 3.54362 184.045 3.64553C181.969 3.59077 176.436 3.71431 176.6 3.54805C175.423 3.69696 175.531 3.59201 175.038 3.59654C174.489 3.60199 174.776 3.6285 174.337 3.63001C173.32 3.63379 172.342 3.6309 171.329 3.64403C171.487 3.61861 171.648 3.59325 171.808 3.56802C170.739 3.5746 171.107 3.62318 170.027 3.65156C168.033 3.70909 168.871 3.65118 168.577 3.59591C168.636 3.63416 167.575 3.66774 166.824 3.69256C166.45 3.70456 166.153 3.71245 166.077 3.71266C165.935 3.71343 166.554 3.61347 165.119 3.6921C165.2 3.71233 165.277 3.73277 165.356 3.75312C164.697 3.74455 162.924 3.86317 162.62 3.87134C162.481 3.87428 161.735 3.72199 161.062 3.90809C160.979 3.8892 160.898 3.87025 160.815 3.85147C160.063 3.92115 159.311 3.99442 158.561 4.07098C158.441 4.03658 158.315 4.00262 158.192 3.96857C157.954 3.98425 157.714 4.00043 157.476 4.01675C157.635 4.04327 157.801 4.06947 157.959 4.09632C156.486 4.17712 154.681 4.37367 154.365 4.27044C154.047 4.31757 153.731 4.36446 153.414 4.41108C153.202 4.38457 152.992 4.35772 152.78 4.33079C151.296 4.44462 151.271 4.47275 150.249 4.57434C150.288 4.53956 150.326 4.50475 150.364 4.46992C150.053 4.50578 149.635 4.54532 149.171 4.57981C148.529 4.62816 147.804 4.6747 147.175 4.70512C146.666 4.72953 145.79 4.72318 145.67 4.73269C145.549 4.74221 144.363 4.97359 144.227 4.82667C142.473 4.97684 141.699 4.94778 140.986 4.98613C140.523 5.01135 140.315 5.05913 139.792 5.09122C139.044 5.13716 138.293 5.16226 137.861 5.19019C137.615 5.2062 137.572 5.24473 137.401 5.25604C136.599 5.30996 137.066 5.24456 136.221 5.29957C136.142 5.30498 135.526 5.38746 134.83 5.42877C134.442 5.45119 133.429 5.4736 133.342 5.48049C132.949 5.51073 133.271 5.58297 131.918 5.57394C131.958 5.58951 131.999 5.60508 132.04 5.62067C130.382 5.80017 130.115 5.74586 129.781 5.76909C129.736 5.77258 129.34 5.84125 129.096 5.86022C128.979 5.86923 128.882 5.87336 128.801 5.87482C128.605 5.87827 128.504 5.86616 128.442 5.87132C128.133 5.89474 127.101 6.03998 126.412 6.10326C126.576 6.19657 124.188 6.63609 123.612 6.60059C123.184 6.70498 122.752 6.81023 122.317 6.91397C122.114 6.92537 121.911 6.93627 121.706 6.9468C121.588 6.99038 121.471 7.03346 121.352 7.07657C120.695 7.13186 120.033 7.18009 119.368 7.21575C119.333 7.27235 119.297 7.32894 119.262 7.3855C119.076 7.40353 118.891 7.42059 118.703 7.43683C118.555 7.41313 118.405 7.3889 118.255 7.36407C118.025 7.39698 117.792 7.42844 117.56 7.4579C117.506 7.49275 117.451 7.52751 117.396 7.5622C116.139 7.69109 116.774 7.39897 114.387 7.73046C114.015 7.71553 113.639 7.69608 113.27 7.67234C113.192 7.69342 113.1 7.70797 112.998 7.71752C112.571 7.75938 111.975 7.71158 111.482 7.71831C111.047 7.72408 111.069 7.76944 110.482 7.76584C109.898 7.76218 109.918 7.71909 109.872 7.71845C109.389 7.71183 109.028 7.74681 108.679 7.73618C108.627 7.73459 108.494 7.68218 108.044 7.67489C107.592 7.66757 107.333 7.71977 106.657 7.70308C106.314 7.6946 106.216 7.65044 105.915 7.64368C104.465 7.61096 103.014 7.8146 101.929 7.54364C101.689 7.57401 99.907 7.6702 99.1549 7.65574C97.9714 7.63284 98.4285 7.58671 97.9618 7.57259C97.8991 7.57057 97.5283 7.58384 96.5474 7.57115C96.3688 7.56885 96.4101 7.598 96.3845 7.59813C95.2355 7.58615 92.9929 7.54405 91.7305 7.5328C91.6154 7.53177 91.0266 7.60788 90.0252 7.49622C88.5434 7.56911 85.744 7.39753 83.7997 7.54348C83.5269 7.54931 83.2035 7.52531 83.0835 7.52815C82.0489 7.55638 82.4359 7.62591 80.1077 7.56468C80.2972 7.60347 79.7535 7.65867 78.9942 7.68572C77.8474 7.72991 78.6565 7.61049 77.7377 7.66217C77.7389 7.68549 77.7401 7.70882 77.7413 7.73214C77.6967 7.73312 77.6529 7.73415 77.61 7.73524C75.6098 7.79436 75.1592 7.92902 73.0577 8.08722C72.2816 8.14669 71.1393 8.18474 70.9499 8.19949C70.8826 8.20492 70.0328 8.32835 69.9554 8.33487C69.4986 8.37253 69.2396 8.36685 68.8449 8.39762C67.5395 8.49976 65.9914 8.69031 66.2616 8.5364C65.9001 8.59189 65.5512 8.64616 65.19 8.70103C63.8215 8.6599 62.8239 8.92478 62.5275 8.8069C62.2836 8.85223 62.0471 8.89684 61.805 8.94164C57.9072 9.19372 53.9992 9.39199 50.0814 9.49761C48.1573 9.54947 46.2313 9.61082 44.3204 9.68399C44.086 9.73604 41.5708 9.83178 41.4384 9.83312C40.8542 9.83015 41.4585 9.70297 40.2586 9.78517C40.126 9.83436 39.9912 9.88374 39.8593 9.93303C38.3405 10.0272 39.0658 9.94681 38.4695 9.95055C38.2154 9.96999 38.2981 9.99824 37.9592 10.0199C36.1197 10.1325 32.3458 10.3915 30.3154 10.5359C29.9078 10.5643 29.9654 10.5294 29.8387 10.538C29.4911 10.5617 28.8008 10.647 28.0967 10.6908C27.096 10.753 25.9971 10.8139 24.8392 10.8618C21.0041 11.021 16.584 11.1659 13.2167 11.2486C12.92 11.2559 12.8821 11.2204 12.6817 11.2249C12.404 11.2314 11.785 11.2802 11.493 11.2859C11.2186 11.2914 11.0409 11.2688 10.7465 11.2743C9.40065 11.2989 7.58834 11.3946 6.1452 11.3443C6.01982 11.3408 4.51291 11.2239 4.4733 11.2143C4.27264 11.16 5.61305 11.0469 3.40517 11.0007C5.37489 10.8919 4.75912 10.7797 2.19375 10.7507C3.48475 10.7193 4.76123 10.6792 6.04681 10.6344C6.04833 10.619 6.04984 10.6036 6.05136 10.5881C4.8795 10.5372 3.72551 10.5367 1.94464 10.5496C1.99918 10.5348 2.05397 10.5199 2.10901 10.5051C3.68272 10.4168 5.56921 10.3645 6.762 10.239C5.01492 10.2081 3.25544 10.1705 1.50389 10.1141C1.59118 10.1021 1.6792 10.0901 1.76793 10.078C2.61072 10.042 4.43745 9.9943 5.13469 9.95196C7.79117 9.79342 2.80972 9.92015 3.62298 9.8389C6.43224 9.79439 9.23871 9.7207 12.0463 9.63641C12.1434 9.6057 1.34184 9.73528 1.4506 9.55745C2.3324 9.54053 3.21433 9.51842 4.09678 9.49337C3.70168 9.46464 3.31549 9.43516 2.91525 9.40513C3.02329 9.39228 3.1339 9.37933 3.24188 9.36637C4.72414 9.31589 6.21303 9.25567 7.70076 9.19049C3.18263 9.33161 1.07154 9.31796 0 9.03766C0.118904 9.0305 0.239891 9.02319 0.362888 9.01572C1.33955 9.19976 5.96377 9.06733 8.4172 8.96077C7.91843 8.9234 5.75086 9.0148 5.29617 8.99194C5.16535 8.98577 5.62027 8.94052 5.31713 8.92851C4.52779 8.90195 1.19576 8.88507 1.67744 8.81859C1.98612 8.78922 7.36169 8.63449 8.40778 8.603C5.94802 8.59976 3.41473 8.63644 0.958355 8.57054C2.50717 8.44539 3.88084 8.28799 6.71659 8.21642C7.57924 8.14285 1.57973 8.17704 1.44076 8.1315C2.4748 8.08763 3.51328 8.03661 4.55069 7.9819C3.67552 8.00784 2.79555 8.03114 1.9204 8.04978C1.91775 8.03809 1.9151 8.0264 1.91246 8.01471C4.17584 7.93513 6.26348 7.78926 8.86548 7.72649C8.78218 7.66704 7.22076 7.71418 6.46476 7.73048ZM256.158 4.93441C256.204 4.98814 255.251 4.93409 254.709 4.90638C254.789 4.91965 254.869 4.93295 254.95 4.94628C253.798 4.88057 251.66 4.75228 251.576 4.84816C250.755 4.81951 251.124 4.75114 250.859 4.72809C250.757 4.71911 249.686 4.71625 248.839 4.61763C248.637 4.60894 248.435 4.60053 248.233 4.59245C248.193 4.62351 248.152 4.6546 248.112 4.68569C247.832 4.63457 247.553 4.58405 247.273 4.53425C250.208 4.63584 253.178 4.80322 256.153 4.9342C256.155 4.93427 256.156 4.93434 256.158 4.93441ZM226.637 4.10032C225.554 4.06873 223.9 4.01888 224.232 4.11262C224.923 4.11656 225.595 4.12013 226.285 4.12385C226.403 4.11601 226.52 4.10817 226.637 4.10032ZM119.486 7.11558C118.551 7.14915 117.704 7.33026 116.256 7.41127C116.259 7.42975 116.263 7.44822 116.266 7.46669C116.855 7.38957 118.419 7.27898 119.486 7.11558ZM283.066 4.86501C283.265 4.87199 283.464 4.87896 283.663 4.88592C282.854 4.98589 282.708 4.91526 281.794 4.92461C281.739 4.9252 281.758 4.94814 281.739 4.94827C281.514 4.94972 281.306 4.92202 281.104 4.92234C280.716 4.92298 280.394 4.95079 279.705 4.94932C279.17 4.94807 279.164 4.90408 278.977 4.90505C278.819 4.90604 277.229 5.02556 276.209 4.97183C274.269 4.8706 282.473 4.85682 283.066 4.86501ZM288.821 4.94838C288.629 4.94879 288.437 4.9492 288.245 4.9496C288.823 4.88201 287.657 4.89229 286.802 4.89366C286.829 4.82885 288.637 4.85662 289.447 4.8373C289.238 4.87433 289.029 4.91136 288.821 4.94838ZM264.533 4.75945C265.279 4.75847 265.159 4.83831 265.126 4.86222C264.883 4.8605 264.652 4.85878 264.408 4.85687C264.449 4.8244 264.491 4.79193 264.533 4.75945ZM270.186 4.76149C269.955 4.81577 268.319 4.83342 267.546 4.83379C267.513 4.83361 267.724 4.80458 267.179 4.80454C267.015 4.80483 265.395 4.90462 265.752 4.78224C267.233 4.77773 268.706 4.77035 270.184 4.76148C270.185 4.76148 270.186 4.76148 270.186 4.76149ZM271.835 4.79912C271.53 4.81553 271.218 4.83186 270.912 4.84814C270.753 4.82184 270.598 4.79553 270.436 4.76919C270.787 4.76387 271.133 4.75844 271.487 4.75297C271.603 4.76836 271.718 4.78374 271.835 4.79912ZM40.981 9.18819C41.0541 9.21224 41.1299 9.23618 41.1998 9.26042C41.4686 9.26373 42.8096 9.08225 42.3832 9.07847C41.923 9.11388 41.4451 9.15093 40.981 9.18819ZM35.3203 9.44947C35.0349 9.45373 34.762 9.45746 34.4798 9.46204C34.1594 9.52998 33.8461 9.59775 33.5265 9.66621C34.9244 9.6028 36.4068 9.54835 36.1581 9.4255C36.4703 9.40622 36.8011 9.38621 37.1121 9.36779C36.8512 9.44061 36.8804 9.45698 37.7222 9.4444C37.8947 9.35493 38.764 9.34542 39.7479 9.27682C39.037 9.3092 38.3066 9.34473 37.5967 9.38122C37.5959 9.36725 37.5951 9.35327 37.5943 9.3393C39.1896 9.25379 37.1981 9.27598 36.1607 9.39697C36.0795 9.3833 35.9941 9.36993 35.9101 9.3565C35.7108 9.38751 35.5147 9.41847 35.3203 9.44947ZM151.312 3.88034C151.111 3.87888 150.909 3.87694 150.707 3.87448C149.937 4.10138 151.517 3.84099 152.648 3.90325C152.27 3.82028 153.98 3.70117 154.075 3.68585C153.878 3.66328 153.676 3.64103 153.479 3.61832C152.76 3.70858 152.037 3.79747 151.312 3.88034ZM145.641 4.01751C146.334 4.07729 142.947 4.23636 141.811 4.27591C141.535 4.28476 141.039 4.25994 140.841 4.27664C140.721 4.30146 140.601 4.32635 140.481 4.35125C140.335 4.29375 138.123 4.48674 137.252 4.57528C137.169 4.5569 137.085 4.53854 137.002 4.52019C136.684 4.54875 136.368 4.57764 136.05 4.60709C136.088 4.58133 136.127 4.55557 136.166 4.52981C135.925 4.573 135.69 4.61614 135.449 4.65985C134.51 4.75301 135.079 4.58798 134.376 4.67539C133.59 4.77376 134.886 4.76003 134.866 4.81123C135.504 4.7549 136.956 4.63535 137.606 4.59626C137.978 4.57406 137.561 4.68469 139.163 4.49317C139.519 4.4971 139.871 4.50161 140.226 4.50634C140.871 4.43438 141.516 4.36369 142.163 4.29395C142.285 4.32055 142.408 4.34718 142.53 4.37383C142.6 4.37506 144.094 4.22944 144.014 4.20903C144.624 4.24278 145.871 4.19673 147.185 4.14363C147.311 4.12049 147.437 4.09736 147.563 4.07425C146.293 4.16698 147.157 4.07281 146.777 4.0552C146.558 4.04505 145.886 4.03606 145.641 4.01751ZM49.8212 8.77464C47.7005 8.92009 49.0045 8.81137 46.7027 8.89043C46.8638 8.92687 47.0261 8.96334 47.1898 8.99985C48.3174 8.88274 50.1871 8.87819 49.8235 8.77457C49.8227 8.7746 49.822 8.77462 49.8212 8.77464ZM27.2787 10.1107C28.5052 10.011 27.8853 9.98483 29.4371 9.86198C29.4378 9.86193 29.4386 9.86188 29.4393 9.86183C28.6368 9.91075 27.8326 9.95742 27.0272 9.99888C27.1109 10.0362 27.1947 10.0735 27.2787 10.1107ZM98.6061 6.98033C99.7817 7.01088 99.5475 6.97567 100.612 7.05241C102.198 6.98971 100.855 6.98674 100.856 6.91461C100.496 6.93196 100.133 6.94927 99.7688 6.9666C98.8935 6.88994 99.724 6.8647 99.7246 6.85823C99.7239 6.85822 99.7231 6.85821 99.7224 6.8582C99.7228 6.83655 99.7506 6.83228 99.4151 6.81567C99.1484 6.87057 98.8767 6.92543 98.6061 6.98033ZM103.626 6.94391C103.225 6.98766 103.04 7.04731 104.101 7.08892C104.102 7.08893 104.102 7.08894 104.103 7.08894C104.195 6.98283 105.196 7.07939 105.666 7.07679C105.787 7.06634 105.907 7.05588 106.028 7.04541C105.227 7.01184 104.433 6.97802 103.626 6.94391ZM121.458 6.20583C121.483 6.32143 120.598 6.48052 121.863 6.37957C122.104 6.33638 122.345 6.29253 122.585 6.24827C122.738 6.19503 122.891 6.14175 123.044 6.08836C126.09 5.77224 126.951 5.24962 121.847 6.28258C121.846 6.28279 121.845 6.28299 121.844 6.2832C121.716 6.25757 121.587 6.23184 121.458 6.20583ZM115.972 6.8618C115.936 6.9261 115.9 6.99036 115.864 7.05459C115.177 6.94571 114.314 7.11667 113.003 7.01902C112.968 7.01635 112.933 7.0135 112.898 7.01049C112.776 7.02856 112.655 7.04662 112.533 7.06467C112.042 7.02134 107.145 6.96807 108.203 7.07231C108.67 7.11826 109.671 7.07006 109.761 7.07203C110.061 7.07918 110.434 7.13556 110.933 7.1363C111.223 7.13667 111.824 7.07848 112.41 7.08263C112.588 7.08389 112.787 7.08838 113.002 7.0948C114.391 7.14398 116.449 7.16306 117.954 6.85981C118.082 6.86544 118.21 6.87041 118.339 6.87483C119.638 6.70853 119.197 6.70469 120.408 6.60073C121.207 6.23871 115.552 7.18499 116.714 6.80191C116.713 6.80196 116.712 6.80202 116.712 6.80208C116.462 6.8243 116.222 6.84375 115.972 6.8618ZM80.8071 6.89814C80.7323 6.84538 79.2631 6.97516 79.6042 6.83723C79.1269 6.89824 78.6488 6.96185 78.1756 7.02844C78.1798 7.04005 78.1841 7.05166 78.1883 7.06328C78.6597 7.03177 79.1362 7.00319 79.6113 6.9772C79.6138 6.99584 79.6163 7.01448 79.6188 7.03312C80.3263 6.93285 83.2886 6.90373 83.2043 6.97528C83.3609 6.94498 83.5187 6.91483 83.6777 6.88482C85.1004 6.94345 86.3268 6.8563 87.8776 6.93009C87.9965 6.90688 88.116 6.88371 88.236 6.86059C88.3141 6.87935 88.3925 6.89814 88.4711 6.91694C89.0399 6.9199 89.6046 6.92381 90.1677 6.92842C92.0111 6.86087 88.4346 6.74812 87.9967 6.76188C87.9381 6.76345 87.9528 6.81179 87.5874 6.81963C86.9489 6.82938 83.3626 6.8033 82.2665 6.86307C82.2566 6.8311 82.2463 6.79915 82.236 6.7672C81.7541 6.80914 81.2828 6.85256 80.8071 6.89814ZM128.192 5.26151C128.275 5.28521 128.355 5.30948 128.437 5.33378C128.542 5.32014 128.645 5.30754 128.745 5.29586C129.934 5.15808 130.654 5.11666 130.318 5.04483C130.318 5.0449 130.317 5.04496 130.316 5.04503C129.787 5.09462 129.26 5.14647 128.736 5.20113C128.552 5.22025 128.373 5.2402 128.192 5.26151ZM231.942 3.64453C231.912 3.57913 231.226 3.5464 230.374 3.58273C230.416 3.60211 230.457 3.62149 230.498 3.64087C230.942 3.59088 231.507 3.69413 232.9 3.69862C232.9 3.66591 232.901 3.6332 232.901 3.60049C232.586 3.61518 232.251 3.62969 231.942 3.64453ZM127.021 5.39228C126.602 5.40755 125.46 5.70451 126.224 5.59245C126.807 5.50819 127.245 5.38333 127.021 5.39228ZM22.4487 10.2736C22.7589 10.2677 23.0865 10.2611 23.3966 10.2549C23.5616 10.2202 23.7272 10.1854 23.8897 10.1506C23.889 10.1507 23.8882 10.1507 23.8875 10.1507C23.4061 10.1921 22.9271 10.233 22.4487 10.2736ZM94.5991 6.94691C95.6786 6.95222 96.7364 6.95847 97.8168 6.96539C97.8278 6.94735 97.8384 6.92931 97.8492 6.91127C96.7677 6.96651 96.3442 6.89117 96.0907 6.88436C96.0918 6.88437 96.0929 6.88438 96.094 6.88439C95.2945 6.8624 94.5287 6.84497 93.7648 6.81711C94.0435 6.86029 94.3242 6.90359 94.5991 6.94691ZM90.9311 6.80642C91.1062 6.93578 91.3489 6.95079 92.991 6.8724C92.9253 6.85612 92.8599 6.83986 92.7945 6.8236C91.9433 6.82691 91.4435 6.8539 91.5941 6.78785C91.3715 6.79394 91.1505 6.80013 90.9311 6.80642ZM107.714 7.00491C107.52 6.96244 105.945 6.98847 106.033 7.00981C106.064 7.01846 108.1 7.08859 107.714 7.00491ZM243.828 3.82447C243.465 3.80271 243.12 3.78307 242.748 3.76363C243.239 3.76303 243.707 3.76339 244.185 3.7674C244.061 3.78602 243.944 3.80515 243.828 3.82447ZM247.786 3.8435C248.042 3.87047 247.205 3.95032 248.734 4.04414C247.947 4.01154 247.162 3.98329 246.376 3.96134L246.254 3.9512C245.997 3.91788 245.686 3.89724 245.362 3.87843C245.687 3.88633 245.998 3.89592 246.259 3.91862L246.377 3.92847C246.573 3.92742 246.767 3.9267 246.962 3.92636C246.872 3.89017 246.782 3.85405 246.692 3.81801C247.057 3.82528 247.421 3.83382 247.786 3.8435ZM248.979 3.97798C248.381 3.86103 251.549 4.00506 251.845 4.03281C251.911 4.03864 252.221 4.12079 252.335 4.14085C251.856 4.11679 251.377 4.09272 250.898 4.06909C251.058 4.09793 251.216 4.12676 251.376 4.1557C250.816 4.13488 250.254 4.11423 249.695 4.09511C249.935 4.08541 250.176 4.07598 250.415 4.06661C249.936 4.03616 249.458 4.00638 248.979 3.97798ZM236.27 3.59554C236.664 3.60324 237.077 3.61137 237.474 3.6195C237.395 3.58561 237.315 3.55171 237.236 3.51782C236.997 3.5143 236.744 3.51067 236.512 3.50739C236.432 3.53677 236.351 3.56616 236.27 3.59554ZM244.431 3.72793C243.85 3.86105 242.275 3.46847 244.12 3.65652C244.313 3.67657 244.484 3.71489 244.431 3.72793ZM253.034 4.1115C254.291 4.05943 253.993 4.29851 252.819 4.16523C252.76 4.15827 252.942 4.11536 253.034 4.1115ZM262.438 4.46148C262.536 4.46325 262.719 4.54781 263.685 4.47833C263.849 4.48912 264.001 4.49976 264.162 4.51043C263.79 4.54763 260.585 4.53449 261.033 4.45729C261.518 4.46244 261.929 4.45355 262.438 4.46148ZM259.325 4.10287C258.848 4.08404 258.363 4.06446 257.889 4.04505C258.043 4.07785 258.199 4.11071 258.358 4.14364C258.118 4.13978 257.89 4.13636 257.649 4.13226C257.25 4.0695 256.852 4.00649 256.446 3.94287C257.492 3.98533 258.528 4.02555 259.572 4.06445C259.489 4.07724 259.407 4.09004 259.325 4.10287ZM246.606 3.45059C247.523 3.51163 248.649 3.52173 250.142 3.59948C250.143 3.5996 250.144 3.59972 250.144 3.59983C250.22 3.60384 250.348 3.64539 250.59 3.65862C250.794 3.66891 254.834 3.83395 254.517 3.87718C252.951 3.85338 252.371 3.74171 251.989 3.85599C251.914 3.8241 251.84 3.79224 251.766 3.76041C250.264 3.63643 249.834 3.71325 248.989 3.71082C248.993 3.68983 248.998 3.66884 249.002 3.64785C248.44 3.62067 247.878 3.59539 247.317 3.57306C247.395 3.58982 247.474 3.60664 247.553 3.62351C247.354 3.61607 247.155 3.60898 246.957 3.60226C246.754 3.56897 246.528 3.54399 246.389 3.52327L246.314 3.51698C246.198 3.48392 246.157 3.46259 246.322 3.45923L246.391 3.465C246.444 3.4602 246.515 3.4554 246.606 3.45059ZM261.521 4.18224C261.967 4.03058 266.287 4.1771 268.261 4.14974C267.223 4.24177 265.622 4.16607 264.49 4.1561C262.3 4.13594 263.814 4.20776 263.442 4.23056C263.264 4.24203 262.016 4.12671 261.521 4.18224ZM243.248 3.30034C244.318 3.34736 244.954 3.3299 245.847 3.45352C245.766 3.45892 245.701 3.46597 245.621 3.47231C245.303 3.42574 242.701 3.30686 243.248 3.30034ZM271.153 4.20266C269.048 4.13808 270.089 4.28684 268.993 4.17369C269.714 4.16976 270.437 4.1654 271.153 4.16067C271.153 4.17467 271.153 4.18867 271.153 4.20266ZM124.581 5.16268C123.711 5.30834 122.732 5.4558 122.218 5.60581C122.815 5.51153 123.409 5.41417 124.002 5.31965C124.195 5.26696 124.388 5.21457 124.581 5.16268ZM149.674 2.74626C149.573 2.74393 149.331 2.76195 149.098 2.78016C148.858 2.79895 148.632 2.81936 148.589 2.82113C148.433 2.82762 148.475 2.80477 148.472 2.79936C147.448 2.84603 148.396 2.87176 147.638 2.91792C147.509 2.92543 145.727 2.97002 145.003 3.00616C143.89 3.0607 142.778 3.11036 142.361 3.13216C141.658 3.16851 140.358 3.28373 139.203 3.35035C138.728 3.37766 138.558 3.34788 138.081 3.37631C135.728 3.51495 131.629 3.8155 128.63 4.11729C127.714 4.20779 126.905 4.31558 126.275 4.40285C125.608 4.49492 124.965 4.55071 124.615 4.61475C124.341 4.68043 124.067 4.74723 123.794 4.81447C122.913 4.79771 122.655 4.99886 121.738 5.17247C121.156 5.28194 120.874 5.27541 120.796 5.28825C120.275 5.37218 120.021 5.43406 119.611 5.49609C119.152 5.56633 118.483 5.62506 118.32 5.64684C118.219 5.65521 118.554 5.71111 116.752 5.86655C115.503 5.96346 114.268 6.00163 113.01 5.99023C112.411 5.9848 111.824 5.97924 111.221 5.97369C111.809 6.16707 112.309 6.0607 113.009 6.04516C113.055 6.04416 113.101 6.04347 113.148 6.04319C113.354 6.04172 113.224 6.0735 113.402 6.072C113.909 6.06995 114.873 6.015 115.291 6.00161C115.744 5.98824 115.591 6.07155 116.164 6.00933C116.193 6.00604 116.099 5.9815 116.233 5.96761C117.578 5.8182 118.026 5.8332 119.722 5.60325C120.855 5.47267 127.593 4.21259 127.837 4.29753C129.053 4.17903 121.948 5.3264 121.103 5.48204C120.809 5.52685 121.112 5.44369 120.843 5.48041C120.731 5.49562 119.721 5.72496 118.708 5.85257C117.482 6.02713 114.997 6.14564 113.821 6.14186C113.546 6.14518 113.284 6.14602 113.009 6.14452C103.222 6.10666 93.5566 5.84801 83.7799 5.93257C83.5623 5.9354 83.2893 5.97678 82.5863 5.98873C80.9098 6.01802 79.2114 6.06533 77.5258 6.15379C68.476 6.73845 59.2295 7.63361 50.0338 7.87938C47.6413 7.95041 45.2723 8.03623 42.9132 8.14306C40.0358 8.27294 37.1934 8.46575 34.2958 8.62885C33.9403 8.6805 33.5783 8.73298 33.2253 8.78514C34.1417 8.69961 35.8257 8.65585 35.9846 8.64764C36.0404 8.64451 36.3828 8.59123 36.9468 8.5593C37.7392 8.51453 38.0822 8.52337 38.1492 8.51948C38.3521 8.50818 38.2171 8.48641 38.4122 8.47567C39.8392 8.39796 40.9489 8.33441 42.2635 8.27401C43.7502 8.20672 44.5017 8.23169 45.5822 8.13033C45.7048 8.14905 45.8282 8.16779 45.9524 8.18656C46.4195 8.11057 48.22 8.02477 50.0363 7.96568C51.3696 7.92224 52.7111 7.87313 53.5373 7.8398C54.1542 7.81483 54.0471 7.86023 54.2537 7.85102C54.3863 7.8442 54.3324 7.79636 55.9453 7.72631C56.7553 7.69008 56.973 7.71685 57.3778 7.69335C57.5998 7.68025 57.5618 7.64357 57.8795 7.62555C59.7136 7.52057 61.2172 7.43571 63.0116 7.31771C63.516 7.28427 63.5257 7.31583 63.6383 7.30743C64.0515 7.27648 64.7735 7.16967 65.8294 7.09048C67.5714 6.96143 71.0364 6.68486 72.4575 6.60211C72.6691 6.5897 72.8446 6.61517 72.9967 6.60297C73.2258 6.58445 73.3191 6.53676 73.3591 6.5335C74.1334 6.47446 73.6705 6.547 74.1918 6.49913C74.4687 6.47392 74.761 6.4057 75.4134 6.35529C76.2715 6.29006 76.1083 6.35686 76.4659 6.32841C76.5036 6.32527 76.5164 6.28585 76.8667 6.26355C77.0717 6.25063 77.3036 6.23659 77.5296 6.22372C78.7864 6.15075 80.3494 6.09392 81.4213 6.06996C81.7795 6.06171 82.0638 6.08129 82.5657 6.07284C83.5952 6.03991 89.4324 6.01016 89.9136 6.0349C89.9641 6.03667 89.4478 6.09096 90.2701 6.09243C90.5095 6.06999 90.7541 6.0477 90.9941 6.0255C91.3906 6.06506 91.8004 6.10502 92.199 6.14517C92.1807 6.0148 94.5565 6.01318 94.5269 6.14599C94.7843 6.15358 95.0436 6.16126 95.3048 6.16901C95.8406 6.08236 96.2092 6.11955 97.2445 6.07605C97.4068 6.10575 97.5698 6.13547 97.7334 6.1652C97.7747 6.14691 97.817 6.12862 97.8574 6.11031C98.4051 6.2173 99.3285 6.12511 99.4344 6.12567C99.8584 6.12787 100.182 6.15707 100.383 6.15836C101.121 6.16349 102.75 6.14522 103.614 6.17058C103.655 6.17184 103.614 6.21478 103.863 6.2227C104.313 6.23698 104.356 6.17395 104.95 6.25449C105.071 6.23698 105.192 6.21946 105.313 6.20195C105.441 6.21291 105.57 6.22386 105.699 6.23481C106.446 6.23718 107.209 6.23945 107.96 6.24126C107.272 6.3084 108.064 6.35675 108.811 6.30544C109.063 6.28802 108.84 6.24141 108.924 6.23537C109.039 6.22785 112.426 6.27703 112.651 6.30669C112.769 6.29713 112.888 6.28756 113.008 6.27798C113.051 6.27455 113.094 6.27106 113.137 6.26751C113.219 6.29599 113.301 6.32425 113.383 6.35229C113.472 6.34232 113.56 6.33211 113.649 6.32163C114.545 6.38276 116.844 6.13684 117.26 6.09368C117.482 6.07624 117.294 6.22334 118.36 6.09465C118.393 6.05769 118.426 6.02071 118.459 5.9837C118.703 5.95059 118.944 5.91589 119.188 5.87904C119.642 5.82324 120.314 5.78 120.34 5.81508C120.478 5.77046 120.618 5.72496 120.755 5.67941C121.149 5.70033 123.164 5.31893 123.961 5.12813C124.201 5.10941 124.441 5.09097 124.681 5.07357C124.993 4.9919 125.306 4.91158 125.617 4.83362C126.351 4.71013 125.582 4.87745 125.739 4.85686C126.071 4.80527 127.748 4.49949 127.65 4.616C127.879 4.5885 128.113 4.56221 128.341 4.53842C128.447 4.50152 128.553 4.46494 128.66 4.42871C128.67 4.42539 128.68 4.42208 128.69 4.41876C129.096 4.47676 129.787 4.37397 131.207 4.29236C131.325 4.26041 131.442 4.22863 131.559 4.19699C132.001 4.1932 132.444 4.19082 132.884 4.18984C132.971 4.14646 133.06 4.10305 133.147 4.05978C133.337 4.04062 133.528 4.02156 133.72 4.00265C134.112 4.05726 134.806 3.9207 135.163 3.93145C135.684 3.9473 135.288 4.03098 134.327 4.10809C134.402 4.16011 137.266 3.94841 137.928 3.90878C137.883 3.89963 137.839 3.89048 137.795 3.88134C137.119 3.93021 136.444 3.98067 135.768 4.03329C135.192 3.91875 137.03 3.84176 137.872 3.77457C137.95 3.76829 138.384 3.68523 139.234 3.64354C139.563 3.62701 140.853 3.64215 141.097 3.63463C143.08 3.57268 141.617 3.52557 143.56 3.53633C143.153 3.47555 144.268 3.48846 145.427 3.42104C145.624 3.40909 147.295 3.27107 147.408 3.26495C148.112 3.22463 147.347 3.32776 148.367 3.26654C148.488 3.24281 148.61 3.21911 148.732 3.19542C148.859 3.19016 148.987 3.18492 149.114 3.17969C149.225 3.17514 149.336 3.17039 149.446 3.16544C150.901 3.26274 151.23 3.11156 151.742 3.06393C151.948 3.04374 151.685 3.1052 152.221 3.05942C152.423 3.04202 152.645 2.9906 153.188 2.94861C154.889 2.81592 155.471 2.9236 157.02 2.65385C157.265 2.66007 157.499 2.66739 157.744 2.6742C157.903 2.63554 158.061 2.5971 158.222 2.55855C159.467 2.55962 159.008 2.50662 159.459 2.47961C160.632 2.40749 163.056 2.30425 163.265 2.36385C164.278 2.16378 165.498 2.29074 165.906 2.27037C166.141 2.24327 166.377 2.21639 166.618 2.18961C166.67 2.19127 166.722 2.19294 166.774 2.19462C166.998 2.20249 167.228 2.2107 167.462 2.21925C167.322 2.07148 168.774 2.18194 168.916 2.18242C169.077 2.17906 171.311 2.09523 172.145 2.08889C172.98 2.0796 174.425 2.11023 174.557 2.10982C174.7 2.10867 176.119 2.06002 177.226 2.05887C178.196 2.05216 183.936 2.12875 183.575 2.06271C183.2 2.04216 182.665 2.02354 182.203 2.01301C180.766 1.9709 172.346 1.94823 170.192 1.99371C169.06 2.00745 167.915 2.02898 166.77 2.064C163.533 2.16225 160.253 2.32491 157.061 2.53867C156.805 2.5557 156.769 2.51909 156.547 2.53398C156.218 2.556 155.377 2.65678 155.051 2.68023C153.832 2.76806 152.345 2.87149 151.691 2.91218C150.671 2.97788 149.874 3.00836 149.108 3.03158C148.775 3.0416 148.449 3.05212 148.113 3.06507C147.766 3.07821 146.016 3.20121 144.816 3.23612C144.597 3.23511 144.38 3.23416 144.162 3.23331C144.779 3.19127 146.4 3.08553 147.153 3.04982C148.131 3.00312 148.701 3.00332 149.106 2.99237C149.166 2.99077 149.221 2.98888 149.274 2.98654C149.622 2.9754 151.391 2.84123 152.196 2.78093C152.446 2.76336 152.501 2.80052 152.714 2.78521C153.875 2.70138 155.403 2.58289 156.405 2.47167C155.996 2.51234 158.563 2.36011 158.695 2.35457C158.931 2.33966 159.172 2.28593 159.645 2.25763C160.553 2.20445 160.439 2.29045 161.567 2.15033C161.846 2.15927 162.133 2.1682 162.411 2.17813C162.427 2.07341 165.542 2.05825 166.765 1.93084C166.843 1.92224 166.913 1.91302 166.974 1.90309C166.978 1.90105 166.9 1.90106 166.764 1.90282C165.848 1.90928 162.349 2.02732 162.016 2.04778C159.737 2.14281 156.365 2.40083 154.156 2.55174C153.491 2.59767 151.395 2.67992 151.238 2.68765C150.983 2.70532 151.215 2.72809 151.105 2.73622C148.854 2.89202 149.974 2.75047 149.674 2.74626ZM249 3.47254C248.317 3.43768 247.635 3.40576 246.952 3.37836C247.002 3.3566 247.053 3.33487 247.103 3.31317C247.416 3.33312 247.728 3.35399 248.04 3.37564C248.281 3.37128 248.523 3.36742 248.764 3.3639C248.842 3.40006 248.922 3.43632 249 3.47254ZM250.689 3.45404C251.283 3.4715 251.311 3.52257 251.446 3.53171C251.857 3.55962 252.207 3.55728 252.605 3.57806C252.143 3.67232 251.171 3.56941 250.689 3.45404ZM238.445 2.96037C238.57 2.96804 239.473 3.10851 240.485 3.01049C241.256 3.06281 242.006 3.11646 242.762 3.17421C241.49 3.08198 239.677 3.10934 239.057 3.09686C238.815 3.09196 238.762 3.05231 238.577 3.04867C237.461 3.02754 236.393 3.10078 236.283 2.97069C237.327 3.02251 238.277 2.95073 238.445 2.96037ZM245.109 3.17865C245.296 3.21526 245.445 3.25058 245.631 3.28997C245.001 3.24841 244.366 3.22449 243.73 3.20291C243.904 3.1815 244.068 3.16009 244.25 3.13979C244.532 3.15088 244.831 3.16399 245.109 3.17865ZM195.869 2.15543C196.176 2.15948 196.501 2.16381 196.804 2.16789C196.888 2.16903 196.972 2.17018 197.055 2.17134C197.045 2.16185 196.936 2.15554 196.804 2.1499C196.667 2.14383 196.503 2.13849 196.416 2.1305C196.417 2.13051 196.418 2.13052 196.418 2.13053C196.233 2.11327 196.311 2.08904 195.973 2.0737C195.938 2.10094 195.904 2.12819 195.869 2.15543ZM32.7408 8.73397C32.0828 8.78295 25.9785 9.18605 26.5005 9.21195C26.7659 9.23601 28.8538 9.07682 29.4695 9.03377C30.298 8.97944 32.5424 8.9002 32.7408 8.73397ZM21.9238 9.3322C21.8577 9.3825 23.5411 9.33527 24.7709 9.28648C25.3881 9.2622 25.8914 9.23455 26.0154 9.22406C25.9349 9.21807 25.8125 9.2017 25.7064 9.20184C25.5447 9.20223 25.1987 9.21512 24.7685 9.23113C23.8258 9.26638 22.494 9.32273 21.9238 9.3322ZM173.751 1.83953C174.057 1.87314 174.367 1.90699 174.676 1.94113C174.596 1.89481 174.513 1.84853 174.431 1.80226C174.203 1.81454 173.976 1.82697 173.751 1.83953ZM143.915 3.2666C138.819 3.50851 133.718 3.77771 128.644 4.26086C128.618 4.26341 128.591 4.26599 128.565 4.26859C128.591 4.26485 128.617 4.26113 128.644 4.25744C129.061 4.19828 129.486 4.14047 129.905 4.0847C134.308 3.70242 139.017 3.46387 143.279 3.22806C143.492 3.24077 143.703 3.25366 143.915 3.2666ZM237.002 2.72773C235.689 2.70807 234.591 2.72811 233.159 2.65542C234.53 2.61975 235.187 2.71017 236.522 2.65078C236.523 2.65079 236.524 2.6508 236.524 2.65081C236.68 2.67637 236.84 2.70202 237.002 2.72773ZM207.641 2.26761C208.042 2.24806 208.442 2.22786 208.842 2.20681C208.361 2.19278 207.882 2.17756 207.402 2.16148C207.481 2.19687 207.561 2.23224 207.641 2.26761ZM99.3037 5.803C97.9305 5.85951 94.4091 5.69592 93.2927 5.77433C93.2195 5.77944 93.885 5.82064 92.8091 5.88279C93.6211 5.87431 94.1934 5.86463 94.2569 5.80994C94.4951 5.83067 94.7348 5.85147 94.9762 5.87234C95.3805 5.86179 95.7745 5.85129 96.1759 5.84097C96.1314 5.89551 96.1655 5.89285 96.7797 5.86123C97.0574 5.87788 97.3371 5.89459 97.619 5.91135C97.7387 5.88929 97.8591 5.86724 97.9762 5.84516C98.2163 5.88017 98.4579 5.91521 98.7011 5.95028C99.6508 5.92486 99.0722 5.85576 99.3037 5.803ZM104.118 5.8669C103.899 5.85298 97.5113 5.82481 100.415 5.9651C101.163 5.9695 101.92 5.97403 102.673 5.97841C102.052 5.79045 104.098 5.97408 104.273 5.97957C105.073 6.00548 106.106 5.97247 106.69 5.98023C107.2 5.98703 107.49 6.02226 107.846 6.02465C109.055 6.03305 110.954 6.04695 111.221 5.97369C110.282 5.96505 109.328 5.95638 108.357 5.94965C107.321 5.94235 106.424 5.8633 104.483 5.94093C104.006 5.92564 104.175 5.87058 104.118 5.8669ZM210.047 2.24694C209.994 2.32341 212.43 2.35614 212.445 2.32438C212.454 2.30725 211.661 2.29336 211.546 2.2842C211.545 2.28419 211.544 2.28417 211.543 2.28416C211.496 2.28031 211.737 2.25626 211.363 2.24075C210.928 2.24387 210.482 2.24581 210.047 2.24694ZM42.2202 8.01718C41.8875 7.9715 34.3885 8.40966 34.1694 8.46177C34.1099 8.47134 34.1947 8.48434 34.1717 8.4966C35.9169 8.31962 38.4048 8.24348 40.0713 8.16472C40.5324 8.14255 40.3921 8.11974 40.4184 8.11781C40.4195 8.11775 40.4206 8.1177 40.4217 8.11764C40.6837 8.10395 41.8752 8.12008 42.2202 8.01718ZM90.8875 5.79327C91.2044 5.80667 91.5221 5.82026 91.8443 5.83406C91.926 5.81121 92.009 5.78838 92.0886 5.76554C92.0879 5.76554 92.0872 5.76554 92.0864 5.76553C91.685 5.77449 91.2832 5.78371 90.8875 5.79327ZM79.8208 5.81753C79.8981 5.8314 79.9757 5.84532 80.0535 5.8593C80.8615 5.83596 81.6587 5.81946 82.4654 5.80725C82.3849 5.81797 82.3053 5.82872 82.225 5.83953C83.4386 5.84205 83.9438 5.78026 84.5887 5.78205C84.588 5.78205 84.5873 5.78206 84.5865 5.78207C84.6559 5.78241 84.7438 5.81579 85.0018 5.81489C85.5938 5.81169 87.2986 5.81918 87.5043 5.78532C87.9385 5.70897 84.5125 5.75548 83.8726 5.76494C83.5801 5.76682 83.236 5.74168 83.0608 5.74368C82.8653 5.74605 82.6041 5.79046 82.137 5.79826C81.9957 5.79939 80.4774 5.78649 79.8208 5.81753ZM65.6641 6.8419C65.9103 6.86067 66.431 6.78534 66.6179 6.77711C66.6631 6.7751 66.3152 6.83275 66.7403 6.80964C66.8604 6.77924 66.9807 6.7488 67.1001 6.7184C66.617 6.76035 66.1433 6.80117 65.6641 6.8419ZM214.141 2.28787C214.086 2.28067 213.234 2.26811 212.862 2.26529C212.77 2.26459 212.708 2.2645 212.695 2.26529C212.423 2.28419 212.568 2.30111 212.861 2.31215C213.412 2.33295 214.455 2.33215 214.141 2.28787ZM247.102 2.82751C246.507 2.68544 253.623 3.12372 254.315 3.15735C254.275 3.21743 252.585 3.07061 253.469 3.19979C252.625 3.11082 250.282 3.01712 249.733 2.979C249.399 2.95516 249.318 2.89818 249.267 2.89415C249.068 2.87733 247.313 2.86718 247.102 2.82751ZM260.197 3.46156C260.056 3.45692 259.916 3.45224 259.78 3.44751C259.235 3.41435 258.709 3.38155 258.167 3.34757C258.71 3.36757 259.237 3.38639 259.781 3.40555C260.033 3.4075 260.311 3.40954 260.564 3.4109C260.444 3.42788 260.322 3.44477 260.197 3.46156ZM261.052 3.44576C261.026 3.38667 263.33 3.45818 263.935 3.44824C263.25 3.54439 262.113 3.43771 261.052 3.44576ZM222.808 2.25441C221.75 2.20121 221.298 2.37785 222.578 2.31494C222.618 2.31282 222.853 2.25708 222.808 2.25441ZM98.9802 5.54278C98.7941 5.53956 96.5529 5.45765 96.4216 5.48591C96.0104 5.57539 97.4814 5.55224 97.9788 5.59274C98.7718 5.65813 97.6012 5.69306 99.5471 5.67884C99.4675 5.69672 99.3881 5.71461 99.3088 5.7325C100.445 5.75063 100.077 5.61712 100.282 5.6026C100.346 5.5982 101.052 5.61658 101.183 5.60968C102.795 5.52227 99.141 5.54522 98.9802 5.54278ZM196.582 1.68799C194.475 1.60694 195.373 1.69826 193.214 1.66829C193.14 1.70813 196.304 1.72012 196.582 1.68799ZM119.483 5.31581C117.328 5.62903 115.541 5.69882 113.512 5.78286C113.653 6.00968 120.061 5.35623 119.483 5.31581ZM17.0957 9.01C19.557 8.97873 22.1277 8.91388 24.7507 8.82148C31.1819 8.55512 37.9593 7.92568 44.3773 7.70281C45.3646 7.66295 45.4562 7.70439 45.8127 7.68605C46.0471 7.67423 46.0041 7.64021 46.3197 7.62853C47.5534 7.58308 48.7833 7.54188 50.0227 7.5039C59.4066 7.23921 68.4438 6.30684 77.5034 5.73165C77.9828 5.70683 78.468 5.68539 78.9568 5.66686C79.6332 5.63155 82.9261 5.63091 83.6292 5.51378C84.1607 5.41818 81.7926 5.52131 81.4022 5.53341C81.1031 5.53994 81.0893 5.49935 80.8918 5.50432C80.683 5.50976 80.8557 5.5331 80.6147 5.54018C79.5823 5.57067 78.4572 5.60323 77.524 5.65553C77.5158 5.65598 77.5076 5.65644 77.4994 5.6569C68.3804 6.27483 59.5383 7.14247 50.4637 7.39781C50.2824 7.4034 50.1367 7.4068 50.0199 7.4087C49.4199 7.41867 49.574 7.39126 49.5266 7.39253C49.5259 7.39263 49.5251 7.39274 49.5244 7.39284C43.629 7.55838 36.8908 7.97067 30.6595 8.39991C28.6863 8.52596 26.7194 8.64591 24.7463 8.72068C22.3296 8.81284 19.9002 8.89605 17.4779 8.97174C17.3508 8.98451 17.2234 8.99726 17.0957 9.01ZM103.636 5.70765C103.091 5.57799 102.963 5.7018 100.994 5.63039C100.834 5.64986 100.674 5.66932 100.515 5.6888C101.553 5.69514 102.603 5.70164 103.639 5.70768C103.638 5.70767 103.637 5.70766 103.636 5.70765ZM90.6245 5.54347C90.2945 5.37202 85.8855 5.47883 83.9005 5.47724C83.5371 5.56307 86.4198 5.50057 87.1015 5.51174C87.443 5.51477 89.2597 5.60118 90.6434 5.56065C90.6371 5.55492 90.6308 5.5492 90.6245 5.54347ZM239.653 2.30602C239.342 2.30539 239.017 2.30477 238.692 2.30437C239.508 2.33625 240.286 2.3686 241.102 2.40412C239.824 2.36562 238.543 2.33295 237.263 2.30207C237.505 2.27088 237.729 2.2395 237.978 2.20859C238.539 2.24051 239.106 2.27306 239.653 2.30602ZM235.503 2.26072C237.75 2.27865 235.401 2.33894 234.846 2.29055C234.507 2.2613 235.281 2.25909 235.503 2.26072ZM229.671 2.12789C230.729 2.07955 232.825 2.10108 232.079 2.21378C230.958 2.14294 230.214 2.18142 228.586 2.12896C228.827 2.10852 229.067 2.08805 229.305 2.06756C229.306 2.06757 229.307 2.06759 229.308 2.0676C229.43 2.0877 229.551 2.1078 229.671 2.12789ZM236.529 2.20113C237.986 2.2913 233.75 2.20928 235.084 2.18139C235.145 2.17996 236.475 2.19756 236.529 2.20113ZM26.4614 8.49721C26.2873 8.54713 27.4124 8.4832 27.7866 8.46185C29.4081 8.37461 31.4918 8.20701 33.1809 8.09836C33.0531 8.09389 32.9225 8.08965 32.7948 8.08524C30.6853 8.22802 28.57 8.38281 26.4614 8.49721ZM38.47 7.77024C39.6312 7.70598 40.798 7.64701 41.9589 7.59341C42.0691 7.58826 42.5679 7.53146 42.194 7.5401C40.9511 7.61093 39.7097 7.68746 38.47 7.77024ZM110.981 5.53632C110.089 5.50733 112.657 5.41223 112.542 5.53349C112.018 5.53463 111.507 5.53563 110.981 5.53632ZM119.213 5.10481C118.665 5.19014 118.113 5.26672 117.563 5.33229C117.561 5.31835 117.559 5.30441 117.557 5.29047C118.108 5.23892 118.662 5.17628 119.213 5.10481ZM21.8972 8.6726C22.4846 8.69654 23.8591 8.63323 24.7409 8.59547C24.7549 8.59487 24.7688 8.59428 24.7825 8.5937C24.769 8.59337 24.7551 8.59309 24.7408 8.59285C24.1142 8.58239 22.7108 8.66027 21.8972 8.6726ZM97.6202 5.35667C97.6892 5.38962 94.1434 5.34797 95.3741 5.30171C96.1181 5.31959 96.8697 5.33801 97.6202 5.35667ZM90.4107 5.25101C91.1797 5.24719 91.7595 5.26225 91.6051 5.31284C91.2007 5.30825 90.8003 5.30397 90.3939 5.30001C90.3995 5.28367 90.4051 5.26734 90.4107 5.25101ZM225.696 1.98153C224.423 1.9705 223.128 1.95886 221.853 1.94689C221.9 1.93343 221.948 1.91997 221.995 1.90651C223.227 1.91795 224.473 1.92904 225.701 1.9396C225.7 1.95357 225.698 1.96755 225.696 1.98153ZM21.1682 8.5752C20.2904 8.61923 19.4109 8.66227 18.5306 8.70431C19.4123 8.68086 20.2933 8.65642 21.1726 8.63098C21.1719 8.61228 21.1712 8.59357 21.1704 8.57487C21.1697 8.57498 21.1689 8.57509 21.1682 8.5752ZM243.277 2.06486C239.36 1.90276 244.342 1.93773 245.409 2.1121C245.41 2.11208 245.411 2.11206 245.412 2.11204C245.501 2.12571 245.31 2.15598 245.457 2.18118C245.05 2.13867 244.65 2.10283 244.254 2.06916C243.886 2.07847 243.512 2.08971 243.157 2.10261C243.038 2.09004 242.912 2.07739 242.792 2.06503C242.954 2.06477 243.121 2.06483 243.277 2.06486ZM259.071 2.7825C259.363 2.79613 259.602 2.80796 259.807 2.81868L259.79 2.81818C260.98 2.8475 260.62 2.87 259.789 2.86895L259.804 2.8694C259.074 2.84829 257.982 2.79787 257.232 2.72797C257.246 2.71001 258.744 2.76755 259.071 2.7825ZM249.774 2.35504C249.215 2.33809 248.653 2.32239 248.092 2.30925C248.021 2.2946 247.95 2.27996 247.879 2.26538C248.31 2.27045 248.741 2.27706 249.171 2.28472C249.373 2.308 249.574 2.33143 249.774 2.35504ZM231.363 1.6713C230.459 1.64739 229.314 1.76457 232.2 1.7653C232.199 1.7512 232.198 1.73711 232.196 1.72301C232.084 1.72387 231.748 1.73296 231.729 1.73168C231.676 1.72751 231.74 1.68128 231.363 1.6713ZM265.626 2.50579C265.725 2.50101 265.788 2.35329 266.834 2.5129C267.156 2.50534 267.466 2.4976 267.788 2.48982C267.872 2.52294 267.952 2.55604 268.033 2.58914C266.802 2.55779 266.672 2.62279 266.583 2.62377C266.175 2.62758 266.476 2.59531 266.215 2.59327C265.529 2.58831 263.989 2.59931 264.688 2.50747C264.937 2.47459 265.529 2.51054 265.626 2.50579ZM263.223 2.40236C263.371 2.41616 262.894 2.45506 263.005 2.4684C263.1 2.4804 264.583 2.53728 264.181 2.60725C263.939 2.60219 263.696 2.59703 263.451 2.59171C263.369 2.57087 263.287 2.55001 263.206 2.52915C262.975 2.54553 262.73 2.56166 262.498 2.57779C262.101 2.52409 261.258 2.45001 262.262 2.42097C261.89 2.42115 261.523 2.42103 261.156 2.42046C260.972 2.44182 260.769 2.4628 260.582 2.48385C260.682 2.44907 260.782 2.41428 260.884 2.37946C261.662 2.38891 262.441 2.39624 263.223 2.40236ZM274.662 2.46918C274.617 2.48782 274.572 2.50645 274.528 2.52508C275.883 2.49292 277.994 2.48198 276.795 2.59792C274.961 2.60536 273.121 2.6117 271.285 2.61595C271.163 2.6015 271.041 2.58705 270.919 2.57258C272.29 2.63096 271.869 2.39892 273.058 2.46807C273.258 2.47973 272.678 2.55925 273.938 2.51027C273.894 2.49138 273.849 2.47249 273.804 2.4536C274.088 2.45883 274.38 2.46403 274.662 2.46918ZM286.318 2.50552C283.996 2.47825 286.554 2.41021 286.982 2.46698C286.982 2.46698 286.981 2.46698 286.98 2.46698C288.156 2.62242 285.629 2.54723 285.474 2.54817C285.27 2.54951 284.792 2.66073 283.678 2.4983C284.558 2.50079 285.438 2.50318 286.318 2.50552ZM278.738 2.47475C278.933 2.47125 278.825 2.49941 278.909 2.49906C278.91 2.49907 278.911 2.49907 278.911 2.49907C280.153 2.49423 283.112 2.47007 283.43 2.56123C282.51 2.56889 278.394 2.58607 278.145 2.52351C278.343 2.50727 278.542 2.49102 278.738 2.47475ZM269.994 2.52502C269.234 2.46324 270.947 2.46159 271.4 2.49008C271.483 2.49623 270.789 2.58904 269.994 2.52502ZM211.51 1.03549C209.838 1.03589 212.032 1.11749 211.273 1.15715C211.592 1.15904 211.908 1.16036 212.233 1.16138C211.985 1.11956 211.758 1.07787 211.51 1.03549ZM134.929 2.28734C134.537 2.30689 134.724 2.3284 134.69 2.33115C134.432 2.34755 134.19 2.33651 134.09 2.34638C132.265 2.53129 133.483 2.47366 133.502 2.47865C133.543 2.50939 133.065 2.58268 133.734 2.5736C134.136 2.53333 134.539 2.49393 134.942 2.45527C135.143 2.46065 135.346 2.46605 135.547 2.47178C136.345 2.3807 135.298 2.43654 135.173 2.39184C135.126 2.37404 135.88 2.29965 134.929 2.28734ZM208.52 0.848011C208.25 0.89886 207.58 0.95163 208.232 1.03159C208.233 1.03162 208.233 1.03164 208.234 1.03166C208.353 1.04633 208.846 1.06714 208.995 1.08653C210.074 1.03761 209.665 0.946835 208.52 0.848011ZM142.164 1.76941C142.816 1.7509 143.466 1.73351 144.118 1.71691C144.108 1.75271 144.099 1.78851 144.09 1.8243C143.74 1.83106 143.393 1.83797 143.044 1.84525C142.922 1.86722 142.802 1.8892 142.68 1.91125C143.114 1.93046 143.548 1.95007 143.982 1.9701C144.502 1.93169 145.021 1.89387 145.542 1.85651C145.301 1.8486 145.061 1.84079 144.822 1.83307C146.093 1.755 145.82 1.85333 146.874 1.84027C147.233 1.79205 147.592 1.74399 147.951 1.69617C148.319 1.70383 148.686 1.71171 149.054 1.71975C149.208 1.72322 149.361 1.7263 149.515 1.72897C150.38 1.67165 150.454 1.64034 149.87 1.6338C150.298 1.56935 150.772 1.60979 151.291 1.55928C151.333 1.55515 151.25 1.52003 151.288 1.51713C153.976 1.3088 153.845 1.41362 154.277 1.38849C154.583 1.36858 155.798 1.20705 155.814 1.18182C155.837 1.14823 153.283 1.2004 157.265 0.912888C155.195 0.965951 152.876 1.23661 154.392 1.25409C153.739 1.2926 150.896 1.52589 150.717 1.52548C150.454 1.53484 150.543 1.47996 150.214 1.49677C150.074 1.50335 149.774 1.57968 149.049 1.6068C148.756 1.61755 148.395 1.6214 147.947 1.61178C147.749 1.63887 147.55 1.66602 147.35 1.69325C147.162 1.68588 146.975 1.67852 146.787 1.67128C147.17 1.59981 147.554 1.52855 147.937 1.45756C146.412 1.58127 145.139 1.5264 144.213 1.66387C143.407 1.69034 143.016 1.69864 143.36 1.63384C143.117 1.64539 142.877 1.65699 142.635 1.66878C142.478 1.70228 142.321 1.73582 142.164 1.76941ZM203.591 0.766269C202.793 0.686716 202.501 0.797578 202.625 0.807595C203.327 0.864139 204.004 0.80792 203.591 0.766269ZM136.385 2.25687C137.27 2.23256 138.154 2.21149 139.038 2.19295C139.036 2.15565 139.034 2.11836 139.032 2.08106C138.15 2.13691 137.268 2.19528 136.385 2.25687ZM211.758 0.956331C211.837 0.985835 211.916 1.01532 211.996 1.0448C212.303 1.01863 212.589 1.01576 212.882 1.02393C213.518 1.04184 214.072 1.11352 214.398 1.09761C214.501 1.09256 214.295 1.03999 214.098 1.02637C214.035 1.02196 213.456 1.00219 212.882 0.984744C212.35 0.968638 211.837 0.953331 211.758 0.956331ZM251.972 1.84385C251.612 1.84456 251.252 1.84535 250.891 1.84633C250.912 1.81586 250.934 1.78539 250.955 1.75492C251.135 1.75798 251.31 1.76079 251.489 1.76391C251.648 1.79042 251.814 1.81731 251.972 1.84385ZM247.869 1.70358C247.395 1.68332 246.921 1.66494 246.446 1.64875L246.568 1.65897C246.376 1.63214 246.187 1.61438 245.998 1.59864C246.216 1.61348 246.408 1.63036 246.57 1.65031L246.446 1.64002C248.094 1.66961 246.497 1.59964 247.873 1.61209C247.872 1.64259 247.871 1.67308 247.869 1.70358ZM241.364 1.37016C241.447 1.35313 241.528 1.33611 241.609 1.3191C242.24 1.33314 242.907 1.34983 243.54 1.36971C243.144 1.29198 242.729 1.21537 242.324 1.14003C242.073 1.13366 241.859 1.1285 241.615 1.12292C241.533 1.20532 241.449 1.28774 241.364 1.37016ZM117.685 4.27551C117.311 4.31914 116.013 4.47493 116.07 4.48832C116.613 4.4792 117.157 4.45927 117.703 4.42877C117.701 4.39127 117.7 4.35378 117.699 4.31629C117.777 4.32691 117.854 4.33749 117.933 4.34755C118.241 4.30002 118.547 4.24929 118.852 4.19578C119.012 4.20802 119.171 4.21974 119.33 4.2306C119.483 4.17178 119.632 4.11259 119.783 4.05262C118.288 4.19858 118.349 4.24086 118.04 4.27885C117.882 4.29609 117.781 4.28333 117.725 4.2775C117.711 4.27684 117.698 4.27618 117.685 4.27551ZM136.981 1.98174C135.139 2.08443 134.094 2.25484 132.754 2.27068C133.624 2.36951 139.126 1.84491 141.078 1.9017C141.278 1.86319 141.478 1.82482 141.679 1.78655C140.622 1.8649 139.885 1.84656 139.369 1.86639C138.958 1.88233 139.003 1.90953 138.971 1.91082C138.97 1.9109 138.968 1.91098 138.967 1.91107C138.006 1.95269 137.708 1.94186 136.981 1.98174ZM213.124 0.842027C213.051 0.83435 212.97 0.827596 212.885 0.821863C212.389 0.7887 211.765 0.788309 211.758 0.843521C212.129 0.865353 212.501 0.886553 212.884 0.907317C212.989 0.913054 213.094 0.918781 213.198 0.9245C213.099 0.906317 213.209 0.850966 213.124 0.842027ZM240.622 1.1735C240.246 1.14476 239.318 1.14695 239.714 1.21005C239.793 1.22123 240.696 1.19874 240.165 1.29004C241.04 1.30512 240.85 1.19027 240.622 1.1735ZM168.39 0.453062C168.709 0.443543 169.049 0.43431 169.366 0.426151C169.441 0.398457 169.517 0.370788 169.592 0.343144C169.194 0.378773 168.786 0.415495 168.39 0.453062ZM217.292 0.85954C217.715 0.993844 218.464 0.879611 219.264 0.996021C219.557 1.00085 219.865 1.00583 220.163 1.01065C220.163 1.01066 220.164 1.01067 220.165 1.01068C220.173 0.975804 220.182 0.940924 220.19 0.906044C219.217 0.890836 218.254 0.875393 217.292 0.85954ZM148.18 1.49648C148.381 1.50438 148.581 1.51237 148.781 1.52038C148.869 1.51206 148.957 1.50375 149.045 1.49545C149.308 1.47037 149.57 1.44409 149.833 1.41664C149.643 1.41254 149.453 1.4079 149.264 1.40254C149.19 1.40914 149.116 1.41564 149.042 1.42205C148.754 1.44676 148.467 1.47155 148.18 1.49648ZM222.54 0.919595C221.502 0.890117 221.106 0.996422 222.438 1.01399C223.001 1.02124 223.642 0.950494 222.54 0.919595ZM97.8792 4.39687C98.2338 4.41001 98.5916 4.42322 98.9527 4.43651C99.0769 4.41436 99.1972 4.39218 99.3187 4.37002C98.8416 4.37894 98.3532 4.38778 97.8792 4.39687ZM245.637 1.3478C245.586 1.36808 245.546 1.38918 245.503 1.41008C245.174 1.38602 244.846 1.36626 244.522 1.34839C244.602 1.32833 244.682 1.30839 244.77 1.28896C245.059 1.30618 245.351 1.32531 245.637 1.3478ZM100.289 4.43638C100.575 4.44388 100.858 4.45135 101.145 4.45886C101.338 4.4495 101.533 4.44018 101.725 4.43081C101.457 4.41667 101.186 4.40249 100.919 4.38836C100.708 4.40435 100.501 4.42039 100.289 4.43638ZM232.449 1.05202C232.047 1.01883 230.44 1.08707 231.887 1.12714C232.804 1.15264 232.512 1.05711 232.449 1.05202ZM234.615 1.05138C233.095 0.978277 234.228 1.26452 236.065 1.11304C234.227 1.11231 234.702 1.05589 234.615 1.05138ZM248.12 1.29813C248.159 1.29987 248.19 1.34012 248.499 1.35449C249.616 1.40594 251.077 1.49487 251.87 1.53707C253.553 1.62962 258.298 1.80456 259.845 1.93449L259.805 1.93328C260.001 1.94515 260.148 1.95808 260.227 1.97238C260.37 1.99841 260.04 2.06444 260.098 2.069C260.272 2.08234 261.244 2.0613 261.062 2.1111C260.637 2.10526 260.215 2.09883 259.803 2.0917L259.838 2.09279C259.297 2.0688 258.772 2.04514 258.232 2.02033C258.47 1.99416 258.705 1.96781 258.941 1.94138C256.559 1.85311 257.349 1.88589 256.66 1.93443C256.26 1.88435 255.86 1.83398 255.456 1.78316C254.581 1.7721 253.701 1.75952 252.82 1.7465C253.023 1.73333 253.218 1.71977 253.422 1.70658C252.1 1.59688 252.467 1.64358 251.74 1.66377C251.74 1.64037 251.739 1.61697 251.739 1.59357C250.457 1.58633 250.21 1.50513 249.931 1.49086C249.358 1.46468 248.622 1.69376 246.455 1.35667L246.608 1.36946C246.595 1.36613 246.581 1.36282 246.567 1.35951C245.482 1.38038 245.598 1.14199 245.012 1.24382C243.869 1.09638 245.079 1.09388 246.622 1.26632L246.458 1.25262C246.941 1.27065 247.427 1.29263 247.802 1.30837C247.803 1.3084 247.804 1.30843 247.804 1.30845C247.911 1.31304 247.743 1.28122 248.12 1.29813ZM240.083 1.1303C241.032 1.02496 237.294 0.950135 238.526 1.14605C238.705 1.15462 238.893 1.1634 239.079 1.17222C239.417 1.15804 239.743 1.14388 240.086 1.13034C240.085 1.13033 240.084 1.13032 240.083 1.1303ZM205.048 0.463195C201.582 0.399926 203.549 0.532593 204.726 0.503682C204.96 0.498136 205.088 0.484042 205.048 0.463195ZM134.343 2.05731C134.294 2.07529 134.245 2.09327 134.195 2.11126C135.355 2.01571 137.606 1.93661 137.569 1.84134C136.495 1.90846 135.418 1.98005 134.343 2.05731ZM143.526 1.47562C143.277 1.48128 142.258 1.51688 142.382 1.54769C142.826 1.55196 143.268 1.55677 143.71 1.56201C143.914 1.53608 144.12 1.51019 144.324 1.48445C144.038 1.49212 143.593 1.47397 143.526 1.47562Z" fill="#49606B"/>
</svg>
