<svg width="49" height="204" viewBox="0 0 49 204" fill="none" xmlns="http://www.w3.org/2000/svg">
<path id="Vector 5" d="M3.65389 4.52811C4.1251 6.37495 4.39461 7.95031 4.64162 9.46246C4.96258 11.4361 5.28936 13.314 5.91139 15.5012C6.60279 17.9958 7.6158 20.6831 8.35316 23.78C9.31233 28.0198 10.2026 32.3881 11.2367 36.5509C11.9049 39.2955 12.6968 41.8961 13.4965 44.3268C14.1761 46.4589 14.9989 48.6435 15.3714 51.1636C16.0565 55.5747 17.3895 60.14 18.5039 64.6484C18.5905 64.9939 18.6044 65.2071 18.6435 65.3649C18.704 65.6098 18.7726 65.8844 18.8449 66.1745C19.2065 67.6241 19.69 69.5298 19.9767 70.743C20.4666 72.8138 21.2058 75.9203 21.8266 78.5802C22.1082 79.782 22.4459 80.9117 22.7032 81.7979C23.0444 82.9589 23.4125 84.1816 23.458 84.6757C23.5808 85.1158 23.7266 85.3371 23.763 85.4521C23.7633 85.4534 23.7635 85.4548 23.7638 85.4561C23.883 85.8247 24.0684 86.8023 24.1177 87.0187C24.125 87.0512 24.1404 86.8376 24.2384 87.3676C24.2464 87.4155 24.2 87.3781 24.2892 87.826C24.3065 87.908 24.4892 88.6935 24.5811 89.3175C24.6163 89.5421 24.6467 89.7421 24.662 89.8572C24.8383 91.2013 25.1957 94.4307 25.3928 96.0502C25.4229 96.2975 25.4638 96.4376 25.4958 96.699C25.5123 96.8336 25.5111 97.04 25.5162 97.0814C25.5391 97.2629 25.7496 98.0464 25.4864 97.7875C25.5988 98.6182 25.6455 98.364 25.6971 98.3771C25.8094 99.2812 25.7492 99.7292 25.8902 99.9538C26.0606 101.543 26.2196 103.137 26.3351 104.754C26.5066 107.386 27.34 109.981 28.1948 112.762C28.2132 112.758 28.2315 112.754 28.2499 112.75C28.5663 114.052 28.8118 114.483 28.8956 115.278C29.008 115.661 29.1134 116.051 29.2084 116.447C29.2292 116.533 29.2498 116.618 29.2702 116.703C30.1189 121.322 30.5556 125.959 31.2502 130.43C31.845 134.468 32.9309 138.38 33.7283 142.573C34.2729 145.497 35.0909 148.428 35.8579 151.412C35.9818 151.895 35.975 152.025 36.1757 152.826C36.3706 153.605 36.6649 154.661 36.9067 155.715C36.9385 155.852 36.9698 155.989 37.0004 156.124C37.2243 157.122 37.5516 158.596 37.8487 159.698C37.9147 159.945 37.9905 160.122 37.9979 160.149C38.0429 160.313 38.0066 160.332 38.0502 160.491C38.1023 160.68 38.1982 160.907 38.2599 161.125C38.4922 161.95 38.7785 162.833 38.8114 162.939C38.9648 163.44 38.9626 163.558 38.9756 163.601C39.1501 164.158 39.1166 163.938 39.1592 164.076C39.3835 164.796 39.4674 165.327 39.8862 166.277C39.846 166.261 39.8057 166.245 39.7654 166.229C40.0086 166.983 39.9187 166.46 39.9868 166.608C40.0122 166.669 40.5754 168.283 40.6196 168.406C40.7716 168.844 40.7342 168.869 40.7472 168.906C40.7786 168.998 41.2214 170.075 41.388 170.657C41.5848 171.345 41.2199 170.583 41.2635 170.755C41.2713 170.784 41.5294 171.488 41.5346 171.59C41.5435 171.706 41.3301 171.093 41.3211 171.107C41.317 171.117 41.6118 172.155 41.5045 171.973C41.4118 171.821 40.9798 170.44 40.8552 170.157C40.8353 170.111 40.8188 170.217 40.8021 170.176C40.733 170.006 39.6111 166.897 39.5762 166.753C39.654 166.904 39.7346 167.063 39.8132 167.216C39.7398 167.001 39.6654 166.782 39.5935 166.568C39.7162 166.864 39.8437 167.169 39.9689 167.465C39.9872 166.948 39.3307 165.648 39.2209 165.618C39.1706 165.609 39.3504 166.486 39.0195 165.725C39.0495 165.848 39.0795 165.971 39.1094 166.093C39.2098 166.327 39.3147 166.572 39.4167 166.807C39.3714 166.642 39.3258 166.475 39.28 166.307C39.3136 166.363 39.3471 166.419 39.3806 166.475C39.559 166.923 39.7397 167.37 39.9238 167.822C39.9978 168.059 39.9431 168.022 39.9943 168.188C40.628 170.231 40.2716 168.88 40.7311 170.207C40.7803 170.406 40.8279 170.601 40.8756 170.798C40.9341 170.703 41.095 171.309 41.3783 172.02C41.3221 171.943 41.2655 171.866 41.2086 171.788C41.6059 172.811 42.0828 175.078 42.0656 174.439C42.1126 174.666 42.1569 174.899 42.1944 175.128C42.1993 175.158 42.2041 175.188 42.209 175.218C42.2789 175.422 42.348 175.625 42.4166 175.829C42.4737 176.117 42.5299 176.407 42.5846 176.696C42.5713 176.7 42.558 176.704 42.5447 176.708C42.4987 176.478 42.4519 176.248 42.4042 176.018C42.3988 176.2 42.3924 176.38 42.386 176.561C42.4269 176.729 42.4677 176.897 42.508 177.065C42.4059 176.346 42.6565 177.272 42.7544 177.488C42.8909 178.085 42.891 178.482 42.9254 178.684C42.9423 178.778 43.2711 179.869 43.0536 179.458C43.1748 180.028 43.2937 180.598 43.4113 181.167C43.4401 181.393 43.4688 181.619 43.4972 181.844C43.3483 181.37 43.5161 182.79 43.3088 181.759C43.1534 180.988 43.1792 180.787 43.1133 180.419C43.0538 180.088 42.982 179.92 42.9146 179.56C42.618 177.974 42.3496 176.579 42.0496 175.159C41.8819 174.373 41.6587 173.611 41.4107 172.827C41.2686 172.379 41.1113 171.985 41.011 171.688C40.8981 171.355 41.0931 171.755 40.9316 171.333C40.7637 170.897 40.6871 170.81 40.6458 170.697C40.6202 170.626 40.5714 170.378 40.4964 170.17C40.1833 169.303 39.6913 168.046 39.6495 167.926C39.5951 167.787 38.7761 165.329 38.7498 165.211C38.7326 165.148 38.9059 165.229 38.5867 164.739C38.5285 164.572 38.4691 164.4 38.4125 164.235C38.4479 164.254 38.4833 164.272 38.5187 164.291C38.0947 163.322 38.2608 163.65 37.9521 162.685C37.3555 160.818 36.6515 158.196 36.1448 155.884C36.0206 155.324 35.8945 154.785 35.772 154.282C35.6287 153.697 35.5416 153.482 35.3662 152.793C35.2043 152.151 34.8683 150.462 34.8285 150.859C34.5759 149.412 34.3168 149.238 34.2595 148.499C34.2194 148.418 34.1794 148.337 34.1393 148.256C34.0218 147.469 33.8931 147.25 33.68 146.415C33.5895 146.056 33.7709 146.452 33.5063 145.745C33.4806 145.605 33.4553 145.464 33.4303 145.323C33.4579 145.351 33.4854 145.379 33.513 145.406C33.312 144.602 33.3151 144.547 33.2589 144.656C33.187 144.262 33.1187 143.868 33.055 143.475C33.0204 143.431 32.9859 143.387 32.9515 143.344C32.8239 143.548 35.1933 152.388 35.5235 153.653C35.6443 154.24 35.8378 155.057 36.0312 155.909C36.3188 157.181 36.6774 158.509 36.8552 159.21C36.9744 159.679 36.9717 159.894 37.1547 160.574C37.3366 161.25 37.6381 162.08 37.7486 162.435C38.0812 163.63 40.0058 169.207 38.6325 165.436C38.6428 165.555 38.653 165.672 38.6633 165.789C39.2735 167.27 39.0288 166.741 39.4622 167.994C39.6453 168.522 40.1571 169.752 40.0121 169.725C39.6362 168.756 39.3004 167.704 39.0026 166.855C38.9726 166.772 38.5679 165.781 38.4102 165.256C38.2682 164.783 38.4874 165.068 38.0258 164.088C37.9074 163.287 37.658 162.883 37.5837 162.685C37.4551 162.34 37.5073 162.286 37.4104 161.934C37.3041 161.547 37.1885 161.303 37.1727 161.249C37.0085 160.731 36.2792 157.99 36.2847 157.856C36.3234 157.964 36.3622 158.072 36.401 158.18C36.2415 157.46 36.2149 157.625 36.1614 157.44C36.128 157.3 36.0949 157.16 36.0619 157.019C36.0886 157.072 36.1154 157.124 36.1421 157.177C35.9504 156.37 36.0336 156.93 35.811 155.958C35.7989 155.904 35.7858 155.846 35.7717 155.782C35.5996 155.008 35.4585 154.2 35.4365 154.126C35.4301 154.104 35.4539 154.355 35.3733 154.042C35.2403 153.524 35.0157 152.629 35.0372 152.517C34.9661 152.265 34.9254 152.299 34.9158 152.265C34.8761 152.118 34.2038 149.6 34.0848 149.152C33.7539 147.904 33.4099 146.512 33.0964 145.158C33.0642 145.019 33.114 145.101 33.0818 144.961C33.0275 144.738 32.7382 143.594 32.7041 143.422C32.6716 143.272 32.6264 143.035 32.5815 142.783C32.4968 142.305 32.3967 141.775 32.3642 141.66C32.3572 141.635 32.3921 142.021 32.2911 141.581C32.1778 141.093 32.2856 141.346 32.2809 141.319C32.0942 140.317 31.9157 139.698 31.758 139.024C31.7068 138.805 31.6569 138.392 31.5755 138.086C31.5662 138.051 31.5443 138.129 31.5346 138.095C31.41 137.633 31.3827 137.181 31.3429 136.979C31.2451 136.483 31.2528 136.763 31.2466 136.737C31.1727 136.409 31.0951 135.963 30.9875 135.464C30.6203 133.756 30.3451 132.287 30.0848 130.61C30.0059 130.1 29.928 129.571 29.8492 129.01C29.8067 128.709 29.7943 128.346 29.788 128.3C29.7681 128.157 29.73 128.204 29.6749 127.791C29.5594 126.921 29.4526 126.113 29.3408 125.248C29.3183 125.074 29.349 124.995 29.3325 124.862C29.2779 124.417 28.9693 122.912 29.0961 122.869C28.8587 122.001 28.8743 121.4 28.7663 120.689C28.5979 119.576 28.3368 118.05 28.0695 116.663C27.9305 115.937 27.7617 115.259 27.6146 114.696C27.5229 114.347 27.5084 114.175 27.4547 113.982C27.3633 113.631 26.7396 111.691 26.7144 111.591C26.664 111.389 26.8387 111.464 26.4086 110.482C26.2241 109.886 26.3061 109.94 26.2737 109.816C26.0223 108.848 25.6814 107.937 25.8434 108.085C25.5559 106.968 25.3876 106.235 25.4462 105.757C25.3979 105.768 25.3121 105.366 25.2796 104.832C25.2746 104.751 25.2701 104.666 25.2662 104.579C25.2874 104.676 25.3065 104.757 25.324 104.829C25.4378 105.252 25.4597 105.382 25.6616 106.743C25.6656 106.768 25.6167 106.728 25.6206 106.752C25.6557 106.98 25.7643 107.447 25.8467 107.832C25.9294 108.216 25.8547 108.01 25.8901 108.163C25.9233 108.304 25.9604 108.29 26.01 108.493C26.1715 109.152 26.3464 109.73 26.4552 110.105C26.5237 110.34 26.5689 110.614 26.6242 110.797C26.8351 111.505 27.3428 113.003 27.6058 113.932C27.6602 114.125 27.6008 114.054 27.7157 114.478C27.7288 114.528 27.8192 114.697 27.9243 115.071C28.0289 115.445 28.0777 115.744 28.1357 115.987C28.1832 116.192 28.2027 116.097 28.2892 116.521C28.2933 116.541 28.2997 116.574 28.308 116.618C28.4546 117.307 28.9992 120.794 29.0116 120.997C29.0485 121.303 29.0193 121.457 29.0522 121.642C29.0582 121.675 29.1149 121.723 29.1346 121.837C29.4679 123.709 29.9053 127.867 30.2318 129.985C30.2614 130.183 30.2911 130.377 30.3216 130.574C30.9351 134.722 32.0023 138.481 32.8162 142.74C32.8273 142.799 32.8385 142.859 32.8499 142.919C32.873 142.996 32.8963 143.073 32.9197 143.15C32.8933 143.012 32.8674 142.873 32.8422 142.735C32.7844 142.418 32.7248 142.105 32.6628 141.79C32.6849 141.782 32.707 141.775 32.7291 141.768C32.6098 141.15 32.5713 141.244 32.5429 141.267C32.51 141.037 32.4763 140.807 32.4419 140.577C32.3238 140.397 32.0445 138.879 31.8697 138.109C31.7568 137.607 31.594 137.018 31.5383 136.753C31.4206 136.194 31.4732 136.199 31.4643 136.155C31.4488 136.079 31.2385 135.311 31.1265 134.749C30.962 133.919 31.0164 133.815 30.7442 132.688C30.6399 132.006 30.5252 131.291 30.4121 130.56C30.2817 129.717 30.151 128.856 30.0312 128.004C30.142 128.298 29.8826 126.879 29.8002 126.232C29.4246 123.294 28.9958 119.822 28.3983 116.601C28.19 115.466 27.8986 114.394 27.6083 113.398C27.461 112.894 27.3837 112.507 27.2967 112.231C27.2496 112.082 27.1824 112.03 27.1243 111.821C27.1143 111.785 27.1496 111.745 27.0375 111.359C26.7409 110.397 26.0265 108.052 26.0179 107.432C25.8368 106.559 25.7056 105.685 25.6371 104.806C25.4355 102.268 25.1358 99.7584 24.8284 97.2532C24.8367 97.165 24.845 97.0767 24.8532 96.9883C24.6814 96.3488 24.4198 93.7728 24.2587 92.5225C24.135 91.5582 23.9923 90.4759 23.8542 89.406C23.6665 87.9556 23.3065 86.5891 23.0097 85.5197C22.894 85.1058 22.822 84.7611 22.7065 84.3739C22.6567 84.2074 22.5608 84.0107 22.5084 83.8384C22.0504 82.3283 21.4537 80.4295 21.0683 78.7602C20.9556 78.2742 20.8463 77.807 20.743 77.3728C19.8523 73.6319 19.0106 70.0703 18.1015 66.357C17.9219 65.6248 17.7356 64.8886 17.5449 64.1454C16.455 59.8364 15.1989 55.5526 14.5221 51.2863C13.5271 46.068 11.4424 41.6393 10.3839 36.7569C9.34145 32.5189 8.49 28.259 7.51555 23.9743C7.09238 22.158 6.51381 20.4218 5.96193 18.7035C5.89809 18.5056 5.93974 18.5029 5.89009 18.3486C5.59479 17.441 4.93022 15.4356 4.6523 14.409C4.42047 13.5924 4.15709 12.2748 4.0337 12.0066C4.61481 14.9587 5.66452 17.9752 6.60318 21.0403C6.66872 21.2586 6.63988 21.2967 6.64755 21.3241C6.7852 21.8262 6.74352 21.4947 6.95768 22.221C7.00448 22.3755 7.23242 23.3799 7.3701 24.008C7.4472 24.3498 7.51048 24.5734 7.53125 24.4678C7.61587 25.0199 8.41123 28.8315 8.58421 29.5578C8.63737 29.7803 8.63855 29.6144 8.64991 29.6583C8.69886 29.8468 8.66922 29.9457 8.70501 30.1166C8.80044 30.5732 9.09547 31.7263 9.14429 31.9449C9.25579 32.4533 9.55917 33.9775 9.72493 34.6427C9.87591 35.2517 9.90025 35.1266 10.0295 35.6531C10.1322 36.0692 9.98048 35.6247 10.1902 36.5569C10.2038 36.6169 10.2227 36.6962 10.2457 36.7902C10.396 37.4159 10.7419 38.6594 10.8348 38.9968C10.9381 39.3806 11.0256 39.8175 11.1803 40.3506C11.3966 41.1109 11.9216 42.7682 12.1815 43.5337C12.1962 43.5779 12.2719 43.6808 12.3077 43.7944C12.3823 44.0305 12.3107 43.9718 12.3645 44.1539C12.4136 44.3315 13.4451 47.4193 13.5942 47.9704C13.7046 48.3408 13.8062 48.5926 13.8626 48.7996C13.9068 48.9634 13.8714 48.9923 13.9145 49.1588C13.9279 49.2107 14.0785 49.6435 14.1742 50.0943C14.2199 50.3054 14.3151 50.817 14.376 51.3075C14.4331 51.7659 14.5006 52.2008 14.5159 52.2895C14.5364 52.4053 14.5427 52.2757 14.6039 52.6167C14.6612 52.9318 14.6631 53.1413 14.6983 53.3222C14.779 53.7359 14.9083 54.1916 15.0052 54.632C15.2864 55.8928 15.2321 55.8395 15.2467 55.9157C15.2919 56.1275 15.3542 56.2002 15.3714 56.2693C15.4437 56.5603 15.6243 57.2699 15.6905 57.5294C15.7722 57.8513 15.7661 57.9983 15.852 58.3416C15.9162 58.5972 16.0859 59.1036 16.2374 59.6863C16.5788 61.0001 16.9961 62.5626 17.3277 63.859C17.4267 64.2458 17.405 64.3146 17.4342 64.4326C17.588 65.056 17.716 65.3929 17.7604 65.5719C17.8201 65.8134 17.8867 66.0934 17.9556 66.3928C18.2494 67.6676 18.6075 69.34 18.8319 70.2931C18.9453 70.773 19.4772 72.8618 19.7535 74.0461C19.7852 74.1815 19.7261 74.0618 19.7665 74.2113C19.8632 74.569 19.9141 74.5215 19.9558 74.7048C19.9758 74.793 19.9905 75.0023 20.0483 75.2596C20.348 76.5956 20.5912 77.5055 20.7337 78.1133C20.7875 78.343 20.8414 78.5732 20.8949 78.8014C21.7079 82.2802 23.1745 85.7275 23.6469 89.4312C23.8934 91.488 24.147 93.5115 24.3859 95.4732C24.4614 96.0934 24.5913 96.8589 24.6676 97.8007C24.6523 97.8317 24.6371 97.8627 24.6218 97.8937C24.644 97.9242 24.6662 97.9548 24.6884 97.9856C24.823 99.0478 24.893 99.4457 24.9887 100.536C24.997 100.631 24.9423 100.924 25.0671 101.091C25.1027 102.177 25.1192 101.578 25.2064 102.378C25.292 103.18 25.3384 103.963 25.3917 104.745C25.3884 105.176 25.1566 103.385 25.1423 103.272C25.1254 103.083 25.1602 102.886 25.1455 102.702C25.1028 102.166 25.0077 101.654 25.0423 101.529C24.9205 100.843 25.0352 101.701 24.9812 101.62C24.9521 101.156 24.9215 100.694 24.8893 100.231C24.7143 100.014 24.6179 97.4497 24.5213 97.6409C24.5204 97.4356 24.5196 97.232 24.5185 97.0269C24.2666 96.1592 24.3054 95.627 24.2026 94.4423C24.1946 94.5296 24.1865 94.617 24.1785 94.7044C24.1678 94.6812 24.0089 93.6444 24.1342 94.0065C23.8974 92.9532 24.0761 92.976 23.8318 92.036C23.7451 91.4701 23.8602 91.803 23.733 90.7867C23.6825 90.382 23.6069 89.9115 23.5377 89.4445C23.5032 89.2096 23.4648 88.9755 23.4276 88.7502C23.4014 88.5923 23.4312 88.5152 23.4062 88.3749C23.3807 88.2346 23.3269 88.1728 23.2928 88.0045C23.2223 87.6552 23.1494 87.1999 23.0949 86.9853C23.0464 86.7924 22.9445 86.526 22.8169 86.0677C22.358 84.4744 22.5338 84.9464 22.4808 84.6893C22.4195 84.415 22.2962 84.2415 22.1417 83.7067C22.1262 83.6531 22.2096 83.7786 22.155 83.6056C22.1109 83.466 22.0447 83.4091 21.8941 82.9496C21.8281 82.7646 20.9594 79.923 20.8677 79.4881C20.8234 79.318 20.7692 79.0944 20.7136 78.8444C20.5481 78.1009 20.3383 77.1223 20.2137 76.599C20.1494 76.3287 20.0441 76.0483 19.9758 75.7601C19.7501 74.8072 19.39 73.2814 19.1026 72.0729C18.8443 70.9844 18.4652 69.0555 18.2477 68.4778C17.8683 66.9542 17.8376 66.566 17.8109 66.4525C17.8091 66.4448 17.8073 66.4371 17.8054 66.4296C17.7333 66.1352 17.6574 65.9963 17.5599 65.6147C16.4751 61.2954 14.8842 55.8454 14.1916 51.3341C14.0723 50.5045 13.8923 49.7225 13.6981 48.9992C12.4913 44.8727 11.0226 40.9578 10.0683 36.8331C9.02698 32.5976 8.17243 28.3269 7.19786 24.048C6.51345 21.1613 5.47585 18.439 4.6663 15.6658C4.63954 15.6418 4.61279 15.6178 4.58604 15.5938C4.95781 16.8946 5.42395 18.422 5.83085 19.7046C6.23348 20.9717 6.81855 22.6933 7.10138 24.0704C7.20102 24.547 7.27759 24.9752 7.31965 25.3169C7.22332 24.9233 7.11568 24.3334 7.04164 24.0842C7.0179 24.0039 6.99758 23.9586 6.9829 23.966C6.99257 24.0078 7.00214 24.0495 7.01159 24.0912C7.21378 24.9829 7.40632 25.876 7.59563 26.7687C7.61938 26.7342 7.64313 26.6998 7.66688 26.6655C7.8875 27.6384 8.09389 28.6367 8.30926 29.6123C8.3468 29.7825 8.34789 29.6565 8.37984 29.8035C8.41563 29.9684 8.36388 29.8626 8.37035 29.8935C8.46082 30.3124 8.51595 30.4309 8.52683 30.4829C8.55425 30.6139 8.50507 30.5163 8.58039 30.8965C8.71938 31.5982 8.90124 32.0817 8.74745 31.9439C8.79783 32.1709 8.84751 32.3936 8.89851 32.621C8.94341 32.6717 8.98836 32.7226 9.03338 32.7736C9.21689 34.1881 9.59268 34.7739 9.59328 35.5791C9.68044 35.8261 9.76683 36.0682 9.85493 36.3158C9.85693 36.4647 9.8589 36.613 9.86152 36.7635C9.89552 36.7847 9.92952 36.806 9.96354 36.8273C9.96576 36.8371 9.96799 36.8469 9.97022 36.8568C10.2761 38.2106 10.6855 39.6135 11.0531 40.8838C11.3119 41.7733 11.3661 41.9862 11.612 42.7698C12.1697 44.512 11.5633 42.7965 11.9724 44.2628C11.9802 44.1754 11.9891 44.0912 11.9976 44.0056C12.0864 44.2392 12.1768 44.4756 12.2674 44.7117C12.2957 44.8883 12.3228 45.0607 12.3516 45.2383C12.7335 45.9322 12.7787 46.45 12.8115 46.5514C12.8365 46.6313 13.0168 46.8866 13.2189 47.7946C13.2217 47.3906 13.4257 48.4754 13.4451 48.5597C13.4712 48.6402 13.7765 49.6674 13.8628 50.0997C13.922 50.3689 14.009 50.8906 14.0683 51.3519C14.0825 51.4601 14.0976 51.5661 14.1132 51.6647C14.1825 52.0956 14.2178 52.0471 14.223 52.0784C14.3174 52.6068 14.229 52.2837 14.2962 52.6659C14.3657 53.0532 14.4593 53.3433 14.4726 53.4262C14.4793 53.468 14.4143 53.3366 14.4488 53.5275C14.5408 54.0425 14.7747 54.9627 14.9094 55.5483C14.9565 55.7546 14.9867 56.0261 15.04 56.2555C15.1228 56.6112 15.204 56.7647 15.2528 56.9717C15.2696 57.0433 15.316 57.5149 15.4675 58.0801C15.4962 58.1871 15.7108 58.4701 15.6257 58.9393C15.6609 58.965 15.6961 58.9908 15.7313 59.0163C16.2824 60.8988 16.2047 61.4844 16.6175 62.2792C16.9538 63.6652 16.6324 62.7372 16.6601 62.8918C16.678 62.9911 16.8155 63.4368 16.827 63.4862C16.8472 63.5742 16.8191 63.5656 16.844 63.6617C17.3009 65.4218 17.1454 64.6285 17.3169 65.1801C17.4859 65.7267 17.6015 66.2365 17.6396 66.4704C17.6666 66.6357 17.6561 66.6661 17.5999 66.4801C17.5452 66.2995 17.4464 65.9105 17.2922 65.2441C17.2787 65.2475 17.2651 65.251 17.2515 65.2544C17.3349 65.5549 17.476 66.1125 17.5572 66.4906C17.628 66.8191 17.6572 67.0191 17.57 66.8017C17.5502 66.7521 17.5184 66.6471 17.4799 66.5095C17.2307 65.6096 16.6465 63.264 17.0098 64.9593C17.1042 65.4043 17.2136 65.6194 17.3067 66.4069C17.3184 66.4566 17.3303 66.5017 17.3423 66.5433C17.4526 66.9255 17.5788 67.0235 17.6841 67.6507C17.7003 67.5294 17.7155 67.4036 17.7315 67.2815C18.0157 68.2008 18.2183 69.3711 18.4151 70.0823C18.4819 70.3234 18.8993 71.1528 18.6438 70.9973C18.7552 71.4034 19.1787 73.343 19.2825 73.6972C19.3075 73.7823 19.4445 73.8685 19.7033 75.126C19.7102 75.2161 19.717 75.306 19.7238 75.3958C19.4122 74.2638 19.8512 76.2896 19.6166 75.7669C19.6192 75.5697 19.4324 74.6576 19.4212 74.5062C19.4025 74.2478 19.6313 74.9763 19.3921 74.0355C19.076 73.4818 19.5617 75.1646 19.3342 74.9438C19.7065 76.1651 19.6621 76.3067 19.7257 76.5878C19.9359 77.5153 20.1012 78.1748 20.2798 78.9474C20.3326 79.176 20.3896 79.4152 20.4523 79.6736C20.5025 79.7982 20.4184 79.4106 20.3214 78.9375C20.2122 78.4055 20.0709 77.7657 20.0316 77.6346C20.3738 78.5398 19.9977 76.9312 19.7646 76.2691C19.7874 76.2032 19.8104 76.1381 19.8333 76.0725C20.0236 76.9606 20.218 77.8244 20.4557 78.6925C20.4556 78.7527 20.4554 78.8128 20.4553 78.8726C20.3884 78.6824 20.3211 78.4898 20.2541 78.2988C20.3394 78.7505 20.3739 78.7518 20.419 78.9144C20.4473 79.0154 20.4791 79.1807 20.5385 79.5585C20.587 79.5778 20.6354 79.5966 20.684 79.6156C20.91 80.536 21.1706 81.4518 21.4367 82.3682C21.664 82.817 22.172 84.5879 21.968 84.2972C22.1733 85.012 21.9672 84.1149 22.191 84.7762C22.2886 85.0641 22.4538 85.6354 22.4635 85.7852C22.3479 85.7511 22.0926 84.9009 21.9461 84.665C22.0144 84.8124 23.0739 88.8056 22.8254 88.4793C22.8666 88.8061 22.9084 88.6447 23.0105 89.2315C23.0251 89.3198 23.0389 89.4107 23.0518 89.5036C23.2781 91.1456 23.472 93.5129 23.7732 94.7513C23.6661 93.1817 23.5167 92.7322 23.3647 91.5384C23.3276 91.2469 23.218 90.3877 23.1126 89.4962C22.9429 88.0378 22.5509 86.5334 22.7774 87.1491C22.7242 86.9837 22.6695 86.8183 22.6137 86.654C22.6027 86.4759 22.5905 86.2985 22.5771 86.1207C22.7087 86.5966 22.8322 87.0757 22.9428 87.5595C22.9362 87.6826 22.9285 87.8043 22.9201 87.927C22.9539 87.9758 22.9876 88.0247 23.021 88.0738C23.0659 88.2778 23.1081 88.4826 23.1472 88.6889C23.1098 88.6355 23.0722 88.5823 23.0344 88.5292C23.0853 88.8469 23.1288 89.1659 23.163 89.4857C23.1898 89.3955 23.2158 89.3045 23.2411 89.2128C23.2548 89.3086 23.2665 89.3961 23.2766 89.4762C23.4242 90.6438 23.3518 90.2543 23.382 91.0352C23.4512 91.6516 23.3936 90.6025 23.5737 91.9035C23.7833 93.4153 23.5463 92.4362 23.8145 94.3954C23.8366 94.4214 23.8587 94.4474 23.8807 94.4733C23.9156 94.9072 23.9503 95.3411 23.9846 95.7752C24.0007 95.7153 24.0168 95.6554 24.0329 95.5955C24.1337 96.4875 24.3249 97.7116 24.2686 98.0174C24.2053 97.108 24.0474 97.1367 24.0465 97.3748C24.045 97.7614 24.6145 102.268 24.8105 104.867C24.8665 105.57 24.9489 106.126 24.9939 106.42C25.2718 108.176 25.5894 109.494 26.132 111.032C25.8172 109.97 24.9062 106.205 24.9605 105.46C24.9583 105.387 25.1017 105.395 24.8996 104.946C24.8979 104.918 24.8962 104.889 24.8945 104.86C24.809 103.365 24.5866 101.599 24.3841 99.755C24.4324 99.8077 24.4806 99.8603 24.5288 99.9128C24.5697 101.079 24.8718 102.129 24.6942 101.996C24.7174 102.226 24.7402 102.458 24.7622 102.687C24.7903 102.685 24.8183 102.682 24.8463 102.679C24.8798 103.028 24.9118 103.376 24.9421 103.724C24.914 103.726 24.886 103.729 24.8579 103.731C24.883 104.02 24.9068 104.307 24.9292 104.597C24.9595 104.625 24.9898 104.653 25.0201 104.681C25.0205 104.731 25.0221 104.788 25.0247 104.851C25.0259 105.866 25.6475 108.308 25.2639 107.153C25.3371 107.549 25.4201 107.941 25.5116 108.334C25.5314 108.328 25.5511 108.322 25.5709 108.316C25.6127 108.483 25.6562 108.651 25.7008 108.818C25.6688 108.767 25.6371 108.716 25.6055 108.665C25.8262 109.427 25.9416 110.178 26.1527 110.662C26.0679 110.328 25.9855 109.992 25.9078 109.657C26.0542 110.301 26.4653 111.451 26.4984 111.556C26.597 111.874 26.6097 112.055 26.7149 112.401C26.8101 112.714 26.8272 112.661 26.8441 112.72C27.3285 114.42 26.9644 113.823 27.389 114.563C27.3855 114.655 27.3817 114.748 27.3776 114.84C27.4305 114.947 27.4831 115.055 27.535 115.163C27.6631 115.671 27.7787 116.183 27.8745 116.7C27.8748 116.702 27.8752 116.704 27.8755 116.706C27.8756 116.704 27.8756 116.702 27.8756 116.7C27.8772 116.522 27.8764 116.344 27.8736 116.167C27.9197 116.362 27.9522 116.534 27.9755 116.681C28.0431 117.11 28.0425 117.33 28.0516 117.387C28.086 117.598 28.1463 117.686 28.1582 117.752C28.6902 120.897 28.3285 118.993 28.4144 120.591C28.5631 121.141 28.5423 120.565 28.5951 120.475C28.6776 121.226 28.7294 121.456 28.8372 122.245C28.8651 122.451 28.8601 122.676 28.8775 122.806C28.8925 122.918 28.9778 123.263 29.0139 123.532C29.0744 123.981 29.1305 124.581 29.211 125.195C29.2785 125.706 29.5063 127.264 29.6572 128.351C29.7215 128.814 29.6754 128.711 29.6921 128.831C29.6991 128.881 29.7877 129.237 29.8312 129.533C29.8843 129.896 29.9381 130.259 29.9938 130.624C30.3074 132.695 30.6982 134.778 31.1517 136.822C31.5249 138.515 31.9604 140.23 32.2938 141.948C32.3645 142.314 32.2993 142.125 32.3291 142.285C32.3381 142.334 32.3884 142.384 32.4599 142.805C32.468 142.853 32.4765 142.906 32.4854 142.965C32.5163 143.168 32.4392 142.942 32.4751 143.141C32.4932 143.238 32.5405 143.271 32.6638 143.833C32.8911 144.853 32.9674 145.413 32.9889 145.504C33.0318 145.676 33.0543 145.617 33.1087 145.844C33.3759 146.955 33.6174 147.88 33.8753 148.87C33.995 149.331 34.8339 152.522 34.8679 152.702C34.9535 153.099 34.7902 152.751 34.919 153.255C34.9724 153.392 35.0256 153.529 35.0786 153.666C35.0369 153.438 34.9946 153.209 34.9519 152.981C35.0847 153.606 35.2884 154.301 35.3956 154.762C35.4151 154.844 35.5553 155.582 35.6468 155.994C35.6503 156.01 35.6537 156.025 35.6571 156.039C35.6525 156.024 35.648 156.01 35.6435 155.995C35.5966 155.842 35.5495 155.69 35.5019 155.537C35.5041 155.6 35.5062 155.663 35.5082 155.726C35.5315 155.819 35.5546 155.914 35.5774 156.009C35.748 156.722 35.9191 157.452 36.0961 158.171C36.1684 158.463 36.1152 158.369 36.1896 158.666C36.6338 160.388 36.6307 159.921 36.8859 161.625C36.7356 161.064 36.157 159.043 36.0939 158.741C36.0445 158.532 36.0298 157.685 35.9143 158.026C35.5155 156.368 35.9589 157.78 35.5792 156.237C35.5631 156.273 35.547 156.31 35.531 156.346C35.5035 156.238 35.4776 156.135 35.4534 156.037C35.3568 155.645 35.2843 155.335 35.2551 155.063C35.1207 154.977 34.7406 153.116 34.4708 152.111C34.0872 150.657 33.6236 149.024 33.2578 147.582C33.1317 147.086 33.1072 146.793 33.0918 146.731C33.0692 146.639 32.9689 146.392 32.9253 146.21C32.7538 145.53 32.373 143.437 32.1796 142.935C32.9434 147.031 34.1747 151.025 35.1178 155.09C35.0916 154.89 35.2203 155.37 35.3809 156.053C35.6337 157.149 36.0385 158.75 36.0725 158.879C36.1198 159.072 36.0415 158.92 36.054 158.978C36.1475 159.404 36.2982 159.753 36.3343 159.886C36.3622 159.989 36.392 160.199 36.4946 160.565C36.5133 160.631 36.5446 160.643 36.5647 160.714C36.697 161.185 36.831 161.649 36.9733 162.126C36.9816 162.155 36.9792 162.285 37.0148 162.404C37.0502 162.521 37.1248 162.63 37.1341 162.66C37.2484 163.038 37.4258 163.691 37.5401 164.047C37.5802 164.172 37.5801 164.077 37.6247 164.216C37.7621 164.642 37.6614 164.518 37.8495 165.042C37.9127 165.217 37.9488 165.188 38.0576 165.531C38.1342 165.771 38.052 165.769 38.0621 165.808C38.075 165.859 38.4152 166.663 38.4623 166.95C38.1309 166.407 38.6798 167.594 38.7135 167.516C38.8135 167.842 38.9173 168.176 39.0197 168.504C39.0732 168.611 39.1264 168.717 39.1794 168.822C39.5893 170.154 39.9218 170.936 40.3509 172.237C40.3732 172.296 40.708 173.407 40.668 173.359C40.4261 172.713 40.1975 172.063 40.1111 171.625C39.754 170.982 39.8407 170.936 39.4274 169.839C39.2878 169.469 39.2478 169.455 39.2321 169.413C38.6929 167.983 37.874 165.676 37.6508 164.661C37.5354 164.394 37.8513 165.387 37.7063 165.009C37.5942 164.812 36.0519 159.743 36.6413 161.335C36.5896 161.167 36.538 160.997 36.4879 160.831C36.338 160.692 36.1299 159.841 36.2581 159.91C36.2158 159.836 36.1735 159.762 36.1313 159.687C36.071 159.532 36.0125 159.349 35.9387 159.088C35.8221 158.677 35.5081 157.447 35.2116 156.091C34.7806 154.119 34.2163 151.938 34.1606 151.751C34.1346 151.75 34.1087 151.749 34.0827 151.748C34.4418 153.202 34.8111 154.627 35.1413 156.106C35.4135 157.326 35.712 158.57 36.031 159.878C36.031 159.788 36.031 159.698 36.0312 159.608C36.3055 160.766 36.6039 161.919 36.9232 163.066C36.5073 161.875 35.9269 159.955 35.6389 158.66C35.5877 158.432 35.6612 158.59 35.6519 158.537C35.6278 158.399 35.5349 158.265 35.4093 157.772C35.3105 157.388 35.1364 156.534 35.057 156.125C35.0353 156.015 35.0199 155.939 35.0142 155.914C34.9633 155.696 34.7648 155.121 34.6769 154.75C34.5615 154.262 34.6785 154.58 34.6559 154.482C34.5624 154.076 34.4538 153.718 34.3777 153.401C34.2654 152.929 34.0838 151.936 33.8984 151.634C33.9806 151.97 34.0622 152.307 34.1429 152.644C33.644 150.833 33.3885 149.381 32.8387 147.606C32.6147 147.227 33.0044 148.712 32.6372 147.466C32.6958 147.694 32.755 147.922 32.8146 148.15C32.8536 148.198 32.8925 148.245 32.9315 148.292C33.0134 148.689 33.0963 149.086 33.1798 149.483C33.1735 149.365 33.1671 149.248 33.1608 149.13C33.5379 150.516 33.9272 151.911 33.928 152.426C33.9647 152.447 34.0014 152.468 34.0381 152.489C34.3364 153.786 34.9148 155.697 34.6645 155.373C34.6874 155.432 34.7102 155.491 34.733 155.55C34.8434 156.153 34.8635 156.092 34.9008 156.16C34.9122 156.181 34.9252 156.215 34.9427 156.285C34.9609 156.372 35.2845 157.91 35.0761 157.242C35.3958 158.742 35.4436 158.247 35.5508 158.652C35.7111 159.624 36.3029 161.295 35.9839 160.612C36.0188 160.755 36.0537 160.896 36.0887 161.037C36.3135 161.474 36.3395 161.957 36.4543 162.468C36.5024 162.635 36.552 162.806 36.6017 162.976C36.6677 163.08 36.7336 163.183 36.7996 163.285C37.1486 164.914 37.3981 164.28 37.2934 165.114C37.2361 165.009 37.1783 164.901 37.1213 164.796C37.026 164.536 36.9285 164.267 36.8347 164.006C37.1671 165.083 37.5204 166.163 37.8832 167.23C38.2616 168.614 38.6457 169.345 39.1072 170.86C39.167 170.998 39.2259 171.134 39.284 171.268C39.1576 171.156 38.9758 170.61 39.3005 171.629C39.2773 171.734 39.0285 171.058 38.9574 170.732C38.9404 170.653 39.21 171.272 38.955 170.56C38.7797 170.071 39.0346 170.979 38.5319 169.513C38.5383 169.571 38.5446 169.63 38.5508 169.688C38.4946 169.532 38.437 169.371 38.3803 169.212C38.3606 169.062 38.3405 168.91 38.32 168.757C38.1464 168.41 38.0108 168.23 37.7314 167.391C37.8286 167.607 37.7845 167.286 37.639 166.869C37.6168 166.877 37.5947 166.885 37.5725 166.892C37.2149 165.898 37.3982 166.222 37.0675 165.404C37.0575 165.315 37.0476 165.225 37.0376 165.136C36.8108 164.707 36.2305 163.031 36.4385 163.307C36.1833 162.866 35.9347 161.852 35.9153 161.455C35.8847 161.432 35.8541 161.41 35.8235 161.388C35.7612 161.187 35.7021 160.996 35.6418 160.797C35.6244 160.682 35.607 160.566 35.5899 160.451C35.538 160.315 35.4862 160.178 35.4345 160.04C35.4341 159.949 35.4337 159.857 35.4334 159.765C35.3454 159.543 35.2599 159.328 35.1737 159.105C35.1557 158.961 35.1377 158.815 35.1211 158.673C35.0684 158.673 34.7179 157.288 34.6635 156.893C34.6232 156.781 34.583 156.668 34.543 156.555C34.5528 156.493 34.5627 156.431 34.5726 156.369C34.5538 156.328 34.5351 156.286 34.5164 156.245C34.4979 156.204 34.4794 156.164 34.4609 156.124C34.4354 155.925 34.4092 155.726 34.3823 155.526C34.087 154.757 34.1755 154.709 34.1317 154.528C34.0508 154.192 33.6963 153.064 33.6504 152.872C33.6054 152.68 33.6214 152.578 33.5857 152.423C32.9907 149.861 33.1532 150.934 33.0043 150.428C32.9232 150.154 32.9093 149.949 32.8417 149.705C32.7242 149.291 32.1382 147.184 32.1168 147.058C32.0803 146.878 32.3565 147.255 32.1711 146.687C32.0709 146.69 31.875 145.424 31.8797 146.036C31.7715 145.52 31.6678 145.003 31.5704 144.483C31.4713 144.565 31.4061 143.912 31.2693 143.213C31.2581 143.156 31.246 143.094 31.2332 143.03C31.037 142.003 30.5607 140.097 30.6833 140.147C30.6064 139.922 30.5289 139.697 30.4511 139.471C30.1337 137.881 29.7365 136.322 29.4162 134.724C29.1608 133.455 28.9275 132.145 28.7253 130.821C28.1723 127.204 27.8013 123.502 27.2717 120.076C27.2373 119.851 27.2802 119.877 27.255 119.715C27.1672 119.146 26.96 117.978 26.7516 116.913C26.652 116.4 26.5355 115.912 26.4413 115.53C26.3504 115.163 26.3361 114.974 26.3058 114.857C26.2013 114.46 26.1792 114.567 26.1285 114.384C26.0532 114.098 25.6252 112.557 25.463 112.021C25.3839 111.757 25.2502 111.456 25.1684 111.141C25.1613 111.114 25.2147 111.152 25.2086 111.129C25.044 110.559 25.1125 110.911 25.0573 110.718C24.6666 109.34 24.2817 107.83 24.0752 106.252C24.0225 105.866 23.9887 105.27 23.9685 104.929C23.9682 104.925 23.968 104.922 23.9678 104.918C23.9595 104.796 23.9462 105.02 23.9158 104.593C23.9051 104.446 23.941 104.396 23.9299 104.229C23.8811 103.517 23.7314 103.293 23.7752 102.672C23.6569 101.493 23.3953 99.4417 23.2667 98.3644C23.2366 98.1091 23.2453 97.9829 23.216 97.7397C23.1952 97.5669 23.1229 97.2685 23.09 96.9995C23.0572 96.7308 23.0401 96.3017 22.9754 95.7847C22.9074 95.2401 22.803 94.5653 22.7878 94.4423C22.7694 94.2939 22.8043 94.2194 22.7853 94.0713C22.7282 93.6229 22.5356 92.4267 22.4591 91.8487C22.377 91.2281 22.3518 90.8514 22.3253 90.6397C22.3004 90.443 22.2355 90.2173 22.2242 90.1281C22.2065 89.9883 22.2452 89.9492 22.2232 89.7718C22.2164 89.7173 22.2087 89.6628 22.2003 89.6072C22.1651 89.3786 22.1124 89.1292 22.0546 88.7933C21.4878 85.5866 20.2136 82.4676 19.4261 79.1501C18.4444 74.9873 17.4805 70.8527 16.4939 66.7515C16.4553 66.5914 16.4161 66.43 16.3765 66.268C16.1739 65.4408 16.0262 64.9813 15.7251 63.7584C15.6029 63.263 15.6996 63.4594 15.5919 63.0771C15.5437 62.9065 15.521 62.9584 15.4631 62.742C15.2069 61.7849 14.9483 60.6568 14.841 60.2401C14.7983 60.0744 14.7114 59.8962 14.6242 59.5563C14.0083 57.1276 13.2879 54.2721 12.8722 51.5249C12.8564 51.4168 12.8393 51.3091 12.8211 51.2016C12.6059 49.8109 11.9176 47.7118 11.379 46.0973C10.4116 43.2169 9.46504 40.1305 8.75593 37.15C8.36445 35.5273 8.00094 33.9493 7.66873 32.4644C7.05801 29.7492 6.49829 27.0328 5.8746 24.3549C5.03046 20.8719 3.63009 17.3998 2.73258 13.7603C3.37758 16.7652 4.85946 20.6737 5.66548 23.84C5.70959 24.0171 5.75262 24.1965 5.79321 24.3738C6.72717 28.5189 7.59507 32.8561 8.65963 37.1733C9.73744 42.1056 11.9226 46.9301 12.7699 51.5396C12.8357 51.9935 12.9112 52.4421 12.9928 52.8885C13.6332 56.3641 14.7945 60.5896 15.7134 64.2667C15.7552 64.4334 15.8732 64.7698 15.9618 65.1312C15.9806 65.2066 16.166 66.1689 16.2436 66.4874C16.2529 66.3413 16.3034 66.5153 16.3634 66.7836C16.4384 67.1189 16.5299 67.6054 16.5839 67.8215C16.7059 68.3089 17.0023 69.3199 17.2509 70.4735C17.4764 71.5196 17.3703 71.2424 17.3818 71.3001C17.4551 71.6717 17.5456 71.7858 17.6193 72.0669C17.8537 72.9592 18.7406 76.7579 19.3048 79.1789C19.4709 79.889 19.6321 80.4733 19.7358 80.8426C19.8577 81.2726 19.8248 81.295 19.8526 81.3916C19.9272 81.6473 20.0721 81.9982 20.1952 82.403C20.4174 83.1333 20.6401 83.9756 20.7594 84.372C21.0498 85.3206 21.6106 87.0979 21.8411 88.32C21.9076 88.6638 21.8618 88.649 21.8893 88.8046C21.9237 89.0037 21.975 89.2959 22.0215 89.629C22.1403 90.4879 22.3045 91.6141 22.3838 92.2477C22.5657 93.7029 22.7269 95.2018 22.9192 96.6773C22.9126 96.7732 22.9059 96.8691 22.8992 96.9648C22.9358 97.1099 22.9726 97.2557 23.0091 97.401C23.2918 99.8988 23.6254 102.439 23.8096 104.908C23.8103 104.918 23.8111 104.928 23.8119 104.94C23.8235 105.308 23.9684 106.703 24.0185 106.937C24.0525 107.14 24.1318 107.332 24.1838 107.632C24.2595 108.051 24.0916 107.678 24.2633 108.353C24.3112 108.534 24.3058 108.35 24.4021 108.711C24.4168 108.841 25.0663 111.129 25.1112 111.242C25.1679 111.445 25.1479 111.648 25.1621 111.7C25.2365 111.973 25.2906 111.943 25.3516 112.122C25.5324 112.649 25.7067 113.348 25.733 113.433C26.0159 114.314 26.4933 115.831 26.6838 116.926C26.719 117.118 26.7494 117.295 26.7748 117.456C26.7993 117.611 26.7516 117.601 26.7552 117.628C26.7777 117.804 26.8473 117.903 26.8781 118.07C27.0441 118.961 27.2362 120.373 27.3598 121.28C27.3742 121.384 27.4309 121.601 27.4554 121.788C27.592 122.843 27.5034 122.508 27.5105 122.568C27.5261 122.71 27.604 122.955 27.658 123.333C27.7986 124.308 28.0335 126.189 28.1704 127.245C28.2729 128.035 28.2229 128.03 28.2288 128.082C28.2422 128.194 28.3231 128.497 28.4008 129.017C28.5522 130.019 28.4989 129.91 28.5617 130.322C28.5671 130.357 28.5952 130.291 28.6692 130.748C28.6734 130.773 28.6777 130.8 28.6821 130.827C28.8244 131.75 29.1251 133.653 29.3133 134.565C29.3857 134.925 29.4392 135.004 29.516 135.374C29.6363 135.959 29.8853 137.282 29.9092 137.385C29.9156 137.414 29.9715 137.47 30.0094 137.641C30.051 137.827 30.0711 138.017 30.1023 138.156C30.2822 138.95 30.6559 140.292 30.4239 139.948C30.5162 140.192 30.6079 140.437 30.6986 140.681C30.866 141.477 31.0262 142.258 31.1729 143.041C31.3356 143.908 31.5221 144.766 31.7219 145.625C31.8088 145.999 31.854 146.316 31.9306 146.63C32.0051 146.945 32.3952 148.312 32.4559 148.54C32.5603 148.952 33.1692 151.266 33.2396 151.553C33.3789 152.116 33.4571 152.675 33.5268 152.9C33.5826 153.081 33.5742 152.903 33.6719 153.249C33.8419 153.849 34.0456 154.886 34.0887 155.071C34.1071 155.149 34.1013 154.995 34.2733 155.733C34.328 155.97 34.356 156.143 34.3767 156.276C34.3914 156.369 34.4027 156.442 34.4163 156.502C34.4273 156.548 34.4573 156.471 34.6369 157.273C34.7635 157.832 34.784 158.069 34.7986 158.13C34.8199 158.218 34.911 158.421 34.9972 158.767C35.1977 159.587 35.5576 161.081 35.781 161.85C35.8237 161.998 35.8544 161.934 36.0264 162.527C36.1491 162.946 36.0911 162.887 36.1376 163.045C36.2118 163.296 36.3723 163.656 36.5451 164.203C36.7361 164.913 38.4753 169.994 38.5681 170.252C38.6218 170.426 38.6965 170.635 38.7072 170.727C38.6615 170.66 38.6156 170.592 38.5695 170.524C38.3593 169.733 38.3936 170.067 38.3151 169.865C38.2014 169.574 37.8091 168.451 37.6951 168.181C37.6548 168.087 37.6926 168.324 37.4878 167.811C37.2686 167.26 37.2541 166.98 37.0787 166.794C36.9148 165.959 36.541 165.224 36.8217 166.166C36.9577 166.702 38.7462 171.732 39.0723 172.724C39.3121 173.434 39.7517 174.688 39.9478 175.614C39.9789 175.757 40.0084 175.897 40.0348 176.027C40.1627 176.64 40.4548 178.16 40.3862 178.107C40.4846 178.657 40.4279 178.066 40.4576 178.179C40.5219 178.416 40.8023 180.141 40.8606 180.468C41.1575 182.074 41.5659 184.103 41.7714 185.691C41.7439 185.62 41.7164 185.549 41.6888 185.478C41.5997 185.129 41.3555 183.483 41.2527 183.311C41.451 184.457 41.648 185.606 41.8527 186.758C42.0791 188.032 42.343 189.304 42.6536 190.568C42.6823 190.513 43.5011 193.497 43.5397 193.639C43.4953 193.596 43.451 193.553 43.4067 193.509C43.0133 191.799 42.9236 191.987 42.7045 190.829C42.5902 190.364 42.5778 190.516 42.5133 190.289C41.9002 188.021 42.591 190.232 42.1702 188.488C42.2096 189.031 41.8862 187.598 41.7658 186.952C41.7615 186.93 41.7505 186.869 41.735 186.778C41.6473 186.274 41.4166 184.871 41.3829 184.681C41.1585 183.418 40.7477 181.265 40.5585 180.017C40.3845 179.037 40.2339 178.509 40.0497 177.629C39.9086 176.962 39.9811 177.148 39.918 176.833C39.7992 176.247 39.6651 176.03 39.6772 175.673C39.6797 175.633 39.6843 175.591 39.6911 175.545C39.5814 175.146 39.4485 174.734 39.3052 174.323C39.3277 174.316 39.3501 174.31 39.3725 174.303C39.2938 174.041 39.2096 173.775 39.1219 173.507C39.0732 173.434 39.0262 173.366 38.9778 173.294C38.7215 172.435 38.8929 172.77 38.9013 172.589C38.8417 172.402 38.7818 172.218 38.7199 172.029C38.6219 171.904 38.5229 171.778 38.4229 171.649C38.1312 170.82 37.8304 169.983 37.5326 169.14C37.535 169.078 37.5373 169.015 37.5396 168.952C37.5169 168.958 37.4943 168.964 37.4717 168.97C36.9575 167.55 36.452 166.107 35.981 164.657C35.817 164.284 36.5541 166.615 36.6181 166.789C36.934 167.766 37.8924 170.31 37.8143 170.337C38.09 170.913 38.7102 172.686 38.816 173.253C38.5418 172.422 38.2474 171.592 37.9468 170.746C37.9305 170.783 37.9141 170.819 37.8977 170.856C37.6236 169.765 37.5617 169.617 37.0718 168.56C37.1067 168.546 37.1416 168.533 37.1765 168.519C36.7809 167.801 36.5237 166.371 36.36 166.385C36.2335 165.97 36.1097 165.557 35.9866 165.138C35.6891 164.253 35.9789 165.689 34.964 162.154C34.8967 161.911 34.9506 161.951 34.8423 161.583C34.8125 161.478 34.578 160.891 34.2771 159.723C34.2306 159.541 34.2614 159.519 34.2169 159.328C34.1135 158.889 33.8319 158.032 34.0405 158.402C33.6548 156.66 33.7397 157.4 33.5776 156.869C33.505 156.626 33.5212 156.575 33.511 156.468C33.5069 156.421 33.4974 156.363 33.4716 156.27C33.3676 155.904 33.3714 156.191 33.0478 154.701C33.0926 154.867 33.1369 155.032 33.1809 155.197C33.1791 155.109 33.1772 155.021 33.1752 154.933C32.9276 154.096 33.0084 154.16 32.8082 153.785C32.6993 153.157 32.5666 152.622 32.3387 151.776C31.8942 150.128 32.0038 151.008 31.6603 149.071C31.5606 148.768 31.4613 148.463 31.3629 148.159C31.2786 147.637 31.435 148.038 31.2581 147.271C31.2966 147.896 30.9427 146.272 30.7867 146.015C30.8029 145.981 30.8191 145.947 30.8354 145.913C30.7959 145.74 30.7569 145.567 30.7185 145.393C30.7 145.397 30.6815 145.401 30.663 145.404C30.6256 145.17 30.5892 144.935 30.554 144.7C30.4989 144.529 30.4445 144.357 30.3907 144.185C30.371 143.889 30.3534 143.591 30.3382 143.294C30.3327 143.261 30.3272 143.229 30.3218 143.197C30.298 143.054 30.2741 142.914 30.2494 142.772C30.2323 142.832 30.2149 142.891 30.1975 142.95C30.1655 142.729 30.1324 142.507 30.098 142.285C30.1026 142.55 30.0212 142.4 29.8824 141.714C29.7651 141.147 29.9965 141.768 29.6947 140.553C29.6726 140.468 29.5761 140.335 29.3044 139.17C28.9765 137.768 29.178 138.439 29.1234 138.188C29.1126 138.138 28.9824 137.714 28.8879 137.308C28.8346 137.079 28.813 136.849 28.8064 136.819C28.7744 136.677 28.7264 136.641 28.6828 136.445C28.5712 135.942 28.4492 135.258 28.349 134.761C28.3028 134.532 28.2394 134.327 28.2193 134.224C28.1889 134.067 28.1861 133.862 28.1563 133.702C28.0451 133.116 27.7749 132.243 27.8917 131.94C27.7831 131.699 27.7212 131.32 27.68 130.983C27.6298 130.572 27.6102 130.23 27.562 130.286C27.3653 128.766 26.7352 124.803 26.9171 124.903C26.6629 124.082 26.7767 124.145 26.7277 123.794C26.6726 123.403 26.6721 123.609 26.6311 123.298C26.5351 122.572 26.4493 121.88 26.3424 121.163C26.3823 121.272 26.4222 121.382 26.4617 121.491C26.3568 120.736 26.3429 121.004 26.2133 120.239C25.9686 118.837 26.1048 119.423 26.1316 119.205C26.0854 119.268 25.8064 117.617 25.7791 117.448C25.7668 117.361 25.8834 117.669 25.7754 117.098C25.7599 117.017 25.7388 116.916 25.7097 116.791C25.6974 116.847 25.6849 116.903 25.6721 116.959C25.6292 116.53 25.2924 115.366 25.238 115.161C25.2169 115.069 25.258 114.519 24.9756 114.101C24.9813 114.038 24.9868 113.976 24.9923 113.913C24.8097 113.408 24.6199 112.896 24.4295 112.376C24.4436 112.279 24.4577 112.183 24.4719 112.086C24.4199 111.917 24.3684 111.748 24.3168 111.578C24.3152 111.702 24.3138 111.825 24.3124 111.948C24.0039 110.905 23.5867 109.584 23.6569 109.325C23.5754 109.096 23.4958 108.864 23.4188 108.63C23.4243 108.464 23.4314 108.301 23.4396 108.135C23.2058 107.022 23.184 107.003 23.0296 106.228C23.066 106.254 23.1025 106.281 23.139 106.307C23.0699 105.987 22.9897 105.513 22.9347 105.005C22.895 104.655 22.8548 104.281 22.8238 103.952C22.7905 103.592 22.7769 102.966 22.7643 102.881C22.7526 102.796 22.4912 101.961 22.6339 101.855C22.4361 100.608 22.4404 100.048 22.3813 99.5376C22.3423 99.206 22.2884 99.06 22.2409 98.6851C22.1729 98.1496 22.1261 97.608 22.0863 97.2983C22.0634 97.1212 22.0238 97.0927 22.008 96.9706C21.9325 96.3932 22.0101 96.7278 21.9333 96.1186C21.9261 96.0625 21.8281 95.6224 21.7716 95.1193C21.74 94.8381 21.6986 94.1053 21.6905 94.0408C21.6542 93.7563 21.5849 93.9962 21.5764 93.0089C21.5614 93.0394 21.5463 93.07 21.5313 93.1006C21.3339 91.9012 21.3933 91.7012 21.3687 91.456C21.3653 91.4247 21.297 91.1355 21.2796 90.9585C21.2505 90.6613 21.2795 90.535 21.2734 90.4691C21.2616 90.3426 21.2216 90.0507 21.1851 89.7308C21.1587 89.4951 21.1268 89.2361 21.111 89.0246C21.0172 89.1431 20.6501 87.5378 20.6782 87.1308C20.5772 86.845 20.4718 86.5583 20.3631 86.271C20.3487 86.1312 20.3337 85.9913 20.3179 85.8507C20.2721 85.7753 20.2262 85.7004 20.18 85.6252C20.1039 85.1781 20.0216 84.7271 19.9365 84.2726C19.8787 84.2596 19.8208 84.2467 19.763 84.2338C19.7309 84.109 19.6987 83.984 19.6663 83.8586C19.6757 83.75 19.6851 83.6412 19.6944 83.5323C19.6391 83.3795 19.5838 83.2262 19.5284 83.0724C19.4882 83.0424 19.448 83.0124 19.4079 82.9824C19.1196 82.1449 19.514 82.5151 18.8028 80.9384C18.7531 80.6743 18.7048 80.4079 18.659 80.1401C18.5436 79.9755 18.4706 79.6923 18.4063 79.3922C18.3693 79.2177 18.3328 79.0335 18.2893 78.8712C18.2084 78.5695 18.1687 78.5978 18.0696 78.1849C17.9705 77.7719 18.0161 77.7772 18.0087 77.745C17.9312 77.4071 17.8339 77.1624 17.7828 76.9144C17.7751 76.8771 17.8027 76.7714 17.7312 76.4566C17.6594 76.1409 17.5614 75.9645 17.4598 75.4933C17.4079 75.2525 17.4332 75.1724 17.3863 74.959C17.1627 73.94 16.706 72.9698 16.7762 72.149C16.7033 71.9856 16.2931 70.7692 16.1713 70.2363C15.982 69.4065 16.1087 69.7147 16.0381 69.3828C16.0279 69.3351 15.9506 69.0875 15.7854 68.3946C15.7556 68.2697 15.7348 68.3055 15.73 68.2878C15.6501 67.9583 15.5423 67.4992 15.428 67.0132C15.2644 66.3169 15.0815 65.5587 14.9506 65.0369C14.931 64.9585 14.7482 64.5661 14.6715 63.8391C14.3267 62.8217 13.9795 60.8188 13.5131 59.4639C13.4619 59.2722 13.4313 59.0333 13.4088 58.9477C13.2182 58.2165 13.1947 58.5088 12.9181 56.8098C12.9073 56.9554 12.7742 56.5738 12.6501 56.0177C12.4657 55.181 12.6794 55.7551 12.524 55.0835C12.5011 55.0885 12.4783 55.0935 12.4555 55.0985C12.1901 53.5496 12.0232 53.2453 11.778 51.683C11.7747 51.6606 11.7713 51.6379 11.7679 51.6149C11.6999 51.1298 11.5863 50.3834 11.5557 50.2633C11.5463 50.2164 11.3526 49.6811 11.336 49.6275C11.254 49.3299 11.2305 49.1537 11.1541 48.8923C10.9025 48.0321 10.4815 46.9961 10.6713 47.1461C10.565 46.9097 10.4581 46.674 10.3514 46.4392C10.1803 45.4661 9.76389 44.8199 9.83265 44.5828C9.75059 44.4213 9.66994 44.2633 9.58872 44.1024C8.89175 41.8988 8.26344 39.6617 7.72637 37.3987C7.27679 35.5101 6.85048 33.6193 6.44164 31.727C6.36131 31.573 5.98658 29.7721 5.97437 29.6797C5.91421 29.2518 6.10444 29.6758 5.89772 28.8202C5.83586 28.7342 5.77396 28.6481 5.71196 28.5615C5.46616 27.4858 5.61893 27.9948 5.5553 27.5641C5.51161 27.387 5.49201 27.4518 5.43753 27.2122C5.29029 26.5657 5.07193 25.5835 4.84011 24.5949C4.61953 23.6511 4.32976 22.6748 4.11764 21.9889C4.0326 21.7147 4.07423 21.7463 4.04766 21.6605C3.97456 21.4263 3.78958 20.9704 3.63544 20.4931C2.68725 17.6317 1.38383 13.3753 0.86302 10.1607C0.848381 10.077 0.83405 9.9943 0.820022 9.9128C0.783464 9.69967 0.814692 9.6657 0.790605 9.52145C0.757161 9.32266 0.649247 8.88156 0.616032 8.67136C0.584857 8.47534 0.590061 8.34146 0.55752 8.1321C0.407065 7.16621 0.149663 5.8831 0.0526523 4.86815C0.0460264 4.77967 -0.00271863 3.71237 0.000136018 3.69069C0.0268947 3.54359 0.307054 4.43463 0.0772064 2.92642C0.42025 4.25432 0.497193 3.77352 0.143999 2.0746C0.38126 2.89714 0.565758 3.79036 0.74324 4.68561C0.758614 4.68421 0.773987 4.68281 0.789361 4.68142C0.713618 3.85389 0.605396 3.01945 0.295962 1.85984C0.319703 1.8912 0.343466 1.92326 0.367243 1.95602C0.717695 2.96412 0.963089 4.30661 1.20605 5.13007C1.05773 3.88242 0.918958 2.62946 0.632751 1.45237C0.661885 1.50725 0.68956 1.55938 0.717894 1.61544C0.921416 2.16216 1.20351 3.44325 1.31829 3.92931C1.76976 5.78882 1.08014 2.27292 1.24426 2.84169C1.65668 4.81378 1.94354 6.82332 2.29884 8.82106C2.34532 8.87909 1.20427 1.18054 1.15297 1.24997C1.35754 1.86251 1.50661 2.48432 1.64527 3.10952C1.62279 2.82181 1.59799 2.53829 1.56605 2.2489C1.59507 2.32216 1.62417 2.39767 1.65281 2.47294C1.91774 3.52642 2.12571 4.587 2.33394 5.64153C1.76639 2.40746 1.42393 0.954852 1.19768 2.77162e-06C1.25641 0.0879548 1.31247 0.181754 1.36234 0.270837C1.66049 1.09576 2.31141 4.36982 2.62918 6.12174C2.62128 5.75653 2.31641 4.21572 2.28256 3.88238C2.27421 3.78835 2.36898 4.10425 2.3474 3.88661C2.32257 3.32423 1.7857 0.868677 1.90883 1.19941C2.1054 1.44663 2.8815 5.32325 2.98212 6.06234C2.73133 4.28625 2.54027 2.50834 1.96597 0.569654C2.50096 1.74789 2.83075 2.73908 3.1997 4.78593C3.38865 5.41358 2.65098 1.02359 2.51145 0.816411C2.80798 1.63964 3.00165 2.40231 3.18862 3.16297C3.05179 2.5176 2.90488 1.86448 2.70068 1.17649C2.71138 1.17128 2.72207 1.16606 2.73277 1.16084C3.26808 2.92402 3.57585 4.39407 3.89188 6.26242C3.94314 6.19409 3.75004 5.07757 3.65389 4.52811ZM40.5529 180.787C40.5091 180.833 40.3961 180.155 40.3272 179.774C40.3285 179.833 40.3297 179.892 40.3309 179.951C40.1945 179.136 39.9242 177.631 39.8139 177.595C39.6879 177.025 39.8231 177.261 39.7958 177.074C39.7855 177.003 39.5947 176.302 39.5209 175.706C39.5194 175.693 39.5179 175.679 39.5165 175.665C39.4894 175.542 39.4575 175.409 39.426 175.284C39.3881 175.268 39.3501 175.251 39.3121 175.234C39.304 175.042 39.2941 174.855 39.2787 174.658C39.3825 175.014 39.4746 175.363 39.549 175.7C39.9165 177.374 40.2408 179.075 40.5524 180.783C40.5526 180.784 40.5527 180.786 40.5529 180.787ZM34.5724 160.459C34.3784 159.684 34.1119 158.498 34.085 158.758C34.2109 159.241 34.3421 159.728 34.4777 160.215C34.5092 160.297 34.5408 160.378 34.5724 160.459ZM20.0429 84.3343C19.939 83.6898 19.6864 83.1419 19.4059 82.1574C19.3885 82.1641 19.371 82.1707 19.3536 82.1774C19.5163 82.5674 19.8126 83.6251 20.0429 84.3343ZM45.3975 199.639C45.4292 199.789 45.4632 199.942 45.5006 200.097C45.2317 199.506 45.2782 199.378 45.1162 198.723C45.1066 198.684 45.0873 198.703 45.0841 198.689C45.0462 198.53 45.0402 198.379 45.0076 198.239C44.9444 197.971 44.8689 197.756 44.7532 197.313C44.6922 197.085 44.6891 197.009 44.6838 196.946L44.7157 197.04C44.709 197.005 44.7021 196.974 44.6857 196.932C44.6415 196.824 44.1175 195.764 43.9267 195.028C43.7336 194.275 44.1924 195.606 44.7539 197.025L44.7229 196.935C45.0487 198.008 45.3322 199.435 45.3975 199.639ZM46.4849 203.591C46.4568 203.465 46.427 203.337 46.3965 203.211C46.5507 203.577 46.368 202.806 46.2011 202.262C46.276 202.257 46.563 203.438 46.6823 203.988C46.6171 203.852 46.5518 203.722 46.4849 203.591ZM41.9715 186.627C41.9789 186.665 41.9851 186.701 41.9905 186.733C42.0616 187.158 41.9779 187.091 41.9518 187.074C41.9321 186.966 41.9127 186.858 41.8935 186.75C41.8821 186.686 41.8706 186.621 41.8591 186.557C41.8966 186.58 41.9341 186.604 41.9715 186.627ZM42.8585 190.697C42.7607 190.543 42.4587 189.374 42.3394 188.816C42.3344 188.792 42.3957 188.939 42.3103 188.544C42.2818 188.427 41.9464 187.278 42.1192 187.512C42.336 188.577 42.5808 189.64 42.8581 190.695C42.8582 190.696 42.8583 190.696 42.8585 190.697ZM43.1348 191.884C43.0582 191.669 42.9829 191.453 42.9091 191.237C42.9045 191.117 42.9003 190.997 42.8966 190.877C42.9662 191.126 43.0376 191.374 43.1108 191.622C43.1186 191.709 43.1266 191.797 43.1348 191.884ZM6.56043 29.2365C6.54443 29.2933 6.52825 29.3492 6.51212 29.4054C6.53775 29.6054 6.86084 30.5307 6.81843 30.2247C6.7323 29.8959 6.64604 29.565 6.56043 29.2365ZM5.74451 25.2241C5.71396 25.0257 5.68288 24.8267 5.65142 24.628C5.62105 24.5611 5.59066 24.4944 5.56024 24.4278C5.49446 24.2867 5.4269 24.144 5.35865 24.0035C5.39084 24.1531 5.42242 24.3059 5.45186 24.453C5.61615 25.2676 5.76647 25.9864 5.84858 25.8193C5.89844 26.0436 5.94797 26.2682 5.9973 26.4932C5.90002 26.3165 5.88752 26.345 5.98058 26.9418C6.08641 27.0543 6.17913 27.6723 6.34652 28.3678C6.24152 27.8578 6.13651 27.3487 6.03053 26.8407C6.04421 26.8378 6.05788 26.8348 6.07156 26.8318C6.312 27.9638 6.0951 26.5385 5.87692 25.8163C5.88231 25.7546 5.88756 25.6925 5.89282 25.6305C5.84351 25.4948 5.79413 25.3596 5.74451 25.2241ZM23.7768 106.965C23.7659 106.813 23.7564 106.661 23.7484 106.509C23.4857 105.953 23.8136 107.116 23.8505 107.971C23.8981 107.677 24.1683 108.934 24.1993 109.001C24.2004 108.849 24.2024 108.697 24.2057 108.546C24.0481 108.027 23.9036 107.5 23.7768 106.965ZM23.477 102.814C23.436 103.317 23.1896 100.895 23.1136 100.078C23.0966 99.8806 23.1065 99.5208 23.0839 99.3792C23.0555 99.2947 23.0271 99.2097 22.9987 99.1252C23.0516 99.016 22.7931 97.4333 22.6821 96.8105C22.6981 96.7486 22.7141 96.6866 22.7301 96.6247C22.6932 96.3977 22.6561 96.1696 22.6189 95.9424C22.6455 95.9683 22.6721 95.9942 22.6987 96.0201C22.6498 95.8507 22.6008 95.6808 22.5517 95.5114C22.4371 94.836 22.6147 95.2392 22.5123 94.7337C22.3983 94.1718 22.4385 95.1107 22.3875 95.0994C22.4572 95.5583 22.6134 96.6009 22.6708 97.0677C22.7036 97.3353 22.5807 97.0427 22.8181 98.1852C22.8247 98.4419 22.8307 98.6967 22.8366 98.953C22.9275 99.413 23.0175 99.873 23.1061 100.333C23.0832 100.424 23.0603 100.514 23.0372 100.603C23.0385 100.655 23.2259 101.717 23.2439 101.659C23.2268 102.099 23.3069 102.992 23.3844 103.928C23.4099 104.017 23.435 104.104 23.4603 104.193C23.3445 103.291 23.4543 103.903 23.4647 103.631C23.4706 103.474 23.4646 102.993 23.477 102.814ZM8.02971 35.4943C7.60181 34.0046 7.87965 34.9213 7.5085 33.2887C7.49353 33.4139 7.47759 33.5345 7.46252 33.6586C7.71952 34.4482 7.97809 35.7772 8.03008 35.4959C8.02995 35.4954 8.02983 35.4948 8.02971 35.4943ZM4.06174 19.7691C4.35648 20.599 4.28573 20.1588 4.64172 21.2106C4.64188 21.2111 4.64203 21.2116 4.64219 21.2121C4.47481 20.6649 4.30173 20.1154 4.12777 19.5635C4.10582 19.6322 4.08381 19.7007 4.06174 19.7691ZM16.7286 69.691C16.9093 70.5184 16.9019 70.3478 17.0178 71.11C17.3619 72.2034 17.1251 71.2648 17.1953 71.2481C17.1137 70.9986 17.0319 70.7491 16.9504 70.5007C16.8676 69.8685 17.0412 70.4446 17.0476 70.4435C17.0475 70.443 17.0474 70.4425 17.0472 70.4419C17.0683 70.437 17.0775 70.4554 17.0333 70.2162C16.932 70.0418 16.8302 69.8658 16.7286 69.691ZM17.6606 73.1923C17.5465 72.9212 17.4564 72.8084 17.6038 73.5578C17.6039 73.5583 17.6041 73.5589 17.6042 73.5594C17.7226 73.5941 17.8083 74.3259 17.8926 74.6488C17.9243 74.7313 17.9559 74.8138 17.9874 74.8961C17.8787 74.3281 17.7697 73.7602 17.6606 73.1923ZM21.0363 85.5564C20.9233 85.5918 20.7397 84.9923 20.8779 85.8708C20.9263 86.0348 20.9738 86.1983 21.0203 86.3621C21.0746 86.4633 21.1283 86.5638 21.1817 86.6654C21.4612 88.7865 22.0168 89.3355 20.9726 85.8441C20.9723 85.8436 20.9721 85.8431 20.9719 85.8427C20.9937 85.7476 21.0152 85.6522 21.0363 85.5564ZM19.8974 81.826C19.8297 81.8164 19.7621 81.8068 19.6944 81.7971C19.6975 81.2777 19.3741 80.7003 19.2303 79.7111C19.19 79.6287 19.1499 79.5461 19.11 79.4627C19.1047 79.4219 19.0897 79.3427 19.068 79.2351C18.8995 78.3932 18.2697 75.7423 18.3444 76.4248C18.3812 76.7597 18.6041 77.4528 18.6176 77.5151C18.662 77.7222 18.6739 78.0032 18.7598 78.3517C18.8038 78.5297 18.9385 78.8792 19.0357 79.2428C19.0476 79.2876 19.0591 79.3327 19.07 79.3778C19.2932 80.3345 19.6323 82.0724 20.1532 83.2105C20.1616 83.3017 20.1701 83.3926 20.1785 83.4835C20.4589 84.3582 20.4274 84.0486 20.6041 84.8808C21.0644 85.3657 19.5843 81.5975 20.0595 82.3292C20.0594 82.3287 20.0592 82.3282 20.059 82.3277C20.0049 82.161 19.951 81.9937 19.8974 81.826ZM13.6693 57.1747C13.7068 57.1091 13.3792 56.0775 13.5611 56.2952C13.4379 55.9621 13.3163 55.6293 13.1961 55.2926C13.1851 55.2978 13.1742 55.303 13.1633 55.3082C13.249 55.6504 13.3362 55.9893 13.425 56.3286C13.4071 56.3342 13.3892 56.3398 13.3713 56.3454C13.5522 56.842 14.0445 58.9534 13.9664 58.9056C14.0217 59.0109 14.0771 59.1161 14.1327 59.2216C14.3133 60.2451 14.6148 61.0858 14.8251 62.1926C14.8695 62.271 14.9138 62.3494 14.9581 62.4277C14.9542 62.4873 14.9503 62.5469 14.9465 62.6065C15.0469 63.003 15.1473 63.3992 15.2473 63.7955C15.6531 65.0655 15.1005 62.5368 15.0098 62.2346C14.9978 62.1945 14.9526 62.2131 14.8796 61.9622C14.7495 61.5181 14.1469 58.988 13.9246 58.2106C13.9541 58.1961 13.9836 58.1816 14.0131 58.1671C13.8977 57.8375 13.7831 57.5073 13.6693 57.1747ZM21.8852 90.2555C21.8599 90.3176 21.8345 90.3797 21.8092 90.442C21.9655 91.4438 22.0159 92.0768 22.0912 91.8067C22.0912 91.8062 22.0911 91.8057 22.0911 91.8052C22.0221 91.2885 21.9535 90.7734 21.8852 90.2555ZM36.1676 164.04C36.2215 163.995 36.0973 163.524 35.8685 162.931C35.8594 162.966 35.8503 163 35.8411 163.035C35.9912 163.336 36.0164 163.756 36.3404 164.72C36.3715 164.709 36.4026 164.699 36.4338 164.689C36.3443 164.473 36.2551 164.255 36.1676 164.04ZM21.7938 89.4066C21.7972 89.1158 21.5363 88.3332 21.6242 88.8615C21.6887 89.2637 21.7932 89.5618 21.7938 89.4066ZM3.06512 16.4135C3.12557 16.6377 3.18652 16.8603 3.24837 17.0832C3.31035 17.1893 3.37282 17.2963 3.43534 17.4029C3.43518 17.4023 3.43502 17.4018 3.43486 17.4013C3.30992 17.0726 3.18679 16.7443 3.06512 16.4135ZM16.0405 66.8837C16.2282 67.6315 16.4153 68.3837 16.6009 69.1334C16.6203 69.1367 16.6398 69.1399 16.6592 69.1431C16.4129 68.4068 16.4079 68.0853 16.3698 67.9103C16.37 67.9111 16.3702 67.9119 16.3704 67.9126C16.2904 67.5446 16.2114 67.1891 16.1361 66.8394C16.0956 66.6512 16.0549 66.4608 16.016 66.273C16.0241 66.4693 16.0326 66.668 16.0397 66.863C16.04 66.8699 16.0402 66.8768 16.0405 66.8837ZM15.5058 64.2955C15.4133 64.4527 15.4436 64.622 15.8211 65.7474C15.825 65.6982 15.8289 65.649 15.8327 65.5996C15.6732 65.007 15.5549 64.667 15.6466 64.755C15.5999 64.6023 15.5526 64.4478 15.5058 64.2955ZM18.3241 76.067C18.3308 75.9186 18.0287 74.8264 18.0229 74.8909C18.0207 74.9166 18.3107 76.3563 18.3241 76.067ZM39.0294 172.19C38.9515 171.939 38.8761 171.698 38.7964 171.448C38.9264 171.77 39.0544 172.09 39.1788 172.406C39.1294 172.335 39.0796 172.262 39.0294 172.19ZM40.0518 174.789C40.0774 174.961 39.8356 174.446 40.0529 175.459C39.8838 174.729 39.6519 173.985 39.4015 173.236C39.5363 173.583 39.6656 173.927 39.7876 174.272C39.8013 174.202 39.8135 174.127 39.8272 174.059C39.9068 174.305 39.9818 174.547 40.0518 174.789ZM40.1629 175.601C40.1627 175.587 40.1631 175.576 40.1638 175.567C40.1671 175.539 40.1756 175.539 40.1882 175.562C40.2912 175.754 40.6347 177.415 40.6577 177.596C40.6644 177.643 40.6422 177.876 40.6439 177.961C40.5784 177.622 40.5119 177.285 40.4439 176.949C40.446 177.065 40.4481 177.182 40.45 177.299C40.3646 176.906 40.2774 176.514 40.1879 176.123C40.2439 176.287 40.2991 176.45 40.3542 176.614C40.292 176.275 40.2285 175.938 40.1629 175.601ZM37.2601 167C37.3554 167.282 37.447 167.551 37.5437 167.832C37.5551 167.766 37.5664 167.7 37.5778 167.633C37.5195 167.467 37.463 167.306 37.4051 167.139C37.3568 167.093 37.3085 167.047 37.2601 167ZM39.2836 172.559C39.0002 172.218 38.9439 171.027 39.2657 172.326C39.2969 172.455 39.3111 172.592 39.2836 172.559ZM40.8012 178.439C41.0802 179.3 40.7941 179.147 40.7094 178.302C40.7053 178.259 40.7803 178.374 40.8012 178.439ZM41.9849 185.086C41.9967 185.158 41.9372 185.299 42.1348 185.974C42.1455 186.089 42.1564 186.205 42.1672 186.32C42.0812 186.06 41.6649 183.788 41.7997 184.089C41.861 184.437 41.9249 184.726 41.9849 185.086ZM41.9033 182.833C41.842 182.493 41.7805 182.152 41.7186 181.812C41.7129 181.929 41.7072 182.046 41.7015 182.162C41.6654 181.996 41.6291 181.83 41.5929 181.664C41.5863 181.37 41.5795 181.076 41.5722 180.782C41.7108 181.52 41.8468 182.259 41.9822 182.999C41.9559 182.944 41.9296 182.888 41.9033 182.833ZM40.1557 173.887C40.2698 174.34 40.4336 174.856 40.5759 175.478C40.6342 175.736 40.695 176.015 40.7554 176.315C40.7555 176.315 40.7555 176.316 40.7555 176.316C40.766 176.369 40.7508 176.47 40.7838 176.639C40.8197 176.781 41.4023 179.631 41.2978 179.42C41.0406 178.322 41.0387 177.896 40.8567 177.656C40.8738 177.597 40.8908 177.538 40.9078 177.478C40.7457 176.409 40.5852 176.126 40.4239 175.543C40.445 175.541 40.4662 175.539 40.4874 175.536C40.4848 175.524 40.4822 175.511 40.4795 175.499C40.403 175.136 40.3094 174.769 40.2051 174.398C40.207 174.455 40.2093 174.514 40.2108 174.571C40.1725 174.434 40.1349 174.304 40.0945 174.168C40.0573 173.823 39.9377 173.4 40.1557 173.887ZM42.1364 184.386C42.2522 184.542 42.429 185.529 42.6169 186.622C42.7748 187.546 42.9635 188.542 43.122 189.18C42.8765 188.503 42.7166 187.428 42.5833 186.628C42.5754 186.58 42.5674 186.534 42.5594 186.489C42.2873 184.932 42.4184 186.018 42.3464 185.758C42.3107 185.63 42.2587 184.73 42.1364 184.386ZM39.3631 171.616C39.6112 172.357 39.7893 172.758 39.9402 173.413C39.9119 173.363 39.8833 173.313 39.8545 173.263C39.8016 173.044 39.2094 171.253 39.3631 171.616ZM43.5787 191.244C43.2539 189.74 43.3006 190.509 43.2202 189.706C43.3458 190.217 43.4787 190.726 43.6193 191.233C43.6058 191.237 43.5922 191.24 43.5787 191.244ZM22.0875 87.6591C21.9565 87.0469 21.8044 86.3568 21.6453 86.0084C21.7501 86.425 21.8488 86.8417 21.9383 87.2586C21.9889 87.3913 22.0389 87.5257 22.0875 87.6591ZM24.8273 105.647C24.8233 105.504 24.7318 104.951 24.7265 104.873C24.7264 104.871 24.7263 104.87 24.7262 104.869C24.718 104.758 24.7412 104.786 24.7466 104.784C24.6855 104.045 24.6739 104.732 24.6158 104.188C24.6077 104.096 24.526 102.809 24.4698 102.289C24.3866 101.49 24.3039 100.689 24.2699 100.39C24.2129 99.8848 24.0583 98.9548 23.9579 98.1257C23.9167 97.7844 23.9414 97.6596 23.8995 97.3169C23.6598 95.3467 23.1504 91.6787 22.8971 89.5224C22.8671 89.2675 22.8343 89.0334 22.8034 88.8267C22.7322 88.3474 22.688 87.8828 22.6288 87.6322C22.5672 87.4382 22.5033 87.2446 22.4377 87.0522C22.4538 86.4058 22.2538 86.2396 22.0588 85.5971C21.9334 85.189 21.9243 84.9836 21.9082 84.9284C21.8 84.5636 21.7228 84.3904 21.6325 84.1056C21.5311 83.7858 21.4108 83.3183 21.3716 83.2048C21.3476 83.135 21.3519 83.3803 20.9718 82.1339C20.6567 81.0936 20.3569 80.0576 20.1061 78.9886C20.0512 78.7538 19.9954 78.5162 19.9393 78.2772C19.8885 78.5469 19.9349 78.7736 20.0088 79.0117C20.0685 79.2043 20.148 79.405 20.2128 79.6427C20.2519 79.7857 20.1973 79.7027 20.2314 79.8274C20.327 80.1802 20.547 80.8434 20.6252 81.1345C20.7093 81.4495 20.6064 81.3635 20.751 81.7514C20.7584 81.771 20.7686 81.699 20.8015 81.7905C21.1318 82.7094 21.1795 83.0285 21.5358 84.2057C21.7524 84.853 22.7309 88.2909 22.8083 89.5333C22.8366 89.7741 22.8538 89.9295 22.8539 89.9575C22.8545 90.2031 22.8066 89.9893 22.7366 89.542C22.5987 88.365 21.8646 85.6066 21.7323 85.1839C21.6756 84.9786 21.7706 85.1836 21.7223 84.9953C21.7023 84.9156 21.4302 84.2246 21.2091 83.526C20.9417 82.6819 20.4581 80.9608 20.2396 80.1384C20.1386 79.7688 20.0425 79.3978 19.9535 79.0249C18.9627 74.8754 17.9979 70.749 16.9988 66.6276C16.386 64.1108 15.7158 61.6004 15.0748 59.0682C15.0367 58.9177 14.949 58.7297 14.8267 58.2399C14.2775 56.0156 13.7319 53.764 13.3893 51.4501C12.4996 46.6273 10.3689 41.9346 9.30562 37.0173C8.77445 34.8199 8.27538 32.6231 7.79601 30.4346C7.34945 28.4037 6.89475 26.3949 6.45264 24.3487C6.4389 24.3092 6.42514 24.2698 6.41138 24.2304C6.33967 24.0259 6.26515 23.8208 6.18879 23.6174C6.24068 23.795 6.29512 24.0174 6.344 24.2461C6.47119 24.8387 6.58045 25.4816 6.59721 25.56C6.60557 25.5989 6.69144 25.8377 6.77698 26.2351C6.89722 26.794 6.92297 27.0446 6.93295 27.0902C6.96366 27.2324 6.97207 27.1329 7.00142 27.2691C7.21918 28.2822 7.39457 29.0636 7.59634 29.9943C7.82458 31.0464 7.88799 31.5884 8.11689 32.3418C8.11322 32.4327 8.10969 32.5241 8.10631 32.616C8.29092 33.0693 8.83773 35.4418 9.22318 37.0372C9.30797 37.391 9.38116 37.69 9.44353 37.9412C9.55186 38.3755 9.49212 38.3049 9.53009 38.4528C9.55592 38.5472 9.59187 38.496 9.88679 39.6267C10.0384 40.2 10.0429 40.3555 10.1249 40.6397C10.1696 40.793 10.199 40.7553 10.2637 40.9791C10.634 42.2537 10.9499 43.3008 11.3449 44.5388C11.4563 44.8869 11.4267 44.9 11.4529 44.9786C11.5473 45.2629 11.7649 45.7461 12.0017 46.4701C12.406 47.664 13.1148 50.0494 13.2235 51.0516C13.2447 51.1978 13.2252 51.3251 13.2415 51.4318C13.2436 51.4454 13.2459 51.4583 13.2482 51.4705C13.2746 51.607 13.3173 51.6603 13.3216 51.6873C13.4108 52.2511 13.3194 51.9168 13.3913 52.2936C13.4307 52.4935 13.5123 52.6974 13.6065 53.1647C13.7335 53.7828 13.6565 53.6671 13.7144 53.9261C13.7211 53.9539 13.7594 53.9526 13.8134 54.2047C14.0168 55.1605 14.348 56.5373 14.5676 57.4313C14.6308 57.6893 14.6526 57.8854 14.7416 58.2447C14.9143 58.9692 15.9926 63.0527 16.0645 63.3907C16.0721 63.4263 15.9238 63.0774 16.075 63.6557C16.141 63.8175 16.2073 63.9808 16.2731 64.1425C16.3092 64.4335 16.3446 64.723 16.3799 65.0142C16.504 64.9704 16.9392 66.6241 16.8041 66.6377C16.8067 66.6496 16.8093 66.6616 16.8118 66.6735C16.848 66.8419 16.8854 67.0158 16.9216 67.185C17.1029 67.5413 17.1321 67.8028 17.3614 68.5201C17.3616 68.64 17.3624 68.7626 17.3624 68.882C17.3875 68.9062 17.4127 68.9304 17.4378 68.9547C17.4337 69.3689 17.6873 69.9863 17.7063 70.0631C17.7807 70.3622 17.8094 70.5921 17.8441 70.733C17.9727 71.2558 18.2791 72.3826 18.4093 72.9987C18.4153 73.0276 18.3664 73.0095 18.4028 73.1849C18.4684 73.5013 18.5375 73.5174 18.5649 73.9536C18.6033 74.0339 18.6417 74.1143 18.6801 74.1945C18.6921 74.2866 18.704 74.3785 18.716 74.4707C18.8472 74.9996 18.9782 75.5285 19.1091 76.0575C18.923 75.5924 19.0151 76.1566 19.1959 76.6679C19.2571 76.8404 19.2632 76.673 19.2838 76.7305C19.3068 76.795 19.669 78.3784 19.8091 79.0591C19.8422 79.219 19.8645 79.3303 19.8666 79.3616C19.9084 79.472 19.9507 79.5817 19.9937 79.6918C19.9813 79.7562 19.9689 79.8203 19.9567 79.8848C19.9827 79.9447 20.0088 80.0047 20.0351 80.0646C20.1483 80.7024 20.7362 82.2599 20.817 82.5473C20.8594 82.7017 20.7023 82.5999 20.9397 83.3293C20.979 83.345 21.0184 83.3608 21.0577 83.3765C21.1138 83.5429 21.1698 83.7091 21.2255 83.8754C21.3191 84.1908 21.4018 84.6649 21.3684 84.6905C21.4201 84.7819 21.4718 84.8737 21.5231 84.9652C21.5315 85.2505 21.9527 86.6484 22.1275 87.2079C22.1446 87.3792 22.1604 87.5516 22.1743 87.7226C22.2506 87.9405 22.3239 88.1589 22.3938 88.3786C22.4973 88.898 22.3514 88.3563 22.3677 88.468C22.3932 88.6258 22.5258 89.214 22.5585 89.5637C22.5762 89.7374 22.5772 89.8538 22.5421 89.831C22.5624 89.9998 22.5827 90.1673 22.6032 90.3355C22.6416 90.4183 22.6801 90.5025 22.7185 90.5848C22.6582 90.8845 22.7537 91.3797 22.8462 92.4074C22.879 92.4907 22.9117 92.5736 22.9445 92.6566C22.9526 92.9769 22.9606 93.297 22.9687 93.6173C23.0133 93.6777 23.0579 93.738 23.1024 93.7985C23.1248 93.9354 23.1472 94.0724 23.1695 94.2092C23.1224 94.4988 23.2729 94.9896 23.2706 95.2493C23.2673 95.628 23.1734 95.347 23.0764 94.6566C23.0237 94.7158 23.3044 96.7728 23.3647 97.2476C23.3726 97.2147 23.3805 97.1819 23.3883 97.149C23.3207 96.6646 23.2523 96.1793 23.1835 95.6949C23.2834 95.2693 23.4053 96.5938 23.4969 97.1971C23.5053 97.2523 23.6001 97.5595 23.6667 98.1704C23.6928 98.4069 23.7164 99.3395 23.7313 99.5151C23.8523 100.941 23.8563 99.8823 23.9019 101.285C23.9506 100.987 23.9708 101.792 24.0668 102.623C24.0846 102.763 24.2587 103.959 24.2654 104.039C24.3175 104.546 24.2029 104 24.2788 104.73C24.2957 104.788 24.3125 104.845 24.3292 104.902C24.3375 104.932 24.346 104.961 24.3545 104.991C24.3682 105.166 24.384 105.338 24.4022 105.513C24.3551 106.586 24.5358 106.816 24.6135 107.182C24.6475 107.33 24.5676 107.146 24.6511 107.532C24.6834 107.677 24.7497 107.831 24.8383 108.219C25.1257 109.429 25.0983 109.878 25.5728 110.924C25.6005 111.098 25.6287 111.271 25.6573 111.445C25.7183 111.549 25.7796 111.653 25.8408 111.757C26.0286 112.637 26.0124 112.304 26.1071 112.613C26.3654 113.428 26.8296 115.099 26.7932 115.262C27.0547 115.784 27.1191 116.445 27.1535 116.837C27.164 116.948 27.1736 117.038 27.1864 117.099C27.2361 117.264 27.2857 117.43 27.3347 117.596C27.3521 117.797 27.3695 118.002 27.3857 118.203C27.5181 118.079 27.549 119.138 27.5616 119.237C27.5808 119.352 27.8757 120.935 27.9584 121.531C28.0448 122.124 28.1462 123.165 28.1581 123.256C28.1727 123.361 28.3488 124.368 28.4513 125.161C28.5354 125.854 29.035 129.98 29.0745 129.711C29.0535 129.439 29.0146 129.053 28.9771 128.721C28.8488 127.687 28.1253 121.65 27.8698 120.121C27.7062 119.026 27.5211 117.918 27.3136 116.806C26.9421 114.818 26.2594 112.867 25.6903 110.926C25.6381 110.748 25.6677 110.71 25.6238 110.558C25.5562 110.327 25.3522 109.748 25.2926 109.518C25.061 108.659 24.8399 107.596 24.7604 107.125C24.6025 106.23 24.5443 105.565 24.5003 104.889C24.4931 104.774 24.4852 104.657 24.4764 104.537C24.4598 104.289 24.3034 103.033 24.2356 102.17C24.2309 102.013 24.2259 101.854 24.2208 101.698C24.2804 102.141 24.4264 103.303 24.4754 103.845C24.5174 104.297 24.5347 104.633 24.5453 104.886C24.5541 105.089 24.5623 105.243 24.5754 105.375C24.5913 105.627 24.8005 106.901 24.9246 107.474C24.9602 107.653 24.9275 107.696 24.9597 107.85C25.1316 108.677 25.4205 109.753 25.6653 110.442C25.5651 110.161 26.0777 111.95 26.1101 112.042C26.1595 112.201 26.2501 112.363 26.351 112.688C26.5437 113.314 26.445 113.257 26.754 114.018C26.7885 114.218 26.8218 114.419 26.8534 114.619C26.9273 114.608 27.2196 115.815 27.4065 116.789C27.4913 117.218 27.5742 117.597 27.6517 117.807C27.658 117.812 27.5876 117.36 27.4862 116.774C27.325 115.796 26.9684 114.473 26.9211 114.308C26.4827 112.722 25.6768 110.414 25.3205 108.849C25.1974 108.381 24.9646 106.882 24.9557 106.769C24.9241 106.587 24.9143 106.758 24.9002 106.679C24.64 105.069 24.8375 105.863 24.8273 105.647ZM40.657 175.493C40.6549 175.482 40.6528 175.472 40.6507 175.462C40.5566 175.007 40.4375 174.552 40.3064 174.096C40.339 174.124 40.3715 174.151 40.4039 174.178C40.4567 174.39 40.5089 174.61 40.5555 174.825C40.6122 174.987 40.6657 175.146 40.7169 175.309C40.7009 175.359 40.6846 175.409 40.6678 175.458C40.6642 175.47 40.6606 175.481 40.657 175.493ZM41.0017 176.66C41.0981 177.076 41.0532 177.107 41.0701 177.204C41.1202 177.494 41.1886 177.741 41.2419 178.021C41.0648 177.72 40.9824 177.023 41.0017 176.66ZM38.412 168.264C38.4389 168.357 38.5373 169.008 38.8981 169.66C39.0508 170.193 39.2018 170.719 39.351 171.248C39.0929 170.356 38.5923 169.152 38.4421 168.724C38.3832 168.557 38.4097 168.516 38.3635 168.385C38.0963 167.628 37.7581 166.922 37.8518 166.799C38.0652 167.53 38.3764 168.144 38.412 168.264ZM39.9845 172.819C40 172.95 40.013 173.074 40.0275 173.205C39.8864 172.774 39.7349 172.333 39.5838 171.903C39.651 172.013 39.7173 172.12 39.7832 172.227C39.8528 172.429 39.917 172.618 39.9845 172.819ZM30.7674 138.454C30.8296 138.732 30.8916 139.01 30.9534 139.288C30.9691 139.269 30.8979 138.951 30.8845 138.831C30.8846 138.831 30.8847 138.832 30.8848 138.832C30.8701 138.698 30.9073 138.749 30.8648 138.509C30.8323 138.49 30.7999 138.472 30.7674 138.454ZM6.18361 23.265C6.10251 22.7981 4.75326 18.6039 4.79637 18.9825C4.82112 19.1743 5.31627 20.5996 5.44672 21.0231C5.63177 21.5925 6.0048 23.1585 6.18361 23.265ZM3.88559 15.8001C3.78675 15.7493 4.60106 18.3959 4.70158 18.6452C4.69367 18.5877 4.68804 18.4968 4.66942 18.4224C4.57634 18.0613 4.03238 16.3788 3.88559 15.8001ZM28.3528 122.645C28.3477 122.87 28.342 123.095 28.3362 123.32C28.3748 123.256 28.4133 123.192 28.4517 123.127C28.419 122.967 28.386 122.806 28.3528 122.645ZM24.1808 101.522C23.7973 97.841 23.3195 94.1649 22.8692 90.4867C22.9283 90.807 22.9877 91.1284 23.0472 91.4501C23.4336 94.6197 23.8448 98.0003 24.2012 101.061C24.1947 101.215 24.1877 101.367 24.1808 101.522ZM38.2619 167.207C37.9492 166.31 37.6596 165.568 37.391 164.567C37.7477 165.488 37.8268 165.977 38.2138 166.856C38.214 166.857 38.2141 166.857 38.2143 166.858C38.2303 166.975 38.2461 167.091 38.2619 167.207ZM32.7178 146.736C32.8178 147.01 32.9188 147.282 33.0205 147.554C32.9364 147.218 32.8532 146.88 32.7719 146.542C32.7538 146.607 32.7357 146.671 32.7178 146.736ZM17.9959 69.8935C17.773 69.1927 17.4571 67.6457 17.1938 66.5798C17.1008 66.2029 17.0131 65.8841 16.9398 65.6842C16.9217 65.6354 17.0034 66.1085 16.7463 65.3746C16.9036 65.9384 17.0167 66.3365 17.0809 66.3657C17.0915 66.444 17.102 66.522 17.1124 66.5997C17.1249 66.6938 17.1376 66.7888 17.1505 66.8846C17.2327 67.1609 17.315 67.4382 17.3971 67.7157C17.3363 67.6984 17.3446 67.7196 17.4858 68.1416C17.5202 68.3421 17.554 68.5403 17.5884 68.7415C17.6311 68.8189 17.6738 68.8964 17.7166 68.9744C17.7265 69.1537 17.7353 69.329 17.7451 69.5083C17.9392 70.1626 17.9034 69.7449 17.9959 69.8935ZM18.7933 73.2771C18.7688 73.1168 17.6552 68.649 18.0376 70.7094C18.168 71.2373 18.2982 71.7654 18.4282 72.2934C18.4999 71.8131 18.6868 73.2923 18.7112 73.4116C18.8292 73.9822 19.0432 74.6944 19.1389 75.1059C19.2212 75.4602 19.2395 75.678 19.2993 75.9259C19.5037 76.7727 19.8226 78.1108 19.9393 78.2772C19.7845 77.6187 19.6264 76.9493 19.4617 76.2648C19.2877 75.5416 19.2053 74.888 18.7862 73.5505C18.7161 73.2117 18.7999 73.3184 18.7933 73.2771ZM33.2263 148.4C33.1434 148.385 33.6012 150.083 33.6335 150.086C33.6512 150.085 33.5068 149.531 33.4928 149.45C33.4926 149.449 33.4925 149.449 33.4924 149.448C33.4866 149.415 33.5579 149.575 33.4983 149.312C33.4071 149.008 33.3164 148.704 33.2263 148.4ZM7.84414 29.917C7.83589 29.6751 6.67648 24.3756 6.60452 24.2286C6.58927 24.1877 6.58481 24.2507 6.57051 24.2365C6.91559 25.4552 7.22548 27.2286 7.47346 28.4047C7.54257 28.7319 7.55101 28.6285 7.55551 28.6468C7.55568 28.6476 7.55585 28.6483 7.55601 28.6491C7.59585 28.8342 7.705 29.6888 7.84414 29.917ZM16.478 64.0092C16.5238 64.2346 16.5701 64.4625 16.6154 64.6879C16.6526 64.739 16.6897 64.7901 16.7268 64.8411C16.7267 64.8406 16.7266 64.8401 16.7264 64.8396C16.6438 64.5618 16.5611 64.2857 16.478 64.0092ZM14.5877 56.2414C14.5845 56.2996 14.5814 56.3579 14.5784 56.4164C14.7102 56.9825 14.846 57.5482 14.9842 58.1127C14.961 58.0579 14.9378 58.0031 14.9147 57.9485C15.1028 58.8077 15.2493 59.1456 15.3568 59.6015C15.3567 59.601 15.3566 59.6005 15.3564 59.6C15.368 59.6492 15.3498 59.7163 15.3952 59.8981C15.4989 60.3151 15.7952 61.5101 15.866 61.6452C16.0158 61.9317 15.3612 59.5422 15.2529 59.0932C15.2028 58.8897 15.1709 58.6403 15.1405 58.5162C15.1071 58.3805 15.022 58.208 14.9414 57.8776C14.9176 57.7823 14.7022 56.7027 14.5877 56.2414ZM12.2163 46.2891C12.2361 46.4683 12.386 46.814 12.4224 46.9473C12.4312 46.9791 12.3231 46.7447 12.4094 47.0431C12.4563 47.1203 12.5023 47.1947 12.5494 47.2731C12.4405 46.9459 12.3283 46.6159 12.2163 46.2891ZM34.0014 151.249C33.9966 151.199 33.7562 150.286 33.7399 150.244C33.5322 149.714 34.0312 151.603 34.0014 151.249ZM40.866 174.029C40.8511 173.861 41.0615 174.469 41.2493 175.332C41.5548 176.746 41.9054 178.818 41.9638 179.122C41.8993 179.109 41.7337 177.894 41.7692 178.54C41.7045 177.929 41.3506 176.275 41.2786 175.883C41.2369 175.645 41.276 175.574 41.2701 175.538C41.2652 175.509 41.2481 175.437 41.2237 175.338C41.1322 174.944 40.8753 174.149 40.866 174.029ZM42.6649 183.319C42.5931 182.835 42.5211 182.351 42.4484 181.867C42.5547 182.434 42.66 183.002 42.7652 183.57C42.7317 183.486 42.6983 183.403 42.6649 183.319ZM42.7973 183.921C42.8535 183.895 43.0916 185.539 43.1816 185.967C42.9958 185.5 42.9499 184.674 42.7973 183.921ZM35.6226 157.297C35.4854 156.541 35.2357 156.265 35.5231 157.152C35.5321 157.179 35.6279 157.328 35.6226 157.297ZM18.1902 69.6032C18.161 69.4762 17.8365 67.8842 17.7855 67.8001C17.6245 67.5335 17.9125 68.5598 17.9619 68.915C18.0416 69.4884 17.7973 68.6763 18.1602 70.0342C18.1285 69.9827 18.0969 69.9313 18.0653 69.8801C18.2518 70.681 18.3147 70.3887 18.3655 70.5286C18.381 70.5715 18.4906 71.0742 18.5201 71.1622C18.8923 72.2656 18.2182 69.7209 18.1902 69.6032ZM31.3438 138.847C31.0646 137.349 31.1261 138.006 30.7952 136.479C30.7412 136.437 31.2646 138.661 31.3438 138.847ZM21.799 83.9783C21.3247 82.4739 20.979 81.2277 20.5311 79.8308C20.4138 79.9614 21.8913 84.3768 21.799 83.9783ZM3.47199 12.3144C4.19309 16.09 5.77392 20.0255 6.79193 24.1422C7.35742 26.5812 7.86916 29.0304 8.39446 31.4011C8.54776 32.0952 8.52023 32.1722 8.5805 32.4207C8.62019 32.5841 8.64896 32.55 8.69778 32.7668C9.01295 34.1655 9.33837 35.5538 9.67349 36.9284C10.7669 41.9145 12.8907 46.4588 13.8077 51.3896C14.0139 52.7996 14.3099 54.2011 14.6248 55.5972C14.7265 56.0735 15.217 58.4004 15.4569 58.8635C15.6349 59.2142 15.1528 57.5763 15.088 57.2992C15.038 57.0918 15.0759 57.0737 15.0424 56.9347C15.007 56.7876 15.009 56.9155 14.9676 56.7453C14.7919 56.0236 14.6202 55.2313 14.4756 54.5755C14.2412 53.5113 14.027 52.4458 13.8698 51.3806C12.9137 46.3564 10.823 41.8359 9.75985 36.9076C9.65935 36.4903 9.56139 36.0791 9.46297 35.6614C9.28134 34.8887 9.3514 35.0402 9.34226 35.0014C9.34206 35.0009 9.34186 35.0004 9.34166 34.9999C8.54131 31.6075 7.728 27.8047 6.88213 24.1212C6.69138 23.3016 6.46714 22.4966 6.23522 21.7089C5.32232 18.6539 4.27393 15.6586 3.55995 12.5758C3.53022 12.4879 3.50104 12.4014 3.47199 12.3144ZM18.8625 72.9027C18.8909 72.4884 18.7491 72.4309 18.4665 71.0357C18.4189 70.9282 18.3712 70.82 18.3236 70.7127C18.5039 71.4432 18.6837 72.1742 18.8631 72.9051C18.8629 72.9043 18.8627 72.9035 18.8625 72.9027ZM16.6715 63.764C16.7754 63.4881 15.8565 60.4393 15.5369 59.0443C15.3895 58.8102 15.9426 60.818 16.0585 61.2952C16.1155 61.5337 16.3626 62.8262 16.6583 63.7814C16.6627 63.7756 16.6671 63.7698 16.6715 63.764ZM39.3393 168.853C39.2577 168.64 39.1727 168.418 39.0915 168.205C39.2696 168.759 39.4469 169.304 39.6276 169.858C39.3251 168.986 39.0222 168.112 38.7275 167.237C38.8178 167.39 38.9078 167.54 38.9973 167.688C39.1111 168.079 39.2252 168.467 39.3393 168.853ZM38.3285 166.035C38.8673 167.558 38.2273 165.993 38.1399 165.599C38.0866 165.363 38.2727 165.877 38.3285 166.035ZM37.1048 162.019C37.3742 162.723 37.8389 164.17 37.5597 163.692C37.3687 162.896 37.1682 162.414 36.871 161.271C36.9413 161.431 37.0112 161.587 37.0821 161.745C37.0824 161.746 37.0826 161.747 37.0828 161.748C37.0901 161.839 37.0974 161.929 37.1048 162.019ZM38.6386 166.709C38.9172 167.732 37.9451 164.828 38.3004 165.723C38.3151 165.763 38.6258 166.666 38.6386 166.709ZM5.47732 18.7619C5.39997 18.6525 5.6521 19.4273 5.73302 19.6868C6.08355 20.8089 6.55797 22.2489 6.856 23.4487C6.84558 23.355 6.83493 23.2619 6.82388 23.1688C6.42877 21.6741 5.94649 20.2162 5.47732 18.7619ZM7.70172 27.1903C7.8793 28.0116 8.05512 28.833 8.23248 29.6535C8.24927 29.7312 8.35983 30.0803 8.31043 29.8129C8.10667 28.9385 7.90546 28.0656 7.70172 27.1903ZM20.3227 78.0069C20.2267 77.5295 20.5112 78.4275 20.5963 78.8723C20.6233 79.0137 20.6308 79.1093 20.5969 79.0968C20.5786 79.026 20.5606 78.9554 20.5429 78.8849C20.4699 78.5937 20.396 78.2991 20.3227 78.0069ZM21.9832 83.74C21.8539 83.3562 21.7235 82.9735 21.5938 82.5911C21.6071 82.5865 21.6204 82.5818 21.6337 82.5772C21.7501 82.9642 21.8672 83.3516 21.9832 83.74ZM4.51842 15.6122C4.59199 16.0342 4.89868 17.0041 5.09166 17.6086C4.99708 17.1786 4.66764 16.1927 4.51842 15.6122ZM18.1267 68.6079C18.1081 68.6664 17.5087 66.173 17.7751 67.0216C17.8929 67.5503 18.0101 68.0791 18.1267 68.6079ZM16.915 63.5409C17.0595 64.0721 17.154 64.4877 17.076 64.3909C17.0058 64.1075 16.9354 63.8252 16.8645 63.5415C16.8813 63.5413 16.8981 63.5411 16.915 63.5409ZM36.4265 159.236C36.1867 158.343 35.9634 157.454 35.7528 156.555C35.7741 156.585 35.7954 156.615 35.8168 156.645C36.021 157.512 36.2368 158.368 36.468 159.229C36.4542 159.231 36.4404 159.234 36.4265 159.236ZM4.49334 15.0772C4.309 14.4735 4.13281 13.8678 3.96668 13.2594C4.1149 13.8729 4.27334 14.4844 4.44008 15.0943C4.45806 15.0891 4.47604 15.0839 4.49402 15.0787C4.49379 15.0782 4.49357 15.0777 4.49334 15.0772ZM40.5259 171.198C39.6287 168.507 40.9262 171.882 41.0645 172.64C41.0648 172.64 41.0651 172.641 41.0655 172.642C41.078 172.707 40.9952 172.588 41.0138 172.697C40.9398 172.415 40.8645 172.136 40.7858 171.853C40.6787 171.614 40.5674 171.368 40.4581 171.13C40.4376 171.045 40.4161 170.958 40.3959 170.874C40.439 170.981 40.4831 171.091 40.5259 171.198ZM43.1533 182.387C43.5829 184.917 43.0363 182.348 42.8951 181.081C42.9156 181.087 43.1138 182.154 43.1533 182.387ZM41.8923 175.763C41.85 175.583 41.8069 175.401 41.7636 175.221C41.7112 175.003 41.6521 174.78 41.5903 174.562C41.5882 174.508 41.5855 174.451 41.5835 174.399C41.6663 174.667 41.7442 174.939 41.8134 175.21C41.8231 175.248 41.8328 175.286 41.8425 175.324C41.8594 175.471 41.876 175.617 41.8923 175.763ZM37.9122 163.033C37.7366 162.417 37.3628 161.667 38.0139 163.636C38.027 163.631 38.0401 163.625 38.0532 163.62C38.0262 163.543 37.9406 163.315 37.9376 163.302C37.9296 163.265 37.9878 163.294 37.9122 163.033ZM44.336 186.988C44.3554 187.058 44.5047 187.068 44.5011 187.83C44.5552 188.05 44.6106 188.269 44.6673 188.487C44.6476 188.551 44.628 188.615 44.6085 188.679C44.4486 187.819 44.3709 187.74 44.3559 187.678C44.2931 187.394 44.3684 187.599 44.3326 187.414C44.2754 187.121 44.1699 186.598 44.1427 186.35C44.1254 186.195 44.1369 186.148 44.2075 186.332C44.2083 186.334 44.2091 186.336 44.21 186.338C44.274 186.514 44.3173 186.919 44.336 186.988ZM44.1158 185.276C44.122 185.384 44.0198 185.05 44.0216 185.132C44.0228 185.204 44.1643 186.264 44.0419 185.992C44.0146 185.819 43.9872 185.645 43.96 185.472C43.9695 185.41 43.979 185.347 43.9887 185.286C43.9412 185.122 43.8937 184.957 43.8464 184.793C43.8462 184.502 43.8054 183.889 43.969 184.597C43.9193 184.335 43.8697 184.073 43.8202 183.811C43.7733 183.679 43.7264 183.547 43.6794 183.415C43.7274 183.481 43.7754 183.546 43.8234 183.611C43.9207 184.166 44.0178 184.722 44.1158 185.276ZM45.9523 193.182C45.9249 193.157 45.8975 193.132 45.8701 193.108C46.1858 194.015 46.7038 195.419 46.3098 194.656C45.8718 193.428 45.4799 192.185 45.1366 190.927C45.128 190.84 45.1197 190.753 45.1116 190.666C45.3083 191.619 45.4523 191.268 45.6204 192.097C45.6505 192.236 45.4529 191.864 45.76 192.706C45.7687 192.67 45.7775 192.634 45.7862 192.598C45.8405 192.793 45.8959 192.988 45.9523 193.182ZM48.3825 201.231C47.8548 199.573 48.5398 201.358 48.5663 201.704C48.5662 201.704 48.566 201.703 48.5658 201.703C48.6649 202.604 48.1968 200.737 48.1427 200.644C48.0985 200.509 47.8734 200.216 47.8042 199.531C47.8017 199.503 47.7995 199.474 47.7975 199.445C47.8053 199.472 47.8131 199.499 47.821 199.526C47.9733 200.047 48.1932 200.621 48.3825 201.231ZM46.8971 195.91C46.9493 196.038 46.8959 195.976 46.9174 196.032C46.9176 196.032 46.9178 196.033 46.9179 196.033C46.9353 196.078 46.954 196.126 46.974 196.178L46.9976 196.247C47.3163 197.279 47.701 199.105 47.692 199.303C47.5538 198.891 47.2314 197.291 46.9388 196.264L46.9166 196.199C46.7879 195.844 46.7052 195.586 46.7044 195.533C46.768 195.659 46.8325 195.785 46.8971 195.91ZM44.9939 190.019C44.9222 189.48 45.2198 190.659 45.2793 190.973C45.2894 191.033 45.0682 190.578 44.9939 190.019ZM34.6898 149.095C34.3531 147.934 34.716 149.48 34.5247 148.962C34.5871 149.184 34.6497 149.407 34.7125 149.629C34.7049 149.451 34.6972 149.273 34.6898 149.095ZM24.9031 94.9571C24.875 94.6754 24.8577 94.8126 24.8542 94.7883C24.8324 94.6037 24.8383 94.4265 24.8266 94.3561C24.6089 93.0548 24.6887 93.9285 24.6837 93.9423C24.6539 93.974 24.5723 93.6352 24.5934 94.1161C24.6411 94.4039 24.6886 94.6914 24.7361 94.9793C24.7353 95.1251 24.7345 95.2709 24.7337 95.4168C24.8439 95.9869 24.7625 95.2331 24.8046 95.1415C24.8212 95.1061 24.9126 95.6437 24.9031 94.9571ZM34.266 146.975C34.1618 146.8 33.9765 146.355 34.0305 146.824C34.0306 146.824 34.0307 146.825 34.0309 146.825C34.041 146.912 34.1203 147.256 34.1322 147.366C34.3981 148.099 34.4022 147.79 34.266 146.975ZM25.6223 100.147C25.6603 100.619 25.6968 101.089 25.7316 101.562C25.6957 101.557 25.6597 101.553 25.6237 101.549C25.6072 101.295 25.5904 101.044 25.5728 100.79C25.5474 100.705 25.5219 100.618 25.4963 100.532C25.49 100.847 25.483 101.164 25.4754 101.481C25.5281 101.853 25.5801 102.231 25.6302 102.606C25.6323 102.432 25.6335 102.253 25.635 102.081C25.7457 103 25.6409 102.807 25.6769 103.574C25.7327 103.835 25.7873 104.095 25.8406 104.353C25.8397 104.5 25.8385 104.647 25.8366 104.791C25.8325 105.013 25.8323 105.234 25.8361 105.456C25.9204 106.051 25.9569 106.098 25.942 105.694C26.0203 105.983 25.9997 106.316 26.0775 106.669C26.0839 106.698 26.1143 106.636 26.1191 106.662C26.4877 108.489 26.4153 108.416 26.4728 108.711C26.5192 108.919 26.8155 109.728 26.8445 109.734C26.8845 109.741 26.509 107.988 27.295 110.679C26.9469 109.256 26.4938 107.717 26.6159 108.765C26.4948 108.322 26.077 106.394 26.0829 106.269C26.0621 106.088 26.1201 106.144 26.0905 105.919C26.0782 105.805 25.9471 105.537 25.9282 104.784C25.9251 104.654 25.9237 104.508 25.9249 104.347C25.8948 104.204 25.864 104.058 25.8331 103.914C25.8371 103.778 25.8405 103.639 25.8438 103.501C25.9233 103.778 26.0017 104.055 26.0786 104.331C25.93 103.219 25.9495 102.29 25.7871 101.627C25.7381 101.043 25.7181 100.761 25.7928 101.005C25.7742 100.83 25.7556 100.656 25.7367 100.482C25.6986 100.37 25.6604 100.258 25.6223 100.147ZM33.4047 143.573C33.3474 143.008 33.1966 142.831 33.2057 142.919C33.2611 143.412 33.4357 143.867 33.4047 143.573ZM24.9686 96.006C25.0156 96.6426 25.0616 97.2796 25.1061 97.917C25.1432 97.9126 25.1803 97.9082 25.2174 97.9039C25.1358 97.2707 25.0526 96.6381 24.9686 96.006ZM34.8155 149.245C34.803 149.309 34.7906 149.372 34.7783 149.436C35.0523 150.084 35.0852 150.791 35.201 151.118C35.2262 151.189 35.2361 151.03 35.2105 150.889C35.1947 150.801 34.8552 149.361 34.8155 149.245ZM42.8117 177.186C42.7428 176.932 42.6732 176.679 42.6028 176.426C42.6365 176.434 42.6703 176.442 42.704 176.45C42.7354 176.576 42.7666 176.702 42.7976 176.828C42.8024 176.947 42.8071 177.067 42.8117 177.186ZM42.1192 174.231C41.9933 173.755 41.8561 173.298 41.7121 172.844C42.2801 174.584 41.8576 173.135 42.2076 174.207C42.1782 174.215 42.1487 174.223 42.1192 174.231ZM40.6648 169.671C40.7021 169.719 40.7394 169.766 40.7765 169.814C40.9327 170.247 41.0925 170.691 41.2473 171.129C41.2113 170.832 41.1726 170.529 41.1344 170.23C41.0754 170.065 41.02 169.911 40.9617 169.749C40.8628 169.723 40.7638 169.697 40.6648 169.671ZM22.6361 82.4449C22.554 82.1764 22.2185 81.2698 22.2113 81.3158C22.3016 81.706 22.3949 82.0979 22.4891 82.4918C22.5254 82.4825 22.5618 82.4733 22.5981 82.4641C22.5971 82.5242 22.5961 82.5843 22.5951 82.6444C22.6762 82.8603 22.7575 83.0768 22.8387 83.2942C22.8416 83.4154 22.8443 83.5366 22.8471 83.6582C22.917 83.7599 22.9868 83.8616 23.0566 83.9641C22.7945 82.8696 22.741 82.9305 22.6739 82.7079C22.6397 82.5956 22.64 82.518 22.639 82.4748C22.638 82.4648 22.6371 82.4548 22.6361 82.4449ZM25.2583 96.4147C25.1072 95.0931 24.9153 94.3517 24.8786 93.3884C24.7816 94.02 25.4494 97.9518 25.4576 99.37C25.5021 99.5128 25.5464 99.6551 25.5905 99.7968C25.4805 99.0373 25.4764 98.5029 25.4413 98.1312C25.4132 97.8355 25.3874 97.8694 25.3852 97.8469C25.3851 97.8459 25.385 97.8448 25.3849 97.8438C25.3153 97.1528 25.3177 96.9362 25.2583 96.4147ZM35.1967 150.164C35.1498 149.807 34.9888 149.206 34.9242 149.215C34.9931 149.555 35.0623 149.896 35.1317 150.237C35.1298 150.164 35.2047 150.225 35.1967 150.164ZM40.6524 169.102C40.5788 168.837 40.3385 168.224 40.3812 168.508C40.3895 168.561 40.6482 169.162 40.4231 168.836C40.6396 169.431 40.6958 169.258 40.6524 169.102ZM29.2211 118.604C29.2621 118.837 29.3026 119.071 29.3421 119.304C29.3767 119.354 29.4114 119.404 29.446 119.455C29.3722 119.171 29.2971 118.887 29.2211 118.604ZM35.9908 153.082C35.9421 153.418 36.1922 153.91 36.2257 154.51C36.2752 154.722 36.3241 154.936 36.3723 155.149C36.3724 155.15 36.3725 155.15 36.3726 155.151C36.4081 155.149 36.4435 155.147 36.4789 155.145C36.3225 154.454 36.1589 153.767 35.9908 153.082ZM26.0436 104.512C26.0407 104.601 26.0376 104.689 26.0342 104.776C26.0317 104.831 26.0294 104.885 26.0274 104.94C26.066 105.177 26.1093 105.414 26.1569 105.65C26.1547 105.518 26.1542 105.39 26.1547 105.259C26.1274 105.097 26.1025 104.936 26.0794 104.773C26.0677 104.687 26.0558 104.6 26.0436 104.512ZM36.8713 156.792C36.719 156.067 36.5489 155.82 36.7615 156.743C36.8537 157.136 37.035 157.554 36.8713 156.792ZM19.104 68.5548C19.1559 68.8097 19.2074 69.0634 19.2587 69.3168C19.3021 69.3968 19.3457 69.4778 19.3891 69.5578C19.2941 69.2226 19.1995 68.8901 19.104 68.5548ZM41.8427 172.519C41.8108 172.497 41.7789 172.476 41.747 172.454C41.6773 172.229 41.6057 172.003 41.5337 171.78C41.5751 171.828 41.6163 171.877 41.6573 171.925C41.7183 172.117 41.7833 172.324 41.8427 172.519ZM19.4985 70.2522C19.5425 70.4543 19.5866 70.6572 19.6304 70.8589C19.6738 70.9912 19.7175 71.1244 19.7609 71.2565C19.7269 71.0663 19.6925 70.8743 19.6584 70.6839C19.605 70.5394 19.5519 70.3965 19.4985 70.2522ZM38.7474 163.578C38.6874 163.302 38.261 162.228 38.5487 163.224C38.7324 163.85 38.7572 163.622 38.7474 163.578ZM39.2557 165.039C38.9633 163.986 38.9562 164.851 39.5479 166.029C39.0994 164.794 39.2741 165.101 39.2557 165.039ZM42.5666 174.298C42.5739 174.328 42.5438 174.363 42.5997 174.595C42.6319 174.73 42.6644 174.875 42.6944 175.02C42.8447 175.743 42.9989 176.565 43.0907 177.044C43.3658 178.412 44.1642 182.567 44.1334 183.07C44.1274 183.175 44.017 182.955 44.0205 182.997C44.0313 183.119 44.1854 183.808 44.1116 183.688C43.9942 183.007 43.8768 182.324 43.7579 181.641C43.8235 181.802 43.8892 181.964 43.9547 182.125C43.6382 180.427 43.7379 180.989 43.5722 180.513C43.5516 180.219 43.5306 179.925 43.5089 179.631C43.3642 179.008 43.217 178.385 43.0657 177.762C43.116 177.901 43.166 178.038 43.2159 178.177C43.078 177.221 43.0998 177.489 42.9428 176.981C42.9655 176.976 42.9882 176.97 43.0109 176.965C42.7735 176.06 42.8019 175.867 42.7616 175.667C42.7265 175.497 42.6409 175.317 42.547 175.052C42.4056 174.641 42.2343 174.061 42.1002 173.092C41.7653 172.474 42.0241 172.41 41.7655 172.068C41.5314 170.937 42.2078 173.004 42.4815 174.068C42.4817 174.068 42.4818 174.069 42.482 174.069C42.503 174.149 42.4933 174.013 42.5666 174.298ZM40.5513 168.725C40.8944 169.323 40.0005 166.796 40.1345 167.69C40.1736 167.817 40.2113 167.939 40.2515 168.068C40.3522 168.29 40.4503 168.504 40.5519 168.727C40.5517 168.726 40.5515 168.726 40.5513 168.725ZM33.9583 144.498C33.4125 142.125 33.6218 143.493 33.8599 144.288C33.9078 144.446 33.9455 144.531 33.9583 144.498ZM25.1197 94.5179C25.1007 94.4834 25.0818 94.449 25.0629 94.4146C25.1799 95.2441 25.3199 96.8622 25.4142 96.828C25.3174 96.0573 25.2189 95.2872 25.1197 94.5179ZM25.9554 101.115C25.9427 100.934 25.8769 100.197 25.8498 100.289C25.8589 100.612 25.8672 100.934 25.8745 101.254C25.9063 101.402 25.9379 101.549 25.9691 101.695C25.9537 101.489 25.9589 101.163 25.9554 101.115Z" fill="#49606B"/>
</svg>
