<svg width="268" height="11" viewBox="0 0 268 11" fill="none" xmlns="http://www.w3.org/2000/svg">
<path id="Vector 8" d="M6.00121 6.41824C11.587 6.0456 15.4066 6.38994 20.604 6.40404C23.4588 6.41131 26.5496 6.39723 29.7669 6.36759C35.235 6.40114 40.7161 5.59437 46.632 5.22335C50.847 5.08624 54.9605 4.97438 58.734 4.91367C65.7759 4.79779 72.9194 4.776 79.9824 4.83251C81.8169 4.84597 83.6412 4.8871 85.4505 4.94854C85.9022 4.96348 86.169 5.01045 86.3754 5.01751C88.2985 5.08745 91.5054 5.13979 93.4108 5.17611C95.4103 5.21862 98.1436 5.2543 100.862 5.2793C103.551 5.30456 106.245 5.3251 108.08 5.35094C109.636 5.37286 111.252 5.38455 111.849 5.47764C112.418 5.48408 112.736 5.40255 112.885 5.3985C112.886 5.39859 112.888 5.39867 112.89 5.39876C113.361 5.38626 114.587 5.44725 114.848 5.44424C114.888 5.44377 114.642 5.38349 115.289 5.40305C115.347 5.40473 115.293 5.44523 115.841 5.44703C115.989 5.44758 117.811 5.38897 118.335 5.38595C120.076 5.37688 124.225 5.42977 126.305 5.42893C126.623 5.42899 126.807 5.40526 127.142 5.40486C127.316 5.40462 127.576 5.43039 127.629 5.43025C127.863 5.42935 128.885 5.31209 128.518 5.54318C129.584 5.52827 129.271 5.45194 129.295 5.40235C130.454 5.39477 131.01 5.50313 131.314 5.38763C137.009 5.39733 142.708 5.39964 148.398 5.38692C148.399 5.36811 148.401 5.34931 148.403 5.3305C150.078 5.39749 150.648 5.26704 151.617 5.37028C152.204 5.34268 152.8 5.31476 153.387 5.28658C153.515 5.2863 153.641 5.286 153.766 5.28568C163.049 5.29595 172.104 4.85749 181.38 4.06795C186.831 3.7413 192.304 3.31305 197.71 2.81952C197.974 2.79455 198.253 2.76928 198.517 2.74631C199.159 2.69145 199.32 2.71685 200.374 2.63776C201.533 2.55129 203.162 2.39927 204.689 2.31316C206.027 2.23637 208 2.17262 209.489 2.10634C209.824 2.09126 210.067 2.05421 210.105 2.05251C210.327 2.04275 210.341 2.08228 210.555 2.07311C210.815 2.06189 211.123 2.01743 211.422 2.005C212.536 1.95862 213.747 1.89015 213.885 1.88394C214.566 1.85451 214.712 1.88624 214.77 1.88381C215.519 1.85091 215.239 1.8294 215.426 1.82193C216.396 1.78147 217.093 1.83692 218.394 1.66229C218.36 1.69756 218.326 1.73284 218.292 1.76813C218.453 1.75975 218.564 1.75178 218.645 1.74413C219.112 1.70032 218.654 1.6704 218.829 1.64386C218.917 1.63013 221.118 1.48098 221.288 1.4718C221.883 1.43588 221.899 1.47874 221.951 1.47569C222.077 1.468 223.56 1.31779 224.326 1.30663C225.232 1.29313 224.175 1.45043 224.4 1.45252C224.438 1.45272 225.382 1.38297 225.511 1.40276C225.654 1.42359 224.835 1.47508 224.85 1.48683C224.858 1.49458 226.219 1.47015 225.962 1.52801C225.756 1.58192 223.911 1.64706 223.524 1.69306C223.459 1.70058 223.584 1.74366 223.527 1.74934C223.298 1.76762 219.059 2.06727 218.864 2.07802C219.083 2.03816 219.303 1.99832 219.521 1.95884C219.238 1.97743 218.948 1.99676 218.665 2.01586C218.658 2.01636 218.65 2.01686 218.643 2.01736C218.65 2.01644 218.658 2.01551 218.665 2.01458C219.071 1.96547 219.48 1.91672 219.889 1.86848C219.62 1.80648 219.131 1.83037 218.655 1.88696C218.027 1.96245 217.397 2.08731 217.353 2.14564C217.329 2.19218 218.457 2.23582 217.412 2.36759C217.578 2.36894 217.735 2.3706 217.894 2.37173C218.164 2.33917 218.431 2.3057 218.684 2.27133C218.748 2.26294 218.811 2.25454 218.875 2.24615C218.811 2.24755 218.747 2.24896 218.683 2.25036C218.537 2.25303 218.372 2.25641 218.219 2.25844C218.293 2.24001 218.38 2.22051 218.459 2.2015C218.534 2.19349 218.606 2.1855 218.677 2.17751C219.22 2.11763 219.768 2.05839 220.312 2.00038C220.634 1.98711 220.568 2.03135 220.789 2.02324C223.539 1.92742 221.74 1.9296 223.539 1.8259C223.795 1.83008 224.054 1.83426 224.312 1.8387C224.215 1.75735 225.014 1.75996 225.974 1.66201C225.861 1.69749 225.748 1.73299 225.635 1.7685C227.028 1.66376 229.861 1.64079 229.089 1.52968C229.41 1.52428 229.73 1.51911 230.05 1.5141C230.318 1.47311 230.586 1.43227 230.855 1.39154C231.228 1.37346 231.601 1.35562 231.974 1.33805C231.976 1.35177 231.979 1.36549 231.981 1.37921C231.684 1.39563 231.387 1.41223 231.089 1.42898C231.315 1.45856 231.54 1.48822 231.766 1.51798C231.985 1.49887 232.204 1.47985 232.423 1.46092C231.5 1.47144 232.71 1.33993 233.001 1.26878C233.775 1.20659 234.275 1.25303 234.536 1.24276C234.658 1.23767 236.093 1.03726 235.534 1.20579C236.275 1.15129 237.016 1.09782 237.757 1.04546C238.047 1.04236 238.338 1.03942 238.628 1.03667C238.002 1.13103 239.829 1.12503 238.487 1.21432C237.485 1.28166 237.235 1.23312 236.759 1.25675C236.33 1.27811 236.105 1.3304 235.638 1.35576C232.5 1.52654 229.942 1.66234 226.961 1.82628C226.372 1.85878 225.838 1.91251 225.443 1.93478C224.995 1.96 225.552 1.87287 224.984 1.92173C224.386 1.97342 224.262 2.02387 224.103 2.03507C224.004 2.04202 223.692 2.02458 223.405 2.04373C222.229 2.12126 220.506 2.28005 220.34 2.29231C220.251 2.29849 219.499 2.34522 218.694 2.39768C217.781 2.45653 216.76 2.4994 216.685 2.50073C216.603 2.50178 216.763 2.35369 216.046 2.54149C215.812 2.5567 215.593 2.57089 215.361 2.58555C215.397 2.55576 215.433 2.52597 215.468 2.49618C214.12 2.6705 214.581 2.58797 213.277 2.65956C210.152 2.82948 205.532 3.01839 202.101 3.25783C201.335 3.31127 201.045 3.3643 200.138 3.43471C199.561 3.47868 198.332 3.53455 197.784 3.60366C197.545 3.63335 197.427 3.66423 197.583 3.69304C195.716 3.74425 195.43 3.97165 194.492 3.92249C194.381 3.95052 194.268 3.97877 194.157 4.00679C193.141 4.01024 192.834 4.10603 191.729 4.20327C191.253 4.24484 191.796 4.11692 190.842 4.28647C190.658 4.29361 190.473 4.30073 190.29 4.30764C190.331 4.28377 190.372 4.25991 190.413 4.23604C189.347 4.33431 189.277 4.32798 189.404 4.39618C188.889 4.42064 188.371 4.44467 187.855 4.46776C187.793 4.49771 187.731 4.52766 187.668 4.55759C187.844 4.58155 193.796 4.12144 197.795 3.7164C199.449 3.55012 200.778 3.44955 201.255 3.40851C203.18 3.3256 207.034 3.04552 208.585 2.98468C209.206 2.95935 209.481 3.00326 210.385 2.96655C211.288 2.92999 212.421 2.82405 212.9 2.79917C214.514 2.74281 222.025 2.27274 216.918 2.67098C217.071 2.69026 217.221 2.70956 217.366 2.72889C218.082 2.65199 218.465 2.60945 218.708 2.58705C219.175 2.54444 219.259 2.56423 220.356 2.4911C221.072 2.4429 222.769 2.26396 222.682 2.39766C221.357 2.51102 219.941 2.57155 218.788 2.6606C218.776 2.6615 218.751 2.66404 218.714 2.6679C218.404 2.70314 217.254 2.82162 216.622 2.84121C215.985 2.86131 216.414 2.71835 215.045 2.92476C214.015 2.84339 213.422 2.99213 213.156 3.01787C212.687 3.0626 212.635 2.99938 212.165 3.01417C211.656 3.02997 211.302 3.09045 211.235 3.09395C210.537 3.12669 206.89 3.31368 206.722 3.29853C206.868 3.27919 207.014 3.2599 207.16 3.24065C206.212 3.27147 206.413 3.32846 206.165 3.34972C205.979 3.35946 205.794 3.3693 205.608 3.37926C205.681 3.36132 205.754 3.3434 205.827 3.3255C204.708 3.39063 205.567 3.38951 203.979 3.48063C202.972 3.53908 201.923 3.55564 201.828 3.5662C201.799 3.5693 202.119 3.58363 201.708 3.61618C201.031 3.66886 199.847 3.75727 199.716 3.7196C199.379 3.75313 199.413 3.79852 199.369 3.80315C199.287 3.81203 198.605 3.87055 197.817 3.94949C196.809 4.05067 195.603 4.16004 195.27 4.19004C193.626 4.33833 191.793 4.47544 190.009 4.61891C189.826 4.63358 189.941 4.59422 189.757 4.60907C189.461 4.63351 187.951 4.79286 187.724 4.81202C187.16 4.86155 185.673 4.94534 185.44 4.97439C185.407 4.97861 185.899 4.9869 185.328 5.03821C184.693 5.09477 185.032 5.01639 184.997 5.01817C183.704 5.08462 182.89 5.17311 182.009 5.23203C181.866 5.24154 181.662 5.24347 181.446 5.24696C181.225 5.25069 180.99 5.25733 180.786 5.27638C180.74 5.28073 180.835 5.3135 180.789 5.31829C180.177 5.3771 179.601 5.34741 179.335 5.36248C178.689 5.39958 179.044 5.42614 179.011 5.42896C178.581 5.46317 177.997 5.48997 177.346 5.54441C174.437 5.78951 172.054 5.96462 168.963 6.11172C168.562 6.13091 168.116 6.11365 168.051 6.11648C167.869 6.12484 167.91 6.16734 167.39 6.1886C166.262 6.23395 165.228 6.27336 164.116 6.3072C163.893 6.31395 163.795 6.27618 163.621 6.28045C163.055 6.29627 161.106 6.451 161.061 6.31834C159.938 6.46076 159.181 6.37326 158.254 6.38937C157.02 6.41074 155.374 6.43918 153.775 6.45479C152.614 6.4664 151.444 6.4742 150.533 6.4728C150.08 6.47207 149.861 6.43925 149.604 6.43876C149.164 6.43803 146.556 6.46879 146.417 6.46374C146.151 6.45448 146.321 6.30442 144.937 6.4399C144.14 6.45205 144.232 6.39027 144.066 6.38754C142.762 6.36734 141.509 6.50774 141.741 6.38156C140.237 6.41984 139.255 6.49131 138.639 6.37525C138.646 6.43251 137.935 6.46841 137.082 6.4481C137.955 6.3502 137.852 6.28922 139.965 6.30195C139.999 6.30215 139.935 6.34373 139.969 6.34393C140.274 6.346 140.907 6.3235 141.418 6.32435C141.933 6.32518 141.648 6.35429 141.855 6.35316C142.045 6.35205 142.039 6.31243 142.313 6.31107C143.195 6.30692 143.989 6.29333 144.489 6.29087C144.803 6.28936 145.162 6.32288 145.411 6.32194C146.357 6.31822 148.395 6.28226 149.595 6.27963C149.851 6.27917 149.746 6.31885 150.302 6.31906C150.367 6.31907 150.603 6.27705 151.08 6.26582C151.575 6.25447 151.948 6.27236 152.254 6.26617C152.508 6.26098 152.404 6.22551 152.943 6.2196C153.039 6.21854 153.353 6.21732 153.773 6.21595C155.341 6.21355 158.472 6.1864 158.689 6.18519C159.086 6.18679 159.271 6.23422 159.507 6.22363C159.55 6.22149 159.614 6.17119 159.764 6.16477C162.18 6.06896 167.504 5.96985 170.254 5.80711C174.085 5.61397 177.681 5.23692 181.432 4.99792C183.289 4.88745 185.171 4.7583 187.106 4.61771C187.209 4.60187 187.312 4.586 187.415 4.5701C186.829 4.6116 186.243 4.65211 185.657 4.69156C185.651 4.66875 185.646 4.64595 185.641 4.62314C184.848 4.67293 184.957 4.72 184.981 4.75154C184.688 4.75698 184.393 4.76222 184.099 4.76707C183.892 4.84854 182.472 4.91136 181.43 4.95882C181.229 4.96813 181.043 4.97792 180.881 4.98798C180.219 5.02855 179.436 5.11684 179.089 5.1407C178.356 5.19154 178.371 5.14129 178.313 5.14487C178.217 5.15092 177.197 5.27618 176.463 5.33249C175.379 5.41454 175.251 5.35005 173.775 5.52028C171.868 5.615 169.766 5.7546 167.701 5.85045C168.089 5.76355 166.261 5.90867 165.423 5.93526C161.864 6.05765 157.711 6.11618 153.773 6.12522C152.109 6.12943 150.488 6.13024 148.956 6.12956C148.291 6.12933 147.789 6.09003 147.423 6.09302C147.223 6.0946 147.136 6.14398 146.856 6.13868C146.809 6.13762 146.765 6.09204 146.255 6.0872C144.962 6.07548 141.763 6.16195 140.95 6.07585C136.547 6.10092 132.144 6.11968 127.743 6.13359C127.632 6.11488 127.521 6.09617 127.411 6.07745C126.574 6.17333 123.267 6.1159 121.657 6.11845C118.816 6.12374 115.199 6.1464 112.713 6.14212C112.168 6.14122 111.726 6.1127 111.22 6.11158C111 6.11113 110.722 6.14536 110.493 6.14473C107.924 6.13859 104.441 6.08607 101.854 6.06818C101.513 6.06586 101.18 6.06346 100.855 6.06099C95.3283 6.0234 90.1243 5.9175 84.5012 5.7258C82.9969 5.68343 81.4843 5.65922 79.9778 5.65208C68.8356 5.59618 57.7107 5.74543 46.6548 6.09785C40.8656 6.44862 35.4134 7.24812 29.7768 7.22983C28.0373 7.24907 26.3029 7.2665 24.571 7.28207C24.3029 7.28447 24.3161 7.24388 24.1095 7.24565C22.89 7.25602 20.1628 7.31439 18.7861 7.32373C17.6971 7.33152 15.9397 7.28303 15.5667 7.34794C19.466 7.41372 23.5932 7.36888 27.6535 7.35085C27.9438 7.34953 27.981 7.38757 28.0168 7.38788C28.6745 7.39395 28.2548 7.34571 29.2094 7.33254C29.283 7.33152 29.4959 7.33545 29.7781 7.3406C30.7062 7.36161 32.3863 7.36399 32.1118 7.27709C32.8209 7.33271 37.7458 7.07121 38.6978 6.94095C38.9848 6.91049 38.7781 6.89252 38.8349 6.88562C39.0805 6.85556 39.2024 6.89446 39.4217 6.87529C40.0145 6.82458 41.5193 6.63058 41.8085 6.60081C42.4704 6.53234 44.4669 6.37009 45.3614 6.31037C46.1469 6.25526 46.0339 6.2135 46.6571 6.18519C46.6791 6.18429 46.7028 6.1834 46.7286 6.18252C47.2776 6.1636 46.6914 6.22441 47.9025 6.2023C48.522 6.19004 50.6343 6.09921 51.1557 6.08624C51.6602 6.073 52.2423 6.08934 52.9552 6.06976C53.9779 6.04098 56.214 5.97548 57.2551 5.94646C57.317 5.94472 57.4739 5.90119 57.6254 5.89923C57.9388 5.89514 57.8455 5.94697 58.0848 5.94772C58.3274 5.94605 62.4943 5.87527 63.1958 5.8699C63.6914 5.86411 64.0142 5.83063 64.2872 5.82785C64.4995 5.82579 64.5227 5.86727 64.741 5.86542C64.8101 5.86468 65.3666 5.82255 65.9412 5.8181C66.4752 5.81335 68.5091 5.83258 68.7495 5.83194C68.903 5.83114 68.7399 5.80243 69.1886 5.80049C69.5989 5.79885 69.872 5.83599 70.1094 5.83541C70.6637 5.83399 71.2614 5.79881 71.851 5.79692C73.5105 5.79215 73.4391 5.8411 73.5348 5.84228C73.8097 5.84628 73.9208 5.80253 74.0116 5.80156C74.3942 5.79752 75.3439 5.7897 75.6825 5.7885C76.1087 5.78689 76.2931 5.82871 76.748 5.82982C77.0816 5.83052 77.7684 5.7918 78.5406 5.79302C78.9969 5.79367 79.4796 5.79455 79.977 5.79593C81.3585 5.79911 82.8127 5.81855 84.0735 5.85343C84.5851 5.86742 84.6611 5.90792 84.8173 5.91335C85.6369 5.94265 86.0936 5.9155 86.3289 5.92344C87.9948 5.98357 90.95 6.13311 92.4933 6.16668C93.1226 6.18334 95.8672 6.19869 97.4309 6.22063C97.6041 6.22321 97.4411 6.25105 97.635 6.24862C98.1029 6.24275 98.0628 6.18173 98.3059 6.18616C98.4293 6.18853 98.6816 6.22529 99.0183 6.23196C99.7271 6.2458 100.303 6.25071 100.854 6.25266C101.642 6.2552 102.298 6.2504 102.768 6.25459C110.435 6.32074 118.261 6.34948 125.419 6.3581C126.216 6.35894 127.207 6.32314 128.412 6.35787C128.449 6.37666 128.486 6.39545 128.523 6.41424C128.566 6.39576 128.608 6.37728 128.65 6.3588C130.016 6.34842 130.53 6.32439 131.926 6.34686C132.046 6.34873 132.412 6.43424 132.638 6.32743C134.022 6.40326 133.264 6.32621 134.287 6.31782C135.315 6.30935 136.306 6.33163 137.304 6.33516C137.85 6.37241 135.561 6.46444 135.413 6.46424C135.173 6.46425 134.923 6.41161 134.691 6.4091C134.007 6.40158 133.346 6.44434 133.192 6.3972C132.305 6.4481 133.409 6.422 133.298 6.46715C132.705 6.44914 132.117 6.43104 131.526 6.41284C131.223 6.56652 127.961 6.36793 128.188 6.48437C127.928 6.46105 127.668 6.43771 127.409 6.41436C126.27 6.56066 125.601 6.45752 124.082 6.41314C124.191 6.43192 124.301 6.4507 124.41 6.46947C124.379 6.4773 123.04 6.50634 123.519 6.42693C122.141 6.53095 122.207 6.35624 120.97 6.48121C120.237 6.49651 120.681 6.42378 119.369 6.42319C118.592 6.42276 117.628 6.45948 116.762 6.46041C116.563 6.4605 116.476 6.41784 116.3 6.41747C116.121 6.41711 116.033 6.45858 115.817 6.45915C115.37 6.46043 114.797 6.42981 114.521 6.43193C114.27 6.43371 113.91 6.46955 113.312 6.47366C111.214 6.488 111.849 6.43719 111.519 6.41846C111.169 6.39843 110.904 6.46672 110.196 6.45616C110.125 6.45506 110.309 6.41264 110.078 6.4135C109.89 6.41413 109.808 6.4607 109.181 6.46699C108.933 6.47013 105.112 6.46265 104.532 6.45942C103.684 6.45606 101.797 6.40733 100.853 6.39706C100.812 6.39663 100.773 6.39627 100.736 6.39599C100.372 6.39312 99.993 6.42752 99.6256 6.42394C98.3727 6.41209 96.3623 6.38656 94.7798 6.35939C93.36 6.33728 90.8421 6.2 90.0694 6.25309C88.063 6.20935 87.5765 6.12612 87.4271 6.12137C87.0181 6.10608 86.827 6.14233 86.3131 6.12787C84.3502 6.07009 82.196 6.01654 79.9758 6.007C74.6472 5.9761 68.9484 5.98421 64.4775 6.03671C58.5487 6.10316 52.6007 6.23676 46.6633 6.42228C40.9406 6.76765 35.4299 7.57354 29.7805 7.55641C26.6297 7.59216 23.4906 7.62232 20.3538 7.64625C20.3141 7.6654 20.2745 7.68454 20.2349 7.70369C21.9752 7.70063 24.0212 7.71367 25.7399 7.70326C26.9308 7.696 28.3875 7.6619 29.7816 7.6444C31.0853 7.62857 32.3025 7.60551 33.1187 7.6356C32.439 7.67499 31.3303 7.65443 31.3483 7.71942C32.5686 7.69484 33.7828 7.65194 34.9978 7.58876C34.9595 7.56034 34.921 7.53191 34.8827 7.50344C36.1554 7.42494 37.445 7.33762 38.7164 7.22066C38.9361 7.20043 38.7785 7.18668 38.9684 7.16949C39.1853 7.14972 39.0408 7.19113 39.0815 7.18767C39.6235 7.13835 39.7872 7.09321 39.8524 7.08752C40.0206 7.07235 39.8933 7.11234 40.3836 7.07176C41.2929 6.99571 41.9405 6.8554 41.7382 6.99725C42.0313 6.96719 42.3257 6.93696 42.6209 6.90713C42.6935 6.86691 42.7656 6.82678 42.8397 6.78649C44.6636 6.73733 45.498 6.44732 46.5237 6.59585C46.5716 6.59033 46.6195 6.58493 46.6674 6.57965C46.9344 6.54861 47.2411 6.51557 47.5085 6.48372C47.7116 6.51051 47.8747 6.53844 48.0755 6.56529C48.1136 6.53609 48.1487 6.50698 48.1822 6.47791C49.9614 6.44619 51.8621 6.36167 53.5783 6.32507C54.7591 6.30008 55.0602 6.30479 56.1033 6.28117C58.4469 6.23039 56.1232 6.33077 58.0697 6.35454C57.9678 6.32195 57.8665 6.28936 57.7658 6.25679C58.0831 6.23833 58.4113 6.21986 58.7351 6.20165C58.9564 6.2259 59.1803 6.2502 59.4067 6.27454C60.3999 6.11252 61.0581 6.22076 61.186 6.21885C61.2902 6.21721 61.6776 6.12334 62.8488 6.18259C62.3554 6.0689 63.7572 6.17056 63.8607 6.17034C63.9648 6.16941 65.3163 6.12794 65.8678 6.12421C66.3031 6.12089 67.2214 6.13885 67.8632 6.13307C68.4277 6.12794 68.3721 6.08776 68.4131 6.08703C69.1143 6.07915 68.681 6.1135 69.1813 6.11205C69.6817 6.11069 70.0769 6.07416 70.1867 6.07673C70.2421 6.07813 70.0572 6.11689 70.3106 6.11937C70.9792 6.12611 72.2036 6.08889 72.9733 6.0887C73.2485 6.08852 73.5956 6.12021 73.8969 6.12097C74.3619 6.12203 74.5818 6.07936 74.8552 6.08067C74.9554 6.08126 75.5458 6.1473 76.3 6.13849C76.4449 6.13672 76.8619 5.99784 77.4158 6.19725C77.4587 6.16955 77.5017 6.14185 77.5447 6.11415C78.6452 6.08771 79.3758 6.11709 79.975 6.14262C80.7476 6.1762 81.2483 6.20488 81.8823 6.10034C83.7059 6.15391 82.4513 6.21062 82.6515 6.22585C82.7833 6.23564 83.3768 6.22683 83.4429 6.22982C83.5585 6.2349 83.5371 6.25949 83.6642 6.26241C85.99 6.31991 84.9591 6.24648 85.6953 6.23798C87.4476 6.22232 88.8068 6.42428 85.7657 6.27975C85.7652 6.29374 85.7648 6.30773 85.7643 6.32172C86.5128 6.33229 88.4161 6.39866 87.778 6.44961C87.2785 6.48847 82.7646 6.31485 85.3187 6.46983C85.8981 6.50537 86.199 6.46276 87.2011 6.59321C87.8623 6.61932 87.9672 6.49534 88.8635 6.57274C88.7138 6.52389 88.5669 6.47505 88.4228 6.42623C89.6508 6.40535 91.159 6.52023 92.1048 6.5147C92.4144 6.51313 93.5779 6.3228 93.3038 6.5298C93.8394 6.52808 96.3821 6.60534 96.8465 6.59079C96.9606 6.58732 97.1076 6.47758 98.7494 6.534C98.8614 6.54928 98.9744 6.56455 99.0884 6.57981C97.5967 6.60632 100.243 6.67384 99.5218 6.77407C99.2652 6.72376 98.09 6.68247 97.8922 6.65582C97.5683 6.61045 98.5336 6.56771 97.3049 6.56829C96.5171 6.73839 98.7523 6.68141 98.4149 6.84748C100.039 6.78445 100.196 6.86039 100.571 6.86684C100.665 6.86835 100.758 6.86974 100.849 6.871C102.256 6.89071 103.236 6.88208 104.628 6.90869C104.987 6.87606 102.293 6.80942 101.966 6.82165C102.949 6.72968 101.785 6.69844 100.85 6.72277C100.599 6.72889 100.365 6.73865 100.184 6.75208C100.11 6.71401 100.036 6.67594 99.9627 6.63787C100.254 6.64556 100.55 6.65253 100.851 6.65824C101.691 6.67466 102.543 6.68049 103.41 6.66298C103.487 6.67745 103.56 6.6919 103.633 6.70634C103.381 6.72588 103.11 6.74526 102.854 6.76467C103.821 6.8053 103.237 6.69266 104.512 6.79573C104.552 6.7538 104.592 6.71187 104.632 6.66995C105.849 6.69076 107.073 6.71063 108.297 6.72976C108.931 6.64814 111.282 6.688 110.853 6.79587C111.805 6.80679 110.637 6.74466 111.52 6.72094C111.903 6.71065 112.664 6.7097 112.853 6.73968C112.77 6.84369 111.633 6.85317 111.296 6.92357C111.498 6.94819 116.763 6.88727 116.299 7.00754C116.717 7.02305 116.523 6.9599 117.281 6.94529C119.405 6.90475 122.696 7.03241 124.406 6.87741C122.398 6.78956 121.804 6.88065 120.265 6.88243C119.28 6.88457 113.288 6.88626 114.629 6.77887C114.41 6.79233 114.186 6.80575 113.965 6.81917C113.742 6.78579 113.52 6.75239 113.298 6.71898C113.921 6.716 114.559 6.71291 115.179 6.70964C115.329 6.74271 115.478 6.77577 115.628 6.80882C115.697 6.78562 115.767 6.76242 115.836 6.73922C116.102 6.73516 116.367 6.73109 116.629 6.72698C116.555 6.7549 116.481 6.78283 116.408 6.81075C116.812 6.81639 117.218 6.82199 117.627 6.82753C117.517 6.78982 117.407 6.7521 117.297 6.71438C119.219 6.70839 118.562 6.73067 119.629 6.80246C120.424 6.81072 119.084 6.73686 120.76 6.7207C122.718 6.70154 121.43 6.81509 123.961 6.79245C123.998 6.77375 124.034 6.75506 124.07 6.73636C124.626 6.75541 125.184 6.77437 125.739 6.79325C125.665 6.76996 125.592 6.74666 125.518 6.72336C126.665 6.73282 128.248 6.68826 128.628 6.77944C127.465 6.73569 127.476 6.89502 127.778 6.92434C128.403 6.98624 137.629 6.9217 139.415 6.91137C141.702 6.901 143.432 6.94689 145.519 6.86057C144.104 6.8025 139.126 6.8687 138.181 6.8254C138.087 6.82121 138.114 6.67504 137.516 6.84061C135.579 6.81637 133.266 6.86606 130.849 6.86274C130.923 6.82063 130.997 6.77851 131.071 6.73639C132.558 6.82492 133.933 6.6267 133.74 6.79038C134.035 6.79005 134.329 6.78969 134.625 6.7893C134.625 6.76114 134.625 6.73299 134.625 6.70483C135.073 6.70424 135.519 6.7036 135.963 6.7029C135.963 6.73106 135.963 6.75922 135.963 6.78737C136.329 6.7868 136.703 6.78617 137.072 6.78551C137.11 6.75737 137.149 6.72923 137.187 6.70108C138.289 6.75783 142.064 6.59241 140.405 6.76424C140.928 6.76293 141.434 6.76158 141.962 6.76007C141.96 6.73949 141.958 6.7189 141.957 6.69832C142.181 6.69491 142.405 6.69149 142.627 6.68805C142.554 6.7069 142.481 6.72576 142.407 6.74461C143.421 6.70823 144.404 6.80297 145.068 6.73604C144.624 6.7236 144.188 6.71104 143.742 6.69844C144.59 6.72248 146.16 6.66103 146.295 6.66027C146.714 6.65829 146.953 6.69891 147.413 6.69901C147.829 6.69898 147.77 6.66723 147.848 6.66802C150.11 6.68985 149.235 6.86704 150.297 6.65649C150.409 6.68386 150.521 6.71123 150.632 6.7386C150.78 6.71441 150.926 6.69022 151.073 6.666C151.757 6.66419 152.394 6.66236 153.076 6.65985C152.854 6.62639 152.625 6.59293 152.402 6.55939C153.12 6.54365 153.551 6.5723 153.776 6.59083C153.874 6.59847 153.935 6.60436 153.964 6.60461C154.241 6.60655 154.366 6.56142 154.451 6.56063C158.507 6.52245 156.044 6.58762 158.072 6.72552C158.787 6.64924 158.061 6.59577 157.96 6.53119C158.922 6.54701 159.211 6.52381 160.238 6.50695C160.504 6.50253 160.785 6.53209 160.948 6.52894C161.09 6.52623 161.552 6.47781 161.894 6.46916C162.465 6.45479 163.228 6.45708 164.031 6.43171C164.68 6.41229 166.697 6.31622 168.099 6.25092C168.697 6.22367 168.553 6.26169 168.711 6.25439C168.778 6.25123 169.244 6.19088 169.623 6.17115C172.75 6.01619 175.951 5.78181 179.099 5.53345C179.878 5.47442 180.664 5.41577 181.453 5.36671C182.899 5.27654 184.35 5.1719 185.789 5.07603C186.262 5.04446 186.013 5.08933 186.22 5.07615C186.29 5.07142 186.373 5.01747 187.104 4.9855C187.368 4.97383 187.067 5.02926 187.327 5.01252C187.453 5.00425 187.504 4.95833 188.241 4.89509C189.581 4.77949 190.306 4.77999 190.425 4.76935C190.649 4.74889 190.582 4.71869 190.881 4.69436C192.343 4.57488 193.563 4.47016 194.867 4.35711C195.198 4.32831 196.597 4.20765 197.83 4.08998C198.867 3.99092 199.803 3.92022 199.907 3.91479C200.424 3.88933 199.95 3.99882 200.613 3.94695C200.796 3.9148 200.982 3.88274 201.168 3.85099C200.868 3.8579 200.576 3.86494 200.277 3.87326C201.092 3.83535 202.012 3.7399 202.616 3.70262C202.726 3.69548 203.753 3.66485 204.275 3.63118C204.055 3.65795 203.832 3.68503 203.611 3.71229C203.691 3.71931 203.77 3.72635 203.849 3.73342C204.893 3.65302 205.998 3.59273 207.069 3.53947C207.455 3.52027 207.327 3.55563 207.717 3.53661C209.995 3.42813 209.414 3.33829 211.616 3.45656C210.874 3.47097 208.177 3.63092 207.785 3.64461C207.512 3.65303 206.442 3.51984 206.841 3.69321C204.654 3.81 206.548 3.59861 204.507 3.73706C204.549 3.75833 204.591 3.77962 204.633 3.80091C203.921 3.85688 203.397 3.90092 202.96 3.88654C202.824 4.0087 200.394 4.09919 199.071 4.22182C198.671 4.25752 198.262 4.29662 197.854 4.33864C196.283 4.49946 194.603 4.65899 193.104 4.78473C192.45 4.83944 192.076 4.82364 191.995 4.83026C191.875 4.8401 191.541 4.90595 191.302 4.92488C190.409 4.99743 187.685 5.13245 187.016 5.28761C190.635 5.03017 194.251 4.74853 197.861 4.41434C199.56 4.25445 201.26 4.13429 202.963 4.02671C202.291 4.00673 207.678 3.69488 207.952 3.69136C208.206 3.68095 207.994 3.72946 208.07 3.72794C208.629 3.7159 209.106 3.63764 209.283 3.62895C209.42 3.62225 209.692 3.63459 210.176 3.61066C210.265 3.6063 210.288 3.57796 210.383 3.57331C211.011 3.54303 211.633 3.51384 212.263 3.48363C212.302 3.48205 212.463 3.51409 212.621 3.50661C212.778 3.49914 212.939 3.45172 212.978 3.44971C213.477 3.42615 214.351 3.40961 214.828 3.38594C214.995 3.37754 214.878 3.35431 215.064 3.34522C215.636 3.31682 215.449 3.38372 216.159 3.33144C216.394 3.31383 216.38 3.27131 216.833 3.25168C217.152 3.23761 217.127 3.31658 217.177 3.31652C217.244 3.31686 218.35 3.18756 218.717 3.20891C218.369 3.29503 218.512 3.29216 218.759 3.25838C219.066 3.21635 219.546 3.12836 219.499 3.10073C219.94 3.0824 220.383 3.06461 220.822 3.04763C220.97 3.02268 221.121 2.99763 221.269 2.97289C223.049 2.91309 224.129 2.80309 225.877 2.71235C225.963 2.70759 227.435 2.64854 227.368 2.67313C226.489 2.76133 225.611 2.81826 225.043 2.79057C224.122 2.97254 224.101 2.87544 222.604 2.99269C222.104 3.03225 222.069 3.06807 222.012 3.0724C221.088 3.14392 219.896 3.23622 218.764 3.31714C217.511 3.40459 216.317 3.44341 215.624 3.42932C215.256 3.47489 216.583 3.41541 216.068 3.46199C215.787 3.49423 209.023 3.84596 211.179 3.63168C210.956 3.64541 210.727 3.65946 210.506 3.67321C210.287 3.78912 209.17 3.81941 209.291 3.70848C209.185 3.73517 209.082 3.76176 208.977 3.78845C208.77 3.81689 208.522 3.83895 208.177 3.86212C206.85 3.92947 198.957 4.38545 198.546 4.47836C198.539 4.50399 198.531 4.52962 198.524 4.55525C202.001 4.28252 205.381 4.04317 209.186 3.92483C209.075 3.90691 208.963 3.88902 208.852 3.87117C210.368 3.82874 211.893 3.79017 213.408 3.74998C211.803 3.86954 209.252 4.02482 207.564 4.07735C207.264 4.08655 207.482 4.04273 207.413 4.04233C207.233 4.04144 207.042 4.10762 206.397 4.1475C205.751 4.18653 204.125 4.23935 203.978 4.25012C203.69 4.26937 202.921 4.3812 202.434 4.41232C201.793 4.45326 202.22 4.38514 202.091 4.39275C201.559 4.42413 201.083 4.47743 200.667 4.50501C200.048 4.54452 198.758 4.57906 198.337 4.72246C198.778 4.68739 199.219 4.65509 199.661 4.62465C199.047 4.68317 198.455 4.73238 197.895 4.77923C196.274 4.91373 194.778 4.98658 193.038 5.20379C192.511 5.37209 194.463 5.19666 192.815 5.38396C193.116 5.35785 193.415 5.33179 193.714 5.30545C193.781 5.27366 193.85 5.2417 193.918 5.20973C194.433 5.18603 194.955 5.16103 195.472 5.13543C195.323 5.1248 195.172 5.11424 195.024 5.1033C196.051 5.00643 197.078 4.90376 197.901 4.83962C198.536 4.79034 199.056 4.77365 199.337 4.80583C199.372 4.77252 199.407 4.73922 199.442 4.70592C201.138 4.60187 203.68 4.31949 203.215 4.51732C203.295 4.50336 203.375 4.48948 203.455 4.47564C204.484 4.44802 204.041 4.40505 204.426 4.37437C204.537 4.36446 206.534 4.29023 205.653 4.38906C207.603 4.32192 206.994 4.19785 207.531 4.16267C208.781 4.17606 211.023 3.95139 210.084 4.12033C210.271 4.11593 210.457 4.11161 210.642 4.10737C211.251 3.98076 211.853 4.06228 212.52 4.06724C212.742 4.05886 212.97 4.05014 213.194 4.0416C213.341 4.00176 213.489 3.96188 213.64 3.92185C215.756 3.97421 215.071 3.58101 216.053 3.88844C215.899 3.91802 215.755 3.94699 215.605 3.97616C215.243 4.00504 214.892 4.03286 214.536 4.06065C215.957 3.99859 217.382 3.93831 218.803 3.84279C218.821 3.84155 218.839 3.84032 218.857 3.83908C220.681 3.80301 221.71 3.62146 223.737 3.56583C223.925 3.54385 224.113 3.5219 224.303 3.49998C224.114 3.5936 223.38 3.62946 224.75 3.57663C224.87 3.62619 223.947 3.69352 223.523 3.67788C223.421 3.67391 224.282 3.57269 223.311 3.63578C222.652 3.67922 223.852 3.66595 221.876 3.77582C221.949 3.78473 222.023 3.79364 222.098 3.80256C221.884 3.81688 221.669 3.8314 221.455 3.84602C221.263 3.82702 221.07 3.8082 220.877 3.78948C220.392 3.87111 220.119 3.95563 219.001 4.02529C219.204 3.99638 219.081 3.97151 218.813 3.97134C218.688 3.9709 218.511 3.97696 218.331 3.98962C218.333 4.013 218.334 4.03639 218.336 4.05977C216.985 4.1622 217.445 4.0634 216.329 4.17973C216.217 4.16711 216.104 4.15449 215.989 4.1419C215.379 4.25234 213.145 4.41292 213.546 4.27811C212.923 4.42025 211.599 4.43261 211.105 4.36674C211.068 4.39178 211.031 4.41684 210.995 4.44189C210.732 4.45921 210.473 4.47636 210.211 4.49373C210.064 4.48674 209.918 4.47976 209.772 4.47275C209.588 4.49579 209.403 4.51895 209.218 4.54213C209.106 4.52427 208.993 4.50645 208.88 4.48866C208.584 4.53139 208.288 4.5742 207.992 4.61726C207.809 4.6079 207.626 4.59857 207.443 4.58934C207.427 4.63839 205.626 4.74444 205.121 4.74194C204.972 4.76454 204.823 4.78717 204.674 4.80997C204.599 4.79104 204.525 4.77213 204.45 4.75324C204.34 4.77826 204.229 4.80331 204.119 4.82842C203.861 4.82514 203.602 4.82215 203.346 4.8194C202.305 4.99817 202.264 4.90251 202.027 4.9187C201.582 4.94806 200.08 5.12891 199.832 5.14646C199.578 5.1628 199.454 5.13196 199.253 5.14469C198.689 5.1806 198.26 5.21375 197.939 5.24186C196.31 5.38148 197.176 5.37956 196.616 5.44465C196.254 5.48629 195.994 5.47068 195.669 5.50294C195.122 5.55938 192.346 5.837 192.187 5.84316C191.953 5.85446 192.488 5.63215 191.734 5.73812C191.719 5.83646 190.089 5.86471 190.858 5.94024C190.191 5.97986 189.524 6.01841 188.856 6.0558C188.941 6.16412 188.113 6.15186 187.218 6.22147C185.951 6.32292 183.094 6.58115 183.192 6.45571C182.888 6.50143 182.587 6.54653 182.283 6.59137C182.031 6.60165 181.773 6.6131 181.523 6.62468C179.723 6.70807 177.945 6.89331 176.129 7.03513C169.999 7.53973 163.324 7.73132 157.212 7.78871C156.915 7.79159 156.951 7.75278 156.745 7.75459C156.138 7.76013 154.98 7.78048 153.785 7.79463C152.855 7.80593 151.892 7.81532 151.191 7.81568C150.693 7.81593 150.456 7.77986 150.297 7.77903C149.758 7.7759 149.884 7.82441 149.634 7.82433C149.255 7.82424 147.194 7.78828 146.475 7.78622C146.129 7.78527 145.715 7.82601 145.3 7.81548C145.264 7.81463 145.33 7.77408 145.3 7.77349C144.542 7.77135 144.999 7.8045 144.746 7.80359C142.934 7.79698 141.009 7.80167 139.045 7.79767C138.557 7.79664 137.809 7.76973 137.393 7.76781C137.234 7.76715 137.52 7.79722 136.968 7.79568C136.779 7.79515 136.714 7.75549 136.5 7.75327C135.582 7.74393 135.277 7.87214 134.484 7.77041C132.963 7.77928 130.309 7.81405 128.919 7.81498C128.59 7.81519 128.43 7.79173 128.116 7.7922C127.894 7.79251 127.503 7.82892 127.156 7.82935C126.808 7.82975 126.26 7.79505 125.594 7.79611C124.891 7.79717 124.016 7.81724 123.859 7.81701C123.668 7.81689 123.579 7.77306 123.388 7.77348C122.807 7.77453 121.26 7.81607 120.514 7.81973C119.718 7.82365 119.231 7.80167 118.959 7.80168C118.705 7.80187 118.411 7.83831 118.296 7.83844C118.116 7.8387 118.075 7.79547 117.844 7.79543C117.469 7.79546 117.083 7.82188 116.525 7.82146C111.249 7.81712 106.022 7.79675 100.842 7.74828C96.1072 7.70326 91.3942 7.62154 86.7157 7.44778C85.6224 7.41004 85.0047 7.41668 83.4015 7.36413C82.7498 7.34407 83.0259 7.30545 82.5195 7.30411C82.2954 7.3039 82.3478 7.33978 82.0644 7.33687C81.3669 7.32975 80.607 7.31424 79.9685 7.30276C79.4492 7.29337 79.0192 7.28503 78.7749 7.28422C78.5577 7.28345 78.313 7.32217 77.8621 7.3212C74.54 7.31373 70.5974 7.31013 67.0201 7.34681C65.1244 7.36513 62.2551 7.41836 60.0823 7.45613C55.677 7.52922 51.0239 7.64075 46.6985 7.77031C45.1707 7.81137 43.6556 7.97399 42.2043 8.12156C38.0958 8.57055 33.937 8.87556 29.7962 8.91709C25.6484 8.96938 21.5133 9.00822 17.3579 9.01914C20.9304 9.08025 25.6982 9.03459 29.7971 8.99464C30.1478 8.99123 30.4755 8.98682 30.8141 8.98104C36.0389 8.9697 41.4857 8.17415 46.7011 7.87183C54.1786 7.63161 61.7657 7.47474 69.1688 7.43437C72.3988 7.41563 76.2353 7.41147 79.9677 7.44098C81.3539 7.45146 82.7119 7.47693 84.0209 7.51761C84.2408 7.52428 84.6952 7.50615 85.1693 7.52384C85.2707 7.52728 86.5177 7.62277 86.9408 7.63695C86.5432 7.52509 88.1955 7.66619 88.708 7.67804C89.356 7.6939 90.6995 7.68147 92.214 7.74059C93.588 7.79354 93.2025 7.82327 93.2799 7.82739C93.7794 7.852 93.9276 7.79297 94.309 7.79311C95.1847 7.79451 98.077 7.84066 100.841 7.86868C102.895 7.89059 104.893 7.90837 105.811 7.91402C106.377 7.91745 106.398 7.95659 106.521 7.95734C106.852 7.95919 107.328 7.92281 107.874 7.92544C108.833 7.9302 109.961 7.97131 110.491 7.97329C111.767 7.97837 114.199 7.9419 115.852 7.94454C116.321 7.94531 116.293 7.98591 116.503 7.98621C117.428 7.98755 119.859 7.94359 121.008 7.94434C122.883 7.94581 124.814 7.97333 126.719 7.96017C126.84 7.97833 126.961 7.99649 127.082 8.01464C127.273 7.99561 127.463 7.97657 127.654 7.95751C130.878 7.97188 134.158 7.92809 137.365 7.92484C137.729 7.92455 139.566 7.95539 139.864 7.95473C140.12 7.95412 140.371 7.90856 140.747 7.91422C141.273 7.92203 140.779 8.00897 141.635 7.98215C141.868 7.97487 141.643 7.93888 142.11 7.92612C142.267 7.92213 145.234 7.89748 145.403 7.89908C145.672 7.90234 145.909 7.97991 145.978 7.98133C146.334 7.98878 146.318 7.92859 146.556 7.92212C147.28 7.90272 148.183 7.93909 148.309 7.93759C149.697 7.92021 152.302 7.85735 153.764 7.87466C153.771 7.87476 153.778 7.87492 153.785 7.87513C153.968 7.88049 153.946 7.92219 153.981 7.92332C154.214 7.93082 154.357 7.87855 154.576 7.87548C155.735 7.86024 157.592 7.87157 158.767 7.8596C158.905 7.85823 159.192 7.82864 159.431 7.82658C160.807 7.81397 160.362 7.86129 160.44 7.86167C160.628 7.8619 160.935 7.81202 161.44 7.79753C162.704 7.76267 165.143 7.69617 166.5 7.64454C167.519 7.60692 167.505 7.65582 167.571 7.65432C167.705 7.65033 168.119 7.59309 168.778 7.55732C170.067 7.4857 169.932 7.52971 170.453 7.50038C170.495 7.49796 170.422 7.46418 171.01 7.42694C172.137 7.35895 174.703 7.22144 175.915 7.12208C176.378 7.08544 176.486 7.03984 176.964 7.00128C177.721 6.9392 179.424 6.84613 179.556 6.83799C179.593 6.83525 179.675 6.78655 179.895 6.77083C180.137 6.75355 180.377 6.75907 180.557 6.74706C180.844 6.72787 181.188 6.70049 181.526 6.67645C182.405 6.614 183.233 6.55453 182.881 6.68552C183.214 6.62789 183.543 6.56994 183.874 6.51146C186.051 6.38069 188.161 6.21519 190.313 6.04379C190.795 6.00535 191.203 6.00253 191.611 5.96912C192.02 5.93645 193.818 5.74377 194.119 5.71716C194.609 5.67692 197.249 5.44533 197.952 5.37763C198.011 5.37225 198.056 5.36823 198.085 5.36577C198.822 5.30344 199.534 5.30925 199.838 5.2731C200.077 5.24458 199.851 5.22644 200.309 5.18141C201.102 5.10278 202.457 5.05837 202.702 5.04261C202.806 5.03595 202.608 5.01977 203.582 4.95778C204.107 4.92475 204.39 4.93883 204.581 4.9276C204.64 4.92425 204.548 4.87923 205.588 4.82784C206.306 4.79293 206.615 4.81497 206.69 4.81104C206.803 4.80532 207.074 4.75041 207.529 4.72842C208.591 4.67675 210.537 4.62905 211.549 4.58455C211.746 4.57584 211.673 4.53036 212.456 4.49754C213.009 4.47435 212.919 4.51758 213.127 4.50918C213.455 4.49581 213.95 4.4245 214.68 4.38986C215.131 4.36604 216.984 4.29743 218.829 4.1768C220.734 4.04679 222.613 3.93641 222.792 3.93079C223.031 3.92322 223.304 3.90543 223.423 3.91867C223.324 3.94561 223.225 3.97256 223.126 3.99951C222.078 3.99914 222.505 4.05186 222.228 4.07598C221.829 4.11032 220.316 4.20718 219.953 4.25236C219.824 4.26844 220.123 4.28963 219.428 4.36331C219.197 4.38774 219.007 4.39988 218.846 4.40858C218.476 4.42841 218.247 4.42851 218.036 4.51543C216.956 4.46722 215.928 4.64448 217.176 4.60829C217.361 4.60192 218.001 4.57413 218.854 4.51777C221.134 4.36136 225.013 4.12998 226.021 4.07339C227.141 4.0076 229.235 3.85045 230.612 3.78085C231.421 3.73889 233.414 3.63623 233.333 3.69701C234.052 3.66578 233.289 3.65064 233.439 3.63488C233.754 3.60109 235.998 3.52377 236.422 3.50207C237.401 3.45006 238.5 3.38203 239.599 3.32396L239.624 3.32255C240.965 3.21381 242.126 3.07547 243.202 3.06294C243.107 3.08325 243.019 3.1034 242.926 3.12403C242.482 3.16447 240.425 3.32193 240.149 3.41652C242.294 3.19133 244.286 3.09625 246.413 3.04918C247.388 3.02663 248.378 3.01132 249.365 2.99556C249.305 2.9362 253.165 2.87332 253.351 2.89443C253.283 2.92541 253.216 2.95638 253.148 2.98732C250.962 2.91586 251.161 3.05895 249.696 3.00377C249.101 3.01205 249.281 3.05815 248.987 3.07213C246.079 3.21404 248.934 2.96986 246.711 3.0564C247.022 3.08212 246.802 3.10931 246.415 3.13451C245.942 3.16477 245.198 3.19624 244.758 3.21762C244.573 3.21742 242.174 3.32428 241.901 3.36214C241.303 3.40991 240.535 3.50948 239.641 3.57522L239.61 3.57691C238.26 3.6473 236.801 3.72403 235.795 3.75074C234.518 3.81075 233.818 3.89829 232.659 3.97269C231.78 4.02956 232.03 3.98041 231.616 4.00288C230.747 4.05035 230.468 4.17485 229.903 4.05621C229.315 4.10898 228.727 4.16241 228.14 4.21649C228.138 4.19309 228.137 4.1697 228.136 4.14631C227.766 4.16849 227.395 4.19098 227.026 4.21368C226.919 4.24366 226.811 4.27372 226.704 4.30377C225.529 4.34493 226.015 4.25828 225.792 4.20575C225.539 4.21718 225.283 4.22888 225.031 4.24056C224.837 4.30404 224.644 4.3676 224.452 4.43117C223.32 4.50083 222.19 4.57318 221.058 4.64933C220.983 4.63123 220.909 4.61314 220.834 4.59505C220.833 4.61852 220.833 4.64198 220.832 4.66545C220.179 4.7137 219.527 4.76314 218.877 4.814C217.587 4.9127 216.309 4.98041 215.043 5.04811C214.528 5.11335 217.627 4.97987 217.868 4.96085C218.127 4.94707 218.492 4.92389 218.883 4.89419C220.419 4.77609 222.608 4.6155 222.617 4.68194C223.415 4.564 225.837 4.42243 226.594 4.45125C225.452 4.51767 224.307 4.58696 223.166 4.65917C223.205 4.68455 223.244 4.70993 223.282 4.73531C221.853 4.71916 221.644 4.73967 220.191 4.95104C220.187 4.9138 220.183 4.87657 220.179 4.83933C219.813 4.91314 219.34 4.94919 218.889 4.97323C218.071 5.01679 217.306 5.00591 217.282 5.11052C216.731 5.12966 216.177 5.14627 215.632 5.16135C214.454 5.23957 216.283 5.27709 211.671 5.4493C211.35 5.46123 211.419 5.41696 210.94 5.44269C210.8 5.45043 210.018 5.54662 208.511 5.61555C208.277 5.62631 208.257 5.59173 208.013 5.59959C207.45 5.61714 206.334 5.74662 206.836 5.60545C204.609 5.69179 205.536 5.73688 204.849 5.81254C204.39 5.8638 204.479 5.7908 204.083 5.82962C203.592 5.87925 203.954 5.92059 201.99 6.01781C202.208 5.99847 202.428 5.97933 202.65 5.96039C202.537 5.94908 202.425 5.93781 202.313 5.9266C201.195 6.04601 201.297 5.97531 200.777 6.11719C199.961 6.13115 199.257 6.18105 198.159 6.29091C198.118 6.29506 198.078 6.29914 198.04 6.30316C196.013 6.50865 197.057 6.52204 194.596 6.58284C194.192 6.63795 193.793 6.69214 193.388 6.74643C192.722 6.75547 193.253 6.6569 192.261 6.7248C193.043 6.77352 190.951 6.89871 190.604 7.02296C190.565 7.00242 190.526 6.98189 190.487 6.96135C190.265 6.9783 190.044 6.99509 189.822 7.01176C189.823 7.03056 189.824 7.04936 189.825 7.06815C189.527 7.07645 189.233 7.08426 188.936 7.09204C188.716 7.12694 188.494 7.16188 188.274 7.19652C187.906 7.18382 187.538 7.17074 187.17 7.1573C186.941 7.17079 186.711 7.18413 186.482 7.19732C186.556 7.22023 186.631 7.24312 186.705 7.26599C186.41 7.27718 186.115 7.28809 185.819 7.29876C186.165 7.32109 185.954 7.39029 185.035 7.44984C184.276 7.49808 185.126 7.34834 183.497 7.49134C183.384 7.50056 183.187 7.58443 181.644 7.68335C181.623 7.68465 181.603 7.68593 181.583 7.68717C179.861 7.80253 180.709 7.70445 180.391 7.72247C180.328 7.72632 179.777 7.79891 179.258 7.84339C178.96 7.86867 178.676 7.86299 178.636 7.86621C178.451 7.88194 178.404 7.92502 178.149 7.94656C177.505 8.00089 176.633 8.05149 175.996 8.10261C175.705 8.12594 175.435 8.1698 175.306 8.17976C175.104 8.19525 174.846 8.17866 174.644 8.19351C173.896 8.24957 172.755 8.44351 172.4 8.3011C171.69 8.49857 170.153 8.40087 170.277 8.49472C168.342 8.5752 163.202 8.87075 163.342 8.68991C162.261 8.86536 162.341 8.75701 161.893 8.77057C161.383 8.7853 161.649 8.80712 161.238 8.8154C160.294 8.83393 159.391 8.83925 158.435 8.85424C158.586 8.82852 158.735 8.80274 158.884 8.7769C157.872 8.7862 158.245 8.83461 157.222 8.85967C155.369 8.90251 156.148 8.84865 155.873 8.79115C155.925 8.83969 154.454 8.85684 153.793 8.856C153.663 8.85589 153.568 8.8552 153.531 8.85414C153.395 8.85031 153.987 8.77045 152.638 8.80415C152.713 8.82701 152.788 8.84987 152.862 8.87272C152.246 8.84516 150.592 8.89549 150.314 8.88902C150.186 8.88608 149.487 8.70151 148.862 8.85361C148.786 8.83063 148.709 8.80764 148.632 8.78466C147.913 8.8162 147.239 8.84727 146.522 8.87829C146.411 8.83667 146.3 8.79505 146.189 8.75342C145.968 8.75431 145.746 8.75518 145.522 8.75603C145.671 8.79281 145.819 8.82959 145.966 8.86637C144.581 8.855 142.909 8.91911 142.628 8.79395C142.334 8.81819 142.039 8.84241 141.742 8.8666C141.546 8.82523 141.36 8.78383 141.168 8.74244C139.806 8.75655 139.781 8.78454 138.851 8.83127C138.887 8.79848 138.924 8.76568 138.96 8.73289C138.268 8.78036 137.018 8.82556 136.023 8.83287C135.554 8.8363 134.742 8.79234 134.63 8.79656C134.517 8.80104 133.414 8.97946 133.292 8.82622C131.664 8.89581 130.945 8.82676 130.286 8.82882C129.857 8.83017 129.661 8.86707 129.175 8.87103C128.481 8.87675 127.783 8.85902 127.382 8.86155C127.153 8.86309 127.11 8.89899 126.952 8.9001C126.205 8.90549 126.643 8.86889 125.855 8.8711C125.783 8.8715 125.208 8.91513 124.558 8.90917C124.195 8.9059 123.259 8.85601 123.175 8.85605C122.808 8.85659 123.099 8.95538 121.847 8.84048C121.883 8.85924 121.919 8.87799 121.956 8.89674C120.401 8.94263 120.158 8.85868 119.845 8.85251C119.805 8.85198 119.425 8.8837 119.198 8.87892C118.816 8.87074 118.662 8.82632 118.578 8.82423C118.284 8.81701 117.272 8.83467 116.62 8.79062C116.76 8.9167 114.462 8.95632 113.947 8.81247C113.537 8.83947 113.135 8.86643 112.728 8.89331C112.542 8.86933 112.357 8.84534 112.172 8.82134C112.06 8.84435 111.948 8.86735 111.836 8.89036C111.249 8.83707 110.646 8.7836 110.056 8.73001C110.019 8.78139 109.981 8.83276 109.943 8.88414C109.777 8.87767 109.616 8.8712 109.448 8.8647C109.317 8.82326 109.186 8.78182 109.055 8.74037C108.846 8.74736 108.639 8.75433 108.432 8.76129C108.381 8.79069 108.33 8.8201 108.279 8.84951C107.164 8.87875 107.738 8.59927 105.606 8.83702C105.273 8.81194 104.957 8.78689 104.615 8.76162C104.23 8.87314 103.555 8.80035 102.973 8.80936C102.573 8.81578 102.597 8.86112 102.059 8.85842C101.505 8.85551 101.529 8.81243 101.486 8.81185C101.237 8.80853 101.026 8.81827 100.834 8.82567C100.675 8.83138 100.528 8.83566 100.384 8.83114C100.336 8.8296 100.209 8.77734 99.8023 8.77051C99.3979 8.76366 99.1233 8.81572 98.5233 8.79933C98.2058 8.79083 98.1084 8.74657 97.8294 8.73966C96.4929 8.70634 95.1423 8.90602 94.1438 8.62957C93.923 8.65931 92.2739 8.7442 91.5712 8.72116C90.4742 8.68565 90.9102 8.64444 90.467 8.62445C90.4028 8.6213 90.0706 8.63104 89.1538 8.60249C88.9896 8.59732 89.0274 8.62712 89.0038 8.62684C87.9334 8.59727 85.8648 8.50449 84.7055 8.46701C84.6008 8.46383 84.0581 8.5269 83.141 8.3988C82.3565 8.42718 81.1794 8.37109 79.9626 8.34783C79.0607 8.33033 78.1674 8.32535 77.3961 8.3739C77.1455 8.37569 76.8432 8.34631 76.7333 8.34705C75.769 8.35441 76.1317 8.44038 73.9625 8.31348C74.1347 8.35778 73.6401 8.39793 72.917 8.39586C71.8426 8.39309 72.6087 8.30853 71.7443 8.31768C71.7443 8.34104 71.7444 8.36439 71.7445 8.38775C69.7632 8.33196 69.3583 8.43397 67.3706 8.449C66.6482 8.45458 65.5937 8.41276 65.421 8.41443C65.3543 8.41515 64.5772 8.47952 64.4979 8.48089C64.0731 8.48723 63.8383 8.46398 63.4771 8.46815C62.2674 8.48184 60.8391 8.57636 61.0976 8.43955C60.7661 8.47248 60.4304 8.50567 60.1044 8.53889C58.8503 8.41661 57.9174 8.62983 57.6606 8.4966C57.4372 8.52923 57.2089 8.56205 56.9877 8.59482C53.5686 8.65063 50.1626 8.73292 46.726 8.82528C44.9173 8.86922 43.0028 9.09557 41.0591 9.28259C40.8533 9.35177 38.4908 9.55743 38.3676 9.55582C37.8027 9.57057 38.3903 9.42815 37.2519 9.53822C37.1296 9.58989 37.0041 9.64158 36.8808 9.6929C35.4495 9.80477 36.1355 9.71482 35.5669 9.72197C35.3321 9.74109 35.4113 9.76961 35.0882 9.7902C33.8433 9.87225 31.6504 9.95965 29.8085 9.97926C29.087 9.98843 28.4413 9.99631 27.9086 10.0029C27.5283 10.0076 27.5858 9.97625 27.4681 9.97745C27.1442 9.98125 26.5153 10.0268 25.8621 10.0336C21.8576 10.0757 16.1939 10.1018 12.157 10.0934C11.8844 10.0928 11.8543 10.0563 11.669 10.0556C11.4055 10.0548 10.8386 10.0878 10.572 10.0862C10.3136 10.0848 10.1499 10.0579 9.88088 10.0561C8.63605 10.0476 6.97843 10.1025 5.63975 10.0252C5.52653 10.0188 4.1456 9.87581 4.10337 9.86614C3.92141 9.80912 5.14898 9.71544 3.12841 9.63692C4.93479 9.55827 4.36613 9.43113 2.01815 9.37277C3.18983 9.35422 4.3807 9.33436 5.56109 9.31364C5.56274 9.29825 5.56439 9.28287 5.56604 9.26748C4.48793 9.19515 3.42317 9.17343 1.78269 9.16934C1.83395 9.15501 1.88625 9.14068 1.93959 9.12634C3.39108 9.05265 5.12846 9.03372 6.22793 8.93218C4.61649 8.86672 3.00377 8.79978 1.38199 8.73029C1.46336 8.71894 1.55285 8.70757 1.62627 8.69623C2.39701 8.66604 4.08892 8.64441 4.73154 8.61491C7.18516 8.50287 2.58777 8.54422 3.33875 8.47821C5.93691 8.47357 8.52085 8.46409 11.1145 8.45126C11.2192 8.40843 1.22884 8.31992 1.33587 8.17324C2.16032 8.16264 2.96619 8.15136 3.78399 8.13959C3.41195 8.10493 3.05881 8.07012 2.69119 8.03523C2.78935 8.0237 2.89002 8.01215 2.9932 8.00058C4.35907 7.96948 5.74541 7.93682 7.11259 7.90312C2.95282 7.94869 0.979198 7.9289 0 7.64792C0.100677 7.64077 0.229187 7.63358 0.333477 7.62637C1.24908 7.80331 5.50824 7.73571 7.78207 7.68895C7.31244 7.63978 5.31781 7.68763 4.89548 7.65784C4.77364 7.64937 5.19862 7.61213 4.91596 7.59478C4.19075 7.55038 1.09504 7.49567 1.55623 7.43612C1.85103 7.39982 6.80122 7.33312 7.78042 7.33105C5.50619 7.27414 3.1695 7.26268 0.886873 7.18333C2.33209 7.06742 3.60208 6.9254 6.22189 6.90906C7.03009 6.84718 1.46145 6.7819 1.33593 6.74726C2.30769 6.71081 3.25512 6.67344 4.22161 6.6354C3.41147 6.64725 2.59655 6.65866 1.78046 6.66942C1.77805 6.6577 1.77564 6.64599 1.77323 6.63427C3.8796 6.57609 5.80834 6.46962 8.21827 6.46499C8.14036 6.40344 6.70033 6.41621 6.00121 6.41824ZM236.773 3.84431C236.824 3.8932 235.942 3.92835 235.445 3.95277C235.52 3.95832 235.595 3.96389 235.67 3.96947C234.611 4.01259 232.637 4.09875 232.57 4.20273C231.815 4.25642 232.144 4.15158 231.9 4.15512C231.805 4.15638 230.821 4.26154 230.029 4.24579C229.842 4.25683 229.655 4.26791 229.467 4.2791C229.432 4.31388 229.398 4.34865 229.364 4.38343C229.1 4.35905 228.837 4.33481 228.573 4.3107C231.304 4.14144 234.036 3.98599 236.769 3.84451C236.77 3.84444 236.771 3.84438 236.773 3.84431ZM209.491 5.47149C208.494 5.50131 206.969 5.55102 207.282 5.62468C207.909 5.58737 208.538 5.55101 209.167 5.5153C209.274 5.50071 209.383 5.48609 209.491 5.47149ZM110.173 8.6467C109.349 8.55548 108.573 8.62886 107.279 8.60711C107.28 8.62575 107.282 8.6444 107.283 8.66304C107.82 8.6208 109.213 8.65641 110.173 8.6467ZM261.503 2.58954C261.687 2.58815 261.874 2.58648 262.058 2.58467C261.311 2.71975 261.173 2.65534 260.326 2.69996C260.274 2.70264 260.293 2.72483 260.275 2.72569C260.067 2.73563 259.874 2.71551 259.687 2.72306C259.324 2.73764 259.031 2.77666 258.39 2.79734C257.895 2.81296 257.887 2.76891 257.714 2.77556C257.566 2.78187 256.099 2.94644 255.151 2.91603C253.351 2.8702 260.951 2.63066 261.503 2.58954ZM266.847 2.36752C266.669 2.38043 266.49 2.39313 266.312 2.40555C266.843 2.30152 265.762 2.38674 264.97 2.43538C264.99 2.37047 266.67 2.29171 267.419 2.21496C267.228 2.26613 267.038 2.31698 266.847 2.36752ZM244.395 2.97147C245.078 2.93862 244.969 3.02496 244.942 3.04964C244.721 3.05724 244.503 3.06542 244.289 3.07423C244.324 3.03997 244.36 3.00572 244.395 2.97147ZM249.579 2.8242C249.366 2.88255 247.862 2.92994 247.15 2.94895C247.121 2.94961 247.311 2.91541 246.814 2.92846C246.768 2.92968 246.603 2.94302 246.411 2.95798C245.944 2.99322 245.282 3.0416 245.509 2.94725C245.809 2.93523 246.104 2.92438 246.41 2.9141C247.457 2.87898 248.522 2.852 249.577 2.82423C249.578 2.82422 249.578 2.82421 249.579 2.8242ZM251.102 2.83227C250.819 2.85421 250.535 2.87603 250.251 2.89781C250.102 2.87438 249.956 2.85088 249.811 2.82738C250.129 2.81584 250.456 2.80415 250.778 2.79241C250.886 2.8057 250.995 2.81897 251.102 2.83227ZM37.9125 8.92483C37.9806 8.94701 38.0482 8.96917 38.1183 8.99108C38.379 8.98824 39.6171 8.75611 39.2191 8.76857C38.7857 8.82264 38.3497 8.87491 37.9125 8.92483ZM32.6145 9.17166C32.3538 9.16667 32.0888 9.16094 31.8307 9.15416C31.5308 9.20928 31.2325 9.26323 30.9336 9.31612C32.2379 9.32304 33.6301 9.29919 33.3992 9.17072C33.6911 9.15878 34.0008 9.14488 34.2924 9.13062C34.0474 9.19909 34.0785 9.21849 34.8633 9.21351C35.0296 9.12508 35.8411 9.12171 36.7625 9.03853C36.0862 9.0818 35.4208 9.11832 34.746 9.14936C34.7452 9.13538 34.7445 9.12141 34.7437 9.10743C36.2438 9.02785 34.372 9.05024 33.4022 9.14226C33.325 9.12678 33.2475 9.11123 33.1696 9.09562C32.9829 9.12148 32.798 9.14681 32.6145 9.17166ZM139.85 8.19768C139.667 8.18403 139.484 8.17038 139.3 8.15671C138.588 8.34165 140.038 8.1646 141.074 8.30691C140.732 8.19762 142.309 8.1979 142.4 8.19015C142.219 8.15358 142.037 8.117 141.854 8.08041C141.184 8.11966 140.525 8.15872 139.85 8.19768ZM134.631 8.08076C135.268 8.17148 132.135 8.18087 131.081 8.16114C130.824 8.15636 130.37 8.1064 130.185 8.11283C130.073 8.13144 129.961 8.15005 129.849 8.16865C129.716 8.10466 127.662 8.17732 126.852 8.21164C126.776 8.18827 126.7 8.16491 126.623 8.14154C126.328 8.15078 126.033 8.15999 125.738 8.16919C125.775 8.14592 125.812 8.12266 125.85 8.09939C125.626 8.12733 125.404 8.15525 125.18 8.18315C124.303 8.21391 124.843 8.08728 124.185 8.12652C123.454 8.17005 124.652 8.24631 124.63 8.29545C125.226 8.28311 126.574 8.25508 127.178 8.25365C127.524 8.25287 127.132 8.3411 128.624 8.2396C128.951 8.26313 129.278 8.28663 129.605 8.3101C130.206 8.27235 130.804 8.23451 131.407 8.19656C131.519 8.22911 131.631 8.26166 131.743 8.29421C131.807 8.29931 133.194 8.22394 133.121 8.19946C133.684 8.26127 134.84 8.27108 136.054 8.27229C136.171 8.25437 136.286 8.23644 136.404 8.21851C135.231 8.2587 136.031 8.20033 135.681 8.16692C135.479 8.14765 134.859 8.11006 134.631 8.08076ZM46.0288 8.11964C44.1194 8.32091 45.3094 8.16518 43.21 8.35834C43.3588 8.386 43.5139 8.41326 43.6628 8.44141C44.6912 8.25591 46.3605 8.21357 46.0308 8.11954C46.0302 8.11958 46.0295 8.11961 46.0288 8.11964ZM25.1421 9.41256C26.2624 9.37551 25.7086 9.31582 27.1331 9.27964C27.1338 9.27963 27.1344 9.27962 27.1351 9.27962C26.4065 9.28274 25.6476 9.28595 24.9165 9.28863C24.9932 9.32993 25.0677 9.37125 25.1421 9.41256ZM91.0734 8.04001C92.1585 8.08293 91.9421 8.04533 92.9313 8.13045C94.4059 8.07819 93.1521 8.06645 93.1561 7.9943C92.8307 8.00938 92.4788 8.0236 92.1526 8.03796C91.3345 7.95308 92.1164 7.93582 92.1139 7.92922C92.1132 7.92921 92.1126 7.92919 92.1119 7.92918C92.1115 7.90749 92.1419 7.90366 91.8242 7.88374C91.5705 7.93597 91.3311 7.98831 91.0734 8.04001ZM95.7181 8.03634C95.3548 8.07898 95.1749 8.13829 96.1567 8.18253C96.1574 8.18254 96.1581 8.18255 96.1588 8.18256C96.2496 8.07683 97.1734 8.1751 97.602 8.17263C97.7124 8.16225 97.8237 8.15186 97.936 8.14146C97.212 8.1077 96.4638 8.07267 95.7181 8.03634ZM112.063 8.04929C112.067 8.16758 111.246 8.17629 112.401 8.28884C112.626 8.28741 112.854 8.28596 113.075 8.28447C113.221 8.25892 113.367 8.23337 113.514 8.20781C116.355 8.42889 117.204 8.06727 112.402 8.19046C112.401 8.19054 112.4 8.19062 112.4 8.1907C112.287 8.14357 112.175 8.09643 112.063 8.04929ZM107.059 8.0402C107.022 8.10212 106.986 8.16404 106.95 8.22597C106.335 8.07329 105.515 8.21233 104.281 8.09956C104.169 8.1178 104.058 8.13603 103.947 8.15425C103.693 8.12817 101.953 8.10311 100.84 8.10676C100.044 8.1091 99.5603 8.12557 99.9473 8.16778C100.166 8.19136 100.525 8.18947 100.839 8.18238C101.112 8.17572 101.346 8.1647 101.385 8.16559C101.65 8.17225 102.028 8.22832 102.47 8.22818C102.726 8.22805 103.308 8.16914 103.835 8.17238C105.057 8.18018 107.245 8.35943 108.836 8.20631C108.951 8.22548 109.066 8.24466 109.181 8.26383C110.363 8.25691 109.959 8.19612 111.065 8.27067C111.815 7.97897 106.664 8.26834 107.732 8.03322C107.731 8.03321 107.73 8.03321 107.73 8.03321C107.504 8.03556 107.281 8.03789 107.059 8.0402ZM74.6311 7.66751C74.5564 7.6143 73.1997 7.69718 73.5187 7.57003C73.0697 7.61475 72.622 7.65979 72.1805 7.70513C72.1839 7.71692 72.1873 7.72871 72.1907 7.74051C72.6296 7.73009 73.0747 7.71997 73.5209 7.71016C73.5226 7.72888 73.5243 7.74759 73.526 7.76631C74.1762 7.69665 76.9405 7.72941 76.8538 7.79632C76.9999 7.76866 77.1463 7.74105 77.2932 7.71346C78.2222 7.7696 79.0457 7.74912 79.9659 7.76093C80.359 7.76598 80.7548 7.7775 81.1775 7.80442C81.2901 7.78249 81.4012 7.76064 81.5109 7.73886C81.5821 7.7585 81.6514 7.77815 81.7253 7.79791C82.243 7.80753 82.7662 7.81946 83.2841 7.83349C84.9789 7.79737 81.6912 7.62399 81.2913 7.63751C81.2397 7.6385 81.2393 7.68675 80.9146 7.69104C80.7571 7.69302 80.418 7.68901 79.9663 7.68401C78.7197 7.66961 76.7458 7.6439 75.9832 7.66675C75.9744 7.6346 75.9656 7.60244 75.9568 7.57028C75.5126 7.60238 75.0801 7.63479 74.6311 7.66751ZM118.404 8.19067C118.478 8.2235 118.553 8.25634 118.628 8.28917C119.921 8.25858 120.733 8.28802 120.403 8.17944C120.402 8.17944 120.401 8.17944 120.401 8.17944C119.74 8.18332 119.066 8.18705 118.404 8.19067ZM214.354 4.71688C214.316 4.65365 213.694 4.65983 212.901 4.74437C212.941 4.76138 212.981 4.77838 213.02 4.79539C213.431 4.72006 213.959 4.7923 215.24 4.715C215.238 4.68232 215.237 4.64965 215.235 4.61698C214.944 4.6504 214.646 4.68386 214.354 4.71688ZM117.288 8.17452C116.892 8.13523 115.794 8.24994 116.517 8.25722C117.07 8.26273 117.499 8.19563 117.288 8.17452ZM20.697 9.39176C20.9856 9.39603 21.2768 9.40024 21.5704 9.40439C21.723 9.37516 21.8769 9.34591 22.0302 9.31666C22.0295 9.31666 22.0289 9.31667 22.0282 9.31668C21.5792 9.34184 21.1349 9.36687 20.697 9.39176ZM87.3658 7.94255C88.3548 7.96971 89.3494 7.99465 90.3399 8.0154C90.3503 7.99751 90.3606 7.97961 90.371 7.96172C89.3749 8.00275 88.9795 7.9192 88.7479 7.90829C88.749 7.90832 88.75 7.90835 88.751 7.90838C88.0076 7.87249 87.299 7.83943 86.5978 7.79525C86.8569 7.8445 87.1091 7.89351 87.3658 7.94255ZM83.9852 7.72499C84.1483 7.85801 84.3614 7.87607 85.8813 7.83369C85.8223 7.81602 85.7617 7.79831 85.7021 7.78065C84.916 7.76532 84.4585 7.78252 84.5979 7.71949C84.3936 7.72107 84.1894 7.72289 83.9852 7.72499ZM99.5002 8.1008C99.3063 8.05852 97.8668 8.08474 97.9405 8.10586C97.9785 8.11496 99.8509 8.18436 99.5002 8.1008ZM225.341 3.98165C225.009 3.99348 224.674 4.00572 224.343 4.018C224.783 3.9753 225.225 3.93295 225.667 3.89099C225.559 3.92118 225.45 3.95142 225.341 3.98165ZM228.983 3.57576C229.221 3.57827 228.456 3.73811 229.876 3.68531C228.844 3.74735 227.813 3.81136 226.781 3.87757C227.264 3.82907 227.746 3.78107 228.229 3.73347C228.143 3.70547 228.056 3.67748 227.97 3.64951C228.308 3.62467 228.645 3.60015 228.983 3.57576ZM230.096 3.59564C229.535 3.53928 232.462 3.36736 232.736 3.36466C232.797 3.36389 233.089 3.41464 233.196 3.4232C232.754 3.447 232.312 3.47114 231.87 3.49565C232.019 3.50836 232.168 3.52111 232.317 3.5339C231.8 3.56936 231.283 3.60531 230.766 3.64176C230.986 3.60826 231.206 3.57488 231.426 3.54156C230.983 3.55922 230.539 3.57724 230.096 3.59564ZM218.358 4.38956C218.516 4.37974 218.689 4.36835 218.842 4.35768C219.051 4.34317 219.262 4.32857 219.473 4.31419C219.398 4.28697 219.32 4.25996 219.244 4.23285C219.107 4.24308 218.971 4.25332 218.835 4.26356C218.753 4.2698 218.668 4.27603 218.581 4.28224C218.507 4.31812 218.427 4.35425 218.358 4.38956ZM225.892 3.82759C225.364 4.01854 223.874 3.76942 225.598 3.78675C225.772 3.78873 225.942 3.8092 225.892 3.82759ZM233.834 3.3247C234.979 3.14969 234.732 3.41624 233.642 3.39942C233.587 3.39837 233.748 3.33773 233.834 3.3247ZM242.485 2.79291C242.576 2.78856 242.738 2.85477 243.612 2.73187C243.759 2.73397 243.905 2.73657 244.049 2.73963C243.705 2.77328 240.833 3.01202 241.22 2.90872C241.662 2.86609 242.028 2.82189 242.485 2.79291ZM239.618 2.73199C239.607 2.73275 239.597 2.73351 239.586 2.73427L239.572 2.73503C239.142 2.75674 238.71 2.77891 238.278 2.8015C238.425 2.8203 238.572 2.83916 238.719 2.85809C238.503 2.87516 238.284 2.89242 238.068 2.90967C237.694 2.88299 237.322 2.85653 236.947 2.83043C237.821 2.78125 238.696 2.73355 239.57 2.6875L239.583 2.68679C239.672 2.68035 239.759 2.67356 239.846 2.6663C239.771 2.68851 239.695 2.71041 239.618 2.73199ZM227.857 3.29113C228.709 3.27217 229.748 3.17625 231.128 3.10419C231.129 3.10423 231.129 3.10428 231.13 3.10432C231.199 3.10083 231.323 3.12925 231.545 3.11832C231.733 3.10679 235.459 2.87046 235.171 2.94689C233.732 3.07458 233.189 3.02289 232.85 3.17437C232.778 3.15013 232.706 3.1259 232.635 3.10169C231.245 3.1288 230.855 3.2488 230.078 3.32887C230.08 3.30757 230.082 3.28627 230.084 3.26497C229.564 3.29273 229.044 3.32097 228.524 3.34979C228.598 3.35932 228.672 3.36887 228.746 3.37842C228.562 3.38931 228.379 3.40023 228.195 3.41124C227.742 3.37551 227.175 3.39542 227.857 3.29113ZM241.633 2.58912C241.935 2.42283 244.446 2.30937 246.395 2.28341C246.921 2.27303 247.402 2.26352 247.793 2.2494C247.391 2.29689 246.905 2.31781 246.396 2.32976C245.68 2.34643 244.932 2.34664 244.329 2.37063C242.334 2.46083 243.716 2.45618 243.379 2.49786C243.211 2.51716 242.08 2.48451 241.633 2.58912ZM224.757 3.51281C225.76 3.46114 226.318 3.38926 227.189 3.39482C227.117 3.41095 227.046 3.4271 226.974 3.44325C226.676 3.44972 224.254 3.57026 224.757 3.51281ZM250.461 2.24815C248.517 2.22137 249.478 2.35124 248.467 2.2587C249.131 2.24086 249.795 2.22376 250.461 2.20616C250.461 2.22016 250.461 2.23415 250.461 2.24815ZM115.066 7.56604C114.255 7.56047 113.329 7.52865 112.848 7.58779C113.398 7.59874 113.955 7.6096 114.516 7.62036C114.7 7.60227 114.882 7.58416 115.066 7.56604ZM138.403 6.97753C138.213 6.96342 137.48 7.00768 137.401 7.00781C137.256 7.00808 137.296 6.9869 137.294 6.9814C136.346 6.98691 137.221 7.05081 136.519 7.06625C136.398 7.06886 134.753 7.03903 134.084 7.04241C133.056 7.04776 132.026 7.04438 131.642 7.04579C130.991 7.04814 129.787 7.09794 128.718 7.1007C128.279 7.10176 128.125 7.06248 127.682 7.0635C124.843 7.07097 119.248 7.11949 116.73 7.08875C116.114 7.08131 115.51 7.02849 115.184 7.03191C114.924 7.0501 114.669 7.06828 114.407 7.08641C113.601 6.91513 113.345 7.06494 112.479 7.07817C111.929 7.08649 111.676 7.03552 111.603 7.03541C111.122 7.03484 110.875 7.05786 110.492 7.06047C110.059 7.06333 109.456 7.03843 109.295 7.04189C109.203 7.0442 109.492 7.11228 107.837 7.10401C106.141 7.09529 104.458 7.07957 102.732 7.06514C103.312 7.27013 103.802 7.13546 104.51 7.13214C104.701 7.13124 104.58 7.16251 104.747 7.16203C105.211 7.16085 106.097 7.13401 106.488 7.14347C106.898 7.15364 106.756 7.22703 107.283 7.20213C107.31 7.20084 107.225 7.16988 107.35 7.16532C108.6 7.12026 109.013 7.1752 110.578 7.18236C111.622 7.1885 117.957 7.17318 118.179 7.19251C119.312 7.30227 112.634 7.289 111.852 7.27668C111.58 7.27284 111.865 7.23999 111.617 7.23272C111.518 7.22982 110.554 7.29108 109.627 7.29291C108.483 7.29527 106.213 7.24117 105.131 7.23664C103.691 7.23094 102.266 7.2228 100.847 7.21166C93.8569 7.20236 86.9404 6.8602 79.9714 6.77498C79.1072 6.76947 78.2636 6.76547 77.4008 6.76287C77.2011 6.76232 76.9501 6.80006 76.2989 6.79887C66.5949 6.78023 56.5706 6.89629 46.6837 7.20548C44.3433 7.27518 42.0015 7.59712 39.6619 7.8127C37.0158 8.06957 34.3732 8.27267 31.6886 8.31424C31.35 8.35143 31.0271 8.38688 30.6884 8.42134C31.5408 8.38621 33.1037 8.39594 33.2508 8.38901C33.3013 8.38715 33.6247 8.34306 34.1445 8.31995C34.8801 8.28656 35.2007 8.29389 35.2618 8.2907C35.4477 8.27993 35.3246 8.25786 35.5009 8.24749C36.8305 8.16799 37.8559 8.07904 39.0675 7.96994C40.441 7.84405 41.1382 7.82385 42.1286 7.66279C42.2445 7.6744 42.3563 7.68644 42.473 7.69804C42.9381 7.59287 44.8791 7.34331 46.6859 7.29047C47.7345 7.25934 48.7615 7.23051 49.4214 7.21424C49.9968 7.19976 49.8924 7.24381 50.0823 7.23854C50.2036 7.23538 50.1546 7.18195 51.6427 7.15375C52.3951 7.13987 52.5955 7.17429 52.9665 7.16401C53.1683 7.15841 53.1332 7.12042 53.4292 7.11342C55.1318 7.07355 56.5058 7.05785 58.1687 7.03497C58.6369 7.02859 58.6495 7.06086 58.7499 7.05867C59.1261 7.05075 59.8009 6.98433 60.7781 6.9698C62.3967 6.94435 65.5896 6.90874 66.9093 6.92584C67.103 6.92819 67.2647 6.96577 67.4086 6.96409C67.6285 6.96141 67.7067 6.92032 67.7454 6.91981C68.4612 6.914 68.0301 6.95473 68.513 6.94233C68.7753 6.93571 69.0465 6.88768 69.6477 6.87923C70.446 6.86824 70.2969 6.92401 70.6249 6.91703C70.66 6.91604 70.6695 6.87779 70.9959 6.87525C72.2485 6.86558 74.0349 6.85403 75.2196 6.85521C75.5548 6.85544 75.8048 6.88135 76.2782 6.88257C76.7688 6.88371 78.4076 6.88345 79.9708 6.89041C81.457 6.8956 82.8468 6.92372 83.0645 6.93592C83.1117 6.93858 82.6312 6.98426 83.3946 6.99939C83.6145 6.981 83.84 6.96313 84.0602 6.94546C84.4311 6.99271 84.7997 7.04085 85.1692 7.08957C85.1603 6.95881 87.3406 7.00864 87.3185 7.14039C87.5525 7.15316 87.7989 7.1662 88.0334 7.17873C88.5382 7.1023 88.8631 7.14637 89.8288 7.1184C89.9808 7.15051 90.1294 7.18244 90.2766 7.21426C90.3146 7.1965 90.3527 7.17873 90.3911 7.16097C90.9065 7.2756 91.7455 7.19243 91.8504 7.19399C92.2533 7.20041 92.5331 7.23175 92.7259 7.23472C93.4111 7.24603 94.905 7.23561 95.7108 7.26299C95.7485 7.26437 95.7098 7.30721 95.9391 7.31575C96.359 7.33113 96.395 7.26818 96.9434 7.3496C97.0554 7.33226 97.1685 7.31491 97.2827 7.29754C97.4072 7.3087 97.5163 7.31965 97.6337 7.33068C98.3314 7.33366 99.02 7.33562 99.7281 7.33698C99.0943 7.40458 99.8149 7.45244 100.509 7.40027C100.746 7.3826 100.536 7.33622 100.615 7.33009C100.631 7.32886 100.714 7.32887 100.846 7.32986C101.563 7.33569 103.896 7.37086 104.054 7.39611C104.202 7.3829 104.35 7.36967 104.5 7.35644C104.575 7.38503 104.651 7.41361 104.726 7.44219C104.809 7.4328 104.895 7.42343 104.974 7.41401C105.773 7.46822 107.904 7.36431 108.281 7.3747C108.485 7.38032 108.295 7.49965 109.283 7.49129C109.317 7.45847 109.352 7.42564 109.386 7.39282C109.616 7.38898 109.832 7.38507 110.057 7.38117C110.476 7.38565 111.096 7.44487 111.116 7.48399C111.248 7.461 111.377 7.43799 111.508 7.41498C111.859 7.49259 113.743 7.47108 114.509 7.42455C114.73 7.44814 114.95 7.4717 115.171 7.49525C115.469 7.46795 115.768 7.44063 116.068 7.41328C116.761 7.40632 116.029 7.45132 116.176 7.45551C116.486 7.46428 118.073 7.38863 117.97 7.48633C118.188 7.48696 118.401 7.48756 118.618 7.48816C118.729 7.46034 118.84 7.43253 118.951 7.40471C119.323 7.50178 119.966 7.46876 121.285 7.50546C121.396 7.48337 121.507 7.46127 121.618 7.43917C122.025 7.47117 122.431 7.50312 122.839 7.53503C122.923 7.49831 123.007 7.4616 123.091 7.42488C123.268 7.41973 123.447 7.41457 123.624 7.4094C123.983 7.49204 124.63 7.40336 124.959 7.43748C125.441 7.48726 125.068 7.54628 124.176 7.5572C124.243 7.61739 126.9 7.59077 127.513 7.58619C127.472 7.57448 127.432 7.56276 127.391 7.55104C126.765 7.56032 126.138 7.56949 125.512 7.57856C124.987 7.42748 126.688 7.46852 127.469 7.44899C127.54 7.44712 127.945 7.38998 128.732 7.39512C129.036 7.3972 130.226 7.48029 130.452 7.48478C132.285 7.52177 130.939 7.40336 132.729 7.50651C132.354 7.42668 133.39 7.49241 134.457 7.47553C134.641 7.47271 136.19 7.40545 136.291 7.40353C136.946 7.39201 136.235 7.4641 137.179 7.44399C137.293 7.42515 137.406 7.40631 137.519 7.38746C137.738 7.38705 137.955 7.38663 138.175 7.38618C139.516 7.54951 139.812 7.42637 140.293 7.40952C140.485 7.4027 140.238 7.44666 140.735 7.43623C140.922 7.43234 141.128 7.39577 141.627 7.39186C143.206 7.37948 143.74 7.53205 145.181 7.36623C145.405 7.38867 145.628 7.4111 145.849 7.43351C145.999 7.40501 146.148 7.37651 146.296 7.348C147.443 7.42427 147.031 7.34296 147.444 7.34217C148.53 7.34022 150.78 7.34405 150.963 7.40955C151.917 7.25068 153.039 7.41618 153.41 7.40749C153.535 7.39596 153.659 7.38442 153.782 7.37287C153.878 7.36416 153.975 7.35544 154.071 7.3467C154.335 7.36334 154.595 7.37984 154.853 7.39617C154.722 7.24704 156.073 7.38153 156.202 7.38182C156.347 7.38325 158.407 7.31083 159.19 7.29624C159.951 7.28407 161.291 7.29538 161.417 7.29209C161.556 7.28909 162.861 7.21675 163.885 7.18552C164.781 7.17264 170.091 7.00113 169.749 6.94007C169.401 6.93955 168.904 6.94794 168.48 6.95886C167.159 7.02052 159.357 7.20682 157.383 7.20255C156.191 7.21296 155.008 7.22127 153.781 7.22731C150.943 7.24097 148.043 7.25376 145.226 7.254C144.988 7.25404 144.95 7.21513 144.751 7.21497C144.448 7.21495 143.669 7.25667 143.362 7.25679C142.24 7.25706 140.86 7.25436 140.254 7.25483C138.904 7.25615 137.973 7.23447 136.952 7.23249C136.628 7.23198 135.012 7.28301 133.902 7.26381C133.701 7.25306 133.5 7.2423 133.299 7.23153C133.87 7.21816 135.372 7.18303 136.066 7.17807C137.103 7.17092 137.644 7.2015 138.024 7.20021C138.349 7.19921 139.977 7.15959 140.729 7.15672C140.96 7.15584 141.007 7.19666 141.204 7.19599C142.279 7.19217 143.697 7.18664 144.625 7.14315C144.241 7.15775 146.621 7.17394 146.744 7.17306C146.96 7.17215 147.194 7.13285 147.627 7.13091C148.449 7.12718 148.37 7.20777 149.404 7.1224C149.655 7.14447 149.928 7.16639 150.186 7.18833C150.198 7.09916 152.493 7.17303 153.78 7.11824C154.04 7.10751 154.258 7.09185 154.411 7.06927C154.417 7.06565 154.17 7.06267 153.779 7.05976C152.597 7.05092 150.095 7.04104 149.822 7.04064C147.704 7.03933 144.6 7.07754 142.549 7.06474C141.928 7.0611 139.999 7.00117 139.847 7.00265C139.613 7.00503 139.824 7.04166 139.723 7.04322C137.645 7.07548 138.679 6.99849 138.403 6.97753ZM230.065 3.09074C229.434 3.12261 228.801 3.1553 228.17 3.18869C228.215 3.16255 228.259 3.13641 228.303 3.11028C228.593 3.10215 228.883 3.09409 229.173 3.08627C229.394 3.05928 229.616 3.03235 229.837 3.00555C229.913 3.03394 229.989 3.06234 230.065 3.09074ZM231.616 2.90483C232.163 2.8627 232.192 2.91073 232.318 2.9062C232.696 2.89289 233.021 2.85533 233.387 2.83648C232.972 2.9761 232.071 2.97122 231.616 2.90483ZM220.307 3.57724C220.433 3.57375 221.262 3.64054 222.192 3.45887C222.895 3.44798 223.598 3.43834 224.302 3.4298C223.106 3.45014 221.464 3.62315 220.881 3.66288C220.659 3.67781 220.616 3.642 220.438 3.65421C219.817 3.69698 219.203 3.77484 218.8 3.80127C218.551 3.81752 218.357 3.81328 218.32 3.76575C218.48 3.76111 218.65 3.75171 218.796 3.74097C219.557 3.68495 220.176 3.58099 220.307 3.57724ZM226.466 3.21099C226.63 3.22766 226.796 3.24434 226.961 3.26111C226.37 3.29744 225.782 3.33429 225.191 3.37209C225.349 3.33479 225.507 3.29746 225.665 3.26025C225.931 3.24374 226.2 3.2272 226.466 3.21099ZM181.072 6.12947C181.213 6.12108 181.353 6.11299 181.494 6.10521C181.715 6.09302 181.942 6.08022 182.163 6.06745C182.144 6.04906 181.724 6.07344 181.571 6.06872C181.572 6.06868 181.572 6.06864 181.573 6.0686C181.537 6.06749 181.512 6.06531 181.492 6.06263C181.415 6.05262 181.408 6.03516 181.163 6.04088C181.133 6.07039 181.102 6.09992 181.072 6.12947ZM30.2459 8.34478C30.1684 8.34576 30.01 8.34796 29.7897 8.35051C28.2945 8.36855 24.0488 8.42022 24.4619 8.47801C24.7099 8.51131 26.644 8.46026 27.2046 8.45463C27.783 8.44899 29.0795 8.47795 29.7906 8.42741C30.0306 8.41042 30.1978 8.38396 30.2459 8.34478ZM20.2392 8.43388C20.1449 8.50624 23.6733 8.485 24.0148 8.46878C23.9417 8.45935 23.8292 8.43788 23.7324 8.43371C23.2543 8.41406 20.9985 8.44689 20.2392 8.43388ZM160.668 7.03294C160.946 7.06295 161.238 7.09235 161.525 7.12154C161.449 7.07654 161.372 7.03152 161.295 6.9865C161.081 7.00228 160.875 7.01768 160.668 7.03294ZM133.07 7.2535C128.331 7.25599 123.591 7.25262 118.851 7.24293C119.266 7.22414 119.688 7.2053 120.103 7.1864C124.185 7.19881 128.542 7.21913 132.484 7.18546C132.678 7.20815 132.875 7.23083 133.07 7.2535ZM218.961 3.46522C218.899 3.46988 218.837 3.4746 218.776 3.47936C217.642 3.56551 216.671 3.64497 215.416 3.65833C216.672 3.53958 217.3 3.59004 218.518 3.42791C218.518 3.42786 218.519 3.42781 218.52 3.42776C218.607 3.43505 218.691 3.44235 218.774 3.44963C218.836 3.45482 218.899 3.46002 218.961 3.46522ZM191.918 5.20223C192.282 5.14062 192.647 5.07868 193.015 5.0161C192.57 5.05209 192.131 5.08709 191.685 5.12212C191.763 5.14885 191.841 5.17552 191.918 5.20223ZM91.7321 6.87006C90.4607 6.91776 87.2242 6.692 86.1867 6.74253C86.1203 6.74609 86.7315 6.80172 85.7388 6.84045C86.4881 6.84976 87.0164 6.8522 87.0735 6.79873C87.2988 6.82462 87.5141 6.85014 87.7399 6.87587C88.1071 6.87309 88.4743 6.86999 88.8488 6.86662C88.8088 6.92037 88.8303 6.91838 89.4042 6.89667C89.6573 6.91756 89.9226 6.93853 90.1771 6.95896C90.2855 6.93845 90.3953 6.91794 90.5067 6.89742C90.7392 6.93574 90.9472 6.97328 91.1757 7.01114C92.048 6.99559 91.5179 6.92046 91.7321 6.87006ZM96.1773 6.96057C95.9679 6.95285 90.0886 6.88014 92.759 7.04173C93.4446 7.05167 94.1531 7.06048 94.8415 7.0677C94.2713 6.87759 96.1533 7.06828 96.322 7.07359C97.0549 7.10112 98.0068 7.06871 98.5559 7.07648C99.01 7.08309 99.2898 7.11827 99.6256 7.12048C99.9784 7.12276 100.409 7.12567 100.847 7.12589C101.706 7.12601 102.577 7.11471 102.732 7.06514C102.126 7.06004 101.466 7.05462 100.848 7.05017C100.591 7.04832 100.338 7.04657 100.087 7.04495C99.1428 7.03852 98.2971 6.96065 96.515 7.03534C96.0774 7.01916 96.2295 6.96435 96.1773 6.96057ZM194.123 4.93289C194.086 5.01284 196.323 4.80431 196.336 4.77172C196.34 4.75397 195.606 4.81838 195.504 4.82026C195.504 4.82032 195.503 4.82038 195.502 4.82044C195.459 4.82128 195.677 4.77362 195.333 4.795C194.93 4.84147 194.527 4.8874 194.123 4.93289ZM39.0146 7.71513C38.7163 7.75136 31.7799 8.16796 31.5772 8.14206C31.5214 8.14912 31.6 8.16568 31.5781 8.17696C33.1916 8.08009 35.5009 8.03545 37.0346 7.922C37.4614 7.89135 37.33 7.87085 37.3545 7.86851C37.3555 7.86844 37.3565 7.86836 37.3575 7.86828C37.6038 7.85063 38.7035 7.83246 39.0146 7.71513ZM83.9669 6.71127C84.261 6.73065 84.5551 6.75064 84.8495 6.77107C84.9249 6.74992 85.0003 6.72879 85.0757 6.70768C85.075 6.70766 85.0743 6.70764 85.0737 6.70762C84.7048 6.70813 84.3359 6.70922 83.9669 6.71127ZM73.7471 6.5581C73.8184 6.57447 73.8898 6.59085 73.9613 6.60724C74.7038 6.60898 75.4459 6.6116 76.1894 6.6151C76.1143 6.62425 76.0392 6.63341 75.9642 6.64259C77.0976 6.66914 77.5467 6.61308 78.1531 6.62352C78.1525 6.62352 78.1518 6.62351 78.1511 6.62351C78.216 6.62472 78.295 6.65925 78.532 6.66138C78.8321 6.66405 79.4448 6.67139 79.972 6.6724C80.4055 6.67318 80.7614 6.67059 80.8496 6.65597C81.0133 6.62765 80.5865 6.61082 79.9724 6.60351C79.0831 6.59272 77.8415 6.59953 77.488 6.59663C77.221 6.59427 76.9021 6.5635 76.7413 6.56245C76.5652 6.56141 76.3175 6.60134 75.8846 6.59951C75.7598 6.5987 74.35 6.55018 73.7471 6.5581ZM60.6372 6.71165C60.8721 6.74512 61.3438 6.70245 61.5194 6.70605C61.5613 6.70689 61.2362 6.74251 61.6311 6.74623C61.7428 6.7235 61.855 6.70079 61.9678 6.67809C61.5168 6.68905 61.0922 6.69996 60.6372 6.71165ZM197.881 4.56771C197.879 4.56767 197.878 4.56768 197.875 4.56773C197.773 4.57085 196.613 4.67928 196.559 4.68852C195.965 4.79726 197.558 4.66044 197.878 4.59498C197.947 4.58121 197.959 4.57103 197.881 4.56771ZM228.258 2.62678C227.698 2.55638 234.278 2.28104 234.915 2.25016C234.887 2.31314 233.319 2.33312 234.143 2.37483C233.359 2.36839 231.199 2.51161 230.69 2.52763C230.381 2.53697 230.3 2.48818 230.253 2.48915C230.07 2.4932 228.455 2.6493 228.258 2.62678ZM240.35 2.00324C240.081 2.02307 239.812 2.0404 239.541 2.05293C239.187 2.06232 238.83 2.0721 238.475 2.08204C238.829 2.06207 239.186 2.04227 239.54 2.02287C239.921 1.99463 240.301 1.95583 240.681 1.91557C240.571 1.94494 240.461 1.97428 240.35 2.00324ZM241.131 1.90095C241.103 1.8338 243.23 1.71772 243.783 1.69029C243.159 1.82047 242.11 1.78412 241.131 1.90095ZM205.851 3.85812C204.872 3.87239 204.462 4.0787 205.646 3.93294C205.682 3.92832 205.892 3.85798 205.851 3.85812ZM91.4393 6.60667C91.2628 6.60289 89.2088 6.49128 89.0788 6.51563C88.6942 6.59845 90.0661 6.59937 90.5129 6.64507C91.2515 6.71984 90.1594 6.74254 91.9615 6.74828C91.8863 6.7654 91.8117 6.78251 91.7377 6.79961C92.791 6.82826 92.446 6.69087 92.6372 6.67819C92.7034 6.67455 93.3453 6.69769 93.471 6.69157C94.9533 6.61415 91.5953 6.61393 91.4393 6.60667ZM181.694 5.61646C181.613 5.61877 181.538 5.62099 181.467 5.62313C179.81 5.68192 180.505 5.70933 178.594 5.84778C178.537 5.88638 180.722 5.70704 181.468 5.64292C181.581 5.6323 181.661 5.62314 181.694 5.61646ZM110.398 6.86386C108.383 6.87282 106.73 6.81178 104.852 6.8738C104.96 6.98735 110.93 6.8956 110.398 6.86386ZM15.7906 7.96373C20.2014 8.04237 24.9566 8.02602 29.7853 7.97321C33.5603 7.93854 37.348 7.68545 40.9876 7.30253C41.8932 7.21021 41.9858 7.2445 42.3109 7.20659C42.5252 7.18165 42.4861 7.14982 42.7688 7.12115C44.0738 6.98998 45.3727 6.86558 46.6739 6.82942C55.6118 6.54109 64.2905 6.37378 72.9533 6.37706C73.5798 6.37603 76.6222 6.45383 77.2686 6.34185C77.7617 6.25557 75.572 6.31865 75.2138 6.31836C74.9443 6.31765 74.9277 6.27662 74.7451 6.27644C74.5504 6.27629 74.7111 6.30432 74.4855 6.30477C73.537 6.30684 72.4943 6.29776 71.6352 6.30294C63.2171 6.3525 55.0291 6.48421 46.6715 6.73747C46.6453 6.73814 46.6191 6.73885 46.5929 6.73959C45.5703 6.77617 45.7796 6.74302 45.7279 6.7432C45.7273 6.74332 45.7266 6.74344 45.7259 6.74356C40.716 7.14039 35.1473 7.89168 29.7843 7.87934C29.2944 7.88394 28.8119 7.88776 28.3372 7.8907C24.2688 7.91325 20.2182 7.92871 16.1445 7.93668C16.0259 7.9457 15.908 7.95472 15.7906 7.96373ZM95.7325 6.80013C95.2414 6.66862 95.1148 6.79411 93.2954 6.71107C93.1465 6.72948 93 6.74787 92.8559 6.76623C93.8172 6.78022 94.7711 6.79119 95.7355 6.80018C95.7345 6.80016 95.7335 6.80015 95.7325 6.80013ZM83.7314 6.45673C83.5327 6.34149 81.7227 6.31176 79.974 6.31728C79.0446 6.31888 78.1568 6.32232 77.5175 6.30937C77.2433 6.37747 78.9839 6.36989 79.9737 6.37395C80.193 6.37474 80.3687 6.37613 80.479 6.37858C80.7963 6.38448 82.4694 6.48842 83.7484 6.47424C83.7427 6.46841 83.737 6.46257 83.7314 6.45673ZM221.366 2.8256C221.073 2.85104 220.775 2.87713 220.482 2.90307C221.222 2.8685 221.962 2.83555 222.702 2.80394C221.523 2.8719 220.342 2.94341 219.162 3.01951C219.382 2.96826 219.595 2.91769 219.814 2.8668C220.33 2.85234 220.849 2.83851 221.366 2.8256ZM217.549 3.11478C219.605 2.96655 217.468 3.20427 216.943 3.18916C216.636 3.18184 217.339 3.12948 217.549 3.11478ZM212.173 3.33128C213.136 3.22483 215.081 3.12514 214.396 3.28075C213.352 3.27494 212.68 3.35403 211.169 3.39333C211.386 3.3596 211.61 3.32552 211.828 3.29175C211.829 3.2917 211.83 3.29165 211.831 3.29161C211.945 3.30484 212.057 3.31815 212.173 3.33128ZM218.486 2.97935C218.62 2.97665 218.699 2.97672 218.738 2.97891C218.783 2.98115 218.779 2.98606 218.739 2.99276C218.455 3.04825 216.174 3.15835 217.157 3.06432C217.21 3.0605 218.431 2.98271 218.486 2.97935ZM24.4548 7.76224C24.2916 7.80371 25.3376 7.79244 25.6806 7.79152C26.9177 7.78839 28.408 7.76242 29.7827 7.74561C30.0956 7.74179 30.3899 7.73753 30.6777 7.73321C30.5566 7.72235 30.4442 7.71117 30.3264 7.69993C30.147 7.70268 29.9656 7.70509 29.7823 7.70712C28.0033 7.72687 26.2283 7.74525 24.4548 7.76224ZM35.5485 7.54218C36.6224 7.47684 37.6829 7.39634 38.7541 7.30139C38.8519 7.29291 39.3177 7.21625 38.9677 7.23966C37.832 7.35643 36.6935 7.45838 35.5485 7.54218ZM102.513 6.62814C101.691 6.60046 104.07 6.50165 103.954 6.62307C103.488 6.62502 102.985 6.62659 102.513 6.62814ZM110.177 6.61747C109.666 6.62726 109.143 6.63689 108.627 6.64641C108.626 6.63233 108.626 6.61825 108.625 6.60417C109.142 6.60872 109.666 6.61318 110.177 6.61747ZM20.2334 7.77377C20.7827 7.8172 22.0889 7.79793 22.8984 7.79113C22.3398 7.75512 21.0026 7.78781 20.2334 7.77377ZM90.1873 6.40437C90.2494 6.44161 86.9837 6.33721 88.1159 6.31294C88.806 6.345 89.4948 6.37558 90.1873 6.40437ZM83.5403 6.16054C84.2438 6.17002 84.7882 6.19787 84.642 6.2451C84.2698 6.23228 83.8971 6.22022 83.5239 6.20924C83.5293 6.19301 83.5348 6.17677 83.5403 6.16054ZM208.497 3.41095C207.314 3.47467 206.131 3.54104 204.948 3.61274C204.991 3.5962 205.034 3.57967 205.077 3.56314C206.218 3.4943 207.359 3.43033 208.499 3.3688C208.498 3.38285 208.498 3.3969 208.497 3.41095ZM19.5624 7.65312C18.7503 7.66926 17.9447 7.68505 17.1225 7.70067C17.9455 7.70368 18.752 7.70652 19.5649 7.709C19.5647 7.69029 19.5646 7.67157 19.5644 7.65285C19.5637 7.65294 19.563 7.65303 19.5624 7.65312ZM224.67 2.28004C221.052 2.4524 225.659 2.07754 226.618 2.11821C226.619 2.11807 226.62 2.11793 226.621 2.11778C226.705 2.12113 226.531 2.17321 226.671 2.18122C226.302 2.18533 225.933 2.18978 225.565 2.19442C225.229 2.23888 224.897 2.28339 224.562 2.32835C224.451 2.32641 224.341 2.32448 224.23 2.32257C224.376 2.30837 224.523 2.2942 224.67 2.28004ZM239.256 1.44008C239.347 1.43615 239.432 1.43254 239.513 1.42924L239.501 1.42991C241.291 1.28935 240.62 1.39412 239.504 1.48811L239.515 1.4875C238.887 1.52026 238.12 1.55006 237.557 1.54896C237.57 1.52922 238.952 1.45287 239.256 1.44008ZM230.666 1.90277C230.15 1.94136 229.634 1.98042 229.118 2.02003C229.052 2.01211 228.985 2.0042 228.918 1.9963C229.314 1.9613 229.71 1.92657 230.105 1.89214C230.292 1.89561 230.479 1.89917 230.666 1.90277ZM213.701 2.78037C212.87 2.8073 211.818 2.9902 214.481 2.82605C214.479 2.81206 214.477 2.79807 214.475 2.78407C214.371 2.79151 214.057 2.8201 214.039 2.81991C213.989 2.81881 214.047 2.76899 213.701 2.78037ZM245.31 0.676653C245.401 0.669137 245.446 0.524694 246.357 0.636478C246.382 0.639629 246.407 0.64298 246.433 0.646542C246.727 0.630458 247.021 0.615114 247.317 0.600154C247.393 0.631443 247.469 0.662745 247.546 0.694058C246.825 0.691197 246.508 0.719581 246.359 0.740634C246.269 0.752977 246.233 0.763052 246.203 0.764308C245.824 0.779958 246.107 0.73874 245.859 0.744727C245.227 0.757652 243.784 0.837748 244.436 0.715036C244.667 0.670888 245.221 0.684443 245.31 0.676653ZM243.062 0.686275C243.203 0.690642 242.753 0.759982 242.86 0.766154C242.954 0.767778 244.341 0.746999 243.969 0.838059C243.742 0.844876 243.513 0.852727 243.288 0.861541C243.208 0.845629 243.131 0.829658 243.053 0.813919C242.832 0.844948 242.613 0.87703 242.394 0.910465C242.017 0.885685 241.218 0.885579 242.16 0.772245C241.811 0.801616 241.465 0.834811 241.121 0.870834C240.944 0.910993 240.77 0.951738 240.597 0.992207C240.685 0.94732 240.774 0.902371 240.863 0.857523C241.59 0.785866 242.328 0.728104 243.062 0.686275ZM253.663 0.448455C253.622 0.468024 253.581 0.487585 253.54 0.50714C254.789 0.44816 256.733 0.382509 255.631 0.528771C253.939 0.581649 252.247 0.622453 250.552 0.65937C250.44 0.647099 250.329 0.634792 250.214 0.622538C251.482 0.656297 251.085 0.432181 252.186 0.479111C252.371 0.486859 251.834 0.577907 252.998 0.50426C252.956 0.486266 252.914 0.468265 252.873 0.450258C253.134 0.449895 253.402 0.449216 253.663 0.448455ZM264.381 0.0780692C262.25 0.170426 264.592 -0.0271748 264.988 0.00306064C264.988 0.00310194 264.987 0.00314367 264.986 0.0031848C266.073 0.0921512 263.752 0.158792 263.61 0.164486C263.423 0.175805 262.99 0.31215 261.958 0.199096C262.767 0.16304 263.573 0.122955 264.381 0.0780692ZM257.417 0.353506C257.596 0.344321 257.498 0.37562 257.575 0.372804C257.575 0.372783 257.576 0.372762 257.577 0.372741C258.719 0.33511 261.437 0.198496 261.734 0.272692C260.889 0.327277 257.104 0.479764 256.873 0.419068C257.053 0.397393 257.235 0.375543 257.417 0.353506ZM249.36 0.591612C248.657 0.543662 250.239 0.510936 250.655 0.531476C250.733 0.536158 250.092 0.641264 249.36 0.591612ZM195.343 3.58176C193.804 3.74838 195.834 3.6112 195.135 3.72645C195.432 3.69642 195.725 3.66637 196.017 3.63611C195.795 3.61797 195.564 3.60041 195.343 3.58176ZM124.845 5.78147C124.483 5.77474 124.654 5.80871 124.623 5.8092C124.386 5.80814 124.162 5.7804 124.071 5.78327C122.388 5.83788 123.507 5.86709 123.525 5.87373C123.56 5.90728 123.118 5.94621 123.73 5.98495C124.102 5.97331 124.474 5.96164 124.847 5.94993C125.031 5.96865 125.217 5.98736 125.401 6.00606C126.14 5.96632 125.174 5.95504 125.063 5.90193C125.021 5.88105 125.717 5.85638 124.845 5.78147ZM192.571 3.69889C192.328 3.77757 191.717 3.90059 192.326 3.91151C192.327 3.91145 192.327 3.9114 192.328 3.91135C192.44 3.9133 192.894 3.88274 193.034 3.88658C194.021 3.72719 193.633 3.67828 192.571 3.69889ZM131.521 5.67507C132.122 5.68838 132.719 5.7016 133.322 5.71471C133.312 5.75004 133.301 5.78536 133.291 5.82069C132.97 5.81151 132.647 5.8023 132.327 5.79307C132.215 5.80928 132.102 5.82549 131.99 5.84169C132.388 5.88165 132.786 5.92156 133.186 5.96142C133.668 5.94684 134.146 5.9322 134.626 5.9175C134.404 5.89915 134.186 5.88079 133.965 5.86242C135.135 5.84039 134.886 5.92659 135.855 5.95798C136.186 5.92475 136.52 5.89149 136.854 5.85819C137.337 5.89022 137.814 5.9222 138.298 5.95409C139.111 5.93705 139.18 5.91182 138.635 5.87551C139.039 5.83183 139.476 5.89822 139.96 5.87961C140.001 5.8781 139.925 5.83794 139.96 5.83737C142.465 5.80391 142.338 5.90965 142.736 5.91308C143.012 5.91538 144.149 5.84015 144.164 5.81569C144.186 5.78267 141.839 5.6615 145.513 5.64505C143.614 5.56277 141.457 5.65989 142.85 5.78724C142.252 5.7761 139.594 5.81576 139.43 5.812C139.185 5.8066 139.271 5.75654 138.963 5.75592C138.781 5.75558 138.294 5.87078 136.853 5.77372C136.669 5.79276 136.483 5.81179 136.298 5.83081C136.126 5.81571 135.954 5.8006 135.782 5.78549C136.136 5.7301 136.492 5.67467 136.849 5.61919C135.439 5.68125 134.269 5.57074 133.412 5.66603C132.668 5.65584 132.308 5.64527 132.626 5.59675C132.404 5.59696 132.182 5.59716 131.959 5.59734C131.813 5.62326 131.667 5.64917 131.521 5.67507ZM188.045 4.12944C187.307 4.12802 187.051 4.2641 187.166 4.26276C187.813 4.25381 188.429 4.13002 188.045 4.12944ZM126.184 5.84466C126.998 5.87527 127.812 5.90571 128.625 5.93596C128.625 5.89861 128.625 5.86126 128.625 5.82391C127.812 5.831 126.998 5.83792 126.184 5.84466ZM195.56 3.47883C195.638 3.50019 195.715 3.5216 195.791 3.54306C196.53 3.3918 197.294 3.41565 197.763 3.38253C197.848 3.37657 197.924 3.36893 197.99 3.35825C198.076 3.34431 197.921 3.3172 197.757 3.31707C197.741 3.317 197.724 3.31722 197.707 3.31779C197.598 3.32329 195.713 3.4574 195.56 3.47883ZM232.632 1.17448C232.301 1.21124 231.97 1.2482 231.639 1.28536C231.656 1.2529 231.672 1.22044 231.689 1.18798C231.853 1.17305 232.016 1.15818 232.18 1.14336C232.331 1.15369 232.482 1.16406 232.632 1.17448ZM228.857 1.43793C228.264 1.47031 227.673 1.50325 227.08 1.53702C229.338 1.37162 227.482 1.46911 228.852 1.34654C228.853 1.377 228.855 1.40746 228.857 1.43793ZM222.859 1.75169C222.931 1.72798 223.002 1.7044 223.073 1.68077C223.667 1.64096 224.257 1.60226 224.851 1.56407C224.471 1.52311 224.093 1.48232 223.714 1.44194C223.498 1.45601 223.278 1.47045 223.062 1.48479C222.994 1.57375 222.928 1.66266 222.859 1.75169ZM108.844 5.60801C108.488 5.60553 107.242 5.65711 107.294 5.67828C107.818 5.70646 108.328 5.73443 108.846 5.76231C108.848 5.72489 108.851 5.68746 108.854 5.65004C108.927 5.66897 109 5.6879 109.074 5.70682C109.371 5.694 109.666 5.68113 109.957 5.6682C110.104 5.70146 110.252 5.7347 110.4 5.76795C110.55 5.73112 110.699 5.69429 110.85 5.65746C109.425 5.58624 109.483 5.65243 109.182 5.65061C109.031 5.6497 108.936 5.62614 108.882 5.61427C108.87 5.61218 108.857 5.6101 108.844 5.60801ZM126.746 5.60648C125.05 5.59694 124.081 5.69489 122.852 5.61151C123.64 5.78827 128.723 5.60838 130.515 5.75311C130.701 5.72485 130.887 5.69658 131.074 5.6683C130.098 5.69401 129.422 5.63624 128.946 5.62803C128.568 5.62151 128.607 5.651 128.578 5.65058C128.577 5.65058 128.576 5.65058 128.574 5.65058C127.689 5.63863 127.416 5.61021 126.746 5.60648ZM196.799 3.23139C196.342 3.22815 195.555 3.30097 195.548 3.36664C195.99 3.34729 196.435 3.32707 196.876 3.30608C196.784 3.29776 196.878 3.23192 196.799 3.23139ZM222.158 1.61758C221.8 1.62074 220.961 1.69823 221.327 1.72876C221.393 1.73393 222.227 1.63674 221.744 1.77165C222.559 1.71384 222.362 1.61584 222.158 1.61758ZM155.732 5.64611C156.034 5.64096 156.332 5.63559 156.626 5.63002C156.694 5.60296 156.762 5.57588 156.83 5.5488C156.47 5.58155 156.104 5.61399 155.732 5.64611ZM200.65 2.85958C201.062 2.95808 201.733 2.78595 202.491 2.84291C202.766 2.82603 203.044 2.80937 203.321 2.79322C203.322 2.79318 203.322 2.79314 203.323 2.7931C203.328 2.75771 203.334 2.72233 203.339 2.68694C202.443 2.73971 201.547 2.79643 200.65 2.85958ZM137.072 5.66787C137.257 5.68382 137.441 5.69975 137.625 5.71568C137.951 5.6961 138.28 5.67648 138.61 5.65682C138.432 5.64361 138.253 5.63038 138.074 5.61715C137.741 5.63409 137.407 5.651 137.072 5.66787ZM205.516 2.54325C204.548 2.58113 204.191 2.71325 205.428 2.644C205.948 2.61526 206.53 2.50478 205.516 2.54325ZM90.4381 5.44804C90.7772 5.46605 91.0902 5.48303 91.4295 5.50024C91.5393 5.47929 91.6506 5.45832 91.7634 5.43734C91.3293 5.44178 90.8853 5.44533 90.4381 5.44804ZM226.736 1.33288C226.698 1.35867 226.661 1.38446 226.623 1.41025C226.328 1.42378 226.033 1.43746 225.737 1.45135C225.81 1.42345 225.883 1.39556 225.956 1.36767C226.217 1.35587 226.475 1.34439 226.736 1.33288ZM92.6552 5.51209C92.931 5.52204 93.1748 5.53115 93.4454 5.54056C93.6283 5.5325 93.8006 5.52415 93.9762 5.51577C93.7361 5.50033 93.4831 5.4845 93.2368 5.46859C93.0421 5.48319 92.8567 5.49786 92.6552 5.51209ZM214.662 2.0999C214.295 2.09025 212.817 2.24973 214.151 2.2073C214.996 2.1799 214.721 2.10119 214.662 2.0999ZM216.653 1.96751C215.247 1.98838 216.312 2.21243 217.974 1.93032C216.3 2.05884 216.735 1.96476 216.653 1.96751ZM229.048 1.01098C229.083 1.00904 229.115 1.0464 229.4 1.03129C230.423 0.976619 231.775 0.916748 232.507 0.879585C233.932 0.804647 237.74 0.566805 239.472 0.533768L239.442 0.535417C239.822 0.520555 240.101 0.508548 240.22 0.519531C240.349 0.531543 240.063 0.629224 240.115 0.628082C240.26 0.626085 241.161 0.504267 240.999 0.57274C240.461 0.622935 239.952 0.675847 239.454 0.707472L239.48 0.706012C239.127 0.721843 238.771 0.738085 238.417 0.754486C238.632 0.707402 238.847 0.660486 239.063 0.613568C236.859 0.735975 237.589 0.700529 236.958 0.811201C236.584 0.798234 236.208 0.785604 235.834 0.77317C235.024 0.845223 234.213 0.918523 233.403 0.993024C233.585 0.959916 233.769 0.926834 233.951 0.893844C232.726 0.91536 233.067 0.925878 232.401 1.0186C232.398 0.995358 232.395 0.972111 232.393 0.948864C231.215 1.07027 230.981 1.01399 230.723 1.02758C230.193 1.05654 229.535 1.36898 227.5 1.21621C226.656 1.40002 226.659 1.13058 226.168 1.29814C224.717 1.24003 227.461 1.12085 228.758 1.05073C228.759 1.05069 228.76 1.05065 228.76 1.05061C228.858 1.04527 228.701 1.02935 229.048 1.01098ZM221.656 1.61919C222.52 1.43603 219.07 1.66974 220.224 1.76312C220.396 1.75645 220.565 1.75005 220.735 1.74365C221.044 1.70174 221.348 1.66045 221.658 1.61905C221.657 1.6191 221.656 1.61915 221.656 1.61919ZM189.344 3.68162C186.175 3.96454 187.983 3.9025 189.054 3.75492C189.268 3.72547 189.383 3.6982 189.344 3.68162ZM124.322 5.51242C124.276 5.52696 124.229 5.5415 124.182 5.55604C125.253 5.54314 127.322 5.59958 127.293 5.5013C126.302 5.50527 125.313 5.50898 124.322 5.51242ZM132.787 5.44646C132.557 5.44078 131.619 5.42757 131.732 5.46422C132.14 5.48995 132.544 5.51563 132.952 5.54127C133.142 5.5248 133.332 5.50833 133.522 5.49184C133.257 5.4866 132.849 5.44795 132.787 5.44646Z" fill="#49606B"/>
</svg>
