<svg preserveAspectRatio="none" overflow="visible" style="display: block;" width="69.6155" height="67.2033" viewBox="0 0 69.6155 67.2033" fill="none" xmlns="http://www.w3.org/2000/svg">
<g id="OBJECTS">
<path id="Vector" d="M32.1129 50.3277C43.5165 50.3277 52.761 41.0713 52.761 29.6529C52.761 18.2345 43.5165 8.97802 32.1129 8.97802C20.7092 8.97802 11.4648 18.2345 11.4648 29.6529C11.4648 41.0713 20.7092 50.3277 32.1129 50.3277Z" stroke="#C0D5D8" stroke-width="0.75" stroke-miterlimit="10"/>
<path id="Vector_2" d="M32.1129 48.2655C42.3791 48.2655 50.7015 39.9323 50.7015 29.6528C50.7015 19.3732 42.3791 11.04 32.1129 11.04C21.8466 11.04 13.5242 19.3732 13.5242 29.6528C13.5242 39.9323 21.8466 48.2655 32.1129 48.2655Z" stroke="#C0D5D8" stroke-width="0.75" stroke-miterlimit="10"/>
<path id="Vector_3" d="M7.92302 43.604C10.9913 48.9365 15.7317 53.1058 21.4085 55.4649C27.0853 57.8239 33.381 58.2407 39.3186 56.6506C45.2561 55.0605 50.5035 51.5524 54.2462 46.6708C57.9889 41.7891 60.0177 35.807 60.0177 29.6528C60.0177 23.4985 57.9889 17.5164 54.2462 12.6348C50.5035 7.75317 45.2561 4.24508 39.3186 2.65497C33.381 1.06486 27.0853 1.48166 21.4085 3.84068C15.7317 6.1997 10.9913 10.369 7.92302 15.7015" stroke="#C0D5D8" stroke-width="0.75" stroke-miterlimit="10"/>
<path id="Vector_4" d="M6.95868 44.5899C10.2275 50.1076 15.2159 54.3976 21.1568 56.8001C27.0978 59.2027 33.6624 59.5848 39.8413 57.8878C46.0203 56.1909 51.4716 52.5087 55.357 47.4074C59.2425 42.3062 61.347 36.0683 61.347 29.6528C61.347 23.2374 59.2425 16.9995 55.357 11.8982C51.4716 6.79698 46.0203 3.1148 39.8413 1.41782C33.6624 -0.279156 27.0978 0.103008 21.1568 2.50556C15.2159 4.90811 10.2275 9.19804 6.95868 14.7158" stroke="#C0D5D8" stroke-width="0.75" stroke-miterlimit="10"/>
<path id="Vector_5" d="M0.321186 48.8673C3.62548 54.3504 8.2889 58.8853 13.8591 62.0323C19.4293 65.1792 25.7172 66.8313 32.1129 66.8283C52.6172 66.8283 69.2404 50.1836 69.2404 29.6527C69.2499 23.4337 67.6945 17.3125 64.7177 11.8542" stroke="#C0D5D8" stroke-width="0.75" stroke-miterlimit="10"/>
</g>
</svg>
